ply
format ascii 1.0
comment PCL generated
element vertex 1160
property float x
property float y
property float z
element camera 1
property float view_px
property float view_py
property float view_pz
property float x_axisx
property float x_axisy
property float x_axisz
property float y_axisx
property float y_axisy
property float y_axisz
property float z_axisx
property float z_axisy
property float z_axisz
property float focal
property float scalex
property float scaley
property float centerx
property float centery
property int viewportx
property int viewporty
property float k1
property float k2
end_header
-8.0422115 0.15013146 6.5917587
-8.0450916 0.16765463 6.6041217
-8.0300655 0.17563838 6.5839052
-8.0100355 0.1587584 6.5446954
-1.6817369 -1.4309101 -4.1754398
-1.710799 -1.4862931 -4.1541305
-1.7434645 -1.500278 -4.1086798
-1.7765887 -1.5049211 -4.058342
-1.8170395 -1.5248659 -4.0032287
-1.8762691 -1.5220494 -3.9082665
-1.8998847 -1.5128598 -3.8668108
-1.9325502 -1.526845 -3.8213596
-1.9443581 -1.5222499 -3.800632
-1.9619305 -1.5242525 -3.7737222
-1.9776254 -1.5167828 -3.745564
-1.9815128 -1.5139074 -3.738133
-1.992382 -1.5045764 -3.7167807
-2.006669 -1.4900019 -3.6876845
-2.0083923 -1.420054 -3.653801
-2.01647 -1.3661263 -3.6169996
-2.0204 -1.3372068 -3.5979004
-2.0118804 -1.2996351 -3.5946436
-2.0435016 -1.1637521 -3.4840879
-2.0555253 -1.1651077 -3.4656692
-2.0753334 -1.1624905 -3.4331646
-2.1004388 -1.1767232 -3.399785
-2.1081195 -1.1835302 -3.3906655
-2.1978803 -1.2993994 -3.3002667
-2.2044139 -1.3376174 -3.3069539
-2.2573471 -1.4650466 -3.2799697
-2.2659009 -1.5026233 -3.2831745
-2.3022621 -1.5027571 -3.2257071
-2.3285236 -1.5177765 -3.1908484
-2.3359983 -1.522958 -3.1813307
-2.3501394 -1.5301472 -3.1621609
-2.3799691 -1.5298364 -3.1148286
-2.3945813 -1.5393941 -3.0959673
-2.4376087 -1.5415351 -3.0288472
-2.4631276 -1.5160227 -2.9771094
-2.4733634 -1.526058 -2.9653859
-2.5475016 -1.5567889 -2.8617802
-2.5627189 -1.5469203 -2.8333092
-2.5973969 -1.5485007 -2.7791486
-2.6110663 -1.5533211 -2.7596693
-2.6449347 -1.5283695 -2.6949716
-2.6130853 -1.5410006 -2.7509866
-2.5832558 -1.5413115 -2.7983189
-2.5529547 -1.5392537 -2.8453422
-7.5798721 -1.5308323 5.1115251
-7.5217199 -1.5348015 5.0177546
-7.4874525 -1.5356487 4.9631619
-7.533802 -1.5549822 5.0278802
-7.7751632 -1.5667806 5.4044833
-7.8121543 -1.5335066 5.477829
-7.7681327 -1.5259955 5.4115276
-7.7206545 -1.5240576 5.337275
-7.688715 -1.5367273 5.2811003
-7.6456251 -1.5339451 5.2141662
-7.6132202 -1.5442504 5.1583076
-7.6385126 -1.5672162 5.1880941
-7.6709175 -1.556911 5.2439523
-7.7144737 -1.5620575 5.3105702
-8.325285 -1.5647912 6.2757201
-8.3578939 -1.5736489 6.3233657
-8.371769 -1.556674 6.3528776
-8.3865738 -1.5444281 6.3817573
-8.3729286 -1.5424709 6.3610401
-4.2522368 1.3860414 1.1461388
-4.2227988 1.3877804 1.1003394
-4.1546021 1.4343204 1.0131752
-4.1388917 1.4268193 0.98497838
-4.1282372 1.4209228 0.96549541
-4.0937967 1.4167817 0.9091624
-4.0798955 1.4043062 0.881612
-4.0706668 1.4054096 0.86750317
-4.0465994 1.3987713 0.82646918
-4.0205021 1.3819435 0.77768445
-4.0151787 1.383769 0.77007556
-3.9878306 1.3936987 0.73123085
-4.0319881 1.4084697 0.80767226
-4.0787163 1.4288473 0.89067823
-4.1053166 1.4896045 0.95982623
-4.1238132 1.4952276 0.99159408
-4.1611857 1.4716282 1.0402093
-4.1822729 1.4682577 1.0720706
-4.2333875 1.4424715 1.141453
-4.2348676 1.4404254 1.1428832
-4.2937169 1.4037573 1.2196555
-4.337244 1.398962 1.2863843
-4.3832765 1.4042659 1.3615749
-4.4286785 1.3900032 1.4270527
-4.4610367 1.4002717 1.4828211
-4.477685 1.4030392 1.5103925
-4.4919443 1.3978112 1.5306239
-4.5218301 1.3978779 1.5779363
-4.5394673 1.4129212 1.6125408
-4.5498204 1.4274473 1.6353914
-4.5625572 1.4272161 1.6554391
-4.6059232 1.4004877 1.7121427
-4.6200342 1.3968875 1.7328645
-4.653326 1.4245994 1.7978792
-4.670867 1.4226758 1.8247743
-4.711628 1.4097278 1.8834947
-4.6636624 1.3918502 1.7996447
-4.6498475 1.374855 1.7702178
-0.91303754 0.97309166 -4.3207712
-0.92704582 0.89699143 -4.3325067
-0.99143267 0.75627059 -4.2933221
-0.99370766 0.73937458 -4.2972488
-1.0008163 0.65016347 -4.3257403
-0.97566271 0.61211687 -4.3824835
-1.0223548 0.51275271 -4.3528719
-1.0307934 0.44953656 -4.3676801
-1.0544128 0.36182821 -4.3693805
-1.0825753 0.2784822 -4.3619494
-1.0834396 0.20994693 -4.3911104
-1.0273118 0.14025784 -4.5109525
-1.004065 0.14463401 -4.5457826
-1.0346754 0.033513129 -4.5468512
-1.0781488 0.01209414 -4.4876122
-1.1244965 -0.065512359 -4.448854
-1.1769714 -0.18949848 -4.421061
-1.1844807 -0.22738907 -4.4260588
-1.1928747 -0.26573259 -4.4298577
-1.1994994 -0.30317029 -4.4360533
-1.2269084 -0.42299315 -4.446063
-1.2369099 -0.44939202 -4.4419985
-1.2412937 -0.45102674 -4.435791
-1.3110287 -0.41254905 -4.3083234
-1.36009 -0.55424458 -4.2938194
-1.4027243 -0.57979083 -4.2377472
-1.4666948 -0.70380938 -4.1917815
-1.4999089 -0.78556108 -4.1756487
-1.5795267 -0.73481709 -4.0270815
-1.5787528 -0.80752981 -4.0606952
-1.6241503 -0.92789304 -4.0424852
-1.678787 -0.97653222 -3.9777102
-1.7279241 -0.97493327 -3.8992577
-1.748404 -0.96352887 -3.8617764
-1.7769964 -1.0165436 -3.8401551
-1.7750106 -1.1218467 -3.890203
-1.8519444 -1.2176188 -3.8111458
-1.9218102 -1.1384732 -3.6653566
-1.9071631 -1.0545216 -3.6511345
-1.8942201 -1.0146856 -3.6538668
-1.8749042 -0.93586826 -3.6493192
-1.8647406 -0.89661908 -3.6479154
-1.8469977 -0.85683388 -3.6582651
-1.8486922 -0.84371763 -3.6497416
-1.8536325 -0.81447917 -3.628902
-1.8573475 -0.80072522 -3.6168976
-1.8789937 -0.78231567 -3.5744505
-1.8893394 -0.76633292 -3.5509634
-1.9022186 -0.74465394 -3.5209303
-1.9049051 -0.74365318 -3.5162344
-1.924129 -0.73795056 -3.4832797
-1.9345474 -0.73445034 -3.4652376
-1.9390581 -0.73554301 -3.4585886
-1.9567878 -0.75185132 -3.4378023
-1.978153 -0.77957034 -3.4163475
-1.9838929 -0.81655526 -3.4237409
-2.0002487 -0.85897458 -3.416759
-2.0112965 -0.89867663 -3.416965
-2.0342772 -0.97853374 -3.4161787
-2.0521502 -1.016906 -3.4049945
-2.0719461 -1.0976801 -3.4096546
-2.1272326 -1.1708169 -3.354764
-2.141387 -1.1780629 -3.3355975
-2.161041 -1.1808388 -3.3057394
-2.177201 -1.1757076 -3.2778864
-2.2123678 -1.1812203 -3.2247047
-2.2217104 -1.1826333 -3.2105532
-2.2540324 -1.1957287 -3.1652498
-2.2586784 -1.1983778 -3.1590791
-2.2724662 -1.2117739 -3.1432323
-2.2833257 -1.2358811 -3.1367898
-2.2898581 -1.2480044 -3.131855
-2.3344584 -1.3795393 -3.1198835
-2.3858936 -1.5146699 -3.0986996
-1.0672989 1.4009595 -3.8861251
-1.1123424 1.3732672 -3.8271966
-1.1380708 1.3647296 -3.7902946
-1.1863286 1.3882899 -3.7034512
-1.1986053 1.3905165 -3.6830359
-1.2469661 1.3840017 -3.609426
-1.2601817 1.3814921 -3.5896358
-1.2876959 1.3961449 -3.5395789
-1.3175521 1.3962786 -3.4922833
-1.3406553 1.4023144 -3.453043
-1.3948767 1.3945007 -3.3707395
-1.469419 1.3609188 -3.2677641
-1.4501812 1.3482463 -3.3038454
-1.4107049 1.3536873 -3.3638778
-1.3970194 1.3585651 -3.3833566
-1.358741 1.3573165 -3.4444728
-1.3471184 1.350364 -3.4659581
-1.3182075 1.3454034 -3.5139079
-1.2732649 1.357162 -3.5797739
-1.2571003 1.3520601 -3.6076207
-1.2281895 1.3470998 -3.65557
-1.1779518 1.3630874 -3.7279301
-1.1523261 1.3415496 -3.7780662
-1.1336324 1.293057 -3.8292422
-1.1308527 1.2936437 -3.8333788
-1.0930247 1.3336785 -3.8753934
-1.0426962 1.3675716 -3.9399214
-1.0373883 1.3702888 -3.9471083
-0.96337318 1.3899369 -4.0554566
-0.95203447 1.3829739 -4.0764971
-0.93292117 1.3702607 -4.1123991
-0.89987874 1.2449064 -4.2205133
-0.92298484 1.1658211 -4.2191849
-0.92847371 1.1272926 -4.227663
-0.91215229 1.065047 -4.2812114
-0.92919159 0.98990351 -4.2877254
-0.99128747 0.9341014 -4.2143393
-1.0413532 0.92899269 -4.1374059
-1.0608821 0.85211867 -4.1407514
-1.1223943 0.76758522 -4.0810866
-1.0929503 0.68948406 -4.1624599
-1.1381841 0.56874901 -4.1446748
-1.1258934 0.44660407 -4.2185283
-1.1253204 0.40616256 -4.2374487
-1.1670542 0.28683913 -4.2245727
-1.2012784 0.20540625 -4.2066994
-1.2193282 0.13058174 -4.211473
-1.275789 0.0444538 -4.1605101
-1.2983167 -0.06921795 -4.1755028
-1.319042 -0.10961822 -4.1607089
-1.3325412 -0.1506508 -4.157629
-1.3934805 -0.27562585 -4.1168852
-1.398247 -0.29425868 -4.1176438
-1.4020002 -0.31319755 -4.120142
-1.4352143 -0.39494929 -4.1040092
-1.4473438 -0.52032679 -4.140667
-1.5107565 -0.6108495 -4.0806637
-0.84991145 1.2986798 -4.2756143
-0.87344956 1.1853268 -4.288866
-0.89624977 1.0497785 -4.3131723
-0.84644318 1.3378458 -4.2636552
-0.84665799 1.3530114 -4.2565603
-0.87733507 1.3761432 -4.1977224
-0.88892961 1.4061577 -4.1660089
-0.92278695 1.4022021 -4.1142049
-0.97672153 1.4092476 -4.0257363
-0.99677324 1.4172249 -3.990459
-1.024276 1.4292896 -3.9415722
-1.0285914 1.4355922 -3.9319377
-7.4610305 -1.5300784 4.9238405
-7.4383793 -1.5487419 4.8796911
-7.411026 -1.5384427 4.8410029
-7.3938923 -1.5388663 4.8137069
-7.374896 -1.5298321 4.7876768
-7.3656082 -1.5238382 4.7756519
-7.354969 -1.5160689 4.76228
-7.320899 -1.4947917 4.7178559
-7.2924166 -1.501888 4.6696334
-7.2771454 -1.5117695 4.6410704
-7.2230082 -1.5201116 4.5517039
-7.1853361 -1.5415604 4.4825492
-7.1536436 -1.5296431 4.4377155
-7.1448865 -1.5263369 4.425334
-7.1302061 -1.5255276 4.4024682
-7.1226196 -1.524937 4.390729
-7.0957594 -1.5338671 4.344255
-7.0508099 -1.5590138 4.2619395
-7.0346308 -1.5581861 4.236711
-6.9845467 -1.5786633 4.1483507
-6.9227409 -1.52969 4.0723829
-6.8924208 -1.5275134 4.0253825
-6.8757935 -1.5303527 3.9978118
-6.828846 -1.5310154 3.9232407
-6.8106441 -1.5249349 3.8971515
-6.7872972 -1.5136015 3.8652625
-6.7507577 -1.5027204 3.8123002
-6.7048674 -1.4860651 3.7471156
-6.6646261 -1.5271819 3.6651354
-6.6505589 -1.5589294 3.6287374
-6.5894489 -1.5522101 3.535048
-6.5586591 -1.5476677 3.4883585
-6.5103035 -1.5412333 3.4147215
-6.4776373 -1.5272284 3.369278
-6.4384346 -1.5216427 3.3097429
-6.4036541 -1.5422738 3.2455263
-6.3601093 -1.5374467 3.1787848
-6.3802586 -1.5070684 3.2241945
-7.4276943 -1.5356545 4.8686156
-7.3989439 -1.5182619 4.8308768
-7.3380327 -1.4943681 4.7451515
-7.3106794 -1.4840689 4.7064643
-7.2941923 -1.4797003 4.6823258
-7.2736187 -1.4736004 4.6524925
-7.2442045 -1.4730968 4.6061807
-7.2221708 -1.4666822 4.5741787
-7.2042575 -1.4602151 4.5487185
-7.1361237 -1.3553356 4.4876409
-7.128027 -1.338331 4.4824052
-7.0355215 -1.1877129 4.4031425
-7.0218692 -1.1826913 4.38378
-6.9613094 -1.2601676 4.2534575
-6.995203 -1.4390345 4.2274065
-6.9472542 -1.2613258 4.2307043
-6.9400659 -1.2490952 4.2247801
-6.9540958 -1.1340702 4.298214
-6.9432049 -1.0570681 4.3152823
-6.9448442 -1.0490134 4.3214631
-6.8719053 -0.89497644 4.2746811
-6.832726 -0.93016803 4.1970191
-6.8285437 -0.9415825 4.1853175
-6.8143864 -0.97352397 4.1486917
-6.8049078 -0.97280759 4.1340146
-6.7738848 -0.99003172 4.0772605
-6.7513819 -1.0152611 4.0304198
-6.7405157 -1.0970601 3.9767919
-6.7449937 -1.1358864 3.9665828
-6.7454329 -1.1760139 3.9494028
-6.7539511 -1.213539 3.9461641
-6.7719965 -1.288264 3.9414291
-6.7514658 -1.3276817 3.8913889
-6.7485533 -1.4076648 3.8511543
-6.8353019 -1.495621 3.9492202
-6.8822494 -1.4949584 4.0237918
-6.9240351 -1.4682736 4.1017876
-6.9561167 -1.4551355 4.1583962
-8.2855101 -1.543658 6.2222056
-8.2465487 -1.5470394 6.1590586
-8.2429638 -1.5506921 6.1517601
-8.2260981 -1.5756047 6.1139793
-8.2407055 -1.5854833 6.13269
-8.2851925 -1.5953586 6.1986742
-8.3004646 -1.5854774 6.2272367
-3.924943 1.3822877 0.62665313
-3.9422669 1.3860281 0.65572751
-3.9829822 1.3954337 0.72433275
-2.802896 -1.5312593 -2.4463468
-2.784842 -1.5269262 -2.47298
-2.7818279 -1.5291008 -2.4787178
-2.7548275 -1.5490291 -2.5303121
-2.8080902 -1.5557995 -2.4490604
-2.8383913 -1.5578573 -2.4020376
-2.8540802 -1.5503571 -2.3738751
-2.8854578 -1.5353575 -2.3175511
-2.9020896 -1.5325947 -2.2900076
-2.9535685 -1.5375124 -2.210753
-3.0137439 -1.5395403 -2.1164522
-3.0303912 -1.536773 -2.0888815
-3.0586772 -1.5514362 -2.0506616
-3.0915041 -1.5435345 -1.9952065
-3.1103497 -1.5063677 -1.948835
-3.0789289 -1.5213699 -2.005229
-3.0632184 -1.5288711 -2.0334258
-3.4209921 1.361685 -0.17982781
-3.4337287 1.361454 -0.15977997
-3.4499078 1.3665884 -0.13189578
-3.4626446 1.3663573 -0.111848
-3.4859357 1.3996627 -0.060163319
-3.5143828 1.4069328 -0.011918724
-3.5632274 1.3980355 0.061395496
-3.6087911 1.4057062 0.13689885
-3.6312251 1.4020047 0.17074293
-3.6458366 1.3923061 0.18953979
-3.6745911 1.3752759 0.22744639
-3.7245345 1.3835783 0.31016046
-3.691869 1.3976099 0.26473039
-3.6364424 1.4255424 0.189482
-3.6153688 1.440737 0.16290942
-3.5991898 1.4356027 0.13502535
-3.5674615 1.4449008 0.088969707
-3.5325983 1.4245331 0.024739861
-3.5215898 1.4267704 0.0083197355
-3.5071249 1.4249952 -0.015355825
-3.5027587 1.4230108 -0.023147404
-3.4848118 1.4187932 -0.053420186
-3.4827824 1.4122393 -0.059550226
-3.4441218 1.3730571 -0.13816845
-3.4124615 1.3851333 -0.18287933
-3.015918 1.2308991 -0.87895489
-3.0136771 1.3930209 -0.81028509
-3.0094624 1.4083049 -0.81014526
-3.005311 1.4239786 -0.80973136
-2.9860115 1.4225857 -0.84088576
-2.9577258 1.4372492 -0.87910497
-2.9410779 1.4344816 -0.90667641
-2.9298949 1.4377215 -0.92292607
-2.9126308 1.4272115 -0.95492113
-2.8969204 1.4197104 -0.98311782
-2.8733363 1.4190335 -1.0207319
-2.8486323 1.4149671 -1.0616276
-2.8439484 1.4165316 -1.0683415
-2.8211157 1.4029853 -1.110499
-2.8215206 1.3628793 -1.1277233
-2.8279977 1.3246813 -1.1344905
-2.8474708 1.3757656 -1.0809273
-2.8695836 1.3829608 -1.0427375
-2.9101257 1.4171126 -0.96338272
-2.9458718 1.3951302 -0.91662073
-2.9908433 1.2472687 -0.91133392
-2.9874682 1.2362752 -0.92157066
-2.9904623 1.1992087 -0.93334448
-2.9944 1.1572752 -0.94579363
-2.9965203 1.1534774 -0.94413066
-3.0522537 1.0430017 -0.90516448
-3.0455923 1.1177194 -0.88242173
-3.0328832 1.1859 -0.87215841
-2.007637 1.3868711 -2.404686
-1.9893353 1.369463 -2.4413958
-1.9691617 1.3615267 -2.4768476
-1.9407096 1.3542888 -2.5250859
-1.8951128 1.3467288 -2.6005926
-1.8789043 1.3416708 -2.628489
-1.8638527 1.353699 -2.6469445
-1.8036728 1.3557987 -2.74122
-1.7879322 1.3483727 -2.7694311
-1.7451177 1.3726168 -2.8263688
-1.7932756 1.3901589 -2.7423639
-1.8231318 1.3902929 -2.6950688
-1.8668818 1.3613129 -2.6387601
-1.89627 1.3638148 -2.5911508
-1.9129467 1.3665049 -2.5635686
-1.9876277 1.3823733 -2.4383464
-1.9825625 1.3807929 -2.4470639
-1.9707651 1.3734558 -2.4689975
-7.7260828 0.52556819 6.2588434
-7.7621331 0.40479451 6.2620816
-7.8517237 0.4134286 6.4076691
-7.8719416 0.40784663 6.43717
-7.914403 0.39732695 6.4996634
-7.8772597 0.47792774 6.4768009
-7.8407526 0.5260374 6.4404726
-7.7808704 0.54753309 6.3553076
-7.7566018 0.55182666 6.3188243
-6.6736422 1.3618 4.9662604
-6.6386375 1.387784 4.9224534
-6.6028862 1.3719814 4.8588524
-6.5910406 1.3676307 4.8381729
-6.5705342 1.3616991 4.8030877
-6.5507069 1.3561535 4.7692485
-6.50246 1.384882 4.7057137
-6.4563999 1.3797097 4.630538
-6.4265165 1.3796782 4.5832443
-6.3765917 1.37135 4.5005488
-6.3286695 1.375638 4.426641
-6.3124933 1.3704967 4.3987584
-6.2997165 1.3708766 4.3787131
-6.2821441 1.3728306 4.3517818
-6.2693667 1.37321 4.3317361
-6.2584524 1.3641293 4.3104234
-6.2285681 1.3640978 4.2631292
-6.1895571 1.3745658 4.2060728
-6.1754484 1.3871377 4.1893511
-6.1341815 1.3826027 4.1220422
-6.1055679 1.3838723 4.0773382
-6.0550518 1.3677087 3.9902163
-6.1254416 1.356564 4.0966167
-6.1533542 1.343888 4.1351309
-6.1771069 1.3407888 4.171329
-6.2211637 1.3333457 4.2377172
-6.2488856 1.3429215 4.285841
-6.2535162 1.3436277 4.2934813
-6.2601161 1.3443811 4.3042588
-6.3294601 1.3488319 4.4159513
-6.3436337 1.3413572 4.4350457
-6.402936 1.3437853 4.5299497
-6.4205084 1.341831 4.556881
-6.4508581 1.3394976 4.6038575
-6.4865227 1.3343608 4.6579947
-6.5442338 1.3206713 4.7432022
-6.5633435 1.333698 4.7792382
-6.6220398 1.3164151 4.8644037
-6.6537862 1.3069863 4.91043
-6.7155561 1.319665 5.0138044
-6.7634788 1.315377 5.0877128
-6.7961559 1.3012183 5.1331038
-6.839282 1.2985053 5.2001262
-6.8494062 1.3343918 5.2321296
-6.8671198 1.3545139 5.2691164
-6.8623238 1.3560884 5.2622304
-6.8486156 1.3611979 5.2428188
-6.8250647 1.3745725 5.2115159
-6.8050241 1.366276 5.1761141
-6.7751398 1.3662448 5.1288199
-6.7337856 1.3680234 5.0641851
-6.7173748 1.3787975 5.0430207
-7.8712492 -1.5532606 5.5625234
-7.8858571 -1.5631394 5.5812349
-7.9029908 -1.5627155 5.608531
-7.9191933 -1.5575631 5.6364603
-7.9245129 -1.5614476 5.6431456
-7.9152708 -1.5607719 5.6288247
-8.1670027 -1.5558505 6.029284
-8.1202583 -1.5807662 5.9442301
-8.1519289 -1.5436075 6.0108895
-7.3419237 -1.1714641 4.8951421
-7.3732948 -1.1076828 4.9731851
-7.376112 -1.0891993 4.9858747
-7.3460569 -1.0063443 4.9752312
-7.3092518 -0.99849951 4.920496
-7.2995443 -0.99711275 4.9057555
-7.2947388 -0.99713963 4.8981404
-7.2284312 -0.95512855 4.8119483
-7.2191491 -0.99614406 4.7789931
-7.2073588 -1.0417478 4.740026
-7.203227 -1.0480869 4.7306652
-7.1768627 -1.0684824 4.6798701
-7.1755924 -1.0703877 4.6770115
-7.1618352 -1.0887249 4.6470776
-7.1333714 -1.0958986 4.5988498
-7.1254492 -1.101934 4.5836272
-7.0708404 -1.0818478 4.5061774
-7.020699 -1.0814927 4.4270067
-6.9696112 -1.0203819 4.3734012
-6.9317608 -0.87748694 4.3771682
-6.9574051 -0.80984855 4.4478698
-7.0060802 -0.81494725 4.5226073
-7.0444393 -0.81974328 4.5811586
-7.0817785 -0.82145846 4.6394701
-7.0794592 -0.80666602 4.6423898
-7.0623169 -0.79727191 4.619453
-7.0355983 -0.78201801 4.5839763
-7.0300417 -0.78080797 4.5757241
-6.9851599 -0.77599221 4.5068617
-6.9518013 -0.78145051 4.4516525
-6.8980598 -0.77794415 4.3681898
-6.8624325 -0.75972313 4.3199401
-6.8163557 -0.76489305 4.2447391
-6.7967529 -0.75866896 4.2164974
-6.7531319 -0.77042544 4.1422482
-6.7244267 -0.7532829 4.1044693
-6.7194843 -0.75715476 4.0949254
-6.6866994 -0.76519907 4.0394731
-6.658844 -0.75280142 4.0009251
-6.6265278 -0.76321125 3.9451604
-6.5785236 -0.78119183 3.8612032
-6.5462074 -0.79160172 3.8054385
-6.5066538 -0.76160127 3.7562246
-6.477272 -0.76415581 3.7086015
-6.4658065 -0.79301727 3.6776056
-6.4725976 -0.83653665 3.6689644
-6.4820786 -0.85632575 3.6751494
-6.5133066 -0.86443853 3.720942
-6.5230436 -0.86951339 3.734086
-6.5460043 -0.87723875 3.7669711
-6.600749 -0.97350061 3.8107047
-6.6026368 -1.0534306 3.7780876
-6.6253653 -1.1222093 3.7834105
-6.6080661 -1.2083201 3.7176838
-6.5034647 -1.1300831 3.5870428
-6.480423 -1.1666188 3.5343137
-6.5359802 -1.3328978 3.5481443
-6.6073389 -1.3174174 3.6679373
-6.6095014 -1.3066535 3.6761532
-5.0911369 -0.73979199 1.5264416
-5.1232305 -0.79425472 1.5529571
-5.1176071 -0.83633143 1.5253175
-5.1404819 -0.92459953 1.5221903
-5.1195421 -0.96972853 1.468959
-5.1580977 -1.1001267 1.4718741
-5.1570163 -1.1055082 1.4677658
-5.1483388 -1.1366228 1.4401772
-5.115448 -1.1874781 1.3654876
-5.1140637 -1.1901635 1.3621017
-5.0697379 -1.1934032 1.2905302
-5.0540485 -1.2009711 1.2623367
-5.0370255 -1.2111832 1.2308556
-5.0199814 -1.2159238 1.201779
-5.0067158 -1.2149686 1.1812167
-4.9935389 -1.2184793 1.1588056
-4.9647846 -1.2014489 1.120899
-4.9476681 -1.2018497 1.0936403
-4.9127312 -1.2005644 1.038939
-4.8567834 -1.1315833 0.98115063
-4.8220968 -1.0618508 0.95733482
-4.7985797 -1.0071819 0.9444797
-4.7876115 -0.94198298 0.95616889
-4.7866144 -0.93047976 0.95971519
-4.7806883 -0.87550056 0.9748292
-4.7778759 -0.86129946 0.97670567
-4.7725735 -0.82379013 0.98502415
-4.7727818 -0.78569072 1.0023247
-4.7834697 -0.75386912 1.033409
-4.791647 -0.73442316 1.0550083
-4.7996626 -0.73691058 1.066582
-4.8356433 -0.74158537 1.1214244
-4.8538437 -0.75739223 1.1431789
-4.8429475 -0.82731342 1.0947942
-4.8482695 -0.9345535 1.0554453
-4.8642797 -1.0099721 1.0471809
-4.9180574 -1.1164117 1.0848505
-4.9508867 -1.1329144 1.1294394
-4.9634595 -1.1306744 1.1503286
-4.9801073 -1.1279069 1.1779001
-5.0076313 -1.104079 1.2320592
-5.023489 -1.0864686 1.2649922
-4.9863129 -0.90959603 1.2849612
-4.9745135 -0.86293882 1.2870767
-4.9720917 -0.80418086 1.3094176
-4.9678831 -0.78517884 1.3112241
-4.9664669 -0.77577853 1.3131702
-4.9668183 -0.77168018 1.3155518
-5.0071683 -0.73386687 1.3962332
-5.0277648 -0.73694146 1.4274499
-5.0410309 -0.73789674 1.4480125
-3.8038626 1.3944168 0.44049376
-3.8205104 1.3971844 0.46806523
-3.881623 1.3904228 0.56173992
-3.8909173 1.3848262 0.57395154
-3.9367883 1.3681967 0.63911682
-3.9481189 1.375066 0.6601029
-4.4129682 1.3825021 1.3988562
-4.3634934 1.3718326 1.3158292
-4.2921491 1.3889246 1.2105682
-1.4817133 -0.77959055 -4.2017765
-1.4775262 -0.84972012 -4.2396393
-1.5099812 -0.93024713 -4.2241621
-1.5534842 -1.0504763 -4.20889
-1.5887189 -1.1315902 -4.1892762
-1.5854516 -1.1971771 -4.22366
-1.5885937 -1.2238646 -4.2305765
-1.6131423 -1.3368986 -4.2420878
-3.7594247 -0.76701272 -0.59259355
-3.7330139 -0.7618168 -0.63206375
-3.7305088 -0.77191591 -0.64052558
-3.71066 -0.79985601 -0.68437397
-3.7497001 -0.83626252 -0.6388253
-3.7899725 -0.85718441 -0.58442938
-3.8335505 -1.0411897 -0.59744728
-3.8476655 -1.1164709 -0.60864902
-3.8888087 -1.141269 -0.55460203
-3.9494524 -1.1456636 -0.46061462
-3.9656317 -1.1405294 -0.43273044
-4.0217342 -1.1674893 -0.35597908
-4.0754871 -1.1848912 -0.2786876
-4.1000438 -1.2155908 -0.25351179
-4.1279006 -1.2487576 -0.22421283
-4.1395259 -1.2480235 -0.20549327
-4.2395716 -1.313765 -0.076493919
-4.2226396 -1.4687369 -0.17231256
-4.1845231 -1.4752419 -0.23551488
-4.1605897 -1.4572414 -0.26536196
-4.1314387 -1.4891326 -0.32568747
-4.1035337 -1.4937149 -0.3718766
-4.0893912 -1.4863833 -0.39098632
-4.0595379 -1.4865528 -0.43829274
-4.0551429 -1.5912466 -0.49188036
-4.0860806 -1.6072845 -0.45007801
-4.0882373 -1.5999515 -0.44339961
-4.1165781 -1.5182462 -0.36216688
-4.1607356 -1.5034752 -0.28572524
-4.1951022 -1.5043889 -0.2317605
-4.2047315 -1.5106373 -0.21930909
-4.2502952 -1.5029666 -0.14380598
-4.3109388 -1.5073613 -0.049818397
-4.3583775 -1.5091581 0.02443397
-4.3886995 -1.5113555 0.071427733
-4.4048786 -1.5062212 0.099311799
-4.4342632 -1.5036849 0.14693105
-4.4645853 -1.5058823 0.19392486
-4.5213318 -1.5146282 0.27980804
-4.5585246 -1.5047421 0.34305507
-4.6054945 -1.5041721 0.41762027
-4.636754 -1.5111032 0.4639886
-4.6504283 -1.516068 0.48341092
-4.6807499 -1.5182654 0.53040475
-4.7443676 -1.5149279 0.63254118
-4.6691999 -1.4839559 0.52741402
-4.6483002 -1.451816 0.50866491
-4.6434989 -1.4518621 0.50104791
-4.5962815 -1.4349015 0.43390018
-4.5229702 -1.322083 0.3681671
-4.5393181 -1.2363958 0.43219975
-4.5599909 -1.2021444 0.48016316
-4.5725532 -1.1881962 0.50625128
-4.5935674 -1.1834445 0.54161417
-4.5891881 -1.1493163 0.54988801
-4.583271 -1.0632066 0.57888281
-4.5080428 -0.9763931 0.49853393
-4.5073557 -0.82743251 0.5637995
-4.5944567 -0.90468872 0.66718972
-4.5956488 -0.89468729 0.67353076
-4.6225901 -0.82632309 0.74660683
-4.6145849 -0.78861386 0.75073898
-4.5912571 -0.82444668 0.69787037
-3.0441163 0.071180463 -1.3509244
-3.0516057 0.0333004 -1.3559486
-3.0665843 -0.042459786 -1.3659971
-3.0881691 -0.15564311 -1.3822639
-3.0956273 -0.26314199 -1.4183483
-3.0982108 -0.33229163 -1.4450629
-3.1047111 -0.36115861 -1.4476373
-3.1249008 -0.46174899 -1.4605012
-3.1227827 -0.57264888 -1.5132517
-3.1466751 -0.62248623 -1.4976504
-3.1477189 -0.6705308 -1.5174003
-3.1548014 -0.77982891 -1.5548805
-3.175065 -0.82063502 -1.5409977
-3.2347426 -0.92300546 -1.4921808
-3.2495275 -0.9816429 -1.494909
-3.2399249 -0.98173547 -1.5101427
-3.2064257 -1.1153311 -1.6226505
-3.2152371 -1.1878629 -1.6410183
-3.2171855 -1.2186294 -1.6516403
-3.2447262 -1.3424584 -1.663226
-3.2958598 -1.4200281 -1.6168798
-3.3372169 -1.4619281 -1.5701123
-3.4014628 -1.5085437 -1.4892328
-3.4443598 -1.5329056 -1.4322166
-3.4785931 -1.5321044 -1.3776993
-3.5054727 -1.5396671 -1.3385417
-3.5382996 -1.5317655 -1.2830862
-3.5848007 -1.5288286 -1.2082083
-3.629734 -1.5407244 -1.1424178
-3.6600561 -1.5429218 -1.0954239
-3.6732616 -1.5455196 -1.0756888
-3.7010784 -1.5578163 -1.0371568
-3.7842364 -1.6076531 -0.92779136
-3.7955263 -1.6326206 -0.92105114
-3.8167439 -1.6436188 -0.89238143
-3.8308868 -1.6509504 -0.8732717
-3.8531191 -1.655715 -0.84022009
-3.862227 -1.6469147 -0.82189071
-3.878406 -1.6417806 -0.79400671
-3.9521747 -1.65974 -0.68529665
-3.9206493 -1.5439641 -0.68360245
-3.8548861 -1.5344036 -0.78338814
-3.8389921 -1.52637 -0.8049556
-3.8261316 -1.5173734 -0.82129478
-3.8119888 -1.510042 -0.84040451
-3.7721746 -1.5033116 -0.90039682
-3.7423215 -1.5034811 -0.94770336
-3.729116 -1.5008831 -0.96743858
-3.661155 -1.525722 -1.0860242
-3.6459134 -1.5355902 -1.1145337
-3.0312746 0.0062617064 -1.4001586
-3.0201924 -0.03663069 -1.4367976
-3.0322638 -0.11256993 -1.4515257
-3.0279756 -0.15782213 -1.4784667
-3.0465062 -0.22952884 -1.4810905
-3.044785 -0.30439329 -1.5171608
-2.9385242 -0.30339372 -1.6848317
-2.8671484 -0.18689209 -1.7458614
-2.8456926 -0.072933882 -1.7290455
-2.8300529 0.041508138 -1.7028128
-2.8134561 0.11679405 -1.6955353
-2.817744 0.16204625 -1.6685942
-2.8245807 0.20727658 -1.6376308
-2.815279 0.28637731 -1.6171123
-2.8057654 0.32362139 -1.615574
-2.799288 0.36181957 -1.608807
-2.7989411 0.40405148 -1.5905441
-2.7773612 0.5172587 -1.5742592
-2.7888932 0.56546789 -1.5345398
-2.7694702 0.68007904 -1.514217
-2.7652836 0.72045892 -1.502854
-2.752604 0.71357793 -1.5259798
-2.7064865 0.72914809 -1.592007
-2.6745992 0.64451009 -1.6801568
-2.6317644 0.64880365 -1.7460138
-2.6246729 0.64659065 -1.7582186
-2.6004925 0.65110725 -1.7944628
-2.5937991 0.62012583 -1.818853
-2.5497556 0.58955127 -1.9021534
-2.5431614 0.56481463 -1.9236051
-2.5506151 0.52106816 -1.9312986
-2.5595489 0.40683883 -1.9680465
-2.5599079 0.40329558 -1.9690567
-2.5662994 0.39272022 -1.9636551
-2.606621 0.25282139 -1.9621786
-2.6401916 0.12704134 -1.9650937
-2.717227 -0.035402477 -1.9155737
-2.6777291 -0.10990003 -2.0112476
-2.7238321 -0.072834343 -1.9217972
-2.8141241 -0.17408705 -1.8240477
-2.8190856 -0.20697361 -1.8308471
-2.8284535 -0.27054775 -1.8443445
-2.8361483 -0.2978254 -1.8443211
-2.8414268 -0.32427028 -1.8477489
-2.8430045 -0.34550285 -1.8547109
-2.8430362 -0.34942281 -1.856407
-2.8502007 -0.38379079 -1.8603805
-2.8651943 -0.43465176 -1.8593148
-2.8871174 -0.52796179 -1.8661937
-2.8560438 -0.58813465 -1.9421583
-2.8656325 -0.65257382 -1.9556919
-2.8857753 -0.68347627 -1.937589
-2.9068346 -0.76320249 -1.9397842
-2.9218011 -0.79057652 -1.9282991
-2.950582 -0.85824865 -1.9129082
-2.956059 -0.89676023 -1.9213973
-3.0075674 -0.97790468 -1.8760504
-3.0836661 -1.0242932 -1.7763172
-3.10271 -1.0987492 -1.7793535
-3.1273789 -1.1488998 -1.7626635
-3.1342952 -1.2212944 -1.7839686
-3.1829829 -1.381617 -1.7783529
-3.185605 -1.5204608 -1.8360506
-3.2145209 -1.5155576 -1.788119
-3.2393181 -1.5169927 -1.7495261
-3.258986 -1.5250866 -1.7220153
-3.2756934 -1.5290889 -1.6973647
-3.3082852 -1.5349982 -1.6484331
-3.3297679 -1.5326133 -1.6133829
-3.3508892 -1.5364125 -1.5816594
-3.3796434 -1.5534427 -1.5437528
-3.4574041 -1.5574369 -1.4225067
-3.6739576 -1.0497272 -0.8537432
-3.6815345 -1.0502758 -0.84199989
-3.6694915 -1.0108948 -0.84351134
-3.6111941 -0.85657668 -0.86700499
-3.6452699 -0.81908882 -0.79639518
-3.5998676 -0.80482608 -0.86187315
-3.5847874 -0.79276067 -0.88035727
-3.5757637 -0.7905947 -0.89366865
-3.5649021 -0.79983103 -0.91496742
-3.5583529 -0.80280757 -0.92665482
-3.5844147 -0.85030007 -0.90657699
-3.5902941 -0.8639673 -0.90336311
-3.6025987 -0.88270128 -0.89224076
-3.631659 -1.0294465 -0.9116298
-3.634418 -1.0393721 -0.91168642
-7.052475 1.3239567 5.5487571
-7.0045528 1.3282444 5.4748487
-6.9424572 1.3400068 5.3818469
-6.9013338 1.3553357 5.3236127
-6.9350824 1.3585227 5.3784261
-6.9492559 1.351048 5.3975205
-6.9786739 1.3534443 5.4451313
-6.992382 1.3483348 5.4645424
-7.0384417 1.3535075 5.5397182
-7.0721908 1.3566942 5.594532
-7.1158819 1.3462288 5.6589942
-7.1320844 1.3513815 5.6869235
-7.1681657 1.4253619 5.7769613
-7.1343875 1.530545 5.7703733
-7.1745672 1.4474978 5.7969499
-7.2203007 1.3997793 5.8480496
-7.2420902 1.3765583 5.8721795
-7.2615361 1.3662264 5.8983426
-7.2926311 1.3359444 5.9340487
-7.3142457 1.3232694 5.9625998
-7.3306231 1.3178761 5.9861083
-7.313024 1.3198168 5.9591289
-7.2993469 1.3249667 5.939785
-7.2878404 1.3321385 5.9247746
-7.258317 1.3404152 5.8817525
-7.2424412 1.3383422 5.8557119
-7.2253342 1.3379312 5.8284636
-7.208693 1.3351552 5.8008986
-7.1881876 1.3236895 5.76335
-7.1601653 1.319732 5.7172523
-7.1430578 1.3193209 5.6900039
-7.1117773 1.3263848 5.643661
-7.0647488 1.3204689 5.5666213
-7.9558511 -1.574923 5.6867237
-7.9990768 -1.5491958 5.766571
-8.0444946 -1.5638003 5.8319225
-8.0595684 -1.5760434 5.8503165
-7.9956899 -1.6013825 5.737967
-7.9660082 -1.5792611 5.7008615
-8.1015291 -1.596221 5.9077153
-8.0878525 -1.5910714 5.8883719
-7.2689466 -1.2078466 4.7634778
-7.3030167 -1.2291241 4.8079019
-5.8523722 1.3998437 3.6838698
-5.8156242 1.366478 3.6108685
-5.7682905 1.3905311 3.5466957
-5.7512746 1.3951392 3.5218272
-5.7303782 1.4085572 3.4947438
-5.6863003 1.4160609 3.4283509
-5.6521091 1.4151733 3.3738613
-5.6027966 1.4074261 3.2923927
-5.5689554 1.3820248 3.2275376
-5.540462 1.3749156 3.1792912
-5.4992909 1.3903835 3.1210446
-5.5302258 1.4078207 3.1777539
-5.5743036 1.4003172 3.2441468
-5.5980296 1.4089189 3.2855153
-5.6089621 1.4179482 3.3068342
-5.6331367 1.4495568 3.3591609
-5.6542015 1.4500151 3.3926911
-5.704442 1.4339256 3.4650102
-5.7129331 1.432627 3.4778652
-5.7338657 1.4363065 3.5126219
-5.7643204 1.4234335 3.5550704
-5.805388 1.3993831 3.6093307
-5.9576225 1.3852799 3.8439002
-5.9365745 1.3594511 3.7990947
-5.9893723 1.3758395 3.8899264
-5.0680571 1.4096887 2.4473863
-5.081316 1.4068968 2.4671192
-5.116437 1.4030564 2.5209737
-5.1112046 1.4069133 2.5144134
-5.0846877 1.4124968 2.4749479
-5.0688457 1.4204447 2.4534245
-5.0538688 1.4172089 2.428288
-5.022584 1.4242852 2.3819449
-4.9896693 1.4316945 2.3331707
-4.9575744 1.4281092 2.2807956
-4.966661 1.4116707 2.2878499
-4.9723525 1.4112306 2.296658
-4.9881992 1.4166894 2.3241611
-4.992559 1.417696 2.3315067
-5.0352616 1.4017081 2.3919456
-5.2819304 1.3861616 2.7752762
-5.2168045 1.3678362 2.6640778
-5.1864505 1.3701839 2.6171002
-5.1580729 1.3852243 2.5789032
-5.1448145 1.388016 2.5591707
-5.1306257 1.3955362 2.5400724
-5.1600494 1.397917 2.5876842
-5.2079639 1.3936486 2.6615887
-5.2535529 1.4012017 2.7370791
-5.2129316 -1.5140605 1.3742449
-5.281621 -1.5535867 1.4653127
-5.3154645 -1.5282294 1.5301518
-5.3554258 -1.5128367 1.6002315
-5.3417325 -1.5078206 1.5808016
-5.3032966 -1.508256 1.5197979
-5.2538829 -1.5191311 1.4367757
-5.2264948 -1.5090911 1.3979168
-5.2088428 -1.4914863 1.3778317
-5.1736584 -1.4342263 1.3476716
-5.1521001 -1.4166381 1.3213987
-5.1132765 -1.4342545 1.2521286
-5.0689902 -1.4723537 1.1650926
-5.038816 -1.4896529 1.109648
-5.0108447 -1.4937356 1.0635762
-5.0050917 -1.4929602 1.0548193
-4.9894023 -1.500528 1.0266259
-4.9324083 -1.4907142 0.94082707
-4.8859072 -1.4936512 0.86594927
-4.9107504 -1.5136797 0.89633226
-4.9404573 -1.5137687 0.9432922
-4.9577203 -1.5131097 0.9708975
-4.9895945 -1.5142901 1.0208001
-5.0041194 -1.5133467 1.0442004
-5.0295463 -1.5108566 1.0855374
-5.0340748 -1.5100033 1.0930817
-5.0466433 -1.5103858 1.1127961
-5.064209 -1.5122807 1.1397431
-5.1125526 -1.5493138 1.1997316
-5.1314197 -1.5497663 1.2293799
-5.1453218 -1.5538342 1.2495626
-5.1744971 -1.5522385 1.296432
-4.3207846 -0.75283056 0.3018544
-4.273653 -0.775334 0.21726389
-4.2284369 -0.84612274 0.11419532
-4.2149644 -0.82214737 0.10355935
-4.1375923 -0.77877939 0.00046655536
-4.105516 -0.82972568 -0.072975338
-4.0961013 -0.76151812 -0.057487905
-4.2494402 -0.73573875 0.19659331
-4.2150455 -0.75847328 0.13205066
-4.2018399 -0.75587535 0.11231565
-4.3936954 -0.86050427 0.3692449
-4.362514 -0.95165676 0.2793107
-4.3542767 -0.97273928 0.25688684
-4.3117394 -1.011713 0.17222795
-4.3022637 -1.0110264 0.15754238
-6.2857676 -0.91604596 3.3379631
-6.3128138 -1.0065337 3.3404469
-6.3745866 -1.0678132 3.4108815
-6.3926215 -1.0720708 3.4375186
-6.4234114 -1.0766132 3.4842076
-6.4400387 -1.0737739 3.5117784
-6.4673939 -1.0850108 3.5500526
-6.5034523 -1.1241152 3.5896821
-7.1438427 -1.179485 4.5781832
-7.1269832 -1.1969565 4.5437274
-3.8506708 1.3730536 0.50503355
-3.8291745 1.3720212 0.47056416
-3.7974465 1.381319 0.4245086
-3.7660255 1.366317 0.36811489
-3.7666557 1.3858836 0.37782755
-3.7553253 1.379014 0.3568415
-4.4432902 1.3803046 1.4458498
-4.5171394 1.373312 1.5595725
-4.5459814 1.3821239 1.6091288
-4.5583234 1.3803508 1.6278651
-4.5897441 1.3953531 1.6842587
-4.4258933 -0.76675433 0.46194524
-4.3859696 -0.73466021 0.41307801
-4.3697906 -0.73979449 0.38519394
-2.8343167 -1.5162569 -2.3899536
-2.8509645 -1.5134895 -2.3623819
-2.8738077 -1.5182165 -2.3283477
-2.9036374 -1.5179056 -2.2810154
-2.9106712 -1.5131507 -2.2677693
-2.9496272 -1.5124636 -2.2058306
-2.9653158 -1.5049638 -2.1776686
-2.9733515 -1.5050794 -2.1650071
-3.5978446 -1.5533597 -1.1984987
-3.5816655 -1.5584941 -1.2263829
-3.5650177 -1.5612617 -1.2539541
-3.8079619 -0.7516098 -0.50894129
-3.8503904 -0.77360481 -0.45161229
-3.8827486 -0.76333618 -0.3958441
-3.9019949 -0.75766802 -0.36286986
-3.9611392 -0.74776381 -0.26488537
-3.9869201 -0.77252626 -0.23512763
-4.0257435 -0.92723477 -0.24261796
-4.0758319 -1.0705808 -0.22722459
-4.0851259 -1.0761774 -0.21501303
-4.1295905 -1.0857064 -0.14890969
-4.1626053 -1.0885657 -0.097950876
-4.1757507 -1.0843942 -0.075295031
-4.2212667 -1.1144726 -0.01668191
-4.2632756 -1.0400087 0.082949787
-4.2670732 -1.0211945 0.097338259
-2.9473817 0.65823847 -1.2424711
-2.9443626 0.56654221 -1.2880923
-2.9467916 0.52707237 -1.3018309
-2.972296 0.41438597 -1.3116751
-2.988286 0.29063201 -1.3415017
-2.9935117 0.2081356 -1.3699813
-2.9898491 0.16087663 -1.3968267
-2.991766 0.51271945 -1.23707
-2.9906793 0.38433492 -1.2959764
-3.009191 0.30674702 -1.3012496
-3.0184469 0.2679531 -1.3038862
-3.0279603 0.23070896 -1.3054247
-3.0358543 0.15272295 -1.3276734
-3.0366268 0.10906059 -1.3459002
-7.1998291 -1.1535916 4.6782942
-7.1846027 -1.1630261 4.650001
-7.175766 -1.1657486 4.6348081
-7.1605673 -1.1695486 4.6090698
-5.4503303 1.3772306 3.037725
-5.432189 1.3593657 3.0010657
-5.3886924 1.3866546 2.9444046
-5.3607798 1.3993306 2.9058905
-5.4048576 1.3918269 2.9722834
-5.4369478 1.3870165 3.0209112
-5.4882712 1.3898709 3.1033821
-6.3021822 -0.82947391 3.4024954
-6.2940555 -0.8125118 3.3971934
-6.2597489 -0.7449457 3.3730135
-6.2464366 -0.72658265 3.3601317
-6.219337 -0.73718882 3.3125329
-6.1969285 -0.73058683 3.2800212
-6.1857958 -0.72222912 3.2661304
-6.1902742 -0.76105547 3.2559214
-6.1923666 -0.79621303 3.2435713
-6.1970582 -0.81556189 3.2423754
-6.2029042 -0.83308744 3.2438178
-6.2131929 -0.8715353 3.242969
-6.2104745 -1.0058668 3.1788325
-6.2111344 -1.0198374 3.1736536
-6.2162123 -1.0427943 3.1714611
-6.2229843 -1.0569296 3.175879
-6.2777267 -1.1147556 3.2367291
-6.2935934 -1.1794751 3.2330036
-6.3243828 -1.1840174 3.2796926
-6.3871975 -1.2480743 3.3505383
-6.4004788 -1.2676423 3.3628345
-6.4102154 -1.272717 3.3759785
-6.4177246 -1.2439145 3.4006882
-6.5248709 -1.3364761 3.5289755
-6.516387 -1.4092965 3.4831152
-6.5164938 -1.4178363 3.4794798
-6.4844437 -1.5162489 3.3849373
-2.9336727 0.73586637 -1.2295818
-2.9081683 0.84855276 -1.2197374
-2.9215088 0.72616941 -1.2531456
-6.0206566 1.3687632 3.9362693
-6.0357323 1.3607731 3.9565611
-6.0419173 1.3635061 3.9675646
-5.4152536 -1.5503831 1.6781609
-5.4285846 -1.5615735 1.6942669
-5.452322 -1.5514457 1.7363333
-5.4848299 -1.5526483 1.7872292
-5.4947081 -1.5509157 1.8036288
-5.5069094 -1.5457697 1.825225
-5.5243688 -1.5391217 1.8558083
-5.5941677 -1.5956826 1.9410433
-5.6852412 -1.5954583 2.0852318
-5.7191525 -1.5610068 2.1542287
-5.7490034 -1.560818 2.2015405
-5.7837844 -1.5401871 2.2657571
-5.7903843 -1.5355442 2.2782669
-5.7720866 -1.5225843 2.2550912
-5.7519608 -1.5240339 2.2226038
-5.7251391 -1.5232469 2.1805196
-5.6873045 -1.5329177 2.1163535
-5.6488094 -1.526464 2.0583253
-5.5872302 -1.5173792 1.9649469
-5.5553837 -1.5301547 1.9088713
-5.5109005 -1.5205963 1.8427525
-5.5031252 -1.5280492 1.8271307
-5.4619575 -1.5338455 1.7594174
-5.4245834 -1.5169899 1.7077963
-5.3842201 -1.5299658 1.638157
-5.3988519 -1.539713 1.6569639
-6.2559242 -1.528266 3.0180421
-6.3277936 -1.5478566 3.1230206
-6.2680912 -1.5482345 3.0283971
-7.0574951 -1.4504685 4.3208656
-7.0709047 -1.4311739 4.3506765
-7.0365219 -1.4564714 4.2850108
-7.0299525 -1.45558 4.2750139
-4.7576575 1.4149656 1.9586518
-4.7780662 1.4209523 1.9936067
-4.790338 1.4008431 2.004065
-4.7713275 1.3877616 1.9681609
-4.7424455 1.4050648 1.9301742
-2.7322707 -1.5615523 -2.5715775
-2.6889052 -1.5352478 -2.6284695
-2.7386484 -1.5541635 -2.5581961
-2.9685221 -0.45487261 -1.704846
-3.0730152 -0.45495576 -1.5395639
-3.103837 -0.58217579 -1.5474693
-3.0682902 -0.66213572 -1.6393253
-2.9936724 -0.56985646 -1.7162739
-4.32479 -1.4222258 0.0100182
-4.2466431 -1.3174307 -0.066939235
-4.2505546 -1.2437774 -0.027942896
-4.252162 -1.2318673 -0.020094812
-4.2518148 -1.2046442 -0.0085175633
-4.2877779 -1.0616622 0.11206961
-4.3324304 -1.0819523 0.17367643
-4.3556395 -1.1159563 0.1952486
-4.367332 -1.1387979 0.20357348
-4.3992734 -1.1999576 0.22686505
-4.4092107 -1.2221 0.23272377
-4.4867034 -1.2047168 0.36306897
-4.5215769 -1.3247411 0.36477917
-4.5121732 -1.4148731 0.30975282
-4.4619489 -1.4363406 0.22073059
-4.4053631 -1.440421 0.12938792
-4.3706012 -1.4320858 0.078104049
-4.3372455 -1.4308511 0.025882035
-1.5740387 1.3492925 -3.1074238
-1.6038947 1.3494265 -3.0601287
-1.6372478 1.3548067 -3.0049639
-1.6059878 1.3617766 -3.0513163
-1.5914044 1.3714368 -3.070085
-1.5589871 1.3613205 -3.1258788
-6.7438183 -0.79709148 4.1156354
-6.685173 -0.78015143 4.0303979
-6.6923056 -0.95151407 3.9653502
-6.7750793 -0.98004889 4.0835967
-6.7941475 -0.89502549 4.151638
-4.7277718 1.4148989 1.9113392
-1.5025253 1.3904889 -3.2022147
-1.5171087 1.3808289 -3.1834455
-1.6529884 1.3622327 -2.9767528
-1.6698864 1.386745 -2.9390998
-1.7002106 1.384511 -2.8921189
-1.716419 1.389569 -2.8642225
-1.7310023 1.3799088 -2.8454528
-4.4962602 -0.80731392 0.55520689
-4.4790912 -0.77288228 0.54338032
-4.4738002 -0.77091801 0.53588498
-4.8095531 -1.4967575 0.743765
-4.8409739 -1.4817551 0.80015862
-4.8222895 -1.4969887 0.76381278
-5.9202857 -1.5389578 2.482264
-5.8762722 -1.5317649 2.4158335
-5.8454823 -1.5272226 2.3691444
-5.8742762 -1.5443516 2.4070699
-5.8581185 -1.5495565 2.3791881
0 0 0 1 0 0 0 1 0 0 0 1 0 0 0 0 0 1160 1 0 0
