ply
format ascii 1.0
comment PCL generated
element vertex 556
property float x
property float y
property float z
element camera 1
property float view_px
property float view_py
property float view_pz
property float x_axisx
property float x_axisy
property float x_axisz
property float y_axisx
property float y_axisy
property float y_axisz
property float z_axisx
property float z_axisy
property float z_axisz
property float focal
property float scalex
property float scaley
property float centerx
property float centery
property int viewportx
property int viewporty
property float k1
property float k2
end_header
-1.3170795 -0.40199235 -5.278564
-1.3019187 -0.30698565 -5.2847757
-1.3200991 -0.34704459 -5.2772021
-2.1497808 -0.78911394 -4.9292326
-2.1141038 -0.78908241 -4.9442277
-2.0811062 -0.66850591 -4.9578929
-2.0282452 -0.613765 -4.9800181
-1.9532406 -0.58863801 -5.0115004
-1.9584212 -0.57122833 -5.0092931
-1.946794 -0.44852459 -5.0139728
-1.9817374 -0.44604331 -4.9992819
-2.0004182 -0.2488609 -4.9910975
-2.0113099 -0.20875522 -4.9864521
-2.0113626 -0.16875583 -4.986362
-2.0114152 -0.12875645 -4.9862723
-2.0114682 -0.088757098 -4.9861822
-2.0168114 -0.0089604929 -4.9838018
-1.9897888 0.071326852 -4.9950237
-1.9999959 0.15144479 -4.9905987
-2.0123613 0.19152477 -4.9853334
-2.0118906 0.23123786 -4.9854646
-2.0355654 0.23171109 -4.975513
-2.0761058 0.24350399 -4.9584541
-2.0874717 0.24639654 -4.9536719
-2.1106229 0.24658349 -4.9439411
-2.1455662 0.24906477 -4.9292502
-2.2142677 0.35132712 -4.9002023
-2.2244761 0.39137089 -4.895844
-2.2237921 0.43138313 -4.8960638
-2.150707 0.51096004 -4.9266472
-2.0720918 0.51100212 -4.9596891
-2.0414925 0.49101886 -4.9725838
-2.0595126 0.51129544 -4.9649758
-2.0760856 0.55159742 -4.957942
-2.1320813 0.63076895 -4.9342732
-2.1343181 0.67076707 -4.9332657
-2.1472871 0.67094702 -4.9278145
-2.2859726 0.75048542 -4.8693905
-2.2969441 0.790479 -4.8647113
-2.3086789 0.87049645 -4.8596439
-2.3146255 0.95046711 -4.8570094
-2.3203595 0.99066269 -4.8545318
-2.3104029 1.0604677 -4.8585987
-2.3104165 1.0704676 -4.8585758
-2.3104694 1.110467 -4.8584862
-2.3119955 1.1504406 -4.8577771
-2.3142588 1.1904014 -4.8567586
-2.3187323 1.2303237 -4.8548107
-2.3174171 1.3503475 -4.8551607
-2.357538 1.3677385 -4.8382688
-2.3807023 1.3779254 -4.8285155
-2.4274447 1.3877008 -4.8088531
-2.4623811 1.3851821 -4.7941732
-2.5091069 1.3824579 -4.774539
-2.5322547 1.3801447 -4.7648139
-2.5671916 1.3776263 -4.7501345
-2.6139238 1.3799019 -4.7304888
-2.6606526 1.3796775 -4.7108488
-2.7305295 1.37714 -4.6814837
-2.7772582 1.3769157 -4.6618443
-2.8589239 1.3741729 -4.6275244
-2.8938642 1.3741541 -4.6128392
-2.9637442 1.3741167 -4.5834684
-2.9755363 1.3764111 -4.5785084
-2.9930091 1.3739011 -4.5711689
-3.0279491 1.3738824 -4.5564837
-3.0454164 1.3763738 -4.5491381
-3.0803533 1.373855 -4.5344582
-3.0978258 1.371345 -4.5271187
-3.1238945 1.3489809 -4.5161996
-3.2113514 1.3487846 -4.4794416
-3.2493649 1.3635647 -4.4634399
-3.2961037 1.3708403 -4.4437833
-3.3659806 1.3683028 -4.4144182
-3.4127126 1.3705784 -4.3947725
-3.482583 1.3630413 -4.3654189
-3.4943783 1.3678356 -4.3604531
-3.5292952 1.3503172 -4.3458071
-3.5686526 1.3477213 -4.3292694
-3.6577129 1.3648494 -4.2918086
-3.7393851 1.3671063 -4.2574778
-3.8033442 1.3471723 -4.2306294
-3.8419685 1.3470892 -4.2143955
-3.8638327 1.3470401 -4.2052064
-3.9258575 1.3543074 -4.1791248
-3.9826255 1.3467772 -4.1552777
-4.0424666 1.3540457 -4.1301146
-4.1241455 1.3613025 -4.0957723
-4.2407608 1.3660407 -4.0467505
-4.3106341 1.3610035 -4.0173912
-4.3746004 1.3460691 -3.9905317
-4.4272499 1.3657416 -3.9683697
-4.4503913 1.3584287 -3.9586556
-4.4853249 1.3534101 -3.9439816
-4.5552049 1.3533726 -3.9146109
-4.5820298 1.3459954 -3.9033489
-4.6718307 1.3656108 -3.8655725
-4.7303348 1.3551809 -3.8410006
-4.7770739 1.3624566 -3.8213439
-4.7888656 1.3647507 -3.8163838
-4.8351684 1.3651247 -3.7969222
-4.8818936 1.3624003 -3.7772882
-4.9286294 1.3671758 -3.757637
-4.9867072 1.3573444 -3.7332432
-5.0216475 1.3573256 -3.7185581
-5.0452218 1.3544145 -3.7086546
-5.0565839 1.354807 -3.7038784
-5.0801654 1.3568957 -3.6939635
-5.1033196 1.3595825 -3.6842272
-5.1618338 1.3566526 -3.6596386
-5.1386962 1.3664656 -3.6693468
-7.2346234 -1.4822713 -2.7932386
-7.2609301 -1.4824169 -2.7821822
-7.3604946 -1.4025072 -2.7402
-7.4002008 -1.3628081 -2.7234445
-7.3915358 -1.2826903 -2.7269511
-7.3945456 -1.2652302 -2.7256565
-7.4005308 -1.2428097 -2.723103
-7.4014916 -1.1628207 -2.7225642
-7.4040432 -1.0428519 -2.7212892
-7.4041529 -1.0028524 -2.7211752
-7.4021521 -0.92282379 -2.7218812
-7.3985605 -0.88277471 -2.7233231
-7.4100513 -0.84265184 -2.7184255
-7.4189053 -0.79767746 -2.7146282
-7.4643984 -0.7229172 -2.6953812
-7.4777536 -0.71309584 -2.6897514
-7.524569 -0.6958546 -2.6700459
-7.5289683 -0.68336725 -2.6681757
-7.5378084 -0.64339274 -2.6643925
-7.5239992 -0.56322885 -2.6700611
-7.5275402 -0.52311444 -2.6685052
-7.5277605 -0.4431155 -2.6682773
-7.5320382 -0.40344766 -2.6664124
-7.632328 -0.3083052 -2.6240997
-7.7260523 -0.2571916 -2.584621
-7.7723742 -0.17753787 -2.5650172
-7.7684784 -0.097507432 -2.5665197
-7.7941713 -0.014510453 -2.5555806
-7.7929964 0.10551317 -2.5558715
-7.808836 0.18218754 -2.5490847
-7.8090687 0.22218651 -2.5489192
-7.7617469 0.26255408 -2.5687406
-7.7466307 0.26579103 -2.5750885
-7.7109737 0.26587936 -2.590075
-7.6706185 0.26624686 -2.6070356
-7.6587572 0.26645187 -2.6120205
-7.6382508 0.2666083 -2.6206393
-7.6350355 0.2668618 -2.6219902
-7.5458722 0.3870534 -2.6592627
-7.5406604 0.42724356 -2.6613853
-7.5439978 0.50705612 -2.6598477
-7.5431509 0.54723686 -2.6601357
-7.5454359 0.58723146 -2.6591079
-7.5433559 0.62723547 -2.6599145
-7.552187 0.66721594 -2.6561351
-7.5531693 0.67953432 -2.6557014
-7.5598893 0.74701905 -2.6527631
-7.5556269 0.78702778 -2.6544869
-7.5654063 0.8259936 -2.650311
-7.5518389 0.86702955 -2.6559441
-7.548564 0.90712023 -2.6572528
-7.5572701 0.94720161 -2.6535258
-7.5527258 0.98685253 -2.6553688
-7.5614738 1.0269003 -2.6516242
-7.5591955 1.0664791 -2.6525152
-7.5974483 1.146216 -2.6363027
-7.5813255 1.1864299 -2.6430111
-7.5739317 1.2266247 -2.6460509
-7.4703789 1.1468945 -2.6897089
-7.4036217 1.1894937 -2.717695
-7.3917675 1.1921986 -2.7226729
-7.3808432 1.1872222 -2.7272727
-7.3782058 1.1074307 -2.7285161
-7.3913317 1.0222015 -2.7231433
-7.3781481 0.9872303 -2.7287436
-7.3909531 0.87470388 -2.7235518
-7.390831 0.82720464 -2.7236829
-7.388402 0.74724448 -2.724839
-7.3501906 0.66747373 -2.741034
-7.3732677 0.62750262 -2.7314024
-7.3902283 0.59220856 -2.7243333
-7.3923979 0.58720398 -2.7234302
-7.4250536 0.55713362 -2.7097554
-7.4247465 0.43713561 -2.7100873
-7.4203563 0.42714524 -2.7119493
-7.4071603 0.38717425 -2.7175632
-7.4222913 0.3471756 -2.7112713
-7.4206038 0.26720256 -2.7121155
-7.3979182 0.18719651 -2.7217855
-7.3978157 0.14719716 -2.7218962
-7.3889837 0.10721675 -2.7256756
-7.4236107 -0.0053569414 -2.7113121
-7.4004345 -0.052985575 -2.7211337
-7.3872385 -0.092956565 -2.7267473
-7.3956785 -0.1729067 -2.723335
-7.3912954 -0.212964 -2.725245
-7.3880863 -0.24277742 -2.726644
-7.3919468 -0.28303966 -2.7250896
-7.397788 -0.31311861 -2.7226853
-7.3997421 -0.32298106 -2.7218809
-7.4084454 -0.33299977 -2.7182398
-7.4338312 -0.44323662 -2.7077563
-7.4268308 -0.52307588 -2.7108333
-7.4136257 -0.56303787 -2.7164512
-7.4200625 -0.60305601 -2.7138131
-7.396029 -0.68310386 -2.7240496
-7.279376 -0.74227852 -2.7731791
-7.2326088 -0.74201995 -2.792835
-7.1560392 -0.72209722 -2.8249836
-7.1464138 -0.72196835 -2.8290291
-7.0817428 -0.72683793 -2.8562183
-7.01124 -0.74126178 -2.8858752
-6.9149504 -0.72123593 -2.926312
-6.8550882 -0.72093987 -2.9514716
-6.7898645 -0.74300361 -2.9789224
-6.7805262 -0.74304926 -2.9828472
-6.7543168 -0.7450276 -2.9938667
-6.6969786 -0.73286265 -3.0179455
-6.6407714 -0.73821747 -3.0415785
-6.6058331 -0.74075949 -3.0562673
-6.5708942 -0.73830158 -3.0709481
-6.5590997 -0.73562813 -3.0759008
-6.5359545 -0.73334366 -3.0856249
-6.461576 -0.71941632 -3.1168628
-6.3956399 -0.67351329 -3.1444981
-6.3822203 -0.67908806 -3.1501479
-6.2658572 -0.63270783 -3.198977
-6.2591848 -0.47261208 -3.2015109
-6.1812286 -0.59257543 -3.2344787
-6.0259862 -0.5525164 -3.2996597
-5.8707428 -0.51245731 -3.3648407
-5.8663659 -0.47246298 -3.3666129
-6.0296326 -0.39257249 -3.2978568
-6.0645514 -0.31253138 -3.2830453
-6.1425271 -0.27256706 -3.2502046
-6.1055365 -0.1267978 -3.2655053
-6.1026249 -0.046748452 -3.2665939
-5.9889369 -0.04661309 -3.3143768
-5.9095449 0.033474032 -3.34761
-5.8694654 0.073543444 -3.364388
-5.7922373 0.11363234 -3.3967793
-5.7915578 0.23364317 -3.396862
-5.7143683 0.35373086 -3.4291019
-5.636364 0.31383356 -3.4619546
-5.5628247 0.35385925 -3.4927957
-5.6357236 0.51384324 -3.4618859
-5.5592523 0.59391886 -3.4938917
-5.5607667 0.67389244 -3.49312
-5.5585923 0.75392914 -3.4938986
-5.558651 0.87392735 -3.4936714
-5.5251508 0.91396111 -3.507684
-5.4420419 0.87407416 -3.5426822
-5.4412651 0.79408807 -3.5431437
-5.4427209 0.75406331 -3.5425994
-5.3514032 0.66438538 -3.5811319
-5.3142262 0.66447997 -3.5967572
-5.2350054 0.82464457 -3.6297832
-5.189199 0.90474272 -3.6489005
-5.1587582 1.0247946 -3.6614919
-5.1602845 1.0647683 -3.6607828
-5.0414653 1.0650686 -3.7107222
-5.0416765 1.2250661 -3.7103631
-7.2424746 -1.4621692 -2.7899051
-7.2544379 -1.4198283 -2.7848053
-7.3192439 -1.3228261 -2.7574034
-7.3268781 -1.2825598 -2.7541265
-7.3222709 -1.2427729 -2.7559958
-7.2983313 -1.1621746 -2.7659216
-7.2789507 -1.1226496 -2.7740002
-7.2879009 -1.0426756 -2.7701035
-7.2859387 -0.96267051 -2.770793
-7.280982 -0.92267209 -2.7728086
-7.3049774 -0.84260076 -2.7625885
-7.1982956 -0.74729604 -2.8072658
-7.1633682 -0.74969608 -2.82195
-7.123971 -0.7620365 -2.8385293
-7.0331907 -0.92169797 -2.8769541
-6.9673395 -1.0014155 -2.9047661
-6.9308286 -1.0412952 -2.9201789
-6.9294786 -0.99377608 -2.9206662
-6.9296021 -0.94877672 -2.9205382
-6.9300084 -0.80127859 -2.9201183
-6.8359766 -0.75538594 -2.9595623
-6.8135242 -0.75582081 -2.9689999
-6.8010635 -0.75278604 -2.974232
-6.6982737 -0.8003816 -3.0175152
-6.6104422 -0.87994277 -3.0545652
-6.614665 -0.96000123 -3.0529256
-6.5773029 -1.0398705 -3.068764
-6.5744514 -0.99983132 -3.0698948
-6.4115391 -0.95349085 -3.1382885
-6.3962584 -0.97350907 -3.1447451
-6.3464808 -0.97648424 -3.1656716
-6.3324604 -0.95879614 -3.1715345
-6.3421965 -0.91892558 -3.1673751
-6.3466735 -0.9064852 -3.1654723
-6.2791486 -0.73040187 -3.1935558
-6.209271 -0.72798604 -3.2229214
-6.1488533 -0.73317057 -3.2483237
-6.1276016 -0.73289651 -3.2572553
-6.1162496 -0.73328561 -3.262027
-6.1139326 -0.73307061 -3.2630005
-6.0577259 -0.73798054 -3.2866328
-6.022788 -0.7430225 -3.3013256
-5.9411159 -0.73543316 -3.3356397
-5.9179721 -0.74064875 -3.345376
-5.8117046 -0.83325207 -3.3901966
-5.7314873 -0.74568534 -3.4237642
-5.7078962 -0.73033845 -3.4336534
-5.6030817 -0.73546451 -3.477716
-5.5245032 -0.87305748 -3.5109749
-5.4850698 -0.91292852 -3.5276163
-5.4625053 -0.9529435 -3.5371675
-5.4515901 -0.96545649 -3.5417767
-5.4188395 -1.0329931 -3.5556557
-5.4218369 -1.0730731 -3.5544636
-5.4232259 -1.1129869 -3.5539472
-5.4516439 -1.1879539 -3.5421298
-5.4538288 -1.1929513 -3.5412199
-5.4516549 -1.2329533 -3.542201
-5.4582157 -1.272945 -3.5395112
-5.4516935 -1.3929515 -3.5424552
-5.3350887 -1.4104038 -3.5914938
-5.3176079 -1.412923 -3.5988452
-5.2826686 -1.410465 -3.6135261
-5.2359371 -1.4128335 -3.6331713
-5.2010012 -1.4228754 -3.647872
-5.1645908 -1.4328955 -3.6631923
-5.084394 -1.4303279 -3.6968946
-5.0603743 -1.4328568 -3.7069945
-4.9677844 -1.4302806 -3.7459056
-4.8979053 -1.4203647 -3.7752595
-4.8206048 -1.4327698 -3.8077698
-4.7812982 -1.4278173 -3.8242822
-4.6777921 -1.432754 -3.867794
-4.54808 -1.4277223 -3.9223037
-4.5013423 -1.4050913 -3.9419093
-4.3497934 -1.4000859 -4.0055971
-4.306109 -1.3526391 -4.0238776
-4.3257232 -1.1926173 -4.0153632
-4.2912087 -1.1547837 -4.0298057
-4.2562642 -1.1298262 -4.0444512
-4.2234955 -1.0723662 -4.0581264
-4.1981463 -0.99008542 -4.0686417
-4.1514072 -0.95995432 -4.0882354
-4.1199493 -0.91230494 -4.101377
-4.0682316 -0.83234465 -4.1229787
-3.9880157 -0.75227785 -4.1565585
-3.9434953 -0.75217891 -4.1752701
-3.9063439 -0.74718851 -4.1908765
-3.8705316 -0.75204384 -4.2059364
-3.8364694 -0.75727248 -4.2202621
-3.7779427 -0.75196749 -4.2448516
-3.7710137 -0.75242168 -4.2477646
-3.7316518 -0.74989867 -4.2643042
-3.7051172 -0.75200826 -4.2754602
-3.6892879 -0.75226188 -4.282114
-3.6307626 -0.75195688 -4.3067117
-3.6032476 -0.74217784 -4.3182597
-3.5447216 -0.73937291 -4.3428535
-3.5097842 -0.74441487 -4.3575463
-3.4984331 -0.74730396 -4.3623219
-3.4733734 -0.75193512 -4.3728623
-3.3939238 -0.79187781 -4.4063225
-3.391731 -0.79186869 -4.4072442
-3.3115048 -0.74677801 -4.4408875
-3.300153 -0.74466711 -4.4456549
-3.2534227 -0.75203556 -4.4653082
-3.1949019 -0.7717303 -4.4899378
-3.1078105 -0.91211516 -4.5267797
-3.0893106 -0.7713238 -4.534317
-3.0128336 -0.75183231 -4.5664277
-2.9852676 -0.75948274 -4.5780268
-2.9370513 -0.7510308 -4.5982776
-2.8560643 -0.79204994 -4.6323857
-2.8189421 -0.79078013 -4.6479864
-2.7121954 -0.79006273 -4.6928511
-2.700593 -0.79011881 -4.6977272
-2.6229174 -0.73777735 -4.7302861
-2.5499671 -0.7500388 -4.7609682
-2.4712596 -0.81999564 -4.794167
-2.3317962 -0.82933533 -4.8527994
-2.1695144 -0.78923661 -4.920939
-7.0644274 1.5486425 -2.859652
-7.0422163 1.5884997 -2.8689201
-7.0080042 1.5735627 -2.8833249
-6.9210587 1.5490088 -2.9199095
-6.891345 1.5539947 -2.9323897
-6.8368797 1.5891122 -2.9552224
-6.8216615 1.6116447 -2.9615805
-6.8041458 1.589183 -2.9689803
-6.8147268 1.5092618 -2.9646683
-6.7182446 1.4302672 -3.0053532
-6.6757936 1.4195603 -3.0232134
-6.6571035 1.4153997 -3.031076
-6.6408572 1.4170418 -3.0379014
-6.6172476 1.4149462 -3.0478282
-6.6103268 1.4156802 -3.0507357
-6.6059227 1.4170234 -3.0525846
-6.5709887 1.4195049 -3.0672631
-6.5754242 1.4207556 -3.0653968
-6.6222067 1.4229751 -3.0457301
-4.8100905 1.3455621 -3.8074956
-4.8531351 1.345402 -3.7894039
-4.9266467 1.305301 -3.7585747
-4.9629416 1.2152579 -3.7434721
-4.9641643 1.0252351 -3.7432792
-4.8460293 0.98552322 -3.7929988
-4.7315774 0.9457469 -3.8411701
-4.6544352 1.0259117 -3.8734577
-4.6522775 1.0659496 -3.8742969
-4.7296605 1.168282 -3.8415997
-4.7304735 1.2257682 -3.841161
-4.4635248 1.0262879 -3.9536967
-4.537879 1.0661728 -3.9223783
-4.6529083 0.98593783 -3.8741667
-4.5711613 0.86607075 -3.9087276
-4.5034118 0.86618167 -3.9372027
-6.780602 1.4271154 -2.9791496
-6.7928247 1.4292094 -2.9740088
-6.8155451 1.4446336 -2.9644332
-6.843657 1.4598162 -2.9525921
-6.9558239 1.4293944 -2.9054999
-7.076879 1.4614528 -2.8545661
-7.122016 1.428172 -2.8356512
-7.1360493 1.4079288 -2.829787
-7.1590977 1.4055583 -2.8201041
-7.1744308 1.4280248 -2.8136213
-7.158494 1.4310971 -2.8203144
-7.0973368 1.4647999 -2.845962
-6.7456665 1.4270971 -2.9938328
-6.7157478 1.4174142 -3.0064244
-7.05056 0.18884468 -2.8677778
-7.049819 0.18885751 -2.8680892
-7.0385456 0.12905067 -2.8729286
-2.6682312 -0.36987671 -4.710619
-2.6296072 -0.36979377 -4.7268529
-2.5914824 -0.54972762 -4.7431808
-2.7467685 -0.51007295 -4.6778469
-3.3572154 0.86845201 -4.4189463
-3.2784939 0.8686437 -4.452033
-3.2400808 1.0287242 -4.4679074
-3.3166978 1.1085699 -4.4355702
-3.3567955 1.1084611 -4.4187174
-3.433254 1.0683087 -4.3866496
-3.4338324 0.94829762 -4.3866096
-6.0346708 1.3950558 -3.2927194
-5.9997301 1.3825375 -3.3074262
-6.0355573 1.3923478 -3.2923512
-6.0696073 1.3975741 -3.2780313
-6.5360513 1.4144865 -3.0819559
-6.5292959 1.412997 -3.0847979
-6.5011158 1.4119681 -3.0966434
-6.4825068 1.4082775 -3.1044712
-6.4706454 1.4084826 -3.1094561
-6.4357233 1.4060582 -3.1241379
-6.4307642 1.4050562 -3.126224
-6.3840261 1.4077399 -3.1458635
-6.3658862 1.4037093 -3.1534946
-6.337286 1.4054238 -3.1655126
-6.3028264 1.3997804 -3.1800053
-6.2729874 1.398731 -3.1925485
-6.2262239 1.4040116 -3.2121944
-6.2093506 1.4051478 -3.2192843
-6.1913023 1.4015871 -3.226876
-6.139482 1.4076108 -3.248646
-6.1214709 1.4017382 -3.2562258
-6.1857319 1.3855524 -3.2292442
-6.2206583 1.3680712 -3.2145941
-6.2792144 1.3926848 -3.1899414
-6.5242472 1.4146887 -3.0869167
-6.5124431 1.4148909 -3.0918777
-6.4661818 1.4144496 -3.1113219
-6.4245362 1.4082237 -3.1288362
-6.3963108 1.4119129 -3.1406932
-6.3777599 1.4085042 -3.1484962
-6.3495703 1.4095966 -3.1603422
-6.3309765 1.4062848 -3.1681628
-4.5438237 0.54606515 -3.9207582
-4.4307928 0.46626386 -3.9684
-4.4685221 0.34619564 -3.9527454
-4.6179662 0.42595249 -3.8897991
-7.578373 1.2566148 -2.6441336
-7.5741367 1.3066232 -2.6458297
-7.5798807 1.2665889 -2.6434827
-2.7139668 1.1099272 -4.6888967
-2.7546427 0.98980749 -4.6720033
-2.8609374 0.90957743 -4.6274633
-2.9689231 0.98931837 -4.5819421
-2.968976 1.0293176 -4.581852
-2.9683444 1.1093293 -4.5819826
-2.8336284 1.1896127 -4.6384683
-3.7081439 0.0276413 -4.272871
-3.7884448 0.10742274 -4.238986
-3.7113552 0.22758681 -4.271184
-3.6734681 0.2276569 -4.2871075
-3.6341071 0.22775272 -4.3036509
-3.5567007 0.10792051 -4.3363872
-3.6323695 0.027781513 -4.304719
-3.6717305 0.027685698 -4.2881756
-2.7123322 0.42995065 -4.6907325
-2.6306634 0.43019369 -4.7250576
-2.5125809 0.43048111 -4.7746873
-2.4635894 0.31059635 -4.7954807
-2.5524144 0.23037559 -4.7582831
-2.4480391 0.11060765 -4.8023543
-2.5601752 0.030349519 -4.7553592
-2.5928264 -0.089740902 -4.7418385
-2.7518489 -0.010151103 -4.6748667
-2.7511649 0.029861119 -4.675087
-2.7607424 0.10984235 -4.6709261
-2.7513237 0.14985923 -4.6748176
-2.6661294 0.2300905 -4.7104893
-2.6719706 0.23006245 -4.708034
-2.7120681 0.2299538 -4.6911812
-2.7652683 0.22983813 -4.6688213
-2.9067678 0.30951202 -4.6092143
-2.8312044 0.4696497 -4.6407032
-2.7524297 0.429842 -4.6738796
-3.0617895 0.14916986 -4.5443296
-3.2352352 0.14880204 -4.4714308
-3.1971898 0.028874028 -4.4876237
-3.1191916 0.019052964 -4.5204229
-3.6913617 0.71043921 -4.2787714
-3.7518754 0.54747313 -4.2536125
-3.8555136 0.66725397 -4.2098513
-4.657063 0.22585979 -3.8737047
-4.5448747 0.22604445 -3.9208572
-4.5068984 0.15861557 -3.9369326
-4.5817609 0.025990251 -3.9056919
-4.6189117 0.025933001 -3.8900774
-4.657536 0.025850046 -3.8738437
-4.664824 0.025833678 -3.8707807
-4.6961598 0.025767084 -3.8576102
-4.7741976 0.065587699 -3.8247435
-4.6956873 0.22577682 -3.857471
-4.6760068 0.22582474 -3.8657427
-5.275259 0.38452992 -3.6136079
-5.1193953 0.46488628 -3.6789823
-5.0820861 0.34494534 -3.6948657
-5.0827699 0.30493316 -3.6946459
-5.1664639 0.22476497 -3.6596048
-5.2857995 0.31428671 -3.6092966
-4.8134003 -0.054506261 -3.8084695
-4.851182 -0.13457513 -3.7927251
-5.0078979 -0.12744565 -3.726845
-5.027595 -0.094956674 -3.7185116
-5.0437236 -0.014978942 -3.7115977
-4.9286938 0.065255851 -3.7598093
-4.9090133 0.065303758 -3.7680809
-4.4892006 -0.013872404 -3.9446623
-4.4300542 -0.09372744 -3.9696567
-4.3149185 -0.09349142 -4.0180478
-4.314393 0.066518962 -4.0179982
-4.3916936 0.10635242 -3.9854414
0 0 0 1 0 0 0 1 0 0 0 1 0 0 0 0 0 556 1 0 0
