ply
format ascii 1.0
comment PCL generated
element vertex 717
property float x
property float y
property float z
element camera 1
property float view_px
property float view_py
property float view_pz
property float x_axisx
property float x_axisy
property float x_axisz
property float y_axisx
property float y_axisy
property float y_axisz
property float z_axisx
property float z_axisy
property float z_axisz
property float focal
property float scalex
property float scaley
property float centerx
property float centery
property int viewportx
property int viewporty
property float k1
property float k2
end_header
-0.51907158 -1.5239588 -0.47837704
-0.65106726 -1.6203272 -0.46383452
-0.75865602 -1.5250995 -0.44119388
-0.67668343 -1.5269979 -0.45405793
-0.64995193 -1.5131887 -0.45735735
-0.5286355 -1.5199335 -0.47664005
-0.52222538 -1.5192947 -0.47759718
-0.47972679 -1.528805 -0.48479575
-0.40411329 -1.5263588 -0.49640137
-0.33261919 -1.5340908 -0.50799829
-0.29943132 -1.5295995 -0.51288003
-0.28597593 -1.5309315 -0.51505494
-0.2402463 -1.5376307 -0.52258146
-0.21446419 -1.5386695 -0.52665496
-0.24975872 -1.5286223 -0.52054316
-0.30251265 -1.5249298 -0.51211101
-0.3449955 -1.5203948 -0.50522363
-0.41047192 -1.5220144 -0.49514294
0.0013661385 1.4278169 -0.3760702
0.040288925 1.4383264 -0.38147008
0.11238861 1.3956125 -0.39533269
0.15176535 1.3932555 -0.40160185
0.19417143 1.3812459 -0.40894121
0.16108656 1.3867209 -0.40345687
0.10920382 1.3903158 -0.39516622
0.076145172 1.3982828 -0.38953125
0.033558846 1.3928511 -0.38324642
0.0076432228 1.3971403 -0.37895048
-0.0026335716 1.4005046 -0.37714368
-0.0088734627 1.4023693 -0.37605768
-0.045091152 1.4075308 -0.37010556
-0.051331043 1.4093959 -0.36901957
-0.048198223 1.4097092 -0.36948729
0.50612831 1.3695536 -0.45817453
0.463696 1.3790712 -0.45098573
0.42426777 1.3764451 -0.44501793
0.47607279 1.3653753 -0.45376039
0.89737606 -0.67004502 -0.64561975
0.89752007 -0.75045615 -0.65063369
0.77145767 -0.84825039 -0.63710231
0.77263641 -0.86664444 -0.63842738
0.75737667 -0.90998054 -0.63874471
0.75222015 -0.86794549 -0.63533354
0.7495265 -0.8259021 -0.63230485
0.74993992 -0.78603685 -0.6298945
0.75035334 -0.74617165 -0.62748408
0.75944281 -0.71065444 -0.62669277
0.75428677 -0.66861939 -0.62328172
0.75470018 -0.6287542 -0.62087137
0.73885632 -0.49426806 -0.61005944
0.72047138 -0.43174112 -0.60331935
0.71692705 -0.40743706 -0.60125953
0.71713352 -0.38751107 -0.60005474
0.71734047 -0.36757186 -0.59884918
0.72065353 -0.34982404 -0.59826267
0.72106743 -0.30995885 -0.59585238
0.72438097 -0.29219785 -0.59526503
0.72479439 -0.2523326 -0.59285474
0.72251415 -0.17042392 -0.5874157
0.72562122 -0.17260221 -0.58803403
0.87501574 -0.25181857 -0.61618143
0.89705563 -0.24818632 -0.61938304
0.91987276 -0.24509853 -0.62273926
0.90960932 -0.28499746 -0.62362003
0.90737772 -0.32705778 -0.62588394
0.91681433 -0.3668893 -0.62982386
0.92153311 -0.38681164 -0.63179427
0.91126871 -0.42671055 -0.63267493
0.90593004 -0.46659261 -0.6343205
0.89436913 -0.50731677 -0.63505077
0.89602709 -0.53608549 -0.63709444
0.89540005 -0.58709478 -0.6401633
-5.9177876 -0.77705467 0.40745673
-5.7960782 -0.72849256 0.39154613
-5.7542381 -0.73062044 0.38490811
-5.6782537 -0.78974485 0.36942285
-5.59448 -0.77256131 0.35746315
-5.5167117 -0.77116305 0.34545743
-5.4381304 -0.77033639 0.3332898
-5.3564873 -0.76916176 0.32066768
-5.3137031 -0.74619478 0.31544065
-5.2350736 -0.77291328 0.30155566
-5.1927404 -0.8296622 0.29145041
-5.2323856 -0.87484437 0.29481035
-5.3146472 -0.9131 0.3052268
-5.3988271 -0.9299978 0.31726739
-5.4707861 -0.96498185 0.32628492
-5.4843388 -0.96596742 0.32833114
-5.5216994 -0.96773815 0.33403057
-5.5253563 -0.96516621 0.33475888
-5.5986328 -0.92970705 0.34835407
-5.6821671 -0.90454155 0.36290532
-5.7856984 -0.92785919 0.37755641
-5.8371992 -0.89018595 0.38790303
-5.9142866 -0.88680494 0.40009964
-5.9208603 -0.88744056 0.40108228
-6.0391731 -0.76832086 0.42687365
-5.9210529 -0.77725959 0.40795174
-10.776396 -1.0131124 1.1482892
-10.778341 -1.0317616 1.1474342
-10.773299 -1.0951024 1.1427183
-10.775246 -1.1137516 1.1418631
-10.775372 -1.1536093 1.1394086
-10.778846 -1.1911919 1.1376159
-10.777033 -1.2148914 1.1358629
-10.773685 -1.2171663 1.1352012
-10.781002 -1.4094136 1.1244051
-10.777788 -1.454037 1.1211355
-10.771093 -1.4585867 1.1198118
-10.722239 -1.5083864 1.1091242
-10.712322 -1.5550685 1.1046841
-10.702736 -1.5679491 1.1023941
-10.680645 -1.5876261 1.0977377
-10.615786 -1.6325276 1.0848651
-10.537353 -1.6713481 1.0702593
-10.513315 -1.6723762 1.066458
-10.417032 -1.5816059 1.057121
-10.554658 -1.5134212 1.0827537
-10.645681 -1.4278042 1.1022218
-10.657429 -1.3518393 1.1087641
-10.659478 -1.2705603 1.1141282
-10.655673 -1.260664 1.1141508
-10.658599 -1.1912715 1.1189133
-10.575394 -1.113505 1.1108027
-10.576344 -1.082901 1.1128504
-10.735065 -0.99401587 1.1430479
-10.777754 -0.9123311 1.1547565
-10.779499 -0.93361354 1.1537068
-8.2184696 1.4078507 0.900828
-8.1396923 1.4112368 0.88878876
-8.1101847 1.4016078 0.88360286
-8.0643883 1.3770399 0.87495673
-8.1431503 1.3786361 0.88730282
-8.1825743 1.3657331 0.89263207
-8.2646761 1.3720953 0.90579331
-8.3400726 1.376399 0.91778433
-8.3828211 1.3732443 0.92423564
-8.4155025 1.3707383 0.92916179
-8.3440313 1.3989513 0.91979975
-8.3366232 1.4065084 0.91911697
-8.300602 1.4042485 0.91337562
-8.2972469 1.4044647 0.91286725
-6.2572422 1.3742626 0.59378338
-6.1390781 1.3751493 0.57546455
-6.0930929 1.3709705 0.56805468
-6.1358128 1.3679295 0.57450867
-4.8168516 -0.76463819 0.2370382
-4.9354572 -0.82777303 0.25156161
-4.9317651 -0.77019864 0.25456142
-4.8857236 -0.7594049 0.24807225
-4.806839 -0.74388981 0.23676923
-4.7493248 -0.73151726 0.22859418
-4.6917329 -0.71092403 0.22091728
-4.5738249 -0.74744481 0.20031619
-4.4950271 -0.74438667 0.18825348
-4.4852762 -0.7610091 0.18570544
-4.5246487 -0.75880104 0.1919647
-4.564074 -0.76406717 0.19776817
-4.617866 -0.94232893 0.19506694
-4.6559482 -0.75575811 0.21256988
-4.7313499 -0.74359548 0.22504944
-7.3425875 -1.537477 0.58180165
-7.2580152 -1.5233562 0.56952769
-7.1858597 -1.5405202 0.55724245
-7.0644317 -1.5417805 0.53828287
-7.1793718 -1.5475836 0.55579519
-7.2187219 -1.540452 0.56235659
-7.3216934 -1.6164291 0.57365179
-7.3456802 -1.6153355 0.5774495
-7.4233527 -1.5440371 0.59395295
-7.4452267 -1.542418 0.59745479
-7.5042624 -1.5434604 0.60656977
-7.5338593 -1.5431874 0.61118883
-7.5371246 -1.5433923 0.61168385
-7.54039 -1.5435975 0.61217886
-7.5482101 -1.5433208 0.61341202
-7.5909424 -1.5414933 0.62017012
-7.6630163 -1.5469379 0.6310392
-7.7057409 -1.5426195 0.63795066
-7.6663561 -1.542172 0.63185436
-7.3466654 -1.5371104 0.58245856
-7.378932 -1.5399623 0.58729875
-7.4191289 -1.5344253 0.59389281
-7.4333963 -1.5372126 0.59593832
-7.5009832 -1.5407643 0.60622716
-7.5468917 -1.5390251 0.61347371
-2.3246887 1.3577461 -0.018731564
-2.1870613 1.3287318 -0.041932911
-2.3057418 1.3700721 -0.020912558
-2.3287096 1.3654461 -0.017628372
-2.3984644 1.367239 -0.0066705644
-2.4025664 1.3666527 -0.0060691237
-2.4378397 1.3602681 -0.00098064542
-2.5281863 1.3634138 0.013262987
-2.613452 1.3613837 0.026395291
-2.6345844 1.3622282 0.029733688
-2.6562755 1.3656917 0.03332153
-2.6706784 1.3613377 0.035290807
-2.7252851 1.3422225 0.042595237
-2.780144 1.3436723 0.0512155
-2.7437232 1.3309488 0.044762462
-2.71875 1.3328023 0.040994316
-2.7014337 1.3342733 0.03839308
-2.6620786 1.3295741 0.031981885
-2.6399724 1.3333066 0.028776199
-2.5578115 1.3440492 0.016667455
-2.5216708 1.3515029 0.011510462
-2.442874 1.3544984 -0.00055602193
-2.3910658 1.3605676 -0.0082351267
-3.8189721 -0.76144701 0.082071692
-3.8616357 -0.75951147 0.088825792
-3.9339032 -0.76949888 0.099443048
-3.8518496 -0.77115107 0.086581618
-3.7730696 -0.77058434 0.074366957
-3.6942897 -0.77001762 0.062152296
-3.6393516 -0.77684742 0.053185791
-3.5900874 -0.76976556 0.045965105
-3.5539711 -0.76726323 0.040504515
-3.4653499 -0.76830757 0.026659638
-3.4283631 -0.7588858 0.021493226
-3.3856645 -0.75583863 0.01504302
-3.3397622 -0.76497591 0.0073382556
-3.3069541 -0.76523745 0.0022205412
-3.2248831 -0.76439828 -0.010488927
-3.1510615 -0.76884973 -0.022244096
-3.1444876 -0.76655996 -0.023124158
-3.070684 -0.77350277 -0.03503117
-3.0484746 -0.7658692 -0.038010746
-3.025506 -0.76794648 -0.041711181
-2.9787397 -0.77184629 -0.049225152
-2.9853394 -0.77488256 -0.048387438
-3.0438566 -0.81242371 -0.041618675
-3.0579557 -0.83469772 -0.040809035
-3.1369975 -0.87263525 -0.030873477
-3.179661 -0.87069976 -0.024119377
-3.2190509 -0.87098306 -0.018012077
-3.3018544 -0.97646058 -0.01168412
-3.3836465 -0.93743753 0.0034564137
-3.4131634 -0.9369036 0.0080792904
-3.5444469 -1.0490193 0.021533519
-3.6247334 -1.0886161 0.031559646
-3.6194005 -1.088858 0.030715376
-3.5421138 -1.0681232 0.019984841
-10.633018 0.31302267 1.2083149
-10.639769 0.23092079 1.204268
-10.630063 0.15464348 1.198024
-10.54281 0.25212848 1.1905084
-10.505756 0.31157726 1.1884367
-10.506886 0.35228783 1.1911395
-10.504667 0.39072376 1.1931806
-10.505796 0.43143433 1.1958833
-10.506216 0.43171865 1.195966
-10.623429 0.51472527 1.2193446
-10.623052 0.63429803 1.2267084
-10.628218 0.67264992 1.2298924
-10.620337 0.71404105 1.2312365
-10.627714 0.8320803 1.2397108
-10.629429 0.95307487 1.2474883
-10.62892 0.83119923 1.2398436
-10.649427 0.7864843 1.2402568
-10.350928 1.5135019 1.2389715
-10.466217 1.510638 1.2567205
-10.54933 1.3749652 1.2612222
-10.578671 1.3676932 1.2653332
-10.61808 1.3597727 1.2709693
-10.62145 1.354574 1.2711709
-10.624823 1.3493757 1.2713723
-10.657605 1.3144855 1.2743042
-10.659671 1.2668102 1.2716658
-10.635681 1.3117092 1.2707226
-10.503273 1.3633897 1.253342
-10.460518 1.3690357 1.2470443
-10.427828 1.3740327 1.2422714
-10.385073 1.3796785 1.2359736
-10.312991 1.3876143 1.2252581
-10.27029 1.3758223 1.2178862
-10.220823 1.3819005 1.2105718
-10.145433 1.3751061 1.1984272
-10.106001 1.3905001 1.1932514
-10.073313 1.3954971 1.1884787
-10.027247 1.3864126 1.1807519
-9.9878788 1.3818779 1.1743487
-10.03058 1.3936696 1.1817205
-10.069941 1.4006956 1.188277
-10.109356 1.3902836 1.1937597
-10.190838 1.3937283 1.2066435
-10.224154 1.3891578 1.2115402
-10.263548 1.3862193 1.2174833
-10.348658 1.5019736 1.2379029
0.27297592 1.3815155 -0.4211781
0.31240368 1.3841422 -0.4271459
0.34869909 1.3864551 -0.43264604
0.39418697 1.3697755 -0.44075453
0.27929354 1.3871255 -0.42181224
0.31558847 1.3894386 -0.42731231
0.3912344 1.3869035 -0.43923223
-0.020559788 -1.5358171 -0.55662894
0.10383558 -1.5422606 -0.57637167
0.21277285 -1.5303383 -0.59257066
0.094565868 -1.5307429 -0.57421529
-0.023640633 -1.5311472 -0.55585998
-0.029855251 -1.5267909 -0.55462325
-0.069308758 -1.531909 -0.54880613
-5.1267381 1.3898222 0.41896233
-5.1871696 1.3777692 0.42761081
-5.3020172 1.3771365 0.44542977
-5.3447046 1.3790779 0.45218787
-5.2954197 1.3726616 0.44412613
-5.17729 1.368566 0.42550334
-5.1137137 1.3709812 0.41576755
-5.0347767 1.3939703 0.40492031
-5.0195694 1.3946617 0.40259856
-5.0261836 1.3966448 0.40375018
-5.0589066 1.4018395 0.40916082
-5.0688367 1.403569 0.41081232
-5.1082754 1.3957994 0.41646245
-8.9699297 -0.94437051 0.87166131
-8.9688902 -0.86348987 0.87652034
-8.958005 -0.78249753 0.87985533
-8.9676752 -0.74448591 0.88371861
-8.9848289 -0.70308995 0.88895559
-9.0126667 -0.66123712 0.89588219
-8.9799147 -0.63631123 0.89233679
-8.9116898 -0.57343906 0.88563091
-8.8334827 -0.53732026 0.87571234
-8.8170395 -0.5382899 0.87309533
-8.6763821 -0.46044901 0.8560558
-8.6753082 -0.40296471 0.85945714
-8.6528044 -0.34133548 0.85978365
-8.6519051 -0.32197466 0.86084557
-8.6528387 -0.3030698 0.86216426
-8.6789122 -0.19909912 0.87267256
-8.6546412 -0.20113626 0.86877209
-8.6509495 -0.20109433 0.86820072
-8.5814323 -0.22557101 0.85587168
-8.5747204 -0.22513846 0.854855
-8.5713654 -0.22492218 0.85434663
-8.4665489 -0.2307438 0.8376869
-8.4403954 -0.27610186 0.83080459
-8.4462662 -0.29378447 0.83061987
-8.4439945 -0.35354218 0.82655716
-8.4440575 -0.37347171 0.82532978
-8.4835672 -0.4137767 0.82897139
-8.5052691 -0.45257837 0.82993728
-8.5257912 -0.5338248 0.82808495
-8.5464249 -0.54918337 0.83034003
-8.5794048 -0.64635116 0.82943648
-8.5851746 -0.70086271 0.82694983
-8.6075802 -0.78082955 0.82546979
-8.6227827 -0.84879386 0.8236149
-8.6054964 -0.90037429 0.81772506
-8.5877028 -0.93540257 0.81278384
-8.5937634 -1.0128709 0.80891734
-8.5693998 -1.0923064 0.80019802
-8.5808525 -1.1047134 0.80120873
-8.6202765 -1.1176164 0.80653793
-8.6495943 -1.117415 0.81110919
-8.7285042 -1.1631496 0.82054031
-8.7679367 -1.1785436 0.82571614
-8.8487301 -1.2229986 0.83551955
-8.8850346 -1.3419676 0.83377957
-8.7823505 -1.4932871 0.8084197
-8.7429581 -1.4903486 0.80247682
-8.7021408 -1.4925206 0.79599524
-8.6249218 -1.5263729 0.7818867
-8.6101685 -1.5311873 0.77929378
-8.5822449 -1.545638 0.77405477
-8.5328093 -1.5495241 0.76612651
-8.4640675 -1.5368224 0.75622606
-8.4540157 -1.5411558 0.75439417
-8.4146633 -1.5506729 0.74768424
-8.345953 -1.5479357 0.7371701
-8.2604961 -1.5540817 0.72350049
-8.2870016 -1.6563361 0.72127444
-8.2968788 -1.6664121 0.7221849
-8.3395958 -1.6596024 0.72924984
-8.3518887 -1.6547601 0.73146182
-8.4691553 -1.6584051 0.74946988
-8.5331869 -1.6690967 0.75876272
-8.5725555 -1.664562 0.76516593
-8.608593 -1.6672843 0.77060044
-8.7367744 -1.6568196 0.7911815
-8.7761669 -1.6597583 0.79712439
-8.7777338 -1.6595979 0.79737806
-8.8155518 -1.6602056 0.80322075
-8.819519 -1.6550131 0.80416
-8.890626 -1.553767 0.82150161
-8.9693718 -1.5471885 0.83415455
-9.0087242 -1.5376716 0.84086442
-9.1548576 -1.5420008 0.86331856
-9.1729984 -1.5473671 0.86580622
-9.1951284 -1.5401454 0.86969554
-9.2910967 -1.5312715 0.88516897
-9.3569012 -1.5373573 0.89502335
-9.2706223 -1.496521 0.88414234
-9.2570581 -1.4972343 0.88198906
-9.1456451 -1.4598708 0.86698431
-9.2206011 -1.295082 0.88886881
-9.3001966 -1.2255151 0.90556377
-9.3075495 -1.2156346 0.9073205
-9.3393526 -1.1537206 0.91610897
-9.3736334 -1.0968169 0.92497176
-9.3751373 -1.0767277 0.92645276
-9.3717194 -1.0565827 0.92717159
-9.328908 -1.0334991 0.92194766
-9.2861595 -1.0303445 0.91549641
-9.2073755 -1.0244673 0.90361071
-9.1285353 -1.0011526 0.89279878
-9.0925064 -1.0009215 0.88721085
-2.9803329 1.3494573 0.082702816
-2.9376693 1.3475215 0.075948745
-2.9737332 1.3524933 0.081865102
-2.9411066 1.0928905 0.060676932
-2.9458256 1.0927165 0.061399937
-2.8997967 1.1310542 0.056622505
-2.8965056 1.1313264 0.056127697
-2.9010625 1.1260624 0.056509495
-10.50676 0.39214557 1.1935942
-8.8618183 -0.29626462 0.89508182
-8.8607073 -0.30116177 0.8946051
-8.8557682 -0.29612362 0.89414996
-5.4306798 1.4058359 0.46721756
-5.4658465 1.4277637 0.47404695
-5.4986539 1.4205022 0.47869754
-5.5380244 1.4226978 0.48495576
-5.5840101 1.4268768 0.49236572
-5.6727686 1.406281 0.50488859
-5.7385335 1.3835962 0.51370656
-5.8173933 1.3705482 0.52515882
-5.7747574 1.3611326 0.51794469
-5.6499453 1.3650186 0.49877834
-5.6137381 1.3849907 0.4943881
-5.5742493 1.4002342 0.48919404
-5.5347428 1.4179692 0.4841519
-5.4560847 1.4011211 0.47087523
-5.3840585 1.3837652 0.45859814
-4.6476154 -1.444783 0.16850285
-4.5259795 -1.4187465 0.15120541
-4.514761 -1.4562836 0.14713086
-4.4871302 -1.4956963 0.14038789
-4.5658236 -1.4838059 0.1533623
-4.6085916 -1.4968188 0.15920474
-4.6118827 -1.4970912 0.15969957
-4.6512551 -1.4948832 0.16595884
-4.6873713 -1.4973855 0.17141935
-4.7284117 -1.4999232 0.17764334
-4.7727337 -1.498497 0.18462367
-4.8153625 -1.4915788 0.19168167
-4.8186536 -1.4918512 0.19217652
-4.8941946 -1.4996197 0.2034405
-4.8450017 -1.5084845 0.19524099
-4.8056116 -1.5082011 0.18913364
-4.7661867 -1.5029349 0.18333018
-3.7796168 -0.76614642 0.075660497
-3.7369008 -0.76060784 0.069362223
-4.164958 1.3930027 0.26960841
-4.1682663 1.390239 0.26995125
-4.2043476 1.3927193 0.27571568
-3.2100036 1.3607585 0.11911686
-3.2526846 1.3602028 0.12571901
-3.3347032 1.3668377 0.13888432
-3.3503132 1.3622403 0.14102618
-3.3535867 1.3644593 0.14167294
-3.4345496 1.4037371 0.15670037
-3.5411079 1.424397 0.17455207
-3.458967 1.4352019 0.16245033
-3.4229901 1.4177728 0.15577421
-3.3837049 1.4031079 0.14875525
-3.2984996 1.3817971 0.13418347
-3.2625053 1.3668594 0.12765931
-3.2231154 1.3671429 0.12155199
-3.1739047 1.3607695 0.11350437
-3.1772654 1.3505316 0.1133914
-2.6723046 -0.80624688 -0.099009484
-2.674016 -0.84513831 -0.10115761
-2.6674676 -0.96467185 -0.10959589
-2.7805221 -1.0591581 -0.097881794
-2.8234296 -1.0921019 -0.093254954
-2.916954 -1.0860473 -0.078336567
-2.9763181 -1.1263345 -0.071606636
-2.9912462 -1.1488632 -0.070683837
-2.9903457 -1.1669965 -0.071949512
-2.9822977 -1.2800895 -0.080221206
-2.9842265 -1.2912983 -0.08061707
-2.87199 -1.2864263 -0.097766787
-2.8246679 -1.2689905 -0.10404277
-2.7941916 -1.2535748 -0.10782471
-2.7423353 -1.2307805 -0.1144731
-2.7363255 -1.2279773 -0.1152336
-2.62063 -1.1947784 -0.13116276
-2.6175225 -1.1878366 -0.13121507
-2.5763116 -1.1287161 -0.13395318
-2.538142 -1.1042848 -0.1383718
-2.5229533 -1.0643679 -0.13825569
-2.5171995 -0.98461974 -0.13420001
-2.5160673 -0.94693506 -0.13203675
-2.5078509 -0.86717826 -0.12836343
-2.521795 -0.78749847 -0.12124905
-2.5381584 -0.78646368 -0.11864039
-2.6793725 -0.73944861 -0.093763977
-10.663698 1.2270529 1.269824
-10.677707 1.1847246 1.2693748
-10.675371 1.1448951 1.2665391
-10.662033 1.1077924 1.2621621
-10.659279 1.0676785 1.2592437
-10.654482 1.0278769 1.2560272
-10.658644 0.98566049 1.2540538
-10.639532 1.1545537 1.261566
-10.627476 1.0749784 1.2547517
-4.7701888 -1.0196588 0.21395195
-4.7329893 -0.977786 0.21076691
-4.7280307 -0.97276783 0.21030742
-4.6573434 -0.95506918 0.20041452
-1.7905164 -1.6389277 -0.28781134
-1.8363237 -1.6397033 -0.28073668
-1.8661044 -1.6388822 -0.27605504
-1.9055526 -1.6440023 -0.27023888
-1.9183476 -1.6427879 -0.26817393
-1.9545648 -1.645097 -0.26268572
-1.9594979 -1.6191428 -0.26030755
-2.0715361 -1.5284028 -0.23725355
-2.0385501 -1.5289044 -0.24241382
-1.9171553 -1.5281745 -0.26124471
-1.8682208 -1.5345545 -0.2692498
-1.7956827 -1.5199697 -0.27962369
-1.7593877 -1.5101857 -0.28465998
-1.6019053 -1.5196044 -0.30973232
-1.483664 -1.5142107 -0.32778335
-1.4284225 -1.5299184 -0.3373481
-1.3890262 -1.5297815 -0.34346551
-1.2441316 -1.5180532 -0.36526781
-1.1558523 -1.5292795 -0.37969154
-1.1132765 -1.5313147 -0.38643825
-1.0738797 -1.5311779 -0.39255565
-0.95569038 -1.5307672 -0.41090792
-1.0450583 -1.6241879 -0.40281087
-1.084403 -1.6193416 -0.39639217
-1.1633773 -1.6370566 -0.38521177
-1.1994648 -1.6269078 -0.37897038
-1.2036467 -1.6266141 -0.37830192
-1.2718735 -1.6290348 -0.36784327
-1.314527 -1.634474 -0.36154854
-1.3784685 -1.6272216 -0.35115576
-1.3900628 -1.6294453 -0.34949094
-1.4196105 -1.6295478 -0.34490287
-1.442307 -1.6333511 -0.34160978
-1.4752924 -1.6328493 -0.33644956
-1.5114839 -1.6326668 -0.33081067
-1.5409794 -1.6277864 -0.32592136
-1.5532908 -1.6278292 -0.3240096
-1.5999446 -1.6388818 -0.31744134
-1.6360579 -1.6312246 -0.31135058
-1.7085702 -1.6433177 -0.30082601
-1.760658 -1.6322739 -0.29204112
-10.059231 -1.5823452 1.0014391
-10.039814 -1.6693099 0.99302143
-10.09882 -1.6475611 1.0035467
-10.138205 -1.6480087 1.0096428
-7.9387236 -1.555052 0.67340648
-8.0141535 -1.5607128 0.684784
-8.099618 -1.5570579 0.69830006
-8.024188 -1.5513971 0.68692261
-7.9420719 -1.5527772 0.67406833
-7.8239102 -1.5489439 0.65593278
-7.7811852 -1.5532622 0.64902127
-7.82057 -1.5537097 0.65511763
-10.539448 0.58686286 1.2107639
-10.498201 0.63109058 1.2070959
-10.505571 0.63598889 1.2085459
0.41918325 -1.5287242 -0.62456614
0.45550394 -1.5239196 -0.6299156
0.45239687 -1.5217414 -0.62929726
-3.6126721 -0.83395451 0.045492351
-3.5732996 -0.83616257 0.039233088
-3.4727812 -0.89522976 0.019936442
-3.1842134 -1.520952 -0.063776046
-3.0715814 -1.6064634 -0.0865978
-2.9806635 -1.516499 -0.095150471
-2.9150302 -1.5145307 -0.10523388
-2.8591678 -1.5103936 -0.11366338
-2.7935867 -1.5158994 -0.12420261
-2.7804227 -1.5148096 -0.1261819
-2.7379935 -1.5229359 -0.13328382
-2.7018282 -1.52561 -0.13907334
-2.6720476 -1.5264311 -0.14375502
-2.6360965 -1.5247316 -0.14923972
-2.5442164 -1.5225708 -0.16339242
-2.6229846 -1.531116 -0.15167487
-2.6500826 -1.533802 -0.14762798
-2.6771636 -1.5339968 -0.14342916
-4.880455 1.4023054 0.38144162
-4.9166417 1.3898375 0.38629442
-4.877182 1.4000866 0.38079488
-4.798419 1.3981619 0.36842826
-5.0487566 -1.4990215 0.22751117
-5.0911274 -1.4985452 0.2341291
-5.133791 -1.4966094 0.24088322
-5.2030749 -1.5026754 0.25127995
-5.1239877 -1.5057578 0.23879097
-5.0813236 -1.5076933 0.23203687
-5.0357666 -1.5106573 0.22476901
-4.9631715 -1.5093346 0.21356298
-4.7635098 -1.1793319 0.20300172
-4.764533 -1.1786385 0.2032038
-4.7428274 -1.0946974 0.20503941
-4.766181 -1.032335 0.21254191
-4.7306228 -1.1095572 0.20221923
-4.6121216 -1.0613706 0.18678412
-4.5322237 -1.1375275 0.16963303
-4.5243053 -1.1795733 0.16579175
-4.4516716 -1.1172667 0.15836529
-4.4531512 -1.0937347 0.16005616
-4.4513922 -1.0774045 0.16079636
-4.466845 -1.0595793 0.16430566
-4.5248127 -1.0156511 0.17604615
-4.5362134 -1.001283 0.17871082
-4.3401237 -1.5925441 0.11151735
-4.3178096 -1.5699623 0.10944942
-4.3398271 -1.5501907 0.11410034
-3.4958854 -1.500524 -0.014044732
-3.3750951 -1.536495 -0.035059839
-3.2958014 -1.5212574 -0.046443701
-3.2565157 -1.5359222 -0.053462714
-3.859257 -1.3593912 0.051218331
-3.837162 -1.2498654 0.054581493
-3.8222859 -1.2348108 0.053202868
-3.7903862 -1.2495289 0.047329038
-3.744029 -1.3089857 0.036429942
-3.6123447 -1.3723137 0.012022704
-3.5837364 -1.3873043 0.0066437125
-3.5446076 -1.4243917 -0.0017427802
-3.4662113 -1.4786355 -0.017300159
-3.4254589 -1.4892884 -0.024298191
-3.387536 -1.4930172 -0.030426443
-3.3053954 -1.4822123 -0.042528182
-3.2692614 -1.4772187 -0.04783681
-3.1941051 -1.4091651 -0.055298746
-3.1875377 -1.4085574 -0.056282222
-3.1076858 -1.4905064 -0.073785722
-3.0691249 -1.4904778 -0.079779923
-3.0331132 -1.5029237 -0.086152166
-3.5746131 -1.4936166 -0.0013742745
-3.5902135 -1.4939777 0.001029104
-3.6134067 -1.4968075 0.0044598579
-3.6535153 -1.5116231 0.0097768307
-3.6929054 -1.5119064 0.015884161
-3.7812617 -1.4709369 0.032166272
-3.8716536 -1.3719367 0.052367151
-2.8917148 1.3458583 0.068699837
-2.8589242 1.3431056 0.06343019
-2.9015529 1.3500237 0.070488155
-5.8994684 1.3721943 0.53802317
-5.8567986 1.3677614 0.53111309
-5.8600974 1.3699987 0.53176492
0.29160357 -1.5275772 -0.60465699
0.37043381 -1.5248159 -0.61674333
0.29781771 -1.5319335 -0.60589373
-2.9117916 -1.5217323 -0.10618451
-2.9052095 -1.5211874 -0.10717416
-2.8658543 -1.5258868 -0.11358538
-2.7837834 -1.5250478 -0.12629485
-2.7476351 -1.5263854 -0.13199875
-2.7444303 -1.5260663 -0.13247728
-9.341403 1.3840613 1.0739611
-9.3808041 1.3786316 1.0797507
-9.4168329 1.3784003 1.0853386
-9.4888992 1.375447 1.0963612
-9.4100418 1.403744 1.085856
-9.367239 1.4243362 1.0804785
-9.2884865 1.420249 1.0679791
-9.2131271 1.4034898 1.055221
-9.1901112 1.3939655 1.0510509
-9.177146 1.3887744 1.0487126
-9.1444883 1.3838072 1.0433261
-9.0623951 1.3749537 1.0300117
-8.9836178 1.3783398 1.0179724
-8.9308338 1.372179 1.0093822
-8.976922 1.37379 1.0166488
-2.3930409 -1.5226618 -0.18690503
-2.3409786 -1.5361972 -0.1958406
-2.2653911 -1.5362427 -0.20759684
-2.2749031 -1.5272343 -0.2055586
-2.3472078 -1.5193946 -0.19382894
-2.371675 -1.5045307 -0.18910176
-2.4159963 -1.5046847 -0.18221962
-2.4258711 -1.5072105 -0.18084097
-2.5017443 -1.5345726 -0.17074162
-2.435591 -1.5181348 -0.1800077
-9.7712784 1.3793559 1.1405122
-9.8236675 1.3716445 1.1481798
-9.8500404 1.3809521 1.1528583
-9.8927631 1.3852706 1.1597695
-9.8567352 1.3855016 1.1541817
-9.833704 1.3809602 1.1503185
-8.655118 1.3827839 0.96716839
-8.6291246 1.3923309 0.96371919
-8.6651697 1.3871176 0.96900034
-8.7079258 1.3814716 0.97529817
-9.2919044 1.4001038 1.0672603
-9.2232418 1.3878946 1.0558257
-9.1805096 1.3860672 1.0490675
-9.1411486 1.3790412 1.042511
-9.5777264 1.3763945 1.1102321
-9.620451 1.380713 1.1171436
-9.574379 1.3741198 1.1095704
-9.5349941 1.374567 1.1034741
-5.8005309 -1.5156875 0.34337324
-5.7642207 -1.483166 0.33974597
-5.7535977 -1.487879 0.33780158
-9.8961201 1.3850543 1.1602781
-9.9254456 1.3827648 1.1646957
-9.9388599 1.3843906 1.1668828
-9.9091015 1.3852637 1.1623096
-9.9354963 1.3870981 1.1665277
-2.1045997 -1.5353758 -0.2325452
-2.1142154 -1.5363338 -0.23110944
-2.1109583 -1.5310313 -0.23128676
0 0 0 1 0 0 0 1 0 0 0 1 0 0 0 0 0 717 1 0 0
