ply
format ascii 1.0
comment PCL generated
element vertex 366
property float x
property float y
property float z
element camera 1
property float view_px
property float view_py
property float view_pz
property float x_axisx
property float x_axisy
property float x_axisz
property float y_axisx
property float y_axisy
property float y_axisz
property float z_axisx
property float z_axisy
property float z_axisz
property float focal
property float scalex
property float scaley
property float centerx
property float centery
property int viewportx
property int viewporty
property float k1
property float k2
end_header
-8.8973017 1.2543168 6.2331805
-8.909399 1.2947254 6.2099514
-8.9282761 1.2948931 6.1696301
-8.9432955 1.3095267 6.1384883
-8.9593449 1.3193065 6.1048307
-8.9749126 1.3090978 6.0709062
-8.9972763 1.2937981 6.022131
-9.0319099 1.2137403 5.9429412
-9.0444841 1.1745116 5.9135303
-9.0474262 1.0957096 5.9021344
-9.0553799 1.0156217 5.8799462
-9.0642977 0.97551072 5.8582921
-9.0682745 0.93546653 5.847198
-9.0831652 0.89596307 5.8128204
-9.0795183 0.85565162 5.8180003
-9.0822096 0.80865657 5.8092027
-9.0967541 0.75597227 5.7747097
-9.1101046 0.73579609 5.7448759
-9.1692991 0.85591662 5.6261878
-9.1919212 0.9163363 5.5817699
-9.1943207 0.93656361 5.5779557
-9.2280512 0.97625518 5.5084586
-9.271183 1.0569742 5.4215369
-9.290451 1.1369047 5.3855495
-9.3089447 1.1370245 5.3460441
-9.3239861 1.1367146 5.3138857
-9.3351793 1.1368805 5.2899804
-9.3443966 1.1370733 5.270299
-9.3600883 1.1373901 5.2367926
-9.3644238 1.1373843 5.2275286
-9.3964243 1.1370032 5.1591296
-9.4166145 1.1374707 5.1160221
-9.4372454 1.1377203 5.0719562
-9.4514036 1.137846 5.0417147
-9.4561224 1.1378881 5.0316343
-9.4652357 1.1376585 5.0121479
-9.5130558 1.1611563 4.9114976
-9.5508089 1.1614915 4.8308539
-9.57901 1.1678026 4.771008
-9.6108074 1.1748693 4.703526
-9.6258812 1.1762166 4.6714067
-9.6326323 1.1704218 4.6566067
-9.6476002 1.1667473 4.6243877
-9.6578732 1.1592346 4.6019516
-9.6728468 1.15802 4.5698786
-9.6920891 1.1613126 4.5289779
-9.7015581 1.1658421 4.5090413
-9.7172117 1.1784675 4.4764128
-9.723361 1.1782781 4.4632621
-9.7294035 1.173084 4.4500141
-9.7609367 1.1701143 4.3824468
-9.7705736 1.1728818 4.3620367
-9.8020105 1.1649163 4.2943497
-9.8238325 1.1604693 4.247437
-9.8457146 1.1585207 4.2005568
-9.8554516 1.1599991 4.1798477
-9.8615847 1.1607841 4.1667953
-9.8872585 1.1418856 4.1107125
-9.9198265 1.1016843 4.0385208
-9.9364023 1.1015474 4.0030947
-10.016136 1.160239 3.8365393
-10.032006 1.1625023 3.8027775
-10.063685 1.1645308 3.7352211
-10.076073 1.1710979 3.7091813
-10.098015 1.1716478 3.662334
-10.123441 1.1678942 3.607765
-10.135404 1.1569716 3.581496
-10.167265 1.1664957 3.5140378
-10.189086 1.1620485 3.4671252
-10.205258 1.1768048 3.433527
-10.236636 1.1663405 3.3658071
-10.252506 1.168604 3.3320453
-10.274559 1.181622 3.2857695
-10.275517 1.1817447 3.28373
-10.29631 1.1821475 3.2393301
-10.310969 1.1817653 3.207983
-10.318636 1.1827466 3.1916671
-10.334445 1.1825116 3.1578724
-10.350376 1.1872735 3.1241436
-10.364088 1.1820709 3.0945079
-10.369131 1.1824338 3.0837574
-10.38954 1.1827877 3.0401735
-10.408552 1.1814098 2.9994609
-10.419505 1.1771243 2.9757817
-10.441507 1.1801728 2.9289675
-10.473066 1.1772043 2.8613458
-10.484261 1.1829128 2.8377976
-10.497813 1.1830947 2.8088531
-10.51209 1.1826634 2.778322
-10.514892 1.1824574 2.7723207
-10.548388 1.1703385 2.6999643
-10.562584 1.1823508 2.6704123
-10.56767 1.1834252 2.6596167
-10.571017 1.1834301 2.6524649
-10.595939 1.1746304 2.5986462
-10.602011 1.1729169 2.5855608
-10.633872 1.1824409 2.5181024
-10.637321 1.1828824 2.5107603
-10.649621 1.1797074 2.4842753
-10.663719 1.1828735 2.4543581
-10.668941 1.1824125 2.4431715
-10.685457 1.1825501 2.4078903
-10.703243 1.1822857 2.3698716
-10.720385 1.1423687 2.3306587
-10.719214 1.0625138 2.3279798
-10.716713 1.022341 2.3307195
-10.715362 0.98231554 2.3310118
-10.717843 0.94278049 2.3231461
-10.718204 0.90212715 2.3197391
-10.724233 0.82178199 2.3016496
-10.723426 0.7095933 2.2960978
-10.722337 0.66461992 2.2955086
-10.717402 0.60895872 2.3024449
-10.721672 0.54248619 2.2890105
-10.724741 0.50387347 2.2799492
-10.722785 0.46391168 2.2815373
-10.728431 0.41133967 2.2660654
-10.733475 0.36715111 2.2524233
-10.720846 0.30326506 2.2752633
-10.719111 0.26319042 2.2763712
-10.723953 0.22644845 2.2636437
-10.723772 0.2189528 2.2635455
-10.722259 0.15648955 2.2627275
-10.723873 0.14424223 2.2584846
-10.729473 0.10214192 2.2437904
-10.732497 -0.017875686 2.2295465
-10.737135 -0.030441791 2.218822
-10.735259 -0.10789625 2.2178078
-10.720768 -0.15754032 2.2455511
-10.718892 -0.23499478 2.2445369
-10.713223 -0.29549924 2.2527249
-10.716472 -0.33493769 2.243228
-10.711287 -0.37545222 2.251678
-10.71032 -0.4154287 2.2511544
-10.707495 -0.45315367 2.2547426
-10.70419 -0.47472322 2.2604048
-10.703222 -0.5146997 2.259881
-10.705378 -0.54060221 2.253597
-10.707314 -0.55529898 2.2485063
-10.713538 -0.63745421 2.2298799
-10.70441 -0.67522848 2.2469356
-10.698381 -0.7145822 2.2572632
-10.69975 -0.77296555 2.2505538
-10.697632 -0.86041415 2.2494087
-10.699569 -0.87511098 2.2443173
-10.694317 -0.89298654 2.2543797
-10.690372 -0.91529369 2.2613616
-10.688416 -0.95525551 2.2629502
-10.693309 -0.99772859 2.2497416
-10.699924 -1.0771517 2.2304566
-10.69458 -1.134559 2.2381527
-10.692409 -1.1549954 2.2414682
-10.688919 -1.2202026 2.2446959
-10.677037 -1.3163732 2.2638474
-10.682941 -1.3627104 2.2482269
-10.665619 -1.4249386 2.2812033
-10.659389 -1.4373431 2.2937126
-10.647389 -1.4773198 2.3167582
-10.631762 -1.5169141 2.3475816
-10.616073 -1.511682 2.3814416
-10.593767 -1.5272232 2.4280927
-10.56239 -1.516759 2.4958124
-10.549943 -1.5258245 2.5218196
-10.518203 -1.5303515 2.5893431
-10.486765 -1.5223858 2.6570301
-10.455388 -1.5119216 2.7247505
-10.447218 -1.5179491 2.7418165
-10.432133 -1.5183272 2.774024
-10.424892 -1.5185481 2.7894793
-10.410599 -1.5171309 2.8201118
-10.39533 -1.5277778 2.8520429
-10.373267 -1.5333248 2.8988247
-10.354073 -1.5171667 2.9408841
-10.339328 -1.518207 2.972321
-10.327735 -1.5174323 2.9971414
-10.303957 -1.5306711 3.0470884
-10.288087 -1.5329347 3.0808501
-10.24979 -1.5557364 3.1611972
-10.212946 -1.5185734 3.2423298
-10.19173 -1.4891409 3.2895694
-10.153433 -1.5119426 3.3699169
-10.143272 -1.5309108 3.3903971
-10.127785 -1.5581744 3.4217193
-10.12603 -1.5582578 3.4254632
-10.110867 -1.5629216 3.4575605
-10.104673 -1.5662053 3.4705806
-10.088863 -1.5659703 3.504375
-10.051293 -1.5587895 3.585115
-10.00765 -1.5498954 3.6789403
-9.9761524 -1.5444282 3.7465949
-9.9541492 -1.5474766 3.7934093
-9.916337 -1.5502902 3.8740184
-9.900588 -1.5475566 3.9078457
-9.8628359 -1.5478716 3.9884875
-9.8470259 -1.5476364 4.0222816
-9.8252649 -1.5406909 4.0692272
-9.7902775 -1.5531056 4.1431794
-9.7745886 -1.5478735 4.1770391
-9.7557125 -1.5480312 4.2173595
-9.7432117 -1.5374094 4.2447591
-9.7213898 -1.5329622 4.2916722
-9.7022724 -1.5431142 4.3318615
-9.6863422 -1.5478762 4.3655901
-9.6674051 -1.5505319 4.405879
-9.6488323 -1.5381969 4.446363
-9.6389322 -1.5383996 4.4675016
-9.6234999 -1.5231727 4.5014625
-9.6152287 -1.5211751 4.5192637
-9.5933447 -1.5192263 4.5661488
-9.5555305 -1.52206 4.646759
-9.5474777 -1.5230629 4.6639018
-9.5268784 -1.5216714 4.7080054
-9.4981728 -1.5188042 4.7695241
-9.4810238 -1.5335454 4.8052087
-9.4578991 -1.5307759 4.8547978
-9.4042768 -1.5333954 4.9691987
-9.3662233 -1.5462234 5.049675
-9.3505945 -1.5385133 5.0835662
-9.3313103 -1.5340576 5.1250601
-9.2743053 -1.571665 5.2444186
-9.220623 -1.5767832 5.3587861
-9.2047548 -1.5790671 5.3925438
-9.1826296 -1.5871125 5.4392958
-9.1511927 -1.579188 5.506978
-9.1355648 -1.5714778 5.5408692
-9.1197557 -1.5712633 5.5746608
-9.0975103 -1.584306 5.6213455
-9.0755663 -1.5848556 5.6681976
-9.0441294 -1.5769311 5.7358804
-9.0221243 -1.5799794 5.7826991
-8.9906273 -1.5745534 5.850348
-8.9719915 -1.5647267 5.8908033
-8.9216185 -1.5594683 5.9987741
-8.8776083 -1.5655649 6.0924115
-8.8683567 -1.5470964 6.1133757
-8.8245878 -1.5431985 6.2071466
-8.7921715 -1.4861205 6.2801099
-8.7812786 -1.4459826 6.3059874
-8.7846327 -1.4043432 6.3015199
-8.7837372 -1.3648705 6.3059931
-8.7814445 -1.2854419 6.3160415
-8.7843256 -1.2452261 6.3124943
-8.786459 -1.1644276 6.3131738
-8.7791023 -1.1260324 6.3313818
-8.7883854 -1.0844736 6.3142424
-8.7819672 -0.96611106 6.3356314
-8.7860527 -0.84534883 6.334733
-8.7901869 -0.80456746 6.3285427
-8.7887087 -0.68627191 6.3393722
-8.797967 -0.60472262 6.3248782
-8.7937317 -0.48554233 6.3416548
-8.7929926 -0.42639354 6.3470697
-8.7934494 -0.36641562 6.3499827
-8.7944126 -0.32643861 6.3505168
-8.7958574 -0.2664721 6.3513193
-8.7980165 -0.22566393 6.3493519
-8.806078 -0.14494577 6.3373604
-8.8117743 -0.10588033 6.327724
-8.8109694 -0.065031961 6.3320928
-8.7804127 0.053700775 6.4050798
-8.7930841 0.095170975 6.3806934
-8.8076992 0.12746462 6.3515601
-8.8147469 0.21484736 6.3421698
-8.8085852 0.25407365 6.3578768
-8.8077803 0.29492202 6.3622456
-8.8009052 0.35330561 6.3807211
-8.800581 0.41414252 6.3853579
-8.7943954 0.49335918 6.4037113
-8.7946033 0.49420378 6.4033213
-8.8073444 0.5357157 6.3787899
-8.7935162 0.65417874 6.4160185
-8.7913065 0.69335151 6.4232779
-8.7941961 0.81328249 6.424881
-8.795392 0.81411374 6.4223804
-8.80054 0.81489134 6.4114313
-8.8168812 0.81583464 6.3765764
-8.8291931 0.8145026 6.3501849
-8.8408422 0.81349719 6.3252306
-8.8854866 0.85372901 6.23245
-8.8925104 1.0144414 6.2278624
-8.8964128 1.0943687 6.2247071
-8.8912401 1.1335815 6.2383027
-8.8943872 1.1743762 6.2342238
-8.9880285 -0.30313733 5.9383421
-8.9721451 -0.18295167 5.9800725
-8.9691563 -0.14292106 5.9890547
-8.9769764 -0.10277225 5.974947
-8.9781294 0.024415702 5.980732
-8.9593744 0.15628985 6.0293546
-8.9000731 0.17756596 6.1574392
-8.877737 0.097253263 6.1999574
-8.8812199 0.045682579 6.1891713
-8.8720455 -0.02248089 6.2043533
-8.8742676 -0.06260702 6.1970038
-8.8741322 -0.099989951 6.19487
-8.873951 -0.10748565 6.1947699
-8.8780737 -0.18252297 6.1810961
-8.873208 -0.3024272 6.1837173
-8.8826323 -0.36254114 6.1596842
-8.8688498 -0.44233435 6.1839581
-8.8748274 -0.52239561 6.1659942
-8.9091091 -0.60367388 6.0874763
-8.9166574 -0.72206604 6.0636716
-8.8730259 -0.80230176 6.1516943
-8.8751011 -0.96229017 6.1368847
-8.8635998 -1.0824751 6.1536674
-8.8801365 -1.1635586 6.1130767
-8.9222059 -1.3230517 6.0128474
-8.9640293 -1.2013928 5.9313755
-9.0044546 -1.0425421 5.8553019
-9.0099401 -1.0424047 5.8435888
-9.0888662 -1.0429456 5.6749177
-9.0763302 -0.92275238 5.7094955
-9.0796032 -0.80277371 5.7102823
-9.0632238 -0.76277328 5.7478733
-9.0373564 -0.64287573 5.8109174
-9.0316086 -0.63529962 5.8236895
-8.9945879 -0.52317274 5.9100595
-8.9656057 -0.52277958 5.9720097
-8.9645634 -0.52281839 5.9742341
-8.9811869 -0.42301479 5.9451871
-8.9843225 -0.3431831 5.9436641
-8.9865589 -0.32311347 5.9401865
-9.5748348 0.338065 4.7261286
-9.5251999 0.37788096 4.8347616
-9.5008621 0.33758554 4.88415
-9.5162697 0.17789289 4.8408747
-9.553256 0.17813262 4.7618642
-10.295337 -0.41659728 3.1377444
-10.259885 -0.41661787 3.2134914
-10.246111 -0.41668689 3.2429163
-10.223182 -0.43672645 3.2906084
-10.199868 -0.55700958 3.3326216
-10.2353 -0.6366967 3.2517486
-10.254176 -0.63653922 3.2114277
-10.295316 -0.59650284 3.1261239
-10.318102 -0.95621192 3.0541131
-10.284788 -0.83640122 3.1330628
-10.325645 -0.67627835 3.0561471
-10.39655 -0.67623723 2.9046531
-10.391669 -0.79613733 2.9073067
-10.373217 -0.87622821 2.94154
-10.335223 -0.95613801 3.0175362
-10.579626 0.98329306 2.6210921
-10.652123 0.98325562 2.4661899
-10.612799 0.82332909 2.5398426
-10.333959 0.3831391 3.1070795
-10.358803 0.30322608 3.0488143
-10.311392 0.1832464 3.1423354
-10.279812 0.34313175 3.2201765
-10.553429 0.58339024 2.6511371
-10.520376 0.503407 2.7165723
-10.497931 0.50335729 2.7645259
-10.467723 0.66327703 2.8394394
-10.485045 0.70322943 2.8050177
-10.521849 0.74327564 2.7289782
-10.372699 0.50313818 3.0320878
-10.289332 0.50333714 3.2102239
-10.323574 0.62318408 3.1448317
-9.050333 -1.1629492 5.7494683
-9.0985126 -1.28307 5.6387367
-9.030262 -1.3476046 5.7803798
-10.40047 0.82325482 2.9935083
-10.413757 0.70313931 2.9573276
-10.343036 0.66326892 3.1058502
-10.347674 0.82327306 3.106313
0 0 0 1 0 0 0 1 0 0 0 1 0 0 0 0 0 366 1 0 0
