ply
format ascii 1.0
comment PCL generated
element vertex 828
property float x
property float y
property float z
element camera 1
property float view_px
property float view_py
property float view_pz
property float x_axisx
property float x_axisy
property float x_axisz
property float y_axisx
property float y_axisy
property float y_axisz
property float z_axisx
property float z_axisy
property float z_axisz
property float focal
property float scalex
property float scaley
property float centerx
property float centery
property int viewportx
property int viewporty
property float k1
property float k2
end_header
-10.821402 0.31719857 0.83452159
-10.828463 0.35744989 0.83304983
-10.831417 0.43674999 0.82629925
-10.83495 0.47204989 0.82407397
-10.826549 0.55917114 0.81256431
-10.819546 0.59840494 0.80624968
-10.822676 0.66599685 0.80071062
-10.811439 0.58262473 0.8049503
-10.75058 0.50434494 0.79125005
-10.73648 0.46224272 0.79043013
-10.731252 0.3828966 0.79638618
-10.799623 0.26542473 0.83195323
-10.814751 0.30535185 0.8333481
-0.3328371 -1.5091469 -2.6722639
-0.32395601 -1.478092 -2.6784353
-0.32977438 -1.4383342 -2.6802955
-0.3378706 -1.3985149 -2.681361
-0.32813311 -1.3468015 -2.6898625
-0.33913183 -1.35888 -2.6848109
-0.4554677 -1.4285426 -2.6370826
-0.46647596 -1.4406085 -2.6320286
-0.57246113 -1.498605 -2.5890841
-0.65476131 -1.5127156 -2.5587742
-0.59150743 -1.523499 -2.5799453
-0.54542494 -1.515794 -2.5968976
-0.5089035 -1.5192976 -2.6093891
-0.49791718 -1.5202558 -2.6131558
-0.43578386 -1.5287817 -2.634155
-0.39008188 -1.5086901 -2.6521902
-0.38021517 -1.5073907 -2.6557853
-0.34266376 -1.5104756 -2.6686797
-10.83687 1.3593447 0.73759907
-10.820673 1.3611131 0.7317329
-10.784733 1.3727648 0.71795744
-10.692003 1.3762136 0.68502933
-10.665611 1.3742499 0.67594689
-10.6455 1.3742206 0.6688816
-10.602911 1.3740256 0.65393275
-10.60919 1.3759596 0.65594989
-10.847586 1.3160384 0.74561864
-10.84568 1.3259048 0.74397987
-10.846933 1.2751853 0.74940175
-10.850416 1.2336841 0.75470191
-10.762221 1.3083041 0.7163772
-10.720396 1.3455124 0.69802338
-7.1380911 -1.5542116 -0.27615538
-7.0845175 -1.6540401 -0.28517857
-7.0790663 -1.6319067 -0.28926826
-6.9923739 -1.5575292 -0.32704136
-6.909255 -1.5678842 -0.35523614
-6.8265681 -1.5658486 -0.38449597
-6.7542281 -1.552639 -0.41121703
-6.6984882 -1.5361676 -0.43242443
-6.5831771 -1.5402348 -0.47255063
-6.5347567 -1.5256655 -0.49099886
-6.4611773 -1.5234227 -0.51707834
-6.4404263 -1.5313234 -0.52359521
-6.4232554 -1.5331149 -0.52945387
-6.4102521 -1.532418 -0.53409231
-6.3417449 -1.515203 -0.55985969
-6.3131595 -1.5075889 -0.57065392
-6.2767334 -1.5084798 -0.58336812
-6.2387099 -1.525604 -0.59504944
-6.2061396 -1.5228624 -0.60676557
-6.1570215 -1.5247355 -0.62384385
-6.1393371 -1.5293081 -0.62960994
-6.1305265 -1.5269091 -0.63294202
-6.0941849 -1.5253227 -0.64586997
-6.0478282 -1.5249307 -0.66220033
-6.0203075 -1.525624 -0.67180437
-6.001472 -1.524539 -0.67853051
-5.9838781 -1.5264535 -0.68452579
-5.9376206 -1.5235887 -0.70106417
-5.9011917 -1.5244179 -0.71378565
-5.8647623 -1.5252473 -0.72650707
-5.8391199 -1.5340369 -0.73465562
-5.8028622 -1.5299728 -0.74779743
-5.7565064 -1.5295811 -0.76412761
-5.7021861 -1.5392606 -0.78226757
-5.6738925 -1.5251248 -0.79359967
-5.6833072 -1.5095699 -0.79181868
-5.7108221 -1.5093684 -0.78216833
-5.7197366 -1.5087404 -0.77909708
-5.7560797 -1.5103891 -0.76616263
-5.8361602 -1.5181046 -0.73726082
-5.9329824 -1.4158609 -0.71327525
-5.9181075 -1.3513911 -0.7248351
-5.9160662 -1.338063 -0.7268616
-5.9248319 -1.1531841 -0.74193972
-5.8857493 -1.1405119 -0.7569198
-5.8593621 -1.1360517 -0.7666316
-5.7692013 -1.1002531 -0.80183434
-5.7488933 -1.0924973 -0.80973339
-5.7167783 -1.0398214 -0.82619387
-5.7267928 -1.0386267 -0.82279164
-5.7860031 -0.8509376 -0.82041705
-5.7430744 -0.83966374 -0.83661157
-5.7336011 -0.83794188 -0.84011
-5.7237544 -0.83418161 -0.8439399
-5.7213802 -0.77555192 -0.85053301
-5.7262764 -0.75985396 -0.85035414
-5.7456675 -0.76532185 -0.84300208
-5.7818375 -0.77192664 -0.82964146
-5.8087225 -0.76926512 -0.82045436
-5.8625531 -0.74014181 -0.80439621
-5.9455032 -0.73468745 -0.77577937
-6.0006723 -0.75951624 -0.75395173
-6.0274448 -0.75896418 -0.74459684
-6.0526938 -0.76823622 -0.73481256
-6.1284065 -0.79910928 -0.70517123
-6.1734247 -0.81294096 -0.68799126
-6.2046514 -0.81709385 -0.6766088
-6.2572646 -0.80648756 -0.65915978
-6.3273258 -0.78674459 -0.63647628
-6.3308144 -0.78500438 -0.63542104
-6.3743334 -0.77658528 -0.62095338
-6.4045372 -0.75856501 -0.61210823
-6.4507952 -0.76142979 -0.59556979
-6.5691333 -0.78493834 -0.55167133
-6.5951295 -0.7977612 -0.54127562
-6.6679878 -0.79610252 -0.51583266
-6.6931486 -0.81678027 -0.50495905
-6.6666908 -0.83327341 -0.5126375
-6.6302619 -0.83410287 -0.52535897
-6.6036611 -0.83862638 -0.53426337
-6.5574031 -0.83576155 -0.55080187
-6.4809365 -0.8159796 -0.57961887
-6.4452996 -0.83101189 -0.59066683
-6.4284592 -0.83086133 -0.59660017
-6.4088736 -0.83190292 -0.6033811
-6.3654284 -0.8362143 -0.61822623
-6.3360224 -0.83368486 -0.62880939
-6.3191714 -0.83334947 -0.63476455
-6.2519183 -0.81703079 -0.66000319
-6.190403 -0.8347711 -0.67988008
-6.1002502 -0.84823799 -0.71024132
-6.0306211 -1.0181975 -0.71801889
-6.0529003 -1.0969253 -0.7024563
-6.0579395 -1.1782495 -0.69269764
-6.1393628 -1.2431148 -0.65771067
-6.1858797 -1.2385454 -0.64181131
-6.2890868 -1.2231886 -0.60704774
-6.322618 -1.2162488 -0.595945
-6.3965154 -1.1761732 -0.5739103
-6.4677467 -1.2537864 -0.54125315
-6.5141768 -1.292347 -0.52114797
-6.5233431 -1.3395916 -0.51328623
-6.5250316 -1.3803949 -0.50868505
-6.5551052 -1.4725776 -0.48906177
-6.662837 -1.5146945 -0.44706309
-6.7380753 -1.5340147 -0.41872329
-6.8173451 -1.5448079 -0.38980401
-6.8802023 -1.5444112 -0.36775213
-6.9264598 -1.547276 -0.35121363
-6.9827185 -1.5488789 -0.33128425
-6.9991455 -1.5505733 -0.32534471
-8.8009119 -0.81395817 0.23552978
-8.7963428 -0.84976709 0.23744112
-8.7948666 -0.88941705 0.24081653
-8.7927666 -0.90117133 0.24123323
-8.7759876 -0.96904039 0.24200207
-8.7891541 -1.0240088 0.25202852
-8.7882986 -1.0915544 0.25836223
-8.7903185 -1.1673374 0.26651543
-8.787797 -1.1825163 0.26712006
-8.7923231 -1.2484887 0.27519065
-8.7772875 -1.41801 0.28655666
-8.7706337 -1.4602048 0.28836262
-8.6493702 -1.5514331 0.25470543
-8.6028671 -1.5534258 0.23855758
-8.5663738 -1.556643 0.22604817
-8.4769115 -1.5687435 0.1957956
-8.4040165 -1.5726998 0.17056555
-8.384182 -1.5652947 0.16286737
-8.3546143 -1.5492308 0.15089816
-8.2453175 -1.5539262 0.11294729
-8.3624325 -1.6619573 0.16471779
-8.3816757 -1.6583946 0.17113072
-8.4532003 -1.6654198 0.19695783
-8.5007973 -1.6598799 0.21314162
-8.5444393 -1.6582618 0.2283206
-8.5917873 -1.6842225 0.24751073
-8.6285582 -1.6735709 0.25938725
-8.6598415 -1.6583586 0.26888782
-8.7389212 -1.5439928 0.28544682
-8.7530327 -1.5313251 0.28916222
-8.9061184 -1.4942188 0.33931923
-8.932128 -1.5283582 0.35181314
-8.9409504 -1.5356078 0.35562593
-8.9509602 -1.5368323 0.35926408
-8.9869003 -1.5484838 0.37303942
-9.0237637 -1.5353541 0.38470536
-9.1427927 -1.5393174 0.42692691
-9.1465225 -1.5424762 0.42854804
-9.1703424 -1.5420651 0.43687922
-9.1991215 -1.5435054 0.44713479
-9.2348766 -1.5601132 0.46133214
-9.2812881 -1.5605984 0.47769088
-9.3275146 -1.56604 0.49447149
-9.3375244 -1.5672643 0.49810964
-9.3902159 -1.5658154 0.51648551
-9.3443584 -1.5504615 0.49886113
-9.2979469 -1.5499761 0.48250228
-8.7164574 -0.64938504 0.18968397
-8.7620506 -0.6459831 0.20537359
-8.8084621 -0.6464684 0.22173232
-8.891367 -0.64373654 0.25060046
-8.911478 -0.64370722 0.25766587
-8.9541597 -0.64103389 0.2724036
-9.0203133 -0.65140247 0.29667151
-9.1129513 -0.65732932 0.32981062
-9.1559095 -0.64722168 0.34391552
-9.1658268 -0.65092421 0.34776461
-9.199769 -0.65518755 0.36011213
-9.2074108 -0.65893626 0.36316621
-9.2209549 -0.68732768 0.37071484
-9.2226772 -0.70215023 0.37277579
-9.1506491 -0.7884748 0.35594046
-9.1533003 -0.85227919 0.36313909
-9.1464958 -0.89999038 0.36543375
-9.142457 -0.94296312 0.36823523
-9.1424522 -0.97331142 0.37121457
-9.1455259 -1.0128689 0.37617999
-9.1463242 -1.0524728 0.38035047
-9.1377897 -1.1020259 0.382218
-9.1319952 -1.1320038 0.3831259
-9.1313543 -1.1398246 0.38366896
-9.1335917 -1.2112114 0.39146686
-9.1298389 -1.2509077 0.39404702
-9.1262646 -1.302312 0.39783943
-9.1289291 -1.339926 0.40247029
-9.1164846 -1.3817505 0.40220487
-9.1133747 -1.413626 0.40424263
-9.1218147 -1.4569786 0.4114669
-8.7250957 -0.66159087 0.19391894
-8.7674828 -0.69968069 0.21255684
-8.7939291 -0.76667213 0.22843128
-5.2118673 -0.74842799 -1.0322635
-5.2331214 -0.72562945 -1.0270332
-5.2678585 -0.70745099 -1.0166104
-5.3210416 -0.69037235 -0.99959683
-5.3383942 -0.69144833 -0.99339271
-5.3703341 -0.71447259 -0.97990608
-5.443017 -0.71764576 -0.95405012
-5.5326018 -0.70745218 -0.92356724
-5.5422797 -0.71616775 -0.91930985
-5.5318689 -0.80254066 -0.9144851
-5.5333562 -0.84511369 -0.90978098
-5.5275583 -0.85610747 -0.91073883
-5.4790983 -0.8923012 -0.92421508
-5.4465599 -0.90722525 -0.93418479
-5.4266148 -0.90713733 -0.94120294
-5.4101343 -0.90811622 -0.94689882
-5.3475523 -0.92662477 -0.96707523
-5.3160763 -0.94697404 -0.97613847
-5.2599578 -0.94034427 -0.99651235
-5.2151575 -0.94544023 -1.0117567
-5.1663966 -0.92405266 -1.0309943
-5.1692009 -0.80465835 -1.0417356
-5.1893816 -0.76480734 -1.0385572
-3.8989067 -1.6512535 -1.4050238
-3.9220428 -1.6526883 -1.3967516
-4.0532312 -1.540556 -1.3616595
-4.0337906 -1.5256023 -1.3699605
-3.9972811 -1.528971 -1.382461
-3.941246 -1.5198636 -1.4030488
-3.9145827 -1.5269926 -1.4117193
-3.8149841 -1.5383809 -1.4456043
-4.5732069 -1.5268877 -1.1802585
-4.583137 -1.5281703 -1.1766427
-4.6029139 -1.5332134 -1.1691966
-4.6992683 -1.5256052 -1.1360806
-4.8046522 -1.5387568 -1.0977521
-4.6854444 -1.5401471 -1.1395106
-4.5564737 -1.5352991 -1.1853132
-4.5271025 -1.519063 -1.1972302
-5.333086 -1.5184062 -0.91403478
-5.260066 -1.5251431 -0.93903565
-5.2136259 -1.5272291 -0.95515198
-5.2048464 -1.5250051 -0.95845604
-5.151577 -1.5197933 -0.97768915
-5.0945864 -1.523664 -0.99733829
-5.1409426 -1.5240557 -0.98100805
-5.1950688 -1.5375841 -0.96065676
-5.2146778 -1.5475821 -0.95278329
-5.2328987 -1.5471375 -0.94642329
-5.2693243 -1.5462468 -0.93370914
-5.3396912 -1.5351992 -0.91006404
-5.3599954 -1.5337021 -0.90307516
-5.4087858 -1.5255067 -0.88673294
-5.3711901 -1.5231755 -0.90017486
-6.7969723 1.3790781 -0.68414682
-6.8501601 1.3745608 -0.66501045
-6.8865824 1.3754776 -0.65229994
-6.9062295 1.3817263 -0.64600897
-6.9595113 1.3797877 -0.62709284
-6.9988089 1.3760087 -0.61291063
-7.0352278 1.3768914 -0.60019803
-7.0815172 1.3740327 -0.58364892
-7.1051183 1.3809769 -0.57603657
-7.1249123 1.3919775 -0.57016045
-7.1421247 1.3992343 -0.56482404
-7.182085 1.4151101 -0.55233932
-7.2646251 1.4081786 -0.52265012
-7.2856236 1.39728 -0.51419991
-7.3570356 1.3975058 -0.4891246
-7.3859673 1.3987167 -0.47907558
-7.4363432 1.4014668 -0.46164113
-7.4696779 1.4000514 -0.44978687
-7.4335051 1.4065669 -0.46313953
-7.3872228 1.4094563 -0.47968906
-7.3511338 1.4184487 -0.49325567
-7.3141785 1.4202473 -0.50642014
-7.3056889 1.4197803 -0.50935793
-7.2421999 1.4256082 -0.53224343
-7.1957502 1.4235427 -0.54836494
-7.1865616 1.4208364 -0.55132854
-7.1561999 1.4119644 -0.56112772
-7.0756226 1.3948717 -0.58776742
-7.0419507 1.3865204 -0.59878105
-7.0055318 1.3856378 -0.61149359
-6.9564118 1.3934505 -0.62952405
-6.8963585 1.3854675 -0.64984536
-6.8599401 1.3845849 -0.66255796
-6.8106384 1.3873072 -0.68015224
-6.8007784 1.3911128 -0.68399119
-6.7506824 1.381937 -0.70069599
-6.6946096 1.3747005 -0.71969175
-6.6512117 1.37307 -0.73478377
-6.6049218 1.3759286 -0.75133294
-6.6550045 1.3849695 -0.73461956
-6.7014537 1.3870347 -0.71849799
-2.6025827 -0.37953049 -1.9855204
-2.5640135 -0.41216984 -1.9958694
-2.5636952 -0.37951568 -1.9991887
-2.565228 -0.33242458 -2.0032752
-2.5597832 -0.29398865 -2.0089638
-2.5968349 -0.21719554 -2.0034847
-2.6313879 -0.32777593 -1.98048
-1.4756236 1.374413 -2.5538576
-1.5118752 1.3704014 -2.5407231
-1.5482912 1.3713443 -2.5280173
-1.4823012 1.3843699 -2.5524886
-5.9863558 1.3834627 -0.96946585
-6.0066586 1.3931918 -0.96328604
-6.0468764 1.4245884 -0.95223534
-6.0904474 1.4234238 -0.93680811
-6.1749358 1.5060034 -0.91522586
-6.2277789 1.475487 -0.89365697
-6.2975392 1.3856606 -0.86031735
-6.3438215 1.3827713 -0.84376788
-6.3795443 1.3814485 -0.83108324
-6.4461622 1.3707097 -0.80661589
-6.4954963 1.3683252 -0.78904343
-6.5321684 1.376641 -0.77697182
-6.5919356 1.3768532 -0.75598764
-6.0233617 1.40172 -0.95825332
-5.9897051 1.3772318 -0.96767676
-5.9797621 1.3785603 -0.97130156
-5.9332294 1.3740177 -0.98720908
-10.852413 1.1498485 0.7636382
-10.856323 1.1421201 0.76577121
-10.85078 1.1576233 0.76230055
-10.374492 1.3708153 0.57397109
-10.447295 1.3722935 0.5994125
-10.493614 1.3693302 0.61598223
-10.530293 1.3775036 0.6280697
-10.500263 1.3811769 0.61715549
-10.463861 1.3804376 0.60443479
-10.386509 1.4761367 0.56784981
-10.375284 1.4954021 0.56201297
-10.36108 1.4802561 0.55850846
-10.341404 1.4402366 0.55552381
-10.252655 1.4027185 0.52801865
-10.163102 1.38814 0.49797732
-10.199134 1.3789666 0.51154166
-10.209051 1.3752642 0.51539081
-10.245914 1.3883939 0.52705675
-10.282223 1.3866549 0.53998798
-4.9815464 1.3694437 -1.3212254
-4.9915733 1.3705924 -1.3178144
-5.026763 1.3719847 -1.3055838
-5.0302725 1.3715663 -1.3043094
-5.0655861 1.4071074 -1.2953894
-4.9832978 1.4214666 -1.3257196
-4.9733548 1.4227951 -1.3293445
-4.9291821 1.4207873 -1.3446716
-4.9268222 1.4182527 -1.345252
-4.8429503 1.3855433 -1.3715159
-4.9092855 1.3849516 -1.3481445
-7.5267525 1.3850713 -0.42825681
-7.5167432 1.3862958 -0.43189478
-7.4925036 1.3948669 -0.44125554
-7.5061002 1.4009681 -0.43707633
-7.5817666 1.3975644 -0.4101494
-7.5916371 1.3938229 -0.40631294
-7.6887407 1.3912156 -0.37193015
-7.7744522 1.3660076 -0.33933133
-7.691824 1.3707101 -0.36883247
-7.6190214 1.3692322 -0.39427355
-7.5650887 1.389199 -0.41518915
-9.2836418 1.3689437 0.19077969
-9.3661766 1.3617632 0.22049171
-9.3893776 1.3624055 0.22858232
-9.4132347 1.3786247 0.23537374
-9.4870529 1.4073622 0.25849426
-9.5330029 1.3944864 0.27590781
-9.5509348 1.4040859 0.28126729
-9.6063595 1.4108334 0.30008304
-9.6611319 1.3907075 0.32130969
-9.6780539 1.3825738 0.32805568
-9.7240963 1.3721759 0.34525818
-9.7771568 1.3835375 0.36279029
-9.7672386 1.3872399 0.3589412
-9.7314844 1.4038477 0.34474403
-9.6968365 1.4501929 0.32801503
-9.6436596 1.4883807 0.30557543
-9.532979 1.4465132 0.27078938
-9.5280199 1.4483645 0.26886475
-9.5069103 1.442812 0.2619912
-9.46731 1.4172454 0.2505852
-9.4462814 1.4019608 0.24469566
-9.4096899 1.3867397 0.23333079
-9.3731041 1.3810441 0.22103214
-9.3370714 1.3902175 0.20746768
-9.2636223 1.3713925 0.18350339
-9.2376003 1.3793416 0.17357719
-9.1909122 1.3723924 0.15785128
-9.2472401 1.3682046 0.1780591
-6.415967 1.382365 -0.81837267
-6.4365525 1.3819473 -0.81109697
-6.4896784 1.3913922 -0.79335368
-6.5458202 1.384697 -0.77296513
-6.5820761 1.3806591 -0.75982666
-3.6592662 -1.5431397 -1.4998634
-3.6495879 -1.5344241 -1.5041208
-3.7056224 -1.5435314 -1.4835331
-4.3498201 1.3837173 -1.5446452
-4.3133979 1.3828006 -1.5573559
-4.2838192 1.3942182 -1.5688727
-4.2011976 1.3986683 -1.5983467
-4.1748009 1.3989005 -1.6076465
-4.1647749 1.3977518 -1.6110573
-4.2041302 1.3800509 -1.5954876
-4.3204079 1.4000893 -1.5565901
-1.4979777 -1.5362439 -2.2601178
-1.5344229 -1.5352178 -2.2474101
-1.485383 -1.5235436 -2.2657914
-1.4688358 -1.517482 -2.2722025
-1.4044356 -1.5253162 -2.2940662
-1.3988252 -1.5259807 -2.2959726
-1.4081068 -1.5267324 -2.2926369
-1.4336724 -1.5290518 -2.2834241
-1.8988004 -1.5274339 -2.1201153
-1.9280949 -1.5412409 -2.108464
-1.9083624 -1.5386424 -2.115654
-1.8258338 -1.5319633 -2.1453145
-1.7795224 -1.5316901 -2.161617
-1.7893119 -1.5354669 -2.1578057
-0.39210033 -0.47671741 -2.7528408
-0.34502411 -0.50570923 -2.7665379
-0.37353182 -0.59943259 -2.7473135
-0.36056137 -0.63734889 -2.7481477
-0.37499619 -0.71076047 -2.7358644
-0.38089132 -0.76066136 -2.7288914
-0.33351755 -0.86737734 -2.735059
-0.33090591 -0.95915186 -2.7269628
-0.33200932 -1.0818665 -2.7145219
-0.3303647 -1.0859797 -2.7146959
-0.3622489 -1.1091572 -2.7012138
-0.41130447 -1.0804898 -2.6867893
-0.41230392 -1.0006254 -2.6942823
-0.42654705 -0.92498118 -2.6967063
-0.50920773 -0.86517203 -2.6735299
-0.51471281 -0.84724188 -2.6733563
-0.61142015 -0.77161193 -2.6467972
-0.63122845 -0.77173328 -2.6398237
-0.66759825 -0.77318442 -2.6268992
-0.70722866 -0.76869547 -2.6134121
-0.7402606 -0.7785641 -2.6008339
-0.78657198 -0.7788372 -2.5845308
-0.75968599 -0.77101749 -2.594748
-0.71634007 -0.76843894 -2.610235
-0.71161461 -0.76755893 -2.6119823
-0.65796089 -0.76445323 -2.6311438
-0.59539318 -0.75294107 -2.6542637
-0.55879545 -0.75892174 -2.6665382
-0.53768682 -0.76080561 -2.6737719
-0.43057346 -0.72686833 -2.7147498
-0.39867401 -0.64543855 -2.7339587
-0.41030407 -0.60047483 -2.7342877
-0.42723656 -0.5704627 -2.7312846
-0.42650366 -0.56857485 -2.7317276
-0.42831707 -0.48312318 -2.7394834
-0.41872311 -0.47897011 -2.743263
-0.41158199 1.3720145 -2.9275756
-0.39320421 1.3773534 -2.9345589
-0.40317202 1.3760002 -2.9309227
-0.46256018 1.3825452 -2.9106939
-0.49718761 1.3842425 -2.8986907
-0.5589695 1.3833723 -2.8768923
-0.61507416 1.374177 -2.8562715
-0.68807125 1.3810167 -2.8312888
-0.76741171 1.3904166 -2.804328
-0.66838264 1.3911548 -2.8392038
-0.63180161 1.3852577 -2.851481
-0.59538555 1.3843148 -2.8641865
-6.043581 1.4089723 -0.95185959
-6.1263695 1.4094768 -0.92281353
-6.1857595 1.4065468 -0.90165335
-6.2185168 1.3913116 -0.88864446
-6.2807522 1.374655 -0.86513615
-6.3245697 1.3727174 -0.84954625
-9.897913 1.3742783 0.40613919
-9.944231 1.3713148 0.42270857
-9.9806328 1.3720539 0.43542916
-10.017035 1.3727932 0.44814986
-9.9889164 1.3761253 0.43794042
-9.9589796 1.3822765 0.42681509
-10.823354 0.74525052 0.79316467
-10.824033 0.82450444 0.78561908
-10.829224 0.83241779 0.78666621
-10.835846 0.79188353 0.79297465
-10.857304 0.75765175 0.80387849
-10.667268 -1.5438793 0.96314627
-10.686304 -1.5116804 0.96667391
-10.792046 -1.4322453 0.9960342
-10.729254 -1.3445204 0.96535021
-10.729914 -1.3009832 0.9613058
-10.801527 -1.1945766 0.97602266
-10.82863 -1.1903665 0.98513466
-10.844576 -1.1819909 0.98991627
-10.833669 -1.1046803 0.97848934
-10.841738 -1.0746562 0.97837633
-10.847435 -1.0566823 0.97861332
-10.859781 -1.026862 0.98002344
-10.850296 -0.97986054 0.9720735
-10.846169 -0.95570618 0.96825022
-10.85146 -0.84536123 0.95927149
-10.857868 -0.82514083 0.95953792
-10.758074 -0.70220709 0.91239125
-10.75957 -0.62684071 0.90551442
-10.758131 -0.59505767 0.90188676
-10.759588 -0.59112418 0.90201288
-10.663443 -1.5503368 0.96243614
-10.600281 -1.562952 0.94147724
-10.533757 -1.5624959 0.91805297
-10.594305 -1.4702685 0.93027395
-10.631874 -1.4297636 0.93949872
-10.726181 -1.3049628 0.96038479
-10.726199 -1.2692462 0.95688325
-10.721668 -1.2336223 0.9517917
-10.708677 -1.1903621 0.94297701
-10.686762 -1.1589947 0.93219417
-10.656395 -1.1173074 0.91742724
-10.656226 -1.1029152 0.91595441
-10.606066 -0.95204139 0.88350707
-10.603336 -0.94097185 0.88146025
-10.609019 -0.8727414 0.87675613
-10.59293 -0.82832414 0.86673898
-10.59831 -0.80592865 0.86643034
-10.749968 -0.7179873 0.91109186
-10.754333 -0.70887089 0.9117313
-5.7478504 1.3781431 -1.0527651
-5.6851988 1.3824134 -1.0752033
-5.6471844 1.3870895 -1.0890225
-5.5925508 1.3857148 -1.1080883
-5.5762639 1.3895729 -1.1141912
-5.5502014 1.3997142 -1.1243467
-5.5205393 1.4086542 -1.1356496
-5.4939761 1.4039319 -1.1445212
-5.4311576 1.4032474 -1.1665313
-5.5277166 1.3807893 -1.1303903
-5.5395918 1.3812244 -1.1262596
-5.584199 1.3814504 -1.1106046
-5.6251602 1.3703194 -1.0951157
-5.6486926 1.3790195 -1.0876999
-5.7113447 1.3747492 -1.0652616
-7.7356973 -1.5642736 -0.065140486
-7.699296 -1.5650127 -0.07786113
-7.6143827 -1.563992 -0.10780382
-7.6045542 -1.5602977 -0.11162084
-7.5582967 -1.5574329 -0.12815922
-7.4974537 -1.5613031 -0.14916214
-7.4756961 -1.5529194 -0.15763217
-7.4576917 -1.5489709 -0.16434759
-7.4677014 -1.5501955 -0.16070944
-7.4876289 -1.5551224 -0.15322217
-7.5286388 -1.5513065 -0.13918403
-7.5385537 -1.5525227 -0.13558015
-7.5749826 -1.5516932 -0.12285867
-7.6232252 -1.5509415 -0.10597801
-7.6495237 -1.5514562 -0.096684724
-7.732337 -1.5512025 -0.067605376
-7.7423463 -1.5524268 -0.063967347
-7.7621813 -1.5598321 -0.056269109
-10.777434 -0.4007583 0.8895871
-10.767752 -0.46819443 0.8928079
-10.767052 -0.41658473 0.8874926
-10.766991 -0.35715765 0.88163441
-10.770005 -0.33728471 0.88074178
-10.770742 -0.31746143 0.87905389
-10.77542 -0.2946268 0.87845498
-10.686367 -0.17659892 0.83556503
-10.687844 -0.13694891 0.83218962
-10.701086 -0.1347281 0.83662528
-10.785553 -0.016104966 0.85465997
-10.803439 0.079113781 0.85159355
-10.793019 -0.0081456304 0.856502
-10.791933 -0.085455745 0.86371344
-10.786314 -0.1271418 0.86583322
-10.784838 -0.1667918 0.86920875
-10.775894 -0.21440123 0.87074167
-10.781883 -0.24609183 0.87595934
-10.780407 -0.28574181 0.87933487
-10.78257 -0.30306971 0.88179678
-10.774458 -0.34919825 0.88347667
-10.774439 -0.38491473 0.88697821
-8.0096121 1.3835425 -0.25840735
-8.0460138 1.3842816 -0.24568677
-8.1284561 1.3746228 -0.2157639
-8.2014446 1.3810575 -0.19074455
-8.2913408 1.4099865 -0.16199201
-8.3330956 1.497638 -0.15592676
-8.3393049 1.5283563 -0.15676153
-8.3430309 1.5296519 -0.15557927
-8.4030008 1.5269656 -0.13423935
-8.4152069 1.5286775 -0.13011757
-8.4345703 1.5106518 -0.12154195
-8.4567671 1.4962451 -0.11232591
-8.5115376 1.4539552 -0.088923395
-8.5433779 1.4505758 -0.077401221
-8.5653114 1.4549251 -0.070119977
-8.5706787 1.4511302 -0.067860842
-8.6245012 1.3538425 -0.03938967
-8.5716343 1.3641016 -0.058977187
-8.5522518 1.367233 -0.066096544
-8.4771042 1.4060853 -0.096323043
-8.3939228 1.3959191 -0.12455833
-8.3559494 1.4015384 -0.13845602
-8.3414164 1.3994265 -0.14335614
-8.2668591 1.3508637 -0.16478902
-8.2458649 1.2933748 -0.16652113
-8.2409058 1.2952261 -0.16844565
-8.1482916 1.3672178 -0.20806569
-8.1219006 1.3652544 -0.21714786
-8.0491896 1.3662543 -0.24280006
-7.9665613 1.3709569 -0.27230132
-7.9465423 1.3734057 -0.27957749
-2.2097917 -1.5317326 -2.0103965
-2.2393146 -1.5381079 -1.9993947
-2.2195816 -1.5355093 -2.0065849
-0.69120646 -1.5116897 -2.5460665
-0.66462708 -1.514015 -2.5551794
-2.8936303 0.7013045 -1.9893918
-2.9703255 0.74461108 -1.966691
-2.9640288 0.72445649 -1.9669244
-2.9854259 0.6183278 -1.9489806
-2.9950969 0.5809952 -1.9419148
-2.9839032 0.54516453 -1.9423296
-2.9727092 0.50933397 -1.9427445
-2.9472768 0.429488 -1.9438403
-2.9195321 0.42802972 -1.9534476
-2.9154069 0.42868614 -1.954962
-2.8820114 0.45012236 -1.9688041
-2.8982041 0.54174119 -1.9721122
-2.8850751 0.58228058 -1.9807079
-2.8818564 0.62180239 -1.9857209
-2.8854671 0.66149622 -1.9883509
-0.87273121 -1.0902249 -2.5236661
-0.85250854 -1.1291302 -2.526952
-0.78516293 -1.1467752 -2.5488875
-0.76754999 -1.12747 -2.5569737
-0.70377684 -1.102937 -2.5817962
-0.61008739 -1.1370726 -2.6113703
-0.65419817 -1.0870068 -2.600785
-0.71987534 -1.0496076 -2.5813763
-0.75543594 -1.0501261 -2.5688276
-0.83848286 -0.96706367 -2.5477996
-0.91588354 -0.89125168 -2.5280435
-0.87210512 -0.96966279 -2.5357277
-0.86405802 -1.0496005 -2.5307045
-0.4130578 1.3721697 -2.9270723
-0.44803715 1.3729982 -2.9148602
-0.44947386 1.3731124 -2.9143665
-0.4863205 1.3732681 -2.9014323
-0.53085327 1.3761139 -2.8860607
-10.82106 0.70948797 0.79587132
-4.7890015 1.3898187 -1.390896
-4.631258 1.3923783 -1.4465857
-4.7900743 1.3835304 -1.3899012
-4.8164706 1.3832984 -1.3806016
-5.318707 1.4116833 -1.2068803
-5.3285666 1.4078772 -1.2030413
-5.3750157 1.4099426 -1.1869198
-10.407802 -1.5778136 0.87529093
-10.38806 -1.5679305 0.86738175
-10.424369 -1.5696695 0.88031334
-10.460586 -1.5738866 0.8934558
-10.497079 -1.5706694 0.90596527
-10.470318 -1.5825455 0.89772683
-10.454028 -1.5832553 0.89207155
-10.066818 -1.5701699 0.75470263
-9.9940157 -1.5716481 0.7292617
-9.9394131 -1.5727565 0.71018058
-9.8930941 -1.5697932 0.69361097
-9.8467751 -1.5668297 0.67704123
-9.7834282 -1.5844009 0.65650409
-9.700985 -1.5747423 0.62658089
-9.608716 -1.5589027 0.59259778
-9.5724077 -1.557164 0.57966644
-9.6182652 -1.5725179 0.59729093
-9.6380072 -1.582401 0.60519999
-9.6479244 -1.5861037 0.60904914
-9.6743164 -1.5841401 0.61813134
-9.7306442 -1.5883279 0.63833922
-9.7669544 -1.5900671 0.65127081
-9.9687958 -1.5937767 0.72257167
-10.066025 -1.6947567 0.76666075
-10.181879 -1.6806927 0.80599588
-10.261642 -1.5956388 0.82567436
-10.295237 -1.5669599 0.83466417
-10.258835 -1.567699 0.82194358
-10.212517 -1.5647357 0.80537409
-10.185848 -1.5741334 0.79692453
-10.123055 -1.5768359 0.77512139
-8.8574429 1.360389 0.041833818
-8.9366417 1.3558972 0.070109189
-9.008812 1.366219 0.094459414
-8.9358253 1.3597846 0.069440365
-8.8599386 1.3788118 0.040901423
-8.8266201 1.3575673 0.031278491
-8.8164253 1.3538353 0.028062224
-8.8429098 1.3582771 0.03693378
-10.805594 0.1980176 0.84067243
-10.797468 0.14652091 0.84287435
-10.795212 0.18219119 0.83857805
-10.794415 0.22179502 0.83440751
-2.8592186 -0.80689359 -1.8533511
-2.6822686 -0.80357379 -1.9158654
-2.6791453 -0.90514255 -1.9069872
-2.6748104 -0.97209346 -1.9019349
-2.6776998 -0.97226542 -1.9009025
-2.8443193 -1.0449091 -1.8352096
-2.8461666 -1.0505259 -1.8340087
-2.8513408 -1.0803448 -1.8292615
-2.8460064 -1.1297349 -1.8262851
-2.8386328 -1.1735971 -1.8245683
-2.7876816 -1.2501838 -1.8349526
-2.7512758 -1.2808349 -1.8447368
-2.7509394 -1.2907453 -1.8438816
-2.7481654 -1.3725057 -1.8368261
-2.7460103 -1.3992891 -1.8349528
-2.6509938 -1.4983926 -1.8586121
-2.6141679 -1.5118051 -1.8702371
-2.5214677 -1.513736 -1.9026265
-2.5014939 -1.5233009 -1.9087069
-2.4399924 -1.5250325 -1.9301512
-2.3951144 -1.5303483 -1.9454014
-2.4115987 -1.5341554 -1.9392343
-2.503994 -1.5421336 -1.9059787
-2.5408196 -1.5287211 -1.8943536
-2.5926385 -1.5311186 -1.8759067
-2.6329863 -1.5441313 -1.8604484
-2.7066388 -1.5173061 -1.8371983
-2.7237654 -1.5037301 -1.8325126
-2.8015158 -1.4810767 -1.8074124
-2.8896387 -1.4752431 -1.777015
-2.9016373 -1.4751997 -1.7728024
-2.9981866 -1.5124469 -1.7352121
-3.0456357 -1.4806299 -1.7216613
-3.0391953 -1.361012 -1.7356737
-3.0608616 -1.3258245 -1.7315152
-3.027966 -1.2226567 -1.7532094
-2.9918256 -1.1232691 -1.7756727
-2.9513202 -1.0422919 -1.7978616
-2.9159868 -1.0109743 -1.8133552
-2.8604958 -0.92850083 -1.8409579
-2.8617527 -0.88762558 -1.8445308
-2.8633528 -0.83560252 -1.8490784
-2.867862 -0.80976856 -1.8500309
-1.6308441 1.3644452 -2.4983268
-1.6673427 1.3678651 -2.4858356
-1.6210413 1.370753 -2.5023916
-3.9920976 1.4296377 -1.674876
-3.9741366 1.4366112 -1.6818733
-3.9663031 1.4330425 -1.6842756
-3.8746448 1.4275784 -1.7159519
-3.8653724 1.4223948 -1.7187016
-3.827112 1.3933086 -1.7292914
-3.7953691 1.3830571 -1.7394404
-3.7639594 1.382715 -1.7504456
-3.7564814 1.3830922 -1.7531106
-3.7373965 1.3779924 -1.7593172
-3.7539332 1.3815663 -1.7538564
-3.784364 1.3807533 -1.7430818
-3.800132 1.3761997 -1.737093
-3.846998 1.3906512 -1.7220414
-3.9260674 1.4158142 -1.6967244
-3.93062 1.4159288 -1.6951356
-4.0036321 1.4227164 -1.6701424
-4.0345807 1.4225988 -1.6592541
-4.0500813 1.4247818 -1.6540208
-4.0924301 1.4107823 -1.6377625
-4.0679588 1.4153309 -1.6468096
-4.6046119 1.3851786 -1.4552432
-4.5883255 1.3890367 -1.4613459
-4.5783825 1.3903654 -1.4649709
-4.5970287 1.3890417 -1.4582877
-1.6438351 -1.5296621 -2.2095032
-1.6704907 -1.5248594 -2.2006068
-1.7167263 -1.5276098 -2.1840875
-1.7106476 -1.5293581 -2.1860521
-1.6802807 -1.528636 -2.1967952
-8.1361132 -1.5561435 0.074785709
-8.1989059 -1.553441 0.096588492
-8.1558561 -1.5660269 0.082694829
-8.7135019 1.3535523 -0.008082211
-8.7434387 1.3474009 0.0030431747
-8.7536335 1.3511329 0.0062594414
-9.8879032 1.3755028 0.40250099
-9.8680687 1.3829079 0.39480287
-7.8011208 1.3754056 -0.33088169
-7.8273277 1.3724127 -0.32137734
-9.9224768 -1.5908132 0.70600206
-9.9055157 -1.591646 0.70012301
-9.8678293 -1.5931611 0.68702692
-9.8578663 -1.5906978 0.68328339
0 0 0 1 0 0 0 1 0 0 0 1 0 0 0 0 0 828 1 0 0
