ply
format ascii 1.0
comment PCL generated
element vertex 824
property float x
property float y
property float z
element camera 1
property float view_px
property float view_py
property float view_pz
property float x_axisx
property float x_axisy
property float x_axisz
property float y_axisx
property float y_axisy
property float y_axisz
property float z_axisx
property float z_axisy
property float z_axisz
property float focal
property float scalex
property float scaley
property float centerx
property float centery
property int viewportx
property int viewporty
property float k1
property float k2
end_header
-9.563673 1.2642487 4.3697777
-9.5988626 1.16941 4.4271402
-9.5919027 1.1672274 4.4185853
-9.5786705 1.1674036 4.4017458
-9.5735445 1.1671011 4.3952699
-9.5653467 1.1684905 4.3846664
-9.5480185 1.1832649 4.3606744
-9.5493917 1.2031323 4.3597722
-9.549017 1.227692 4.3560224
-9.3773127 1.3862284 4.1166692
-9.3425598 1.3888794 4.0721474
-9.3787603 1.3816818 4.1191158
-9.1274233 -0.8143872 4.0923629
-9.1478415 -0.78445983 4.1143241
-9.157073 -0.7913202 4.1269712
-9.1611462 -0.83193886 4.1375613
-9.1538134 -0.83970606 4.1292768
-9.1306067 -0.87678921 4.1047249
-9.1111221 -0.91871345 4.0855484
-9.1047516 -0.92791051 4.0786781
-9.108882 -1.0825973 4.1045427
-9.1067247 -1.1392958 4.1093578
-9.1008358 -1.1492079 4.1031952
-9.0898895 -1.1683825 4.0918388
-9.0575733 -1.1604909 4.0497141
-9.0182486 -1.1684675 4.0007992
-8.9958611 -1.161755 3.9714515
-8.9548912 -1.1597142 3.9191091
-8.9461603 -1.1596723 3.9080074
-8.8829174 -1.1301249 3.8236926
-8.8501167 -1.1592112 3.785882
-8.8265448 -1.1747853 3.7579985
-8.7802677 -1.1588757 3.6970642
-8.7945385 -1.1323994 3.7116718
-8.8103447 -1.119414 3.7300303
-8.8230495 -1.1079843 3.7446535
-8.8272839 -1.1041744 3.7495282
-8.8484325 -1.0980932 3.7755959
-8.8637228 -1.0913572 3.7941303
-8.9469185 -0.99940705 3.8876114
-8.9508018 -0.95981956 3.8872709
-8.9856272 -0.8800652 3.9209027
-9.043808 -0.86771894 3.993201
-9.0720806 -0.84414709 4.0259914
-9.101758 -0.83023512 4.0618563
-2.1942282 0.2047483 -4.8550677
-2.0851722 0.21459493 -4.9949822
-2.0799553 0.13764796 -4.9913578
-2.0679889 0.079156071 -4.9987707
-2.1808107 0.023704827 -4.8479919
-2.1827981 0.10359684 -4.8561134
-2.1888883 0.14284858 -4.8536043
-2.2597783 0.22631291 -4.774632
-9.285697 1.3856786 4.0003061
-9.2592821 1.3899194 3.9661694
-9.2016592 1.3721662 3.8953004
-9.1316385 1.3700182 3.8065953
-9.1151581 1.3805392 3.7842474
-9.0785275 1.372543 3.7387581
-9.0617886 1.3703536 3.717777
-9.0447083 1.3631972 3.6970217
-9.0099545 1.3658484 3.6524994
-8.9830933 1.3499368 3.620481
-8.9754486 1.3465689 3.6112137
-8.9552984 1.3460222 3.5856774
-8.9400082 1.3392864 3.5671432
-8.9234428 1.3395804 3.5460496
-8.884676 1.3441676 3.4961691
-8.8537645 1.3423992 3.457118
-8.8366833 1.3352431 3.436363
-8.8017588 1.3354107 3.3919537
-8.7666626 1.333095 3.3476574
-8.7471991 1.342482 3.3216698
-8.6964703 1.3284634 3.2590652
-8.6604404 1.3381445 3.2119832
-8.6771774 1.3403338 3.232964
-8.7092485 1.3543726 3.2718527
-8.7253428 1.351742 3.2926581
-8.732666 1.3526998 3.3018374
-8.7352104 1.3515527 3.3052247
-8.7659006 1.3475752 3.3447595
-8.7842588 1.3477014 3.3680749
-8.8155994 1.346693 3.4080408
-8.837038 1.3568802 3.4339292
-8.8487663 1.3542702 3.4491835
-8.8677778 1.3561652 3.473093
-8.8859644 1.3538079 3.496521
-8.9208889 1.3536403 3.5409305
-9.293107 1.3678311 4.0121026
-9.2761974 1.3631582 3.9912336
-9.2212944 1.3652627 3.9211757
-9.2038689 1.3531395 3.9006455
-9.1707363 1.3537276 3.8584578
-9.1341915 1.3559582 3.8117144
-9.0958548 1.3577687 3.7627499
-9.0463276 1.3611343 3.6993558
-9.0078201 1.3604612 3.6505041
-5.026031 1.4655918 -1.4240817
-5.0872488 1.465126 -1.3462163
-5.1094866 1.472131 -1.3188872
-5.1234899 1.4642737 -1.3000426
-5.1518097 1.433636 -1.2599669
-5.1677389 1.4235933 -1.238384
-5.189918 1.4192405 -1.2096156
-5.2028275 1.4160382 -1.1927818
-5.220984 1.4135746 -1.1693774
-5.2350378 1.4108617 -1.1511544
-5.2465177 1.4073478 -1.1360961
-5.3052421 1.4156394 -1.0625669
-5.2528529 1.4034342 -1.1275229
-5.2281938 1.4073282 -1.1593823
-5.1804957 1.383916 -1.2168829
-5.1398726 1.3556311 -1.2647426
-5.1028838 1.3506271 -1.3110852
-5.0688009 1.3631326 -1.3560693
-5.0489292 1.3654627 -1.3816348
-5.0143366 1.3705209 -1.4262739
-4.9663992 1.3734754 -1.4875928
-4.9468679 1.3807702 -1.5133882
-4.9112377 1.3956252 -1.5606515
-4.8749471 1.3758597 -1.6041398
-4.8581986 1.3742179 -1.6252073
-4.8735704 1.3806918 -1.6065339
-4.8770032 1.3809572 -1.6022061
-5.1263499 -0.67445326 -1.011371
-5.1172252 -0.69077402 -1.020793
-5.0977364 -0.73284048 -1.0399555
-5.0834532 -0.76644087 -1.0536302
-5.0430226 -0.8455143 -1.0944766
-5.0739989 -0.9300921 -1.0438358
-5.0871754 -0.97193003 -1.0215135
-5.1202908 -0.98264313 -0.97799832
-5.1664948 -0.93934023 -0.92504752
-5.201767 -0.9344486 -0.8808707
-5.2170992 -0.84379959 -0.87346578
-5.2100315 -0.76269269 -0.89325786
-5.2059302 -0.72206378 -0.90388489
-5.2010331 -0.67631829 -0.91620553
-5.1671133 -0.66134882 -0.96131027
-5.1431336 -0.67210913 -0.99035293
-2.4775536 -0.87968266 -4.3504543
-2.4197853 -0.88521838 -4.4231362
-2.4458048 -1.0168204 -4.3725281
-2.4557834 -1.0382205 -4.3569942
-2.5513401 -0.98228729 -4.2430024
-2.5879796 -1.0680373 -4.185008
-2.6590672 -1.1225153 -4.0874
-2.7171924 -1.1610906 -4.0083861
-2.7346389 -1.1734877 -3.9845603
-2.7862284 -1.1735963 -3.9189789
-2.8562744 -1.171209 -3.8302739
-2.8821397 -1.244875 -3.7875831
-2.8688269 -1.3232243 -3.7940607
-2.8521028 -1.4543113 -3.7978456
-2.8378401 -1.4840407 -3.8120103
-2.8459671 -1.5110925 -3.7980759
-2.8480637 -1.5138831 -3.7950394
-2.8866143 -1.5088167 -3.7467196
-2.9437258 -1.522689 -3.672286
-2.9731426 -1.5089729 -3.6367273
-3.0126388 -1.5054685 -3.5869975
-3.0304315 -1.5128688 -3.5633979
-3.0477498 -1.502941 -3.5427108
-3.0652337 -1.4905311 -3.5221438
-3.0252054 -1.4297891 -3.5811124
-3.0194449 -1.3876933 -3.5940437
-3.0648482 -1.2225151 -3.5583534
-3.0940189 -1.1891372 -3.5257277
-3.0715346 -1.1908575 -3.5540745
-3.0456517 -1.1921209 -3.5868013
-3.0254326 -1.1941458 -3.6122286
-2.9819505 -1.1680002 -3.6709759
-2.9711289 -1.1497411 -3.6871629
-2.9653187 -1.1432254 -3.6954157
-2.9181898 -1.0690073 -3.7652044
-2.883604 -1.046562 -3.8121517
-2.8611231 -1.0274681 -3.8432682
-2.8373594 -1.027558 -3.8734584
-2.7903583 -1.0645308 -3.928266
-2.7235553 -0.99501002 -4.0224333
-2.7061901 -0.99013591 -4.0451527
-2.6536162 -0.98739159 -4.1123366
-2.5879576 -0.99700153 -4.1945033
-2.5692916 -0.98723793 -4.2195277
-2.5417964 -0.95416582 -4.2588797
-2.533998 -0.87441325 -4.2794199
-8.4793587 -1.1433073 3.3125539
-8.4716969 -1.3141165 3.3255811
-8.4998617 -1.352083 3.3664365
-8.4766054 -1.3158424 3.3320496
-8.1907139 -0.74487036 2.892606
-8.2286539 -0.7914021 2.947026
-8.2646246 -0.79143298 2.9927464
-8.3219204 -0.79341042 3.0658286
-8.2616978 -0.74415231 2.9827261
-8.241272 -0.73333526 2.9553239
-8.225564 -0.72062409 2.9336662
-2.6167905 1.3557724 -4.4714217
-2.6326001 1.3433005 -4.449667
-2.6544538 1.3525509 -4.4231253
-2.6158264 1.3656262 -4.4739604
-2.565201 1.355881 -4.537003
-2.5473723 1.338567 -4.5573545
-2.512265 1.3361323 -4.6016488
-2.4952781 1.3312291 -4.6225848
-2.4612257 1.3684342 -4.6708212
-2.5124791 1.3633612 -4.6050057
-2.5477545 1.3682781 -4.5608287
-3.5673733 1.3383265 -3.2609723
-3.5533299 1.3461367 -3.2798615
-3.5169621 1.3558102 -3.3273718
-3.4811814 1.3434469 -3.3711987
-3.4495177 1.3436438 -3.4114673
-3.406574 1.3773478 -3.4705374
-3.3980396 1.3786578 -3.4815588
-3.3881347 1.3769147 -3.4939148
-3.2747459 1.3908925 -3.6398869
-3.236655 1.3685257 -3.685317
-3.1858616 1.3562983 -3.7482424
-3.2026405 1.3515007 -3.7262778
-3.2265155 1.3397071 -3.6943626
-3.2567034 1.3463495 -3.6568813
-3.2753282 1.3513275 -3.6338742
-3.3754008 1.3462255 -3.5060086
-3.3763649 1.3435891 -3.5044322
-3.3954492 1.3312669 -3.4785352
-3.4470387 1.3311582 -3.4129539
-3.4906983 1.3273578 -3.3569591
-3.5252912 1.3222995 -3.3123198
-3.5590162 1.3295205 -3.2704201
-3.5751147 1.3219601 -3.2489524
-8.4698639 -0.72428131 3.2446423
-8.4744244 -0.74829459 3.2536385
-8.4588928 -0.79236573 3.2397721
-8.4500999 -0.83022732 3.2336433
-8.4450569 -0.8431918 3.2289619
-8.4099445 -0.83074379 3.1826777
-8.3271503 -0.79272622 3.0723851
-8.4043331 -0.78529441 3.169488
-8.4442778 -0.74602199 3.2150209
-7.4645333 -0.93282312 1.9947301
-7.4882135 -0.85571051 2.0145493
-7.4856443 -0.76016176 1.9985495
-7.4785795 -0.73854816 1.9866904
-7.4769001 -0.73669589 1.9843085
-7.4680691 -0.73089015 1.9723117
-7.4359989 -0.6886152 1.9259183
-7.4229093 -0.68241978 1.9084566
-7.3878126 -0.68473554 1.8641599
-7.37889 -0.68107313 1.8523319
-7.3694544 -0.6848619 1.8408449
-7.3311911 -0.68842906 1.7926898
-7.3221207 -0.68748432 1.7810365
-7.3130445 -0.68607974 1.7693138
-7.2559686 -0.6572181 1.6929281
-7.2426734 -0.70586956 1.6825147
-7.221827 -0.74324715 1.661002
-7.209713 -0.77451682 1.6497734
-7.2139597 -0.85577738 1.6660007
-7.1969585 -0.93847156 1.6554139
-7.2105312 -1.0156523 1.6829499
-7.209362 -1.0550232 1.6867117
-7.2593327 -1.0726286 1.7525671
-7.3201184 -1.1075912 1.8344809
-7.3384767 -1.1074648 1.8577962
-7.3703909 -1.0986961 1.8971883
-7.3910179 -1.0904688 1.9223075
-7.4524298 -1.0501649 1.9949859
-7.4617863 -0.9725579 1.9965346
-8.5885944 -1.5591308 3.5068035
-8.6082287 -1.5660342 3.5326781
-8.6604071 -1.5565624 3.5977299
-8.6193466 -1.5443763 3.5439217
-8.6038837 -1.552395 3.5253372
-8.5689583 -1.5522273 3.4809279
-8.5501213 -1.5528394 3.4570684
-8.5705795 -1.5542903 3.4832625
-6.0034065 -0.7257812 0.11014683
-6.0380044 -0.73081648 0.15478969
-5.9840856 -0.765311 0.090859696
-5.9086518 -0.87161601 0.0091561209
-5.8905053 -0.86926377 -0.014219891
-5.8175087 -0.97337961 -0.093117751
-5.8149028 -0.97805178 -0.095806815
-5.7302175 -1.0489131 -0.19399211
-5.6703787 -1.121316 -0.26039338
-5.6179118 -1.128451 -0.32612461
-5.6048107 -1.128425 -0.34277833
-5.5365062 -1.181645 -0.42249587
-5.4842877 -1.2403094 -0.48104349
-5.4320498 -1.2254723 -0.54941142
-5.4276471 -1.2137704 -0.55656677
-5.4208503 -1.1714158 -0.57084972
-5.4093475 -1.1278938 -0.59126937
-5.4214916 -1.0868796 -0.58130097
-5.472321 -1.0060622 -0.5274713
-5.4648223 -0.92353666 -0.5480004
-5.4210787 -0.87280118 -0.61035699
-5.4222536 -0.83091903 -0.61444557
-5.4252911 -0.78622293 -0.61654174
-5.4308405 -0.77191234 -0.61139643
-5.4437685 -0.75910866 -0.59667224
-5.5151649 -0.76139915 -0.5056271
-5.548913 -0.75434971 -0.46367535
-5.5814729 -0.74018157 -0.42418224
-5.5997877 -0.74005079 -0.40092286
-5.6819239 -0.69308329 -0.30279252
-5.6957498 -0.67483556 -0.28765318
-5.7082186 -0.65195245 -0.27485582
-5.713582 -0.64790934 -0.26857808
-5.73247 -0.64534074 -0.24491486
-5.7649326 -0.63590544 -0.20491457
-5.8180146 -0.63832682 -0.13712874
-5.8544755 -0.64054823 -0.090493388
-5.886529 -0.63382947 -0.050650775
-5.9597821 -0.60880578 0.039113451
-6.6610308 1.3634371 0.66750312
-6.7322907 1.3585787 0.75871718
-6.7644405 1.3679813 0.79832435
-6.7812119 1.3703163 0.81932771
-6.8231926 1.3982623 0.86895782
-6.8394566 1.3931488 0.89031005
-6.8874054 1.3653951 0.9549486
-6.9211164 1.3725479 0.99683934
-6.9742136 1.3700873 1.0646498
-6.9605641 1.3632523 1.0482137
-6.7307301 1.3608286 0.75643361
-8.7279491 -1.5647683 3.6846652
-8.7630463 -1.5624526 3.7289617
-8.7810602 -1.5672932 3.7525024
-8.816328 -1.5624939 3.7966855
-8.8354483 -1.5768478 3.8228993
-8.8006954 -1.5741968 3.7783775
-8.7825089 -1.5718396 3.7549491
-8.7657709 -1.5740291 3.7339678
-8.7306747 -1.5763447 3.6896718
-8.7094193 -1.5673782 3.661463
-8.6780777 -1.5663698 3.6214962
-3.8427565 1.3414495 -2.911396
-3.7968171 1.3480471 -2.9706609
-3.7901788 1.3514529 -2.9795518
-3.8252807 1.3538419 -2.9352579
-3.8487692 1.3456447 -2.9043131
-3.8780282 1.3463209 -2.8672171
-3.8942964 1.3412429 -2.8458645
-3.9110744 1.3436121 -2.824857
-3.9461763 1.3460009 -2.7805631
-3.9129605 1.3462273 -2.8228083
-2.9941802 1.3516324 -3.9912341
-2.9587362 1.3442334 -4.035295
-3.0022504 1.3478788 -3.9804771
-6.7952414 -1.1812277 1.1772125
-6.829793 -1.2158915 1.2257448
-6.828259 -1.171014 1.2178143
-6.8014574 -1.1263591 1.1778002
-6.7836485 -1.1190406 1.1541914
-6.7692285 -1.1110605 1.1348006
-6.7520947 -1.0938095 1.110726
-6.750401 -1.0941403 1.1086171
-6.7165995 -1.0942184 1.0656681
-6.6993508 -1.086422 1.0427073
-6.6679378 -1.0957146 1.0040219
-6.6657901 -1.0983663 1.001646
-6.6365337 -1.1417576 0.97024632
-6.6705928 -1.1728737 1.0176796
-6.6808 -1.174197 1.0308287
-6.7676511 -1.1801597 1.142005
-6.8007669 1.3631858 0.84513122
-6.8353629 1.3581575 0.88977069
-6.8704658 1.3605773 0.93406153
-6.888629 1.3581796 0.95746493
-6.6426897 -0.78183711 0.93010187
-6.6256776 -0.77963173 0.90818709
-6.5996938 -0.76569319 0.87330544
-6.5817161 -0.76085776 0.84981298
-6.56357 -0.75850552 0.826437
-6.545424 -0.75615323 0.80306119
-6.5138769 -0.75542259 0.7628693
-6.4738588 -0.75634575 0.71213245
-6.4572382 -0.75614583 0.69098204
-6.4287491 -0.73632216 0.65213239
-6.4255152 -0.73339796 0.6476329
-6.4072008 -0.73352885 0.62437356
-6.3542943 -0.75312471 0.55974478
-6.3203773 -0.7626574 0.51790959
-6.2854424 -0.76258826 0.47349989
-6.2662768 -0.75063431 0.44754899
-6.2310038 -0.75553143 0.40337205
-6.179285 -0.78224599 0.34120172
-6.1382222 -0.78055 0.28878754
-6.1775036 -0.93536985 0.35934502
-6.1945157 -0.9375751 0.38125986
-6.2614641 -0.97295451 0.47106206
-6.2759852 -0.97037733 0.48917395
-6.3260674 -1.1285484 0.57390493
-6.3289533 -1.1687236 0.58292681
-6.3565116 -1.1734108 0.61857599
-6.3870163 -1.1807098 0.65831834
-6.4294052 -1.2148603 0.71674293
-6.504683 -1.1600394 0.80510986
-6.5081329 -1.1429516 0.80721676
-6.4361558 -1.1155359 0.71208501
-6.4346304 -1.1133835 0.70985967
-6.433105 -1.1112311 0.70763427
-6.3986759 -1.1037127 0.66287494
-6.3629613 -0.93153811 0.59453797
-6.3755188 -0.90312016 0.60671008
-6.4201217 -0.837358 0.65463293
-6.4538693 -0.83030856 0.69658446
-6.4706588 -0.82802534 0.71761847
-6.5059319 -0.82312822 0.7617954
-6.5420551 -0.83031583 0.80866361
-6.5946307 -0.8401866 0.87679869
-6.6154771 -0.802809 0.89831144
-5.7860384 1.416447 -0.45161602
-5.7767878 1.4151632 -0.46320155
-5.7139754 1.384297 -0.53891814
-5.7336993 1.3796492 -0.5132311
-5.7881885 1.3724558 -0.44302049
-5.8604202 1.4070889 -0.35583466
-5.8900499 1.40476 -0.31786683
-5.9297814 1.3995148 -0.26667181
-5.9595261 1.3987536 -0.22876695
-5.9785748 1.3841751 -0.20261452
-5.9982986 1.3795272 -0.17692751
-5.9783378 1.3976538 -0.20471218
-5.9657288 1.4143486 -0.22296247
-5.9463425 1.4239619 -0.24888232
-5.9304156 1.4340408 -0.27046716
-5.8913469 1.4237069 -0.31874382
-5.8764744 1.4240875 -0.33769628
-5.8401484 1.4288831 -0.38450319
-4.3677406 1.379632 -2.2492666
-4.317049 1.3922505 -2.3153734
-4.3064976 1.3886712 -2.3283064
-4.2608876 1.3748152 -2.3844271
-4.2800798 1.3625555 -2.3584018
-4.3158793 1.3501828 -2.3112535
-4.350812 1.3500892 -2.2668445
-4.3867626 1.3648901 -2.2231259
-4.4033709 1.364777 -2.2020035
-4.3841786 1.3770366 -2.228029
-4.5406857 1.3790317 -2.0293856
-4.570281 1.3778554 -1.9916149
-4.5949793 1.3691609 -1.9590664
-4.5785413 1.3717564 -1.9803039
-4.5619335 1.3718696 -2.0014265
-4.5353489 1.377949 -2.0360236
-4.6499529 1.3692198 -1.8892071
-4.6482363 1.3690869 -1.8913709
-4.6285348 1.3738995 -1.9170513
-4.6338539 1.3767799 -1.910675
-4.6853943 1.3765733 -1.8451434
-4.6999464 1.3713627 -1.8259546
-4.7333317 1.3736188 -1.7838243
-4.7035489 1.3741106 -1.8217419
-4.6984758 1.3758525 -1.8284218
-4.6496601 -1.5422924 -1.5015501
-4.6991501 -1.52305 -1.4412165
-4.6474323 -1.5253204 -1.5066433
-4.5992002 -1.5221862 -1.5683613
-4.559751 -1.5177902 -1.6190839
-4.5260153 -1.5249611 -1.6610041
-4.5801301 -1.5371797 -1.5905995
-4.5969133 -1.5348356 -1.5695816
-8.6300106 -0.99320412 3.4840181
-8.6092987 -1.0346968 3.4632242
-8.6023674 -1.0749789 3.4597833
-8.615715 -1.1173446 3.482393
-8.6362457 -1.0752835 3.5028811
-8.6654844 -0.97775626 3.5270433
-8.6699963 -0.95747828 3.5300751
-8.6659775 -0.95341599 3.524426
-8.6532173 -0.95612103 3.50857
-2.1061809 -0.83289212 -4.8286791
-2.0909636 -0.80296856 -4.8520074
-2.0890033 -0.754807 -4.8609176
-2.105545 -0.67218536 -4.8509049
-2.0375326 -0.58436859 -4.949048
-2.0958538 -0.48519075 -4.8881435
-2.0969543 -0.43523893 -4.8934021
-2.1011562 -0.37627149 -4.8959208
-2.1120923 -0.27638656 -4.8953338
-2.1145344 -0.20966405 -4.9011226
-2.1293361 -0.17558017 -4.8868527
-2.1498234 -0.13711172 -4.865942
-2.1636724 -0.094204664 -4.8540592
-2.1792502 -0.016164005 -4.8446617
-2.177609 -0.055727273 -4.841475
-2.1722238 -0.13515645 -4.8377333
-2.1646545 -0.21458265 -4.8367677
-2.1590552 -0.31403017 -4.8306303
-2.1459565 -0.372361 -4.8395038
-2.1446099 -0.39222509 -4.8385677
-2.1471522 -0.47273424 -4.8246069
-2.1455922 -0.5126031 -4.8212762
-2.1370094 -0.63919336 -4.8153133
-2.1644204 -0.72619116 -4.7688813
-2.2143273 -0.7511214 -4.7021303
-2.2892399 -0.74438691 -4.6078196
-2.2584033 -0.78497976 -4.6416006
-2.2462234 -0.86348319 -4.6466179
-2.2255473 -0.85535848 -4.6739788
-2.1917865 -0.83793592 -4.7192082
-2.1533275 -0.8295958 -4.7691984
-2.1261535 -0.83001715 -4.8036785
-8.1959362 -1.5390806 3.0050902
-8.1687374 -1.5426384 2.9709961
-8.186923 -1.5449955 2.9944241
-8.2215042 -1.5501299 3.0390587
-8.2377281 -1.5553908 3.0603783
-8.2573624 -1.5622944 3.0862529
-8.2910099 -1.5554322 3.1281021
-8.3063002 -1.5486964 3.1466367
-8.3246584 -1.54857 3.1699519
-8.3714647 -1.5427605 3.2286656
-8.3946791 -1.546422 3.258657
-8.4483051 -1.5414964 3.3261559
-8.5019636 -1.354861 3.369478
-8.5181541 -1.5418319 3.4149742
-7.9997468 -1.5457991 2.7566428
-7.9442902 -1.6155242 2.6954536
-7.8886528 -1.5512305 2.6161742
-7.9577408 -1.5370857 2.7020946
-7.9941134 -1.5417999 2.7489505
-8.0400934 -1.5390418 2.8070195
-8.0593758 -1.5379994 2.831388
-8.1180077 -1.556657 2.9083912
-8.1507225 -1.5377978 2.9474552
-7.2223797 1.3725958 1.3797175
-7.2590432 1.3727658 1.4262918
-7.2756453 1.372618 1.4474115
-7.2922478 1.3724701 1.4685314
-7.2728615 1.3820834 1.4426116
-7.219933 1.3870268 1.3746848
-7.2034998 1.3896573 1.3534487
-7.1875734 1.399736 1.331864
-7.1521325 1.3923506 1.2878057
-7.1355305 1.3924985 1.2666857
-7.1153002 1.3896979 1.2413477
-7.081758 1.3850281 1.1993406
-7.1011443 1.3754147 1.2252603
-7.136416 1.3803174 1.2694347
-7.1699581 1.3849875 1.3114418
-6.9835625 -1.5315211 1.4632407
-6.9400635 -1.5350767 1.4084305
-6.9219174 -1.5327245 1.3850543
-6.9135227 -1.5338662 1.3745375
-6.8967333 -1.5361493 1.3535033
-6.8604407 -1.5314447 1.3067516
-6.8438201 -1.5312448 1.2856013
-6.8283873 -1.5381635 1.266909
-6.8648481 -1.5403849 1.3135444
-6.8997841 -1.540454 1.3579544
-6.9180984 -1.5403231 1.3812138
-6.949646 -1.5410537 1.4214057
-5.6287284 1.3773547 -0.6463356
-5.6650548 1.3725594 -0.59952873
-5.6818256 1.3748944 -0.5785253
-3.5704684 -1.1163558 -2.9298935
-3.607969 -1.128436 -2.8806231
-3.6348991 -1.1640887 -2.8416452
-3.6050432 -1.2419947 -2.8692071
-3.5586932 -1.2779071 -2.9233286
-3.5164068 -1.3203716 -2.9714122
-3.4996512 -1.3983053 -2.9823208
-3.5446117 -1.5208237 -2.9088507
-3.5802226 -1.5109667 -2.8649056
-3.5982041 -1.5158671 -2.841399
-3.5468397 -1.5377955 -2.9037573
-3.5100157 -1.5157847 -2.9534914
-3.4776473 -1.5277176 -2.9930389
-3.4600184 -1.542475 -3.0134773
-3.4257607 -1.5324707 -3.0583498
-3.3872309 -1.5106634 -3.110225
-3.3747044 -1.5001878 -3.1275413
-3.3908114 -1.507774 -3.1060591
-3.3987443 -1.5096918 -3.0957217
-3.434813 -1.5099167 -3.0498507
-3.4844389 -1.3607759 -3.0066562
-3.4789424 -1.2397956 -3.0297656
-3.411272 -1.2073739 -3.1200907
-3.3073144 -1.1947398 -3.2538974
-3.3809032 -1.1402689 -3.1676307
-3.3995614 -1.1352388 -3.144588
-3.4497423 -1.1306889 -3.0814178
-3.4514482 -1.1304855 -3.0792768
-3.4663568 -1.1308274 -3.0602837
-3.4848459 -1.1282799 -3.0371249
-3.5016294 -1.1259358 -3.0161066
-3.5185816 -1.121109 -2.9952044
-9.0613909 -1.5806315 4.1105599
-9.0961437 -1.5832825 4.1550822
-9.1630964 -1.5745249 4.2390065
-9.0945234 -1.5812194 4.1527481
-9.041584 -1.5762112 4.0847983
-9.0050392 -1.5739806 4.0380549
-9.0446529 -1.5828208 4.0895791
-8.973012 -1.5829058 3.9985397
-8.956789 -1.5776449 3.9772205
-8.9207592 -1.567964 3.9301388
-8.9706297 -1.5663625 3.9933076
-8.6924343 -1.547637 3.6372457
-7.6725445 1.4073267 1.9472171
-7.649611 1.3972223 1.9194165
-7.6397934 1.4006741 1.9064792
-7.5879955 1.3839626 1.8428752
-7.5528994 1.3816469 1.798579
-7.5291805 1.3861665 1.7678313
-7.5047626 1.3897053 1.7363267
-7.4943771 1.3885713 1.7232785
-7.4862623 1.3871377 1.7131559
-7.4646921 1.381856 1.6864456
-7.444943 1.3859994 1.6607935
-7.4430933 1.3858557 1.658462
-7.4299393 1.3845069 1.6419238
-7.4088736 1.3862121 1.614924
-7.3904972 1.3958308 1.590287
-7.3788452 1.3992741 1.5750186
-7.3924608 1.3987345 1.5923955
-7.3991046 1.3971683 1.6010475
-7.4106474 1.3963774 1.6158235
-7.4153399 1.3969613 1.6217092
-7.4308071 1.3969635 1.6413664
-7.4682684 1.392018 1.6896361
-7.4883299 1.3923359 1.7150906
-7.5178685 1.3968625 1.7520292
-7.5308828 1.4050938 1.7674723
-7.5596118 1.3970109 1.8050621
-7.5839939 1.4025689 1.8353093
-7.6019382 1.4077603 1.8574234
-7.612133 1.4114497 1.8698884
-7.6228442 1.4094089 1.8837739
-7.6377916 1.4099779 1.9026952
-7.6485062 1.4067357 1.9167444
-7.6697292 1.4093257 1.9433721
-2.2930114 0.62436652 -4.7854452
-2.3087521 0.70179605 -4.7757592
-2.3144231 0.86341071 -4.7900906
-2.3036528 0.70455229 -4.7826076
-9.3740177 -1.5556636 4.504559
-9.3439541 -1.5671238 4.4678783
-9.3400259 -1.5674926 4.4629345
-9.3218393 -1.5651356 4.439507
-9.3385773 -1.5629461 4.4604878
-8.2371378 -1.5384272 3.0573673
-6.1878409 1.3788326 0.064059898
-6.2056661 1.3714691 0.087695956
-6.2224369 1.3738041 0.10869958
-6.4064469 -1.5280635 0.72930646
-6.362505 -1.5827907 0.68075299
-6.3094316 -1.5388969 0.60745025
-6.2862072 -1.5347749 0.57738477
-6.2504215 -1.522621 0.53028369
-6.2181988 -1.5318229 0.49055749
-6.2003903 -1.5245044 0.46694863
-6.1469712 -1.5270493 0.39939567
-6.1825752 -1.4926856 0.44006631
-6.2061696 -1.4912844 0.46986628
-6.2334566 -1.502887 0.50609249
-6.2531281 -1.5073916 0.53169382
-6.3033276 -1.5030252 0.59491223
-6.3552217 -1.4983279 0.66023976
-6.0325575 1.3695334 -0.13205525
-6.0503826 1.3621701 -0.1084192
-6.0674911 1.3694705 -0.087648399
-5.6540742 1.3825657 -0.61481744
-5.6788726 1.3818768 -0.58320892
-5.6441073 1.3844225 -0.62773234
-5.6376362 1.3851613 -0.63605523
-5.6210284 1.3852744 -0.65717769
-5.6044207 1.3853877 -0.67830014
-5.5696578 1.3879635 -0.72282422
-5.5712047 1.3856138 -0.72054535
-5.5756316 1.3798155 -0.7141462
-4.3176079 -1.531764 -1.9249686
-4.2855215 -1.5164686 -1.9677869
-4.2537341 -1.5159554 -2.0082548
-4.2187996 -1.5158818 -2.0526636
-4.2301598 -1.5288444 -2.0364983
-4.2646918 -1.5267899 -1.9928845
-7.9774089 1.3507174 2.3422227
-7.9426556 1.3533685 2.2977006
-7.9373159 1.359072 2.290154
-7.9455795 1.3551675 2.3011768
-3.0976956 1.3563795 -3.8603058
-3.1344399 1.3588891 -3.8139408
-3.1309972 1.3562573 -3.8179657
-5.0033126 1.4772437 -1.4545082
-4.9471698 1.4351171 -1.5202475
-4.7548018 -1.5375479 -1.3685551
-4.7717543 -1.5327212 -1.347653
-4.7534342 -1.532786 -1.3709279
-8.0470533 -1.5468082 2.8169005
-7.4409862 -1.5083752 2.0415094
-7.4300685 -1.5083557 2.0276313
-7.4185066 -1.5168926 2.0140746
-7.3954749 -1.5305862 1.9866281
-7.3627453 -1.5272052 1.9445802
-7.3536506 -1.5260264 1.9328645
-7.3369126 -1.5282156 1.9118836
-7.320003 -1.5328885 1.8910152
-7.301816 -1.5305315 1.8675871
-7.275568 -1.5120956 1.8317699
-7.2577615 -1.5250422 1.8108648
-7.2113223 -1.5342879 1.7530761
-7.197752 -1.5383928 1.7363764
-7.1762176 -1.5367019 1.7087824
-7.1611223 -1.5386543 1.6898576
-7.1717815 -1.5417744 1.7038202
-7.1885715 -1.5394872 1.7248542
-7.2155609 -1.5457113 1.7599852
-7.2508335 -1.5408142 1.8041621
-7.2842441 -1.5387309 1.8463469
-7.3178234 -1.5341644 1.8884149
-7.3290973 -1.5340675 1.9027307
-7.3449368 -1.5399313 1.9236431
-7.4086266 -1.5851802 2.0106187
-7.4151773 -1.585192 2.0189457
-7.4421787 -1.5713794 2.0514221
-7.4862061 -1.5423329 2.1035068
-7.5051689 -1.5394523 2.1272233
-7.4853621 -1.5350323 2.1014609
-7.4673476 -1.5301918 2.0779204
-5.5317006 -1.5217009 -0.38328287
-5.5851197 -1.5191561 -0.31572995
-5.6217494 -1.5188943 -0.26921099
-5.6729684 -1.5241296 -0.20341772
-5.6884012 -1.517211 -0.18472576
-5.6417518 -1.4939325 -0.24711612
-5.5974603 -1.3634917 -0.32079229
-5.5943952 -1.3580843 -0.32540822
-5.5530596 -1.5013745 -0.35884598
-5.514061 -1.5118992 -0.40700817
-5.4792943 -1.509347 -0.45153436
-5.4463964 -1.5284814 -0.49079487
-5.4831948 -1.5257367 -0.44439232
-3.6701317 -1.5354689 -2.7473717
-3.7394931 -1.543064 -2.658206
-3.7744274 -1.5431376 -2.6137972
-3.8074722 -1.5212742 -2.5747135
-3.7540486 -1.523748 -2.6422813
-3.68418 -1.5236008 -2.7310991
-3.6521499 -1.5305685 -2.7708783
-8.2768803 1.3743365 2.7196829
-8.2430611 1.3649909 2.6779463
-8.2216339 1.3714741 2.6498499
-8.203104 1.3688644 2.6266477
-8.1535769 1.3722299 2.5632532
-8.2070312 1.3746721 2.6308649
-8.2237701 1.3768613 2.6518457
-8.1202726 1.3703344 2.521178
-8.1025333 1.3638113 2.4995029
-8.0978155 1.3619171 2.4937584
-8.0812492 1.3622111 2.4726648
-8.1011257 1.3648111 2.4975798
-4.1057577 1.3679879 -2.5806763
-4.0853772 1.3628708 -2.6058967
-4.0687695 1.3629841 -2.6270192
-4.0334973 1.3581127 -2.6711981
-4.0706558 1.365599 -2.6249704
-4.072372 1.3657318 -2.6228068
-5.0945582 -1.5322121 -0.93745953
-5.068181 -1.5284833 -0.97147971
-5.033247 -1.5284097 -1.0158887
-5.0178308 -1.5355157 -1.034534
-5.0399895 -1.5222229 -1.0081438
-5.0585942 -1.5224113 -0.98447317
-5.0627866 -1.5218247 -0.97922307
-5.0668135 -1.5237213 -0.97385234
-5.1019173 -1.5213122 -0.92955953
-5.1378808 -1.5311131 -0.88254589
-5.154664 -1.528769 -0.86152792
-5.1478124 -1.532221 -0.86977583
-5.110496 -1.5422814 -0.91586179
-8.4388399 -1.5558516 3.3160388
-8.3787031 -1.5630915 3.2405741
-8.3437786 -1.5629238 3.1961651
-5.7440271 -1.5313864 -0.11213972
-5.7765875 -1.5172184 -0.072646379
-5.7599669 -1.5170183 -0.093796812
-5.7433457 -1.5168185 -0.11494745
-6.7212048 -1.5237191 1.1287627
-6.7905698 -1.5313065 1.2179319
-6.7256122 -1.5326593 1.1355555
-6.6723619 -1.5327209 1.0678862
-6.5199027 1.3684211 0.48747516
-6.5572834 1.3539275 0.53691471
-6.5911627 1.3635627 0.57868922
-6.5544991 1.3633927 0.53211486
-8.073926 1.3612533 2.4634855
-8.0690575 1.3594326 2.4575408
-7.7687612 -1.55498 2.4642997
-7.8204241 -1.5529584 2.52969
-7.7658644 -1.5458871 2.4594064
-7.7325916 -1.5384164 2.4161232
-7.7136707 -1.5405953 2.3923664
-7.6963587 -1.5405849 2.3703625
-7.6628823 -1.5449637 2.3284001
-7.6972919 -1.5525815 2.3731477
-7.7156501 -1.5524552 2.3964629
-7.7489548 -1.55056 2.4385381
-6.5865445 -1.5224504 0.95745003
-6.5678926 -1.5275475 0.93442351
-6.5327883 -1.5299616 0.89013016
-6.5120974 -1.5158552 0.86195391
-6.444602 -1.5299543 0.77805084
-6.4780059 -1.5033705 0.81696177
-6.500843 -1.5027251 0.84590024
-6.548727 -1.5155935 0.90847284
-4.000802 -1.5166122 -2.3296261
-4.0357361 -1.5166857 -2.285217
-4.0538874 -1.5191035 -2.2618263
-4.0369349 -1.5239303 -2.2827284
-4.0300798 -1.5273817 -2.2909806
-3.9966063 -1.5171982 -2.3348804
-3.9641619 -1.5167419 -2.3761756
-3.9151793 -1.5285363 -2.4368575
-3.967066 -1.5237831 -2.3715463
-8.1334267 1.3716831 2.5377166
-8.1388025 1.3729442 2.5443804
-8.4690456 -1.5579134 3.3547032
-8.5007305 -1.553955 3.3944445
-8.5200214 -1.5658253 3.4205444
0 0 0 1 0 0 0 1 0 0 0 1 0 0 0 0 0 824 1 0 0
