ply
format ascii 1.0
comment PCL generated
element vertex 575
property float x
property float y
property float z
element camera 1
property float view_px
property float view_py
property float view_pz
property float x_axisx
property float x_axisy
property float x_axisz
property float y_axisx
property float y_axisy
property float y_axisz
property float z_axisx
property float z_axisy
property float z_axisz
property float focal
property float scalex
property float scaley
property float centerx
property float centery
property int viewportx
property int viewporty
property float k1
property float k2
end_header
1.7240142 -1.368409 2.3576789
1.741681 -1.2485971 2.3996997
1.7430613 -1.1685857 2.400506
1.7430069 -1.1361443 2.3992269
1.7439303 -1.0886267 2.3999767
1.7309151 -0.96835184 2.3617094
1.7462816 -0.84877658 2.3977203
1.7538651 -0.72887087 2.4133575
1.7508823 -0.64862955 2.4027407
1.7509845 -0.56874961 2.400208
1.7517325 -0.52930373 2.4007821
1.7499206 -0.4481498 2.3931968
1.7586007 -0.40822697 2.4145067
1.7599298 -0.36815545 2.416579
1.7620531 -0.32902056 2.4207625
1.7620255 -0.32800505 2.4206548
1.7578897 -0.29659611 2.4087334
1.7593143 -0.21775387 2.4096963
1.7587358 -0.20285372 2.4076605
1.7597485 -0.13785112 2.4080315
1.7625288 -0.096678138 2.413862
1.7596616 -0.058012843 2.405005
1.7559334 -0.016481996 2.3937955
1.7637297 0.10205925 2.4100373
1.7538381 0.143603 2.3827016
1.7655914 0.30204132 2.4078975
1.7688061 0.46213707 2.4106958
1.7677851 0.50193524 2.4066291
1.7693925 0.58198321 2.4080286
1.7708286 0.70322645 2.4075356
1.779771 0.73298395 2.429888
1.7799065 0.74298179 2.4298923
1.7801889 0.78294134 2.4292302
1.7807968 0.94271457 2.4252195
1.7813399 0.98270619 2.4252384
1.7674665 1.0629067 2.386131
1.7760448 1.1425247 2.4057829
1.7822301 1.182439 2.4205658
1.7814914 1.2621968 2.4158373
1.779574 1.3318274 2.4083803
1.7781457 1.341632 2.4042995
1.7440901 1.3440495 2.3151164
1.7307056 1.3644235 2.2793849
1.6896363 1.3580599 2.1721599
1.6719452 1.3679202 2.1255298
1.6444299 1.3536797 2.0540419
1.613117 1.3664178 1.9716723
1.5679104 1.3620375 1.853554
1.5541189 1.3524179 1.8178086
1.4913231 1.3653964 1.6530638
1.4776335 1.3632753 1.6173222
1.4638757 1.3561549 1.581578
1.4187372 1.3567739 1.4634621
1.4049796 1.3496536 1.4277182
1.3768302 1.3078867 1.3555362
1.3421837 1.3626322 1.2629731
1.310735 1.3653722 1.180599
1.2970452 1.3632511 1.1448572
1.2457998 1.3404326 1.0115855
1.2009267 1.3412455 0.89415717
1.1862246 1.3415428 0.85568237
1.1707112 1.356732 0.81456256
1.1580982 1.3422688 0.78207111
1.1215637 1.3620968 0.68579197
1.1118324 1.3529221 0.66065407
1.0940634 1.3529037 0.6141665
1.0845079 1.3562264 0.58905053
1.0667038 1.3537086 0.54255843
1.0488998 1.3511907 0.49606645
1.040226 1.3446206 0.47360384
1.0247571 1.3448391 0.43312573
1.0117738 1.3403214 0.39931643
0.99005628 1.3498802 0.34216249
0.98039532 1.3457044 0.31703329
0.93124783 1.3510692 0.18826258
0.87415814 1.3474432 0.039028406
0.8724395 1.3522583 0.034362912
0.82727575 1.3505453 -0.083737135
0.81356084 1.3484483 -0.11954534
0.78218234 1.3538315 -0.20182848
0.75478756 1.3521369 -0.27344096
0.72568285 1.3504927 -0.34952879
0.70556986 1.3525026 -0.40222013
0.67970854 1.3509657 -0.46982616
0.67817509 1.350808 -0.47383261
0.65252548 1.3515627 -0.54096508
0.63311684 1.3565936 -0.5919196
0.60565174 1.3499 -0.66354066
0.58795309 1.3548807 -0.71001965
0.55542839 1.3533369 -0.79505855
0.51491863 1.35392 -0.9010632
0.51144606 1.3610504 -0.91039836
0.48401615 1.3568562 -0.98201507
0.46624714 1.3568379 -1.0285027
0.44269562 1.3380674 -1.0894618
0.42108345 1.3551248 -1.1466027
0.41200534 1.3574566 -1.1704352
0.39760217 1.3413535 -1.2075531
0.37088037 1.3511728 -1.2778085
0.33942258 1.3515264 -1.3601227
0.29815781 1.3352443 -1.4675114
0.26683983 1.3455961 -1.5498103
0.24690475 1.326182 -1.6012851
0.23767185 1.3262386 -1.6254427
0.22399847 1.3266435 -1.6612301
0.2040291 1.3538016 -1.7144272
0.17643772 1.3371148 -1.7860285
0.14895114 1.3279265 -1.8576185
0.11770305 1.3432772 -1.9399098
0.10005844 1.3532239 -1.9864213
0.054892272 1.3514829 -2.1045268
0.013557643 1.3302019 -2.2119231
-0.004017055 1.3451477 -2.2584269
-0.034991831 1.3310616 -2.3389711
-0.04918316 1.3434066 -2.3765321
-0.06275174 1.35131 -2.4123082
-0.09009847 1.3521198 -2.4838829
-0.10774308 1.3620665 -2.5303946
-0.12145147 1.359972 -2.5661855
-0.15283933 1.3653246 -2.6484923
-0.16658258 1.3607303 -2.6842871
-0.19786566 1.3735815 -2.7665823
-0.25680998 1.3647468 -2.9204862
-0.28443632 1.3455606 -2.9920914
-0.3157194 1.3584116 -3.0743866
-0.3382518 1.3648788 -3.133564
-0.34710726 1.3637642 -3.156693
-0.37253562 1.3559688 -3.2229471
-0.39510331 1.3563664 -3.2820039
-0.42528042 1.3568856 -3.3609734
-0.43733463 1.3677807 -3.3928924
-0.4691138 1.3717371 -3.4761734
-0.48239592 1.373538 -3.5109861
-0.50041425 1.3844627 -3.5585101
-0.51578808 1.3848944 -3.5987468
-0.54195404 1.3456225 -3.665827
-0.57513654 1.3817995 -3.7539096
-0.58907425 1.3721955 -3.7900374
-0.62053776 1.3725353 -3.8723662
-0.63427663 1.3679453 -3.9081497
-0.65193152 1.3778743 -3.9546876
-0.67578268 1.3835891 -4.0172892
-0.72443736 1.3769419 -4.1443491
-0.75586593 1.3797814 -4.2266741
-0.78291917 1.3456961 -4.2962575
-0.78296173 1.3057641 -4.2949686
-0.78300428 1.2658318 -4.2936802
-0.79105127 1.1857923 -4.3119273
-0.79242957 1.0257994 -4.3099251
-0.80367887 0.98793185 -4.3380284
-0.79767096 0.94533753 -4.320817
-0.79878724 0.8653537 -4.3209338
-0.79492402 0.78582239 -4.3080387
-0.79548228 0.74583066 -4.3080969
-0.79240775 0.66583431 -4.2972488
-0.79772496 0.63527262 -4.3100891
-0.79229271 0.54569221 -4.292737
-0.79838848 0.46525607 -4.3058653
-0.79988194 0.42540494 -4.3083754
-0.80206776 0.38534907 -4.3126898
-0.80306065 0.34518215 -4.313879
-0.80112553 0.22562489 -4.3046255
-0.81225133 0.14560232 -4.3309283
-0.80026448 0.066015929 -4.2967777
-0.80211174 0.025874674 -4.3002033
-0.81047428 -0.0945023 -4.3178616
-0.80833912 -0.25433734 -4.306673
-0.81196988 -0.27472851 -4.3154569
-0.81098115 -0.3145411 -4.3114748
-0.81096411 -0.37454766 -4.3093262
-0.80210757 -0.47484094 -4.2826395
-0.80749547 -0.55469686 -4.2939367
-0.80916989 -0.67467248 -4.2941113
-0.81169868 -0.79462254 -4.2965221
-0.81140256 -0.83464003 -4.2943449
-0.83373046 -0.91459048 -4.3499579
-0.83749652 -0.93948317 -4.3589382
-0.84937012 -0.99413967 -4.3880868
-0.84907401 -1.034157 -4.3859091
-0.85048652 -1.0741234 -4.3882036
-0.84989417 -1.1541582 -4.3838482
-0.85130656 -1.1941247 -4.3861423
-0.84558833 -1.2743129 -4.368371
-0.85238874 -1.394135 -4.3819618
-0.85380125 -1.4341013 -4.3842564
-0.84100044 -1.4764107 -4.3492832
-0.82330024 -1.4738572 -4.3030643
-0.78689265 -1.5280218 -4.2059135
-0.7417599 -1.5287708 -4.0878086
-0.7281605 -1.5341787 -4.0520391
-0.69662726 -1.5295197 -3.9697034
-0.6830976 -1.5399268 -3.9339416
-0.6650939 -1.5248607 -3.8873675
-0.6514945 -1.5302687 -3.8515983
-0.63081634 -1.5183847 -3.7979152
-0.61982179 -1.5156116 -3.7692478
-0.5926578 -1.5289272 -3.6977129
-0.57523966 -1.5189199 -3.6524935
-0.56112456 -1.5242683 -3.6153772
-0.55451643 -1.5253859 -3.5980492
-0.54878402 -1.5253334 -3.5830536
-0.53382111 -1.5275857 -3.543828
-0.52842343 -1.527083 -3.5297239
-0.51732051 -1.5256735 -3.500725
-0.49721232 -1.5398449 -3.4476199
-0.48339716 -1.53534 -3.411634
-0.46831366 -1.5325193 -3.3722703
-0.45457032 -1.5279254 -3.3364754
-0.45183447 -1.528195 -3.329308
-0.43812612 -1.5261004 -3.2935166
-0.42307761 -1.5257795 -3.2541573
-0.40507755 -1.5242902 -3.2071166
-0.37611291 -1.5238388 -3.1313534
-0.37391385 -1.523241 -3.1256211
-0.36082849 -1.525473 -3.0913081
-0.35515347 -1.5262588 -3.0764332
-0.33297583 -1.5293709 -3.0183015
-0.31843516 -1.5285218 -2.9802892
-0.30132255 -1.5251503 -2.9356363
-0.26005772 -1.5088685 -2.8282475
-0.21499652 -1.5146259 -2.7101538
-0.15176636 -1.4928375 -2.545491
-0.12041336 -1.5006896 -2.4631882
-0.093031704 -1.4989998 -2.3916097
-0.061853528 -1.5193495 -2.3093262
-0.048215091 -1.5222539 -2.2735426
-0.034541696 -1.5226588 -2.2377553
-0.016687423 -1.5176084 -2.1912208
0.0012018979 -1.5100585 -2.1446824
0.023700684 -1.4907204 -2.0864975
0.040630534 -1.4906439 -2.0422072
0.051740155 -1.4909728 -2.0131302
0.073819607 -1.5016288 -1.9549911
0.12149245 -1.4918824 -1.8306081
0.12868783 -1.4907508 -1.8118228
0.15054837 -1.4927428 -1.75456
0.16011068 -1.4936039 -1.7295123
0.17779025 -1.5010509 -1.682997
0.19557467 -1.5009997 -1.6364701
0.21192229 -1.493621 -1.5939591
0.22628275 -1.4938294 -1.5563811
0.23157215 -1.4945641 -1.5425168
0.24209538 -1.4941171 -1.5150009
0.25345629 -1.4947785 -1.4852546
0.27157578 -1.4951706 -1.4378356
0.29142809 -1.4938359 -1.3859437
0.3068651 -1.4965408 -1.3454616
0.31174695 -1.495999 -1.3327084
0.33100313 -1.5007757 -1.2821617
0.33641946 -1.5045924 -1.2678573
0.34527153 -1.5093868 -1.24453
0.36705938 -1.5139465 -1.1873674
0.38155064 -1.5053508 -1.1497558
0.38973778 -1.5069379 -1.1282805
0.40043777 -1.5041484 -1.1003842
0.41105068 -1.5048665 -1.072593
0.42013013 -1.5057424 -1.0488081
0.42942831 -1.5052381 -1.0244993
0.43559897 -1.5059608 -1.0083299
0.44275504 -1.5052243 -0.98963356
0.47103149 -1.5134226 -0.91536754
0.48842245 -1.5069737 -0.87009442
0.50156337 -1.5064133 -0.83573389
0.51180482 -1.5060382 -0.80895287
0.52028435 -1.5112888 -0.78658402
0.52508938 -1.5076128 -0.77414167
0.55052555 -1.5068053 -0.70762229
0.55934948 -1.5077076 -0.68450499
0.56481397 -1.5075977 -0.67021221
0.57021797 -1.5083995 -0.65604591
0.57782459 -1.5085217 -0.63614076
0.592632 -1.5228785 -0.59689748
0.59809828 -1.5266222 -0.58246493
0.62411588 -1.520763 -0.51460153
0.65144038 -1.5240675 -0.44299769
0.69258511 -1.5177764 -0.33557272
0.69656897 -1.5248539 -0.32490206
0.72808796 -1.5202391 -0.24260175
0.7335192 -1.5264825 -0.22817349
0.74719894 -1.5268849 -0.19236946
0.75537729 -1.5260431 -0.17100239
0.79229236 -1.5301709 -0.074278116
0.82381141 -1.525556 0.0080221891
0.8319546 -1.5272137 0.02938509
0.85927916 -1.5305183 0.10098886
0.86343861 -1.5250983 0.1116811
0.90024817 -1.5367248 0.20839238
0.91805232 -1.5342069 0.25488424
0.93169701 -1.5371089 0.29068398
0.93582129 -1.5341886 0.30137193
0.96321607 -1.5324938 0.37298429
0.97294724 -1.523319 0.39812207
0.98521483 -1.5220565 0.4301728
0.99889457 -1.522459 0.46597683
1.0180407 -1.5266051 0.51621342
1.0431063 -1.5158522 0.5814147
1.0494442 -1.5164446 0.59801698
1.0714531 -1.5190514 0.65568948
1.0906694 -1.5181986 0.70593429
1.1220831 -1.5210822 0.78822184
1.1494777 -1.5193877 0.85983396
1.1851212 -1.5118523 0.95282221
1.1946064 -1.5201743 0.97793007
1.2302849 -1.5101393 1.0709226
1.2402461 -1.5209081 1.0973611
1.250701 -1.5182428 1.1246202
1.257504 -1.5209423 1.1425133
1.2821848 -1.5161275 1.2069161
1.2886971 -1.5213529 1.2241373
1.309474 -1.5219315 1.2785153
1.3273485 -1.5144145 1.325016
1.3504081 -1.5306376 1.3859148
1.3682122 -1.5281196 1.4324067
1.3860514 -1.5231022 1.4789028
1.4270205 -1.5293087 1.5863063
1.4598174 -1.5245622 1.6719451
1.4752864 -1.5247805 1.7124236
1.4907551 -1.5249989 1.7529016
1.5172075 -1.5358809 1.8224893
1.5495634 -1.5261879 1.9068012
1.5667063 -1.5162504 1.951303
1.5954587 -1.5268956 2.0269001
1.6211443 -1.5378566 2.0944843
1.631359 -1.5276136 2.1208496
1.6707487 -1.5107273 2.2233114
1.6842176 -1.5261271 2.2590895
1.6937028 -1.534449 2.2841969
1.711542 -1.5294315 2.3306932
1.7236884 -1.5299919 2.3624907
1.729557 -1.5119165 2.3772111
1.7337581 -1.449086 2.3859997
-1.2478535 -0.8413955 -5.4359775
-1.2442075 -0.7461459 -5.4297776
-1.2436492 -0.70615405 -5.429719
-1.2425332 -0.62617034 -5.4296031
-1.2417171 -0.58614856 -5.4288712
-1.2169911 -0.46723861 -5.3683496
-1.216433 -0.42724675 -5.3682919
-1.21645 -0.36722654 -5.37044
-1.2161711 -0.34723747 -5.3704109
-1.2150376 -0.32726023 -5.3681459
-1.2271711 -0.24706802 -5.4027014
-1.2119507 -0.1673183 -5.3656764
-1.2139556 -0.12724976 -5.3723269
-1.2010251 -0.047018021 -5.3413095
-1.211723 0.032717735 -5.3720932
-1.2088978 0.11265033 -5.3675041
-1.2132038 0.23280486 -5.3829813
-1.2078159 0.31266078 -5.3716846
-1.2264104 0.47370264 -5.4259777
-1.2545222 0.47443101 -5.4995513
-1.2539642 0.51442289 -5.4994936
-1.2029047 0.55316675 -5.3672667
-1.1540586 0.51229811 -5.23804
-1.1371338 0.51201725 -5.1937504
-1.1103384 0.47158286 -5.1222296
-1.1075176 0.47153601 -5.1148477
-1.087122 0.43148109 -5.0600829
-1.0603648 0.43109402 -4.9900661
-1.0459648 0.39084247 -4.9509807
-1.0328537 0.3504416 -4.9152622
-1.0197427 0.31004074 -4.8795443
-1.0204753 0.2575514 -4.8796206
-1.0105885 0.19131997 -4.8514328
-0.99726236 0.1110169 -4.8137531
-0.99807835 0.070995122 -4.8144846
-0.99863636 0.031003296 -4.8145428
-0.99867892 -0.0089288652 -4.8132544
-1.0143645 -0.089604422 -4.8514638
-1.0156305 -0.13017662 -4.8533535
-1.0153342 -0.17019404 -4.8511758
-1.0167298 -0.27018058 -4.8513217
-1.0146551 -0.30524331 -4.8446646
-1.015004 -0.33024505 -4.8447013
-1.0157987 -0.35030073 -4.846077
-1.0160778 -0.37028989 -4.8461065
-1.0166572 -0.43025458 -4.8455205
-1.0079368 -0.50859606 -4.8199596
-1.0080066 -0.51359499 -4.8199668
-1.0204368 -0.59040141 -4.8497949
-1.0236293 -0.65315759 -4.8559475
-1.0261402 -0.71059477 -4.8605032
-1.0402483 -0.79034019 -4.894618
-1.0408065 -0.83033204 -4.8946762
-1.0602328 -0.91044462 -4.9426918
-1.0721396 -0.94975853 -4.9724655
-1.087914 -0.98952067 -5.0123415
-1.1023991 -1.0291334 -5.0488501
-1.1179155 -1.0688657 -5.0880518
-1.1487331 -1.1882324 -5.1644945
-1.1503226 -1.2283438 -5.1672468
-1.1653234 -1.2680162 -5.205102
-1.1957146 -1.3199565 -5.2827926
-1.2105409 -1.3471315 -5.3206291
-1.2268734 -1.4268856 -5.3605633
-1.2421728 -1.4141883 -5.4010363
-1.2394263 -1.3464928 -5.3962231
-1.2390835 -1.2665987 -5.3981276
-1.2389559 -1.1468023 -5.4019928
-1.2395908 -1.1066996 -5.4050598
-1.2371843 -1.0567608 -5.4005146
-1.2372814 -1.0268267 -5.4018183
-1.2464399 -0.90611339 -5.4300108
-1.2484117 -0.88138735 -5.4360361
1.8531719 0.22023347 2.6398988
1.8479546 0.22100946 2.6262217
1.8474115 0.18101779 2.6262026
1.8539 0.15583381 2.6440611
1.8611174 0.17961189 2.6621099
0.26293322 0.8460362 -1.5425187
0.23168021 0.72650194 -1.6200944
0.23368479 0.68643379 -1.6134454
0.23227102 0.64646697 -1.6157432
0.28944892 0.56562328 -1.4633168
0.30475456 0.64525974 -1.426065
0.32098314 0.71751165 -1.3861395
0.32164717 0.76500237 -1.386067
0.30832133 0.84530616 -1.423746
-0.045775682 1.0917259 -2.3587947
-0.0024884045 1.0508327 -2.2441103
0.024677128 0.89028239 -2.1674099
-0.0055413544 0.85084343 -2.2450869
-0.020499378 0.85110581 -2.2842302
-0.038208097 0.69134235 -2.3249602
-0.097224295 0.73241234 -2.4808016
-0.095289737 0.85241723 -2.4799471
-0.075917184 0.97219503 -2.4334624
-0.040187955 0.53140223 -2.3245332
-0.068683416 0.65187478 -2.4033079
-0.11441913 0.57270598 -2.5201893
-0.1152353 0.53268528 -2.5209217
-0.071736336 0.45188549 -2.4042845
-0.003746897 -0.10920237 -2.2067373
-0.018961877 -0.10896859 -2.246552
-0.04664126 0.051524729 -2.3245945
-0.09095633 0.092303872 -2.4419637
-0.12201542 0.047780335 -2.5216618
-0.12960529 -0.067020029 -2.5374944
-0.10926956 -0.1473868 -2.4814734
-0.063579232 -0.10815307 -2.3633111
-0.0057266653 -0.26914254 -2.20631
0.0094656944 -0.28935081 -2.1658545
0.024166822 -0.28964162 -2.1273823
0.055526212 -0.15024383 -2.0502248
-0.66670811 1.0038377 -3.9802351
-0.72437239 1.1049454 -4.134644
-0.72815657 0.94679129 -4.1389999
0.15663975 0.80776608 -1.8192687
0.14253627 0.80800307 -1.8561753
0.11064713 0.72856867 -1.9368211
0.095900699 0.68892455 -1.9740119
0.094736993 0.56900501 -1.9728525
0.12383701 0.52845955 -1.895298
0.1690135 0.56763637 -1.7784779
0.19953413 0.64703894 -1.7014114
0.20009336 0.68703115 -1.7013502
0.18676752 0.76733482 -1.7390292
0.14109087 0.88806331 -1.8627634
0.18930653 0.96726727 -1.7393951
0.20533767 1.0070541 -1.6988482
0.19313028 1.1673421 -1.736405
0.14825603 1.168129 -1.8538353
0.13590015 1.1282694 -1.8847642
0.1172668 1.1286045 -1.9335257
0.086791471 1.089137 -2.0118735
0.085113928 0.96916044 -2.0120566
0.11365472 0.88862288 -1.9345632
0.29504085 0.96554482 -1.4627062
0.31249261 1.1252798 -1.4226474
0.35757846 1.0845863 -1.3032645
0.37060204 0.96431875 -1.2649754
0.31819719 0.88513064 -1.3993043
-0.30826959 0.65604341 -3.0302744
-0.31020412 0.53603852 -3.0311286
-0.37029341 0.53705931 -3.1883736
-0.36805663 0.69702804 -3.1881294
-0.2725952 0.97559869 -2.948143
-0.33212534 1.0166117 -3.1053269
-0.31471887 1.1364114 -3.0639868
-0.26702383 1.1355771 -2.9391747
-0.20493838 0.57419443 -2.7570634
-0.15697971 0.65336967 -2.6343665
-0.15757048 0.73340464 -2.6387179
-0.18529516 0.85396278 -2.7154791
-0.15211451 1.013521 -2.6342633
-0.12546292 0.8529135 -2.5589056
-0.15816128 0.81343961 -2.6430693
-0.086739719 0.41221264 -2.4421465
-0.11546746 0.33264861 -2.5145168
-0.10423681 0.21254274 -2.4809241
-0.043845356 0.25148556 -2.3242893
-0.028025836 0.33117905 -2.2856951
-0.041563243 0.4513894 -2.3253264
-0.010271788 0.53087759 -2.2462463
0.019946635 0.57031655 -2.1685696
0.037141457 0.73002291 -2.1291821
0.65851432 0.67170489 -0.50146407
0.70451188 0.75087726 -0.38389778
0.74851584 0.67010546 -0.26594043
0.71130967 0.51072407 -0.35769439
0.70113814 0.51092172 -0.38431275
0.67016339 0.55140245 -0.46676981
-1.1134651 -0.548549 -5.0946484
-1.1208496 -0.42837754 -5.1181808
-1.0893222 -0.3688125 -5.0377851
-1.0743639 -0.36907214 -4.998641
-1.0452422 -0.38965386 -4.9217296
-1.0332475 -0.5100385 -4.8861279
-1.0782073 -0.58912385 -5.0009823
0.58035219 0.43310425 -0.69759238
0.60801834 0.27259204 -0.61958367
0.54818761 0.27367595 -0.77615434
-0.23210391 0.73474467 -2.8337638
-0.23322234 0.65476036 -2.8338861
0.1229756 0.44850382 -1.8947487
0.078108162 0.52927184 -2.0149651
0.034602478 0.53009057 -2.1288161
0.032622635 0.37015042 -2.1283889
0.0046863258 0.53061521 -2.2071028
0.77266091 -0.95020294 -0.14597011
0.7577033 -0.94993198 -0.18511271
0.7292704 -0.78949863 -0.26512456
0.76590025 -0.7500937 -0.17067266
0.83606982 -0.75124502 0.012949586
0.77634144 -0.67028123 -0.14615369
0.77664816 -0.63031495 -0.14675236
0.79273045 -0.55060071 -0.10747135
0.85220313 -0.63159078 0.050964117
0.85189652 -0.67155707 0.051562786
-0.2085788 -1.349202 -2.6991625
-0.22733334 -1.3269004 -2.749011
-0.25176308 -1.2459066 -2.8157649
-0.25220713 -1.2409647 -2.8170996
-0.24987391 -1.1658367 -2.8136292
-0.21089119 -1.0865763 -2.7144186
-0.16302758 -1.0080122 -2.591949
-0.13259745 -1.00848 -2.5123196
-0.11218491 -1.1689388 -2.45329
-0.13308102 -1.2081841 -2.5065839
-0.16647527 -1.2729318 -2.5916822
0.41452008 -0.1565396 -1.1107823
0.48426747 -0.12500817 -0.92941016
0.48150718 -0.28503108 -0.93102223
0.43688974 -0.28419191 -1.0477824
0.42274994 -0.24390207 -1.0861883
0.10633993 0.32878956 -1.9340754
0.076121554 0.28935066 -2.0117521
0.070480123 0.28944543 -2.0265148
0.042547986 0.0099586248 -2.0897951
-0.0012078583 0.090729922 -2.2071033
-0.016165972 0.090992272 -2.2462468
0.80650735 -0.95079279 -0.057398319
0.84506559 -0.87136793 0.040695906
0.84619021 -0.79138267 0.040834188
0.69945121 0.39094403 -0.38452029
0.66618109 0.51151049 -0.47579008
0.62466288 0.39229885 -0.58023351
0.6679002 0.31144825 -0.46427929
0.65258461 0.23181292 -0.50155711
0.64982426 0.07179004 -0.50316924
0.71052396 0.15066504 -0.34712803
0.67835945 -0.0087633431 -0.42568994
0.72471476 -0.049358368 -0.30298924
0.7508384 -0.010016352 -0.23602211
0.76969004 0.029708713 -0.18809402
0.74202383 0.19022092 -0.26610267
1.457653 -0.84397149 1.6424241
1.4135327 -0.92306364 1.5297666
1.3850486 -0.80257034 1.4510207
1.4155774 -0.7231797 1.5281091
0.79936385 0.10912448 -0.11324346
0.84564006 0.068295032 0.0092585087
0.85800469 -0.09186846 0.047222257
0.82778263 -0.13129281 -0.030464411
0.79598999 -0.13083096 -0.11365843
0 0 0 1 0 0 0 1 0 0 0 1 0 0 0 0 0 575 1 0 0
