ply
format ascii 1.0
comment PCL generated
element vertex 636
property float x
property float y
property float z
element camera 1
property float view_px
property float view_py
property float view_pz
property float x_axisx
property float x_axisy
property float x_axisz
property float y_axisx
property float y_axisy
property float y_axisz
property float z_axisx
property float z_axisy
property float z_axisz
property float focal
property float scalex
property float scaley
property float centerx
property float centery
property int viewportx
property int viewporty
property float k1
property float k2
end_header
-5.6653953 1.4433166 3.2574663
-5.7761793 1.4462425 3.3171315
-5.8078403 1.4404188 3.3350465
-5.8359413 1.4244586 3.3523467
-5.8502207 1.4201795 3.3606408
-5.865366 1.4061643 3.3706665
-5.8836141 1.3948833 3.3820195
-5.8977408 1.3881365 3.3905509
-5.9407301 1.3777677 3.4151952
-6.0083723 1.3885952 3.4504533
-6.0406427 1.3926419 3.4674189
-6.133131 1.3823069 3.5188873
-6.0830231 1.3724025 3.4930129
-6.051362 1.3782259 3.4750979
-6.0192447 1.3766469 3.457895
-5.7723155 1.4311706 3.3169913
-5.8388147 1.4148208 3.3551536
-5.8615789 1.400997 3.3692837
-5.9086127 1.3761886 3.3979924
0.61306381 -1.5362849 0.24088001
0.68105173 -1.5457783 0.20526171
0.67730761 -1.5376189 0.20623326
0.42782068 -1.5486017 0.34287786
0.38133907 -1.5485985 0.3680706
0.33458328 -1.543663 0.39277196
0.40590525 -1.5317135 0.35256672
0.50635624 -1.5480391 0.30023909
-4.8020167 -1.5411041 3.176456
-4.8347979 -1.5339499 3.1932955
-4.8492212 -1.535728 3.2013435
-4.8841906 -1.5316377 3.2197664
-4.931035 -1.5312483 3.2451055
-4.9446878 -1.5408734 3.2537532
-4.9269395 -1.5443971 3.2445905
-4.8633566 -1.5424407 3.2098751
0.64597893 1.3622621 -0.15276289
0.68844318 1.3753504 -0.17747545
0.65986013 1.3715571 -0.16149163
0.50210524 1.3827621 -0.077441931
0.53055143 1.3890213 -0.093671083
0.5526042 1.3696672 -0.1031146
0.50612259 1.3696705 -0.077922106
0.48836088 1.3710009 -0.068467855
0.45923042 1.3770717 -0.05346632
-1.5637369 -0.84135795 1.3305981
-1.4992812 -1.0023918 1.3165418
-1.5013988 -1.0130743 1.3190746
-1.48893 -1.1479393 1.329802
-1.4751918 -1.1838489 1.3270117
-1.3956416 -1.2424343 1.2914916
-1.300786 -1.3037186 1.2480259
-1.3776009 -1.3147838 1.2910939
-1.3584695 -1.5073407 1.3056903
-1.3340726 -1.513705 1.2932924
-1.3019083 -1.515615 1.2761071
-1.2414539 -1.5063293 1.2421372
-1.1629117 -1.5057843 1.199497
-1.1304736 -1.5126261 1.1828028
-1.1874642 -1.5276196 1.2156353
-1.2058306 -1.5216134 1.2248111
-1.2688167 -1.525295 1.2594267
-1.3009932 -1.5234098 1.2766218
-1.5026886 -0.7815187 1.2897519
-1.5347281 -0.7820996 1.3071924
-1.5989435 -0.78079522 1.3418279
-1.6314871 -0.7758882 1.3588302
-1.6458373 -0.77778703 1.3668541
-1.6773438 -0.78383577 1.3847147
-1.6919415 -0.78517395 1.3928001
-1.7271004 -0.78311896 1.4115896
-1.7414222 -0.78499758 1.4195956
-1.7558813 -0.78441012 1.4273561
-1.8301919 -0.72403777 1.4598048
-1.8571229 -0.63642424 1.4630419
-1.8544767 -0.60300577 1.4572749
-1.8451505 -0.5600161 1.4466465
-1.8934219 -0.5605526 1.4728789
-1.8876505 -0.66413349 1.4831804
-1.8903353 -0.75984442 1.4970447
-1.89714 -0.79353166 1.5051005
-1.8757107 -0.9482013 1.5135391
-1.9002633 -0.98997593 1.5322627
-1.9110365 -1.0287693 1.5431315
-1.8824198 -1.074693 1.5335753
-1.8638778 -1.090788 1.5256125
-1.7656989 -1.1260384 1.4769702
-1.6959391 -1.2340844 1.4531691
-1.5832057 -1.2152641 1.3896279
-1.5715003 -1.2155585 1.3833219
-1.4601073 -1.2361485 1.3256168
-1.4119551 -1.2734179 1.3043506
-1.3890076 -1.3131298 1.2970619
-1.4309366 -1.4936726 1.3431951
-1.4628384 -1.4967198 1.3608807
-1.4926624 -1.4876692 1.3758718
-1.5266421 -1.5028141 1.3962522
-1.5905828 -1.5064421 1.4313782
-1.6483779 -1.5134194 1.4636075
-1.6511283 -1.5132465 1.4650759
-1.6802685 -1.5164413 1.481284
-1.7230365 -1.5117371 1.503854
-1.727618 -1.5113022 1.5062808
-1.7861774 -1.5051401 1.5372208
-1.7942936 -1.5051179 1.5416169
-1.8230028 -1.5156326 1.5585405
-1.7897987 -1.5280242 1.5421505
-1.6932688 -1.53368 1.4905651
-1.6624546 -1.5202501 1.4721227
-1.6159399 -1.5202612 1.4469134
-1.5659616 -1.5259798 1.4205668
-1.5339339 -1.5254238 1.4031358
-1.5044293 -1.527018 1.387351
-1.4692931 -1.5260642 1.3681839
-1.3913369 -1.5237668 1.3256339
0.46022129 -1.0946612 0.26646256
0.55085897 -1.0527452 0.2119031
0.60551262 -1.0813977 0.18599582
0.59539461 -1.1529576 0.2007575
0.61214876 -1.2010007 0.19790578
0.62176704 -1.277045 0.20255208
0.61563778 -1.2638848 0.20416784
0.50231314 -1.2156926 0.25934124
0.48829508 -1.2225214 0.26782417
0.40512562 -1.2044464 0.31055808
0.31086254 -1.1754613 0.35789037
0.24579763 -1.1593311 0.39106393
0.19515514 -1.1566243 0.41816092
0.19657946 -1.1100069 0.41134501
0.22781181 -1.0946447 0.39242554
0.25584745 -1.080987 0.37545967
0.28790092 -1.0804211 0.35801339
0.33451986 -1.0828904 0.33306623
0.36684704 -1.0872564 0.31611109
0.41305542 -1.0823277 0.29042745
0.26714325 -1.5440338 0.42937231
0.22079849 -1.5464965 0.45481038
0.1589303 -1.5286615 0.48603034
0.13244247 -1.5016716 0.49688721
0.15463877 -1.5106378 0.48601961
0.24910784 -1.537771 0.43833542
0.2557745 -1.5392938 0.4349196
-0.74624586 -0.77940917 0.87948954
-0.78228426 -0.76439363 0.89707553
-0.79663444 -0.76629245 0.90509939
-0.85736275 -0.77064633 0.93857837
-0.93604159 -0.76872534 0.98097301
-0.86443448 -0.94411665 0.96490204
-0.94463134 -1.0372142 1.0204388
-0.9655385 -1.0837631 1.0378056
-0.95932031 -1.0818534 1.0341876
-0.91994905 -1.0458419 1.0081797
-0.86130261 -0.94462818 0.9632709
-0.81671309 -0.92544812 0.93661678
-0.76851368 -0.89910889 0.90707803
-0.71720481 -0.88495046 0.87743318
-0.69229841 -0.85664183 0.86026382
-0.69932961 -0.80215114 0.85700989
-0.72130132 -0.79563761 0.86807394
-1.439322 -0.77255166 1.2542449
-1.3569055 -0.78511232 1.2112041
-1.264287 -0.77773637 1.1600488
-1.3323531 -0.76327688 1.1950657
-1.3607798 -0.77200663 1.2116046
-1.4108953 -0.7638219 1.2377059
-7.1078763 1.3778399 4.0477743
-7.0439563 1.4058956 4.0094924
-7.0841055 1.405068 4.0313606
-7.1255627 1.3812302 4.0569205
-0.98372841 -1.5290065 1.1053911
-0.90518641 -1.5284615 1.0627511
-0.80881619 -1.5087259 1.0079601
-0.76660037 -1.5112326 0.98540425
-0.7344358 -1.5131426 0.96821892
-0.68805838 -1.5106876 0.94276416
-0.67384481 -1.5063227 0.93449461
-0.60951614 -1.5101426 0.90012395
-0.54865122 -1.5082548 0.86689067
-0.50311303 -1.5216696 0.84394836
-0.57361388 -1.5226922 0.88229227
-0.60577846 -1.5207822 0.8994776
-0.63794303 -1.5188723 0.91666305
-0.69142723 -1.5235096 0.94625258
-0.71648502 -1.5194173 0.95930326
-0.74851251 -1.5199733 0.97673404
-0.76272583 -1.5243382 0.98500359
-0.89525795 -1.503593 1.0541457
-0.17712736 -1.514024 0.66627431
-0.20945454 -1.509658 0.68322921
-0.22360897 -1.5140207 0.69146681
-0.25219202 -1.5178142 0.70745039
-0.25940609 -1.5175295 0.7113235
-0.29493713 -1.5153604 0.73029995
-0.3377142 -1.5259891 0.75486302
-0.28050184 -1.5265396 0.72392559
-0.27352238 -1.5273428 0.72024679
-0.2232604 -1.5226606 0.69239807
-0.19484282 -1.5292637 0.67785192
-0.18062973 -1.524899 0.66958261
-0.16627932 -1.523 0.66155839
-0.13757896 -1.5192022 0.64551067
-2.8462868 -0.64289558 2.0000036
-2.8455696 -0.65523195 2.0012145
-2.8512621 -0.81067115 2.0244527
-2.8006096 -0.84641695 2.0016339
-2.7092276 -0.92566633 1.9623799
-2.6990867 -0.97059035 1.9627082
-2.7266407 -1.0478048 1.9876534
-2.8861861 -1.0148975 2.06986
-2.9040773 -1.0089065 2.0787802
-2.9243536 -1.0128338 2.0902789
-2.9495635 -1.0187447 2.1047089
-2.9807882 -1.0148063 2.1211221
-2.9966707 -1.0089239 2.1289675
-3.0264606 -0.99522489 2.1433375
-3.0513818 -0.97163731 2.1537864
-3.0636766 -0.95857042 2.158756
-3.0784998 -0.95295459 2.1660621
-3.1102109 -0.95861864 2.1839836
-3.203136 -0.96118212 2.2346809
-3.2207403 -0.96012568 2.2440856
-3.2828112 -0.96352035 2.2781677
-3.28861 -0.9638347 2.2813516
-3.3274851 -0.97434419 2.3037844
-3.2800908 -0.98909962 2.2800097
-3.2294607 -1.0907407 2.2657466
-3.2334211 -1.1292508 2.2728858
-3.2248125 -1.1395543 2.269556
-3.1650248 -1.1773245 2.2420483
-3.0475676 -1.2523322 2.188112
-3.000607 -1.3285518 2.1725416
-2.9922872 -1.3683537 2.1731925
-2.9227567 -1.4801223 2.1499984
-2.8685098 -1.5079641 2.1242065
-2.9315443 -1.4997416 2.157305
-2.9795678 -1.4921215 2.1823454
-3.0444679 -1.4862577 2.2167609
-3.057476 -1.4863393 2.2238219
-3.0904288 -1.4961748 2.2429571
-3.1714554 -1.5064464 2.2882051
-3.2642369 -1.5114772 2.3391447
-3.1682439 -1.5092888 2.286833
-7.9675741 -0.7879824 4.7945309
-8.013073 -0.77347469 4.8173099
-8.0504389 -0.79381323 4.840199
-8.0311413 -0.83663791 4.8352919
-8.0036716 -0.8823328 4.8263283
-7.9496002 -1.0353354 4.8168588
-7.9464531 -1.1151457 4.8255005
-7.9272509 -1.1898296 4.8247762
-7.9196496 -1.1889623 4.8205438
-7.7963939 -1.1779324 4.7523098
-7.7091179 -1.1995338 4.7078071
-7.6651983 -1.265467 4.6925511
-7.648592 -1.3081185 4.6890807
-7.6843014 -1.4859712 4.7314939
-7.7012625 -1.4924231 4.7415233
-7.7108345 -1.4993219 4.7476058
-7.8092723 -1.4896877 4.7997093
-7.88626 -1.5055009 4.8434868
-7.949995 -1.5195957 4.879858
-7.8678122 -1.533638 4.8371363
-7.8031969 -1.5442622 4.8034925
-7.788682 -1.542455 4.7953911
-7.7714181 -1.540938 4.7858377
-7.7425394 -1.5348563 4.7693968
-7.6180224 -1.5237374 4.7004676
-7.5998511 -1.5370252 4.6923418
-7.5260401 -1.5036054 4.6480036
-7.4865952 -1.5155777 4.6281767
-7.4798326 -1.5121703 4.6240697
-7.4447651 -1.5028427 4.6038537
-7.401967 -1.5001559 4.5803089
-7.2894039 -1.5177189 4.5215774
-7.2055292 -1.5081072 4.4748716
-7.1976776 -1.494802 4.4688911
-7.2976441 -1.5025842 4.5240812
-7.3542948 -1.4580362 4.5490103
-7.3885202 -1.4660046 4.568593
-7.4690118 -1.4349806 4.6081967
-7.5443811 -1.4577062 4.6519933
-7.1895275 1.3774282 4.092082
-7.218092 1.3664516 4.1089873
-7.2613454 1.3654617 4.1325588
-7.2969208 1.3703929 4.1512008
-7.3114276 1.3686062 4.1592951
-7.3430643 1.3628339 4.1771908
-7.3636484 1.3645791 4.1881208
-7.3420548 1.3686632 4.1758881
-7.3257327 1.3710872 4.1667271
-7.3001418 1.3780648 4.1519523
-7.2828956 1.3839239 4.1418452
-7.245594 1.404291 4.1189871
-7.2366719 1.4041635 4.1141682
-7.2042289 1.3825771 4.0993829
-6.6504612 1.3704153 3.8008199
-6.6149364 1.3611671 3.7827644
-6.5364218 1.3622876 3.7400646
-6.6039124 1.3706478 3.7755604
-6.2709465 -0.7668786 3.8722296
-6.1745653 -0.77204746 3.8206615
-6.1598535 -0.77520418 3.813097
-6.0634723 -0.78037304 3.761529
-6.0530648 -0.77837962 3.7556298
-6.0316334 -0.77716136 3.743856
-5.963376 -0.77567279 3.7066677
-5.8919821 -0.77699608 3.6681442
-5.8454318 -0.776941 3.6429069
-5.8130164 -0.78359866 3.6262012
-5.7778974 -0.78566599 3.6074347
-5.7139311 -0.78417718 3.5725725
-5.7023559 -0.78452218 3.5663433
-5.6675253 -0.78165478 3.5470934
-5.6529574 -0.7823441 3.5392873
-5.6353979 -0.78337777 3.5299041
-5.5711441 -0.78682369 3.4955254
-5.5567207 -0.78504562 3.4874775
-5.4990273 -0.77793348 3.4552858
-5.4814672 -0.77896714 3.4459026
-5.4639082 -0.78000075 3.4365194
-5.4317808 -0.78172374 3.4193301
-5.4203496 -0.77960134 3.412859
-5.3849421 -0.78660339 3.3945761
-5.3528152 -0.78832632 3.3773868
-5.3203993 -0.79498404 3.3606811
-5.3024077 -0.80341977 3.3520231
-5.2999568 -0.84536481 3.356133
-5.2969246 -0.91439688 3.3634398
-5.3333192 -1.0280474 3.3979006
-5.3335428 -1.0330466 3.3986702
-5.3332443 -1.0724165 3.4036126
-5.3289299 -1.1120019 3.4064064
-5.3583765 -1.2334958 3.4381185
-5.3716879 -1.2733887 3.4505053
-5.3721337 -1.272112 3.4505816
-5.5060711 -1.2168055 3.5160046
-5.5442944 -1.2972219 3.5471475
-5.572032 -1.3794535 3.5728426
-5.5026431 -1.4962256 3.5503738
-5.4859233 -1.4994899 3.5417349
-5.3996758 -1.5289874 3.4988139
-5.4315147 -1.5321991 3.5164866
-5.4457936 -1.5364445 3.5247762
-5.4634976 -1.5329435 3.5339179
-5.5603113 -1.5203726 3.5847604
-5.5891581 -1.5239286 3.6008563
-5.6348438 -1.5387878 3.6275444
-5.7136655 -1.5346527 3.6697292
-5.7639284 -1.5220265 3.6953344
-5.7927752 -1.5255827 3.7114305
-5.856741 -1.5270715 3.7462926
-5.9207067 -1.5285602 3.7811551
-5.9815369 -1.5328608 3.814682
-6.0135198 -1.5336051 3.8321133
-6.0459075 -1.511878 3.8468502
-6.1050301 -1.5090203 3.8785241
-6.1474209 -1.5117583 3.9018545
-6.1677237 -1.5156806 3.9133673
-6.2141304 -1.518203 3.9388461
-6.2821765 -1.5095425 3.9746041
-6.2969675 -1.5138524 3.9831798
-6.3087268 -1.518141 3.9901092
-6.3282299 -1.5269334 4.0018196
-6.4098501 -1.5232544 4.0455809
-6.4422326 -1.5165796 4.0622663
-6.4741774 -1.517305 4.0796742
-6.5065594 -1.5106304 4.0963602
-6.5955143 -1.5824184 4.1538806
-6.6022758 -1.6070571 4.1607399
-6.7544861 -1.5520561 4.2361059
-6.7653275 -1.5611062 4.2431555
-6.7919822 -1.5670114 4.2583675
-6.8506069 -1.5855911 4.292551
-6.9370356 -1.524914 4.3315282
-6.9427881 -1.5223644 4.3343153
-6.9711037 -1.4434257 4.3394275
-6.9541211 -1.4088423 4.3257394
-6.8294773 -1.3215829 4.2468696
-6.8424864 -1.2473103 4.2442908
-6.8408098 -1.2080609 4.2382936
-6.8004332 -1.2080145 4.216403
-6.8108053 -1.2800593 4.2313657
-6.7766724 -1.4031292 4.2288222
-6.684083 -1.4474938 4.184391
-6.6105986 -1.4754795 4.1481915
-6.5336428 -1.3509386 4.0903349
-6.5304232 -1.2972667 4.0816307
-6.5429926 -1.2594311 4.0835381
-6.546638 -1.2217609 4.0806298
-6.604887 -1.1261195 4.0998006
-6.6707277 -1.0955325 4.1315198
-2.261024 -1.5314701 1.7979994
-2.2287099 -1.5358216 1.7810495
-2.1680272 -1.5314832 1.7475973
-2.1537056 -1.5296046 1.7395914
-2.1215289 -1.5314898 1.7223963
-2.0894899 -1.5309089 1.7049559
-2.0573132 -1.5327942 1.6877607
-2.1261613 -1.5061173 1.7216175
-2.1830361 -1.5210308 1.7543769
-2.2190206 -1.5085704 1.7722648
-2.2919772 -1.5191767 1.8131821
-2.3297348 -1.5072595 1.8321015
-2.375546 -1.5195839 1.8585289
-2.3895929 -1.5263951 1.8670254
-2.450413 -1.5282671 1.9002323
-2.5092525 -1.5226212 1.931391
-2.5213807 -1.521395 1.9378054
-2.5677714 -1.5239103 1.9632752
-2.6311936 -1.5352383 1.9991184
-2.6784446 -1.5229502 2.0231352
-2.7565465 -1.5311296 2.0665264
-2.8080125 -1.4987283 2.0902197
-2.7252111 -1.338418 2.0245574
-2.7977002 -1.2183262 2.0482759
-2.8024006 -1.2161882 2.0505462
-2.9188561 -1.1928844 2.1106434
-2.9810457 -1.2778552 2.1553664
-2.9832873 -1.2860544 2.1576445
-2.9881186 -1.3276571 2.165657
-2.253475 -1.0842676 1.735927
-2.203511 -1.1535654 1.7178315
-2.1173451 -1.0887469 1.662726
-2.1126492 -0.99315387 1.647787
-2.121357 -0.9520191 1.6471734
-2.1325984 -0.81499755 1.635501
-2.1112375 -0.71986371 1.6115892
-2.1102352 -0.68382692 1.6063737
-2.11114 -0.62451839 1.5991746
-2.1297836 -0.56501329 1.6015644
-2.1569514 -0.63684285 1.625602
-2.1955197 -0.68206489 1.652369
-2.1875765 -0.75989741 1.658155
-2.1759293 -0.79279339 1.6561074
-2.1583917 -0.91148913 1.6619912
-2.1587288 -0.92162549 1.663488
-2.1852608 -0.99925143 1.6879327
-2.2092056 -1.037179 1.7058281
-2.5412936 -0.59543717 1.8285456
-2.5303364 -0.61047405 1.8245562
-2.5230067 -0.63583916 1.8238723
-2.522016 -0.65027606 1.8252072
-2.5308895 -0.72439045 1.8396257
-2.5332148 -0.76772702 1.8465047
-2.559324 -0.86009043 1.8726308
-2.5259295 -0.92133379 1.8624716
-2.5170069 -0.97289944 1.8643211
-2.5089245 -1.0051967 1.864128
-2.5067263 -1.044656 1.8680525
-2.5080733 -1.0852017 1.8740395
-2.498848 -1.1195732 1.8734957
-2.5194101 -1.1342597 1.8865445
-2.5438313 -1.1646792 1.9037247
-2.5730176 -1.1841098 1.9220625
-2.6042986 -1.1971757 1.9407108
-2.715167 -1.338961 2.0191839
-2.6183777 -1.5063126 1.9884219
-2.5627761 -1.4973617 1.9571257
-2.5330639 -1.5056981 1.9421024
-2.5253091 -1.5062163 1.9379666
-2.4870849 -1.5034757 1.916894
-2.4643817 -1.5043823 1.9047065
-7.8174372 1.3994359 4.429553
-7.8362303 1.3966326 4.4401026
-7.8656178 1.3990451 4.4557176
-7.9501257 1.3911871 4.5025392
-7.8340483 1.3459247 4.4454942
-7.8025718 1.3541836 4.4273634
-7.7883592 1.3609258 4.418786
-7.7244225 1.3673245 4.3833032
-7.6927862 1.3730971 4.3654079
-7.7457218 1.3811518 4.3930545
-7.8084388 1.4011129 4.4244585
-6.7247791 -0.92682844 4.1389427
-6.6886029 -0.78958052 4.101541
-6.6454401 -0.78513193 4.07757
-5.2895918 -1.5200415 3.4379888
-5.3742533 -1.5176849 3.4835694
-5.3852525 -1.5272094 3.4907658
-6.0129633 -1.4746039 3.824162
-5.9364276 -1.508132 3.7870269
-5.9100361 -1.5144666 3.7735443
-5.8372698 -1.3459196 3.7122526
-5.8165264 -1.1699393 3.6781936
-5.9164762 -1.1545565 3.7303715
-5.927619 -1.1616136 3.7373259
-5.9414659 -1.1732612 3.746341
-5.9766793 -1.1960609 3.7683825
-6.0386267 -1.2320925 3.8066294
-6.047946 -1.2438909 3.8132098
-6.0942078 -1.2488806 3.8389306
-6.158462 -1.2454348 3.8733094
-6.2110882 -1.234745 3.9004464
-6.3494844 -1.2991405 3.9838059
-6.3777432 -1.3371356 4.0040483
-6.3370972 -1.4768977 4.0001383
-6.2721219 -1.4926805 3.9669685
-6.257699 -1.4909024 3.9589207
-6.1925793 -1.5091524 3.9259925
-6.1389418 -1.5021906 3.8960185
-6.128902 -1.5027289 3.8906467
-6.1143341 -1.5034182 3.8828406
-6.079792 -1.4956162 3.8631072
-6.027019 -1.47385 3.8316824
-2.8228989 -0.57194465 1.9781287
-2.8190193 -0.56074649 1.9745741
-2.8146396 -0.44899723 1.9577117
-2.8217299 -0.36116022 1.9501662
-2.8124366 -0.34932876 1.9435954
-2.7660685 -0.34664822 1.9181166
-2.7246027 -0.33434367 1.894047
-2.717329 -0.32992256 1.8895314
-2.7029822 -0.3301416 1.8817838
-2.6952319 -0.33111721 1.8777099
-2.648437 -0.35765618 1.855788
-2.6545255 -0.40637082 1.8654039
-2.6664424 -0.45575386 1.8782654
-2.6051948 -0.56362081 1.8590547
-2.5885096 -0.57546365 1.8515466
-2.5557828 -0.58721375 1.8353325
-8.0602989 -1.5239725 4.9402103
-8.0424309 -1.5323255 4.9316082
-8.013855 -1.5213089 4.9146919
-7.2769723 -0.78400582 4.4197121
-7.319973 -0.79052532 4.4438634
-7.3695946 -0.77558213 4.4688206
-7.4305544 -0.78005302 4.5024405
-7.4768476 -0.7851842 4.5281963
-7.5240393 -0.79058254 4.5544739
-7.6019697 -0.78643328 4.5961738
-7.634202 -0.78235489 4.6131148
-7.7304454 -0.77752227 4.6646519
-7.7590218 -0.78853893 4.6815681
-7.8177323 -0.79987782 4.7148595
-7.8697801 -0.7855134 4.7412066
-7.9194269 -0.78048444 4.7674632
-6.539258 -1.0061982 4.0486813
-6.6651382 -1.0005951 4.1161814
-6.7109275 -0.95563763 4.1351705
-6.0848951 -0.91099793 3.7900758
-6.1830783 -0.87498713 3.8386219
-6.2759452 -0.90453339 3.892786
-6.2350788 -1.0812664 3.8935504
-6.0709076 -1.0260746 3.7974148
-3.0313652 -1.4622664 2.2065487
-3.0620728 -1.4852012 2.2261655
-3.3461237 -1.5069454 2.3829393
-3.3887298 -1.522172 2.4080057
-3.3600869 -1.516133 2.3916984
-7.2482591 -0.77533579 4.4030252
-7.2339025 -0.7710008 4.3946819
-7.2108083 -0.77185607 4.3822761
-7.1990681 -0.77222669 4.3759608
-7.1787224 -0.7734865 4.365097
-7.1669407 -0.77394974 4.3587713
-7.1341681 -0.76995623 4.3404913
-7.073596 -0.77724081 4.3086057
-7.0707035 -0.77665132 4.3069615
-7.0385766 -0.77837425 4.289772
-6.9982896 -0.76844388 4.2666492
-6.9661989 -0.77018517 4.2494822
-6.9341087 -0.77192652 4.2323151
-6.9484653 -0.77626151 4.2406588
-6.960043 -0.77757478 4.2471037
-7.0368357 -0.8579163 4.2991419
-7.082262 -0.87777686 4.3263373
-7.1279793 -0.89270401 4.3530512
-7.1709089 -0.88641304 4.3755035
-7.1920142 -0.89168805 4.3876262
-7.2138109 -0.90393758 4.4010282
-7.2209816 -1.0685405 4.4262562
-7.253912 -0.90192407 4.4225016
-7.3183975 -0.86557311 4.4527397
-7.411499 -0.85980535 4.5024524
-7.4308 -0.86554933 4.513658
-7.4545627 -0.86125278 4.5259805
-7.4895759 -0.86072463 4.544889
-7.5363226 -0.85845339 4.569931
-7.5682526 -0.85930997 4.587348
-7.6446619 -0.89490712 4.6333766
-7.6673684 -1.0462782 4.665309
-7.5982351 -1.1007823 4.6349058
-7.5653524 -1.1007503 4.6170793
-7.5517907 -1.0981184 4.6093879
-7.5048461 -1.0888771 4.5827456
-7.4669437 -1.0661436 4.5592556
-7.458642 -1.0599043 4.553947
-7.4036794 -1.0696325 4.5254188
-7.3805761 -1.0739151 4.5134521
-7.3775802 -1.0780485 4.5123644
-7.2228355 -1.0709072 4.4275675
-7.5681133 1.3816496 4.2967267
-7.5883675 1.3783227 4.308136
-7.6605511 1.3689986 4.3484678
-7.6279535 1.3528713 4.332891
-7.6134386 1.3546785 4.32479
-7.5674477 1.3647445 4.2985578
-7.5001221 1.3608466 4.2625728
-7.4681864 1.3616837 4.2451553
-7.4359503 1.3575858 4.2282152
-7.4100933 1.3619152 4.2136393
-7.378315 1.3652393 4.1959844
-7.3957295 1.3661896 4.2052999
-7.4279618 1.370268 4.2222409
-7.4541283 1.3708733 4.2363443
-7.4921241 1.37349 4.2565989
-7.5243564 1.3775684 4.27354
-7.5565886 1.3816465 4.2904806
-6.6839285 -1.0751476 4.1360316
-6.7505651 -0.99631113 4.1619272
-6.7590427 -0.98097998 4.1645346
-6.7639298 -0.96596211 4.165236
-6.345767 -0.78035915 3.9145298
-6.4422922 -0.7727229 3.9658561
-6.4666348 -0.90423715 3.9961007
-6.51474 -0.98045719 4.0320559
-5.6919928 -1.3143568 3.6294208
-5.6945906 -1.4666222 3.6505704
-7.6351218 -1.2669773 4.676446
-7.6396446 -1.1708918 4.6664391
-7.5136995 -1.13814 4.5939312
-7.4216328 -1.1643152 4.5474253
-7.402792 -1.1455826 4.5347848
-7.2393932 -1.1255525 4.4436264
-7.217669 -1.1448863 4.4343586
-7.2068024 -1.1590886 4.4303102
-7.1894441 -1.1821594 4.4238935
-7.1641607 -1.1456997 4.4054632
-0.39170361 -1.5046986 0.78136468
-0.43434405 -1.5177933 0.80617332
-0.38810349 -1.5128722 0.78047299
-7.7871714 -1.0897644 4.7358799
-7.934339 -1.0307937 4.8079987
-7.8828611 -0.87594748 4.7600217
-7.8646393 -0.86940676 4.7492971
-7.7601261 -1.0239295 4.7126856
-7.6477404 -1.3057014 4.6883059
0 0 0 1 0 0 0 1 0 0 0 1 0 0 0 0 0 636 1 0 0
