ply
format ascii 1.0
comment PCL generated
element vertex 774
property float x
property float y
property float z
element camera 1
property float view_px
property float view_py
property float view_pz
property float x_axisx
property float x_axisy
property float x_axisz
property float y_axisx
property float y_axisy
property float y_axisz
property float z_axisx
property float z_axisy
property float z_axisz
property float focal
property float scalex
property float scaley
property float centerx
property float centery
property int viewportx
property int viewporty
property float k1
property float k2
end_header
0.46781445 1.4165034 0.82662332
0.51640654 1.4453211 0.80593824
0.56292439 1.4407306 0.78943396
0.57934046 1.422924 0.78526843
0.6107626 1.3965333 0.77650678
0.64050674 1.3857431 0.7667588
0.70379829 1.387352 0.74349809
0.83903313 1.3641949 0.69652295
0.72027588 1.3660226 0.73967123
0.71004295 1.3670442 0.74330068
0.6372261 1.3816087 0.76837969
0.58767557 1.3746386 0.78717554
0.49686766 1.4211822 0.8155421
-9.6249714 -1.4454759 4.8028898
-9.6157532 -1.4857535 4.8036537
-9.5989208 -1.5119815 4.8001995
-9.5935364 -1.5150476 4.7985487
-9.6000271 -1.4656206 4.7958517
-9.6056318 -1.4382787 4.7950954
-9.6261883 -1.3941762 4.7980766
-9.6265011 -1.3934088 4.7981119
-9.5182686 1.2928553 4.4833145
-9.5259333 1.3073549 4.4846253
-9.5292931 1.3048134 4.4861121
-9.5349798 1.2983911 4.4888453
-9.533186 1.2836664 4.4896994
-9.5321083 1.2564254 4.4920983
-9.5728779 1.1822362 4.5145788
-9.5853882 1.1694264 4.5204568
-9.5826817 1.1660283 4.5198174
-9.5400133 1.1632984 4.5045271
-9.5247889 1.1622345 4.4990807
-9.5034962 1.1732595 4.4901805
-9.5118599 1.2130313 4.4891567
-9.5221996 1.2609954 4.4880142
-9.3177738 -1.5580947 4.7023325
-9.281847 -1.5539427 4.688797
-9.219698 -1.564343 4.6671839
-9.302351 -1.5641112 4.6973209
-9.3592777 -1.5660499 4.7182927
-9.3698769 -1.5624669 4.7217932
-9.3854008 -1.553974 4.7265873
-4.677743 -1.5270914 3.0059626
-4.6416659 -1.5255449 2.9926391
-4.6054983 -1.5264745 2.9795365
-4.6156702 -1.5302961 2.98364
-4.636106 -1.5354631 2.9916267
-4.6462784 -1.5392845 2.9957304
-4.6982694 -1.5297819 3.0137286
-6.0308142 -1.5371474 3.500742
-6.1289001 -1.5355422 3.5363698
-6.1860194 -1.5273986 3.5563786
-6.1140699 -1.5193219 3.5292959
-6.067523 -1.5213747 3.512521
-6.0572262 -1.5200365 3.5086262
-6.0106792 -1.522089 3.4918513
-5.974246 -1.5304327 3.4794116
-7.8744807 -1.5219792 4.1719594
-7.9208083 -1.5275009 4.1894302
-7.9467325 -1.5203776 4.1981606
-7.9829569 -1.5171006 4.2110434
-8.0397739 -1.5321671 4.2333207
-8.1015415 -1.5316534 4.2558074
-8.1627903 -1.5329077 4.278286
-8.209341 -1.5440507 4.2964153
-8.2305164 -1.5368434 4.3034034
-8.2564497 -1.5297209 4.3121367
-8.2920685 -1.5307684 4.3252416
-8.3028717 -1.532726 4.3293848
-8.339098 -1.5294291 4.3422661
-8.3648357 -1.5272596 4.3514357
-8.3435173 -1.5264275 4.3435712
-8.2804861 -1.5177805 4.3196845
-8.2556496 -1.5183311 4.310678
-8.2353392 -1.523877 4.3038344
-8.1997337 -1.5228899 4.2907405
-8.1846809 -1.5189795 4.2848473
-8.1195307 -1.4612703 4.2551584
-8.1094332 -1.4524918 4.2505741
-8.0178204 -1.4660544 4.2185335
-7.9852114 -1.4708545 4.2071266
-7.9185929 -1.4502921 4.1807094
-7.8366575 -1.4985926 4.1557603
-7.8082485 -1.5022824 4.145772
-7.7947001 -1.5025902 4.1408596
-7.761826 -1.4992771 4.1285238
-7.7255011 -1.5050507 4.1158605
-7.6436348 -1.4855307 4.0839863
-7.5646496 -1.3766196 4.0440016
-7.4525013 -1.4907603 4.0147753
-7.3700476 -1.4860991 3.9842095
-7.3339186 -1.4869196 3.9711099
-7.2880836 -1.4690557 3.9525533
-7.2153368 -1.4830787 3.9274445
-7.1791096 -1.4863757 3.9145627
-7.1578455 -1.4853504 3.9066982
-7.20577 -1.518328 3.9275661
-7.2332649 -1.5417928 3.9400039
-7.3561287 -1.5856359 3.9893315
-7.4031949 -1.5888801 4.0068388
-7.4154692 -1.586318 4.0110555
-7.5086298 -1.5124499 4.0374804
-7.5741043 -1.5007493 4.060173
-7.60602 -1.5028155 4.0720315
-7.7306452 -1.5186974 4.1191359
-7.7667737 -1.5178769 4.1322355
-7.8296223 -1.5155511 4.1549311
-7.8431692 -1.5152508 4.1598439
-0.69199777 -0.77319556 1.474262
-0.7536788 -0.76568997 1.4960009
-0.77448392 -0.7749505 1.5045419
-0.72230124 -0.78493202 1.4865229
-0.5908556 -0.85956049 1.4462054
-0.55466318 -0.86063915 1.4331089
-0.5445621 -0.856727 1.4290221
-0.46421003 -0.77451319 1.391275
-0.50039363 -0.77341032 1.4043658
-0.57276082 -0.77120447 1.4305472
-0.60894442 -0.77010161 1.443638
-0.63499331 -0.76506573 1.4526274
-3.6300936 -1.5229654 2.6232421
-3.6663523 -1.5195594 2.6361244
-3.6968694 -1.5310242 2.6484351
-3.7070417 -1.5348458 2.6525388
-3.6504383 -1.5306085 2.6314495
-3.9804709 -1.5384574 2.752686
-3.9962032 -1.5323609 2.757802
-3.9443939 -1.5369109 2.7393625
-4.2598238 -1.5222458 2.8529632
-4.2179141 -1.5380464 2.8392892
-4.1975694 -1.5304031 2.8310819
-1.7179999 -1.3627111 1.9090768
-1.7343965 -1.2859815 1.9071965
-1.7743056 -1.1985447 1.9127986
-1.7756386 -1.1589361 1.9092258
-1.7906487 -1.1170769 1.9104133
-1.7796376 -1.0401108 1.8985072
-1.7779484 -1.0193695 1.8957651
-1.7821798 -0.99625295 1.8949401
-1.796612 -0.95888734 1.8963772
-1.8183897 -0.8920387 1.8974731
-1.8097882 -0.84356695 1.8893666
-1.7699564 -0.79062134 1.8694055
-1.734514 -0.76942009 1.8542993
-1.7966309 -0.76830184 1.8768518
-1.853359 -0.76514536 1.8972291
-1.8691823 -0.76119351 1.9025981
-1.9011221 -0.7534523 1.9134598
-1.947222 -0.58722007 1.9132459
-1.8794851 -0.55388331 1.8851115
-1.8494985 -0.54793048 1.873559
-1.8132372 -0.47250682 1.852597
-1.8119457 -0.40598869 1.8453085
-1.8236024 -0.39576894 1.8485149
-1.8497868 -0.38838905 1.8573135
-1.8623531 -0.38769233 1.8618276
-1.886066 -0.38490003 1.8701944
-1.8991179 -0.39937463 1.8764408
-1.8965864 -0.41314271 1.8769281
-1.8889885 -0.46787935 1.8797652
-2.010433 -0.55739987 1.9332559
-2.0262372 -0.59329176 1.9427016
-2.0948517 -0.67275441 1.9758834
-2.1043215 -0.676422 1.9797149
-2.2142305 -0.7501775 2.0273805
-2.32758 -0.67608833 2.0611498
-2.3381281 -0.63125896 2.0604045
-2.3749034 -0.61285168 2.0719378
-2.4989376 -0.52534586 2.1082311
-2.5076313 -0.49747464 2.108547
-2.5119905 -0.4840498 2.108762
-2.6010578 -0.44068819 2.1368194
-2.6213317 -0.44195342 2.1443472
-2.6399713 -0.52293861 2.1594489
-2.6388409 -0.52705073 2.1594577
-2.6339569 -0.53707224 2.1587026
-2.6163371 -0.56057799 2.1546819
-2.5907249 -0.60745513 2.1501403
-2.5453641 -0.70102352 2.1431768
-2.5190358 -0.80313373 2.1440341
-2.5213065 -0.82858998 2.1474717
-2.5361917 -0.88083959 2.1582582
-2.5376451 -0.91151083 2.161932
-2.5395422 -0.92135805 2.1636333
-2.5443811 -0.98670411 2.1720963
-2.5443108 -1.0268016 2.1761799
-2.7032676 -1.0836508 2.240011
-2.7332897 -1.0655613 2.2491126
-2.8064427 -1.041415 2.2733321
-2.7911031 -0.86022264 2.2491651
-2.7826967 -0.84312081 2.2443447
-2.8215895 -0.82062078 2.2562313
-2.8939254 -0.81876141 2.2824366
-2.9386811 -0.77726161 2.2945154
-2.9760702 -0.77790964 2.3082254
-3.0372345 -0.79946816 2.3327544
-3.0734026 -0.79853845 2.3458571
-3.1197429 -0.8014304 2.3630636
-3.1553206 -0.81659675 2.3776004
-3.2402563 -0.96436632 2.4237385
-3.1318235 -1.0344188 2.3913498
-3.1195827 -1.1232514 2.395987
-3.0896523 -1.2606356 2.3991449
-2.9356155 -1.3000958 2.3469794
-2.9236674 -1.3795705 2.3507645
-3.0336952 -1.4583838 2.3989921
-3.0877154 -1.4981883 2.4227839
-3.1400199 -1.5150266 2.4435959
-3.1037612 -1.5184325 2.4307137
-3.0881193 -1.5220528 2.4253769
-3.0118072 -1.4928381 2.3945358
-2.9701698 -1.5012096 2.3801999
-2.9238296 -1.4983177 2.3629935
-2.8506765 -1.522464 2.3387737
-2.7376513 -1.509037 2.2961538
-2.6753969 -1.5171943 2.2742727
-2.6130517 -1.527828 2.2526121
-2.5500374 -1.5306283 2.2299044
-2.5231867 -1.5331435 2.2203641
-2.5199623 -1.5331875 2.219192
-2.4842939 -1.5204974 2.2048759
-2.4316919 -1.5200499 2.1856349
-2.2833161 -1.5605602 2.1356428
-2.2709017 -1.5633003 2.1313934
-2.2448616 -1.5617063 2.1217279
-2.1638644 -1.5119117 2.0870681
-2.1173205 -1.5165048 2.0705545
-2.0648885 -1.5339129 2.0532055
-2.0387971 -1.5389037 2.0441961
-1.9664955 -1.5385854 2.0177798
-1.9409766 -1.5227675 2.0068467
-1.9004993 -1.5130744 1.9910827
-1.8745747 -1.5131141 1.9816266
-1.8539555 -1.5176674 1.9745691
-1.8356068 -1.5206412 1.9681783
-1.7996776 -1.5227654 1.9552851
-1.7640603 -1.5080273 1.9407775
-1.6834278 -1.5170705 1.9122807
-8.1597519 1.4059963 3.9759831
-8.1957836 1.4043403 3.989301
-8.229044 1.3986878 4.002018
-8.3029947 1.3770845 4.0312171
-8.3335819 1.3581779 4.0443163
-8.4041862 1.3539438 4.0705142
-8.42099 1.3583848 4.0761909
-8.4671183 1.3479502 4.0940933
-8.5139332 1.3548508 4.1104689
-8.5504532 1.3655772 4.1226964
-8.5183382 1.3507006 4.1125016
-8.4875097 1.335346 4.1028261
-8.4508743 1.3428259 4.0886903
-8.3899059 1.3414414 4.0665846
-8.3424873 1.3403645 4.0493913
-8.2720089 1.3626173 4.0213928
-8.2392368 1.380652 4.0075855
-8.1960306 1.3824615 3.9916337
-8.1545038 1.3936987 3.9753284
-8.1080799 1.396704 3.9580803
-8.1444054 1.4024773 3.9707437
-7.7045984 -0.87123454 4.0432758
-7.7148924 -0.8750602 4.0474243
-7.7833047 -0.82377034 4.067132
-7.8303709 -0.82701468 4.0846395
-7.881032 -0.82358074 4.1027746
-7.9352188 -0.76544303 4.1165895
-8.0484047 -0.78577644 4.159976
-8.1561184 -0.92036217 4.2130747
-8.1767063 -0.9280135 4.2213717
-8.2334223 -0.93484443 4.2427678
-8.302721 -1.0799463 4.2829261
-8.3057938 -1.1945797 4.2957959
-8.2785683 -1.2283478 4.2893219
-8.2507248 -1.2750056 4.2839432
-8.2658463 -1.2919817 4.2912011
-8.2789364 -1.2821356 4.2949686
-8.3010349 -1.2716582 4.301959
-8.3052235 -1.2301209 4.2992301
-8.3354769 -1.1531541 4.302382
-8.3975077 -1.0854092 4.3180752
-8.4444094 -1.0717854 4.3337936
-8.4435844 -1.0686284 4.333169
-8.4372482 -1.0291847 4.3268147
-8.5486794 -0.91372877 4.3556442
-8.5872564 -0.85099709 4.3632922
-8.6107168 -0.79395932 4.3660078
-8.5901909 -0.77624148 4.3567014
-8.5644646 -0.77841198 4.3475366
-8.5272913 -0.78936052 4.3350935
-8.4452858 -0.7898913 4.3052235
-8.404006 -0.80053276 4.2912507
-8.356246 -0.79539806 4.2732964
-8.34729 -0.79370189 4.2698545
-8.3114853 -0.78649366 4.2560501
-8.3009853 -0.78760022 4.2523322
-8.2650585 -0.78344834 4.2387967
-8.2444458 -0.77643645 4.2305555
-8.1725788 -0.76817155 4.2034841
-8.0906143 -0.75112814 4.1718278
-8.018259 -0.75524551 4.1458468
-5.1196775 1.3781693 2.8694825
-5.1442547 1.3818755 2.8780708
-5.1762419 1.371243 2.8908331
-5.129683 1.3693686 2.8740354
-5.0527067 1.3839912 2.8444474
-5.6672306 1.3884146 3.0682399
-5.6985769 1.4048107 3.0779979
-5.7775974 1.4377756 3.1034548
-5.7573862 1.4504251 3.0947833
-5.7314405 1.445807 3.0857887
-5.6973324 1.4169807 3.0762966
-5.620471 1.3815875 3.0518763
0.63673449 -1.5247201 1.066415
0.60685921 -1.5464096 1.0795395
0.48298359 -1.5440732 1.1245034
0.44669867 -1.540504 1.1373783
0.40042877 -1.5433397 1.1545534
0.37421227 -1.5358411 1.1633515
0.43550444 -1.5246344 1.1398369
0.44573784 -1.5256559 1.1362072
0.52812815 -1.5214388 1.10571
0.73543692 -1.5368816 1.0316437
0.75549126 -1.5265474 1.0232667
0.78179026 -1.5365214 1.0146922
-2.103353 -1.1929517 2.0322981
-2.088886 -1.1920662 2.0269282
-1.94469 -1.2743447 1.9827421
-1.9196374 -1.3624951 1.9826342
-1.9360476 -1.4741292 2.0000632
-2.0044694 -1.512449 2.0289583
-2.0929794 -1.4695094 2.0568557
-2.172914 -1.3950423 2.078393
-2.2154903 -1.3563113 2.0899601
-2.2723851 -1.3482038 2.1098905
-2.3695281 -1.3806643 2.1486659
-2.4028344 -1.4298656 2.1658621
-2.4046025 -1.4318166 2.166707
-2.4511104 -1.4764221 2.1882496
-2.5732284 -1.4458535 2.2296789
-2.5989635 -1.4193347 2.236352
-2.6348686 -1.3558177 2.2429447
-2.7793584 -1.2867594 2.2885928
-2.7077484 -1.1282233 2.2462142
-2.6656466 -1.1242017 2.2304387
-2.4890747 -1.150314 2.1686821
-2.4721222 -1.1669736 2.1642032
-2.4120526 -1.1914452 2.1447911
-2.3477759 -1.1503118 2.1171205
-2.3162317 -1.1158962 2.1020825
-2.2868552 -1.0804089 2.0877259
-2.1575756 -1.0906736 2.0416024
-2.1201334 -1.1288853 2.0318556
-1.3374898 -0.76907122 1.7093856
-1.3477578 -0.76803231 1.713026
-1.4563353 -0.7647965 1.7523154
-1.3857465 -0.85547137 1.7358497
-1.3652942 -0.85507363 1.7283456
-1.3551095 -0.85363704 1.7244821
-1.3190002 -0.85224015 1.7111622
-1.2574558 -0.83254975 1.686686
-1.149056 -0.83431447 1.6473107
-1.108006 -0.84542996 1.6334704
-1.0933809 -0.84165269 1.6277465
-1.038039 -0.8390888 1.607289
-1.0256248 -0.84182864 1.6030396
-0.95632601 -0.88530594 1.5822077
-0.93828988 -0.8131178 1.5682279
-0.84686875 -0.77279323 1.5307348
-0.91336513 -0.78345114 1.5560921
-0.94947433 -0.78484803 1.5694119
-0.99147201 -0.77342987 1.5835671
-1.0276647 -0.77235126 1.5966636
-1.0680695 -0.78799987 1.6130115
-1.1506388 -0.78727931 1.643068
-1.1930535 -0.76348352 1.6561068
-1.2393472 -0.76631707 1.6732901
-1.3013809 -0.76767433 1.696066
-4.3365903 -1.5390787 2.8827009
-4.2960825 -1.5188398 2.8658452
-4.8537664 -1.5426314 3.0717878
-4.8640637 -1.5439695 3.0756824
-4.909626 -1.5365983 3.0915532
-4.9558754 -1.5419667 3.1089802
-5.0244436 -1.5317682 3.132956
-4.9457941 -1.5356686 3.104656
-4.9150953 -1.5291564 3.0927863
-4.8530226 -1.5323613 3.0704639
-4.8130374 -1.5248966 3.0551078
-4.8232422 -1.5287113 3.0592227
-4.8435616 -1.5388167 3.067673
-5.5127726 -1.0641088 3.2632241
-5.5301585 -1.0651964 3.2696798
-5.4925742 -1.0182641 3.2511549
-5.4853354 -1.0308175 3.2498
-5.6908202 -0.82187182 3.3033695
-5.6078401 -0.83226806 3.2741549
-5.6539278 -0.84259737 3.2920313
-5.7264276 -0.83581573 3.3177922
-5.8098669 -0.81303751 3.3459055
-5.7270703 -0.81848097 3.3162501
-0.8783524 -1.5197231 1.6187727
-0.86269569 -1.5187237 1.612957
-0.88493443 -1.3241559 1.6011318
-0.88680959 -1.515475 1.6214235
-0.96092176 -1.5190024 1.6488292
-0.99719763 -1.5154483 1.6617024
-1.056062 -1.4842918 1.6799895
-1.0697899 -1.4754562 1.6840935
-1.0812669 -1.4701681 1.6877395
-1.1219726 -1.4654748 1.7021124
-1.1362324 -1.4813759 1.7089456
-1.2613127 -1.4920061 1.7556781
-1.1265607 -1.5027081 1.7076025
-1.0797672 -1.5147278 1.691759
-1.0276678 -1.5222337 1.6735166
-1.0072989 -1.5193604 1.6657894
0.21433449 -1.0933244 1.1763412
0.28640842 -1.0856104 1.14925
0.27294207 -1.1579661 1.1615794
0.25163603 -1.1968889 1.1733432
0.22420883 -1.22255 1.1859815
0.21909094 -1.2220411 1.187797
0.17282009 -1.2248766 1.2049723
0.12654972 -1.2277122 1.2221473
0.058388233 -1.2850025 1.2528914
0.056125641 -1.284934 1.2537102
-0.055698395 -1.3380744 1.2999619
-0.064252138 -1.4066114 1.3101072
0.058683872 -1.5146337 1.2763175
0.10998678 -1.5098352 1.2571048
0.13557196 -1.5123872 1.2480301
0.20822382 -1.5220009 1.2225039
0.26544094 -1.5276089 1.2021996
0.20910263 -1.5343738 1.2234514
0.16778469 -1.5327675 1.2383639
0.15180254 -1.5262904 1.2435322
0.10024834 -1.5236663 1.2620759
0.074362278 -1.5260693 1.2717682
0.040912628 -1.5239885 1.283761
-0.012978077 -1.5347247 1.3045266
-0.018096447 -1.5342157 1.3063422
-0.065941334 -1.5228786 1.3226395
-0.12411618 -1.5320344 1.3448062
-0.14999437 -1.5259447 1.3536254
-0.15795088 -1.5253987 1.3564728
-0.1783371 -1.525833 1.3639565
-0.20660233 -1.5337892 1.3750861
-0.25838041 -1.5275867 1.3933448
-0.19415307 -1.5243049 1.3695713
-0.17124271 -1.5101125 1.3597566
-0.11676455 -1.4464295 1.3333503
-0.1238606 -1.3610605 1.3271908
-0.1199975 -1.3413956 1.3237656
-0.12222481 -1.2745607 1.3177289
-0.13734579 -1.2116079 1.3167949
-0.13948107 -1.2049185 1.3168886
-0.17708158 -1.1516733 1.3251525
-0.26361012 -1.1143973 1.3529073
-0.27223825 -1.111726 1.355782
-0.28338289 -1.0969772 1.3583373
-0.33498049 -1.0410324 1.3714323
-0.32190824 -1.0265838 1.3651812
-0.30246162 -0.90767002 1.3458982
-0.38170838 -0.77278602 1.3609924
-0.36143899 -0.76492012 1.3527899
-0.32586074 -0.76725435 1.3400462
-0.29968619 -0.77472067 1.3312601
-0.2533927 -0.77188718 1.3140767
-0.21720004 -0.77296573 1.3009802
-0.19876862 -0.77382666 1.2943425
-0.18100762 -0.77404433 1.2878838
-0.16248417 -0.77739578 1.2814678
-0.14473176 -0.7775985 1.2750106
-0.10422635 -0.78994298 1.2614949
-0.10073328 -0.79904479 1.261153
-0.087722778 -0.82739592 1.2593108
-0.0860641 -0.83058739 1.2590327
-0.10396051 -0.92355281 1.2750909
-0.10543108 -0.93101519 1.2763923
-0.059711933 -1.0786742 1.2748418
-0.0022473335 -1.0917083 1.2552081
0.049224377 -1.0918572 1.2364409
0.13186169 -1.0950662 1.2066146
-5.9221044 1.4383795 3.1561251
-5.9866619 1.3731246 3.1863704
-5.9410076 1.3935373 3.1676188
-5.9268622 1.4015417 3.1616366
-5.9158664 1.4087303 3.1568873
-5.8805194 1.4277711 3.1420374
-5.8236537 1.4272683 3.1213381
-5.8860531 1.4400859 3.1427946
-7.5029163 -0.79334104 3.9616971
-7.5832443 -0.80223781 3.9919214
-7.6445231 -0.8141064 4.0154991
-5.8814273 -1.5271089 3.4452004
-5.7931805 -1.542434 3.4145689
-5.7211399 -1.5368338 3.3877065
-5.6905241 -1.52539 3.3753617
-5.6341391 -1.5137227 3.3535905
-5.5615473 -1.5229807 3.3280499
-5.5820494 -1.5281334 3.3360596
-5.6439767 -1.5274427 3.3585865
-5.7889757 -1.5138795 3.4101081
-5.736887 -1.52829 3.3925772
-6.2240853 1.3725245 3.2730699
-6.2601366 1.3708181 3.2864003
-6.2292166 1.3749337 3.2746956
-0.37746358 -1.524484 1.4364814
-0.33100319 -1.5266016 1.4197446
-0.32081842 -1.5251648 1.4158809
-0.29456401 -1.5264839 1.4064355
-0.32053065 -1.5239234 1.4156486
-0.35187221 -1.5146215 1.4261321
-0.38726664 -1.5182495 1.4394197
-0.40147018 -1.5180895 1.4445863
-0.43938088 -1.5195968 1.4585748
-0.46019959 -1.5188124 1.4660914
-0.48620749 -1.5162971 1.475324
-0.47564697 -1.5160186 1.4714419
-1.3673468 -1.4401859 1.7890601
-1.4619775 -1.5092905 1.8306739
-1.3696401 -1.4961967 1.7956372
-1.3072729 -1.5047417 1.7737546
-1.2916164 -1.5037425 1.767939
-1.3654528 -1.4394524 1.7882938
-1.2791083 -1.4763279 1.760565
-0.5553956 -1.522982 1.5012566
-0.57879472 -1.5219643 1.5096909
-0.63518977 -1.5287099 1.5309613
-0.6714654 -1.5251558 1.5438344
-0.63064408 -1.5218848 1.5286031
-0.59941387 -1.5174109 1.5167484
-0.59461832 -1.5180123 1.5150601
-0.5891459 -1.5184498 1.5131079
-8.9308929 -1.5657964 4.561945
-8.9102898 -1.5581043 4.5536385
-8.9284172 -1.5623585 4.560689
-9.0078678 -1.5642376 4.5898743
-8.9771214 -1.5737944 4.5796337
-7.6527076 -0.72751546 4.0096111
-7.5832748 -0.74025774 3.9855804
-7.5442233 -0.73245323 3.9705305
-7.5337338 -0.73358047 3.9668183
-7.4966259 -0.75916547 3.9558992
-7.4565954 -0.77612555 3.9430299
-7.4237804 -0.7756651 3.9310083
-7.4083371 -0.78166044 3.9259872
-7.4547596 -0.78466564 3.9432352
-7.6627083 -0.73877043 4.0144138
-7.7800179 -0.77480507 4.0609145
-7.8259511 -0.79019248 4.0792532
-7.8990898 -0.76626348 4.1034894
-7.2924776 -0.77683628 3.8832145
-7.323277 -0.7833271 3.8951187
-7.3130722 -0.77951252 3.8910038
-7.2822723 -0.7730217 3.8790996
-7.2224512 -0.77459246 3.8574314
-7.1863222 -0.77541298 3.8443317
-7.2147112 -0.7885468 3.8560369
-7.2275944 -0.78823918 3.8607068
-7.2429409 -0.7847203 3.8659458
-7.2666168 -0.7790888 3.8740084
-6.9409895 -1.4883606 3.8278737
-6.9970989 -1.5074573 3.850306
-7.0854378 -1.4896556 3.8807173
-7.0559702 -1.3449399 3.8551331
-7.073451 -1.2648187 3.8533006
-7.1422272 -1.1402514 3.8656316
-7.2283554 -1.1537112 3.8984399
-7.2792611 -1.1334362 3.914938
-7.3497772 -1.0857348 3.935781
-7.2929626 -1.0813804 3.9146028
-7.2432137 -1.0615817 3.8944197
-7.1714916 -1.020756 3.8640637
-7.1242819 -0.98007405 3.8426671
-7.0218234 -0.97753382 3.8050187
-6.9789481 -0.88053089 3.7794318
-7.0654154 -0.77603191 3.8002748
-7.003397 -0.77919888 3.7779684
-6.9930997 -0.77786076 3.7740736
-6.900281 -0.77453691 3.7398624
-6.8534589 -0.7840187 3.7237482
-6.8275061 -0.78874767 3.7147627
-6.7863564 -0.78716189 3.6995842
-6.7644129 -0.78539515 3.6913958
-6.7296047 -0.78539997 3.6786942
-6.6933546 -0.78879082 3.6658139
-6.657105 -0.79218161 3.6529336
-6.6190329 -0.79238081 3.6390612
-6.6250925 -0.82850367 3.6449742
-6.6550856 -0.84666216 3.6577802
-6.6975946 -0.95357066 3.6842484
-6.7195158 -1.0321864 3.7003047
-6.7248268 -1.0716372 3.706286
-6.7290716 -1.0789521 3.7085845
-6.7540827 -1.1868526 3.7287698
-6.7456627 -1.3268147 3.740041
-6.731235 -1.4369142 3.7460599
-6.7775068 -1.4422905 3.7634959
-6.8807988 -1.4676161 3.8037837
-6.8949013 -1.4780314 3.8099971
-7.1420555 1.3544285 3.6099007
-7.1284304 1.3501933 3.6053629
-7.1164112 1.3572395 3.600255
-7.0813656 1.3837097 3.5847535
-7.0357118 1.4041226 3.5660021
-6.9170504 1.4056609 3.5225437
-7.015903 1.4266772 3.556462
-7.0872011 1.4034534 3.5848596
-7.1681018 1.3615232 3.6186781
-7.1525631 1.3580096 3.613368
-8.8135509 1.3650181 4.2187605
-8.8076181 1.3353856 4.2196321
-8.8182049 1.3389893 4.2231264
-8.8575878 1.3439431 4.23699
-8.9057102 1.3416727 4.2547832
-8.9601974 1.3503327 4.2737784
-8.9698982 1.3538516 4.2769575
-8.9918118 1.3510506 4.2852407
-8.9130812 1.3464718 4.2569809
-3.3408411 -1.5279264 2.5181994
-3.3771906 -1.5220443 2.5308609
-3.3568459 -1.514401 2.5226538
-3.2484329 -1.5147138 2.4831247
-0.78707147 -1.2776115 1.5606505
-0.83976316 -1.2719157 1.5792946
-0.9226687 -1.3089261 1.6133406
-5.5620275 -0.81450957 3.2556174
-5.4903536 -0.79900378 3.2278738
-5.4887018 -0.84357876 3.2318392
-5.5614767 -0.829368 3.2569392
-6.4956021 -1.5301886 3.6696343
-6.505991 -1.5290504 3.6733088
-6.5111666 -1.526598 3.6749458
-6.5719428 -1.472118 3.6915405
-6.5805101 -1.4677882 3.6942229
-6.5460377 -1.4362426 3.6784105
-6.4557981 -1.4620738 3.6481287
-6.3965254 -1.4165655 3.6218357
-6.2616572 -1.2939513 3.5600548
-6.3872108 -1.4242232 3.6192214
-6.2841043 -1.5257936 3.5920064
-6.3044338 -1.1517665 3.5610924
-6.3750291 -1.1091233 3.5824831
-6.2640085 -1.0933399 3.5403531
-6.243258 -1.0593801 3.5293007
-6.2241049 -1.0533178 3.5216901
-6.1557999 -0.98242176 3.4894991
-6.1511927 -0.89675009 3.479038
-6.1520233 -0.85688943 3.475256
-6.1458545 -0.82433295 3.4696684
-6.1404886 -0.78666538 3.4638498
-6.1365747 -0.77013814 3.4607277
-6.0812907 -0.72875404 3.4363129
-6.0538054 -0.73934543 3.4273686
-5.9805484 -0.78460127 3.4052746
-5.925261 -0.83296621 3.3900564
-5.8455658 -0.82450503 3.3601077
-5.8777633 -0.98130798 3.3879268
-5.7640719 -1.0739728 3.3559365
-5.8466849 -1.073482 3.3860326
-5.8887711 -0.98001146 3.3918107
-6.0510969 -1.0560945 3.4588423
-6.0384002 -1.1041461 3.4591339
-6.0252724 -1.1283432 3.4568233
-6.0426173 -1.1476971 3.4651361
-6.0703506 -1.1659129 3.4771233
-6.1151543 -1.2109115 3.4980841
-6.1526747 -1.2240839 3.5131254
-6.2570457 -1.2965419 3.5586374
-8.617445 -1.5289454 4.4437881
-8.6639652 -1.5294744 4.4608183
-8.6999969 -1.5311303 4.4741359
-8.7563801 -1.5351739 4.4951253
-8.7768841 -1.5453424 4.5036492
-8.7904234 -1.5537033 4.5094471
-8.735342 -1.5501213 4.4889803
-8.6940327 -1.5505269 4.4739475
-8.6633282 -1.5340359 4.4610529
-8.6169004 -1.5309907 4.443799
-8.5918055 -1.5286388 4.4344006
-8.5553484 -1.5265329 4.4208813
-8.5815115 -1.5248132 4.4302521
-6.5027924 1.3751035 3.3745084
-6.4715137 1.3631237 3.3643227
-6.5150566 1.3663507 3.3798809
-6.5694609 1.3618524 3.4001946
-6.5829182 1.3596652 3.4053295
-6.5797682 1.3604805 3.4040964
-6.5490494 1.369549 3.3919575
-6.5233049 1.3698833 3.3825288
-6.7781863 1.3526435 3.4773045
-6.7626624 1.3512964 3.4717774
-6.7242746 1.3610842 3.4567666
-6.6522727 1.3669736 3.4298887
-6.6937575 1.3751054 3.4441934
-6.7143707 1.3723614 3.4519966
-6.7605271 1.3643305 3.4696627
-6.8124189 1.3735671 3.4876518
-6.8072872 1.3711579 3.486026
-7.0501752 -1.3445774 3.8529811
-6.9677677 -1.4613442 3.8348765
-6.929059 -1.4613049 3.8207474
-6.8373718 -1.3854716 3.7795181
-6.9021568 -1.2648233 3.7907941
-0.76445103 -1.2782857 1.5524652
-0.78118014 -1.2791038 1.5586536
-5.4528894 -1.5306767 3.2891884
-5.4892311 -1.5248094 3.3018486
-5.4475307 -1.538082 3.287992
-5.4168234 -1.5291147 3.2758675
-6.3461237 -1.5226265 3.6143131
-6.2941265 -1.5345609 3.5965619
-6.1155291 1.3677382 3.2339473
-6.0850115 1.3817592 3.2213743
-6.1517816 1.3709843 3.2468433
0.33792734 -1.5322719 1.1762264
0.29077911 -1.5227346 1.1924539
0.30164289 -1.5287027 1.1891011
-7.2597213 1.3457766 3.6537249
-7.2854586 1.3479464 3.6628942
-7.3096123 1.3466835 3.6718376
-7.3173809 1.3484404 3.6744926
-7.3535328 1.3492105 3.6876059
-7.4146285 1.3477092 3.7100539
-7.4664946 1.3619547 3.7275205
-7.3942375 1.3603134 3.7013211
-7.3313084 1.3601048 3.6783791
-7.3179994 1.3658121 3.6729379
-7.2461839 1.3741405 3.6458781
-7.2043543 1.3647697 3.6315744
-7.2186451 1.3635559 3.6369138
-7.5762119 1.3473194 3.7690573
-7.6410103 1.3314714 3.794327
-7.6772375 1.3347683 3.8072085
-7.7187119 1.3503628 3.820745
-7.6901493 1.3592944 3.8094068
-7.6469431 1.361104 3.7934551
-7.5742941 1.3495574 3.7681282
-7.559144 1.3509912 3.7624526
-7.5281658 1.3599918 3.750226
-7.4920368 1.3591712 3.7371264
-7.5024281 1.3578222 3.7410564
-7.5232115 1.3551238 3.7489171
-7.5487528 1.3523405 3.7585225
-7.889451 1.3564627 3.8824244
-7.808527 1.360714 3.8524585
-7.7769141 1.3599961 3.8409963
-7.750082 1.3512678 3.8320994
-7.7861133 1.349612 3.8454175
-7.8476858 1.3451724 3.868341
-7.8838148 1.345993 3.8814406
-7.9016366 1.3465908 3.8878827
-7.9254789 1.3430729 3.8969436
-7.9885197 1.3757801 3.9165955
-7.9407558 1.3596575 3.9008183
-6.3769231 -1.5291173 3.6262174
-6.4236536 -1.5221119 3.6425519
-0.4397471 -1.5184146 1.4585873
-8.4624939 -1.5204422 4.3863735
-8.4114552 -1.5253117 4.368248
-8.3900442 -1.5269966 4.3606076
-8.4673748 -1.54158 4.3903213
-8.4213448 -1.5286293 4.3721972
-8.4003448 -1.5308425 4.3647609
-8.4734182 -1.5198451 4.3902988
-8.5453825 -1.5256337 4.4171524
-8.0138483 1.3887267 3.9245114
-8.0719519 1.3958838 3.9449806
-8.0174179 1.3918524 3.9254937
-8.0147467 1.3903322 3.9246747
-6.2538576 -1.227634 3.5504122
-6.8636122 1.4011655 3.5035043
-6.8965378 1.4108808 3.5145235
-6.8760777 1.3973656 3.5084426
0 0 0 1 0 0 0 1 0 0 0 1 0 0 0 0 0 774 1 0 0
