ply
format ascii 1.0
comment PCL generated
element vertex 887
property float x
property float y
property float z
element camera 1
property float view_px
property float view_py
property float view_pz
property float x_axisx
property float x_axisy
property float x_axisz
property float y_axisx
property float y_axisy
property float y_axisz
property float z_axisx
property float z_axisy
property float z_axisz
property float focal
property float scalex
property float scaley
property float centerx
property float centery
property int viewportx
property int viewporty
property float k1
property float k2
end_header
-1.010448 -1.4321523 -4.3651381
-0.96753788 -1.3523401 -4.3831053
-0.96327734 -1.3127843 -4.3842955
-1.0032392 -1.2721416 -4.3654032
-1.0184302 -1.232633 -4.3577695
-0.9642005 -1.1123755 -4.3801126
-0.99736452 -0.95217907 -4.3620586
-1.0142651 -0.87277895 -4.3529005
-0.99544287 -0.79208881 -4.3599234
-1.0070562 -0.71276826 -4.3531656
-0.99149084 -0.63221651 -4.3587141
-0.99129105 -0.5922249 -4.3580532
-0.99120331 -0.57472861 -4.3577642
-0.98951483 -0.55228043 -4.3581085
-0.98001003 -0.47217643 -4.3609161
-0.97320127 -0.392149 -4.3625021
-0.96669292 -0.37210223 -4.365078
-0.96435642 -0.33209586 -4.365387
-0.96212053 -0.31209216 -4.366025
-0.95978403 -0.27208582 -4.366334
-0.95303535 -0.092134342 -4.3660154
-0.97811937 -0.052722856 -4.3538961
-1.0362597 -0.01342319 -4.3267822
-1.0366602 -0.093406461 -4.3281031
-1.0376482 -0.13337453 -4.3284054
-1.0378485 -0.17336614 -4.3290653
-1.1114302 -0.27368164 -4.2975688
-1.1331177 -0.2937324 -4.2881069
-1.1507339 -0.35375899 -4.2812424
-1.1163697 -0.47352195 -4.2990813
-1.1183462 -0.55345809 -4.2996864
-1.0815053 -0.65079647 -4.3182273
-1.1224985 -0.75332201 -4.3015561
-1.2368464 -0.75367498 -4.2496881
-1.2981396 -0.91379744 -4.2248898
-1.3512077 -0.91401803 -4.200819
-1.4309645 -1.0342194 -4.1668949
-1.4294291 -1.1541796 -4.1698446
-1.4677453 -1.194289 -4.1532154
-1.5060616 -1.2343982 -4.1365862
-1.5060749 -1.3943884 -4.1395855
-1.5651913 -1.4345831 -4.1135216
-1.6273508 -1.5195266 -4.0869179
-1.674233 -1.5393808 -4.0660229
-1.593236 -1.5317885 -4.1026249
-1.5463791 -1.5169332 -4.1236029
-1.5114021 -1.5142218 -4.1394191
-1.4439478 -1.5362226 -4.170433
-1.3756185 -1.5407505 -4.2015162
-1.3287868 -1.5308942 -4.2225761
-1.2946348 -1.5356575 -4.2381592
-1.2604704 -1.5379217 -4.2537003
-1.1794734 -1.5303292 -4.2903023
-1.1111317 -1.5323577 -4.3213444
-1.030098 -1.5172669 -4.3578224
-1.0149202 -1.4721733 -4.3638606
-4.9127741 -1.5286348 -2.5966415
-4.8228335 -1.6401713 -2.6395383
-4.7197981 -1.5177902 -2.6839824
-4.7039719 -1.5183198 -2.6911721
-4.6816845 -1.5176049 -2.7012691
-4.6483192 -1.5172607 -2.716399
-4.5420504 -1.5253947 -2.7647612
-4.6317859 -1.5067761 -2.7237027
-4.6912737 -1.5087458 -2.6967525
-4.750771 -1.5132149 -2.6698456
-4.8532405 -1.5141679 -2.6233776
-4.8874063 -1.5169851 -2.6079309
-4.9468942 -1.5189548 -2.580981
-4.9810414 -1.5167731 -2.565449
-5.0025187 -1.5125155 -2.5556257
-5.0494184 -1.5349042 -2.53477
-4.9937668 -1.5338452 -2.5599968
-10.919753 -1.505991 0.12887764
-10.85463 -1.5491692 0.098522902
-10.819428 -1.5474257 0.082586765
-10.773642 -1.5536898 0.061697483
-10.728369 -1.5461329 0.04130125
-10.706961 -1.5451744 0.031607866
-10.65852 -1.5577315 0.0093963146
-10.624387 -1.5572526 -0.0060794353
-10.577527 -1.5547543 -0.027290463
-10.5434 -1.5617733 -0.042904615
-10.4624 -1.5512981 -0.079453111
-10.394142 -1.5603377 -0.11058879
-10.347279 -1.5528407 -0.13170791
-10.31315 -1.5598598 -0.14732218
-10.232149 -1.544386 -0.18377829
-10.198023 -1.5539044 -0.19943845
-10.117023 -1.54093 -0.23594069
-10.115406 -1.5010016 -0.23592448
-10.158182 -1.3411969 -0.21351767
-10.158923 -1.2611902 -0.2116785
-10.196953 -1.1415539 -0.19217908
-10.197739 -1.1265283 -0.19154072
-10.200082 -1.0614572 -0.18925536
-10.120602 -0.94095409 -0.22304904
-9.9611893 -0.94155604 -0.29537821
-9.9633484 -0.98157436 -0.29515004
-9.9875736 -0.9815439 -0.2841599
-10.992937 -1.3466954 0.16506982
-10.994991 -1.22676 0.16825414
-10.994116 -1.1068249 0.17010951
-11.092916 -1.0275356 0.21641994
-10.994009 -0.9468714 0.17306566
-11.003284 -0.86698431 0.17877364
-11.007471 -0.74707896 0.18292522
-11.009525 -0.62714368 0.1861093
-11.032838 -0.50684834 0.19894457
-11.032758 -0.3868832 0.20116138
-11.032745 -0.3668873 0.20153117
-11.032704 -0.3069064 0.20263934
-11.015646 -0.20735355 0.19677067
-11.034746 -0.16697523 0.20619345
-11.034719 -0.12698683 0.20693231
-11.036798 -0.047039956 0.20937777
-11.017567 0.11252372 0.20364952
-11.03664 0.19289045 0.21381164
-11.023888 0.23239915 0.20876837
-11.028101 0.31231606 0.21218061
-11.036507 0.3928324 0.21750617
-11.027994 0.47226965 0.21513653
-11.036373 0.59277433 0.22120142
-11.025654 0.67290086 0.21784282
-11.040564 0.70768118 0.22526026
-11.04056 0.71267974 0.22535276
-11.040552 0.72517616 0.22558379
-11.036267 0.75272799 0.22415709
-11.040507 0.79265648 0.22683072
-11.04284 0.87272328 0.22939277
-11.040428 0.91262168 0.22904778
-11.040421 0.92261893 0.22923231
-11.045147 0.99277836 0.23269391
-11.051456 1.0729951 0.23706269
-11.039499 1.1125337 0.23238134
-10.95709 1.2330368 0.19725895
-10.954929 1.2730551 0.19703078
-10.942104 1.3132231 0.19196653
-10.930578 1.3536608 0.18749738
-10.925005 1.3609487 0.18510604
-10.856731 1.3744028 0.15438628
-10.80987 1.3794005 0.13322091
-10.775743 1.3698822 0.11756039
-10.728885 1.3698814 0.096302986
-10.682022 1.374879 0.075137615
-10.631201 1.3547341 0.051703453
-10.594682 1.3551229 0.035143852
-10.532761 1.3838124 0.0075919628
-10.485912 1.3688159 -0.01394248
-10.451777 1.3742933 -0.029325962
-10.404927 1.3592969 -0.050860763
-10.329505 1.3574854 -0.085110426
-10.289804 1.3577543 -0.10311544
-10.208838 1.3207432 -0.14054143
-10.169935 1.318543 -0.15823162
-10.127836 1.3362169 -0.17699766
-10.089739 1.3190508 -0.19460332
-10.046857 1.3191999 -0.21405399
-10.029789 1.321938 -0.22174573
-10.010338 1.3195889 -0.23061383
-9.9893208 1.2796892 -0.24089777
-10.029829 1.2619553 -0.22285402
-10.13026 1.2788235 -0.17697597
-10.207355 1.1582304 -0.14426625
-10.170916 1.0386542 -0.16304314
-10.20909 0.94085342 -0.14756203
-10.249628 0.87813264 -0.13035011
-10.324283 0.83742625 -0.097247124
-10.327192 0.67741293 -0.098932385
-10.248197 0.63814223 -0.13550675
-10.208576 0.51844603 -0.15572882
-10.167338 0.43867821 -0.17593479
-10.087195 0.35920942 -0.21378469
-10.084916 0.19916584 -0.21782446
-10.084969 0.11918904 -0.21930254
-10.085022 0.039212242 -0.22078085
-10.162935 -0.11634069 -0.1883564
-10.12406 -0.1610287 -0.20683157
-10.197159 -0.25427964 -0.17542112
-10.173765 -0.36141929 -0.18804657
-10.163134 -0.41625541 -0.19389915
-10.160778 -0.46133226 -0.19581437
-10.17175 -0.5413388 -0.19233966
-10.120441 -0.70102364 -0.21861494
-10.160169 -0.74128103 -0.2013489
-10.199923 -0.82152689 -0.18482149
-10.197563 -0.86160523 -0.18664467
-3.4254088 1.3259711 -3.2177777
-3.4040408 1.3174673 -3.2276311
-3.344384 1.3386782 -3.2542963
-3.3229077 1.3393489 -3.2640266
-3.314014 1.3385468 -3.2680764
-3.3013966 1.3406692 -3.2737603
-3.2420104 1.3401505 -3.3007109
-3.2204504 1.3382636 -3.3105273
-3.1907444 1.3405037 -3.3239613
-3.1775012 1.3415715 -3.3299494
-3.1521416 1.3433162 -3.3414209
-3.130511 1.3418466 -3.3512611
-3.1072707 1.3561988 -3.3615348
-3.0837538 1.3663985 -3.3720119
-3.0369084 1.3713137 -3.3931713
-2.9981306 1.3722885 -3.4107447
-2.9855385 1.3694118 -3.4165111
-2.9684558 1.3695288 -3.4242587
-2.9603293 1.3686576 -3.4279613
-2.9344637 1.3696948 -3.439676
-2.9126933 1.3728763 -3.4494925
-2.8874967 1.3696227 -3.4609842
-2.8496828 1.3684914 -3.4781599
-2.8325763 1.3711095 -3.4858713
-2.874867 1.3742446 -3.4666269
-3.3580143 1.3798053 -3.2473404
-3.288671 1.3621376 -3.2791302
-3.2545483 1.3549329 -3.2947454
-3.2330048 1.3486385 -3.304637
-3.1862836 1.3455222 -3.325891
-3.1735988 1.3476444 -3.3316054
-3.1610014 1.3502423 -3.3372717
-3.1088507 1.3599555 -3.3607473
-3.0836041 1.3666998 -3.3720741
-3.0710597 1.3710201 -3.3776836
-3.0619938 1.3748108 -3.3817253
-3.0457528 1.373067 -3.3891258
-2.9985051 1.3759346 -3.4105062
-2.9858153 1.3730836 -3.4163165
-2.9516733 1.3733537 -3.4318001
-2.9175313 1.373624 -3.4472837
-1.062427 1.3697774 -4.2889328
-1.1432738 1.3921789 -4.2518358
-1.2583976 1.3943489 -4.1995683
-1.292212 1.3878529 -4.18435
-1.4162922 1.3862265 -4.1280913
-1.4544792 1.396425 -4.1105757
-1.522934 1.3759582 -4.0799055
-1.5782104 1.3860388 -4.0546398
-1.6848021 1.3857683 -4.006289
-1.7657604 1.3856744 -3.9695635
-1.7999754 1.3779404 -3.9541869
-1.8809218 1.3803461 -3.9174204
-1.9151368 1.3726121 -3.9020438
-1.9924965 1.3636529 -3.8671174
-2.0176558 1.374405 -3.8555019
-2.0392284 1.3737924 -3.8457267
-2.0518327 1.3741695 -3.8400016
-2.0770416 1.3749238 -3.8285513
-2.0860348 1.368935 -3.824584
-1.9695001 1.2638358 -3.8794246
-1.9718366 1.2238294 -3.8791161
-1.9655223 1.1841146 -3.8827262
-1.94874 1.144008 -3.8910928
-1.9599333 1.041456 -3.8879411
-1.9707012 1.023886 -3.8833861
-1.9753737 0.94387323 -3.8827691
-1.9736381 0.86390465 -3.8850586
-1.9673238 0.82418996 -3.888669
-1.9740386 0.78392148 -3.886379
-1.966095 0.66400546 -3.8922348
-1.9619856 0.63154173 -3.8947091
-1.9622231 0.58405167 -3.895493
-1.968832 0.54401582 -3.8932471
-1.9517312 0.50460732 -3.9017448
-1.9262834 0.46424156 -3.9140477
-1.9290848 0.37683052 -3.9144185
-1.9543447 0.22512148 -3.9058084
-2.0050111 0.14386402 -3.8843496
-2.00353 0.10405792 -3.8857694
-2.0075474 0.063866019 -3.8847015
-2.0041299 -0.015916958 -3.8877501
-2.0081482 -0.056108877 -3.8866823
-1.9846396 -0.095473208 -3.8980865
-1.9850397 -0.17545648 -3.8994069
-1.9830713 -0.27528039 -3.9021749
-1.9840593 -0.31524843 -3.9024773
-2.0012679 -0.38848728 -3.8960462
-2.0079141 -0.43602151 -3.8939238
-2.0059781 -0.4759984 -3.8955529
-1.9976344 -0.51593113 -3.9000881
-1.904047 -0.59526682 -3.9440346
-1.9813848 -0.72530407 -3.9113922
-2.0050316 -0.75545967 -3.9012311
-2.0413218 -0.83476245 -3.8862574
-2.0414219 -0.85475826 -3.8865874
-1.995152 -0.91535264 -3.9087162
-1.9904137 -0.95502025 -3.9116106
-1.9908142 -1.0350035 -3.912931
-2.0109057 -1.0754222 -3.9045758
-2.0390868 -1.1160705 -3.8925548
-2.0517411 -1.1256914 -3.8869946
-2.064383 -1.1328127 -3.8813932
-2.1760454 -1.1670021 -3.8313792
-2.1922863 -1.1652583 -3.8239787
-2.2480986 -1.1786038 -3.7989099
-2.2912691 -1.1848278 -3.7794423
-2.2571418 -1.1945903 -3.7951076
-2.2103355 -1.1897329 -3.8162503
-2.1545353 -1.1788869 -3.8413606
-2.0524802 -1.3151863 -3.8902183
-2.0484085 -1.3551484 -3.8928161
-2.0486083 -1.3951402 -3.8934765
-2.0252171 -1.3952109 -3.9040892
-1.9961548 -1.3148272 -3.9157639
-1.9967418 -1.2748119 -3.9147458
-1.9989128 -1.156248 -3.9115343
-1.9924049 -1.1362079 -3.9141102
-1.9643354 -1.0760292 -3.9257138
-1.9323058 -1.0362822 -3.9394977
-1.7809262 -0.9549976 -4.0066452
-1.749939 -0.87506455 -4.0192013
-1.7005415 -0.75489837 -4.0393538
-1.7003417 -0.71490675 -4.0386934
-1.6526265 -0.59492618 -4.0580864
-1.616219 -0.55491698 -4.0738511
-1.5689306 -0.47484261 -4.0937996
-1.5342584 -0.35486493 -4.107276
-1.4975181 -0.31470847 -4.123189
-1.3992519 -0.16263457 -4.1649113
-1.3650498 -0.15740012 -4.1803293
-1.326221 -0.014812276 -4.1952662
-1.29813 0.025052592 -4.2072611
-1.2953935 0.1450422 -4.2062488
-1.2973289 0.18501912 -4.2046199
-1.3010836 0.22567938 -4.2021532
-1.2993078 0.26562393 -4.2022085
-1.3385987 0.34553659 -4.1828828
-1.3360353 0.38545758 -4.1832962
-1.2562513 0.46558189 -4.2179856
-1.2251506 0.48090851 -4.2318068
-1.193799 0.54622465 -4.2448025
-1.0906878 0.58541763 -4.2908435
-0.95153284 0.52278411 -4.3551483
-0.95377111 0.5478496 -4.353662
-1.0498772 0.63068783 -4.308507
-1.0840793 0.62545347 -4.2930899
-1.2512093 0.62667948 -4.217247
-1.2492213 0.70911509 -4.2166009
-1.1529331 0.82632202 -4.2580814
-1.1438398 0.865969 -4.2614617
-1.1307716 0.98643583 -4.2651277
-1.062429 1.026433 -4.2953806
-0.9913497 1.18642 -4.3246212
-0.98701 1.2662853 -4.3250895
-1.0212722 1.3473055 -4.3080244
-5.6949334 1.3865876 -2.1870587
-5.7360716 1.3692927 -2.1687212
-5.7740779 1.3754234 -2.1513643
-5.7955351 1.3797517 -2.1415486
-5.8455114 1.3849285 -2.1187797
-5.8511438 1.3837861 -2.116246
-5.8890934 1.4049135 -2.0986331
-5.9232163 1.4121184 -2.0830176
-5.9359198 1.4049973 -2.0773885
-10.969523 -1.426343 0.15295219
-6.5248923 1.461561 -1.8091359
-6.6003251 1.4611861 -1.7749227
-6.6320992 1.4608217 -1.7605149
-6.7292051 1.3860998 -1.7178657
-6.8101926 1.3833907 -1.6811763
-6.741909 1.3789787 -1.7122364
-6.6909356 1.3809438 -1.7353238
-6.687151 1.3811586 -1.7370366
-6.6529126 1.3827598 -1.7525389
-6.5894499 1.3821808 -1.78134
-6.5060959 1.3823199 -1.8191513
-6.4648428 1.3749028 -1.8380052
-6.4433289 1.3855716 -1.8475648
-6.421834 1.3912413 -1.8572096
-6.3837991 1.3926089 -1.8744386
-6.3281717 1.3935732 -1.8996561
-6.3623037 1.3982785 -1.8840836
-6.4539909 1.4224843 -1.8420346
-6.4966602 1.4616212 -1.8219426
-5.1631947 -1.163021 -2.4761703
-5.1972332 -1.1308463 -2.4601245
-5.2143097 -1.1285069 -2.4523335
-5.2313714 -1.126165 -2.4445493
-5.2655282 -1.1264828 -2.42906
-5.2997298 -1.1392975 -2.413785
-5.3377137 -1.1380264 -2.3965297
-5.4231029 -1.1363224 -2.3577602
-5.4445806 -1.1320649 -2.3479369
-5.482573 -1.1332933 -2.3307245
-5.512866 -1.1252019 -2.3168299
-5.54705 -1.1330179 -2.3014691
-5.5597205 -1.1350937 -2.2957602
-5.5812154 -1.1358349 -2.2860227
-5.6065564 -1.1399864 -2.2746046
-5.6407123 -1.1403041 -2.2591155
-5.6963191 -1.1288662 -2.2336743
-5.7601967 -1.1239201 -2.2046032
-5.7899361 -1.1236552 -2.1911068
-5.8241658 -1.1439682 -2.1759598
-5.9089484 -1.1375923 -2.137378
-5.9640298 -1.1651282 -2.1129074
-5.9393668 -1.2039405 -2.1248248
-5.9306984 -1.2083173 -2.1288395
-5.850585 -1.324707 -2.1673691
-5.8467331 -1.4396404 -2.1712751
-5.9406509 -1.5169102 -2.1301203
-5.9533391 -1.5239847 -2.1244969
-6.0001569 -1.5238786 -2.103256
-6.0407734 -1.5254408 -2.0848594
-6.0773225 -1.5306778 -2.0683773
-6.1241584 -1.5355706 -2.0472217
-6.1026807 -1.5398282 -2.057045
-6.0811763 -1.5365874 -2.0667398
-6.0431566 -1.5278608 -2.0838237
-5.1633492 -1.205511 -2.4768982
-5.2067037 -1.3069704 -2.4591358
-5.2038355 -1.3219739 -2.4607186
-5.1815748 -1.4811481 -2.4738069
-5.1129289 -1.5207019 -2.5056915
-6.2900987 1.4049386 -1.9167147
-6.2257271 1.3919544 -1.946161
-6.1320271 1.4042841 -1.9884369
-6.221796 1.4055257 -1.9476894
-5.7866774 1.3957964 -2.1452658
-5.8334851 1.4008791 -2.1239359
-5.8764277 1.4020369 -2.1044331
-5.4844127 1.3509747 -2.2832313
-5.4376054 1.3458921 -2.3045611
-5.4073091 1.3526099 -2.3181791
-5.4717283 1.3530968 -2.2889459
-5.5097251 1.3617271 -2.2715464
-5.2415171 1.3416064 -2.3935981
-5.2756877 1.3363138 -2.3781958
-5.288363 1.3366911 -2.3724387
-5.3263788 1.3403225 -2.3551245
-5.3566275 1.3461019 -2.3412933
-5.330615 1.3477851 -2.3530624
-5.3180618 1.3494201 -2.3587265
-5.2751188 1.3482622 -2.3782294
-5.232688 1.3501527 -2.3974431
-5.2072902 1.3618954 -2.4087441
-5.181428 1.3580925 -2.4205482
-5.194634 1.3565192 -2.4145868
-4.409647 1.3688209 -2.7704687
-4.4184484 1.3677727 -2.7664957
-4.4653034 1.3603581 -2.745379
-4.3995018 1.3497106 -2.7754302
-4.3589659 1.3623128 -2.7935829
-4.3159752 1.3736523 -2.8128726
-4.3501363 1.3708594 -2.7974277
-4.3628206 1.3687372 -2.7917132
-4.3716216 1.367689 -2.7877402
-3.8643832 1.3421247 -3.0183315
-3.9365504 1.3454626 -2.9855299
-3.9921966 1.3394992 -2.9603977
-4.0478053 1.3435336 -2.9350948
-4.0985155 1.3425435 -2.9121084
-4.073184 1.33679 -2.9237084
-4.0517263 1.3324618 -2.9335239
-4.0048909 1.3348776 -2.9547257
-3.9453797 1.3369161 -2.9816849
-1.7071881 1.0651991 -4.0021544
-1.7851963 1.0250193 -3.96752
-1.7881598 0.90511507 -3.9684277
-1.6940246 0.86536759 -4.011879
-1.6724362 0.86542922 -4.0216713
-1.5932403 0.9855687 -4.0553427
-7.3771062 -1.1304302 -1.4712069
-7.3766699 -1.0104585 -1.4691515
-7.3398485 -0.93023896 -1.484349
-7.338912 -0.89027482 -1.4840233
-7.337975 -0.85031068 -1.4836979
-7.3797541 -0.7703824 -1.4632434
-7.4169302 -0.73060352 -1.4456311
-7.3785262 -0.650437 -1.4615476
-7.3783808 -0.61044639 -1.4608624
-7.3759556 -0.53044534 -1.4604603
-7.4167037 -0.45064276 -1.4404757
-7.3798389 -0.3816188 -1.4559033
-7.3391986 -0.34152263 -1.4735869
-7.307837 -0.28987625 -1.4868442
-7.3077612 -0.22116093 -1.485588
-7.3066664 -0.14120197 -1.4845831
-7.3030429 -0.021322504 -1.4839753
-7.3674998 0.058376908 -1.4532372
-7.3016448 0.13861899 -1.4816056
-7.2943225 0.21896581 -1.4834183
-7.3018308 0.29860771 -1.4785163
-7.2770343 0.33917546 -1.4890035
-7.2727704 0.41904008 -1.4894378
-7.3421273 0.55846959 -1.4553552
-7.3849168 0.57843107 -1.4355683
-7.4230294 0.57825541 -1.4182818
-7.4119024 0.69832093 -1.4210746
-7.3817825 0.77831668 -1.4332361
-7.3441596 0.85849839 -1.4487981
-7.344008 0.89848977 -1.4481157
-7.3193431 0.93857008 -1.4585522
-7.3029132 1.0585597 -1.4637522
-7.3446836 1.1384846 -1.4433018
-7.3802676 1.1782295 -1.4264123
-7.4598475 1.337961 -1.3873107
-7.5652266 1.3777515 -1.3387576
-7.5776854 1.3776978 -1.3331065
-7.6144695 1.3803415 -1.3163698
-7.6629038 1.3849497 -1.2943107
-7.7295938 1.3793848 -1.2641611
-7.7008915 1.3960794 -1.2768683
-7.6882257 1.3932027 -1.2826681
-6.140646 -1.5335582 -2.0397041
-6.2248793 -1.5251226 -2.001333
-6.2951298 -1.4057068 -1.9672207
-6.2958674 -1.3650475 -1.9661225
-6.2853065 -1.3160455 -1.9699931
-6.2294455 -1.2575001 -1.994235
-6.2254438 -1.2451354 -1.9958183
-6.23242 -1.2049065 -1.9918979
-6.2380257 -1.1886815 -1.9890501
-6.318954 -1.1763961 -1.9521059
-6.3530836 -1.1692156 -1.936488
-6.3657446 -1.1687919 -1.9307363
-6.4333129 -1.1247659 -1.8992567
-6.4844208 -1.0902507 -1.8754232
-6.5184951 -1.0680735 -1.8595486
-6.5653806 -1.0065678 -1.8371236
-6.5738564 -0.98915142 -1.8329515
-6.6023917 -0.96715969 -1.8195933
-6.6331081 -0.92613637 -1.8048882
-6.6520839 -0.88696653 -1.795544
-6.6630378 -0.81806856 -1.7892808
-6.6562762 -0.7668854 -1.7913868
-6.6730895 -0.72710335 -1.7830123
-6.6753168 -0.71266955 -1.7817307
-6.679348 -0.68717229 -1.779423
-6.687851 -0.67725402 -1.7753794
-6.7348528 -0.68768853 -1.7542529
-6.8159428 -0.75984037 -1.7188209
-6.8715854 -0.75839996 -1.6935514
-6.9095325 -0.74713123 -1.6761248
-6.9391994 -0.72687101 -1.6622858
-6.9564252 -0.72757274 -1.6544845
-6.9669514 -0.72712922 -1.6497009
-6.9525919 -0.84750485 -1.6584759
-6.9567871 -0.86699706 -1.656939
-6.8871493 -0.8890512 -1.6889447
-6.829504 -1.0068585 -1.7173084
-6.8316364 -1.0463262 -1.7170821
-6.8340645 -1.0868795 -1.7167424
-6.8386445 -1.126539 -1.7154095
-6.8345003 -1.2068512 -1.7187978
-6.8241196 -1.2472855 -1.7242665
-6.8180079 -1.2877593 -1.7277992
-6.8242631 -1.3267239 -1.7256935
-6.8307309 -1.3442793 -1.723089
-6.8329473 -1.366794 -1.7225063
-6.8437829 -1.4513304 -1.7191784
-6.9132895 -1.5283779 -1.6890936
-7.0237637 -1.5540602 -1.6394589
-7.1047735 -1.5642695 -1.6029
-7.1389303 -1.5645872 -1.5874107
-7.1706772 -1.5293505 -1.5723467
-7.2623634 -1.4883865 -1.5299834
-7.300477 -1.4885719 -1.5126967
-7.360158 -1.5094938 -1.486015
-7.3855529 -1.5286417 -1.474854
-7.4070301 -1.5243844 -1.4650309
-7.4753065 -1.5150219 -1.433881
-7.5221605 -1.5249135 -1.4128113
-7.5348406 -1.5294887 -1.407145
-7.5816765 -1.5343814 -1.3859897
-7.612649 -1.5298063 -1.3718526
-7.6499801 -1.5325174 -1.3549681
-7.6968069 -1.5349108 -1.33377
-7.7442584 -1.536791 -1.3122786
-7.7315292 -1.5322721 -1.3179684
-7.6842675 -1.5235405 -1.3392448
-7.6587234 -1.5086883 -1.3505542
-7.624567 -1.5083708 -1.3660434
-7.6036682 -1.5143001 -1.3756356
-7.5568094 -1.5143011 -1.3968935
-7.4641376 -1.4903985 -1.4384855
-7.4170284 -1.4105233 -1.4583564
-7.3402209 -1.2501903 -1.4901893
-7.3392844 -1.2102263 -1.4898636
-6.2178025 -1.537858 -2.0047824
-6.2392979 -1.5385994 -1.9950451
-6.2557769 -1.5340874 -1.9874843
-6.273427 -1.5314188 -1.9794273
-6.2987494 -1.5305715 -1.9679236
-6.3240719 -1.529724 -1.9564202
-6.3755856 -1.4868397 -1.9322453
-6.3922234 -1.4459221 -1.9239291
-6.3836884 -1.3669472 -1.9263176
-6.3832459 -1.3653187 -1.9264878
-6.3702078 -1.342162 -1.9319677
-6.3630223 -1.3249046 -1.9349034
-6.3573833 -1.2975963 -1.9369487
-6.4340487 -1.1669278 -1.8997149
-6.4935002 -1.1588998 -1.8725935
-6.5149956 -1.1596413 -1.862856
-6.5607734 -1.1670234 -1.8422275
-6.5655494 -1.1329522 -1.8394208
-6.5742111 -1.0866284 -1.8346214
-6.5860648 -1.0476969 -1.8285127
-6.624712 -1.0054953 -1.8101876
-6.7483821 -1.006104 -1.7540956
-6.8152938 -1.0883292 -1.7252851
-6.8135953 -1.2082812 -1.7283083
-6.7923656 -1.2405751 -1.7385459
-6.7859883 -1.2480136 -1.7415786
-6.8032122 -1.2881632 -1.7345191
-6.8051977 -1.3270879 -1.7343495
-6.7371731 -1.4458816 -1.7674403
-6.8251934 -1.5284047 -1.7290592
-6.8744307 -1.5407163 -1.7069538
-5.1304379 -1.5476129 -2.4982538
-5.189908 -1.5445838 -2.4712181
-5.2465353 -1.5620692 -2.4458573
-5.2652035 -1.5621762 -2.4373903
-5.3265338 -1.5458546 -2.409261
-5.3904371 -1.5459086 -2.3802719
-5.4119596 -1.5541481 -2.3706627
-5.4270782 -1.5623282 -2.3639579
-5.4327049 -1.5661633 -2.3614774
-5.4588866 -1.584035 -2.3499355
-5.5183387 -1.5760071 -2.3228142
-5.5545754 -1.5613482 -2.3060999
-5.5865517 -1.5491489 -2.2913647
-5.73176 -1.6024439 -2.226491
-5.7399859 -1.6023512 -2.2227573
-5.8040338 -1.5181388 -2.1921203
-5.8723192 -1.5112759 -2.1610134
-0.96523714 0.38725871 -4.3514767
-0.94591951 0.22763373 -4.3632383
-0.95322132 0.22738047 -4.3599305
-0.97064257 0.22711544 -4.3520322
-7.2618799 1.3899237 -1.4761437
-7.2103376 1.3797007 -1.499718
-7.0999618 1.3803455 -1.5497783
-7.0720825 1.3810713 -1.5624125
-7.0246162 1.3794129 -1.5839767
-7.006309 1.380178 -1.5922676
-6.9848142 1.3858477 -1.6019124
-6.9126463 1.3825099 -1.6347141
-8.4008789 -1.5520501 -1.0146866
-8.3198853 -1.5490727 -1.0513737
-8.2175379 -1.6251137 -1.0992321
-8.1237707 -1.5501375 -1.1403618
-8.0427713 -1.537163 -1.1768641
-8.1271601 -1.6450948 -1.1406076
-8.1778774 -1.6848276 -1.1183457
-8.2120104 -1.6853063 -1.10287
-8.2516994 -1.6680803 -1.0845416
-8.3349094 -1.6867425 -1.0471432
-8.3668232 -1.6690372 -1.032333
-8.4009266 -1.6245291 -1.0160261
-8.5394583 -1.6476493 -0.95361471
-8.4818678 -1.5500289 -0.97790742
-6.1193423 1.4064064 -1.9941515
-6.1281433 1.4053582 -1.9901786
-7.2047873 -0.92982888 -1.5456126
-7.2214251 -0.88891149 -1.5372963
-7.221427 -0.8494637 -1.5365545
-7.195519 -0.76924419 -1.5468011
-7.2167211 -0.72945207 -1.5364352
-7.1949549 -0.61428058 -1.5441464
-7.1945009 -0.48930991 -1.5420054
-7.1959381 -0.44926631 -1.5406013
-7.1961818 -0.34244967 -1.5384846
-7.1875663 -0.30047238 -1.5416048
-7.1767426 -0.26038939 -1.5457622
-7.1700363 -0.18035182 -1.5473013
-7.1526327 -0.14054656 -1.5544488
-7.1269016 -0.062510528 -1.564656
-7.0885839 -0.020664319 -1.5812533
-7.0306702 0.020309716 -1.6067564
-7.0157094 0.059942007 -1.6127992
-6.9929371 0.099914983 -1.6223793
-6.9812551 0.14021812 -1.6269219
-6.9924822 0.21988879 -1.6203322
-6.9921794 0.29987139 -1.6189674
-7.0228477 0.36077785 -1.6039107
-7.0143456 0.4198634 -1.6066579
-7.0140429 0.49984592 -1.6052933
-6.9795885 0.58012205 -1.6194158
-6.9658852 0.71416533 -1.6231148
-6.9525752 0.88125139 -1.6260147
-6.9674406 0.9011187 -1.6188978
-7.0292339 0.99709064 -1.5890626
-7.0258284 1.0594826 -1.5894357
-7.0185475 1.0992616 -1.5919917
-7.0136013 1.1796793 -1.592725
-6.9801803 1.3031992 -1.6055669
-6.9165492 1.3764371 -1.6330578
-10.821036 0.033412322 0.11300683
-10.902929 -0.12698928 0.14714551
-10.987022 -0.0073821396 0.18754077
-3.8259525 -1.5255656 -3.0896256
-3.8512747 -1.5247182 -3.0781221
-3.8727245 -1.5129625 -3.0681705
-3.9742823 -1.5149852 -3.0221362
-4.0005255 -1.5155677 -3.010242
-4.0473795 -1.5254592 -2.989172
-4.0815544 -1.5307757 -2.9737682
-4.0942154 -1.530352 -2.9680166
-4.1625104 -1.5259886 -2.9369524
-4.2054648 -1.5174736 -2.9173059
-4.1585741 -1.4975843 -2.9382048
-4.1371245 -1.5093399 -2.9481561
-4.0776458 -1.5098697 -2.9751492
-4.0561414 -1.506629 -2.9848437
-4.0346732 -1.5133859 -2.9947097
-3.975158 -1.5039178 -3.0215313
-4.8700595 1.3943014 -2.5611219
-4.8447089 1.3935469 -2.5726364
-4.8661175 1.3891847 -2.5630064
-4.9384565 1.3687198 -2.5305736
-4.9130306 1.3879609 -2.5417469
-4.9042201 1.3915085 -2.5456772
-4.7550249 1.3698103 -2.6137679
-4.6867886 1.3529011 -2.6450412
-4.6272869 1.3524402 -2.6720431
-4.5892143 1.3638055 -2.6891015
-4.6399341 1.3603159 -2.6661577
-4.6955137 1.3718487 -2.640727
-4.7616158 1.3887761 -2.6104217
-4.7685032 1.3888992 -2.6072948
-4.7809572 1.3881236 -2.6016593
-4.7916298 1.3880318 -2.5968196
-2.793865 1.3818377 -3.5032313
-2.7179778 1.4214519 -3.5369139
-2.6165142 1.4221511 -3.5829301
-2.6021037 1.4117599 -3.5896628
-2.5339246 1.3772383 -3.6212409
-2.512794 1.342033 -3.6314878
-2.4566271 1.3736999 -3.6563735
-2.5650105 1.4631631 -3.6055248
-2.5841978 1.4636979 -3.5968103
-2.5973697 1.4622444 -3.5908623
-2.6706214 1.4664164 -3.5575528
-2.6953044 1.4845278 -3.546015
-2.7119606 1.4625275 -3.5388722
-2.7423613 1.4296809 -3.5256977
-2.7983491 1.3813429 -3.5012064
-9.052989 -0.86943024 -0.70603287
-9.1680765 -0.81540298 -0.65280819
-9.1552238 -0.73524666 -0.65713346
-9.0123501 -0.65425354 -0.72042763
-9.011528 -0.61429513 -0.72004986
-8.9718952 -0.71649653 -0.73994887
-9.0100698 -0.81429714 -0.72446775
-7.0148745 -1.5378989 -1.6431878
-7.0434556 -1.5284041 -1.6300435
-7.1241388 -1.4486346 -1.591943
-7.1325526 -1.3683622 -1.5866184
-7.1713119 -1.3285302 -1.5682871
-7.1844554 -1.2490125 -1.5608311
-7.2137585 -1.1287757 -1.5452791
-7.1919341 -1.0893279 -1.5544391
-7.1901326 -1.0491189 -1.5545011
-7.1858649 -1.0096313 -1.5556955
-2.3162696 1.3757746 -3.7200086
-2.2479153 1.3762456 -3.751009
-2.210089 1.3776138 -3.7681432
-2.2605572 1.3691243 -3.7454076
-7.9403772 -1.5432243 -1.2234292
-7.8593826 -1.5377479 -1.2600698
-7.8125191 -1.5302509 -1.281189
-7.8418751 -1.5234118 -1.2677431
-7.8791895 -1.5237707 -1.2508221
-7.9562039 -1.5243986 -1.2158959
-3.0778909 -1.3979605 -3.4265907
-3.0862973 -1.3576876 -3.4220207
-3.078645 -1.3578557 -3.4254951
-2.8652468 -1.5184422 -3.5253205
-2.8947098 -1.52127 -3.5120075
-2.9109702 -1.5194585 -3.5045967
-2.9288685 -1.5189453 -3.4964676
-2.9367919 -1.5175649 -3.492847
-2.9693484 -1.5189155 -3.4781032
-2.9756529 -1.5187111 -3.4752393
-3.0026925 -1.5171907 -3.462944
-3.0095391 -1.5176114 -3.459846
-3.0260718 -1.5145749 -3.4522886
-3.0691552 -1.5082445 -3.4326248
-3.0907378 -1.511328 -3.4228916
-3.1159885 -1.5155087 -3.4115152
-3.1249456 -1.5165018 -3.4074702
-3.1627724 -1.5152743 -3.3902869
-3.1898625 -1.5120212 -3.3779364
-3.1604447 -1.5090452 -3.3912258
-3.0940945 -1.4649351 -3.4204977
-3.5296762 -1.5062066 -3.2236691
-3.5638845 -1.5113803 -3.2082477
-3.6208861 -1.4886677 -3.181962
-3.6629434 -1.3535538 -3.1603448
-3.6671948 -1.3485947 -3.1583228
-3.7017601 -1.461386 -3.1447606
-3.7509036 -1.5137874 -3.1234508
-5.0321379 1.3613889 -2.4882123
-5.0156078 1.3545873 -2.4958391
-4.9979868 1.3616825 -2.5036998
-4.5550537 1.3665985 -2.704546
-4.5715933 1.3709008 -2.6969619
-4.7891192 1.3845135 -2.5980246
-2.8020105 1.3777107 -3.4996135
-2.8146527 1.3705893 -3.4940121
-7.5930538 1.3937966 -1.3258324
-7.5047846 1.3967927 -1.3658197
-7.4921284 1.3914163 -1.3716624
-7.3896551 1.397296 -1.4180393
-7.3087063 1.3900074 -1.4548991
-4.3419433 -1.5182014 -2.8554056
-4.3547707 -1.5233194 -2.8496828
-4.3800836 -1.5199727 -2.8381362
-3.4145913 -1.5135896 -3.2760167
-3.4336877 -1.5090871 -3.2672687
-3.4613423 -1.5083565 -3.2547095
-3.4716713 -1.5078161 -3.2500136
-3.4551561 -1.5023303 -3.2574027
-3.4248173 -1.4979244 -3.2710834
-3.4033039 -1.4921842 -3.280735
-3.3527136 -1.5088755 -3.3039989
-3.3185663 -1.5110574 -3.3195312
-3.3588498 -1.5128306 -3.3012896
-3.3930087 -1.510506 -3.2857499
-2.9747443 -1.5107468 -3.475502
-2.9342933 -1.5093427 -3.4938264
-2.8857198 -1.515278 -3.5159733
-2.8730946 -1.5131876 -3.5216618
-2.8470161 -1.5132939 -3.533494
-2.8002219 -1.5109359 -3.5546784
-2.7786367 -1.5078241 -3.5644121
-2.7354791 -1.5040992 -3.5839207
-2.7697189 -1.5168321 -3.5686269
-2.7912664 -1.5124458 -3.5587692
-2.8344367 -1.5186698 -3.5393019
-2.8479259 -1.5215044 -3.5332355
-3.0452232 -1.4835218 -3.4430175
-3.0558517 -1.4711239 -3.437963
-3.6981423 -1.5204612 -3.1475115
-3.6664758 -1.5219027 -3.1619043
-3.6171679 -1.5202495 -3.1842418
-3.5918043 -1.5192583 -3.1957297
-3.5527 -1.5230242 -3.2135401
-3.4955342 -1.5110307 -3.2392485
-3.757621 -1.5199314 -3.1205187
-10.235077 0.35816324 -0.14671695
-10.284027 0.47776973 -0.12226439
-10.434132 0.39638728 -0.055696726
-10.358788 0.27710998 -0.09211719
-2.5951338 -1.5045241 -3.6475971
-2.507005 -1.4359692 -3.6862893
-2.5099831 -1.3558064 -3.6834331
-2.5085404 -1.3160093 -3.6833401
-2.5281065 -1.2377872 -3.6729946
-2.5596294 -1.1973182 -3.657934
-2.5467756 -1.1897315 -3.6636229
-2.5035427 -1.17101 -3.6828837
-2.4692905 -1.1557777 -3.6981363
-2.3884065 -1.1706805 -3.7351098
-2.5059462 -1.2771899 -3.6837878
-2.5044801 -1.3164451 -3.6851902
-2.5000443 -1.3573617 -3.6879709
-2.505959 -1.4371798 -3.6867867
-2.4887905 -1.4701916 -3.6951954
-2.5051565 -1.4934424 -3.6882076
-2.5231054 -1.4979213 -3.6801491
-2.5825665 -1.5123997 -3.6534462
-2.5862157 -1.5135323 -3.6518121
-2.6419406 -1.5093815 -3.6264541
-2.6635005 -1.5074944 -3.6166379
-2.650871 -1.5028727 -3.6222806
-3.290483 -1.5099816 -3.3322511
-3.2629235 -1.5124977 -3.3448009
-3.2526565 -1.5112091 -3.3494344
-3.2221489 -1.5121315 -3.3632915
-3.250253 -1.510422 -3.3505099
-1.3445268 0.10572828 -4.1846976
-1.4396105 0.22542076 -4.1393147
-1.5440664 0.22516496 -4.0919323
-1.5260296 0.02987282 -4.1037827
-1.5175104 0.024932757 -4.1077404
-1.445621 -0.080010258 -4.1423244
-9.1375751 -0.29492503 -0.65687001
-9.1464243 -0.33524296 -0.65361261
-9.1336107 -0.31506747 -0.65904665
-9.1336079 -0.31007063 -0.65895391
-9.1335726 -0.25758415 -0.65798426
-2.2715437 -0.82542336 -3.7816405
-2.2373791 -0.82768732 -3.7971821
-2.2568259 -0.87586069 -3.7892647
-2.2592394 -0.8857879 -3.7883563
-2.3036351 -0.8356421 -3.7672741
0 0 0 1 0 0 0 1 0 0 0 1 0 0 0 0 0 887 1 0 0
