ply
format ascii 1.0
comment PCL generated
element vertex 805
property float x
property float y
property float z
element camera 1
property float view_px
property float view_py
property float view_pz
property float x_axisx
property float x_axisy
property float x_axisz
property float y_axisx
property float y_axisy
property float y_axisz
property float z_axisx
property float z_axisy
property float z_axisz
property float focal
property float scalex
property float scaley
property float centerx
property float centery
property int viewportx
property int viewporty
property float k1
property float k2
end_header
-0.2021184 -1.5158877 -1.9372653
-0.25149298 -1.4908609 -1.9172822
-0.25754261 -1.4909067 -1.9148649
-0.27290726 -1.5010669 -1.9088262
-0.3307991 -1.5259672 -1.8859395
-0.34237146 -1.5271122 -1.8813261
-0.31986237 -1.5273565 -1.8903242
-0.26173019 -1.5186597 -1.9134694
-0.23577213 -1.5206062 -1.9238631
-0.22632504 -1.5210705 -1.9276432
-0.17793274 -1.5207045 -1.9469794
-0.10711193 -1.5205263 -1.9752809
-0.073442936 -1.5083082 -1.9886142
-0.060423851 -1.4905323 -1.9936391
-0.095871449 -1.5081207 -1.9796487
-0.15374231 -1.5230216 -1.9566702
-0.1200943 -1.520803 -1.9700953
-10.575246 1.1656899 2.2351911
-10.602724 1.1452051 2.2459674
-10.599101 1.1226469 2.2442935
-10.598982 1.0826507 2.243845
-10.598885 1.0501537 2.2434807
-10.598749 1.0051579 2.2429757
-10.603666 0.98524439 2.2447412
-10.607409 0.94507515 2.2458346
-10.521093 0.82577407 2.2101433
-10.520298 0.74565291 2.2090225
-10.597597 0.62019438 2.2386575
-10.584771 0.50502312 2.2323778
-10.5886 0.46506411 2.2335079
-10.581963 0.38496304 2.2300522
-10.585072 0.34472346 2.2308915
-10.570347 0.30477744 2.2246065
-10.570107 0.22478503 2.2237091
-10.595967 0.18493164 2.233645
-10.587642 0.14509428 2.2299185
-10.593398 0.064965099 2.231416
-10.581663 -0.0552167 2.2255218
-10.401184 -0.0138731 2.1538086
-10.494764 0.10543165 2.1924028
-5.5714455 1.3737527 0.23752362
-5.4993205 1.3873303 0.20883515
-5.4412842 1.3822241 0.18558997
-5.4059105 1.3824282 0.17145517
-5.4299526 1.3770691 0.18100977
-5.4879885 1.3796755 0.20422977
-10.36519 -1.3927355 2.1256065
-10.544685 -1.4419521 2.1968482
-10.509147 -1.5015925 2.1820478
-10.499155 -1.5142604 2.177928
-10.462307 -1.5364285 2.1629794
-10.391553 -1.5482196 2.1345847
-10.344826 -1.545559 2.1159368
-10.233084 -1.5370944 2.0713644
-10.197695 -1.5467396 2.0571246
-10.167994 -1.5562885 2.0451593
-10.097667 -1.63104 2.016304
-10.0743 -1.6309596 2.0069664
-10.060099 -1.630664 2.0012937
-10.050317 -1.6304126 1.9973873
-10.036116 -1.6301171 1.9917148
-9.9150658 -1.6693637 1.9429445
-9.9093781 -1.6694599 1.9406701
-9.8988085 -1.6691624 1.9364492
-9.8096581 -1.6512702 1.9009995
-9.7876263 -1.6285511 1.8924222
-9.7271881 -1.5702964 1.8688524
-9.7455044 -1.5634403 1.8762411
-9.7802486 -1.5633283 1.8901277
-9.815608 -1.5636821 1.9042552
-9.8332882 -1.5638587 1.9113193
-9.8509741 -1.5615363 1.9184107
-9.8686466 -1.5642126 1.9254467
-9.897686 -1.5691962 1.9370023
-9.9159889 -1.5673397 1.9443353
-9.9216766 -1.5672435 1.9466093
-9.9570427 -1.5650977 1.960765
-9.9684181 -1.5649046 1.9653131
-9.9741058 -1.5648077 1.9675871
-10.003785 -1.5627586 1.9794688
-10.050535 -1.5579199 1.9982007
-10.068836 -1.5560633 2.0055337
-10.105478 -1.5512772 2.0202255
-10.115578 -1.5537242 2.0242372
-10.162313 -1.553885 2.042913
-10.236755 -1.4719821 2.0734844
-10.238981 -1.4670049 2.0744236
-10.256765 -1.4321851 2.0818799
-10.267935 -1.3922994 2.0867434
-10.275626 -1.3525319 2.0902157
-10.277014 -1.3123953 2.0911725
-10.277134 -1.2723992 2.0916212
-10.279463 -1.2324251 2.0929527
-10.280524 -1.1925913 2.0937757
-10.280644 -1.152595 2.0942247
-10.280764 -1.1125989 2.0946734
-10.283214 -1.0326285 2.0964537
-10.285543 -0.99265444 2.0977852
-10.284721 -0.95249569 2.0978594
-10.285784 -0.91266197 2.0986826
-10.284962 -0.87250322 2.0987566
-10.286022 -0.8326695 2.0995796
-10.287085 -0.79283655 2.1004033
-10.288471 -0.75269914 2.1013598
-10.28986 -0.71256256 2.1023171
-10.289654 -0.67287004 2.1026323
-10.2901 -0.63257003 2.1032145
-10.291161 -0.59273636 2.1040378
-10.291281 -0.55274016 2.1044862
-10.291521 -0.47274774 2.1053836
-10.29385 -0.43277359 2.106715
-10.290758 -0.41258919 2.1056819
-10.290819 -0.39259273 2.1059065
-10.293089 -0.37261507 2.1070137
-10.295359 -0.35264072 2.1081209
-10.296093 -0.31311074 2.1088107
-10.296479 -0.29280719 2.1091685
-10.2966 -0.25281096 2.1096175
-10.296839 -0.17281851 2.1105144
-10.290003 -0.13305962 2.1081808
-10.299288 -0.092848182 2.1122947
-10.301619 -0.052874058 2.1136265
-10.298261 -0.012996942 2.112684
-10.301857 0.027118385 2.1145236
-10.302217 0.14710706 2.1158695
-10.298861 0.18698418 2.1149275
-10.297 0.22682756 2.1145835
-10.307117 0.30704772 2.1194303
-10.292382 0.34673178 2.1139395
-10.294712 0.38670588 2.1152713
-10.309686 0.42701429 2.121659
-10.305179 0.50674731 2.120657
-10.299611 0.54664654 2.1188316
-10.303209 0.58676189 2.1206715
-10.308074 0.62701762 2.1230192
-10.308195 0.66701376 2.1234682
-10.299149 0.70679486 2.1202512
-10.299208 0.72679293 2.1204758
-10.295791 0.74667192 2.1193092
-10.299305 0.75928986 2.1208401
-10.301924 0.78706884 2.122165
-10.29824 0.82664227 2.1210892
-10.296149 0.86666059 2.1206548
-10.286199 0.90767837 2.117089
-10.290532 0.98732305 2.1196189
-10.286884 1.0279709 2.1185682
-10.2931 1.1072896 2.1218476
-10.296371 1.1471013 2.1235538
-10.298702 1.1870755 2.1248856
-10.298821 1.2270716 2.1253343
-10.29579 1.2672523 2.1245253
-10.236073 1.3600371 2.1015892
-10.206424 1.3679873 2.0898197
-10.270216 1.365616 2.1152902
-10.414135 1.3469839 2.1726203
-10.458332 1.3465414 2.1902795
-10.469648 1.3267365 2.1946034
-10.476219 1.306672 2.1970282
-10.477863 1.2263536 2.1968801
-10.365944 -1.352669 2.1263092
-10.358781 -1.3132138 2.1238422
-10.351329 -1.2729883 2.1212673
-10.352871 -1.2329679 2.1222844
-10.354721 -1.1931808 2.1234224
-10.350266 -1.1530237 2.1220446
-10.351721 -1.0333141 2.1238256
-10.356554 -0.95294595 2.1265621
-10.357769 -0.91322929 2.1274459
-10.36104 -0.87341774 2.1291521
-10.370119 -0.79351377 2.1335809
-10.374779 -0.71356547 2.1362443
-10.377108 -0.67359138 2.1375759
-10.377229 -0.63359553 2.1380248
-10.383978 -0.59366524 2.1411223
-10.361503 -0.51298547 2.1329484
-10.372346 -0.47340348 2.1376786
-10.388877 -0.43372464 2.1446829
-10.572072 -0.4147906 2.2180858
-10.391267 -0.37375069 2.1462388
-10.391327 -0.35375428 2.1464632
-10.394865 -0.33363622 2.1480787
-10.393889 -0.29336041 2.1480925
-10.391626 -0.25376201 2.1475847
-10.391747 -0.21376577 2.1480334
-10.398496 -0.1738359 2.1511312
-10.397674 -0.13367718 2.1512048
-10.398735 -0.09384343 2.1520281
-10.401066 -0.053869337 2.1533601
-4.3652735 1.4082727 -0.24417296
-4.3412018 1.4111027 -0.2537649
-4.2718964 1.4008859 -0.28156498
-4.3298941 1.4034662 -0.25836042
-4.3893461 1.402943 -0.23460594
-4.4119635 1.4057167 -0.22553918
-3.8089089 -1.6495805 -0.49716309
-3.7784758 -1.6493274 -0.509323
-3.7096679 -1.6091528 -0.53641927
-3.603009 -1.5214729 -0.5781666
-3.5322485 -1.5235864 -0.60646701
-3.4614875 -1.5231999 -0.63474238
-3.4501791 -1.5258366 -0.63928819
-3.3794169 -1.5154508 -0.66746402
-3.3553438 -1.5051215 -0.67698133
-3.2619679 -1.5225077 -0.71447289
-3.3042295 -1.487542 -0.69723284
-3.4147758 -1.3681531 -0.65185702
-3.4059186 -1.2881098 -0.65459478
-3.4034369 -1.1658025 -0.65436089
-3.3319638 -1.1279268 -0.68254542
-3.3298376 -1.087955 -0.68299472
-3.3282301 -1.0079015 -0.68283486
-3.317168 -0.96784371 -0.68685436
-3.2972558 -0.89523953 -0.69408476
-3.3213148 -0.81057477 -0.68362129
-3.3680005 -0.78563267 -0.6647135
-3.4146886 -0.77818948 -0.64598024
-3.4500699 -0.78338242 -0.63189232
-3.5675199 -0.78382522 -0.5849582
-3.5788283 -0.78118849 -0.58041239
-3.625524 -0.82624209 -0.5622021
-3.6552594 -0.88899988 -0.55094731
-3.6386733 -1.049191 -0.55918109
-3.6609421 -1.0814196 -0.55060434
-3.6793664 -1.1293151 -0.54372108
-3.6383405 -1.1891867 -0.56071687
-3.6357956 -1.2885706 -0.56272984
-3.5209017 -1.2662392 -0.60842299
-3.4589951 -1.328397 -0.63378656
-3.4279027 -1.4080113 -0.64701033
-3.5194836 -1.5081204 -0.61141348
-3.5902457 -1.5160062 -0.58321261
-3.6496975 -1.5165296 -0.55945814
-3.6850789 -1.5242224 -0.54539514
-3.7317677 -1.5217789 -0.5267117
-3.7671466 -1.5119727 -0.5124743
-3.8379087 -1.5198586 -0.48427346
-3.8718345 -1.5144484 -0.47066095
-3.9072139 -1.5096419 -0.4564735
-3.9425945 -1.5098351 -0.4423357
-3.8492274 -1.5872176 -0.48042491
-3.8421626 -1.6098018 -0.4834747
-8.07131 -1.6158249 1.2066299
-8.0571079 -1.6155293 1.2009572
-7.9950767 -1.5577191 1.1767455
-8.0064526 -1.5575261 1.181294
-8.0770798 -1.588231 1.2092122
-8.0833969 -1.6156199 1.2114621
-7.2620358 -1.5432268 0.88393342
-7.183939 -1.5385234 0.85276949
-7.1445899 -1.537672 0.83705223
-7.1799755 -1.5404251 0.85116637
-5.6167712 1.3818735 0.25571936
-5.6648545 1.3786547 0.27490342
-5.6988497 1.3741212 0.28844395
-5.6634765 1.3768252 0.27433434
-5.6294813 1.3738593 0.26071861
-5.6054401 1.3767185 0.25113916
-5.582777 1.373908 0.24205381
-6.2167368 1.3665743 0.49534029
-6.2747731 1.3691807 0.51856041
-6.2040267 1.3720888 0.49031603
-6.1587 1.3689677 0.47217011
-5.80442 -0.73161602 0.30953476
-5.8131714 -0.7316252 0.31303209
-5.9126706 -0.76983416 0.35241371
-5.9367719 -0.76529193 0.36209118
-5.956902 -0.77265048 0.37006253
-5.9947262 -0.78013551 0.3851037
-5.8884864 -0.89186746 0.34152576
-5.8570619 -0.89221257 0.32896355
-5.812068 -0.89146328 0.31098953
-5.7172651 -0.89178258 0.27309856
-5.6863017 -0.89156109 0.26072636
-5.5891361 -0.93013287 0.22150797
-5.5473866 -0.94749331 0.20464906
-5.5252542 -0.96983331 0.19558004
-5.4717131 -0.97002029 0.17418052
-5.4074144 -0.86985248 0.14948758
-5.34793 -0.869142 0.12572186
-5.2771564 -0.86863571 0.097442567
-5.2304807 -0.86858684 0.078789189
-5.1877532 -0.88913465 0.061507389
-5.1611991 -0.9089433 0.050696671
-5.1144953 -0.94889128 0.031631291
-5.0807576 -0.93600541 0.018277347
-5.0770054 -0.92867804 0.016851246
-5.0592737 -0.84850347 0.010568112
-5.047688 -0.83452219 0.006078124
-4.9656076 -0.7617771 -0.025996059
-5.0570621 -0.76629221 0.010508031
-5.1056762 -0.7669459 0.029930085
-5.1184387 -0.76491296 0.035050929
-5.1297474 -0.76477611 0.039571822
-5.1636748 -0.76936525 0.053084806
-5.1966877 -0.7642076 0.066329956
-5.2772303 -0.7636438 0.098524213
-5.3141441 -0.75476348 0.11336555
-5.3254366 -0.74955964 0.11793081
-5.3480091 -0.75665069 0.12688081
-5.4187865 -0.75215733 0.15521166
-5.4654584 -0.75720584 0.17381334
-5.5362334 -0.75521231 0.20211843
-5.571619 -0.75796521 0.21623246
-5.6182942 -0.75801408 0.23488569
-5.6536813 -0.75826728 0.24902534
-5.7357688 -0.72357202 0.282179
-8.72649 -0.65606272 1.4780874
-8.691124 -0.65820855 1.4639319
-8.6557646 -0.65785468 1.4498044
-8.6204205 -0.65250123 1.435733
-8.6090527 -0.65019464 1.4312128
-8.5447292 -0.61985976 1.40581
-8.5270939 -0.60468423 1.3989145
-8.5031109 -0.60413724 1.3893352
-8.4791059 -0.61108959 1.3796718
-8.4677229 -0.61378247 1.3750957
-8.4437256 -0.61823499 1.3654604
-8.4339066 -0.61905766 1.3615283
-8.4447165 -0.6991607 1.3650457
-8.4470129 -0.77887154 1.3651649
-8.424674 -0.85864282 1.3554378
-8.3953791 -0.93865144 1.3429284
-8.4191837 -0.97859937 1.3520418
-8.3926907 -1.0986143 1.3402511
-8.4151497 -1.1386447 1.3488258
-8.4280167 -1.2186532 1.353166
-8.4168472 -1.2585387 1.3483026
-8.4543705 -1.2739133 1.3631446
-8.4871616 -1.4192897 1.3747931
-8.4625368 -1.4989806 1.3641531
-8.4137974 -1.5384903 1.3442789
-8.3941898 -1.552986 1.3362974
-8.4182186 -1.5385345 1.346045
-8.4763508 -1.5310029 1.3693529
-8.511694 -1.5363562 1.3834243
-8.593751 -1.5493698 1.4160874
-8.6291094 -1.5497235 1.4302149
-8.6644831 -1.5450779 1.4443985
-8.8057613 -1.5989884 1.5003195
-8.8128033 -1.6213655 1.5029097
-8.8302097 -1.661422 1.5094645
-8.8523674 -1.6416451 1.5185183
-9.0052538 -1.6178699 1.5798569
-9.0118694 -1.6229357 1.5824498
-9.1135254 -1.6239531 1.6230663
-9.2289619 -1.5598055 1.669843
-9.1810188 -1.5512123 1.6507686
-9.1137638 -1.5439606 1.6239634
-8.9966717 -1.4231035 1.5783788
-9.0100508 -1.3832401 1.5841252
-9.0013313 -1.3431551 1.5810421
-8.9593945 -1.3252367 1.5644618
-8.9240284 -1.3273826 1.5503063
-8.8351402 -1.2219987 1.5158383
-8.7568417 -1.1414312 1.4853538
-8.7629652 -1.0214041 1.4890039
-8.7608757 -0.98138589 1.4885696
-8.7698345 -0.94147807 1.4925501
-8.7721653 -0.90150398 1.4938818
-8.7967882 -0.79675722 1.5047722
-8.8054848 -0.7416175 1.5088003
-8.7723789 -0.70123124 1.4959742
-8.7617893 -0.67641461 1.4919906
-0.35323381 -1.5282795 -1.8769969
-0.3791914 -1.5263331 -1.8666033
-0.35362625 -1.5269901 -1.8768271
-0.25234652 -1.1309135 -1.9133343
-0.22557735 -1.171088 -1.924435
-0.23951006 -1.1309726 -1.918465
-0.2358346 -1.0510058 -1.9191326
-0.22453499 -1.0111017 -1.9232484
-0.18529129 -0.89087981 -1.9377273
-0.17611885 -0.81098318 -1.9405926
-0.21587038 -0.77108544 -1.9243063
-0.22470665 -0.7636081 -1.9207
-0.30648565 -0.64369869 -1.8868157
-0.30282593 -0.57123154 -1.8875521
-0.29500866 -0.45118037 -1.8894733
-0.23059273 -0.41114238 -1.9148158
-0.22393751 -0.40362605 -1.9174002
-0.23510838 -0.38352641 -1.9127344
-0.33951902 -0.35843152 -1.8707556
-0.34991217 -0.36204761 -1.8666383
-0.4215436 -0.35350946 -1.8379256
-0.45698071 -0.36610144 -1.8238891
-0.46820068 -0.36851099 -1.8194293
-0.49440956 -0.36846095 -1.8089546
-0.51842451 -0.36367151 -1.7993089
-0.55101061 -0.35247508 -1.7861739
-0.60050678 -0.3613975 -1.7664825
-0.6330924 -0.36245406 -1.7534703
-0.66699457 -0.37421197 -1.740039
-0.6756835 -0.41242605 -1.7369496
-0.69532442 -0.45253855 -1.7295021
-0.70455647 -0.57254529 -1.7270151
-0.69835329 -0.61261201 -1.7298957
-0.69153738 -0.65252233 -1.7330195
-0.68945265 -0.69251716 -1.7342533
-0.75178051 -0.81260014 -1.7105476
-0.71661568 -0.8249107 -1.7247244
-0.65884447 -0.86760205 -1.7482404
-0.59931278 -0.86987817 -1.7720548
-0.55151272 -1.0220249 -1.7926823
-0.52916288 -1.0722666 -1.8021179
-0.51632261 -1.0869708 -1.8073968
-0.45993137 -1.0910571 -1.8299743
-0.45210075 -1.0922327 -1.8331157
-0.44295692 -1.092332 -1.8367709
-0.3409524 -1.0821342 -1.8774344
-0.3298645 -1.0884891 -1.8819293
-6.9039907 -1.6166576 0.74010611
-6.9273286 -1.6166822 0.74943274
-7.0669508 -1.5374016 0.80602682
-6.9691811 -1.5297726 0.76702988
-6.8871193 -1.5294707 0.73423707
-6.8871098 -1.5419698 0.73410821
-6.8897305 -1.6164132 0.73440945
-2.9319906 0.12899539 -0.82979858
-2.9364064 0.17396849 -0.82758319
-2.9273031 0.21381712 -0.83082199
-2.9206634 0.25385088 -0.83307445
-2.9227779 0.29387403 -0.83182836
-2.9206555 0.30634761 -0.83255148
-2.9341657 0.37396824 -0.82647467
-2.9673173 0.49377966 -0.81202519
-3.0267577 0.57075167 -0.78749871
-3.0245461 0.57326359 -0.78835738
-2.9206045 0.65382624 -0.82909012
-2.917994 0.67386842 -0.82993245
-2.9316492 0.73376083 -0.82387519
-2.9338486 0.81374395 -0.8221947
-2.9581664 0.85360861 -0.81207669
-2.9537323 0.93362784 -0.81304693
-2.9633291 0.97416866 -0.80880547
-2.9608536 1.0539787 -0.80899501
-2.9495327 1.1338369 -0.81271911
-2.949527 1.1738343 -0.81232059
-2.9495008 1.2141423 -0.8119272
-2.9318242 1.2589257 -0.81854284
-2.9232087 1.4141617 -0.82043052
-2.8809421 1.4141939 -0.83732188
-2.8469801 1.4091656 -0.850945
-2.9251912 1.2539623 -0.82124352
-2.9148273 1.2143441 -0.8257823
-2.8944976 1.1743336 -0.83430803
-2.8929281 1.1340839 -0.83533859
-2.8787839 1.0542281 -0.84179139
-2.8431628 0.9742291 -0.85682881
-2.8457325 0.93918037 -0.85615313
-2.8453796 0.93421948 -0.85634375
-2.8498096 0.88419843 -0.85507452
-2.8561754 0.85427725 -0.85283041
-2.8606241 0.81394517 -0.85145664
-2.86063 0.7739476 -0.85185504
-2.856199 0.69428718 -0.85442412
-2.8562047 0.65428948 -0.85482252
-2.8472621 0.61920941 -0.85874796
-2.8501139 0.53441727 -0.85845792
-2.8434858 0.49445587 -0.86150718
-2.8605852 0.45915496 -0.8550272
-2.8650212 0.41913599 -0.85365534
-2.8634052 0.37435466 -0.85475004
-2.8634109 0.33435714 -0.85514855
-2.8668656 0.25444251 -0.8545686
-2.8612165 0.21937627 -0.85717762
-2.8612351 0.094383985 -0.85842264
-2.878931 0.054289818 -0.85175228
-2.8833652 -0.025729358 -0.85078204
-2.9342365 -0.10600218 -0.83125579
-2.9313126 -0.066001147 -0.8320235
-2.9323609 0.014006793 -0.83080292
-2.9167397 0.058909506 -0.83659589
-6.4908376 -0.77532995 0.58342117
-6.6018138 -0.81594288 0.62736547
-6.6173115 -0.85065937 0.6332112
-6.6062498 -0.85557985 0.62874115
-6.4885888 -0.82781011 0.58199668
-6.4419131 -0.82776117 0.56334329
-6.4065228 -0.83250773 0.54915214
-6.4065723 -0.76251304 0.54987335
-6.4532499 -0.76006216 0.56855237
-4.8930745 1.391583 -0.033406377
-4.8576932 1.396776 -0.047494322
-4.8237686 1.3863661 -0.061156631
-4.7756243 1.3920258 -0.080340594
-4.8124599 1.3837292 -0.065702528
-4.9525266 1.3910598 -0.0096518695
-4.8817663 1.3864466 -0.03797707
-5.9351296 1.3725369 0.38285667
-5.8870468 1.3757557 0.36367279
-5.92242 1.368052 0.3777324
-5.9577928 1.3703477 0.39189202
-5.993166 1.3751433 0.40607685
-6.0058761 1.3721286 0.41112608
-6.5505705 -1.1350546 0.6036886
-6.5533643 -1.1750004 0.60440499
-6.5462875 -1.2051258 0.60127497
-6.5109062 -1.1973732 0.58721244
-6.4996386 -1.1675797 0.58300793
-6.4529958 -1.1200345 0.56484389
-6.4466639 -1.0951512 0.56256253
-6.4996767 -1.112584 0.58357441
-6.5109644 -1.1148796 0.58806235
-6.5814452 -1.5303539 0.61206663
-6.4993896 -1.5200527 0.57937664
-6.5573578 -1.5148977 0.60259509
-4.3769045 -0.76645899 -0.26131627
-4.4122844 -0.76165247 -0.2471287
-4.436357 -0.76948214 -0.23758665
-4.5071168 -0.76236898 -0.20923638
-4.4781165 -0.8920908 -0.2221261
-4.495841 -0.98749197 -0.2159985
-4.5015049 -1.0524195 -0.21438557
-4.5008039 -1.0924256 -0.21506658
-4.5071735 -1.1473453 -0.21307129
-4.4795713 -1.1720564 -0.22435001
-4.423665 -1.2464857 -0.24743876
-4.4222517 -1.2515026 -0.24805364
-4.3302803 -1.2088754 -0.28438261
-4.2595158 -1.1834905 -0.31240901
-4.1902046 -1.1512098 -0.33978567
-4.1661325 -1.1483799 -0.34937754
-4.0727539 -1.1482673 -0.38669488
-4.2015038 -1.086077 -0.33461735
-4.1547947 -0.95352876 -0.35195616
-4.0039315 -1.0105985 -0.41282007
-4.0039258 -0.97060102 -0.41242161
-3.9906507 -0.91803181 -0.41720024
-3.9663167 -0.85040313 -0.42624757
-3.9906292 -0.77304077 -0.4157559
-3.994163 -0.77049816 -0.41431817
-4.1080799 -0.77848321 -0.36887172
-4.1193876 -0.77084684 -0.36427596
-4.1533136 -0.76543665 -0.35066351
-4.1837873 -0.77131021 -0.33854368
-4.2240744 -0.76582301 -0.32238808
-4.2744293 -0.77149487 -0.30232069
-4.3061438 -0.76607257 -0.28959164
-7.5210319 -1.5447947 0.98742473
-7.4969325 -1.546837 0.97777307
-7.4743547 -1.5472454 0.96874571
-7.4431977 -1.5462314 0.95630407
-7.4630671 -1.5449499 0.96425772
-7.5097451 -1.5424989 0.98293698
-7.8989916 1.3671342 1.1676534
-7.9103599 1.3648275 1.1721737
-7.9571171 1.372166 1.1909335
-7.8978052 1.3830659 1.1673391
-7.7575636 1.3710494 1.1111716
-8.3095112 1.3820595 1.3318658
-8.2274246 1.3850738 1.2990906
-8.1806898 1.3852345 1.2804147
-8.0973434 1.3791832 1.2470449
-8.0632153 1.3786038 1.2334001
-8.1087418 1.3868755 1.2516773
-8.1794586 1.3861678 1.279932
-8.2153902 1.402367 1.2944542
-8.2515202 1.4220234 1.3090903
-8.2926273 1.4417641 1.3257164
-8.3802204 1.3788519 1.3600925
-8.356245 1.3818986 1.3505412
-0.14932966 1.3689711 -1.9294552
-0.18227148 1.3692465 -1.9162871
-0.19593287 1.3789752 -1.91073
-0.30631781 1.3842696 -1.8665618
-0.34036684 1.3819646 -1.8529774
-0.35267878 1.3854371 -1.8480221
-0.3855629 1.3865274 -1.8348693
-0.38413477 1.4086217 -1.8352185
-0.36214304 1.426761 -1.8438257
-0.30844402 1.3867816 -1.865687
-0.19416523 1.3793455 -1.9114326
-9.5888767 1.3732462 1.8430717
-9.6299162 1.3704886 1.8594453
-9.5901079 1.3723129 1.8435545
-9.5775013 1.3730531 1.8385235
-9.5535107 1.3711002 1.8289165
-9.5433741 1.3724737 1.8248791
-2.9309773 -0.48596334 -0.8363657
-2.9313645 -0.40598285 -0.83540952
-2.9287424 -0.32596111 -0.83565557
-2.9209983 -0.30591741 -0.83854961
-2.9323962 -0.2259784 -0.83319342
-2.9320543 -0.30347791 -0.83410668
-2.9320712 -0.4059743 -0.835127
-5.6659613 -1.5088712 0.24641183
-5.7480097 -1.5291717 0.27899873
-5.8413572 -1.5342691 0.31625378
-5.8767428 -1.5370221 0.33036783
-5.8880334 -1.5343181 0.33490717
-5.7509398 -1.4908404 0.28055379
-5.7154717 -1.4913704 0.26637375
-5.7126493 -1.4914215 0.26524544
-5.6998405 -1.4907598 0.26013294
-5.591064 -1.4105575 0.21746443
-5.5802646 -1.370198 0.21355286
-5.5683365 -1.4104661 0.20838232
-5.477747 -1.4953108 0.17132851
-5.4890347 -1.4976063 0.17581648
-5.5244265 -1.49036 0.19003344
-5.5506411 -1.490779 0.20050576
-5.5923777 -1.4909173 0.21718428
-4.2124457 1.3939097 -0.30539414
-4.1898265 1.4036354 -0.31433645
-4.2252073 1.4009423 -0.30022362
-7.2357812 -1.1380682 0.87750065
-7.2311554 -1.0983229 0.87605035
-7.2054906 -1.0984243 0.86579251
-7.1852255 -1.0978696 0.85769916
-7.1577144 -1.0908681 0.84677446
-7.1110373 -1.0933189 0.82809556
-7.0869427 -1.087862 0.81852102
-7.0423765 -1.097774 0.8006109
-7.0161533 -1.109854 0.79000998
-6.9920521 -1.1143962 0.78033233
-6.9538269 -1.1366924 0.76483238
-7.0048327 -1.1550548 0.78503263
-7.0756116 -1.1480616 0.8133893
-7.1335745 -1.1504061 0.83653045
-7.1913171 -1.1380351 0.85973108
-7.2269258 -1.1505039 0.87383711
-7.6641097 1.3763704 1.0738763
-7.7209663 1.3698367 1.0965334
-7.744957 1.3717896 1.1061407
-7.7108445 1.3762096 1.0925521
-7.4492817 1.3871087 0.98812866
-7.4860334 1.3887342 1.0028325
-7.497365 1.3863897 1.0073377
-7.5313597 1.3868558 1.0209283
-7.5454488 1.3856715 1.0265471
-7.5200281 1.3817006 1.0163481
-7.4860849 1.3790729 1.0027564
-7.451972 1.3834932 0.98916757
-7.4393578 1.3817335 0.98410857
-7.4165988 1.3788475 0.97498417
-7.4052305 1.3811542 0.97046387
-7.3558731 1.3747071 0.95067382
-7.3091679 1.3797555 0.93205893
-7.3204994 1.3824106 0.93661416
-7.3672042 1.3848617 0.95530403
-5.0422263 1.3836441 0.026122123
-5.1002626 1.3837506 0.049317136
-5.1053581 1.3829242 0.051345289
-5.1243043 1.3833911 0.058921739
-5.158299 1.3813574 0.07248728
-5.1950507 1.382983 0.087191164
-5.1633558 1.3855046 0.07454969
-5.1520472 1.3853676 0.070028797
-5.127975 1.3881975 0.060436904
-5.076221 1.3916097 0.039787695
-5.047359 1.3878434 0.028215408
-0.07201767 1.3692877 -1.9603492
-0.07113409 1.369473 -1.9607006
-0.078508377 1.3691493 -1.9577566
-0.084999561 1.369011 -1.9551638
-0.11390829 1.3740599 -1.94356
-0.11214638 1.3719306 -1.9442855
-0.57723331 -1.5171733 -1.7873648
-0.599751 -1.5194288 -1.7783884
-0.61265516 -1.5247238 -1.7732841
-0.59014559 -1.524968 -1.7822825
-0.48396158 -1.5273155 -1.8247422
-0.47067356 -1.5259534 -1.8300391
-0.43703032 -1.5262347 -1.8434871
-0.41283464 -1.5260518 -1.8531553
-0.42582178 -1.5288284 -1.8479928
-0.45946455 -1.528547 -1.8345445
-2.1877599 -1.5279633 -1.1438313
-2.1507447 -1.532495 -1.1586696
-2.1394744 -1.5276173 -1.1631249
-2.7604773 -1.5252653 -0.91491961
-2.7327168 -1.5277127 -0.9260385
-2.6973364 -1.5275195 -0.94017625
-2.6602697 -1.5229735 -0.95494425
-2.6800332 -1.5203407 -0.94701946
-2.6916749 -1.5225883 -0.94238937
-2.7086449 -1.5248829 -0.93563044
-2.7355437 -1.5251787 -0.92488337
-2.7383645 -1.5251446 -0.92375565
-9.6709633 1.3702317 1.875847
-9.7006416 1.3722807 1.8877286
-9.7360001 1.3719269 1.9018557
-9.7492161 1.3682214 1.9071004
-9.7782774 1.3707366 1.91874
-9.7833509 1.3713005 1.9207733
-9.8136444 1.3728826 1.9328957
-9.8313236 1.3727063 1.9399594
-9.842083 1.3733649 1.9442663
-9.8477716 1.373462 1.9465405
-9.8597641 1.3731887 1.9513304
-9.8654509 1.3732857 1.9536042
-9.8951225 1.3728348 1.9654579
-9.9235535 1.3708183 1.9768002
-9.9589214 1.3729641 1.9909559
-9.9772158 1.3723201 1.9982609
-9.9658394 1.3721269 1.9937125
-9.6961842 1.3712513 1.885937
-10.071917 1.3710654 2.0360951
-10.036565 1.3739191 2.0219955
-10.01827 1.3745631 2.0146904
-10.029646 1.3747562 2.0192387
-10.059332 1.3793049 2.0311484
-10.070715 1.3819977 2.0357246
-10.106081 1.3841437 2.0498798
-10.176784 1.3784362 2.0780787
-10.083292 1.3712585 2.0406435
-10.117428 1.3743377 2.0543163
-10.142641 1.3728573 2.064378
-10.159698 1.3706478 2.0711725
-10.177992 1.3700038 2.0784774
-10.189368 1.3701969 2.0830255
-7.2964582 1.3777705 0.92695963
-7.2384219 1.3726642 0.90371442
-7.2030487 1.380368 0.88965487
-7.169054 1.3749021 0.87601411
-7.2044268 1.3821976 0.89022398
-7.2143803 1.3805233 0.89418507
-7.2497535 1.3778193 0.90829468
-8.8374519 1.3861172 1.5428964
-8.8146706 1.3757318 1.5336876
-8.7667274 1.3843251 1.5146134
-9.7473755 1.37212 1.906404
-9.7719746 1.3711075 1.916225
-9.7890453 1.3738964 1.9230753
-9.8004293 1.3765892 1.9276516
-9.8061171 1.3766862 1.9299256
-9.8244047 1.3735425 1.9372028
-9.853467 1.3760579 1.9488426
-9.8717613 1.3754147 1.9561477
-9.87745 1.3755108 1.9584218
-9.8831377 1.3756078 1.960696
-9.9065056 1.3755276 1.9700342
-9.930481 1.3724809 1.9795854
-9.9487839 1.3743376 1.9869184
-2.620501 -1.5226166 -0.97083414
-2.6024075 -1.5206021 -0.97804499
-2.5513158 -1.5154326 -0.99841177
-2.5074241 -1.5253582 -1.0160524
-2.4962001 -1.5254481 -1.0205389
-2.4918072 -1.5252084 -1.0222921
-2.4608004 -1.5278966 -1.0347109
-2.5030701 -1.5275861 -1.0178148
-2.5428388 -1.5279094 -1.0019245
-2.5851116 -1.5250658 -0.98500192
-2.630697 1.395838 -0.93751538
-2.63132 1.3920546 -0.93730438
-2.6553435 1.3843446 -0.92778075
-2.6828375 1.3896617 -0.91673958
-2.6941607 1.3897521 -0.91221333
-2.6969049 1.3898032 -0.91111612
-2.7014544 1.390516 -0.90929079
-2.725508 1.3927182 -0.89965582
-2.7487731 1.3891834 -0.89039338
-2.7727861 1.3964727 -0.8807236
-2.8061614 1.4006028 -0.8673439
-2.8256614 1.4069963 -0.85948682
-2.8116059 1.4043349 -0.86513066
-2.7954793 1.4041022 -0.87157798
-2.7762318 1.3995042 -0.87931621
-2.7563553 1.3992794 -0.88726199
-2.7354126 1.3959254 -0.89566529
-2.7195218 1.3950766 -0.90202451
-2.709667 1.3943361 -0.90597045
-2.6855955 1.3921663 -0.91561222
-2.6780365 1.391974 -0.91863513
-8.4496918 1.3740779 1.3878087
-8.4932003 1.3605294 1.4050611
-8.5020399 1.3604409 1.4085928
-8.4862671 1.3677913 1.4023628
-8.4736748 1.3735309 1.397388
-7.0983076 1.3703108 0.84769475
-7.1436343 1.3709322 0.86581552
-7.1450124 1.3752615 0.86640966
-7.4266191 1.3817983 0.97901833
-4.7688947 -0.89292151 -0.10592595
-4.7292538 -0.76028776 -0.12043929
-4.6938896 -0.8700878 -0.13567263
-4.6651464 -0.89242947 -0.14738372
-4.6939073 -0.99008042 -0.13686797
-4.7257628 -1.0528126 -0.12476552
-4.7071958 -1.1326441 -0.13298571
-4.6932335 -1.2125752 -0.13936675
-4.6939459 -1.2525642 -0.13948271
-4.77354 -1.1730039 -0.10687596
-4.7892656 -1.1328936 -0.1001893
-4.8149066 -1.0929742 -0.089542061
-4.8134751 -0.97299862 -0.088911831
-4.7936587 -0.93293011 -0.096429884
-1.8466733 -1.5277503 -1.2801433
-1.8354266 -1.5303724 -1.2846643
-1.8579278 -1.5276282 -1.2756442
-3.8363991 -1.1392784 -0.48106334
-3.8363962 -1.1217793 -0.48088905
-4.4470234 -1.4118017 -0.23976013
-4.3303208 -1.4813585 -0.28709683
-4.2723241 -1.4914384 -0.31037602
-4.3543973 -1.5141866 -0.27780369
-4.4364648 -1.5019369 -0.24488297
-4.4718466 -1.5096297 -0.23081985
-4.4831553 -1.5094929 -0.22629896
-4.6807017 -1.4124819 -0.14637807
-4.6890163 -1.3726166 -0.14265585
-4.7534332 -1.4930727 -0.11811873
-4.718051 -1.4803803 -0.13213184
-4.6932688 -1.4525604 -0.14175731
0 0 0 1 0 0 0 1 0 0 0 1 0 0 0 0 0 805 1 0 0
