ply
format ascii 1.0
comment PCL generated
element vertex 906
property float x
property float y
property float z
element camera 1
property float view_px
property float view_py
property float view_pz
property float x_axisx
property float x_axisy
property float x_axisz
property float y_axisx
property float y_axisy
property float y_axisz
property float z_axisx
property float z_axisy
property float z_axisz
property float focal
property float scalex
property float scaley
property float centerx
property float centery
property int viewportx
property int viewporty
property float k1
property float k2
end_header
0.41999102 -0.81077057 3.2105453
0.40666676 -0.89103329 3.2027819
0.34436226 -0.97230881 3.1620042
0.31909752 -0.90507865 3.143944
0.33153486 -0.81248939 3.1509218
0.31848526 -0.73253733 3.1409051
0.31939316 -0.65255624 3.1403
0.34761477 -0.57236201 3.1581106
0.34935236 -0.53241235 3.1586745
0.35108995 -0.49246275 3.1592381
0.4177022 -0.38266408 3.2024863
0.40265799 -0.33110571 3.1915567
0.36603117 -0.26423973 3.1658399
0.33935738 -0.18456733 3.1466403
0.33921194 -0.064557135 3.1447155
0.36663866 -0.064249039 3.1632059
0.38320732 -0.064760983 3.1743867
0.39456034 -0.063089252 3.1820171
0.40351152 -0.063871622 3.1880653
0.42979956 -0.06273371 3.205775
0.47700548 -0.061881065 3.2375946
0.47662926 -0.10187137 3.2379496
0.47587633 -0.18185183 3.2386591
0.4709239 -0.30170459 3.2371435
0.47053385 -0.37042961 3.2379267
0.46031952 -0.41051546 3.2316487
0.45382166 -0.53032345 3.2290905
0.4303937 -0.61073828 3.2145157
0.41195726 -0.65117168 3.2026987
0.41104984 -0.73115289 3.2033041
-7.5870371 -1.4268486 -2.1795404
-7.5734777 -1.4847574 -2.1695154
-7.5543189 -1.4853342 -2.1565871
-7.5205793 -1.4901725 -2.1337616
-7.474195 -1.5103916 -2.102175
-7.4279814 -1.5506059 -2.0703993
-7.4223843 -1.5595975 -2.0664883
-7.401948 -1.5602124 -2.0526979
-7.335 -1.5660503 -2.007463
-7.2475729 -1.5675045 -1.9484854
-7.3566651 -1.5273105 -2.0226624
-7.3357177 -1.3683805 -2.0109556
-7.3508472 -1.3282192 -2.0217693
-7.3570356 -1.2883267 -2.0265493
-7.3865838 -1.2078781 -2.0476992
-7.3520651 -1.0883272 -2.0262413
-7.3425379 -0.92824441 -2.0222533
-7.3454618 -0.88830316 -2.0248327
-7.3952818 -0.88812786 -2.0584309
-7.432889 -0.88684899 -2.0838106
-7.4743333 -0.86155778 -2.112143
-7.5368462 -0.72754395 -2.1563375
-7.5443254 -0.64768577 -2.1625965
-7.5390873 -0.60762233 -2.1596739
-7.5347986 -0.48760307 -2.1586087
-7.4241109 -0.43188784 -2.0848153
-7.3756847 -0.37776643 -2.0529833
-7.3794188 -0.367645 -2.0556555
-7.4230871 -0.31191739 -2.0859509
-7.4574332 -0.25753817 -2.1099396
-7.5278664 -0.17790562 -2.1586475
-7.5377741 -0.018107295 -2.1677606
-7.5353799 0.061894834 -2.1673636
-7.5346184 0.14187419 -2.1680675
-7.5591812 0.2224462 -2.1858573
-7.5866289 0.34296203 -2.2062006
-7.5871201 0.46290809 -2.2083571
-7.5754333 0.54268509 -2.2016907
-7.559021 0.58230716 -2.191226
-7.5591307 0.74224287 -2.1937346
-7.5638323 0.82232326 -2.1981237
-7.5849462 0.86278158 -2.2129772
-7.6152792 1.0232413 -2.2358739
-7.5814095 1.0627527 -2.2136359
-7.5761299 1.1028111 -2.2106853
-7.5582342 1.1421578 -2.1992161
-7.5565529 1.1846054 -2.1987283
-7.5825129 1.2203503 -2.2167785
-7.6106367 1.3001606 -2.2369578
-7.63836 1.342792 -2.2563019
-7.654995 1.342355 -2.267513
-7.6710463 1.3442295 -2.2783654
-7.6952477 1.3423173 -2.294656
-7.7081814 1.3046722 -2.3028049
-7.7463193 1.2258277 -2.3273232
-7.7464924 1.1835852 -2.3267968
-7.7485027 1.1432495 -2.3275387
-7.7523775 1.1260188 -2.3298893
-7.7563977 1.106148 -2.3322978
-7.7555017 1.066117 -2.3310843
-7.7507763 1.0259621 -2.3272865
-7.7528105 0.9432351 -2.3273993
-7.75459 0.89357907 -2.3278437
-7.7515898 0.86329132 -2.3253596
-7.7507143 0.78617555 -2.3235958
-7.7449446 0.7062878 -2.3184888
-7.7479296 0.62345976 -2.3192413
-7.7370691 0.54340988 -2.3106992
-7.7452822 0.50356108 -2.3156314
-7.729197 0.38568634 -2.3029904
-7.8348112 0.26176971 -2.372324
-7.8259773 0.22295862 -2.3657765
-7.8221464 0.18206656 -2.3625712
-7.824965 0.10302573 -2.3632686
-7.8186197 0.065673411 -2.3584213
-7.8152246 -0.016908944 -2.3548751
-7.8192806 -0.061791897 -2.3569272
-7.8196697 -0.13677144 -2.3560483
-7.8202925 -0.25673881 -2.3546422
-7.8113489 -0.25753865 -2.3485992
-7.7380629 -0.37413979 -2.2974048
-7.7361021 -0.39689234 -2.2957363
-7.734304 -0.40417284 -2.2944131
-7.7415161 -0.48425087 -2.2980578
-7.7434711 -0.55698633 -2.298269
-7.7420435 -0.59694105 -2.2966983
-7.7471561 -0.63703334 -2.2995355
-7.7443008 -0.71694279 -2.2963941
-7.7468281 -0.7242406 -2.2979872
-7.7510481 -0.75706947 -2.3003333
-7.7350984 -0.79647177 -2.2889781
-7.7266302 -0.84389341 -2.282546
-7.6985855 -0.8769083 -2.2631316
-7.669775 -0.88486922 -2.2435825
-7.6277747 -1.0442958 -2.2128336
-7.6319475 -1.0841706 -2.2150407
-7.6185799 -1.1645737 -2.204803
-7.6050692 -1.244687 -2.1944728
-7.5737314 -1.3647486 -2.1715128
-7.3440032 1.4249337 -2.0590553
-7.2782078 1.434016 -2.0148249
-7.2316551 1.4337211 -1.9834285
-7.2112303 1.4330595 -1.9696449
-7.1704273 1.4267378 -1.9420336
-7.1329222 1.4266605 -1.916741
-7.0977731 1.42431 -1.8930029
-7.1770802 1.325736 -1.9449829
-7.183321 1.3409388 -1.9494224
-7.2448139 1.4235401 -1.9921468
-7.3044767 1.4186532 -2.0323055
0.10515642 -1.5276704 3.0091505
0.084929943 -1.5284412 2.9955225
0.058551788 -1.5297683 2.9777548
0.084581852 -1.5295143 2.9953043
0.11606789 -1.5308505 3.0165567
-0.39749527 -1.5194217 2.6700666
-0.37147331 -1.5216489 2.6876481
-0.34545183 -1.5238761 2.7052293
-0.33042717 -1.5229274 2.7153466
-0.29893398 -1.5292419 2.7366798
-0.26338577 -1.5289326 2.7606466
-0.21251678 -1.5233493 2.7948649
-0.17280197 -1.5238414 2.8216534
-0.14422035 -1.5318937 2.8410499
-0.12238407 -1.5372509 2.8558567
-0.14293051 -1.5365955 2.8419912
-0.20587111 -1.5374743 2.7995613
-3.9037783 1.391645 0.26133382
-3.9387782 1.4070365 0.23749767
-3.95012 1.416863 0.22969998
-3.9762809 1.4114733 0.21214052
-3.9903736 1.4068973 0.20270698
-4.0173454 1.3902087 0.1847728
-4.0435281 1.3823197 0.16723688
-4.1014261 1.3830314 0.12818286
-4.1218834 1.3811469 0.1144163
-4.0902319 1.3650482 0.13600545
-3.8982239 1.3776548 0.26529235
-3.8423843 1.3997974 0.30261016
-4.6551423 -1.4131365 -0.20265412
-4.6696186 -1.4627014 -0.21166186
-4.6177649 -1.5069084 -0.17602207
-4.5816622 -1.4932156 -0.15188468
-4.5449638 -1.4917454 -0.12716013
-4.4928331 -1.5034604 -0.091828011
-4.482378 -1.4936287 -0.084927194
-4.446044 -1.4761913 -0.060691055
-4.4368448 -1.4638219 -0.054675933
-4.4449835 -1.4521056 -0.060342658
-4.4624724 -1.406727 -0.072826833
-4.4093385 -1.2916319 -0.038747832
-4.3977408 -1.2714658 -0.031234041
-4.3695807 -1.1320176 -0.01436688
-4.3624234 -1.09135 -0.010159373
-4.3728733 -1.052212 -0.017801963
-4.3751841 -1.05126 -0.019374736
-4.3770604 -1.0521595 -0.020626277
-4.5171752 -1.0137537 -0.11569577
-4.5252013 -0.97233474 -0.12173855
-4.5343347 -0.91088235 -0.12883265
-4.477365 -0.75627214 -0.092768744
-4.5386734 -0.75442708 -0.13413957
-4.5500169 -0.75393963 -0.14179651
-4.5761566 -0.75682992 -0.15937966
-4.6113896 -0.75959271 -0.18309641
-4.6897449 -0.76076555 -0.23591699
-4.7157998 -0.75365829 -0.25359482
-4.7115436 -0.85378742 -0.24920085
-4.6707802 -0.93383801 -0.22049406
-4.6654391 -0.97282225 -0.2162991
-4.6742835 -1.0529246 -0.22104417
-4.6536899 -1.0931771 -0.20654447
-4.6380405 -1.2141641 -0.19415012
-4.6506557 -1.253417 -0.20205966
-4.6558943 -1.2934804 -0.20498255
-4.6684885 -1.3302341 -0.21291566
-4.6697869 -1.332695 -0.213754
-4.6549444 -1.3734365 -0.2031249
-5.9004359 -0.77037501 -1.0521883
-5.8939428 -0.75807035 -1.0479972
-5.826952 -0.75890946 -1.0028098
-5.7894444 -0.77136135 -0.97732747
-5.748765 -0.76839268 -0.9499408
-5.6903572 -0.71845812 -0.91131383
-5.5969915 -0.6889137 -0.8488034
-5.5953588 -0.68888927 -0.84770286
-5.504138 -0.71935451 -0.78572524
-5.4837227 -0.72246885 -0.77191103
-5.4554243 -0.73825324 -0.7525878
-5.4335251 -0.76626599 -0.73739398
-5.3593845 -0.80767351 -0.68676794
-5.2883539 -0.76792407 -0.63947409
-5.2520208 -0.76774657 -0.61497575
-5.2080011 -0.765275 -0.58532941
-5.2014914 -0.76766157 -0.58090299
-5.1405602 -0.76264501 -0.5398913
-5.0887089 -0.75501865 -0.50504178
-5.0154152 -0.7342031 -0.45593375
-4.9704719 -0.73195219 -0.42566079
-4.9426355 -0.72153932 -0.40704805
-4.8904834 -0.73075497 -0.37173969
-4.8702607 -0.75636387 -0.35771286
-4.8797388 -0.81056422 -0.36327958
-4.891315 -0.82823098 -0.37081695
-4.8970184 -0.83173627 -0.37460971
-4.9912605 -0.97309446 -0.43600935
-4.9194379 -1.0635641 -0.38619971
-4.9000835 -1.090764 -0.37273443
-4.9198222 -1.1085528 -0.38577402
-4.9460702 -1.1332791 -0.40309799
-5.0397539 -1.1909752 -0.46539432
-5.0450268 -1.1850127 -0.46904099
-5.1177473 -1.1496587 -0.51861727
-5.1437802 -1.1400518 -0.53631866
-5.163918 -1.1352834 -0.54997092
-5.2104769 -1.1351871 -0.5813688
-5.2308617 -1.1246419 -0.59527558
-5.3035784 -1.1324952 -0.64419186
-5.330255 -1.0870712 -0.66287255
-5.3757091 -1.0528691 -0.69404465
-5.4396629 -1.0151209 -0.73774564
-5.4773307 -0.9297955 -0.76444519
-5.4854074 -0.91992021 -0.77004188
-5.5439806 -0.88896632 -0.81001121
-5.588479 -0.88917184 -0.84001541
-5.6410575 -0.92994392 -0.87485051
-5.6511264 -0.91214067 -0.8819114
-5.7438307 -0.86420417 -0.9451552
-5.7809944 -0.82911628 -0.97075009
-5.8013668 -0.82100314 -0.98461133
-5.8063903 -0.81085187 -0.9881537
-5.9305916 -1.6094762 -1.0597529
-5.9273953 -1.6089103 -1.0576061
-5.8598728 -1.5566038 -1.0128691
-5.7608466 -1.5285528 -0.94651854
-5.7290239 -1.5246565 -0.9251188
-5.7029057 -1.5242658 -0.90751183
-5.6881094 -1.5208879 -0.89758551
-5.6358294 -1.5151072 -0.86241919
-5.6040707 -1.5187092 -0.84094828
-5.5650897 -1.5223725 -0.81460595
-5.5485086 -1.5290582 -0.80332297
-5.5174332 -1.5289626 -0.78236884
-5.4898252 -1.5288372 -0.76375383
-5.4814963 -1.527398 -0.75815916
-5.4644704 -1.5268795 -0.74668574
-5.4337144 -1.5260009 -0.72595912
-5.4141674 -1.5306613 -0.71270674
-5.3983479 -1.5293097 -0.70205975
-5.3956504 -1.5290968 -0.70024371
-5.3781266 -1.5268421 -0.68846107
-5.3936658 -1.5237105 -0.69898766
-5.4030981 -1.5212264 -0.70538592
-5.4291954 -1.5191181 -0.72301644
-5.4496317 -1.518503 -0.73680669
-5.4606595 -1.5205674 -0.74421197
-5.4867673 -1.5210186 -0.76181048
-5.4962292 -1.5232778 -0.76815665
-5.5370803 -1.5195482 -0.79576093
-5.5631986 -1.5199392 -0.81336761
-5.6139026 -1.4907668 -0.84800339
-5.6386566 -1.3311973 -0.8671245
-5.6682644 -1.490602 -0.88466418
-5.7233419 -1.5236506 -0.9213022
-5.7494392 -1.5215421 -0.93893272
-5.7551212 -1.5225482 -0.94274932
-5.8334131 -1.5162227 -0.99564081
-5.8762641 -1.5311103 -1.0243105
-5.9209256 -1.5247662 -1.0545239
-5.9265866 -1.5232728 -1.0583642
-5.9674802 -1.5245421 -1.085921
-5.9952741 -1.5299563 -1.1045811
-6.028789 -1.522697 -1.1272922
-6.0606112 -1.5265933 -1.1486919
-6.091156 -1.5305281 -1.1692297
-6.133327 -1.5317589 -1.1976485
-6.1389885 -1.5302656 -1.2014889
-6.1855645 -1.5325408 -1.2328624
-6.2125711 -1.5276833 -1.2511477
-6.2320766 -1.527318 -1.2643067
-6.2582159 -1.5302081 -1.2818898
-6.299046 -1.5239794 -1.3095179
-6.3137784 -1.5198591 -1.3195152
-6.3921347 -1.5210319 -1.372336
-6.432879 -1.5048056 -1.4000585
-6.4532719 -1.4991918 -1.413896
-6.52737 -1.3668144 -1.4658779
-6.538825 -1.2871308 -1.4748151
-6.5448017 -1.2474655 -1.4794492
-6.5393515 -1.2076292 -1.4763801
-6.5269413 -1.1668253 -1.4686327
-6.6004419 -1.048143 -1.5200033
-6.6270046 -1.0094764 -1.538504
-6.6356726 -0.96870017 -1.5449697
-6.6311979 -0.92707002 -1.5425858
-6.6947689 -0.8078028 -1.5872697
-6.7173457 -0.77565289 -1.6029832
-6.7229643 -0.76916063 -1.6068708
-6.7352381 -0.76842344 -1.6151589
-6.7490611 -0.76705217 -1.6245012
-6.7954669 -0.74933243 -1.6560642
-6.7642422 -0.8154189 -1.634002
-6.7587743 -0.84874582 -1.6298078
-6.7603245 -0.88921452 -1.6302373
-6.751636 -0.96859407 -1.6231701
-6.7503448 -1.0085597 -1.6216911
-6.7579665 -1.128111 -1.6250113
-6.9174938 -1.125664 -1.7326242
-6.7721453 -1.1679053 -1.6339672
-6.7626925 -1.2077489 -1.6269861
-6.7684851 -1.3127964 -1.6292936
-6.7702456 -1.3278171 -1.630252
-6.7823548 -1.4079683 -1.6371981
-6.7843285 -1.4479828 -1.63792
-6.8019495 -1.509145 -1.6488715
-6.7555652 -1.5293643 -1.6172851
-6.7442007 -1.5273523 -1.609652
-6.6362095 -1.5144253 -1.5370259
-6.5895262 -1.4996529 -1.5057707
-6.5430994 -1.5148734 -1.4742316
-6.5047321 -1.6092635 -1.4469222
-6.5018911 -1.6087606 -1.445014
-6.4371128 -1.5695326 -1.4019288
-6.3748899 -1.5302279 -1.3605673
-6.3308897 -1.5303751 -1.3308941
-4.1683955 1.3863697 0.082971901
-4.2205906 1.3905869 0.047710687
-4.2036281 1.3836071 0.059255153
-3.9299607 1.3837557 0.24379788
-4.0026555 1.3810899 0.19481756
-4.2671237 1.3933101 0.016289845
-4.276195 1.395937 0.01013267
-4.2818775 1.3949311 0.0063160881
-0.45124817 -1.5224826 2.6338656
-0.46467161 -1.5259136 2.6248655
-0.51121688 -1.5230472 2.5934346
-0.53721166 -1.5183206 2.5758333
-0.61108255 -1.5628586 2.5266972
-0.68797946 -1.5190425 2.4741755
-0.71391988 -1.509317 2.4565349
-0.83967257 -1.4797258 2.3712845
-0.84789419 -1.4873091 2.3658557
-0.86855245 -1.499167 2.3521054
-0.90009999 -1.4978514 2.3308115
-0.92612219 -1.4956241 2.31323
-0.94109225 -1.4915738 2.3030732
-1.0083771 -1.5080636 2.2579515
-1.0399249 -1.506748 2.2366574
-1.0921037 -1.5147905 2.2015936
-1.1276512 -1.5151 2.1776271
-1.1796684 -1.5081462 2.1424441
-1.2317386 -1.5061913 2.1073012
-1.3043056 -1.5010977 2.0582888
-1.3455143 -1.5148156 2.030709
-1.3715363 -1.5125885 2.0131276
-1.4330788 -1.5081711 1.9715595
-1.470206 -1.5127659 1.946593
-1.4962549 -1.513038 1.9290314
-1.5829411 -1.5172348 1.8706393
-1.5959654 -1.5173709 1.8618585
-1.6099765 -1.5166637 1.8523996
-1.6556609 -1.5174079 1.8216041
-1.6716001 -1.5197446 1.8108912
-1.7031476 -1.518429 1.7895973
-1.6920691 -1.5141065 1.7970022
-1.6825433 -1.51157 1.8033873
-1.6510227 -1.5153852 1.824701
-1.5837381 -1.4988954 1.8698227
-1.5185537 -1.3562435 1.911608
-1.5815194 -1.2939429 1.8681997
-1.5894701 -1.2765321 1.8625731
-1.6559081 -1.1564139 1.8159431
-1.7194765 -1.1303794 1.7726803
-1.7399998 -1.1297402 1.7588308
-1.7605772 -1.1340997 1.7450211
-1.8069057 -1.1112379 1.7134318
-1.900537 -1.1554935 1.6509662
-1.9715908 -1.1945769 1.6036465
-1.9960275 -1.3130834 1.5889715
-1.9970636 -1.3132544 1.5882753
-1.9935942 -1.1944333 1.5888065
-2.004895 -1.1715789 1.5808381
-2.051034 -1.1312211 1.5491105
-2.0661387 -1.1147388 1.5386739
-2.0766501 -1.0915027 1.531232
-2.0884986 -1.0749862 1.5229908
-2.0864375 -1.0349786 1.5237716
-2.0812829 -1.0099332 1.5268666
-2.1527874 -0.87316585 1.4765666
-2.1672776 -0.85832244 1.4665693
-2.1874297 -0.83505374 1.4526259
-2.1456313 -0.75523567 1.4795974
-2.1024609 -0.71424246 1.5080851
-2.0639908 -0.67401427 1.5334148
-2.0396304 -0.63510746 1.5492498
-2.0245035 -0.57698894 1.558566
-1.9777691 -0.56235939 1.5898582
-1.9437072 -0.51537359 1.6121124
-1.8902814 -0.40860215 1.6465147
-1.8715551 -0.36804247 1.6585253
-1.852087 -0.35441789 1.671446
-1.8357255 -0.3485103 1.6823891
-1.8302269 -0.35009822 1.6861213
-1.8264329 -0.35521695 1.6887578
-1.7401352 -0.39574194 1.7475685
-1.7376509 -0.40332013 1.7493591
-1.7463675 -0.5150187 1.7451811
-1.7391121 -0.53828889 1.7504278
-1.7395184 -0.57578015 1.7507246
-1.6723101 -0.71673703 1.7981911
-1.59636 -0.76842517 1.850194
-1.6280696 -0.78210604 1.8290191
-1.7113531 -0.88952351 1.7744925
-1.6876855 -0.95526755 1.7914531
-1.6511366 -1.0164124 1.8170301
-1.6488037 -1.1564999 1.8207352
-1.5351255 -1.2355821 1.8985968
-1.534379 -1.241822 1.8991952
-1.4965503 -1.3563871 1.9264481
-1.4039984 -1.3587282 1.9888952
-1.3994818 -1.3563685 1.991905
-1.2716215 -1.3974376 2.0787513
-1.1925271 -1.4399054 2.1327343
-1.1850774 -1.4399344 2.1377585
-1.14027 -1.4777448 2.1685493
-1.0658112 -1.4920235 2.2189772
-0.99137712 -1.4785899 2.2689667
-0.95235324 -1.479196 2.2952912
-0.92773509 -1.478405 2.3118801
-0.86430216 -1.4408507 2.354084
-0.82642388 -1.4004686 2.3790123
-0.80807114 -1.3999567 2.3913803
-0.73231292 -1.3620394 2.4418902
-0.68622041 -1.3565801 2.4728892
-0.57783651 -1.3612995 2.5460486
-0.55504346 -1.3610613 2.5614152
-0.48838139 -1.4020582 2.6069922
-0.34540892 -1.4031253 2.7034204
-0.30477858 -1.3226216 2.7295938
-0.24922276 -1.2396761 2.7657952
-0.29836559 -1.3228214 2.7339218
-0.30229425 -1.3301997 2.7313845
-0.33470821 -1.4088655 2.7107239
-4.7178111 1.4064269 -0.2878263
-4.6803279 1.4088297 -0.26258641
-4.6247635 1.4078197 -0.22510177
-4.6095047 1.4078753 -0.21481307
-4.5815568 1.4068882 -0.19595173
-4.5350022 1.4066641 -0.16455466
-4.5146513 1.3960516 -0.1506696
-4.4590678 1.3882017 -0.11306804
-4.5204191 1.3850484 -0.1543915
-4.5521984 1.3861506 -0.17583857
-4.5987744 1.3838751 -0.20721206
-4.6656165 1.4022102 -0.25256529
0.0064907074 -1.5302763 2.9426556
-0.019511223 -1.5280309 2.9250875
-0.033578396 -1.5298114 2.9156287
-0.040085793 -1.5298748 2.9112411
-0.077097416 -1.5304006 2.8862908
-0.096354008 -1.5369968 2.8734057
-0.092175961 -1.5363481 2.8762131
-0.075779438 -1.5351529 2.8872521
-0.049748898 -1.534899 2.9048014
-0.04005146 -1.5333042 2.9113166
0.00099515915 -1.5345829 2.9390154
0.02154541 -1.5327227 2.9528449
0.035089493 -1.5301043 2.9619384
-3.9687366 -0.76510179 0.25035417
-4.0992656 -0.75955832 0.16224895
-4.1084008 -0.76442957 0.15616266
-4.101429 -0.81272829 0.16159905
-4.098588 -0.81222534 0.16350724
0.047717094 1.3448951 2.926698
0.02151823 1.3395486 2.9091125
-0.032671452 1.3496711 2.872416
-0.071382999 1.3601091 2.8461523
-0.11785746 1.3678899 2.8146944
-0.16433144 1.3756709 2.7832367
-0.18343306 1.3878548 2.7701702
-0.15802097 1.3873005 2.7873151
-0.099057198 1.3862975 2.8270922
-0.068781853 1.379235 2.8476155
-0.030527115 1.3663471 2.8736084
0.058195591 1.3772614 2.9332716
0.094521046 1.3721056 2.9578457
0.11496067 1.3764744 2.9715626
0.1615057 1.3761916 3.0029538
0.10913086 1.3679984 2.9677601
0.077172756 1.3616743 2.9463058
-6.3505316 1.418072 -1.3890129
-6.2965031 1.4576883 -1.3531824
-6.2075863 1.4197321 -1.2926445
-6.1757107 1.426125 -1.2712468
-6.1552382 1.4304624 -1.2575072
-6.130507 1.4183731 -1.240646
-6.0418043 1.4192133 -1.180843
-5.9778709 1.3782783 -1.1371074
-5.8905554 1.3790879 -1.0782391
-5.9786243 1.3720145 -1.1375197
-6.0308771 1.3712819 -1.172745
-6.0512791 1.3744426 -1.1865507
-6.1033416 1.3937047 -1.221952
-6.144311 1.3825307 -1.2494091
-6.1647363 1.3831921 -1.2631928
-6.2226434 1.3864305 -1.302291
-6.2529373 1.3794563 -1.3226134
-6.2692428 1.3817267 -1.3336434
-6.3010945 1.3778329 -1.3550631
-6.3330092 1.3788664 -1.3766001
-6.3399868 1.3778801 -1.3812906
-6.3681192 1.3737907 -1.4001991
-6.420372 1.3730578 -1.4354242
-6.4612703 1.3693821 -1.4629476
-6.4970994 1.3788757 -1.487253
-6.5338068 1.3843069 -1.5120887
-6.5526462 1.3799925 -1.5247273
-6.5804291 1.3771038 -1.5434188
-6.6106558 1.3820226 -1.5638766
-6.632659 1.3788702 -1.5786662
-6.6531076 1.3770325 -1.5924278
-6.68577 1.3809693 -1.6145132
-6.6416101 1.3890855 -1.5848577
-6.5473943 1.4219463 -1.5218244
-6.5073738 1.4215596 -1.4948311
-6.4375119 1.3806591 -1.4470979
-5.0470676 -1.4899403 -0.46577626
-5.0218763 -1.4915164 -0.44876492
-4.9902248 -1.5076152 -0.42717582
-5.0676532 -1.509388 -0.47936189
-5.0948482 -1.5266745 -0.49743766
-5.1086726 -1.5257888 -0.50677347
-5.1152844 -1.5260596 -0.51122802
-5.1347971 -1.5287395 -0.5243454
-5.1470852 -1.5274564 -0.53265131
-5.1367931 -1.5250361 -0.5257479
-5.1004238 -1.5151836 -0.50137252
-5.0685167 -1.5012898 -0.48006749
-5.0536771 -1.4929132 -0.4701882
-4.3545084 1.3997631 -0.042735241
-4.3862667 1.4033649 -0.064205885
-4.4215631 1.3931041 -0.087851718
-4.3806691 1.3943737 -0.060294595
-4.4068522 1.3864844 -0.077830613
0.036596775 -1.5292745 2.9629421
-3.2590504 -0.76645118 0.72894484
-3.1920381 -0.76479095 0.77410865
-3.1511869 -0.76852036 0.80171287
-3.1307721 -0.7716347 0.8155269
-3.0932674 -0.76673251 0.84074318
-3.0834546 -0.81452835 0.84808785
-3.0940137 -0.85421097 0.84157127
-3.0998666 -0.87521195 0.83794403
-3.1207933 -0.93208277 0.82469785
-3.1163878 -1.0147163 0.82892627
-3.0867786 -1.0544307 0.84949738
-3.0871201 -1.0944209 0.84987581
-3.1094613 -1.1343374 0.83541769
-3.1025343 -1.2539587 0.84190929
-3.1124582 -1.2943225 0.83583152
-3.1235867 -1.2595022 0.82779729
-3.2290304 -1.1742704 0.75539517
-3.2318716 -1.1747733 0.75348687
-3.2510307 -1.1741967 0.74055839
-3.2518361 -1.136526 0.73944193
-3.3863277 -1.0448315 0.64735323
-3.2772915 -0.90943456 0.7188201
-3.3635244 -0.76801491 0.65851742
-6.2121944 -1.5929168 -1.2499013
-6.1674838 -1.6088203 -1.2195089
-6.1429291 -1.6089708 -1.2029486
-6.1209288 -1.6090443 -1.1881117
-6.1180878 -1.6085415 -1.1862035
-6.0931778 -1.608629 -1.1694045
-6.0596204 -1.6108894 -1.1467409
-6.0318694 -1.610474 -1.1280334
-6.0114336 -1.611089 -1.1142433
-5.9784236 -1.6092136 -1.0920118
-5.9567099 -1.6098671 -1.0773596
-6.2283268 -1.5706668 -1.2611185
-5.2987094 -1.5296602 -0.63486391
-5.3323283 -1.5278525 -0.6575622
-5.3438325 -1.5275445 -0.66532451
-5.3248277 -1.5300512 -0.65247059
-5.3509464 -1.5304421 -0.67007756
-5.1822968 -1.5277199 -0.55639184
-5.1675429 -1.5293409 -0.54641807
-5.3876333 1.4234738 -0.73977399
-5.4284725 1.4246671 -0.7673316
-5.4629536 1.4173675 -0.79047257
-5.5331264 1.4122148 -0.83771455
-5.5740004 1.4110382 -0.86525965
-5.6727228 1.4193482 -0.93195832
-5.751471 1.379509 -0.98445523
-5.7884293 1.3757806 -1.0093209
-5.7980466 1.3773048 -1.0158296
-5.8184719 1.3779662 -1.0296131
-5.8258061 1.3769155 -1.034543
-5.8446221 1.3751001 -1.0472038
-5.8037958 1.3712783 -1.0196146
-5.7662897 1.3712008 -0.99432188
-5.725368 1.3773758 -0.9668206
-5.6845179 1.3760531 -0.93925345
-5.63799 1.3732586 -0.90783519
-5.6175408 1.3750968 -0.89407361
-5.5939674 1.3755457 -0.87818384
-5.5448384 1.3776674 -0.84508657
-5.5072937 1.3709757 -0.81966692
-5.4852471 1.3750563 -0.80486208
-5.4607019 1.3757794 -0.78832132
-5.4511638 1.3757713 -0.78188902
-5.4049449 1.4017758 -0.75111771
-5.3635073 1.407769 -0.72326565
-5.3501987 1.4108748 -0.7143386
-5.3264937 1.410373 -0.69834566
-5.2774749 1.4160798 -0.6653772
-5.2627678 1.414485 -0.65543538
-5.2481141 1.4114723 -0.64550781
-5.2350473 1.4116566 -0.63669932
-5.2037735 1.4117823 -0.61561209
-5.1833372 1.4111674 -0.60182172
-5.1572399 1.4090588 -0.5841912
-5.1378412 1.4129944 -0.57116961
-5.1174216 1.4123979 -0.55739081
-5.108386 1.4148042 -0.55133438
-5.0901637 1.4182172 -0.53909826
-5.0697274 1.4176023 -0.52530795
-5.0561223 1.415607 -0.51610303
-5.0765419 1.4162035 -0.52988189
-0.23403597 -1.2237308 2.7757936
-0.22079515 -1.2035995 2.784416
-0.21992922 -1.1236179 2.7837827
-0.2316699 -1.1220332 2.775841
-0.23317003 -1.1437495 2.7751601
-0.23683977 -1.1625535 2.7729716
-0.23983765 -1.2024645 2.7715576
-4.0775394 -1.2740405 0.18472962
-4.1199474 -1.4527662 0.15885244
-4.0940418 -1.4773691 0.17669593
-4.0122333 -1.4723309 0.23178618
-3.9394534 -1.4596671 0.28067189
-3.9125881 -1.4554756 0.29872441
-3.806885 -1.3354924 0.36817825
-3.8047895 -1.2140094 0.36774248
-3.8123441 -1.1349583 0.36144501
-3.7498436 -1.0631615 0.40249872
-3.7382658 -1.0361557 0.40989524
-3.7234054 -1.0252798 0.41975063
-3.6860285 -1.0353739 0.44510895
-3.6656137 -1.0384883 0.45892292
-3.6102648 -1.0738312 0.49678493
-3.5785277 -1.0799325 0.51827925
-3.546684 -1.0735369 0.53965539
-3.5187004 -1.0549673 0.55824333
-3.5055985 -1.0497731 0.56699938
-3.485909 -1.0541886 0.58034408
-3.4122331 -1.0202286 0.62950975
-3.3919034 -1.0333406 0.64341843
-7.1640353 -0.95898139 -1.901414
-7.1673641 -0.96652842 -1.9035438
-7.1835852 -1.0458204 -1.9132757
-7.2052917 -1.0027401 -1.9285687
-5.1813393 -1.5261438 -0.5557701
-5.2083941 -1.5256114 -0.57402235
-5.1869955 -1.5271426 -0.55956918
-4.9130378 1.4174485 -0.41964328
-4.9186988 1.4189417 -0.42348343
-4.9652534 1.4191658 -0.45488048
-5.0118933 1.4093926 -0.48618299
-5.0357232 1.4125106 -0.5022999
-5.0027151 1.4192626 -0.48014408
-4.9391775 1.4145582 -0.43722641
-5.2446246 1.4155118 -0.64321631
-5.2676611 1.4161961 -0.6587612
-5.2766562 1.4170177 -0.66483939
-5.2945509 1.420584 -0.67696089
-5.3150434 1.4174273 -0.6907317
-5.3201494 1.4175928 -0.69417751
-5.3378763 1.4152117 -0.70609522
-5.3729267 1.4231648 -0.72985208
-4.8867478 -1.4908752 -0.35765204
-4.9071841 -1.4902601 -0.37144238
-4.8970299 -1.4980657 -0.3644762
-4.8504114 -1.4907918 -0.33315006
-0.7404511 -0.80233812 2.4278839
-0.75267148 -0.78661734 2.419404
-0.81957769 -0.7681151 2.3740048
-0.95796824 -0.79847509 2.2811446
-0.98851776 -0.75982195 2.2599556
-1.031482 -0.72692841 2.2304823
-1.0620961 -0.63938272 2.2085056
-1.1509187 -0.74896139 2.1502767
-1.1974638 -0.746095 2.1188459
-1.2178786 -0.73545808 2.1049175
-1.2646129 -0.7500875 2.0736253
-1.2939992 -0.75789201 2.0539277
-1.3275468 -0.75738889 2.0312974
-1.3317895 -0.75657952 2.0284243
-1.3343551 -0.75649959 2.0266929
-1.3424461 -0.75733119 2.0212495
-1.3967142 -0.75672448 1.9846451
-1.4250689 -0.76834255 1.9657011
-1.4566708 -0.7720257 1.9444468
-1.5347903 -0.77034295 1.891742
-1.5553405 -0.77220315 1.8779125
-1.4730213 -0.89544606 1.9352994
-1.429023 -0.95838046 1.9659269
-1.4178431 -0.97825682 1.9737687
-1.3396964 -0.97744 2.0264537
-1.3264556 -0.95730859 2.0350761
-1.3169813 -0.77562618 2.0386999
-1.243283 -0.75933635 2.0881495
-1.2044072 -0.75946361 2.114367
-1.1481159 -0.75722116 2.1522925
-1.1099534 -0.75773823 2.178035
-1.0252011 -0.84017777 2.2364416
-1.0177834 -0.84845138 2.2415695
-0.99307251 -0.87982827 2.2587104
-0.9664433 -0.91789073 2.277247
-0.93172765 -0.96086705 2.3013113
-0.90070653 -0.91884911 2.3215904
-0.89134383 -0.87839162 2.3272884
-0.82014585 -0.82060289 2.3744206
-0.81462026 -0.81969148 2.3781328
-0.75302362 -0.81910974 2.419661
-0.29102659 -0.92442989 2.7328074
-0.26189423 -0.92503256 2.7524614
-0.19907761 -0.88519019 2.794215
-0.17791319 -0.884969 2.8084836
-0.17032623 -0.84404975 2.8129771
-0.1659956 -0.8031646 2.8152752
-0.2028451 -0.74856865 2.7895951
-0.20859337 -0.72230333 2.7853189
-0.21741009 -0.70702708 2.7791409
-0.27434587 -0.76174951 2.7415798
-0.41103697 -0.87393177 2.6511109
-0.41600275 -0.88148105 2.6478772
-0.46625233 -0.96080476 2.6151991
-0.51696467 -1.0349836 2.5821307
-0.56364465 -1.0446143 2.5507989
-0.57894015 -1.0705572 2.5408795
-0.61086655 -1.1042333 2.5198627
-0.62634969 -1.1227429 2.5097036
-0.62245226 -1.1218485 2.5123181
-0.56059766 -1.0832968 2.5534425
-0.51274276 -1.0837038 2.5857191
-0.48568773 -1.0612936 2.6036224
-0.42890644 -0.96244216 2.6404078
-0.3440609 -0.92135572 2.6969972
-0.32183647 -0.92309773 2.7120106
-0.31154966 -0.92379069 2.7189579
-2.6568136 -1.5241005 1.1465883
-2.6978674 -1.5277761 1.1189599
-2.6513295 -1.5306861 1.1503866
-2.6252904 -1.5329349 1.1679802
-2.5615075 -1.5261197 1.2108878
-2.5410714 -1.5267348 1.224678
-2.5001562 -1.5229661 1.2522115
-2.4797201 -1.523581 1.2660017
-2.4650357 -1.5298297 1.2759991
-2.6363149 -1.524762 1.1604214
-2.5989265 -1.5210245 1.1855769
-2.5692215 -1.523335 1.2056435
-2.5487232 -1.5239964 1.2194765
-3.4111352 -1.5565902 0.63841319
-3.4288998 -1.5343646 0.62609553
-3.4686499 -1.5108898 0.59893334
-3.5152073 -1.4933114 0.56727028
-3.5374937 -1.4938178 0.55224919
-3.5482855 -1.4946699 0.54498494
-3.5776625 -1.4937859 0.52516145
-3.6490157 -1.4889922 0.47697198
-3.6792891 -1.4935226 0.45662642
-3.710305 -1.4939868 0.43571824
-3.7421467 -1.4910436 0.41420126
-3.7764487 -1.494056 0.3911159
-3.7887228 -1.4933188 0.38282776
-3.7936199 -1.4933922 0.37952656
-3.8352137 -1.4855967 0.35135961
-3.8669717 -1.4819947 0.329889
-3.8873868 -1.4788803 0.31607497
-3.9347081 -1.4936333 0.28438872
-3.9805603 -1.4859302 0.25335151
-4.0271149 -1.4857063 0.22195445
-4.0793524 -1.4864881 0.18674059
-4.0850134 -1.4849946 0.18290041
-4.1053643 -1.4743822 0.16901542
-4.1575799 -1.4726646 0.1337782
-4.1928768 -1.4829254 0.11013237
-4.1985588 -1.4839314 0.10631576
-4.2132702 -1.4773117 0.096294656
-4.2245712 -1.4718255 0.088590562
-4.2393036 -1.4677051 0.078593239
-4.2374811 -1.4545252 0.079621494
-4.2360477 -1.4516259 0.080543965
-4.2186751 -1.4458256 0.092170626
-4.166667 -1.3716536 0.12611309
-4.0863099 -1.2537763 0.17850707
-4.0492692 -1.254891 0.20350204
-4.0471382 -1.2545137 0.2049333
-3.3850169 -1.5561993 0.65602005
-3.3685007 -1.5334605 0.66681141
-3.302547 -1.4736803 0.71037686
-3.3172154 -1.4620619 0.70030844
-3.4017577 -1.4140031 0.64256674
-3.4150476 -1.3501472 0.63263291
-3.4230819 -1.335273 0.62698871
-3.5072021 -1.453552 0.57206315
-3.5311215 -1.4540827 0.55594158
-3.6192718 -1.455402 0.49651837
-3.6804543 -1.4478997 0.45514637
-3.6519897 -1.2562544 0.47142434
-3.5685315 -1.2565591 0.52770823
-3.5655501 -1.2564282 0.52971679
-3.5152643 -1.1344831 0.56177062
-3.4443326 -1.0566168 0.60841763
-3.4349489 -1.0533684 0.61469591
-3.4181499 -1.0487278 0.62595356
-3.7938609 -0.76551068 0.36828607
-3.8142972 -0.76489562 0.35449576
-3.8029752 -0.76788247 0.36217618
-2.2416792 -1.5321598 1.4266528
-2.2266626 -1.5334705 1.4367989
-2.2156303 -1.5318877 1.4442145
-2.1912067 -1.5332067 1.4607043
-2.2376015 -1.5177994 1.429184
-2.2470424 -1.5180749 1.4228218
-2.2636409 -1.5155509 1.4115903
-2.2936954 -1.5252061 1.3914702
-3.220161 -1.000124 0.7587257
-3.2262485 -1.0486182 0.75535876
-2.8669119 -1.5201676 1.0048506
-2.8873696 -1.5220518 0.99108398
-2.8782768 -1.5221794 0.99721754
-2.0237079 -1.5224466 1.5734918
-1.9883225 -1.5371337 1.5975771
-1.9622195 -1.5318626 1.6150993
-2.3047807 -1.5267248 1.3840181
-2.3197715 -1.5279777 1.3739283
-2.3457935 -1.5257505 1.3563467
-2.3662758 -1.5247402 1.3425193
-2.3569167 -1.5272264 1.3488684
-2.3252792 -1.5260632 1.3701851
-5.1424007 1.4174354 -0.57431191
-5.1958132 1.4172039 -0.61032641
-5.1980486 1.4177871 -0.61184281
-5.2088733 1.4170218 -0.61913079
-5.2186708 1.4168844 -0.62573552
-5.2219396 1.4168375 -0.62793905
-2.0869348 -1.5322033 1.5310038
-2.1130028 -1.5324541 1.5134289
-2.0869653 -1.5348117 1.531023
-3.1982431 -1.4921116 0.78099358
-3.1329136 -1.4542234 0.82447141
-3.115968 -1.4147329 0.83529741
-3.0700717 -1.5097921 0.86769396
-3.0791643 -1.5096645 0.86156046
-3.1109014 -1.5035632 0.84006602
-3.1836174 -1.5087289 0.79110932
-3.2356412 -1.4845169 0.75565904
-3.5758836 -0.77000886 0.51534551
-3.5644975 -0.76549762 0.52295494
-3.5440826 -0.76861203 0.53676891
-4.1197386 -1.0547543 0.15293591
-4.1278152 -1.044879 0.14733921
-4.0839 -1.0550237 0.17710717
-1.8635225 -1.5291858 1.6816138
-1.9045417 -1.5254078 1.6538954
-1.8743844 -1.5135127 1.6740507
-1.8418503 -1.515672 1.6960226
-1.8223679 -1.5204666 1.7092334
-1.8278935 -1.521378 1.7055211
-2.1651387 -1.5329558 1.4782792
-2.1595979 -1.5345428 1.4820398
-2.1595864 -1.5347168 1.4820502
-2.1540875 -1.5363048 1.4857824
0 0 0 1 0 0 0 1 0 0 0 1 0 0 0 0 0 906 1 0 0
