ply
format ascii 1.0
comment PCL generated
element vertex 1086
property float x
property float y
property float z
element camera 1
property float view_px
property float view_py
property float view_pz
property float x_axisx
property float x_axisy
property float x_axisz
property float y_axisx
property float y_axisy
property float y_axisz
property float z_axisx
property float z_axisy
property float z_axisz
property float focal
property float scalex
property float scaley
property float centerx
property float centery
property int viewportx
property int viewporty
property float k1
property float k2
end_header
-10.940411 -1.5074511 0.36895287
-10.913103 -1.5569916 0.35248554
-10.898008 -1.5573916 0.3438679
-10.867825 -1.5606916 0.32658947
-10.820323 -1.5567706 0.29956186
-10.790138 -1.5600705 0.28228343
-10.775042 -1.5579712 0.27370834
-10.74375 -1.5599599 0.25582194
-10.682251 -1.5502524 0.22091305
-10.758989 -1.5483992 0.26472294
-10.80633 -1.5534832 0.29163778
-10.915163 -1.4571397 0.3554529
-10.939995 -1.4294062 0.37011635
-10.959339 -1.3484914 0.38260353
-10.970972 -1.3873367 0.38854229
-1.3312058 0.17924216 -5.0825343
-1.2608833 0.11123997 -5.1238718
-1.3213444 0.19182363 -5.0879345
-11.066207 0.31063884 0.47333777
-11.06921 0.34928572 0.47574437
-11.050992 0.39021838 0.46608627
-11.051459 0.44704831 0.4673723
-11.050871 0.47019815 0.46745241
-11.058748 0.5110687 0.47267902
-11.050691 0.59016776 0.46950185
-11.018803 0.61632764 0.45178044
-10.970314 0.71144599 0.42582595
-11.034719 0.8053686 0.4642514
-11.050329 0.83010691 0.47360051
-11.049221 0.8314181 0.47299206
-11.034651 0.85035712 0.46501982
-10.955412 0.95032936 0.42161071
-10.953336 1.0303411 0.42186201
-10.975086 1.0719147 0.4350158
-10.978323 1.1524861 0.43830812
-10.983282 1.1911011 0.44183028
-10.988466 1.2317326 0.44551671
-10.935604 1.3124921 0.4168092
-10.928585 1.3128085 0.41281092
-10.854501 1.3525114 0.37126029
-10.832126 1.3590813 0.35861385
-10.799711 1.3684013 0.34028947
-10.785721 1.3691893 0.33232272
-10.754433 1.3647013 0.31439316
-10.769526 1.3651013 0.32301104
-10.869421 1.270997 0.37830889
-10.853356 1.1508482 0.36698902
-10.863851 1.073643 0.37159026
-10.876179 1.0314789 0.37786663
-10.854255 0.95133346 0.36392176
-10.852913 0.91072005 0.36242783
-10.847227 0.79084617 0.35703266
-10.849224 0.76332122 0.35767853
-10.942636 0.70995808 0.41000998
-10.963225 0.59094846 0.41961968
-10.948807 0.50991297 0.40994012
-10.965086 0.47127467 0.41853344
-10.966825 0.43158066 0.41881335
-10.956257 0.39047122 0.41204727
-10.96621 0.3513301 0.41702282
-10.976232 0.31210709 0.42203605
-10.989985 0.27189374 0.42916
-10.980385 0.15208372 0.42153442
-11.034456 0.24682152 0.45407975
-11.050066 0.27155983 0.46342862
-7.6572757 -1.5025561 -1.5038853
-7.7149854 -1.4892626 -1.4707252
-7.7946882 -1.4817793 -1.425123
-7.8307009 -1.4821649 -1.4045857
-7.8752413 -1.507319 -1.3796282
-7.9842224 -1.5084507 -1.3174783
-8.0933123 -1.5820642 -1.2565668
-8.117095 -1.6052692 -1.243416
-8.1927891 -1.6445942 -1.2009401
-8.225029 -1.6450799 -1.1825573
-8.2521343 -1.6451988 -1.1670961
-8.398591 -1.6085293 -1.0828897
-8.4211283 -1.6465826 -1.0707154
-8.4471788 -1.6477351 -1.0558751
-8.4771156 -1.647779 -1.0387979
-8.5074682 -1.6483147 -1.0214926
-8.5755548 -1.6478498 -0.98264271
-8.6210127 -1.6554835 -0.95684737
-8.654253 -1.6485279 -0.93775994
-8.7460136 -1.5375564 -0.88342202
-8.776206 -1.5392554 -0.86622906
-8.8387671 -1.520282 -0.8301996
-8.916172 -1.5328352 -0.78626722
-8.9422665 -1.5328972 -0.77138245
-8.9639378 -1.5148263 -0.75869554
-9.0187836 -1.4922173 -0.72700191
-9.1182346 -1.5372519 -0.67107642
-9.1456108 -1.5327001 -0.65537763
-9.2253208 -1.5334349 -0.60991859
-9.2733631 -1.5754199 -0.58326519
-9.2994576 -1.5754821 -0.56838036
-9.372201 -1.5349023 -0.52615428
-9.4082136 -1.5352879 -0.50561726
-9.4214277 -1.5399358 -0.49816215
-9.4861841 -1.6172249 -0.46260774
-9.5174799 -1.6177356 -0.44476354
-9.6576958 -1.5793881 -0.36408687
-9.7019815 -1.5432208 -0.33817422
-9.764576 -1.5467415 -0.30252922
-9.8109732 -1.5518506 -0.27615273
-9.8422689 -1.5523615 -0.25830853
-9.8562622 -1.5556488 -0.25038457
-9.90376 -1.5570703 -0.22331429
-9.9199581 -1.5554819 -0.21404529
-9.9495993 -1.5590248 -0.19719923
-9.9652472 -1.5592799 -0.18827724
-9.9965429 -1.5597906 -0.17043316
-10.012192 -1.5600462 -0.16151094
-10.042933 -1.559901 -0.14397156
-10.089876 -1.5606673 -0.11720538
-10.122275 -1.5599897 -0.098710179
-10.153568 -1.558001 -0.080823421
-10.213947 -1.5588994 -0.046394825
-10.262545 -1.5566335 -0.018631101
-10.292736 -1.5583324 -0.0014380217
-10.324028 -1.5563438 0.016448617
-10.370429 -1.5639522 0.042782545
-10.401724 -1.5644631 0.06062603
-10.448114 -1.5645733 0.087088108
-10.478306 -1.5662723 0.10428107
-10.509598 -1.5642836 0.12216783
-10.57327 -1.5491204 0.15876293
-10.579134 -1.5467169 0.16215158
-10.646235 -1.5473673 0.20041835
-10.573707 1.5157559 0.21400511
-10.503834 1.5237472 0.17428851
-10.494411 1.5159991 0.16877413
-10.457489 1.4938655 0.14731395
-10.411108 1.4889772 0.120767
-10.379808 1.4919872 0.10296559
-10.320234 1.4767513 0.06870687
-10.193316 1.3787692 -0.0054540634
-10.178229 1.3733702 -0.014157295
-10.100548 1.3714919 -0.058506012
-10.053604 1.3722575 -0.085271716
-10.037956 1.3725133 -0.094193697
-9.9921246 1.3694682 -0.12039423
-9.9764729 1.3722236 -0.12927341
-9.9446306 1.3683903 -0.14750719
-9.929533 1.3704896 -0.15608239
-9.8518448 1.37361 -0.20034528
-9.8054581 1.3712211 -0.22684991
-9.7590723 1.3688323 -0.25335443
-9.7126904 1.3639441 -0.27990186
-9.6813831 1.3719528 -0.29761779
-9.6500845 1.3749628 -0.31541872
-9.6037064 1.3675752 -0.34200883
-9.5629845 1.3628368 -0.3653245
-9.5411224 1.3635979 -0.37778234
-9.5260315 1.3606982 -0.38644302
-9.4634485 1.3567209 -0.42221618
-9.4274244 1.3646045 -0.44262528
-9.3932991 1.3650401 -0.46208501
-9.3544559 1.3653507 -0.48423815
-9.3306999 1.3710604 -0.49768782
-9.2918491 1.3763695 -0.51975536
-9.2843065 1.3736703 -0.52410698
-9.2379236 1.368782 -0.55065441
-9.1753101 1.3847997 -0.58608627
-9.1364679 1.3851097 -0.60823882
-9.0998363 1.385298 -0.62913263
-9.0825348 1.3825212 -0.63905239
-9.0512505 1.3755338 -0.65702462
-9.00595 1.3868299 -0.68266463
-8.9282646 1.3874509 -0.72697055
-8.896965 1.3904612 -0.7447719
-8.8494873 1.3793857 -0.77205539
-8.9120817 1.375865 -0.73640996
-8.965086 1.3684316 -0.7063061
-9.0048647 1.3731446 -0.68352926
-10.962988 -0.5487327 0.3990351
-10.955598 -0.46928084 0.39624465
-10.948267 -0.42981881 0.39277089
-10.948237 -0.4098222 0.39311278
-10.948207 -0.38982892 0.39345396
-10.948087 -0.3098492 0.39482033
-10.948056 -0.28985256 0.39516199
-10.94598 -0.20984092 0.39541328
-10.957042 -0.12939711 0.40316689
-10.978731 -0.047833726 0.41700327
-10.966025 0.031058311 0.41117084
-11.050608 -0.08834897 0.45728028
-11.036682 -0.13005015 0.44858778
-11.030589 -0.20952444 0.44368565
-11.036863 -0.25001976 0.44653857
-10.973345 -0.36765695 0.40819252
-10.966136 -0.40817469 0.40335286
-10.968182 -0.46819311 0.40344274
-10.973557 -0.5076232 0.40580142
-10.968511 -0.54841864 0.4021908
-10.968363 -0.58816278 0.40139353
-10.968423 -0.62815261 0.40071046
-10.973798 -0.66758263 0.4030689
-10.966648 -0.74809027 0.39754593
-10.948689 -0.70974791 0.38798916
-10.948629 -0.66975808 0.38867199
-10.955839 -0.62924027 0.39351237
-3.1992488 -1.1743014 -4.0411606
-3.2142358 -1.1739714 -4.0326052
-3.2932525 -1.1699229 -3.9874563
-3.1957827 -1.1534252 -4.0427637
-3.1658049 -1.0657461 -4.0582919
-3.1205401 -1.0217431 -4.0833244
-3.1054006 -0.99957663 -4.0915632
-3.0955715 -0.9945128 -4.0970798
-3.042388 -0.95167077 -4.1266503
-3.016099 -0.9488914 -4.1415977
-3.001142 -0.95418829 -4.1502252
-2.9613657 -0.95408809 -4.1729145
-2.956079 -0.9538036 -4.1759253
-2.9235415 -0.96894813 -4.1947589
-2.8654723 -0.99259585 -4.2283096
-2.8530259 -0.99206394 -4.2354002
-2.8295894 -0.98564231 -4.2486548
-2.7739816 -0.9535259 -4.2798009
-2.7040496 -0.87297297 -4.3182497
-2.6863513 -0.71333551 -4.3254819
-2.6521935 -0.71312368 -4.344964
-2.6114678 -0.71054256 -4.3681502
-2.5384841 -0.71271157 -4.4098244
-2.5122499 -0.71262068 -4.4247885
-2.4701691 -0.71228802 -4.4487882
-2.4561095 -0.71006751 -4.456769
-2.4130187 -0.71219915 -4.481389
-2.3009081 -0.73958731 -4.545836
-2.2735443 -0.75185102 -4.5616665
-2.2068639 -0.73878455 -4.5994711
-2.1590843 -0.72545385 -4.6264887
-2.1427193 -0.7248885 -4.6358142
-2.0963616 -0.71991944 -4.6621704
-2.0774074 -0.71018541 -4.6728086
-2.0005751 -0.629547 -4.7151923
-1.9969053 -0.59101391 -4.7165942
-1.9956584 -0.55037355 -4.7165766
-1.9902606 -0.51076186 -4.718945
-1.9977732 -0.46955788 -4.7139201
-2.0330992 -0.35031116 -4.691628
-2.0193381 -0.21064293 -4.6969724
-2.0169578 -0.13064004 -4.6968946
-2.0314398 -0.035358742 -4.6869235
-2.1547852 -0.011443704 -4.6161294
-2.1714735 0.028857321 -4.6058865
-2.171329 0.056352556 -4.6054754
-2.1663704 0.10875049 -4.6073642
-2.1669235 0.14887008 -4.6063285
-2.1704726 0.21882448 -4.6030488
-2.1713567 0.22884142 -4.6023645
-2.155385 0.23852342 -4.6113024
-2.0591745 0.38891351 -4.6634889
-2.0648351 0.43010616 -4.6595206
-2.0574784 0.46973467 -4.6630063
-2.0686259 0.55034035 -4.6552005
-2.1420932 0.62823284 -4.6118922
-2.1830206 0.68154234 -4.5875883
-2.1913033 0.70920503 -4.5823665
-2.1944199 0.74893028 -4.5798759
-2.1824675 0.78652412 -4.58602
-2.1829348 0.82858533 -4.5849986
-2.1963248 0.86973912 -4.5766215
-2.1928487 0.94921941 -4.5771785
-2.1954823 1.0297115 -4.5742316
-2.18363 1.0685272 -4.5802965
-2.1798329 1.1089499 -4.5817375
-2.1856484 1.1880584 -4.5770001
-2.1924696 1.2296937 -4.5723619
-2.2098527 1.277035 -4.5615959
-2.2885327 1.3484221 -4.5154309
-2.3348241 1.3559506 -4.4888878
-2.397573 1.3454173 -4.4532804
-2.4438787 1.3504465 -4.4267745
-2.4274869 1.3560109 -4.4360256
-2.349781 1.3612475 -4.4802604
-2.3034501 1.3612175 -4.5066915
-2.2406349 1.3842487 -4.5421119
-2.1780696 1.3597882 -4.5782423
-2.1514115 1.3483689 -4.5936551
-2.1516223 1.3083758 -4.5942526
-2.1756411 1.2281349 -4.5819902
-2.1654568 1.17116 -4.5888224
-2.1506581 1.1358683 -4.5978975
-2.1823487 1.070612 -4.5809903
-2.1515799 0.96089858 -4.6005116
-2.167089 0.86121362 -4.5934525
-2.0259237 0.75036877 -4.675972
-2.0190887 0.70934516 -4.6806073
-2.017354 0.66875684 -4.6823249
-2.0278058 0.65452206 -4.6766176
-1.9523649 0.49142474 -4.7225809
-1.8885188 0.46904904 -4.7594047
-1.8898835 0.43074846 -4.7593136
-1.9023304 0.43021655 -4.7522225
-1.9381742 0.43076181 -4.7317653
-1.9523253 0.23733169 -4.7271628
-1.8937011 0.22905701 -4.7607546
-1.9001803 0.1905798 -4.7577491
-1.8904324 0.08539325 -4.7651973
-1.8872108 0.069439828 -4.7673211
-1.8906035 0.052898854 -4.7656827
-1.8908534 0.0054070354 -4.7663922
-1.8876328 -0.010546356 -4.7685156
-1.8788104 -0.050329342 -4.7742624
-1.8871174 -0.090551153 -4.7702451
-1.8875384 -0.17053735 -4.77144
-1.8690653 -0.20912075 -4.782671
-1.8610592 -0.28928119 -4.7886763
-1.8626518 -0.33013728 -4.7885008
-1.8386655 -0.3888289 -4.8032374
-1.8619151 -0.45175314 -4.7911034
-1.8635206 -0.49510878 -4.7909656
-1.8625422 -0.5505141 -4.7925177
-1.9116688 -0.57842743 -4.7649932
-1.995008 -0.6701557 -4.7190967
-1.9726229 -0.75098461 -4.7333169
-2.0113277 -0.79088074 -4.7119532
-2.0756383 -0.79121691 -4.675272
-2.1307836 -0.91144878 -4.6459703
-2.2687964 -0.85593647 -4.5662422
-2.2848387 -0.87064457 -4.5573549
-2.3132648 -0.95182741 -4.5425954
-2.3717699 -0.95155543 -4.5092149
-2.395381 -0.95242202 -4.4957614
-2.4096732 -0.95169276 -4.4875951
-2.4201603 -0.95220792 -4.4816213
-2.4709606 -0.94636589 -4.4525366
-2.5173049 -0.94883537 -4.4261432
-2.5336571 -0.94690108 -4.41678
-2.6223197 -0.99280775 -4.3670244
-2.6472616 -1.072418 -4.3542242
-2.6522169 -1.0730988 -4.3514094
-2.6883841 -1.0889885 -4.3310623
-2.7303867 -1.0724361 -4.3068042
-2.8320093 -1.073144 -4.2488446
-2.8799338 -1.11397 -4.2222376
-2.8976393 -1.1135625 -4.2121301
-2.9342418 -1.0813577 -4.1906714
-2.9407477 -1.0737147 -4.1868229
-2.982213 -1.0337558 -4.1624513
-3.0299892 -1.0027212 -4.1346393
-3.1361008 -1.1063988 -4.0759664
-3.1374898 -1.1097651 -4.0752344
-3.1527133 -1.1444292 -4.0671716
-3.1649575 -1.1541595 -4.0603614
-7.648736 -1.4887791 -1.5085096
-7.609849 -1.4399865 -1.5298182
-7.5630512 -1.4084823 -1.5559496
-7.5278039 -1.3682265 -1.5753345
-7.4907565 -1.3280787 -1.5957487
-7.4894094 -1.2480512 -1.5950812
-7.5607958 -1.088567 -1.551496
-7.5052671 -1.0483088 -1.5824509
-7.4899731 -0.92807138 -1.5890182
-7.5613599 -0.76858711 -1.5454328
-7.5627456 -0.6485678 -1.5424888
-7.5674362 -0.60859787 -1.5390956
-7.5262303 -0.5283494 -1.5611625
-7.4115863 -0.52777374 -1.6265529
-7.5266805 -0.37949711 -1.5582348
-7.3744707 -0.38044184 -1.6450828
-6.5482483 1.5049949 -2.0825863
-6.5619087 1.5148506 -2.0746169
-6.6395912 1.5144975 -2.0303078
-6.6721616 1.5057521 -2.0118842
-6.6866088 1.5040112 -2.0036738
-6.7097912 1.5039973 -1.9904491
-6.7476926 1.5038021 -1.9688312
-6.8441391 1.4219377 -1.9152802
-6.8450799 1.4219563 -1.9147432
-6.88659 1.4219508 -1.8910631
-6.8923855 1.4219472 -1.8877569
-6.9349122 1.4219027 -1.8634977
-6.9387507 1.4219196 -1.8613076
-6.9832349 1.4218547 -1.835932
-7.0309463 1.4222674 -1.8087066
-7.0608759 1.4314997 -1.791467
-7.0759339 1.4292982 -1.7829163
-7.1085048 1.4205527 -1.7644928
-7.1373882 1.41957 -1.7480332
-7.1699281 1.4183235 -1.7294927
-7.2002311 1.3689282 -1.7130921
-7.3292112 1.3801985 -1.6393107
-7.3417134 1.3807504 -1.6321685
-7.348937 1.37988 -1.6280634
-7.3608475 1.3397653 -1.6219888
-7.3486342 1.2996457 -1.6296759
-7.3517876 1.2197161 -1.629311
-7.3743262 1.1817207 -1.617135
-7.5148773 1.2204626 -1.53626
-7.5319324 1.3004377 -1.5250957
-7.6037955 1.3424649 -1.4833459
-7.6680222 1.379616 -1.44604
-7.6860251 1.379698 -1.4357684
-7.7220449 1.3794658 -1.4152243
-7.7419343 1.3788948 -1.4038885
-7.815846 1.3781738 -1.3617371
-7.8490276 1.377713 -1.3428161
-7.901063 1.3877501 -1.3129516
-7.9229398 1.376992 -1.3006645
-8.0223484 1.3757739 -1.2439768
-8.0726271 1.3905957 -1.2150283
-8.1039305 1.3850863 -1.1972697
-8.1816044 1.3919632 -1.152836
-8.227994 1.3918529 -1.126374
-8.2905855 1.3908315 -1.0906858
-8.3369741 1.3907211 -1.0642242
-8.3984585 1.3910108 -1.0291445
-8.4459553 1.3895891 -1.0020742
-8.5074358 1.3923783 -0.96695185
-8.5236406 1.3889682 -0.95776874
-8.6013184 1.3933458 -0.91337723
-8.631506 1.3941462 -0.89614165
-8.6952085 1.3893144 -0.85988814
-8.6337852 1.3490345 -0.89565086
-8.5949736 1.3293505 -0.91814518
-8.5561419 1.3221626 -0.94042629
-8.5173483 1.2899816 -0.96313417
-8.4747143 1.2103763 -0.98888391
-8.4778032 1.1303077 -0.98855835
-8.4751549 1.010263 -0.99222344
-8.4392023 0.97065884 -1.0134437
-8.4412699 0.85073918 -1.014416
-8.550312 0.80961758 -0.95294881
-8.5532618 0.72971278 -0.9526996
-8.5884743 0.63432634 -0.93432337
-8.6321316 0.5691573 -0.91058761
-8.6663742 0.49124128 -0.89245111
-8.7035151 0.36841172 -0.8734675
-8.7036362 0.28843194 -0.87483388
-8.7029333 0.12844747 -0.8781051
-8.768199 0.047849178 -0.84231949
-8.8498564 0.0071743429 -0.79646617
-8.8566589 -0.03280431 -0.79330313
-8.8548927 -0.11283407 -0.79574639
-8.9005423 -0.24793535 -0.77212888
-8.9071836 -0.27275392 -0.76878554
-8.9162588 -0.293181 -0.76397508
-8.9718132 -0.37370163 -0.73372781
-8.9708986 -0.39371988 -0.73460835
-8.9728165 -0.41366649 -0.73387241
-8.9719934 -0.49367124 -0.7357772
-9.0237665 -0.61419988 -0.70840538
-9.1614113 -0.53517509 -0.62846482
-9.1652479 -0.48525161 -0.62538064
-9.1612911 -0.45519537 -0.62709844
-9.1592445 -0.39517695 -0.62718928
-9.159215 -0.3751837 -0.62684762
-9.1242027 -0.27504253 -0.64502418
-9.1714668 -0.15415001 -0.61589229
-9.1621799 -0.11465612 -0.62048113
-9.1601639 -0.074634328 -0.62091339
-9.1619997 0.0053134859 -0.61843169
-9.1618786 0.085293233 -0.61706543
-9.1676264 0.16517723 -0.61235344
-9.1563835 0.20470306 -0.61805797
-9.1582184 0.28465086 -0.61557627
-9.1561422 0.36466247 -0.61532521
-9.1719637 0.44632167 -0.6048342
-9.1651268 0.52511799 -0.60732079
-9.1519289 0.56467575 -0.61414003
-9.1683035 0.64567935 -0.60334504
-9.1682444 0.68566924 -0.60266173
-9.1734972 0.72621882 -0.59893715
-9.1735764 0.7660448 -0.59817791
-9.1719751 0.80557495 -0.59838188
-9.1677341 0.88586432 -0.59936023
-9.1712399 0.92620009 -0.59663689
-9.1663589 1.0049646 -0.59800816
-9.1735086 1.0854721 -0.59248495
-9.1622658 1.1249979 -0.598189
-9.1714325 1.1654837 -0.59223366
-9.1634874 1.2455912 -0.59532845
-9.09764 1.3754232 -0.63056278
-10.197565 -1.2232463 -0.049717665
-10.339668 -1.1848489 0.032036662
-10.340732 -1.2648036 0.031208634
-10.349628 -1.3049781 0.035563111
-10.355556 -1.3450637 0.038225651
-10.449954 -1.425895 0.090626001
-10.450014 -1.4658849 0.089942932
-10.495565 -1.5360026 0.11467052
-10.64987 -1.5634267 0.20220435
-10.634772 -1.5613277 0.19362915
-11.015804 -1.1483772 0.41840565
-11.006333 -1.1236336 0.41344678
-10.968472 -1.0273957 0.39357507
-10.957785 -0.98852557 0.38817513
-10.95968 -0.94856751 0.38997328
-10.954245 -0.8691476 0.38829815
-10.898234 -0.97385097 0.35446703
-10.868025 -1.0682912 0.33553898
-10.903198 -1.1076014 0.35489881
-10.957272 -1.2285718 0.38357556
-10.94171 -1.2694784 0.37396443
-6.7563477 -0.76568222 -2.0046148
-6.793324 -0.84482735 -1.9849411
-6.7905993 -0.9254815 -1.9879427
-6.7731447 -0.96527696 -1.9986142
-6.7537317 -1.0050504 -2.0104024
-6.7108259 -1.0445619 -2.0355878
-6.6496382 -1.0948908 -2.0713964
-6.6333904 -1.1041949 -2.0808322
-6.6034441 -1.1348774 -2.0984662
-6.5734668 -1.1580616 -2.1159832
-6.5872374 -1.1541797 -2.1080577
-6.6361141 -1.1587609 -2.0802574
-6.679934 -1.1491915 -2.0550878
-6.7137551 -1.1491179 -2.0357928
-6.7600622 -1.1366258 -2.0091519
-6.812253 -1.1266987 -1.9792006
-6.892386 -1.247052 -1.9356465
-6.9071221 -1.3253727 -1.9286453
-6.9042091 -1.2456475 -1.9288765
-6.9040451 -1.2056556 -1.9282527
-6.899097 -1.1266439 -1.9296578
-6.9074669 -1.0857229 -1.9241486
-6.9069738 -0.9657467 -1.9222772
-7.0563879 -0.96792644 -1.8370802
-7.0699792 -0.94058496 -1.8288363
-7.0127373 -0.80594194 -1.8590752
-6.9929953 -0.76573133 -1.8696157
-6.9890389 -0.75568962 -1.8716927
-6.9426804 -0.75568426 -1.8981386
-6.8962603 -0.74068183 -1.9243506
-6.8333869 -0.68499339 -1.9592187
-6.7791972 -0.68490064 -1.9901305
-6.7570405 -0.70567256 -2.0031428
-6.7521105 -0.72471654 -2.0062971
-6.3184538 -1.6038864 -2.2694595
-6.2178903 -1.5240636 -2.3253956
-6.201571 -1.5158713 -2.3345585
-6.1401777 -1.5162098 -2.3695874
-6.1088438 -1.513361 -2.3874114
-6.059967 -1.5087795 -2.4152117
-6.0299182 -1.5144672 -2.4324558
-5.9835696 -1.5169613 -2.458941
-5.9221559 -1.5123012 -2.493892
-5.9058566 -1.5091078 -2.5031328
-5.8594875 -1.5066028 -2.5295398
-5.7967997 -1.4959056 -2.5651097
-5.781785 -1.5012488 -2.5737708
-5.6728411 -1.5155411 -2.6361763
-5.6264105 -1.4980392 -2.6623495
-5.5643311 -1.5210745 -2.6981773
-5.4968305 -1.5585656 -2.7373571
-5.4387875 -1.573426 -2.7707353
-5.3878102 -1.5179973 -2.7988217
-5.3229775 -1.5178828 -2.8358045
-5.2831869 -1.5152273 -2.8584566
-5.1925387 -1.5642631 -2.9110479
-5.1886034 -1.5592206 -2.9132028
-5.1447515 -1.5207281 -2.9375279
-5.0970984 -1.5096865 -2.9645147
-5.0611072 -1.516943 -2.9851766
-5.0369797 -1.5160625 -2.998925
-5.0044017 -1.5146747 -3.0174847
-5.0206699 -1.5103695 -3.0081267
-5.1064243 -1.3973179 -2.9571781
-5.1137676 -1.2989604 -2.9512243
-5.1038966 -1.2788551 -2.9564948
-4.9979372 -1.2384182 -3.0162158
-4.8948689 -1.2223401 -3.0747242
-4.8636751 -1.2446294 -3.0929193
-4.8285317 -1.2370062 -3.1128309
-4.7987194 -1.2365785 -3.1298304
-4.7696543 -1.2465082 -3.146589
-4.7409983 -1.4421346 -3.1664467
-4.8056583 -1.4774618 -3.1301939
-4.8815331 -1.4953563 -3.0872307
-4.9279222 -1.5028603 -3.0609019
-4.9730988 -1.5193241 -3.0354254
-4.9568205 -1.5211298 -3.044744
-4.9104719 -1.5236239 -3.0712292
-4.8653469 -1.5196576 -3.0969005
-4.8373013 -1.5163331 -3.1128399
-4.8177347 -1.5186141 -3.124043
-4.8028584 -1.5216684 -3.1325846
-4.7876644 -1.5193026 -3.1412096
-4.770082 -1.5177433 -3.1512117
-4.7401667 -1.5212548 -3.1683407
-4.7088203 -1.5210478 -3.1862187
-4.662488 -1.5211706 -3.2126524
-4.6147661 -1.5179274 -3.2398181
-4.5997791 -1.5182571 -3.2483735
-4.5834198 -1.5177205 -3.2576962
-4.5520744 -1.5175135 -3.2755742
-4.5383296 -1.5175433 -3.2834158
-4.6272564 -1.4369476 -3.2312398
-4.718101 -1.4370701 -3.1794178
-4.6919923 -1.2489237 -3.1909361
-4.6775389 -1.2461517 -3.1991315
-4.6014719 -1.2766776 -3.2430735
-10.576874 1.4755132 0.21508992
-10.675652 1.3591354 0.26935112
-10.645463 1.358335 0.25211549
-10.613052 1.3651555 0.23374844
-10.582853 1.3718531 0.21664095
-10.566644 1.3777628 0.2075001
-10.506271 1.3736625 0.17298603
-10.458767 1.3800828 0.1460011
-10.426368 1.3794053 0.12750626
-10.412385 1.3751945 0.11945415
-10.364895 1.3716173 0.092298508
-10.334707 1.3708169 0.075062752
-10.303423 1.3638296 0.057090521
-10.210644 1.3640504 0.0041670799
-10.164258 1.3616614 -0.022337556
-10.11676 1.3630829 -0.049407959
-10.000586 1.2377102 -0.11793172
-10.076505 1.1570592 -0.076069355
-10.041677 0.99751049 -0.098800182
-10.041858 0.87754101 -0.10084963
-10.11583 0.83682972 -0.059381127
-10.136264 0.83661753 -0.047728062
-10.114184 0.67682034 -0.063191056
-10.112539 0.51681083 -0.067000747
-10.041518 0.4776172 -0.10821927
-9.9843178 0.39812762 -0.14227641
-9.9972563 0.31781816 -0.13633621
-10.073236 0.19717741 -0.095157266
-9.9997044 0.037775189 -0.13996494
-10.031985 -0.082516178 -0.12370777
-9.9813881 -0.16183059 -0.1539948
-9.9804602 -0.17185307 -0.15470397
-10.071159 -0.30277273 -0.10531223
-10.109058 -0.3031083 -0.083698034
-10.069424 -0.40279573 -0.1080972
-10.032619 -0.50241154 -0.13088059
-10.071642 -0.62269163 -0.11077738
-10.028263 -0.74247581 -0.13767266
-10.032218 -0.8623454 -0.13756764
-10.105367 -0.98306119 -0.098004341
-10.090312 -1.1170911 -0.10899746
-3.7813704 1.3679073 -3.6634636
-3.839586 1.4231699 -3.629262
-3.9040253 1.3635638 -3.5935709
-3.889029 1.3657656 -3.6020865
-3.8563251 1.361897 -3.6208124
-3.8263459 1.3638012 -3.6378803
-3.5455945 1.3653467 -3.7980127
-3.5005927 1.3744519 -3.8235211
-3.4706135 1.3763559 -3.840589
-3.4379358 1.3674884 -3.8593903
-3.4619322 1.3856308 -3.8453755
-3.4696827 1.385618 -3.8409543
-3.4916666 1.3851643 -3.8284211
-3.5167913 1.3851626 -3.8140883
-3.5519993 1.3836918 -3.7940297
-3.6096468 1.3689477 -3.7614083
-3.6629364 -1.035758 -3.7741556
-3.7005692 -0.99582738 -3.7519708
-3.8079307 -1.1157603 -3.6928763
-3.8772326 -1.0358062 -3.6519072
-3.9449131 -1.0058305 -3.6127596
-3.9542124 -0.99562621 -3.6072717
-3.974735 -0.98267496 -3.5953317
-3.9896879 -0.97734594 -3.5867062
-4.0046244 -0.96951747 -3.5780449
-4.0510583 -0.98439205 -3.5518227
-4.0824718 -0.99459732 -3.5340853
-4.0829277 -1.0620859 -3.5350361
-4.1462278 -1.1524845 -3.5005474
-4.2042532 -1.155501 -3.4674997
-4.2098732 -1.1553774 -3.4642916
-4.3194008 -1.1665537 -3.4020102
-4.3343706 -1.1637244 -3.3934193
-4.3493576 -1.1633947 -3.3848639
-4.3970795 -1.1666379 -3.3576984
-4.4120831 -1.1688077 -3.3491781
-4.4747748 -1.1692216 -3.3134217
-4.5656672 -1.1964583 -3.2620592
-4.6447864 -1.2022722 -3.2170286
-4.669157 -1.1969273 -3.2030296
-4.7305837 -1.1970758 -3.1679907
-4.7851467 -1.2108251 -3.1371107
-4.8627877 -1.201182 -3.0926461
-4.8843021 -1.1964235 -3.0802875
-4.9539123 -1.1582344 -3.0398917
-5.0192518 -1.1654377 -3.0027468
-5.0427132 -1.1582015 -2.9892328
-5.1191416 -1.1575183 -2.9456205
-5.1582141 -1.1379592 -2.9229801
-5.1823854 -0.99928731 -2.906703
-5.1902161 -0.99937469 -2.9022374
-5.2045212 -1.1254671 -2.8963392
-5.267333 -1.1661586 -2.861237
-5.3149357 -1.1647025 -2.8340554
-5.3293605 -1.1663401 -2.8258557
-5.345015 -1.1665134 -2.8169284
-5.3984766 -1.1601254 -2.7863154
-5.4258847 -1.1604313 -2.7706857
-5.4847655 -1.1770481 -2.7373939
-5.5323472 -1.170593 -2.7101343
-5.6100192 -1.1684486 -2.6657863
-5.7224159 -1.0417222 -2.5993938
-5.7648592 -1.0416838 -2.5751805
-5.8445854 -1.081988 -2.5304224
-5.8787279 -1.0822731 -2.5109503
-5.9521437 -1.1877149 -2.4709609
-6.0668488 -1.2032876 -2.4058044
-6.1370134 -1.2038147 -2.365787
-6.2164822 -1.1816311 -2.3200548
-6.261054 -1.2041752 -2.2950325
-6.3106227 -1.2036402 -2.2667456
-6.36938 -1.1902629 -2.2329862
-6.4181952 -1.1798471 -2.2049518
-6.4494777 -1.1701987 -2.186933
-6.4945717 -1.1666665 -2.1611447
-6.5271392 -1.1655548 -2.1425462
-6.5421743 -1.1652105 -2.1339631
-4.0908108 1.3478236 -3.487298
-4.1221857 1.342557 -3.4694943
-4.1535339 1.3422894 -3.4516158
-4.1710529 1.3434165 -3.4416013
-4.2161646 1.3542519 -3.4156723
-4.2650976 1.3426137 -3.3879662
-4.3092647 1.3405874 -3.3628068
-4.3444343 1.3552182 -3.3424811
-4.3850975 1.3599367 -3.3191991
-4.4491496 1.3635375 -3.2825949
-4.4970345 1.3711283 -3.255142
-4.4790502 1.376631 -3.2653027
-4.4476757 1.3818977 -3.2831063
-4.4275646 1.3823886 -3.2945702
-4.3990259 1.3827119 -3.3108449
-4.3785243 1.3816369 -3.3225598
-4.3250074 1.3887408 -3.352962
-4.2815256 1.3812678 -3.3779011
-4.2708788 1.381279 -3.3839746
-4.1984172 1.3556802 -3.425771
-4.1848164 1.3545196 -3.4335506
-4.1071501 1.3522575 -3.4778974
-4.0607662 1.3622258 -3.5041792
-3.9967535 1.3511262 -3.5408955
-4.0281153 1.3483589 -3.5230546
-6.3344283 -1.6035206 -2.26034
-6.4510193 -1.5451248 -2.1927807
-6.4813237 -1.5252662 -2.1751368
-6.5421844 -1.4716117 -2.1394548
-6.5524077 -1.4438806 -2.1331253
-6.5108814 -1.3243101 -2.1546693
-6.4949422 -1.2566488 -2.1625481
-5.7856736 1.3759081 -2.5199277
-5.7242918 1.3681393 -2.5550835
-5.6929746 1.3684647 -2.5729432
-5.647831 1.3675711 -2.598712
-5.7079906 1.3762612 -2.5642369
-5.7418246 1.3879526 -2.5447261
-5.8017979 1.4102786 -2.5101125
-5.8180885 1.4046559 -2.5009201
-5.8680067 1.3881457 -2.4727397
-5.8476453 1.3882153 -2.484354
-5.8344207 1.3890355 -2.4918835
-5.8208537 1.3880396 -2.4996409
-5.4797592 1.3499188 -2.6949086
-5.4449515 1.3517296 -2.7147329
-5.3929539 1.3491459 -2.7444425
-5.3835592 1.3464603 -2.7498498
-5.3515644 1.3622448 -2.7678187
-5.3214478 1.3666482 -2.7849202
-5.3503423 1.3631659 -2.7684994
-5.366612 1.3625426 -2.7592292
-5.4148145 1.3611319 -2.7317564
-5.4461317 1.3608067 -2.7138968
-5.507534 1.3635762 -2.6788187
-5.5388517 1.3632507 -2.660959
-5.6015177 1.3551011 -2.6253562
-5.5527296 1.3519721 -2.6532445
-5.5214119 1.3522975 -2.6711044
-5.4913273 1.3492024 -2.6883225
-6.2829523 1.4059579 -2.2357068
-6.3142176 1.4181302 -2.2176523
-6.2528462 1.4078617 -2.252847
-6.1137714 1.4029455 -2.332273
-6.0498934 1.4095168 -2.3685956
-6.128788 1.410742 -2.3235664
-6.143846 1.4085402 -2.315016
-6.471385 1.4235408 -2.1278961
-6.4870124 1.4308765 -2.1188495
-1.3424363 -0.26890153 -5.0841689
-1.3788366 -0.30856514 -5.064115
-1.3652272 -0.3284446 -5.0722356
-1.3350506 -0.28904694 -5.0887437
-1.2564983 -0.24713755 -5.132803
-1.3189893 -0.16847692 -5.0957427
-1.3321347 -0.12777324 -5.0875134
-1.3615236 -0.12802413 -5.0707526
-1.3479137 -0.14790362 -5.0788732
-10.990218 -1.1802082 0.40323842
-10.958146 -1.2284647 0.38407648
-3.3498876 1.3457448 -3.9100089
-3.3752787 1.3605249 -3.8952589
-3.2902117 1.4247208 -3.9426351
-3.2653322 1.4251723 -3.95682
-3.2621045 1.4247744 -3.9586682
-3.1573029 1.3465378 -4.0198584
-3.1259418 1.3493049 -4.0376992
-3.0704994 1.3470402 -4.0693679
-2.9923539 1.4254818 -4.1125402
-2.9886737 1.4129097 -4.1148648
-2.8781738 1.347671 -4.1790724
-2.8636365 1.3464918 -4.1873865
-2.8322754 1.3492589 -4.2052274
-2.7859306 1.3517284 -4.2316213
-2.7382045 1.3550608 -4.2587881
-2.676877 1.3572326 -4.2937346
-2.6441727 1.3533642 -4.3124604
-2.5828061 1.3630345 -4.3472948
-2.6470556 1.3291421 -4.3112507
-2.7247481 1.3264048 -4.2669783
-2.7730579 1.3064756 -4.2397771
-2.7770629 1.3063881 -4.237494
-2.8839579 1.3060079 -4.1765203
-2.8959179 1.3007996 -4.1697912
-2.962574 1.305789 -4.1316762
-3.0347271 1.3358839 -4.0899749
-3.066062 1.3381157 -4.0720596
-3.0796499 1.3417761 -4.0642424
-3.1437416 1.3378782 -4.02775
-3.2050691 1.3357065 -3.9928036
-3.2369413 1.3462834 -3.9744315
-3.3048246 1.3461297 -3.935709
-5.0595293 1.3915246 -2.9338903
-5.0394869 1.394573 -2.9452689
-5.0291519 1.3918686 -2.9512134
-4.9680214 1.3906589 -2.9861083
-4.9330654 1.3922713 -3.0060203
-4.9260764 1.3917191 -3.0100174
-4.8966398 1.3920817 -3.0268035
-4.8879232 1.3913777 -3.0317888
-4.8541093 1.3746872 -3.051378
-4.8089867 1.3687947 -3.0772247
-4.7912025 1.3648195 -3.0874414
-4.7614307 1.3622448 -3.1044714
-4.7451611 1.3628683 -3.1137414
-4.7285194 1.3628552 -3.1232357
-4.7449102 1.3572907 -3.1139846
-4.7777319 1.3541229 -3.0953178
-4.8066053 1.3556397 -3.0788193
-4.8241072 1.3515956 -3.0689075
-4.8866596 1.3709412 -3.0328765
-4.9167342 1.3765359 -3.0156193
-4.9468193 1.379631 -2.9984012
-4.9931741 1.382103 -2.9719129
-5.0570202 1.3830302 -2.9354739
-5.1197486 1.3598835 -2.9001045
-5.1498652 1.35548 -2.8830032
-5.1655445 1.3503182 -2.8741512
-5.1909895 1.3500538 -2.8596401
-5.2033453 1.3494711 -2.8526025
-5.2281628 1.3546653 -2.8383515
-5.2432003 1.3574626 -2.8297229
-5.2594595 1.3593388 -2.8204138
-5.2901516 1.3619745 -2.8028579
-5.3051891 1.3647721 -2.794229
-6.8709254 -1.4827182 -1.9521177
-6.8680711 -1.5026817 -1.9541042
-6.899508 -1.5305259 -1.9366701
-6.9947019 -1.5251145 -1.8822677
-7.0261388 -1.5529585 -1.8648337
-7.041163 -1.5501149 -1.8562118
-7.0712228 -1.5469267 -1.8390065
-7.1189175 -1.5679665 -1.8121756
-7.1489663 -1.562279 -1.7949315
-7.1176119 -1.5544307 -1.8126774
-7.0548515 -1.5262368 -1.8479744
-7.0437322 -1.5266249 -1.8543247
-7.0084724 -1.5212326 -1.8743424
-6.9771285 -1.5158839 -1.8921273
-6.9109049 -1.4456737 -1.928646
-6.906661 -1.366446 -1.9296453
-6.899621 -1.4060698 -1.9343725
-6.8906236 -1.4464715 -1.9402301
-7.0636234 1.3825045 -1.7907789
-7.1435194 1.3022034 -1.7466415
-7.1931801 1.1815438 -1.7204766
-7.1737723 1.1417549 -1.732262
-7.1048999 1.0224123 -1.7736931
-7.2001247 0.94146925 -1.7208226
-7.2040529 0.90155107 -1.719298
-7.2079806 0.86163288 -1.7177736
-7.2005467 0.82154888 -1.7227337
-7.2061396 0.74196297 -1.720971
-7.2070827 0.66151702 -1.7218764
-7.1948938 0.62210697 -1.729537
-7.2130709 0.54176581 -1.7206089
-7.2130079 0.50194591 -1.7213595
-7.2163906 0.42184359 -1.7208669
-7.2506957 0.38158125 -1.7020196
-7.2690887 0.34094495 -1.692256
-7.1572833 0.22122562 -1.7581856
-7.1369982 0.22123766 -1.7697573
-7.1373811 0.062206745 -1.7723924
-7.1608062 0.022142649 -1.759748
-7.2116342 -0.018206239 -1.7314764
-7.2517476 -0.098349556 -1.7100307
-7.2528439 -0.13582408 -1.7100778
-7.2667217 -0.17845871 -1.7029259
-7.2885847 -0.25866786 -1.6918931
-7.3004198 -0.28774354 -1.6856632
-7.3045754 -0.33881599 -1.6842088
-7.3007488 -0.36772776 -1.6869105
-7.2832937 -0.40752319 -1.6975824
-7.2894959 -0.48757294 -1.6954805
-7.2878666 -0.56753528 -1.6978445
-7.2803645 -0.64743209 -1.7035578
-7.2844448 -0.68746781 -1.7019486
-7.2911091 -0.72804463 -1.6988748
-7.2932315 -0.76805854 -1.6983821
-7.2862945 -0.83347732 -1.7035133
-7.2811871 -0.84739256 -1.7066766
-7.286521 -0.88846648 -1.7043709
-7.2853284 -0.90242541 -1.7053014
-7.2841005 -0.92791772 -1.7064593
-7.2874751 -0.9673695 -1.7052422
-7.2942181 -1.0080112 -1.7021246
-7.2964258 -1.0871522 -1.7022854
-7.296803 -1.0085521 -1.70066
-7.3746185 -0.88944983 -1.6541314
-7.0229015 1.3826439 -1.814007
-6.9826488 1.3827925 -1.836967
-6.9793572 1.3827274 -1.838846
-6.9520836 1.3821876 -1.8544146
-6.8906703 1.3819175 -1.8894536
-6.8881021 1.3823984 -1.8909101
-6.8443265 1.376946 -1.9159807
-6.7949991 1.3832529 -1.9440072
-6.7804589 1.3810177 -1.952342
-6.7634435 1.3832397 -1.962009
-6.71772 1.4066641 -1.9876723
-6.6423154 1.4451675 -2.0299973
-6.5710282 1.4240949 -2.0710428
-6.5324683 1.4233315 -2.0930536
-6.5009212 1.4120994 -2.1112518
-6.4846826 1.4052238 -2.1206391
-6.4696245 1.4074256 -2.1291895
-6.4394875 1.4168282 -2.1462131
-5.9097424 1.3705282 -2.4492469
-5.9572878 1.3795776 -2.4219613
-5.9722252 1.3856332 -2.4133313
-6.0047712 1.4036241 -2.3944421
-5.9584579 1.3911541 -2.4210861
-5.9120927 1.3911817 -2.4475355
-5.8770061 1.3879104 -2.4676101
-8.8912315 -1.1703057 -0.79399025
-8.8447218 -1.0902157 -0.81908578
-8.8653212 -0.97086793 -0.80519319
-8.9239397 -0.93183559 -0.77105236
-9.0083332 -0.92627448 -0.72280866
-9.0379143 -0.93317002 -0.70605761
-9.118475 -0.96370852 -0.66064811
-9.1272211 -1.1334403 -0.65870404
-9.1187878 -1.1711559 -0.66419172
-9.0969896 -1.2128844 -0.67737567
-8.9467268 -1.2108365 -0.76305956
-9.6954079 -0.93852401 -0.33107388
-9.5668163 -0.85717583 -0.40297186
-9.6231041 -0.75279963 -0.36898828
-9.6230516 -0.71780849 -0.36839068
-9.7299948 -0.61901563 -0.30561018
-9.8022003 -0.73975641 -0.26658571
-9.8013783 -0.81976116 -0.26849043
-3.5248828 -1.1643096 -3.8552175
-3.4785163 -1.1594334 -3.8815808
-3.4347947 -1.1550032 -3.9064431
-3.4008882 -1.1668479 -3.9259982
-3.4483731 -1.135097 -3.8983397
-3.4924273 -1.0750256 -3.8721304
-3.494267 -1.0699853 -3.8709903
-3.5255115 -1.0551947 -3.852901
-3.5398529 -1.1614803 -3.8466268
-3.6188698 -1.1574316 -3.8014774
-3.6489108 -1.1667705 -3.7845078
-3.6966159 -1.1675141 -3.7573066
-3.7899029 -1.1956508 -3.7045941
-3.7917762 -1.1956096 -3.7035246
-3.820312 -1.1958784 -3.6872509
-3.8519058 -1.1576841 -3.6685421
-3.8966808 -1.1291993 -3.6424885
-3.9188156 -1.1147773 -3.6296024
-4.0056038 -1.1144929 -3.5800872
-4.0082426 -1.3028276 -3.5819612
-3.9926543 -1.315222 -3.5910764
-4.0053654 -1.3557262 -3.5845518
-4.0086479 -1.3628175 -3.5828063
-4.0251932 -1.3908496 -3.5738711
-4.0903983 -1.4744129 -3.5381727
-4.1418495 -1.4750741 -3.5088332
-4.1884527 -1.5149446 -3.4829628
-4.2263894 -1.5200064 -3.461412
-4.3190551 -1.5197608 -3.4085448
-4.3817472 -1.5201747 -3.3727884
-4.4083753 -1.5154855 -3.3575137
-4.4444385 -1.5205884 -3.3370323
-4.4743958 -1.5174294 -3.3198862
-4.5070629 -1.5110042 -3.3011353
-4.4595571 -1.4761534 -3.3276105
-4.4139919 -1.4512599 -3.3531573
-4.4017134 -1.4365304 -3.3598974
-4.4262552 -1.2500975 -3.3425517
-4.4432487 -1.2465479 -3.3327942
-4.4752984 -1.2467085 -3.3145134
-4.5387802 -1.2762637 -3.2788296
-4.5569267 -1.276705 -3.2684853
-7.268517 -1.5276456 -1.7261102
-7.3052759 -1.4890418 -1.7044476
-7.3116889 -1.4480991 -1.7000546
-7.3050399 -1.4315534 -1.7035509
-7.298995 -1.4081271 -1.706579
-7.2918615 -1.3683615 -1.7099349
-7.2935762 -1.3279262 -1.7082313
-7.2994413 -1.2881293 -1.7041712
-7.3036628 -1.2485702 -1.7010533
-7.3029332 -1.2230561 -1.7010117
-7.3026757 -1.1605685 -1.7000372
-7.2923789 -1.208966 -1.7067798
-7.2965355 -1.2474664 -1.7050993
-7.296772 -1.2492614 -1.7049965
-7.2969365 -1.2892537 -1.7056203
-7.2883091 -1.3233805 -1.7111543
-7.2883916 -1.3433766 -1.7114662
-7.2891212 -1.3688908 -1.7115077
-7.2960262 -1.4471242 -1.7089722
-7.273963 -1.4911919 -1.7223495
-7.2116036 -1.5604787 -1.7591667
-7.2278714 -1.5561736 -1.749809
-7.2579207 -1.5504861 -1.7325649
-5.0806017 1.3916464 -2.9218669
-5.133543 1.3686011 -2.8920789
-5.2425537 1.365423 -2.8299487
-5.2750826 1.3666759 -2.8113694
-5.303956 1.3681927 -2.7948709
-6.0035496 1.4045453 -2.3951225
-3.7486796 1.3615391 -3.6822271
-3.7336705 1.3662407 -3.6907048
-4.5581775 1.3630326 -3.220407
-4.5597005 1.3629787 -3.2195392
-4.574748 1.3632765 -3.2109494
-4.6060658 1.3629513 -3.19309
-4.6344614 1.3661575 -3.1768332
-4.6672182 1.360028 -3.1582565
-4.6687112 1.3598006 -3.157409
-7.3623548 0.93995351 -1.6283026
-7.3688245 0.97930938 -1.6239057
-7.3719621 1.019722 -1.6213906
-7.5244641 1.0603139 -1.5336645
-7.5261588 0.86042684 -1.5362844
-7.3671994 0.89934427 -1.6262676
-7.3595271 0.71492016 -1.6339535
-7.5186615 0.78052276 -1.541995
-7.5323763 0.74050277 -1.5348893
-7.5293202 0.57045949 -1.5396838
-7.4516687 0.56331402 -1.5841099
-7.3755803 0.61977482 -1.6265028
-4.622304 1.3698263 -3.1837027
-4.5897646 1.371073 -3.2022433
-4.5717521 1.3691924 -3.2125525
-4.5404038 1.3694601 -3.2304311
-8.3246174 0.30928326 -1.090678
-8.2780132 0.45185763 -1.114706
-8.3963671 0.4909659 -1.0464872
-8.4333076 0.50060272 -1.0252407
-8.5201139 0.5704599 -0.97446716
-8.557292 0.55985594 -0.95344841
-8.5474424 0.20966944 -0.96535027
-8.6314726 0.28936708 -0.91598409
-8.6314125 0.32935691 -0.91530067
-8.3650494 -0.92788786 -1.089811
-8.2647152 -0.84687901 -1.1455951
-8.3422203 -0.72753048 -1.0992397
-8.447608 -0.84873194 -1.0412939
-8.4801311 0.21306509 -1.0036886
-8.4393444 0.25081611 -1.0262785
-4.6657829 1.3708892 -3.1588802
-4.6837173 1.3700967 -3.1486635
-7.3867407 -0.80938065 -1.6457796
-7.393538 -0.72969997 -1.6404721
-7.3873358 -0.64965022 -1.642574
-8.7578115 1.380795 -0.82432812
-8.7891035 1.3827837 -0.80644131
-8.7566853 1.3946028 -0.82472301
-8.8041897 1.3881824 -0.79773808
-8.7404976 1.3855164 -0.83412004
0 0 0 1 0 0 0 1 0 0 0 1 0 0 0 0 0 1086 1 0 0
