ply
format ascii 1.0
comment PCL generated
element vertex 670
property float x
property float y
property float z
element camera 1
property float view_px
property float view_py
property float view_pz
property float x_axisx
property float x_axisy
property float x_axisz
property float y_axisx
property float y_axisy
property float y_axisz
property float z_axisx
property float z_axisy
property float z_axisz
property float focal
property float scalex
property float scaley
property float centerx
property float centery
property int viewportx
property int viewporty
property float k1
property float k2
end_header
1.1230378 -1.5327423 1.1904955
1.1319442 -1.514744 1.1909003
1.044642 -1.5108912 1.2266302
0.98898411 -1.5311595 1.244405
0.91777515 -1.5357629 1.2718427
0.98007727 -1.5491579 1.2440002
1.021349 -1.5456699 1.2282782
1.0516481 -1.5397487 1.2174761
-5.6989675 1.3353257 4.5477901
-5.731051 1.3595545 4.5659442
-5.8018818 1.3591337 4.594152
-5.8862967 1.3487532 4.6255941
-5.9327927 1.3510165 4.6446695
-5.9935365 1.3337152 4.6651297
-6.0397015 1.3407805 4.6851306
-6.0595498 1.3417127 4.6932664
-6.0848722 1.3622532 4.7079072
-6.0007887 1.3678312 4.67554
-5.9787922 1.3604832 4.6651335
-5.7696323 1.3373063 4.5764599
-5.8758779 1.3366752 4.6187716
-8.9747143 1.1310754 5.8116322
-8.9649229 1.0976797 5.8003654
-8.9172783 1.0913575 5.7799373
-8.9104195 1.0933901 5.7776446
-8.8268747 1.0836689 5.7421236
-8.8172369 1.1223503 5.7467909
-8.8194771 1.1454928 5.7527819
-8.8188572 1.1752138 5.759079
-8.8195515 1.185729 5.761672
-8.8189507 1.2255092 5.7701917
-8.8082056 1.2701008 5.7757177
-8.7482033 1.3390708 5.7669325
-8.6987715 1.3465979 5.7488394
-8.7363892 1.3461764 5.7637763
-4.0699687 -1.5237844 3.2673259
-4.0057163 -1.524981 3.2413902
-3.9745493 -1.5329038 3.2271929
-3.9663525 -1.5360039 3.2232354
-3.9805431 -1.5531651 3.225126
-8.6442728 1.3272884 5.7228122
-8.6171112 1.3364825 5.7139845
-8.5938263 1.3616025 5.7102127
-8.5079327 1.4172339 5.6881442
-8.4715519 1.4318936 5.676837
-8.3907585 1.4131024 5.6404181
-8.3439131 1.3788903 5.6141672
-8.33601 1.36515 5.6079836
-8.3134184 1.3438954 5.5942769
-8.297369 1.3522599 5.5897064
-8.2768726 1.3609562 5.5834322
-8.2537365 1.367965 5.5757313
-8.1834421 1.361274 5.5461721
-8.172121 1.3611772 5.5416269
-8.1939411 1.3733742 5.5530314
-8.2286777 1.3827217 5.5689688
-8.3136349 1.4737973 5.6229687
-8.316534 1.4740875 5.6241913
-8.3891973 1.468153 5.6519165
-8.4338551 1.4657593 5.6692324
-8.4635048 1.466656 5.6812763
-8.5111446 1.4671509 5.7004204
-8.549511 1.471379 5.7166805
-8.5518513 1.4578872 5.7146444
-8.5579414 1.433548 5.7117176
-8.6546078 1.3417892 5.730135
-8.6659298 1.341886 5.7346797
-8.9573097 -1.5906863 5.2053232
-9.0395842 -1.5935012 5.237576
-8.9794607 -1.5832907 5.2158022
-8.9678097 -1.5785859 5.212183
-8.9298363 -1.56098 5.2008877
-8.943409 -1.5734324 5.2035685
-3.7068882 -1.5307002 3.1207347
-3.6604297 -1.5331424 3.1016345
-3.5787294 -1.5378952 3.0679445
-3.6034453 -1.5453205 3.0761847
-3.6853185 -1.5429688 3.1094148
-3.7316046 -1.5381255 3.1289749
-3.7922537 -1.5528443 3.149966
-3.8315313 -1.5233963 3.1721439
-3.7780631 -1.5356832 3.1480751
1.1691284 1.3631139 1.8097719
1.2184181 1.3800907 1.7938166
1.1476741 1.3800189 1.8220665
-8.8990154 1.3065996 5.8200383
-8.9638996 1.2283633 5.8287344
-8.9668159 1.1818228 5.8196507
-5.8572927 -1.5456718 3.9766285
-5.779737 -1.5299034 3.9491138
-5.7226977 -1.5420643 3.9236457
-5.6406374 -1.5419695 3.8908796
-5.5696511 -1.5393376 3.8630967
-5.5233421 -1.5441599 3.8435321
-5.4409375 -1.5392634 3.8116858
-5.3593936 -1.546371 3.77754
-5.3345447 -1.5365162 3.7697816
-5.2487521 -1.5070875 3.7419837
-5.2724285 -1.4220412 3.7701716
-5.2663226 -1.385921 3.7756858
-5.2298975 -1.3084257 3.7781975
-5.1719279 -1.2431517 3.7694097
-5.1227465 -1.2306443 3.7525134
-5.0721364 -1.1754456 3.7444475
-5.0521102 -1.1429765 3.7435961
-5.0452986 -1.1123735 3.7476134
-5.015213 -1.0549005 3.7482491
-4.9300561 -1.0115905 3.7237618
-4.9297123 -1.0067887 3.7246819
-4.9187045 -0.93381542 3.7363529
-4.9119282 -0.91569281 3.7376363
-4.8577571 -0.83356118 3.7340784
-4.8235607 -0.81340557 3.7248538
-4.8291807 -0.80526477 3.7288918
-4.8536286 -0.77594101 3.7451172
-4.8892074 -0.77845734 3.7587788
-4.9183316 -0.77281761 3.7716572
-4.9954286 -0.77880377 3.8011429
-5.0773163 -0.77649778 3.8343689
-5.1023049 -0.9172138 3.8133662
-5.1535902 -0.95096231 3.8264256
-5.1783328 -1.0129548 3.82266
-5.2000041 -1.0820596 3.8161013
-5.2098513 -1.1240113 3.8107975
-5.2211108 -1.154929 3.8084879
-5.3490067 -1.2621827 3.8359704
-5.3975611 -1.2936023 3.8484514
-5.4116044 -1.3352031 3.8449016
-5.5637321 -1.3922784 3.8931155
-5.5700588 -1.3879485 3.8965969
-5.602078 -1.3635321 3.9147668
-5.6092649 -1.3712063 3.9159484
-5.7243619 -1.430966 3.9487755
-5.7960362 -1.4432011 3.9747186
-5.8448734 -1.4509065 3.9925346
-5.8915272 -1.4508861 4.0111794
-5.9154544 -1.4463663 4.0217347
-5.9513469 -1.4536984 4.034461
-6.0332766 -1.451514 4.067677
-6.1043711 -1.3900275 4.1096225
-6.1214199 -1.3514962 4.1249194
-6.2289834 -1.2192811 4.197011
-6.1600437 -1.1549072 4.1836419
-6.0650287 -1.0816698 4.1618061
-6.1316938 -1.065403 4.1920242
-6.1450796 -1.0530641 4.2000895
-6.1667261 -1.0195973 4.2161083
-6.0946651 -0.84156609 4.2265205
-6.0591145 -0.83903801 4.212873
-5.9773555 -0.84362435 4.1791964
-5.9309759 -0.84833676 4.1596274
-5.8929863 -0.84292901 4.1456399
-5.7977123 -0.78557688 4.1202025
-5.7621617 -0.78304881 4.106555
-5.7266111 -0.7805208 4.0929079
-5.691061 -0.77799273 4.0792603
-5.5867214 -0.83507478 4.0250015
-5.5614443 -0.87502885 4.006104
-5.4755673 -0.9002108 3.9662468
-5.4399881 -0.89769453 3.9525852
-5.393507 -0.90011597 3.9334807
-5.3271809 -0.8741495 3.912698
-5.3197684 -0.85907066 3.9130569
-5.2550392 -0.78667843 3.903136
-5.3617768 -0.79422742 3.9441204
-5.393795 -0.7698108 3.96229
-5.4779277 -0.76522636 3.9969144
-5.5490289 -0.77028245 4.0242095
-5.5954084 -0.76556998 4.0437779
-5.6309586 -0.76809812 4.0574255
-5.6664882 -0.76958179 4.0712943
-5.7125473 -0.76110977 4.0915627
-5.8083706 -0.77593446 4.1265845
-5.8279133 -0.76573509 4.1366386
-5.830369 -0.76625746 4.1375051
-5.863492 -0.7682513 4.1503
-5.9344783 -0.77088308 4.1780829
-5.9700575 -0.77339947 4.1917443
-6.0056362 -0.77591574 4.2054062
-6.0412149 -0.77843213 4.2190671
-6.0546722 -0.77658719 4.2248502
-6.1007099 -0.76707089 4.2453403
-6.1479521 -0.78598094 4.2600517
-6.2189384 -0.78861278 4.2878342
-6.267293 -0.78214771 4.308578
-6.324501 -0.77019483 4.3340673
-6.4533224 -0.77050388 4.3854699
-6.5249367 -0.78276587 4.4113827
-6.5736971 -0.79269505 4.4286785
-6.6075993 -0.79904443 4.4408259
-6.6772842 -0.77602971 4.4737368
-6.7587013 -0.76663959 4.5083346
-6.8049102 -0.75952518 4.5283637
-6.9103661 -0.75029558 4.5725307
-6.9137826 -0.79833472 4.5633173
-6.8626595 -0.7961545 4.5433712
-6.7540126 -0.84136468 4.490006
-6.7134223 -0.89756244 4.4614129
-6.8103471 -1.046388 4.4673667
-6.8393826 -1.0520141 4.4777288
-6.9011149 -1.0986828 4.4921169
-6.9480066 -1.1011763 4.5103035
-7.0020742 -1.2045517 4.5091419
-6.8592973 -1.2215277 4.4483571
-6.9013124 -1.4004931 4.4257345
-7.007988 -1.4471837 4.458075
-7.1217566 -1.4651068 4.4995842
-7.0787344 -1.4273152 4.4907169
-7.0760269 -1.4291253 4.4892368
-5.887506 -1.5518575 3.9873381
-5.910635 -1.5377039 3.999696
-5.9512177 -1.5216873 4.0194378
-6.0159512 -1.5227228 4.045074
-6.0278268 -1.524251 4.0494823
-6.0978398 -1.520417 4.0783
-6.1677256 -1.5121019 4.1080542
-6.2029347 -1.5098259 4.122623
-6.2480583 -1.5091374 4.1408033
-6.3083134 -1.5191076 4.162683
-6.354795 -1.5166862 4.1817875
-6.3769436 -1.5116124 4.1917543
-6.4030256 -1.5125631 4.2019663
-6.4363389 -1.5095786 4.2159338
-6.4474134 -1.5070417 4.2209172
-6.484446 -1.5082029 4.2354579
-6.5185714 -1.5120742 4.24824
-6.5553761 -1.5108571 4.2632132
-6.601243 -1.4989387 4.284164
-6.6122427 -1.4941002 4.2896242
-6.7356429 -1.5506716 4.3264713
-6.7778587 -1.5536736 4.3426771
-6.8018494 -1.5139117 4.3610187
-6.8089523 -1.50413 4.3660107
-6.9159126 -1.4662164 4.4170952
-6.9507799 -1.4591367 4.4325857
-3.2167263 -0.78063834 3.0900612
-3.2647419 -0.79980487 3.1050251
-3.2676582 -0.80956453 3.1040411
-3.2212241 -0.84306395 3.0781116
-3.1880586 -0.87418622 3.058007
-3.1927192 -1.0070484 3.0306118
-3.2010326 -1.0542601 3.0235369
-3.1944613 -1.0881613 3.0134461
-3.1950047 -1.1264215 3.0052381
-3.1894193 -1.2024744 2.986259
-3.1793854 -1.2782159 2.9655709
-3.1472721 -1.3741368 2.9316175
-3.2112923 -1.5083098 2.9276507
-3.153789 -1.5132849 2.9035797
-3.1216936 -1.5352895 2.8859105
-3.0617363 -1.5301745 2.863081
-3.050519 -1.5303065 2.8585701
-3.0044062 -1.5375507 2.8385506
-2.8876374 -1.547015 2.7898116
-2.7910547 -1.5250026 2.7560694
-2.7551215 -1.5177091 2.7433186
-2.7307515 -1.5150857 2.7341592
-2.7705131 -1.4811192 2.7575254
-2.7794099 -1.481742 2.7609432
-2.8585646 -1.5030887 2.7878685
-2.9905615 -1.5251915 2.8357406
-3.0363286 -1.5131453 2.8566794
-3.1180286 -1.5083926 2.8903689
-4.3437963 -1.5486505 3.3712575
-4.3793831 -1.551142 3.3849275
-4.3900819 -1.5438073 3.3908174
-4.4666615 -1.5249171 3.4255743
-4.5249271 -1.5320278 3.4472885
-4.5752254 -1.5244341 3.4690573
-4.617908 -1.5355061 3.4836729
-4.5947647 -1.5379277 3.4738929
-4.5077157 -1.5463479 3.4372582
-4.4853282 -1.5322869 3.4314096
-4.1356211 -1.5300341 3.292181
-4.2508783 -1.5535352 3.3330567
-4.2948637 -1.5452247 3.3524609
-4.258604 -1.5289073 3.3415666
-4.28332 -1.5363326 3.3498068
-4.3189073 -1.5388242 3.363477
-1.4194748 -1.1050098 2.3005428
-1.4989946 -1.1368161 2.3253107
-1.5083704 -1.2175213 2.311285
-1.5285892 -1.3307292 2.2944341
-1.5406146 -1.3434691 2.2964332
-1.5704401 -1.4179189 2.2919555
-1.5706203 -1.4203215 2.2914984
-1.5762086 -1.494802 2.2773299
-1.5431359 -1.5261121 2.2572212
-1.4185317 -1.4959234 2.2140834
-1.3901129 -1.5240602 2.1965327
-1.364073 -1.500065 2.1914124
-1.3273952 -1.4833231 2.1804447
-1.2842782 -1.4677751 2.1666412
-1.2956429 -1.3925084 2.1877563
-1.3862503 -1.3701124 2.2288899
-1.4897051 -1.25814 2.2948828
-0.76666236 -1.5134954 1.9497606
-0.83821535 -1.5229533 1.9762667
-0.88354802 -1.5060134 1.9981097
-0.9493103 -1.4617811 2.0341253
-0.86303043 -1.4640911 1.9991435
-0.8421061 -1.4507694 1.9937167
-0.78703666 -1.4869759 1.9637409
-0.75198126 -1.4918573 1.9486597
-0.70556664 -1.4943818 1.9295589
-0.64320946 -1.4584498 1.9125566
-0.60575581 -1.4328701 1.9032249
-0.59373069 -1.4201301 1.9012258
-0.55663729 -1.3993555 1.89098
-0.5037086 -1.3601274 1.8784707
-0.44503403 -1.4757404 1.8295684
-0.39843941 -1.4758624 1.8109248
-0.28849435 -1.3738825 1.7894533
-0.28312993 -1.3288205 1.7972329
-0.28956676 -1.2670799 1.8134005
-0.29738426 -1.2532461 1.8195703
-0.29461646 -1.1853461 1.8334166
-0.47401524 -1.1788449 1.9065267
-0.49325562 -1.199229 1.9097254
-0.49055171 -1.1631899 1.9165812
-0.44305801 -1.0022922 1.9330361
-0.42622256 -0.98445624 1.9302373
-0.36948919 -0.90076488 1.925999
-0.4042964 -0.78374684 1.9656746
-0.48262477 -0.75946248 2.0023181
-0.56337357 -0.74244618 2.0383282
-0.61455202 -0.77842361 2.0508542
-0.63951039 -0.78800321 2.0587168
-0.70797658 -0.77981007 2.0878763
-0.77857351 -0.77802742 2.1164758
-0.87035322 -0.82420379 2.142978
-0.92077827 -0.78492999 2.1717734
-0.89654088 -0.78496075 2.1620827
-0.86094475 -0.78263444 2.1483727
-1.6167839 -0.99234033 2.4041882
-1.6960907 -0.95610327 2.4438548
-1.7223907 -0.80952883 2.4866397
-1.8883176 -0.85952681 2.5419257
-1.9561412 -0.82859379 2.5758362
-2.0385334 -0.79917151 2.6152349
-2.0686893 -0.79123783 2.6290307
-2.0955858 -0.78939366 2.6401832
-2.1830816 -0.83730787 2.6645908
-2.229316 -0.83238083 2.6841488
-2.321604 -0.82012427 2.7237213
-2.3661633 -0.85489297 2.7338684
-2.3854034 -0.87527692 2.7370672
-2.4318318 -0.82341617 2.7670379
-2.4721031 -0.78853977 2.7908082
-2.5181572 -0.78121012 2.810823
-2.5833106 -0.78718388 2.8355396
-2.5289755 -0.77635938 2.8162136
-2.5038366 -0.76437718 2.8088081
-2.4623582 -0.76254815 2.7926381
-2.3759522 -0.77430749 2.7555254
-2.3157582 -0.76720679 2.7330384
-2.2831235 -0.77935636 2.7173238
-2.2014732 -0.78435963 2.683599
-2.141099 -0.77485633 2.6615691
-0.10900974 1.3793688 2.3240294
-0.036109924 1.3752866 2.2940035
-0.025304317 1.3704138 2.2886131
0.0410707 1.3600786 2.2598171
-0.01467514 1.3631394 2.2827644
-0.041016817 1.3600519 2.2926092
-0.050455332 1.3583498 2.2960057
-0.085881233 1.3583643 2.310163
-0.1429193 1.368124 2.3351018
-0.18897462 1.3754132 2.3551083
-0.19942641 1.3850899 2.3614151
-0.16435432 1.380271 2.3463411
-0.11794519 1.3777862 2.3272512
0.12590933 1.3794935 2.2301953
0.19390249 1.3601766 2.1987751
0.24319267 1.3771539 2.1828198
0.17227268 1.3746798 2.2106109
0.31464195 1.3868341 2.156404
0.34691048 1.3626769 2.1381917
0.27891731 1.381994 2.1696119
-6.1988678 1.3885345 4.7592411
-6.15204 1.3910737 4.7410908
-6.1776991 1.3691804 4.7465215
-6.2631083 1.344393 4.775188
-6.2956886 1.3614182 4.7919545
-6.3420191 1.3660824 4.8114929
-6.3878531 1.3779502 4.8324194
-6.4928308 1.3663647 4.8718119
-6.4490929 1.3534455 4.8514915
0.810781 -1.5450709 1.3125422
0.78029728 -1.5533957 1.3228886
0.73939133 -1.5520773 1.3395231
0.70396805 -1.5519761 1.3536985
0.7589016 -1.5413191 1.3340967
0.78408003 -1.529375 1.3266671
0.88217115 -1.5380647 1.2855613
-4.6467462 -1.534219 3.4954786
-4.6357017 -1.5367519 3.4905078
-4.6819873 -1.5319086 3.5100679
-4.7780509 -1.5467179 3.5451889
-4.8156667 -1.5255684 3.5648754
-4.8265691 -1.5206306 3.5703187
-4.8808022 -1.5224936 3.5915773
-4.9270878 -1.5176504 3.6111374
-5.0041199 -1.5284104 3.6395457
-5.0504293 -1.5235882 3.6591105
-5.0856638 -1.5213028 3.6736917
-5.1454034 -1.5240705 3.6969512
-5.1242871 -1.5435495 3.6842248
-5.0890522 -1.545835 3.6696434
-5.0536451 -1.5457194 3.6555219
-4.9719291 -1.5504262 3.6218359
-4.8846402 -1.5517917 3.5866592
-4.8739419 -1.5591264 3.5807695
-4.8383546 -1.5566349 3.5670993
-4.7838197 -1.5523858 3.5462456
-1.227545 -0.79864419 2.2913218
-1.1085992 -0.80366349 2.242692
-1.1055346 -0.76281929 2.2504616
-1.1396887 -0.74592489 2.2678282
-1.2369213 -0.77457267 2.3003688
-1.2866967 -0.78583676 2.3177762
-1.309015 -0.79123831 2.3255038
-1.2760589 -0.79309011 2.3119285
-0.21386766 -1.2023625 1.7974063
-0.22174239 -1.2483025 1.7904363
-0.25888205 -1.3674762 1.7790323
-0.18854427 -1.4859908 1.7248311
-0.15311146 -1.497865 1.7080592
-0.10537457 -1.495739 1.6894542
-0.024721384 -1.5006335 1.6561515
0.010339737 -1.5055403 1.6410624
0.071665287 -1.4840858 1.6212844
0.1478405 -1.4058912 1.6080678
0.17849207 -1.3343276 1.6115799
0.10598898 -1.1765519 1.6752918
0.048988819 -1.1667773 1.7002187
-0.0019598007 -1.1071491 1.7337056
0.00031161308 -1.102049 1.7339213
0.045442343 -1.0658264 1.7238659
0.081952095 -1.0515105 1.712431
0.17238379 -1.0878175 1.668304
0.25401878 -1.0928566 1.6345772
0.28944254 -1.0929577 1.6204014
0.33383894 -1.0947347 1.6022716
0.39392138 -1.0908505 1.579121
0.41780615 -1.081381 1.5716633
0.42559433 -1.0808775 1.5686623
0.47897673 -1.0766745 1.548259
0.49012709 -1.0767056 1.5437971
0.51189613 -1.1053838 1.5287842
0.52268219 -1.1431924 1.5161487
0.4841814 -1.1839398 1.5225587
0.46956205 -1.2016228 1.524506
0.3821826 -1.2749758 1.5432653
0.32942486 -1.3286005 1.552536
0.29923439 -1.4637046 1.5348475
0.34349537 -1.5010829 1.5089321
0.4681468 -1.5164585 1.455742
0.46418381 -1.542882 1.4515067
0.33669853 -1.5280993 1.5056984
0.30181885 -1.5207896 1.5212443
0.25542593 -1.5182545 1.5403388
0.21982145 -1.5205562 1.5540576
0.16012573 -1.520385 1.5779467
0.077766418 -1.5249574 1.6098464
0.044314623 -1.5248642 1.6232324
0.0065574646 -1.5295608 1.637284
-0.029227734 -1.5342655 1.650546
-0.073461056 -1.517499 1.6719115
-0.12165141 -1.5243896 1.6896484
-0.14646745 -1.5315282 1.6979916
-0.18024969 -1.5244778 1.7130418
-0.21530509 -1.5195963 1.7281231
-0.29785657 -1.5266061 1.7595628
-0.35490918 -1.5168283 1.7845113
-0.41402149 -1.5095136 1.8097403
-0.47282171 -1.5245342 1.8299261
-0.51802921 -1.5044191 1.8524182
-0.62499833 -1.5138006 1.8930917
-0.71818757 -1.513557 1.9303789
-0.21152425 -1.1711286 1.8033481
-0.20798063 -1.094391 1.8188304
-0.24568081 -1.0052276 1.853528
-0.24928832 -0.90427291 1.8772005
-0.15393353 -0.81513876 1.8587296
-0.17743421 -0.80077749 1.8712819
-0.22721648 -0.78412831 1.8948386
-0.24957371 -0.78403723 1.9037914
-0.25145364 -0.78409755 1.9045292
-0.31878352 -0.76226133 1.9362392
-0.3651979 -0.75973684 1.95534
-0.4470284 -0.75713617 1.988608
-1.9739245 -1.503407 2.4343419
-2.0810738 -1.5151912 2.4745581
-2.1056716 -1.5199656 2.483335
-2.0376756 -1.5314189 2.453645
-2.0242016 -1.5273715 2.4491529
-2.0128427 -1.5250144 2.4451334
-1.9519274 -1.5083034 2.4244747
-1.9276905 -1.508334 2.4147842
-1.8924546 -1.510813 2.4001598
-1.8563175 -1.5012789 2.3878207
-1.8126092 -1.3908356 2.3946776
-1.8120685 -1.3836278 2.396049
-1.8729858 -1.3561089 2.4264483
-2.162724 -1.5101879 2.5082831
-2.1820807 -1.5011135 2.5180154
-2.233736 -1.5124378 2.5361605
-2.3269253 -1.5121942 2.5734477
-2.3623414 -1.5121179 2.587615
-2.4117174 -1.5240693 2.6047113
-2.4206164 -1.5246509 2.6081388
-2.4712873 -1.5097818 2.6316586
-2.5045462 -1.5190206 2.6429129
-2.5614185 -1.5068402 2.6683183
-2.588402 -1.5051197 2.6794782
-2.6243353 -1.5124131 2.6922293
-2.6739402 -1.5296648 2.7082498
-2.6516786 -1.5323296 2.6987684
-2.5811956 -1.5369503 2.6695895
-2.5188668 -1.5358534 2.6449277
-2.5088656 -1.5376217 2.6405425
-2.454474 -1.5348122 2.6194289
-2.4176221 -1.544055 2.6026697
-2.3662043 -1.5386066 2.5833254
-2.3197899 -1.5411311 2.5642247
-2.2735558 -1.5460582 2.5446668
-2.2126405 -1.5293469 2.5240083
-2.1772246 -1.5294232 2.509841
0.86265659 -1.5488234 1.2909892
-1.4894335 -0.61179501 2.4371047
-1.4480686 -0.53258556 2.43802
-1.4274573 -0.50341868 2.4362075
-1.3727441 -0.42333689 2.4319816
-1.3246622 -0.36353508 2.4259396
-1.3222048 -0.3618727 2.4253237
-1.3135364 -0.36278903 2.4216585
-1.287086 -0.36824566 2.4098887
-1.2416921 -0.36605474 2.3922341
-1.160023 -0.28399438 2.3776736
-1.1358678 -0.27488649 2.3700283
-1.1442344 -0.29591507 2.3687403
-1.154557 -0.32294583 2.3669124
-1.2098818 -0.41418302 2.368926
-1.2100618 -0.41658562 2.3684688
-1.2182224 -0.42659077 2.3695261
-1.23981 -0.51500106 2.3586829
-1.2869456 -0.52208704 2.3759553
-1.330713 -0.54329783 2.3887718
-1.3844857 -0.6168592 2.3940578
-1.385385 -0.77787876 2.3589592
0.79305744 1.4266973 1.974032
0.75245333 1.4326894 1.9915748
0.68767023 1.4234662 2.0154276
0.65424347 1.4146791 2.0268483
0.58738947 1.3863401 2.0473194
0.60744333 1.3845024 2.0389023
0.69076395 1.4013443 2.0093203
0.73747873 1.401335 1.9906534
0.78419447 1.4013259 1.9719863
0.82027054 1.4109704 1.9596958
0.89936447 1.3701596 1.9191072
0.96993256 1.3678291 1.8903985
1.0410295 1.3727055 1.8630658
0.95911837 1.3750808 1.8963163
0.88108015 1.4303045 1.939657
0.83489323 1.4375203 1.9596999
-6.7207212 -1.2517259 4.3863397
-6.6730928 -1.3550391 4.3445592
-6.6558294 -1.3920484 4.3295116
-6.6314974 -1.4270062 4.3120918
-6.6169081 -1.4435385 4.3026223
-6.457674 -1.4696109 4.2332592
-6.4285574 -1.4683814 4.2218966
-6.3664064 -1.4302309 4.2054653
-6.3609858 -1.4237907 4.2047176
-6.3721619 -1.2349498 4.2507672
-6.4173393 -1.1406611 4.2895813
-6.5270157 -1.1121327 4.3396845
-6.6218247 -1.1315312 4.3732934
-6.7068782 -1.2125046 4.3894453
-6.87356 1.3345399 5.0169234
-6.9344692 1.3148372 5.036921
-6.9697189 1.317028 5.0514874
-7.0267992 1.328968 5.0769229
-7.1092076 1.3238173 5.1087151
-7.1447878 1.3212059 5.1223559
-7.2004819 1.3115754 5.1424875
-7.2804527 1.3423703 5.181221
-7.3266754 1.3494136 5.2012405
-7.3830681 1.3733587 5.2290449
-7.3714161 1.3780634 5.2254257
-7.3371744 1.3615139 5.2080998
-7.2906227 1.359272 5.1890068
-7.2547359 1.3667297 5.1763105
-7.246212 1.3666244 5.1728811
-7.1997156 1.3643613 5.1538053
-7.1485538 1.3674963 5.1340542
-7.058424 1.3571107 5.0957556
-7.0473046 1.3579271 5.0914931
-7.0384092 1.3585799 5.0880823
-6.9768152 1.363605 5.064579
-6.8955755 1.3620069 5.0317678
-6.8935595 1.3606424 5.0306625
-6.8268986 1.3346779 4.9983101
-6.744987 1.3326252 4.9651308
-6.8166451 1.3201985 4.991025
-3.1916647 -0.76841104 3.0827403
-3.1453786 -0.77325433 3.0631804
-3.1345074 -0.77818811 3.0577502
-3.0387895 -0.76818073 3.0217099
-2.9677877 -0.76559865 2.9939101
-2.9248209 -0.79253691 2.9708107
-2.9533427 -0.85278392 2.9689395
-2.9658399 -0.92735124 2.9575124
-2.9293454 -1.0111585 2.9244761
-2.8519375 -1.0994595 2.8741033
-2.8547053 -1.1378753 2.8667498
-2.7827249 -1.2535595 2.8125153
-2.7899163 -1.2612295 2.8136997
-2.9214325 -1.246691 2.8694482
-2.9234385 -1.2453157 2.8705525
-3.0190003 -1.2067108 2.9172354
-3.1390851 -1.3092012 2.9426458
-3.1427178 -1.359622 2.9329941
-3.5431418 -1.5354037 3.0542743
-3.5073817 -1.5305111 3.0410638
-3.468451 -1.5303117 3.025553
-3.42731 -1.5249052 3.0103056
-3.4006195 -1.5230367 3.0000529
-3.3078749 -1.5303222 2.9613929
-3.3683512 -1.5426401 2.9828434
-3.3934131 -1.5548673 2.9901643
-3.4042845 -1.5499336 2.9955945
-3.5107005 -1.5526061 3.0375242
-1.3667886 -0.79107094 2.348624
-1.412662 -0.78133869 2.3690958
-1.5012462 -0.81575519 2.3969107
-1.5104353 -0.81719434 2.4002652
-1.5412922 -0.81837225 2.4123347
-8.772934 1.3291156 5.774621
-8.8668585 1.3215959 5.8104925
-6.22403 1.3738449 4.7660599
-6.3168569 1.3807721 4.8046741
-1.521333 -0.63937128 2.4437776
-1.5570323 -0.66806591 2.4517224
-1.5711725 -0.68249631 2.4541943
-1.6094728 -0.72086155 2.4610488
-1.7671075 -0.66034007 2.5373588
-1.8028841 -0.66506898 2.550612
-1.9240849 -0.7430377 2.5818682
-1.9623967 -0.75361437 2.5948467
-2.0157294 -0.78578961 2.6090703
-2.0557752 -0.78840679 2.6244941
-0.70738101 -0.77337474 2.0890555
-7.3461385 -1.0837778 4.6732078
-7.35498 -1.1522568 4.6616607
-7.4005861 -1.1967708 4.6700802
-7.4062214 -1.1861919 4.6746612
-7.5033884 -1.1068858 4.730948
-7.4294 -1.1009973 4.7026825
-7.3936768 -1.0959402 4.6895232
-7.6219683 -1.164597 4.7656178
-7.5985546 -1.1738478 4.7542257
-7.5583897 -1.1039714 4.7535658
-7.5932903 -1.0970246 4.7690396
-7.639677 -1.092382 4.7885957
-7.6686325 -1.1020008 4.7980466
-7.7370415 -1.1091379 4.8238077
-7.7054691 -1.143981 4.8035202
0 0 0 1 0 0 0 1 0 0 0 1 0 0 0 0 0 670 1 0 0
