ply
format ascii 1.0
comment PCL generated
element vertex 379
property float x
property float y
property float z
element camera 1
property float view_px
property float view_py
property float view_pz
property float x_axisx
property float x_axisy
property float x_axisz
property float y_axisx
property float y_axisy
property float y_axisz
property float z_axisx
property float z_axisy
property float z_axisz
property float focal
property float scalex
property float scaley
property float centerx
property float centery
property int viewportx
property int viewporty
property float k1
property float k2
end_header
-10.692991 1.1222 2.2983646
-10.688112 1.1446644 2.3089988
-10.66765 1.1843585 2.3531621
-10.649894 1.1842315 2.3912144
-10.633422 1.1841829 2.4265118
-10.62819 1.1840763 2.4377227
-10.614212 1.1816344 2.4676585
-10.601853 1.183957 2.4941602
-10.598433 1.1840215 2.5014901
-10.566841 1.1737957 2.5691104
-10.560767 1.1764106 2.5821481
-10.585594 1.1438518 2.5286844
-10.60347 1.0639229 2.4897437
-10.620966 0.98400116 2.4516177
-10.585218 0.82384908 2.5269508
-10.568295 0.82375777 2.5632186
-10.54915 0.78368127 2.6039286
-10.514293 0.74354184 2.6783066
-10.496228 0.74347186 2.7170174
-10.531219 0.5836283 2.6407652
-10.499988 0.50349641 2.7070575
-10.477597 0.50340533 2.755039
-10.441849 0.50325835 2.8316462
-10.38851 0.54303372 2.9462647
-10.370351 0.50296426 2.9848604
-10.334414 0.42281839 3.0612383
-10.316634 0.3827419 3.0990195
-10.343163 0.30285498 3.041538
-10.298478 0.18266755 3.1363418
-10.280033 0.18260476 3.1758671
-10.244379 0.2224572 3.2525892
-10.190187 0.22224739 3.3687215
-10.117549 0.22197488 3.5243788
-10.101835 0.38191685 3.5593214
-10.081324 0.34184054 3.6029599
-10.025551 0.38168749 3.7227943
-10.026463 0.54164958 3.7221098
-9.9905224 0.6215086 3.7997615
-9.9699144 0.70143771 3.8445587
-9.9351892 0.62132025 3.9183369
-9.862361 0.70105374 4.0750389
-9.826232 0.70091391 4.1524611
-9.7868586 0.74075949 4.2371535
-9.7545443 0.78062594 4.3067188
-9.7375603 0.8205626 4.343431
-9.6724072 0.81899726 4.4830399
-9.6516781 0.81972933 4.5274677
-9.6213055 0.97874546 4.5938168
-9.6148701 1.1671336 4.6091008
-9.6253281 1.161647 4.5866461
-9.6402826 1.1600007 4.5545864
-9.6626682 1.1632273 4.5066414
-9.6687603 1.1681126 4.4936247
-9.684063 1.1790831 4.4609184
-9.6902075 1.1791586 4.447752
-9.715518 1.1630524 4.3933835
-9.7252102 1.15828 4.3725753
-9.7440338 1.1583351 4.3322377
-9.7689571 1.1657765 4.2788873
-9.7913809 1.1561739 4.2307572
-9.7695103 1.1536757 4.2776051
-9.7598181 1.158448 4.2984138
-9.737936 1.1509498 4.3452468
-9.7348909 1.1485078 4.3517528
-9.7163992 1.1570449 4.3914471
-9.7094202 1.1556672 4.4063926
-9.696681 1.1579963 4.4337111
-9.6937103 1.160205 4.440094
-9.6718321 1.162729 4.4869986
-9.6657028 1.1606706 4.5001168
-9.64639 1.1573622 4.5414791
-10.788016 0.21743324 2.0875514
-10.795832 0.18499011 2.0705464
-10.757971 0.094880641 2.1509657
-10.710445 -0.015664071 2.2519338
-10.709592 -0.055649146 2.2534475
-10.71429 -0.15824091 2.2425659
-10.714107 -0.23573983 2.2423434
-10.709785 -0.29566017 2.2511294
-10.71387 -0.33574009 2.2420566
-10.709596 -0.37565902 2.2509
-10.709501 -0.41565847 2.2507849
-10.707513 -0.45312381 2.2547495
-10.704661 -0.47580171 2.2606804
-10.704567 -0.51580113 2.2605653
-10.707306 -0.54062259 2.254498
-10.709551 -0.55566531 2.2495687
-10.709076 -0.59565765 2.250268
-10.709268 -0.67566371 2.2492239
-10.704094 -0.71579838 2.2599914
-10.706757 -0.77311933 2.2538304
-10.706551 -0.860618 2.2535794
-10.708796 -0.8756609 2.2486491
-10.700501 -0.91565967 2.2661054
-10.69942 -0.95566618 2.2681046
-10.703433 -0.99579442 2.259187
-10.706007 -1.0906148 2.2529187
-10.707754 -1.1556498 2.2486598
-10.7057 -1.2206131 2.2525449
-10.684465 -1.2756249 2.2976131
-10.683494 -1.3656093 2.2989836
-10.686843 -1.3956734 2.2915676
-10.683352 -1.4256085 2.2988112
-10.645679 -1.4357195 2.3794615
-10.60955 -1.4358594 2.4568834
-10.571427 -1.4759629 2.5382624
-10.536058 -1.476117 2.6140552
-10.516801 -1.4986651 2.6551442
-10.450596 -1.4764813 2.7971952
-10.392684 -1.4766979 2.9212985
-10.338871 -1.4769149 3.0366166
-10.318876 -1.4894488 3.0793636
-10.303086 -1.4920616 3.1131806
-10.266465 -1.474666 3.1917963
-10.19635 -1.4375107 3.342346
-10.168378 -1.5175502 3.4016552
-10.136933 -1.5576255 3.4687209
-10.086175 -1.5178219 3.5778117
-10.067905 -1.4779637 3.6172786
-10.014947 -1.4381955 3.7310829
-9.9922514 -1.4681791 3.7794802
-9.9580936 -1.4383551 3.852916
-9.9388714 -1.4459035 3.8940487
-9.9031401 -1.4385506 3.9706774
-9.8843155 -1.4386061 4.0110168
-9.8370495 -1.3988171 4.1126223
-9.7759295 -1.4390259 4.2432823
-9.722105 -1.4442424 4.3585863
-9.7166376 -1.4580467 4.3701925
-9.7083836 -1.479762 4.3877082
-9.6970015 -1.4805954 4.4120922
-9.6628637 -1.4408042 4.4855642
-9.6251249 -1.4809356 4.5661201
-9.584156 -1.5189801 4.6536126
-9.5610466 -1.4981688 4.7033
-9.5243216 -1.5207515 4.7818222
-9.5075274 -1.5358727 4.8176918
-9.4918289 -1.5059875 4.8515701
-9.4612122 -1.4821376 4.9173708
-9.4238529 -1.5222774 4.9971108
-9.4078827 -1.5219218 5.0313377
-9.3800859 -1.5372736 5.0907836
-9.3582249 -1.5347719 5.1376514
-9.3582697 -1.5147723 5.1377139
-9.374259 -1.4221401 5.1041837
-9.3349314 -1.3222315 5.1892533
-9.2807388 -1.3224804 5.3053856
-9.2279768 -1.3627625 5.4181323
-9.1941118 -1.4029194 5.4903851
-9.173605 -1.4430099 5.5340128
-9.1542606 -1.5055665 5.5749717
-9.1027794 -1.4833748 5.6854706
-9.0642796 -1.5234892 5.7676554
-9.0067472 -1.5237546 5.890944
-8.991642 -1.5238125 5.9233131
-8.977149 -1.5265054 5.9543505
-8.9566545 -1.5240039 5.9982896
-8.944437 -1.5240957 6.0244703
-8.9404907 -1.5241292 6.0329261
-8.9247417 -1.509263 6.0667944
-8.893198 -1.4995307 6.1344681
-8.8871088 -1.5018953 6.1474991
-8.8652201 -1.5118933 6.1943274
-8.8335257 -1.484657 6.2624636
-8.8100548 -1.4046776 6.313395
-8.8143444 -1.3248312 6.3048353
-8.8064661 -1.2447138 6.3223529
-8.8066454 -1.1647153 6.3226042
-8.805748 -1.1247243 6.3248439
-8.8068247 -1.0847167 6.3228559
-8.8051195 -0.96473539 6.3274603
-8.8093204 -0.92488825 6.3187752
-8.8025179 -0.8047632 6.3343043
-8.8096781 -0.76489103 6.3192778
-8.8098564 -0.68489242 6.3195291
-8.8059244 -0.60474157 6.3285913
-8.7991228 -0.48461655 6.344121
-8.8023367 -0.44477779 6.3375492
-8.799346 -0.38461727 6.3444352
-8.7993908 -0.3646186 6.3444977
-8.8056984 -0.26475477 6.3317738
-8.7977304 -0.22463672 6.3491654
-8.8039932 -0.14477357 6.3363786
-8.8088493 -0.10454683 6.3262906
-8.8071318 -0.064749852 6.3302884
-8.8055029 0.015046418 6.3344121
-8.789854 0.074911654 6.3684216
-8.7857876 0.095063508 6.3772955
-8.7996702 0.12767997 6.3478036
-8.8047981 0.21522024 6.3375096
-8.7978172 0.25534675 6.352788
-8.7960987 0.29514369 6.3567853
-8.7880116 0.35544702 6.3745956
-8.7863379 0.41524366 6.3786564
-8.7784595 0.495361 6.3961744
-8.7740507 0.65513086 6.4068899
-8.7710152 0.69529068 6.413713
-8.7712841 0.81528866 6.4140897
-8.7717361 0.81533921 6.4131222
-8.7775326 0.81496763 6.4006958
-8.806139 0.81520998 6.339395
-8.817811 0.81549585 6.3143845
-8.8603354 0.89579487 6.2238941
-8.8611851 0.93577731 6.2223902
-8.8649511 1.015514 6.2149515
-8.8671036 1.0955294 6.2109752
-8.8611088 1.1356642 6.2241402
-8.8633366 1.1754947 6.2196822
-8.864502 1.2555016 6.2178192
-8.8593397 1.3008302 6.2292414
-8.8812456 1.3183283 6.1824365
-8.9091797 1.3106912 6.1225142
-8.924984 1.3208247 6.0887246
-8.9346886 1.323594 6.0679502
-8.9504948 1.3337275 6.0341601
-8.9633989 1.2961512 6.0062075
-9.0070868 1.216419 5.9119549
-9.0246811 1.1765112 5.8739333
-9.0403624 1.0966294 5.8396955
-9.0371618 0.97622681 5.8455977
-9.0420046 0.93626928 5.8349028
-9.0577097 0.8962518 5.8009315
-9.0549583 0.85631192 5.80651
-9.0586548 0.80872798 5.7982121
-9.0743198 0.75636256 5.764225
-9.0880852 0.73648 5.7345695
-9.1445198 0.85674345 5.6145864
-9.16576 0.91675758 5.5695448
-9.1677055 0.93671489 5.5655332
-9.2005014 0.97695649 5.4955716
-9.2413273 1.0370196 5.4085598
-9.2431173 1.1775908 5.405839
-9.2776794 1.1371837 5.3314524
-9.2927027 1.1373343 5.2992611
-9.3038616 1.1373588 5.2753472
-9.3130484 1.1373665 5.255661
-9.3649597 1.1376662 5.1444187
-9.3850794 1.1376731 5.1013021
-9.4133558 1.1382866 5.0407124
-9.4263449 1.1382098 5.012877
-9.4335794 1.1378969 4.9973693
-9.4747295 1.161119 4.9093709
-9.4808187 1.1634835 4.8963399
-9.5184689 1.1636155 4.8156586
-9.5464306 1.1684783 4.7557759
-9.5780134 1.1762456 4.6881576
-9.5930109 1.1771575 4.6560254
-9.5998688 1.1712439 4.6412816
-9.5658121 1.1615168 4.7141876
-9.532196 0.97836435 4.7847724
-9.5608873 0.93943286 4.7229795
-9.5651217 0.93853962 4.7138977
-10.709556 0.41186586 2.2572339
-10.702774 0.46431568 2.2721825
-10.703855 0.50432229 2.2701836
-10.699988 0.5445503 2.2787888
-10.694238 0.60925019 2.291625
-10.697997 0.66709161 2.2840271
-10.698103 0.71209097 2.2841563
-10.696469 0.82462525 2.2885516
-10.688693 0.90451777 2.3058496
-10.694092 0.94467378 2.2945971
-10.692714 1.0047016 2.298027
-10.692821 1.049701 2.298156
-10.692897 1.0822005 2.2982495
-10.778242 0.22491291 2.108556
-10.76997 0.22486314 2.1262841
-10.704361 0.30446056 2.2675121
-10.704455 0.34446004 2.2676272
-9.0698376 -1.1636012 5.7586002
-9.1205301 -1.2832783 5.6490178
-9.0538311 -1.348736 5.7914329
-8.8906136 -0.96475899 6.144249
-8.8817654 -1.0847479 6.1622591
-8.9000282 -1.165922 6.122478
-8.9455013 -1.3242341 6.0237751
-8.9845629 -1.2028795 5.9410305
-9.0214262 -1.0439749 5.8632927
-9.0268936 -1.0439754 5.8515778
-9.1056643 -1.0434247 5.6827779
-9.0905304 -0.92356896 5.7161613
-9.0911789 -0.80357945 5.7157235
-9.0739641 -0.7636801 5.7529302
-9.0455427 -0.64383173 5.814786
-9.0396414 -0.63638198 5.8274927
-9.0002699 -0.52403271 5.9127545
-8.9713345 -0.52427793 5.9747601
-8.9702969 -0.524275 5.976984
-8.9847107 -0.42416716 5.9468908
-8.9861021 -0.3441349 5.9445438
-8.9878941 -0.32414481 5.9408627
-8.988925 -0.30413577 5.9388123
-8.9704504 -0.18429667 5.979352
-8.9665947 -0.1443308 5.9879332
-8.9719009 0.023208112 5.97789
-8.9503307 0.1557076 6.025166
-8.8981724 0.21541539 6.1374121
-8.8747854 0.045445442 6.1861825
-8.8562737 0.015371442 6.2256136
-8.8290873 -0.024752259 6.2835541
-8.8209839 -0.11981751 6.3001661
-8.8257704 -0.18477461 6.2893929
-8.8279734 -0.22497657 6.2843533
-8.8285112 -0.32499281 6.2824087
-8.8276157 -0.38497385 6.2838502
-8.8263855 -0.42494777 6.2861695
-8.8253546 -0.44495678 6.2882199
-8.8260727 -0.56494635 6.2857294
-8.8526039 -0.68490422 6.2279229
-8.9167356 -0.60538399 6.0911226
-8.8652658 -0.72485387 6.2004709
-8.8474922 -0.76494455 6.2382412
-8.8476048 -0.884951 6.2370491
-10.316309 1.182952 3.1060653
-10.307883 1.1829313 3.124121
-10.298552 1.182825 3.1441174
-10.276315 1.1827055 3.1917696
-10.240946 1.1825514 3.2675626
-10.239996 1.1825691 3.2695985
-10.218292 1.1700675 3.3160105
-10.25594 1.1701788 3.2353311
-10.281429 1.1705194 3.1807129
-10.293608 1.1777899 3.1546731
-10.319078 1.1706305 3.1000338
-10.340948 1.1731287 3.0531859
-10.373688 1.1832044 2.9831052
-10.384689 1.1781251 2.9594901
-10.404068 1.1660805 2.9178669
-10.422309 1.1657364 2.8787751
-10.438123 1.1783494 2.8449864
-10.41016 1.1709658 2.9048505
-8.8255997 0.69537926 6.2967415
-8.8625584 0.61525106 6.2169051
-8.8261395 0.49539104 6.2939992
-8.7900324 0.49492136 6.3713708
-10.023962 1.1671265 3.73243
-9.9984674 1.1642859 3.7870412
-9.9826775 1.1616731 3.8208582
-10.00453 1.1566713 3.7739887
-10.618706 0.023885936 2.448843
-10.661158 -0.030966818 2.3574355
-10.670994 -0.13574491 2.3355258
-10.623096 -0.20607555 2.4376123
-10.607317 -0.20368852 2.4714437
-10.584953 -0.17367646 2.5196068
-10.569893 -0.10880102 2.5523958
-10.60276 0.023930073 2.4830141
-9.5099745 0.37838486 4.8276339
-9.4865799 0.33832827 4.8774495
-9.5054274 0.1783886 4.8357916
-9.5423164 0.17853755 4.7567406
-9.560358 0.33862624 4.719347
-10.260172 -0.41744962 3.2136688
-10.295541 -0.41729546 3.137876
-10.299442 -0.59727347 3.1280887
-10.259273 -0.63744104 3.2138519
-10.240448 -0.63749665 3.2541914
-10.203368 -0.55761611 3.334286
-10.223996 -0.43759084 3.2910333
-10.246434 -0.41749847 3.2431092
-10.35064 1.1683563 3.0323777
-10.329295 1.1828868 3.0782363
-10.485452 1.1686883 2.7434847
-10.513402 1.1710718 2.6836066
-10.479729 1.1834886 2.7558656
-10.476923 1.1834389 2.7618785
-10.330014 -0.95714247 3.0597179
-10.294168 -0.83728409 3.1374846
-10.331435 -0.6771608 3.0588937
-10.402173 -0.67685241 2.9073076
-10.399917 -0.79686487 2.9111912
-10.383256 -0.87691236 2.9462585
-10.347093 -0.95707965 3.0231214
-10.523118 1.1762992 2.662827
-10.527316 1.1837204 2.6538904
-9.8102007 1.1537302 4.1904087
-9.8071537 1.151287 4.1969185
-9.8005018 1.1560025 4.2112098
-9.8223782 1.1610006 4.1643691
0 0 0 1 0 0 0 1 0 0 0 1 0 0 0 0 0 379 1 0 0
