ply
format ascii 1.0
comment PCL generated
element vertex 385
property float x
property float y
property float z
element camera 1
property float view_px
property float view_py
property float view_pz
property float x_axisx
property float x_axisy
property float x_axisz
property float y_axisx
property float y_axisy
property float y_axisz
property float z_axisx
property float z_axisy
property float z_axisz
property float focal
property float scalex
property float scaley
property float centerx
property float centery
property int viewportx
property int viewporty
property float k1
property float k2
end_header
-0.17851353 -0.64231753 -2.9802895
-0.16486549 -0.67897087 -2.9833598
-0.20479631 -0.74426568 -2.9600229
-0.2076726 -0.80026811 -2.9540744
-0.2234664 -0.76354891 -2.950047
-0.38716269 -0.79427266 -2.8740904
-0.37254143 -0.88854092 -2.8728044
-0.21743202 -0.88286722 -2.9428267
-0.21613646 -0.92261797 -2.9401007
-0.2024889 -0.95927131 -2.943171
-0.21354437 -1.0021197 -2.934649
-0.22589588 -1.0052171 -2.928853
-0.38667583 -1.046952 -2.8532882
-0.3819375 -1.1265194 -2.8487935
-0.40449572 -1.1660535 -2.8353894
-0.41205597 -1.2480502 -2.8251779
-0.39375544 -1.2843497 -2.830364
-0.39323139 -1.3242941 -2.827276
-0.38918686 -1.3645637 -2.8257394
-0.39080667 -1.4464183 -2.8182034
-0.39136505 -1.4833026 -2.8148847
-0.44750452 -1.5236088 -2.7863588
-0.49052477 -1.5287273 -2.7666428
-0.49439764 -1.5296861 -2.7648265
-0.51359749 -1.5273018 -2.7564158
-0.54842138 -1.5213695 -2.7412946
-0.52902794 -1.5096943 -2.7509618
-0.49173021 -1.5078552 -2.7678387
-0.43661022 -1.4757916 -2.7952218
-0.41588116 -1.3741927 -2.8129687
-0.41737413 -1.3681793 -2.8127997
-0.41175938 -1.3289403 -2.8185816
-0.41622305 -1.2891445 -2.819891
-0.55774879 -1.225714 -2.7617083
-0.62797642 -1.1738352 -2.7345343
-0.7773757 -1.1824632 -2.6668265
-0.78976727 -1.1855313 -2.6610148
-0.82409811 -1.1844368 -2.6457121
-0.91644382 -1.2231667 -2.6010828
-0.93318796 -1.168029 -2.5981617
-0.95685053 -1.1284283 -2.5908461
-0.96788025 -1.087499 -2.5893052
-0.93140459 -1.0886618 -2.6055641
-0.92299986 -1.0895791 -2.6092565
-0.84364653 -0.92666644 -2.658391
-0.90271235 -0.86671638 -2.6368935
-0.9280448 -0.85546088 -2.626471
-0.97022247 -0.8094402 -2.6113873
-0.94710255 -0.80671424 -2.6219809
-0.87096882 -0.78582239 -2.6578569
-0.70878601 -0.78654873 -2.7305186
-0.6528306 -0.78186756 -2.7559981
-0.55672216 -0.86239362 -2.7923937
-0.53670597 -0.88536972 -2.7994576
-0.47135925 -0.99816203 -2.8193753
-0.47209406 -1.0428146 -2.815331
-0.46747208 -1.0807105 -2.8142509
-0.47441006 -1.1241126 -2.8075292
-0.62596655 -1.163322 -2.73631
-0.66434479 -1.1081437 -2.7236917
-0.70110512 -1.0300298 -2.7137072
-0.70220232 -0.99524665 -2.7161088
-0.7289691 -0.96212733 -2.706862
-0.73802185 -0.94694674 -2.7040656
-0.19086456 -0.64541507 -2.9744935
-0.24270248 -0.68701321 -2.947789
-0.3783555 -0.60886431 -2.8934641
-0.37965107 -0.56911349 -2.8961902
-0.42066622 -0.64988559 -2.8710794
-0.42394733 -0.72267038 -2.8635533
-0.52757072 -0.79046923 -2.8114486
-0.58301353 -0.77125055 -2.788187
-0.62781239 -0.78318512 -2.7671065
-0.6794529 -0.76514584 -2.7454519
-0.69986582 -0.77390313 -2.7355704
-0.37323141 1.3586464 -3.0594423
-0.35629082 1.3403518 -3.0655162
-0.43286943 1.368392 -3.0335114
-0.40782261 1.3721514 -3.0450552
-0.39517212 1.3703046 -3.0505738
-8.5687475 1.3675494 0.61465102
-8.5901709 1.3680518 0.62421542
-8.5643072 1.3691242 0.61252898
-0.53587389 1.3740532 -2.9877958
-0.52336025 1.3721817 -2.9932511
-0.50616217 1.3718388 -3.0009341
-0.49844217 1.3737748 -3.0045567
-0.53046989 1.3754082 -2.9903314
-0.91824913 1.434253 -2.8213484
-0.88420868 1.440697 -2.8371482
-0.83426714 1.395997 -2.855823
-0.86121225 1.4017849 -2.8442223
-0.87045956 1.406553 -2.8404727
-10.383335 -1.5536971 1.6713278
-10.261499 -1.6347731 1.6234424
-10.206175 -1.6435916 1.5993681
-10.144014 -1.6342423 1.5707178
-10.052579 -1.6298134 1.5293505
-10.043261 -1.6320863 1.5253611
-9.9803905 -1.6712365 1.5004277
-9.9657373 -1.6682932 1.4936121
-9.9481907 -1.6674721 1.4856763
-9.8849726 -1.6257329 1.4538569
-9.858654 -1.6245015 1.4419534
-9.7650146 -1.5588505 1.3945045
-9.7219496 -1.5540193 1.3747921
-9.6845074 -1.5425537 1.3570497
-9.6026602 -1.5409813 1.3202186
-9.575592 -1.5418217 1.3081512
-9.5690718 -1.5444578 1.3054471
-9.5115585 -1.5462 1.279803
-9.5814905 -1.5499365 1.3114712
-9.6155806 -1.554103 1.3271036
-9.6282787 -1.5521259 1.332633
-10.46612 -0.5910446 1.6283631
-10.472627 -0.41149062 1.6163437
-10.475205 -0.34855038 1.6122639
-10.474395 -0.4124763 1.6172185
-10.426837 -1.3925165 1.6774251
-10.433796 -1.2698774 1.6703427
-10.431345 -1.2269182 1.6656697
-10.436436 -1.1936432 1.6651847
-10.520235 -1.2479848 1.7072802
-10.51865 -1.2902347 1.7100844
-10.522053 -1.3888447 1.7198138
-10.493591 -1.3876635 1.7069538
-10.407059 -1.4691528 1.674932
-10.153767 -1.5512673 1.568188
-10.209995 -1.5416949 1.5926044
-10.256412 -1.5538254 1.6144264
-10.325152 -1.5472467 1.6447024
-10.402088 -1.4758434 1.67326
-0.68583155 1.3847549 -2.9214456
-0.66393471 1.37814 -2.9307139
-0.69839764 1.3841178 -2.9157581
-10.119582 -1.5495861 1.5527201
-10.085772 -1.5379637 1.5365925
-10.043114 -1.5518087 1.5186172
-10.012654 -1.5645816 1.5060215
-9.9440994 -1.5661898 1.4754157
-9.9103813 -1.5520823 1.4591231
-9.871664 -1.551311 1.4416978
-9.8295021 -1.5457263 1.422328
-9.8123627 -1.5461282 1.4146767
-9.7951317 -1.5490158 1.4071903
-9.7311106 -1.5497135 1.3785417
-5.6092429 -0.74517852 -0.5366165
-5.6684098 -0.7502526 -0.50966418
-5.6809254 -0.75075263 -0.5040108
-5.7364197 -0.76585615 -0.47787088
-5.8261809 -0.69316053 -0.44366997
-5.8618946 -0.65250087 -0.43103865
-5.8667746 -0.6519596 -0.42889556
-6.0280709 -0.62746882 -0.35860831
-5.9005365 -0.71108121 -0.40883842
-5.9712429 -0.8501389 -0.36556557
-5.9245033 -0.84805006 -0.38669708
-5.8409519 -1.006657 -0.41096652
-5.9562778 -1.0746132 -0.3536014
-5.9665618 -1.0867591 -0.34797961
-6.0083528 -1.1684304 -0.32244635
-5.9523349 -1.1864473 -0.34606582
-5.8194189 -1.2495098 -0.40041837
-5.8160925 -1.2504241 -0.40183389
-5.8044081 -1.249902 -0.40711662
-5.6959352 -1.3276378 -0.44928831
-5.6753817 -1.5247395 -0.44210732
-5.6878967 -1.5252396 -0.43645394
-5.7096052 -1.5263283 -0.42662933
-5.7143536 -1.5249625 -0.42461392
-6.1064053 -0.70570248 -0.3169753
-6.0835171 -0.68643719 -0.32884088
-6.0733204 -0.6718061 -0.33463013
-6.1338892 -0.63711697 -0.31035715
-6.1462307 -0.65169197 -0.30361092
-6.1551123 -0.69449651 -0.29606754
-6.2450457 -0.7567026 -0.25056666
-6.3170261 -0.7707538 -0.21712193
-6.3476295 -0.76395404 -0.20396534
-6.441546 -0.75570565 -0.16253969
-6.5229473 -0.74695724 -0.12676758
-6.5569081 -0.75600159 -0.11078712
-6.5787039 -0.75460505 -0.10113016
-6.7255735 -0.83353102 -0.028708488
-6.5694652 -0.81609052 -0.10015786
-6.5200553 -0.82896894 -0.12124157
-6.4412355 -0.85337496 -0.15455374
-6.4156313 -0.87390673 -0.16432634
-6.3896365 -0.90024388 -0.17379126
-6.3674026 -0.91406637 -0.18261102
-6.3457298 -0.92891037 -0.19109407
-6.3006954 -0.96733117 -0.20809111
-6.2662325 -0.92809117 -0.22680855
-6.2055478 -0.77139074 -0.26705539
-6.1505156 -0.78234738 -0.29082009
-6.1213741 -0.63661689 -0.31601053
-6.0747223 -0.63204288 -0.33730951
-0.99923372 1.4306648 -2.7847369
-0.9743557 1.4393923 -2.796618
-0.98683691 1.4362707 -2.7907617
-10.510199 0.47063315 1.5598056
-10.507952 0.5129807 1.5552752
-10.511585 0.55279565 1.5535922
-10.513255 0.51002347 1.557899
-10.464391 -0.67650217 1.6346974
-10.460791 -0.67001259 1.6325433
-10.462626 -0.62695295 1.6297836
-10.464083 -0.63349277 1.6309814
-8.6914845 -0.91220409 0.85934228
-8.6530199 -0.73928928 0.82771009
-8.6185265 -0.69459873 0.80852562
-8.6216955 -0.61009896 0.80291659
-8.6057682 -0.57819223 0.79312068
-8.5916128 -0.49906504 0.78019065
-8.5321589 -0.37798393 0.74345869
-8.5329056 -0.3581008 0.74213928
-8.5336504 -0.33821931 0.74081951
-8.5194016 -0.26157665 0.72805434
-8.5863104 -0.24094605 0.75633961
-8.6018658 -0.2256825 0.76204485
-8.6692104 -0.19927159 0.79004449
-8.6724224 -0.19919625 0.79147893
-8.7031441 -0.20176253 0.80546767
-8.6590538 -0.29883474 0.79377335
-8.6622219 -0.33746284 0.79840761
-8.6681805 -0.39794394 0.8061108
-8.6809387 -0.45723987 0.81676465
-8.8145523 -0.53849506 0.8834359
-8.833662 -0.53969032 0.89210409
-8.9105492 -0.58357388 0.93023044
-8.9193211 -0.58398438 0.93419844
-8.9667006 -0.63918036 0.96003467
-8.978466 -0.66205615 0.96721345
-8.9292545 -0.72448432 0.95034069
-8.9168348 -0.77611691 0.94906706
-8.9214277 -0.81902575 0.95469636
-8.9285059 -0.85858941 0.96116132
-8.8755684 -0.90620631 0.94138592
-8.9635544 -1.0597024 0.99360782
-8.8534307 -0.919945 0.93260235
-8.7583618 -0.95533103 0.89291757
-8.7281036 -1.0172788 0.88450342
-8.6753674 -1.0566021 0.86412817
-8.6386375 -1.0715585 0.84890288
-8.6514931 -1.0141455 0.84989089
-8.6529837 -0.97438097 0.84725136
-8.6691294 -0.93755949 0.85142773
-6.887907 -1.5402284 0.10287243
-6.7723694 -1.5449028 0.051454723
-6.669786 -1.5376513 0.0048534274
-6.6324549 -1.5353163 -0.012079835
-6.577096 -1.5111068 -0.038916558
-6.5301814 -1.5139885 -0.059713185
-6.5410042 -1.4514256 -0.060065001
-6.5400758 -1.4111025 -0.06383574
-6.617135 -1.369983 -0.032703519
-6.6521797 -1.3705158 -0.016945392
-6.6921134 -1.4087853 0.0041443706
-6.7836819 -1.5350889 0.055710852
-6.461328 1.3892291 -0.33211029
-6.5079212 1.3821757 -0.31063116
-6.4955401 1.3876934 -0.31664199
-4.9930887 -1.5290062 -0.74768955
-4.9711409 -1.5355005 -0.75699049
-4.9540739 -1.5334947 -0.76481032
-4.9868727 -1.5274805 -0.75060368
-10.555876 1.2259514 1.5174503
-10.555753 1.1508036 1.5236471
-10.553261 1.2316424 1.5158048
-10.106864 1.3808389 1.3032303
-10.047935 1.3959627 1.2755492
-10.003752 1.3709705 1.2578166
-9.9275923 1.3832064 1.2226486
-9.8808031 1.3853958 1.2014866
-9.8589449 1.379113 1.1922083
-9.8932228 1.3799171 1.2075112
-9.9103613 1.3803201 1.2151625
-9.9399176 1.3752425 1.2288377
-10.524664 0.90738213 1.529958
-10.518391 0.79133308 1.5367992
-10.51606 0.67208934 1.5456738
-10.522129 0.78875005 1.5386906
-10.480297 -0.31527531 1.6117785
-10.4753 -0.28895196 1.6073484
-10.474554 -0.30883601 1.6086681
-5.4651213 1.3821332 -0.77821463
-5.4021854 1.4142506 -0.80910677
-5.4367414 1.4226544 -0.79431129
-5.4487581 1.4129593 -0.78811634
-5.5589814 1.3878434 -0.7366032
-5.5848546 1.3786898 -0.72424036
-5.5378308 1.3733187 -0.74487871
-5.5161724 1.3743069 -0.75467259
-5.4742937 1.3748412 -0.7734952
-5.3690438 -1.5242612 -0.57950765
-5.3292074 -1.5263369 -0.59719735
-5.3760343 -1.5259405 -0.57623345
-1.6332769 1.3653302 -2.4949992
-1.6676555 1.3688238 -2.4798748
-1.6208806 1.3709364 -2.5010242
-10.384246 1.3750019 1.4280927
-10.433742 1.5416558 1.4364223
-10.486705 1.3674734 1.4746614
-10.439917 1.3696625 1.4534991
-8.3841982 1.4062362 0.52868158
-8.3255405 1.4073257 0.50228935
-8.3156443 1.4046283 0.49807602
-8.2874842 1.3898728 0.48667657
-8.3723373 1.3695154 0.52641827
-8.3886948 1.3701048 0.53370351
-8.3959036 1.3700686 0.53693897
-8.4492426 1.3771613 0.56026608
-8.4164562 1.4161217 0.54232365
-8.9464045 -1.5169954 1.0239611
-8.9587297 -1.5249594 1.0301502
-9.0682364 -1.5041335 1.0775199
-9.1710014 -1.5457664 1.127063
-9.2356462 -1.5432227 1.1558378
-9.2824354 -1.5454121 1.1769998
-9.3168993 -1.5396373 1.191973
-9.3556824 -1.5449264 1.2098029
-9.363595 -1.544312 1.2133
-9.3977785 -1.5459932 1.2287674
-9.4192638 -1.5496514 1.2387059
-9.4446602 -1.5456972 1.2497647
-9.4312744 -1.545002 1.2437043
-9.409174 -1.5391518 1.2333083
-9.3736877 -1.5151532 1.2153995
-9.3395958 -1.5109868 1.1997666
-9.2927265 -1.4989355 1.177748
-9.1870031 -1.3801039 1.1204562
-9.157443 -1.3001056 1.1005464
-9.1514816 -1.2878299 1.0968521
-9.2513046 -1.1256943 1.1281238
-9.285862 -1.1174343 1.1429319
-9.3135672 -1.1025198 1.154114
-9.294075 -1.0667399 1.1423974
-9.2887506 -1.0403903 1.1378179
-9.2187042 -1.0817631 1.1098514
-8.9711018 -1.3423578 1.0205066
-9.1180439 -1.2662663 1.0800648
-6.2993693 -1.5158818 -0.16305068
-6.2900891 -1.5177785 -0.1670543
-6.3241372 -1.5243375 -0.15124142
-5.0154009 -0.97317439 -0.78392547
-4.9519005 -0.93097997 -0.81590891
-4.9776306 -0.93026173 -0.80443144
-5.0077877 -0.92118979 -0.79166377
-5.0409737 -0.9299804 -0.776052
-5.0433073 -0.9305526 -0.77495819
-5.5158448 -0.83286476 -0.57120109
-5.5032415 -0.83484995 -0.57668722
-5.3340993 -0.88739002 -0.64815891
-5.3205476 -0.84556746 -0.65771484
-5.2850327 -0.83475816 -0.67453873
-5.2950425 -0.92326176 -0.6626876
-5.2820406 -0.96828043 -0.66477245
-5.265945 -1.0206484 -0.667633
-5.2799835 -1.0279156 -0.6607337
-5.4037094 -1.0965005 -0.59954983
-5.4034109 -1.1716163 -0.59343481
-5.5048914 -1.1435152 -0.55026913
-5.59688 -1.1899412 -0.50515962
-10.532841 1.3478868 1.496978
-10.544514 1.3225257 1.5043218
-10.546347 1.3084741 1.5063126
-10.528899 1.3510816 1.4949448
-8.8772249 -0.30347481 0.89198631
-8.876358 -0.30856404 0.892021
-8.8722601 -0.30369398 0.88977832
-4.9026995 -1.5324464 -0.78793341
-4.9369202 -1.5339735 -0.77246195
-4.9244757 -1.5309219 -0.77829599
-4.9182591 -1.5293961 -0.7812103
-4.8777246 -1.5288281 -0.79943323
-4.8715086 -1.5273023 -0.80234736
-4.840313 -1.5290232 -0.81619215
-4.8308878 -1.5292192 -0.82040215
-4.8028951 -1.529218 -0.83295393
-4.8371158 -1.5307449 -0.81748247
-9.4974823 -1.5428324 1.2732112
-9.4877262 -1.5505284 1.2694769
-8.0561447 1.3736379 0.38429564
-8.077817 1.3749504 0.39390427
-8.1028404 1.3689635 0.40562266
0 0 0 1 0 0 0 1 0 0 0 1 0 0 0 0 0 385 1 0 0
