ply
format ascii 1.0
comment PCL generated
element vertex 671
property float x
property float y
property float z
element camera 1
property float view_px
property float view_py
property float view_pz
property float x_axisx
property float x_axisy
property float x_axisz
property float y_axisx
property float y_axisy
property float y_axisz
property float z_axisx
property float z_axisy
property float z_axisz
property float focal
property float scalex
property float scaley
property float centerx
property float centery
property int viewportx
property int viewporty
property float k1
property float k2
end_header
-9.2640724 -1.1182258 5.245502
-9.2408905 -1.0902777 5.2233791
-9.2663174 -1.1650903 5.2163963
-9.3068762 -1.3078814 5.1886601
-9.3235579 -1.3814332 5.1667628
-9.3051071 -1.4408292 5.0913825
-9.3167505 -1.4949341 5.074141
-9.3073702 -1.5256748 5.0354314
-9.2950401 -1.5388768 5.0038033
-9.2710419 -1.5675147 4.9401603
-9.2481842 -1.5674288 4.8989062
-9.2150917 -1.5787072 4.8311124
-9.1890717 -1.5621145 4.7958231
-9.2170563 -1.5661497 4.8435488
-9.24436 -1.5486867 4.9052582
-9.284482 -1.5223787 4.9963946
-9.2973108 -1.4974811 5.0372014
-9.3005486 -1.4669201 5.0646787
-9.3004341 -1.4099324 5.1048007
-5.6841679 -0.76674247 -0.97640806
-5.7165465 -0.83435535 -0.96572989
-5.7776475 -0.85524803 -0.87007564
-5.8537416 -0.90715438 -0.76926786
-5.9135642 -0.99663854 -0.72446209
-5.9176168 -1.0062495 -0.72393793
-5.94519 -1.034256 -0.69391924
-5.9669118 -1.0711064 -0.6807341
-6.0021987 -1.1123576 -0.64614481
-6.0476766 -1.2075517 -0.63130778
-6.0597324 -1.2392302 -0.63193434
-6.102953 -1.310106 -0.60396832
-6.1589627 -1.378242 -0.55094773
-6.1432462 -1.5049446 -0.66901594
-6.101593 -1.5172035 -0.7529785
-6.0730586 -1.5036925 -0.79499334
-6.0879154 -1.5067978 -0.77033693
-6.1896181 1.370692 1.4497383
-6.231874 1.3542116 1.5144529
-6.2584896 1.3548145 1.5629877
-6.2784252 1.3867311 1.6216061
-6.2468214 1.3775737 1.5580029
-6.2325239 1.3710773 1.5275635
-6.1909323 1.3853197 1.4624656
-6.1487045 1.3635926 1.3707643
-4.9775991 1.4347143 -0.69566661
-4.992557 1.4389622 -0.66562468
-5.0238247 1.4239013 -0.61976677
-5.0859432 1.4159088 -0.51314336
-5.0913796 1.4125223 -0.505714
-5.0586772 1.3984401 -0.57478827
-5.0443802 1.3919435 -0.60522777
-5.0015416 1.4027615 -0.6750024
-4.9756308 1.422349 -0.70797473
-4.9682798 1.424571 -0.71968883
-4.9280133 1.4343245 -0.78556806
-4.8954091 1.4348783 -0.84410828
-4.8884106 1.441839 -0.85183245
-4.8648086 1.4667473 -0.87686616
-4.9000673 1.4572365 -0.81986672
-4.9130955 1.452471 -0.79969066
-4.9197125 1.4491677 -0.79006785
-4.9483242 1.4430602 -0.74267536
-4.9592905 1.4382491 -0.72625774
-4.7002354 -1.5036412 -3.2763193
-4.6891203 -1.4919436 -3.2881324
-4.7158461 -1.5016341 -3.2466829
-4.7274036 -1.5105914 -3.2321312
-4.7170439 -1.5059826 -3.2475955
-5.6803012 -0.75298017 -0.97365814
-5.6688218 -0.71651906 -0.96860522
-5.7576756 -0.7499364 -0.83165091
-5.7895484 -0.75176138 -0.77533275
-5.8028731 -0.75236988 -0.75167912
-5.8487606 -0.77065128 -0.68167418
-5.8607593 -0.76682329 -0.65727812
-5.874413 -0.77717888 -0.63992757
-5.9040613 -0.79531574 -0.59917313
-5.9332771 -0.71437585 -0.48908871
-5.9089236 -0.62897116 -0.47267085
-5.9237585 -0.63323766 -0.44887644
-5.9414458 -0.62928671 -0.41411072
-5.992878 -0.63904071 -0.3280502
-6.0136895 -0.64617014 -0.29547888
-6.0419359 -0.66657186 -0.25886053
-6.0621471 -0.67918622 -0.23125535
-6.0953693 -0.682702 -0.17369467
-6.1643758 -0.76715904 -0.10873234
-6.1022129 -0.76506877 -0.2196117
-6.0586467 -0.7910713 -0.31675762
-6.0427599 -0.83616436 -0.37738329
-6.0416098 -0.84399295 -0.3850022
-6.0616093 -0.94586694 -0.42094439
-5.9952826 -0.97997421 -0.56496459
-6.0152774 -1.0761118 -0.59685606
-6.0573478 -1.1548159 -0.57650894
-6.0904613 -1.2000933 -0.5486967
-6.134799 -1.2506456 -0.50433069
-6.1821198 -1.3182074 -0.46660846
-6.209084 -1.3733472 -0.45689029
-6.2148538 -1.3859484 -0.45537907
-6.2652059 -1.5077078 -0.45053059
-6.2349653 -1.5039339 -0.50252026
-6.1943827 -1.5043169 -0.57614344
-6.157588 -1.5366187 -0.66550797
-5.5599189 1.3943295 0.3282913
-5.5895391 1.4394748 0.41377619
-5.6174836 1.4356017 0.46154493
-5.6814346 1.4095972 0.55873358
-5.6914673 1.4193342 0.58375776
-5.6923199 1.4186859 0.58484077
-5.7588382 1.3751318 0.67425036
-5.7971082 1.3720794 0.74126303
-5.7841396 1.3611069 0.71005756
-9.0242262 0.67204219 6.0788617
-9.0515785 0.50547498 6.0104308
-8.9843807 0.67778271 6.0109043
-9.0071287 0.79433519 6.1344995
-5.6294689 1.35711 0.42766434
-5.6145072 1.3528519 0.39760783
-5.6001959 1.3654592 0.38066179
-5.5579538 1.3628359 0.30245352
-5.5020509 1.3896856 0.22040951
-5.4734421 1.3957968 0.17302406
-5.5143557 1.4028962 0.25199825
-5.6663966 1.3776374 0.50893641
-5.6963339 1.3670504 0.55555618
-5.7262573 1.375567 0.61566925
-4.5888758 1.4007714 -1.4222994
-4.5752277 1.3920915 -1.45311
-4.5056686 1.3721864 -1.5929236
-4.5772123 1.3663573 -1.4677341
-4.6311398 1.4033163 -1.3441067
-4.6181622 1.4114134 -1.3618338
-4.3266687 -1.425808 -3.8964589
-4.3054276 -1.4044435 -3.9197333
-4.2757111 -1.3490955 -3.9342782
-4.2411466 -1.2396207 -3.9192836
-4.2388291 -1.2314398 -3.9176834
-4.2275591 -1.1715741 -3.8956897
-4.163857 -1.0711453 -3.9397628
-4.1272411 -1.0025669 -3.9574153
-4.0913258 -0.97194779 -4.0006657
-4.0567083 -0.93011349 -4.0336323
-4.0139813 -0.84453011 -4.0502977
-3.9528759 -0.75806558 -4.0995588
-3.9276385 -0.75311953 -4.141675
-3.9099905 -0.7396363 -4.164032
-3.9372101 -0.72217721 -4.102478
-4.003314 -0.70970237 -3.9741681
-4.0604758 -0.72164279 -3.879298
-4.0700722 -0.74276245 -3.8768985
-4.0815935 -0.77925402 -3.8818967
-4.0922627 -0.81510699 -3.8879831
-4.1571007 -0.97512329 -3.8840244
-4.1884241 -0.98140723 -3.8318541
-4.1990938 -1.0172601 -3.8379409
-4.2097626 -1.053113 -3.8440282
-4.2848816 -1.1531526 -3.7790449
-4.3121567 -1.173589 -3.7442071
-4.3978715 -1.1725519 -3.5885441
-4.4121761 -1.1850108 -3.5715058
-4.4215765 -1.2878189 -3.6272666
-4.4540634 -1.3624287 -3.6213443
-4.5107737 -1.4262657 -3.5640152
-4.4808865 -1.4347618 -3.6240475
-4.4679437 -1.4457322 -3.655205
-4.4415607 -1.4248903 -3.688143
-4.4140882 -1.426048 -3.7386186
-4.408493 -1.4183733 -3.7433012
-4.335803 -1.3994229 -3.8612773
-4.328373 -1.4270852 -3.8942816
-4.7400026 -1.5184 -3.2148845
-4.7756414 -1.531585 -3.1597981
-4.7846727 -1.5360181 -3.1466119
-4.7867112 -1.5209186 -3.1322417
-4.7573977 -1.5155818 -3.1814492
-7.2421646 -1.0320666 1.6518971
-7.2540579 -1.0693594 1.6470038
-7.2768979 -1.0415337 1.7079782
-7.3771868 -1.1001036 1.8478026
-7.3952694 -1.10984 1.8735969
-7.4092784 -1.1064298 1.9013305
-7.4118776 -1.0334847 1.9576478
-7.4108791 -0.99708503 1.9816015
-7.4002471 -0.96129704 1.9877095
-7.3759384 -0.91510701 1.9764585
-7.3715773 -0.91249549 1.9704235
-7.3674207 -0.98537177 1.91134
-7.2614155 -0.90306854 1.7779782
-7.2456427 -0.82712477 1.803211
-7.2446356 -0.75355005 1.8534555
-7.2261629 -0.71381503 1.8481851
-7.1581802 -0.65853268 1.7644268
-7.1555181 -0.66516376 1.7549225
-7.1647019 -0.71725893 1.7346578
-7.1610637 -0.75959867 1.6981196
-7.1865969 -0.83442527 1.6913199
-7.2054811 -0.94984531 1.6437764
-6.858047 -1.1542199 0.87116772
-6.8855772 -1.1582588 0.91806996
-6.9112759 -1.1685573 0.95723218
-6.9497771 -1.1890032 1.0123543
-6.9797153 -1.1995667 1.0589926
-6.994648 -1.195251 1.0890366
-7.0219288 -1.1968675 1.137203
-7.0256052 -1.1940732 1.1458255
-7.0241175 -1.1864133 1.1485562
-7.0126281 -1.1655535 1.1425509
-6.9846444 -1.1221547 1.1226822
-6.9564633 -1.1212816 1.0723628
-6.9011631 -1.0966172 0.98986197
-6.8848281 -1.0772648 0.97403151
-6.8380814 -0.99341303 0.94887424
-6.8244038 -0.98300731 0.93151575
-6.8335876 -1.0351024 0.91125107
-6.8391953 -1.0773625 0.89148164
-6.8539824 -1.1371827 0.8758772
-8.6484241 1.3521078 5.8808508
-8.6726227 1.3282893 5.9077339
-8.7215118 1.3276627 5.9956574
-8.7904892 1.3112962 6.1087527
-8.8034801 1.3222623 6.1399941
-8.7951736 1.2769215 6.0928941
-8.7801294 1.2379 6.0380878
-8.7777786 1.2221887 6.0227203
-8.7769299 1.1500945 5.9701691
-8.769146 1.1282134 5.9406161
-8.7499714 1.134721 5.9105644
-8.7179623 1.1981778 5.897613
-8.6459789 1.3085914 5.8456383
-8.614995 1.3152022 5.794312
-8.6097879 1.3170228 5.7861886
-8.5997162 1.31954 5.7697659
-8.5751495 1.3209424 5.7263546
-8.5158262 1.4295332 5.6959729
-8.4924726 1.4762318 5.6868076
-8.5158634 1.4669738 5.7225347
-8.5394955 1.4641013 5.763216
-8.572156 1.4310412 5.7988544
-7.2189217 1.3462253 3.2928796
-7.2035203 1.345747 3.2647028
-7.1662803 1.381042 3.2223685
-7.1269493 1.3920321 3.1590559
-7.1655216 1.4025681 3.2362306
-7.1953969 1.4111469 3.2963004
-7.2163348 1.4108281 3.3339195
-7.2616549 1.3607793 3.3804178
-7.2466884 1.3564968 3.3503358
-7.2440062 1.3552749 3.3446233
-7.2337079 1.3455091 3.3190985
-6.0306368 -1.5471139 -0.90239733
-6.0245419 -1.577817 -0.93514055
-5.962688 -1.6095665 -1.0694091
-5.9475007 -1.6164584 -1.1017361
-5.9338474 -1.6061029 -1.1190865
-5.8332686 -1.5297511 -1.2468512
-5.8072901 -1.5135167 -1.2823191
-5.8196392 -1.5384758 -1.2776604
-5.9916363 -1.5337782 -0.96345323
-5.9599905 -1.5218996 -1.0122471
-5.9327078 -1.5202687 -1.0604067
-5.9320674 -1.5371106 -1.0734818
-5.9350882 -1.5814552 -1.099402
-6.1910472 -1.0548437 -0.26410347
-6.1582346 -1.0261147 -0.30308205
-6.1949868 -1.0290523 -0.23873168
-6.2070985 -1.0474722 -0.22987443
-7.9075637 -1.5463085 2.4906964
-7.9758549 -1.5603371 2.6042051
-8.0031395 -1.5428319 2.6659095
-8.0317488 -1.5297971 2.7268436
-8.074688 -1.5295088 2.8046606
-8.1566486 -1.5540488 2.9354377
-8.0844965 -1.5528429 2.8058772
-8.0689211 -1.546339 2.782326
-8.0180645 -1.6172092 2.6402535
-8.0025492 -1.6326482 2.6012831
-7.9742575 -1.6371686 2.5469482
-7.9056044 -1.5588667 2.4782677
-7.8691549 -1.5536613 2.4160697
-7.4561172 1.3565562 3.7289181
-7.4287791 1.3775787 3.6943817
-7.3880444 1.3528993 3.6032896
-7.3836141 1.3519268 3.5945938
-7.3666277 1.3441875 3.5584142
-7.3579197 1.3427565 3.5416617
-7.3892026 1.3275867 3.5874705
-7.4574676 1.3328218 3.7145636
-7.4711103 1.3415744 3.7454159
-7.4997454 1.3353453 3.7927659
-7.5133877 1.3440981 3.8236177
-7.5302548 1.3486447 3.8573227
-7.498395 1.3590798 3.8071203
-8.6318998 -1.175622 4.0622416
-8.6069355 -1.1667018 4.0234308
-8.5733271 -1.1169472 3.9978924
-8.5753937 -1.0958406 4.0165634
-8.6046906 -1.1043048 4.0635281
-8.6196566 -1.1000226 4.0936103
-8.6222429 -0.98265207 4.1813412
-8.5514469 -0.85053504 4.1468711
-8.5226688 -0.84963024 4.0954943
-8.4913578 -0.84087992 4.0450921
-8.4667215 -0.84164232 4.0000243
-8.4389191 -0.85158825 3.9427321
-8.4148149 -0.93056369 3.8432784
-8.4243135 -0.9720552 3.8310859
-8.4325619 -1.0235333 3.8095653
-8.4194069 -0.98579919 3.8124907
-8.4096699 -0.95069337 3.8197334
-8.3682022 -0.88108623 3.7940383
-8.295125 -0.78717172 3.7284107
-8.2545567 -0.79100931 3.6523676
-8.2231655 -0.78438747 3.6003151
-8.1569672 -0.7685163 3.4918938
-8.1965971 -0.75705194 3.5716367
-8.2232466 -0.75657552 3.6201422
-8.2668476 -0.75852239 3.6975741
-8.3067455 -0.76848972 3.762635
-8.3234138 -0.7692647 3.7922153
-8.3414555 -0.7702474 3.8241289
-8.3849649 -0.78180933 3.8945904
-8.4106598 -0.77263892 3.9475224
-8.413415 -0.77303171 3.9522247
-8.4632626 -0.77961361 4.0376654
-8.4671297 -0.78016603 4.0442643
-8.5042763 -0.781721 4.1103072
-8.5322495 -0.78571486 4.1580424
-8.5745277 -0.78319114 4.2362442
-8.5918827 -0.77122831 4.2760797
-8.6066389 -0.76773536 4.305223
-8.6383762 -0.78274262 4.3519673
-8.6236839 -0.858711 4.2716532
-8.6234179 -0.87151623 4.2621102
-8.626564 -0.90407914 4.2447543
-8.635067 -0.97646642 4.2088976
-8.6456585 -1.0122294 4.2027345
-8.6346493 -1.1150043 4.1101079
-8.648551 -1.1619432 4.1020184
-8.6362324 -1.1751661 4.0703955
-3.3377495 1.3990006 -3.6849492
-3.3382053 1.4042885 -3.680383
-3.4330957 1.3521304 -3.545779
-3.4755831 1.3384523 -3.4786632
-3.4932275 1.3147395 -3.4635518
-3.4470162 1.3255296 -3.5394418
-5.8959036 1.3647184 0.91462553
-5.8829346 1.3537462 0.88342005
-5.8536615 1.3620954 0.83641726
-4.8065372 1.4277918 -1.0097582
-4.8038759 1.4177322 -1.0216866
-4.7695818 1.4073329 -1.0910318
-4.7948866 1.4314106 -1.0282552
-5.2211413 -1.1292958 -2.0698831
-5.2149816 -1.1263598 -2.078939
-5.1931944 -1.1254265 -2.1176591
-5.1476092 -1.0977716 -2.1804838
-5.1243629 -1.1633463 -2.2689052
-5.1193633 -1.185555 -2.2936578
-5.1317887 -1.2140605 -2.2913706
-5.1667585 -1.2371347 -2.2444916
-5.1750684 -1.2454009 -2.235321
-5.2260776 -1.3099174 -2.1887774
-5.2365584 -1.3274081 -2.1822104
-5.2703376 -1.3330991 -2.1251824
-5.2958746 -1.3461078 -2.0882306
-5.3410788 -1.5168707 -2.1273639
-5.3219543 -1.5248981 -2.1676121
-5.3197341 -1.554996 -2.1929235
-5.3221602 -1.5616736 -2.193264
-5.3402567 -1.5509219 -2.1529467
-5.3512535 -1.5523243 -2.1340621
-5.3718948 -1.5315711 -2.082067
-5.4018345 -1.5421555 -2.0354419
-5.4100823 -1.5432072 -2.0212781
-5.446043 -1.527173 -1.9449325
-5.4700298 -1.5366924 -1.9083138
-5.5039539 -1.5607071 -1.8639903
-5.5538468 -1.5292199 -1.7515273
-5.5401936 -1.5188642 -1.7688777
-5.4706459 -1.5007703 -1.8817801
-5.4563522 -1.5072566 -1.9122055
-5.4354415 -1.5104396 -1.9522538
-5.382844 -1.4948127 -2.0362649
-5.3157134 -1.3588798 -2.0614097
-5.3134279 -1.3155143 -2.0348537
-5.3150325 -1.297008 -2.0188575
-5.2962074 -1.2077274 -1.9897044
-5.2837944 -1.1727245 -1.9873703
-5.2646041 -1.1474836 -2.0041952
-5.2504168 -1.1376417 -2.0228744
-6.7875853 -1.5308228 0.47730705
-6.7927823 -1.5502064 0.47298333
-6.7543945 -1.5438485 0.40809673
-6.7200842 -1.5386155 0.34978431
-6.6902194 -1.5472469 0.28969622
-6.6183481 -1.5062102 0.18882978
-6.6011038 -1.4974427 0.16386491
-6.5839953 -1.4770098 0.14740068
-6.5130949 -1.325124 0.12673038
-6.5212297 -1.3202821 0.14486104
-6.6019564 -1.4595112 0.19224811
-6.6121774 -1.4683752 0.20444995
-6.6333165 -1.4815438 0.23333973
-6.6459928 -1.493515 0.24778026
-6.6771321 -1.5198832 0.28540564
-6.7303658 -1.5186429 0.38250241
-6.3147116 1.4196668 1.7105005
-6.3334799 1.4188972 1.7438793
-6.368608 1.4186344 1.8071868
-6.4143639 1.3971524 1.8746884
-6.460639 1.3514636 1.9259989
-6.4742556 1.3602223 1.9568086
-6.5291843 1.3512864 2.0497684
-6.5326128 1.3486533 2.0541019
-6.5438542 1.3609633 2.0831323
-6.5616841 1.3795693 2.1285255
-6.525167 1.3893502 2.0694427
-6.5170865 1.3797944 2.0480752
-6.4417663 1.4285741 1.9464536
-6.4354987 1.4385698 1.9421983
-6.3983798 1.4552834 1.8869343
-6.3619361 1.4512367 1.8181988
-6.3393064 1.4651911 1.7871709
-6.3126688 1.4679158 1.7409513
-6.295764 1.4288363 1.6827419
-6.2887602 1.4168258 1.6615829
-9.1953716 -0.74669731 5.3842373
-9.1808405 -0.66275537 5.4173746
-9.1685114 -0.59036613 5.4463158
-9.1798258 -0.66635406 5.4129934
-8.3160887 -1.5661182 3.2150826
-8.2724867 -1.5641716 3.1376505
-8.307662 -1.4568207 3.277195
-8.3321381 -1.4603152 3.3189631
-8.3589134 -1.400991 3.4093392
-8.3397388 -1.320653 3.4315324
-8.3382282 -1.3140175 3.4334981
-8.36726 -1.3743571 3.4432731
-8.403409 -1.4416006 3.4610281
-8.4115677 -1.4513266 3.4688921
-8.4236975 -1.4744636 3.4744439
-8.4902363 -1.5182145 3.5637512
-8.5418081 -1.5662472 3.6229763
-8.5255175 -1.5660591 3.5936646
-8.4761219 -1.5616786 3.5074825
-8.4559288 -1.566824 3.4673421
-8.4445724 -1.559314 3.452131
-8.4121284 -1.5573568 3.3948743
-8.3733063 -1.5400486 3.3369505
-8.3440619 -1.5701122 3.2628176
-7.5898013 -1.5876157 1.8871138
-7.6046991 -1.6036592 1.9026887
-7.6072845 -1.590112 1.9169481
-7.651885 -1.53548 2.0362232
-7.6382165 -1.5249689 2.0189552
-7.5990162 -1.5022407 1.9641848
-7.5853472 -1.4917294 1.9469166
-7.5639935 -1.5100874 1.895329
-7.547143 -1.5162454 1.8605146
-7.5364151 -1.5211337 1.8376646
-7.512681 -1.5177457 1.7971625
-7.5048666 -1.5187693 1.7823142
-7.5040331 -1.5188526 1.7807485
-7.496871 -1.5219123 1.7656379
-7.4598265 -1.5148417 1.7036841
-7.4330854 -1.5347347 1.6412723
-7.3911438 -1.5565505 1.5500257
-7.4163342 -1.560039 1.5930886
-7.4333572 -1.5538511 1.6282362
-7.4482894 -1.5495355 1.6582801
-7.466681 -1.552906 1.6891377
-7.5188966 -1.5935535 1.7547522
-8.7076349 -1.5642414 3.9241266
-8.7232637 -1.5621941 3.9538233
-8.7382565 -1.5771756 3.9703207
-3.1962309 1.3575833 -3.9700511
-3.2813153 1.3297331 -3.8359702
-3.1975977 1.3341296 -3.9841774
-3.8959942 1.3639116 -2.7007587
-3.8590329 1.3244362 -2.7955005
-3.8453915 1.3347728 -2.8128424
-3.8031342 1.351244 -2.8775663
-3.7861683 1.35376 -2.9064515
-3.7649097 1.3555927 -2.9435792
-3.7899547 1.366864 -2.8903348
-3.8062792 1.3577352 -2.8672884
-3.8297596 1.3518269 -2.8290288
-3.857712 1.3479311 -2.7812617
-3.9778612 1.3589423 -2.5563016
-3.9512424 1.3773756 -2.5913701
-3.9791949 1.3734803 -2.5436029
-4.0214591 1.3760252 -2.4654102
-4.0630593 1.3808093 -2.3868325
-4.1059804 1.3620989 -2.3224936
-4.1475744 1.347867 -2.2573848
-4.120285 1.3495235 -2.305537
-4.0916691 1.3556583 -2.3529191
-4.0370913 1.3589711 -2.4492238
-3.7588792 1.3554165 -2.9546039
-3.7452316 1.3467367 -2.9854143
-7.0300117 -1.5413828 0.90801662
-7.0280004 -1.544848 0.90192962
-6.9953308 -1.5061432 0.87026906
-6.5491567 -1.0154797 0.41103101
-6.5126281 -0.95202291 0.38991141
-6.5057526 -0.81250918 0.47621065
-6.4487782 -0.83013666 0.36075613
-6.4281144 -0.81876773 0.33145162
-6.3859725 -0.7807653 0.28217304
-6.362504 -0.76468897 0.25112969
-6.3331556 -0.7371676 0.21755898
-6.3195524 -0.74595672 0.18675101
-6.2916803 -0.76129818 0.12551689
-6.2194548 -0.7342394 0.014118016
-6.2899923 -0.90043688 0.024004042
-6.3075819 -0.9050681 0.052520037
-6.3286004 -0.8811447 0.10744023
-6.421978 -1.0195165 0.17830074
-6.4235163 -1.0315192 0.17258745
-6.4846148 -1.1181718 0.22170269
-6.5285497 -1.1455138 0.28176618
-6.5668974 -1.1878006 0.32115471
-6.559835 -1.1503751 0.33487341
-7.2384033 -1.5291154 1.2933637
-7.2253284 -1.5518069 1.2536732
-7.1724138 -1.5594203 1.1526432
-7.1533861 -1.5514719 1.1238753
-7.1111727 -1.5541711 1.0456648
-7.09482 -1.5449939 1.0226016
-7.2492523 -1.5199617 1.3194501
-7.2247262 -1.5187099 1.2760054
-7.1753788 -1.5246854 1.1825819
-7.1253667 -1.528424 1.0895406
-7.1110988 -1.5349762 1.0591145
-7.083818 -1.5333598 1.0109482
-6.9960446 1.3390543 2.8849573
-7.0259199 1.3476331 2.9450271
-7.033689 1.3572125 2.9658482
-7.0267062 1.3539386 2.9509103
-6.9979291 1.3516419 2.8972704
-6.9530182 1.3580654 2.8206406
-6.9262505 1.3768966 2.7855835
-6.8958125 1.3512607 2.7124262
-6.9544373 1.3343043 2.806391
-6.6796813 1.3843586 2.3451939
-6.7154717 1.3813772 2.4077747
-6.7333741 1.3868444 2.4440014
-6.7721148 1.371125 2.5029013
-6.7819366 1.3670363 2.5177605
-6.800106 1.367116 2.5506582
-6.8274369 1.3653419 2.5988028
-6.8119364 1.3439956 2.5556805
-6.7788024 1.3519542 2.5014226
-6.743659 1.3387849 2.4285822
-6.6871142 1.3699055 2.3484008
-6.6675186 1.3620009 2.3073883
-9.106802 -0.41242969 5.4606919
-9.1127853 -0.45341328 5.4425054
-9.1561451 -0.55541748 5.4486961
-9.1376753 -0.4826777 5.466785
-9.1238394 -0.42183807 5.4848299
-9.0999603 -0.33441174 5.5035362
-9.0968046 -0.37193847 5.4712758
-7.8462901 -0.82689065 2.8890395
-7.84096 -0.81917191 2.8848677
-7.8267922 -0.78503841 2.8834143
-7.8284168 -0.76654071 2.8994401
-7.8410969 -0.778521 2.9138813
-7.8528204 -0.80749071 2.9145718
-7.8711009 -0.84916627 2.9181218
-8.2308712 -1.5689304 3.0590637
-8.1859198 -1.5432491 2.9959865
-8.2152166 -1.5517135 3.0429511
-8.2458115 -1.5453842 3.1027293
-8.6257277 -1.578229 3.7661815
-8.653039 -1.5799878 3.814302
-8.6263628 -1.5612001 3.7793803
-8.6094379 -1.5780408 3.7368701
-7.0959229 1.4018271 3.1099069
-7.0886726 1.4039407 3.0982983
-7.0790682 1.4058518 3.0822906
-7.0685921 1.4036014 3.0617626
-7.0506902 1.398134 3.0255361
-7.0758286 1.3875716 3.063499
-7.0459838 1.3704407 2.9974322
-5.9541039 -0.90086049 -0.58340997
-5.9578114 -0.75792253 -0.47555894
-6.0293837 -0.84230721 -0.40590769
-5.9829803 -0.94182622 -0.56020552
-7.786448 1.3650386 4.3319898
-7.7617846 1.3578568 4.2823281
-7.7393632 1.3601332 4.243413
-7.7221279 1.3656564 4.2161694
-7.6818628 1.3371634 4.1232276
-7.6565108 1.3514805 4.0875359
-7.6811476 1.3779263 4.1507807
-7.7106991 1.3856661 4.209671
-7.7357702 1.374409 4.2470217
-7.753015 1.3688645 4.2742677
-7.7787099 1.3746972 4.3248382
-7.8057928 1.3745844 4.3737106
-7.7910552 1.3686564 4.3428774
-8.1461716 -0.42233911 3.7173529
-8.1209135 -0.38073093 3.7011418
-8.114933 -0.37613225 3.6935873
-8.1271849 -0.4094643 3.6921446
-8.1459398 -0.42498177 3.7150633
-8.1485424 -0.42588809 3.719126
-2.9138064 1.3672371 -4.4736991
-2.9213011 1.3598585 -4.4653735
-2.9375789 1.3595991 -4.4361353
-4.6277032 -1.230283 -3.213979
-4.6567993 -1.2676041 -3.1877983
-4.6479979 -1.2630224 -3.2004645
-4.6200509 -1.2591532 -3.2482407
-4.6062684 -1.2693039 -3.2803357
-4.5818834 -1.2649964 -3.3213627
-4.5308867 -1.1893282 -3.3599927
-4.5724783 -1.2022316 -3.2939479
-8.0601196 -0.80605012 3.2902827
-8.0484638 -0.82150823 3.2582748
-8.0244617 -0.83092558 3.2082286
-7.9704752 -0.81037939 3.1251867
-7.9810667 -0.84614223 3.1190233
-8.0581961 -0.92565584 3.2021666
-8.0975189 -1.0056564 3.216629
-8.1158962 -1.0077451 3.2483678
-8.2080631 -1.0712047 3.3700523
-8.2210188 -1.1142597 3.3630021
-8.2699165 -1.1731582 3.4097049
-8.2942457 -1.1991068 3.4353166
-8.0872335 -0.80028874 3.3433673
-7.831018 1.3768749 4.4209256
-7.8245993 1.3820834 4.4130096
-7.8126259 1.3752463 4.3865294
-7.8267784 1.3774855 4.4136949
-2.9844549 1.3465688 -4.3606281
-2.9690139 1.3560328 -4.3818402
-2.9811957 1.3533225 -4.3617401
-2.9899509 1.3459163 -4.3511562
-3.0218787 1.3286645 -4.3056555
-3.0076141 1.3323755 -4.3288121
-5.1481543 -1.5369005 -2.4902468
-5.1211953 -1.5211972 -2.5278628
-5.1305404 -1.5321951 -2.5187545
-5.1925998 -1.5428762 -2.4141407
-5.1788759 -1.5281248 -2.4285078
-5.1736574 -1.533694 -2.4418812
-5.1783991 -1.5407596 -2.4383109
-5.2082458 -1.559947 -2.3979409
-5.1551824 -1.5393941 -2.4793084
-8.1555529 -0.91172135 3.3879979
-8.2302332 -1.0288846 3.4400713
-8.2459221 -1.0359385 3.4634371
-8.2766056 -1.0713611 3.4938309
-8.3279409 -1.0481846 3.6030195
-8.3877058 -1.122009 3.6588032
-8.3817081 -1.1548685 3.6247094
-8.3426094 -1.1664054 3.5458748
-8.3198261 -1.2150697 3.4702568
-8.3191414 -1.2283524 3.4596202
-6.5009708 -1.5060763 -0.02323395
-6.4628172 -1.5413904 -0.11718619
-6.4348717 -1.5375373 -0.1649704
-6.3939133 -1.5255151 -0.23049515
-6.3658938 -1.5024672 -0.2648297
-6.4048595 -1.5077791 -0.19815916
-6.4374552 -1.5272892 -0.15304881
-6.4587026 -1.4272687 -0.043865263
-6.4574714 -1.4142132 -0.036851704
0 0 0 1 0 0 0 1 0 0 0 1 0 0 0 0 0 671 1 0 0
