ply
format ascii 1.0
comment PCL generated
element vertex 777
property float x
property float y
property float z
element camera 1
property float view_px
property float view_py
property float view_pz
property float x_axisx
property float x_axisy
property float x_axisz
property float y_axisx
property float y_axisy
property float y_axisz
property float z_axisx
property float z_axisy
property float z_axisz
property float focal
property float scalex
property float scaley
property float centerx
property float centery
property int viewportx
property int viewporty
property float k1
property float k2
end_header
-1.034153 1.3862542 -4.212954
-0.94764233 1.3868285 -4.271821
-0.89739752 1.3618299 -4.3064313
-0.86349154 1.3471571 -4.3297496
-0.86011505 1.3071966 -4.3327112
-0.86344099 1.1870481 -4.3324413
-0.86527634 1.0270824 -4.3338461
-0.86651278 0.98710084 -4.3336687
-0.89469099 0.86682975 -4.3164868
-0.9587369 0.74637699 -4.2748976
-0.95778894 0.7288661 -4.2758336
-0.9707284 0.54840612 -4.2700219
-1.0158315 0.56584013 -4.2390366
-1.0609465 0.58077431 -4.2080851
-1.1326556 0.58540988 -4.1592054
-1.1633554 0.5826627 -4.1383572
-1.19841 0.74495912 -4.1118069
-1.2363238 0.74980295 -4.0859237
-1.3552446 0.76439965 -4.0047474
-1.3899755 0.78420198 -3.980782
-1.3592887 0.78444958 -4.0016627
-1.2812142 0.80973136 -4.0543785
-1.2250185 0.86489046 -4.0917082
-1.1634154 0.98513556 -4.1316381
-1.1052227 1.0252705 -4.1705761
-1.0865388 1.1854204 -4.1806345
-1.0859394 1.3054045 -4.1790514
-1.2044978 1.3924916 -4.0969191
-1.1186147 1.400812 -4.1552305
-1.0614085 1.3963603 -4.1942372
-0.99763441 -1.5186168 -4.2860098
-0.98914623 -1.5131677 -4.2916965
-0.98489094 -1.4735029 -4.2939343
-0.97443867 -1.4330415 -4.3003764
-0.93536949 -1.3150336 -4.3250074
-0.97795486 -1.2332494 -4.2946682
-0.97568274 -1.1932811 -4.2955513
-0.93611336 -1.1134698 -4.3211565
-0.95164776 -1.0729574 -4.3099122
-0.97177553 -1.0333415 -4.2955565
-0.96977282 -0.95345199 -4.2955937
-0.94877577 -0.91300488 -4.3092122
-0.9695406 -0.79338646 -4.2930956
-0.97723722 -0.75392818 -4.2872028
-0.97167206 -0.71388221 -4.2903256
-0.94757748 -0.67303669 -4.306046
-0.94614124 -0.59306043 -4.3056965
-0.94347 -0.47310257 -4.3055239
-0.93778992 -0.37317467 -4.3077312
-0.91629839 -0.27306297 -4.3206964
-0.93121147 -0.093277395 -4.3075638
-0.95327711 -0.25378227 -4.2952099
-0.95347691 -0.29377696 -4.2957377
-0.95574665 -0.31359452 -4.2945218
-0.95377684 -0.35377586 -4.2965293
-0.95566511 -0.37378347 -4.2955761
-0.96962261 -0.47404408 -4.2877407
-0.9708581 -0.51402563 -4.2875633
-0.97229385 -0.59400189 -4.2879133
-0.96459723 -0.63346016 -4.2938061
-10.476385 1.3064431 2.2118237
-10.463821 1.3466607 2.2039402
-10.418646 1.3143715 2.1726589
-10.291225 1.3476334 2.0864928
-10.274541 1.3523197 2.0752153
-10.25431 1.3604907 2.0615821
-10.234076 1.3686624 2.0479476
-10.209059 1.3706925 2.0309551
-10.18884 1.3713658 2.0172057
-10.192383 1.3703799 2.0196006
-10.220943 1.3673639 2.0389886
-10.257856 1.3570061 2.0639379
-10.310414 1.2676122 2.0982242
-10.309284 1.2273355 2.096787
-10.306372 1.1870903 2.094137
-10.296906 1.1466568 2.0870233
-10.30891 1.1076778 2.0945463
-10.296373 1.0267338 2.0846715
-10.307336 0.98773503 2.0914848
-10.297397 0.86671507 2.0827124
-10.299252 0.82669115 2.0833106
-10.297607 0.7467401 2.0808651
-10.30423 0.70693743 2.0847118
-10.319262 0.62729907 2.0936203
-10.308011 0.58689785 2.0852931
-10.301528 0.54671729 2.080214
-10.309936 0.50688231 2.0852752
-10.29824 0.3868151 2.0753229
-10.296524 0.34685579 2.0734925
-10.29458 0.26683375 2.0708413
-10.186181 0.15297762 1.9951786
-10.189314 0.068248004 1.995905
-10.196239 0.06443125 2.0005543
-10.288761 0.019268095 2.062773
-10.316886 -0.052494794 2.0807233
-10.290813 -0.13323243 2.0616393
-10.289099 -0.17319183 2.0598092
-10.291254 -0.21314485 2.0606134
-10.290353 -0.29314771 2.058672
-10.294769 -0.35325292 2.0606802
-10.29309 -0.41320646 2.0585425
-10.29633 -0.43301257 2.0604193
-10.302801 -0.51274556 2.0635006
-10.307641 -0.55251682 2.066134
-10.298695 -0.59294021 2.0593748
-10.306067 -0.67245948 2.0630727
-10.29652 -0.75292027 2.0552404
-10.304493 -0.79240221 2.0600109
-10.301579 -0.83264661 2.0573602
-10.307616 -0.87213206 2.0608137
-10.307687 -0.91212368 2.0601978
-10.310741 -0.95186257 2.0616174
-10.300076 -0.99258101 2.0536826
-10.306112 -1.0320663 2.0571363
-10.296716 -1.1124914 2.0494068
-10.304539 -1.1520091 2.0540745
-10.304607 -1.1920007 2.0534585
-10.307663 -1.2317398 2.054878
-10.302964 -1.2719519 2.0510132
-10.303034 -1.3119435 2.0503972
-10.30132 -1.3519031 2.0485673
-10.299605 -1.3918624 2.0467372
-10.296066 -1.4092941 2.0440392
-10.287768 -1.4319462 2.0380163
-10.283669 -1.4720155 2.0345614
-10.185627 -1.5481845 1.9665731
-10.251057 -1.5365636 2.0112958
-10.361756 -1.5451432 2.0864918
-10.406994 -1.5478467 2.1172345
-10.464086 -1.5363823 2.1562798
-10.492606 -1.5156535 2.1760337
-10.494688 -1.5143646 2.1774724
-10.509257 -1.5015937 2.1875994
-10.594321 -1.4744105 2.2459426
-10.632416 -1.4744854 2.2718668
-10.632332 -1.434954 2.2724662
-10.613131 -1.3553938 2.2607186
-10.62377 -1.3155957 2.2686195
-10.566122 -1.3601565 2.2286468
-10.52459 -1.4350015 2.1991389
-10.381735 -1.3924271 2.1026227
-10.372057 -1.3128853 2.0973563
-10.369616 -1.2725437 2.0963643
-10.371631 -1.232513 2.0983999
-10.368277 -1.1928457 2.0967758
-10.36732 -1.1526077 2.0967922
-10.363367 -1.1130829 2.0947578
-10.363297 -1.0730911 2.0953734
-10.361442 -1.0330672 2.094775
-10.375308 -0.95249307 2.1055491
-10.36957 -0.91293633 2.1023004
-10.37454 -0.8735733 2.1063366
-10.373013 -0.83255708 2.1059771
-10.375299 -0.79337555 2.1081829
-10.370787 -0.75261283 2.1057892
-10.378728 -0.71345675 2.1118431
-10.3846 -0.67388004 2.1164956
-10.380373 -0.63350606 2.1142895
-10.385656 -0.59361088 2.1185474
-10.378405 -0.51257789 2.1149561
-10.380119 -0.47261852 2.1167862
-10.388946 -0.43370879 2.1234391
-10.393644 -0.39349663 2.1273038
-10.397109 -0.33357203 2.1306565
-10.400657 -0.313182 2.1334095
-10.402707 -0.29314542 2.1351368
-10.394012 -0.25292096 2.1298871
-10.395727 -0.21296158 2.131717
-10.395629 -0.17389037 2.1322989
-10.403468 -0.13315921 2.1383097
-10.564943 -0.095398709 2.2488317
-10.401313 -0.093206614 2.1375062
-10.400187 -0.053694904 2.1373956
-10.404322 -0.025662035 2.1406744
-10.408329 0.066896856 2.1449373
-10.407659 0.10674581 2.1451426
-10.567649 0.14460993 2.2546558
-10.57076 0.064419299 2.2554419
-10.718428 0.10323578 2.3565841
-10.737257 0.063595772 2.368742
-10.737398 -0.016387552 2.3675106
-10.728058 -0.039058715 2.3607771
-10.711447 -0.076863497 2.348845
-10.711662 -0.19933799 2.3469591
-10.711728 -0.23683017 2.3463819
-10.711803 -0.27932131 2.3457279
-10.711868 -0.3168135 2.3451502
-10.721354 -0.37662518 2.3506136
-10.564459 -0.41285214 2.2432342
-10.721424 -0.41661686 2.3499978
-10.72893 -0.53645676 2.3531175
-10.606956 -0.63557005 2.2684603
-10.571988 -0.63543659 2.2446649
-10.558666 -0.67541635 2.2349346
-10.556651 -0.71544707 2.2328992
-10.571383 -0.79515696 2.2416031
-10.557975 -0.87539423 2.2311459
-10.565296 -0.89025426 2.2358823
-10.569439 -0.87517929 2.2389519
-1.0594997 -1.5384678 -4.244236
-1.1167307 -1.5390154 -4.2052951
-1.1287336 -1.5320003 -4.19701
-1.083343 -1.4919418 -4.2272367
-1.0484247 -1.4742492 -4.2507071
-1.0096869 -1.3141147 -4.2744141
-1.0028858 -1.2340871 -4.2777147
-0.98214388 -1.1138412 -4.2898359
-1.0093236 -1.0341386 -4.2700157
-1.0087237 -0.91415453 -4.2684326
-1.0058522 -0.75420201 -4.2677331
-5.6553965 -0.72885191 -1.102971
-5.6292086 -0.80845177 -1.1221147
-5.6314473 -0.84841347 -1.1212541
-5.6322355 -0.84879982 -1.1207238
-5.6632328 -0.86871791 -1.0999588
-5.753633 -0.86391675 -1.0383552
-5.7625065 -0.84903026 -1.0320692
-5.8558388 -0.81973422 -0.96806419
-5.9264803 -0.81023872 -0.91983008
-5.9801674 -0.81035638 -0.88329387
-6.0073895 -0.77058744 -0.86410743
-6.0197964 -0.75539726 -0.85541189
-5.9745855 -0.75529826 -0.88617909
-5.9293957 -0.76019835 -0.91701561
-5.8841753 -0.75759971 -0.94774806
-5.8649874 -0.76959771 -0.96100593
-5.7205477 -0.76898813 -1.059297
-5.6913471 -0.75159186 -1.0788813
-5.6625986 -0.71124238 -1.0977774
-10.571243 -0.7151736 2.2428343
-2.4869218 1.3664808 -3.224571
-2.5273738 1.3731793 -3.1969295
-2.5436373 1.3564855 -3.1861377
-2.5321875 1.3563585 -3.1939325
-2.5036077 1.3591663 -3.2133365
-2.4417186 1.3616049 -3.2554159
-2.4186869 1.3575155 -3.2711585
-2.3614187 1.3655622 -3.3099997
-2.3512707 1.3618518 -3.316968
-2.306036 1.364475 -3.3477097
-2.2876258 1.3633999 -3.3602569
-2.2774673 1.3647832 -3.3671477
-2.2469578 1.3666573 -3.3878806
-2.2322226 1.3699058 -3.3978548
-2.2203083 1.3703984 -3.4059551
-2.2369637 1.3705829 -3.3946168
-2.2607913 1.3695979 -3.3784168
-2.3041759 1.3686093 -3.3489072
-2.3327785 1.3708353 -3.3294041
-2.3797874 1.3740422 -3.2973578
-1.9471884 1.369813 -3.5918422
-1.963788 1.3650239 -3.5806243
-2.0375686 1.3696856 -3.5303342
-1.9757662 1.3770384 -3.572273
-1.9306006 1.3721027 -3.6030934
-1.873395 1.367651 -3.6420996
-1.8282423 1.3602157 -3.6729527
-1.7378368 1.3653425 -3.7343948
-1.7092466 1.3606169 -3.7539308
-1.6520028 1.3636642 -3.7928386
-1.6354408 1.3609544 -3.8041553
-1.606863 1.3537292 -3.8237243
-1.5616355 1.361292 -3.8543794
-1.4758773 1.3446157 -3.9130206
-1.3884039 1.3847772 -3.9718859
-1.4138865 1.3894633 -3.9544652
-1.4711051 1.3914154 -3.9154918
-1.5208673 1.3845468 -3.8817389
-1.5449481 1.3835788 -3.8653665
-1.5946722 1.3842092 -3.8315151
-1.6684036 1.3988696 -3.7810926
-1.7147045 1.383821 -3.7498312
-1.7708864 1.3857599 -3.7115631
-1.7874618 1.38597 -3.7002792
-1.8447175 1.3804231 -3.6614048
-1.9064827 1.3805695 -3.6193666
-1.9601383 -1.3177018 -3.6276245
-1.9589081 -1.2369672 -3.6271222
-1.9360895 -1.1575005 -3.6413333
-1.9620061 -1.2373654 -3.6250203
-1.9672785 -1.2778925 -3.6221046
-4.8673668 1.3824641 -1.6042459
-4.8829269 1.3718823 -1.5938319
-4.9613705 1.3821801 -1.5402747
-4.9894233 1.3811492 -1.5211998
-5.0018988 1.3813068 -1.5127069
-5.0280213 1.3818101 -1.4949201
-5.0638075 1.3663979 -1.4708208
-5.0757751 1.3608568 -1.4627681
-5.1090431 1.3612772 -1.44012
-5.1210003 1.3582358 -1.4320327
-5.1750612 1.3805066 -1.3948708
-5.2233086 1.3749491 -1.3621274
-5.2399426 1.3751593 -1.3508033
-5.2707815 1.3976994 -1.3294412
-5.3445477 1.4047455 -1.279121
-5.2540779 1.4149866 -1.3405223
-5.1955066 1.4610606 -1.3796196
-5.1657777 1.4680989 -1.3997355
-5.1507416 1.4611021 -1.4100847
-5.072361 1.4612807 -1.463425
-5.0467558 1.4711727 -1.4806871
-4.9721184 1.4216194 -1.5323052
-4.9280624 1.3917581 -1.5627842
-4.8709397 1.3824226 -1.6018151
-8.1563234 -1.5545477 0.58538401
-8.3205757 -1.5531766 0.69719219
-8.3372517 -1.5528641 0.70854664
-8.3943577 -1.5488983 0.74747682
-8.47293 -1.5409787 0.80108213
-8.5419388 -1.5503393 0.84789193
-8.5586147 -1.5500267 0.85924649
-8.5931168 -1.5375396 0.88293469
-8.603817 -1.5327344 0.89029658
-8.6589355 -1.4987782 0.92837179
-8.6942215 -1.4981496 0.95239758
-8.7061033 -1.4989789 0.9604696
-8.7096729 -1.4990433 0.9628979
-8.7394638 -1.5033526 0.98310161
-8.7966051 -1.5193826 1.0217239
-8.7182484 -1.6179411 0.96676135
-8.711175 -1.6553042 0.96132743
-8.5919628 -1.5469021 0.88199401
-8.5237198 -1.6562555 0.83373499
-8.5152378 -1.6562172 0.82796359
-8.4714632 -1.6570377 0.79815793
-8.4611969 -1.6569673 0.79117239
-8.3630323 -1.6551915 0.72439408
-8.3541174 -1.6600291 0.71824622
-8.3088923 -1.664824 0.68738806
-8.2323742 -1.6552083 0.63547122
-5.7230268 -1.5193285 -1.0700607
-5.711051 -1.5162166 -1.0781595
-5.7064047 -1.5195851 -1.0813775
-10.729005 -0.5789479 2.3524632
-10.755022 -0.55596423 2.3705509
-10.747969 -0.51557744 2.3664212
-0.9258399 0.22639367 -4.3059149
-0.89414549 0.1468727 -4.328805
-0.9223609 0.22658828 -4.3082795
-0.91141176 0.34687886 -4.313735
-2.1851549 1.37401 -3.4298196
-2.1750741 1.3730216 -3.4366968
-2.1917396 1.3707064 -3.4253931
-1.9567614 -1.3576623 -3.6305859
-1.9576402 -1.4372876 -3.631309
-1.8999267 -1.5324556 -3.6721666
-1.8879361 -1.5419704 -3.6804848
-1.9330764 -1.5320355 -3.6495986
-1.9449792 -1.505023 -3.6410496
-1.9618955 -1.4769523 -3.629071
-1.97753 -1.3846186 -3.6168988
-4.1574254 1.3862638 -2.0873477
-4.173502 1.3860774 -2.0764093
-4.2353115 1.3961649 -2.0341763
-4.1614952 1.4016171 -2.0843234
-4.1390047 1.3860743 -2.0998874
-6.8718333 -1.5570605 -0.28884339
-6.9409657 -1.5436338 -0.24157125
-6.9575896 -1.5483088 -0.23033503
-6.9742231 -1.5554835 -0.21913387
-6.9290195 -1.555392 -0.24989647
-6.8838339 -1.5602996 -0.28072986
-8.1845026 1.3929646 0.65347183
-8.2130156 1.4174428 0.6732831
-8.2582493 1.4172387 0.70406425
-8.246376 1.413069 0.6959151
-8.2011738 1.3957767 0.6648649
-8.48736 -0.26093179 0.83214343
-8.4564314 -0.27598298 0.81084478
-8.4516706 -0.29712132 0.80725384
-8.4684172 -0.3368004 0.81799257
-8.4802656 -0.37604538 0.82540512
-8.485199 -0.39647454 0.82842338
-8.516818 -0.45764711 0.84892762
-8.5240412 -0.49730748 0.85318506
-8.5258827 -0.53779191 0.85376668
-8.5570297 -0.64771467 0.87314069
-8.5606174 -0.65777719 0.87541521
-8.5947399 -0.77836561 0.89663672
-8.6026239 -0.85287595 0.90076602
-8.5628939 -0.93775117 0.87231874
-8.5814953 -1.0174541 0.88365543
-8.5557356 -1.0976601 0.86479354
-8.5578375 -1.1076189 0.86605883
-8.5864162 -1.1206329 0.88529289
-8.6197777 -1.1250067 0.90792489
-8.6411476 -1.0978997 0.92291832
-8.7407675 -1.0584061 0.99137187
-8.783947 -1.0761455 1.0204642
-8.8292198 -1.0988449 1.0508991
-8.9071388 -1.1008686 1.1038949
-8.9268026 -1.1187201 1.1169811
-8.9033394 -1.2870264 1.0982196
-8.9720402 -1.1214236 1.1477237
-9.0214911 -1.1410847 1.1810522
-9.0794678 -1.283985 1.2181383
-9.0722027 -1.301618 1.2129015
-9.0694199 -1.342518 1.2103285
-9.0334339 -1.421272 1.1845311
-9.0157862 -1.4615959 1.1718512
-8.9441719 -1.5133252 1.1222545
-8.9775295 -1.5151995 1.144925
-9.0298748 -1.5005358 1.1807935
-9.0953712 -1.5423253 1.2246745
-9.1370392 -1.5449641 1.2529889
-9.1537104 -1.542152 1.2643815
-9.1620483 -1.5419958 1.2700588
-9.1798706 -1.5432394 1.2821672
-9.2274923 -1.5378736 1.3146663
-9.1822634 -1.540169 1.2838467
-9.1250792 -1.4991443 1.2456095
-9.100585 -1.4624386 1.2295486
-9.0915995 -1.4272846 1.2240168
-9.0852671 -1.3824111 1.2204515
-9.0919933 -1.3017073 1.2263682
-9.1151257 -1.2621354 1.2427682
-9.1196213 -1.1228646 1.2481387
-9.1194801 -1.0428813 1.2493705
-9.0171204 -1.0341457 1.1798518
-8.9718781 -1.0289428 1.149148
-8.9028826 -1.0270805 1.1022227
-8.8698502 -0.85963738 1.0825198
-8.8745213 -0.82034576 1.0863507
-8.8750629 -0.77975094 1.0873938
-8.8690081 -0.73026764 1.0840938
-8.898056 -0.66019559 1.1050253
-9.0181351 -0.66064018 1.1867404
-9.0331602 -0.67140859 1.1967872
-9.0718489 -0.66088235 1.2232925
-9.038496 -0.66150755 1.2005835
-8.0703001 1.3800339 0.57553482
-8.0655136 1.3738933 0.57217538
-8.0250759 1.375239 0.54467666
-8.0083904 1.3799254 0.53339922
-7.9631662 1.3751304 0.5025413
-8.0202808 1.3740971 0.54139423
-7.5912585 1.3759094 0.24944481
-7.5746078 1.3781341 0.23814979
-7.5579877 1.3728598 0.22675094
-7.5458674 1.37138 0.21847787
-7.5775557 1.3684225 0.23999491
-7.6227803 1.3732175 0.27085283
-5.9610448 -1.5204362 -0.90809131
-5.8872261 -1.5149822 -0.95823956
-5.9159751 -1.5553317 -0.93934321
-5.9325972 -1.5550752 -0.92802644
-5.9995608 -1.5314348 -0.88206077
-6.0182409 -1.5261469 -0.86925983
-5.9896326 -1.5207919 -0.88864088
-6.2083344 1.3774191 -0.69170702
-6.1538711 1.4481642 -0.72759932
-6.0990682 1.4204248 -0.76535678
-6.087121 1.4209665 -0.77347863
-6.0585198 1.4262974 -0.79285538
-6.0252619 1.4233773 -0.81553823
-6.0164633 1.4164596 -0.82164097
-5.9848528 1.3942548 -0.84352267
-6.0517936 1.4155205 -0.79761183
-6.101048 1.4087895 -0.7642023
-6.1157618 1.4056371 -0.75424087
-6.1511192 1.3931502 -0.73038507
-5.5494032 1.3781804 -1.1401433
-5.580328 1.3782248 -1.119096
-5.6398339 1.3779378 -1.0786029
-5.5826216 1.3910991 -1.1173217
-5.5253992 1.40676 -1.1560055
-5.5087752 1.4040501 -1.1673644
-5.4516029 1.4072127 -1.2062217
-5.534337 1.3786829 -1.1503885
-3.2415802 -1.5165253 -2.7588127
-3.2189946 -1.5407757 -2.7745862
-3.2641947 -1.5383751 -2.7437844
-3.3665712 -1.5366861 -2.674082
-3.4569924 -1.5368842 -2.6125474
-3.514138 -1.5300967 -2.5735431
-3.5473826 -1.5295833 -2.5509093
-3.5427163 -1.5279528 -2.5540581
-3.4687264 -1.4800054 -2.6036177
-3.4432185 -1.3572131 -2.6189401
-3.4680214 -1.3050325 -2.6011941
-3.4842713 -1.21229 -2.5885959
-3.5230267 -1.1574941 -2.561311
-3.4838886 -1.1173049 -2.5872803
-3.4100902 -1.1168501 -2.6374977
-3.3483078 -1.1295058 -2.679755
-3.3197198 -1.12915 -2.6992052
-3.2911518 -1.1337936 -2.7187247
-3.2339756 -1.1330823 -2.7576253
-3.2053976 -1.1352261 -2.7771101
-3.1316092 -1.137271 -2.8273623
-3.1149867 -1.1375277 -2.8386796
-3.053134 -1.132686 -2.8806942
-3.0411882 -1.1370728 -2.8888969
-2.973381 -1.1379718 -2.9350593
-2.9567864 -1.1357142 -2.9463158
-2.9221492 -1.1290202 -2.9697776
-2.8829181 -1.1255316 -2.9964194
-2.8483407 -1.1260657 -3.0199606
-2.8317282 -1.1288221 -3.0313122
-2.7639387 -1.1278762 -3.0774322
-2.7307494 -1.1233611 -3.0999448
-2.6974962 -1.1602412 -3.123188
-2.6573145 -1.1806697 -3.1508734
-2.6431365 -1.2005606 -3.1608527
-2.6171484 -1.2549917 -3.1794424
-2.595849 -1.2798287 -3.1943505
-2.5887761 -1.2922739 -3.1993704
-2.5438414 -1.3322978 -3.2306159
-2.5305481 -1.3599912 -3.2401226
-2.5278726 -1.4275279 -3.2430642
-2.4951324 -1.493004 -3.2664325
-2.5116787 -1.4877626 -3.2550845
-2.6001978 -1.5202305 -3.1953797
-2.6635559 -1.5202911 -3.1522613
-2.7098677 -1.5205218 -3.1207466
-2.7499421 -1.5305672 -3.0936399
-2.6906586 -1.3608867 -3.131171
-2.7391698 -1.3208892 -3.097492
-2.8939259 -1.3540863 -2.9927204
-2.9067354 -1.4292303 -2.9852495
-2.8701787 -1.5139898 -3.0115354
-2.8237464 -1.5307511 -3.0434139
-2.7785714 -1.5332799 -3.0742006
-4.7271848 -1.6038703 -1.7492039
-4.6589961 -1.5305367 -1.7943943
-4.7449417 -1.5765967 -1.7366664
-4.8471675 -1.5374134 -1.6664447
-4.7564802 -1.603916 -1.729267
-4.7357025 -1.604237 -1.7434131
-6.5898461 -0.77040857 -0.46770209
-6.647625 -0.78817862 -0.42867422
-6.6556044 -0.81192011 -0.42363772
-6.6265602 -0.83205867 -0.44373855
-6.5979624 -0.83164322 -0.46319437
-6.5859709 -0.83090353 -0.47134316
-6.5407672 -0.8308121 -0.50210601
-6.4903011 -0.81082559 -0.53612006
-6.4296446 -0.83362746 -0.57777947
-6.4010563 -0.83327174 -0.59722984
-6.372468 -0.83291602 -0.6166802
-6.3558459 -0.83317268 -0.62799704
-6.3438802 -0.83256042 -0.63613039
-6.3313551 -0.83003068 -0.64461267
-6.3021646 -0.81017661 -0.66414946
-6.343719 -0.79256666 -0.63557637
-6.3863153 -0.76914728 -0.60619789
-6.4094872 -0.75198805 -0.5901432
-6.4546909 -0.75207949 -0.55938035
-6.5571718 -0.77549797 -0.49002343
-10.590009 -1.0758106 2.2496219
-10.594279 -1.1332203 2.2515755
-10.619989 -1.1955563 2.2680385
-10.623348 -1.0756458 2.2723145
-10.57262 -0.99536157 2.2391226
-10.745014 -0.1987128 2.369668
-10.754354 -0.17604165 2.3764014
-10.737539 -0.096370906 2.3662789
-10.747092 -0.015679926 2.3741195
-10.754004 0.023916662 2.3794808
-10.847458 0.10355067 2.4444034
-10.863489 0.11279759 2.4554677
-10.880131 0.13310602 2.4671304
-10.850944 0.14301735 2.4474311
-10.841133 0.14342514 2.4407611
-10.760919 0.2415081 2.3877969
-10.760843 0.28399929 2.3884511
-10.710294 0.34409311 2.3550458
-10.72016 0.30323324 2.3610823
-10.713388 0.18365321 2.3544893
-10.572333 0.18436202 2.2585034
-10.563454 0.15952864 2.252048
-10.409232 0.22668853 2.1482038
-10.412146 0.26693329 2.1508548
-10.538072 0.38493374 2.2385139
-10.557848 0.38438413 2.2519641
-10.706301 0.50431895 2.3549864
-10.70616 0.58430219 2.3562181
-10.579323 0.61974549 2.2704844
-10.508883 0.74537528 2.2246299
-10.512468 0.82555997 2.2284005
-10.533549 0.92738533 2.2444377
-10.512258 0.94553506 2.230248
-10.480433 1.0259763 2.2099247
-10.539135 1.1453464 2.2518559
-10.566485 1.1654611 2.2708032
-10.480096 1.2263952 2.2130203
-10.710154 0.42407647 2.356277
-2.0317993 -0.79274476 -3.5701432
-2.0734382 -0.7977736 -3.5418887
-2.0898547 -0.95827043 -3.5333793
-2.040288 -0.79819375 -3.5644565
-2.3862391 -1.1920897 -3.3355489
-2.345521 -1.1788337 -3.3630404
-2.312346 -1.1742545 -3.3855422
-2.3687911 -1.279407 -3.3488722
-2.3869553 -1.2392194 -3.3358433
-2.4029012 -1.2093774 -3.3244958
-2.4083033 -1.1986586 -3.3206418
-2.4028387 -1.196879 -3.324331
-2.8742387 -1.5207634 -3.0088847
-2.9404027 -1.5337008 -2.9640701
-2.9690011 -1.5365561 -2.9446542
-2.9975891 -1.5369117 -2.925204
-3.0142317 -1.5416543 -2.9139562
-3.083323 -1.5304801 -2.8667493
-3.1011729 -1.3552456 -2.8516936
-3.1562557 -1.315968 -2.813554
-3.2427225 -1.3565724 -2.7553811
-4.616292 1.3808609 -1.7751467
-4.571106 1.3734833 -1.8060212
-4.5305476 1.3818555 -1.8334851
-4.5424852 1.3838134 -1.8253285
-4.5590992 1.3890228 -1.8139348
-4.5923872 1.384444 -1.791356
-4.6239843 1.3836743 -1.7698648
-4.632926 1.3810712 -1.7638227
-7.1602011 1.4330091 -0.042972505
-7.1149626 1.4381001 -0.073675871
-7.0698256 1.418195 -0.10472527
-7.1103497 1.4146869 -0.077204019
-7.1836991 1.4025614 -0.027485669
-7.2175674 1.3797842 -0.0048139989
-7.2295046 1.3791425 0.0032993257
-5.4302721 1.4087502 -1.2207134
-5.4063778 1.4098337 -1.2369572
-5.3611822 1.4049557 -1.2677969
-5.4017005 1.4065821 -1.2401941
-7.5323224 1.3686265 0.20921376
-7.5127697 1.3729515 0.19597849
-7.5526052 -1.5488015 0.17460671
-7.5541196 -1.5479541 0.1756514
-7.5978088 -1.5488931 0.20536956
-7.7302446 -1.5424134 0.29560861
-7.8047662 -1.6100167 0.3452042
-7.8124914 -1.6104635 0.3504543
-7.8302097 -1.6101314 0.36251846
-7.9230804 -1.5565559 0.42661241
-7.8492813 -1.5508363 0.37648174
-7.8040128 -1.5306365 0.34600863
-7.7183504 -1.5340858 0.28765199
-6.2701931 1.3776026 -0.64960474
-6.253583 1.3698287 -0.66103822
-6.2369423 1.3695537 -0.67236787
-4.2733512 -1.5210207 -2.0566947
-4.2544012 -1.5217118 -2.0696032
-4.2567291 -1.5212773 -2.0680115
-4.9542003 -1.5348554 -1.5935588
-4.9089799 -1.5322567 -1.6242913
-4.9209657 -1.5378683 -1.6162273
-4.9256225 -1.5369993 -1.6130437
-10.754637 -0.33600834 2.3739383
-10.747618 -0.31561911 2.3695004
-10.730837 -0.25594255 2.3590698
-9.8936777 1.374248 1.8163749
-9.90555 1.3784178 1.824524
-9.8912754 1.376176 1.814772
-9.8746033 1.373364 1.8033792
-5.9349904 1.3836256 -0.87763381
-5.8898048 1.376248 -0.90850818
-5.9195004 1.3767098 -0.88829076
-5.9516144 1.3863355 -0.86627513
-5.7874269 1.3770323 -0.97817051
-5.7754698 1.3800737 -0.98625779
-5.7468982 1.3779055 -1.0057386
-5.8814306 1.3767483 -0.91419929
-5.8326621 1.3719116 -0.94746977
-5.8177948 1.37668 -0.95750904
-5.845118 1.3770685 -0.93890727
-8.5111217 -0.26259011 0.84828711
-8.5729694 -0.2274888 0.89096189
-8.5914478 -0.23720641 0.90337646
-8.7373056 -0.27360791 1.0020387
-8.6017542 -0.35797903 0.90838659
-8.6107492 -0.39813137 0.91384161
-8.618536 -0.41765395 0.9188174
-8.6174345 -0.45701021 0.91741443
-8.6274309 -0.49852508 0.92352879
-8.6544437 -0.53827465 0.94125319
-8.7045584 -0.61916208 0.97401786
-8.8105888 -0.57928526 1.0468404
-8.8585739 -0.53701079 1.0801997
-8.9022207 -0.64965916 1.1080348
-9.8464069 -1.5641503 1.7354454
-9.8465919 -1.6691289 1.7338287
-9.760745 -1.5675997 1.6770891
-9.698822 -1.5602098 1.6350688
-9.7583427 -1.5656713 1.6754862
-5.1423311 -1.5317338 -1.4654709
-5.2337565 -1.6464573 -1.405153
-5.2497568 -1.6266605 -1.3939353
-5.2802868 -1.529098 -1.3715386
-5.2493539 -1.5266761 -1.3925503
-5.2327318 -1.5269326 -1.4038671
-5.2161093 -1.5271891 -1.415184
-5.1886101 -1.5259213 -1.4338781
-5.1716566 -1.5258842 -1.4454157
-6.7527828 -1.5439643 -0.36964843
-6.7029462 -1.5399374 -0.40349871
-6.6909366 -1.5341986 -0.41157693
-6.6050797 -1.5154551 -0.46969762
-6.6622567 -1.5112871 -0.43071544
-6.7247143 -1.5320133 -0.38855261
-6.5719314 -1.5336002 -0.49255839
-6.5356555 -1.5311391 -0.51720589
-6.4690037 -1.530736 -0.56256038
-6.4529448 -1.5380008 -0.57361019
-6.4324436 -1.5285197 -0.58740532
-6.3625193 -1.5328188 -0.63506508
-6.3392749 -1.5299817 -0.65083754
-6.3300672 -1.5302088 -0.65710759
-6.3134551 -1.5329651 -0.66845918
-6.2848873 -1.5376086 -0.68797863
-6.2682548 -1.5353656 -0.69926089
-6.2601295 -1.5343958 -0.70477462
-6.2315321 -1.5339804 -0.72423041
-6.2064905 -1.5286176 -0.74118388
-6.1886168 -1.528358 -0.75334382
-6.176394 -1.5281096 -0.76165819
-6.1707435 -1.5280981 -0.76550364
-6.1538825 -1.5289437 -0.77699292
-6.1457114 -1.5252349 -0.78249222
-6.1990223 -1.5115454 -0.7459833
-6.2882247 -1.3973362 -0.68337965
-6.3376641 -1.3333074 -0.64867008
-6.3784666 -1.2094954 -0.6188466
-6.3904014 -1.2098101 -0.6107294
-6.4833193 -1.2498788 -0.54815733
-6.5209994 -1.290417 -0.52318573
-6.5307117 -1.3599763 -0.51773012
-6.527781 -1.4100281 -0.52055526
-6.5884461 -1.5082808 -0.4808988
-10.728654 -0.37898958 2.3555424
-8.7225285 1.3768777 1.019369
-8.7963448 1.3611603 1.0693457
-8.8082123 1.3678296 1.0775335
-2.7831795 -1.5425812 -3.0712187
-7.1722083 1.4148704 -0.035101742
-8.3082647 1.4256749 0.73824334
-8.3201542 1.4198469 0.74623847
-8.3320436 1.4140188 0.7542336
-8.3581171 1.4045092 0.77182055
-8.394001 1.386633 0.79594553
-8.4058952 1.3783054 0.80390203
-8.4392519 1.3764312 0.82657266
-8.3820763 1.4124571 0.78825855
-8.3487244 1.4118319 0.76554954
-6.3943939 1.3836187 -0.56497765
-6.3844628 1.3861341 -0.57169479
-6.3658128 1.3839501 -0.58442372
-6.3106775 1.3840929 -0.62194479
-6.3205876 1.386571 -0.61515915
-6.3372316 1.3842816 -0.60386974
-6.8100328 -1.5597925 -0.33094829
-6.7933631 -1.5426198 -0.34200832
-9.817503 1.3668985 1.7644104
-9.8032284 1.364658 1.7546591
-9.7865486 1.366845 1.7433432
-9.7889462 1.3674152 1.7449843
-9.8198967 1.3699696 1.7660908
-9.8603249 1.3736228 1.793666
-2.8499517 -1.5260037 -3.0255005
-8.7825909 -0.30380642 1.0323573
-8.7944717 -0.30463555 1.0404295
-8.8163166 -0.27922976 1.0557175
-8.8110867 -0.26932949 1.0523231
-8.7669134 -0.27910393 1.0220978
-8.765871 -0.27912346 1.0213879
-9.3350601 -1.5440121 1.3877716
-9.3921738 -1.5450451 1.4266248
-9.3298531 -1.5466092 1.3841851
-9.3131771 -1.5469216 1.3728306
-9.2846155 -1.5439056 1.3534425
-9.3179722 -1.5457799 1.3761131
-8.8703909 -1.5176036 1.0719701
-8.9037428 -1.5169784 1.0946786
-8.8585234 -1.5242729 1.0637825
0 0 0 1 0 0 0 1 0 0 0 1 0 0 0 0 0 777 1 0 0
