ply
format ascii 1.0
comment PCL generated
element vertex 517
property float x
property float y
property float z
element camera 1
property float view_px
property float view_py
property float view_pz
property float x_axisx
property float x_axisy
property float x_axisz
property float y_axisx
property float y_axisy
property float y_axisz
property float z_axisx
property float z_axisy
property float z_axisz
property float focal
property float scalex
property float scaley
property float centerx
property float centery
property int viewportx
property int viewporty
property float k1
property float k2
end_header
-10.874339 1.3526685 0.30377412
-10.866645 1.3603195 0.29936862
-10.78981 1.3659683 0.25365686
-10.903431 1.2721255 0.31917548
-10.897504 1.3122234 0.31661367
-10.868935 -1.3884468 0.23389268
-10.824358 -1.5079888 0.20438528
-10.787058 -1.5376136 0.18140721
-10.756437 -1.5419941 0.16302776
-10.679501 -1.5138555 0.11780214
-10.524087 -1.5451123 0.024301767
-10.418583 -1.54627 -0.038683772
-10.372484 -1.5612297 -0.066555738
-10.311173 -1.5549974 -0.10299063
-10.354191 -1.5026637 -0.076048017
-10.383502 -1.423353 -0.056628585
-10.402342 -1.3435512 -0.043445826
-10.49443 -1.3345151 0.011725426
-10.530151 -1.3849279 0.031816006
-10.631967 -1.4263971 0.09156394
-10.633907 -1.4263241 0.092723608
-10.670373 -1.4267226 0.11447382
-10.817204 -1.4282798 0.2020545
-10.993784 -0.86765468 0.3210578
-10.994146 -0.9476192 0.31932998
-10.938517 -0.97238159 0.285532
-9.1536627 1.3871502 -0.72216666
-9.1075077 1.3846848 -0.7497685
-9.1843977 1.3665417 -0.70432734
-7.9155946 -0.10913602 -1.4973445
-7.9616251 -0.07918296 -1.4691486
-7.9926472 -0.07301794 -1.4504869
-8.0232687 -0.068637408 -1.4321076
-8.0695143 -0.086163275 -1.4049374
-8.1001368 -0.081782743 -1.3865578
-8.1769361 -0.079934746 -1.3406842
-8.2687445 -0.05429871 -1.2852762
-8.3304558 -0.058746494 -1.2485595
-8.3448601 -0.025713772 -1.2391604
-8.4074097 0.013032921 -1.2008929
-8.4606838 0.053310879 -1.1681232
-8.6201267 0.052227952 -1.0730052
-8.6414013 0.011932872 -1.0612898
-8.8065605 0.00040406734 -0.96301508
-8.8338728 -0.11008722 -0.94940364
-8.8407955 -0.1500372 -0.946244
-8.8686543 -0.17825167 -0.93030596
-8.8396721 -0.33003199 -0.95129156
-8.8387928 -0.3500579 -0.95230317
-8.8350039 -0.37019661 -0.95505416
-8.8351431 -0.38996294 -0.95545125
-8.8332443 -0.4102518 -0.95707798
-8.8315859 -0.4498609 -0.95903087
-8.836092 -0.61009014 -0.96023786
-8.8977938 -0.69106603 -0.92538798
-8.8885803 -0.77083772 -0.93282557
-8.8868465 -0.8107813 -0.93483162
-8.8717289 -0.85545278 -0.9449389
-8.9436665 -0.8512882 -0.90191042
-8.9887381 -0.85191602 -0.8750304
-9.055995 -0.85737175 -0.83502853
-9.158577 -0.85382456 -0.77372861
-9.1749191 -0.85387361 -0.763978
-9.1724596 -0.73388827 -0.76252806
-9.1701813 -0.65388519 -0.76194227
-9.1809464 -0.49418765 -0.75163448
-9.1979303 -0.39368528 -0.73905587
-9.1978397 -0.37369585 -0.73862386
-9.1880817 -0.33352074 -0.74346995
-9.1762381 -0.25582194 -0.74864793
-9.1664343 -0.2336967 -0.75395989
-9.1775064 -0.11342374 -0.74442816
-9.1754093 -0.073402919 -0.74470627
-9.1788769 0.0064844266 -0.74069428
-9.1767807 0.046505265 -0.7409724
-9.193655 0.12612253 -0.72896659
-9.1973038 0.16602764 -0.72581899
-9.1737576 0.24556282 -0.73793578
-9.1462498 0.3653805 -0.75143707
-9.1801481 0.52528423 -0.72732019
-9.106329 0.48561615 -0.77233505
-9.0355825 0.64645141 -0.81064022
-9.1755915 0.6852904 -0.72614825
-9.1048775 0.80547422 -0.7654233
-9.1056662 0.84549296 -0.76397943
-9.0356464 0.84639919 -0.80574024
-8.9594421 0.92705095 -0.84925234
-8.9262505 0.84759432 -0.87099099
-8.8579264 0.68860805 -0.91562808
-8.7880878 0.64953196 -0.95825267
-8.7487125 0.64982098 -0.98174214
-8.6792622 0.53089195 -1.0260776
-8.6465025 0.53065556 -1.0456319
-8.6042643 0.55399436 -1.0702693
-8.527544 0.53465408 -1.1165208
-8.4998217 0.5328818 -1.1331066
-8.4268913 0.53367865 -1.1766071
-8.3789654 0.49365705 -1.2061789
-8.3070059 0.49449039 -1.2490994
-8.2715111 0.49492526 -1.2702696
-8.2360163 0.49536002 -1.2914398
-8.2738142 0.4150337 -1.270838
-8.3135719 0.24053675 -1.2513566
-8.2445469 0.21354553 -1.2932022
-8.1834402 0.17479777 -1.3306088
-8.1698322 0.17417559 -1.3387437
-8.1354332 0.1752046 -1.3592463
-8.0681982 0.20370805 -1.3986738
-8.0220442 0.20124277 -1.4262756
-7.9913883 0.20435891 -1.4444931
-7.9607434 0.20497617 -1.4627645
-7.9142218 0.19322973 -1.4908111
-7.868433 0.20004565 -1.5179689
-7.852922 0.19696316 -1.5272998
-7.8222775 0.19758043 -1.5455712
-7.7606797 0.1770393 -1.582828
-7.7568488 0.17711642 -1.5851121
-7.7271247 0.1775471 -1.602839
-7.6837778 0.19768131 -1.6282157
-7.6016026 0.17980292 -1.6776868
-7.554492 0.1797232 -1.7058012
-7.4441195 0.22182778 -1.77064
-7.4554648 0.10150333 -1.7667956
-7.452764 -0.058386791 -1.7722955
-7.4475803 -0.13827789 -1.7773314
-7.4100881 -0.28834909 -1.8033537
-7.4103703 -0.32833427 -1.8041575
-7.3954 -0.39883617 -1.8148052
-7.3897195 -0.40874696 -1.8184359
-7.3660078 -0.5418148 -1.8358213
-7.4425349 -0.5022136 -1.7891921
-7.4435291 -0.37811306 -1.785581
-7.4393826 -0.32725 -1.7868187
-7.4412112 -0.31478316 -1.7854244
-7.4439168 -0.2871944 -1.783139
-4.3300171 -1.4194117 -3.6688285
-4.299274 -1.4141003 -3.6870451
-4.2491312 -1.3942685 -3.7164843
-4.2520046 -1.3943397 -3.7147717
-4.2875175 -1.3944921 -3.6935835
-4.291337 -1.3946989 -3.6913095
-4.3202543 -1.3936521 -3.6740284
-2.1842442 -0.38952872 -4.9242315
-2.1137052 -0.44906238 -4.967772
-2.1127253 -0.32910261 -4.9654398
-2.1261554 -0.32925925 -4.9574299
-11.073527 -0.24869475 0.38369489
-11.057642 -0.16931385 0.3761456
-11.072983 -0.128748 0.38628674
-11.057558 -0.10594935 0.37763691
-10.994257 -0.12805852 0.33932495
-10.982928 -0.20868382 0.33060431
-10.973604 -0.30934051 0.32259297
-10.98566 -0.38864419 0.32785797
-10.98575 -0.40863365 0.3274262
-10.985841 -0.42862648 0.32699418
-10.993883 -0.46787077 0.33083916
-10.993611 -0.40789568 0.3321352
-10.99334 -0.34792405 0.33343101
-10.98085 0.67088717 0.35075331
-10.983492 0.51091951 0.34843946
-10.991897 0.39171073 0.35055637
-11.030947 0.27188465 0.37094498
-11.055959 0.24639425 0.38525057
-11.079699 0.27051052 0.40000319
-11.086411 0.28825811 0.40443969
-11.103364 0.35038319 0.41606712
-11.08766 0.3897818 0.40765452
-11.085684 0.44818705 0.40789557
-11.08531 0.53065044 0.40967751
-11.069897 0.55095023 0.4009738
-11.054291 0.61373115 0.39318776
-10.976838 0.71094656 0.34933329
-10.899796 0.80744749 0.30570674
-10.901598 0.83239782 0.30738854
-10.889561 0.95257604 0.30312824
-10.911386 1.0328219 0.31810331
-10.898582 1.0748289 0.3114841
-10.921213 1.1518314 0.32686162
-8.638175 -1.4484549 -1.0987279
-8.7134085 -1.5291433 -1.0557958
-8.6516571 -1.4483904 -1.0906811
-7.3656106 -1.0473263 -1.848351
-7.3550501 -0.92798424 -1.8517507
-7.3636107 -0.88685179 -1.8456421
-7.3679748 -0.85820967 -1.8423413
-7.4007926 -0.88858849 -1.8234967
-7.3628464 -0.92734236 -1.8470827
-6.05409 -1.0407137 -2.6308136
-6.0808001 -1.0418684 -2.614903
-6.1099663 -1.0815253 -2.5984631
-6.1467209 -1.1217684 -2.5775089
-6.2334785 -1.1618075 -2.5267119
-6.2028236 -1.1638508 -2.5450544
-6.1605029 -1.1614805 -2.5702507
-6.1260138 -1.1634667 -2.5908799
-6.0505543 -1.0805473 -2.6338923
-3.3403969 -0.74016231 -4.2428474
-3.3865578 -0.74496007 -4.2154183
-3.4172289 -0.74277383 -4.1970625
-3.5093145 -0.74371272 -4.1421356
-3.5246599 -0.73570162 -4.1327839
-3.632139 -0.73362774 -4.0685968
-3.6935489 -0.7204178 -4.0316305
-3.7242684 -0.72322983 -4.0133677
-3.7856827 -0.7263549 -3.9767962
-3.801028 -0.71834385 -3.9674442
-3.8278205 -0.71378684 -3.9513454
-3.7943931 -0.83389747 -3.9742136
-3.7966974 -0.87390375 -3.9738114
-3.8031015 -0.93327254 -3.9714334
-3.8209462 -0.99342865 -3.9622478
-3.8155766 -1.0333567 -3.966423
-3.8125112 -1.113291 -3.970196
-3.7898777 -1.1612107 -3.9848676
-3.7485104 -1.1537533 -4.0093713
-3.7351606 -1.1528627 -4.0173159
-3.6539202 -1.1928974 -4.0667677
-3.6491022 -1.1930579 -4.0696468
-3.6155159 -1.1928412 -4.0896835
-3.5439589 -1.1375546 -4.1310391
-3.5033603 -1.1128222 -4.154664
-3.4674881 -1.0724317 -4.1750879
-3.4283128 -0.99240214 -4.1965189
-3.3887281 -0.96988541 -4.219593
-3.3146417 -0.95218271 -4.2633719
-3.2366765 -0.83211011 -4.3069763
-3.079592 -0.87200058 -4.4016833
-3.0770342 -0.91258609 -4.4041967
-3.0745819 -0.95216662 -4.4066224
-3.0660541 -0.96745056 -4.4120827
-3.0630186 -0.95255178 -4.4135323
-3.0578146 -0.91272557 -4.415669
-2.9461436 -0.79601389 -4.4794683
-2.8231916 -0.7921074 -4.5527425
-2.7905655 -0.79046088 -4.5721712
-2.684772 -0.76485342 -4.6346788
-2.6384768 -0.74246883 -4.6617603
-2.6999989 -0.75004518 -4.6252327
-2.7153072 -0.74523365 -4.6159801
-2.745923 -0.7356106 -4.597477
-2.7920141 -0.73300356 -4.56991
-2.8363504 -0.75036639 -4.5438752
-2.8987007 -0.751167 -4.5066881
-2.9437923 -0.75167388 -4.4797931
-2.9641867 -0.75183976 -4.4676275
-2.9918671 -0.74842185 -4.451026
-3.0458121 -0.7517916 -4.4189177
-3.1103587 -0.7798121 -4.3810821
-3.1715078 -0.75544631 -4.3439999
-3.1791928 -0.75269032 -4.3393474
-3.1869011 -0.75243354 -4.3347411
-3.2204874 -0.7526502 -4.3147049
-7.5729184 -0.09966743 -1.7015996
-7.5864153 -0.10058915 -1.6935681
-7.5931063 -0.099645734 -1.6895524
-7.6170597 -0.10120641 -1.6752967
-7.6632261 -0.10124003 -1.6477485
-7.7007637 -0.12409198 -1.6259044
-7.7447128 -0.10248926 -1.5991534
-7.804286 -0.10279293 -1.5636115
-7.8388405 -0.12097958 -1.5434341
-7.4322557 0.38100508 -1.7738487
-7.4347386 0.30100602 -1.7743123
-7.4422665 0.34158143 -1.7688336
-7.4417362 0.42172778 -1.7672009
-7.4490833 0.4614315 -1.7618513
-7.4428215 0.54174608 -1.7636348
-7.4470916 0.62186861 -1.7591383
-7.4387898 0.54084122 -1.7660626
-7.4371562 0.50088215 -1.7680091
-7.4424205 0.46174395 -1.7658197
-6.6625485 1.4450736 -2.2072806
-6.5549254 1.4245 -2.2720027
-6.5475473 1.4260027 -2.2763691
-6.5851851 1.4815481 -2.2525589
-6.6005735 1.4945252 -2.2430604
-6.6160331 1.4975058 -2.2337627
-6.6315107 1.4979872 -2.2245152
-6.7005286 1.5048616 -2.1831629
-6.738863 1.5146669 -2.1600492
-6.754034 1.5162528 -2.1509576
-6.7848945 1.4883306 -2.1332211
-6.8082161 1.4637128 -2.1199033
-6.8160973 1.4543058 -2.1154289
-6.8777866 1.4241499 -2.0793505
-6.8853087 1.4233446 -2.0748813
-6.8319054 1.3659229 -2.1081448
-6.7550249 1.3763016 -2.1537695
-9.9944334 -1.3394239 -0.2867564
-9.9346409 -1.4989744 -0.32631612
-9.9549961 -1.5390825 -0.31514549
-9.9885502 -1.5395905 -0.2951349
-10.008723 -1.539717 -0.28309977
-10.050084 -1.5499285 -0.25866687
-10.157562 -1.5561945 -0.19468379
-10.188196 -1.5543129 -0.17635822
-10.087981 -1.4607401 -0.23388374
-10.08305 -1.4204942 -0.23584831
-10.027807 -1.2999494 -0.26588154
-10.028596 -1.2599306 -0.26443779
-10.010364 -1.2597318 -0.27531266
-9.9931011 -1.259496 -0.28560805
-9.9566355 -1.2590977 -0.30735826
-10.990082 0.79153317 0.35919571
-11.084148 0.83140957 0.41629791
-10.989355 0.95146227 0.36265159
-10.987078 1.0314653 0.36323762
-11.00397 1.1519572 0.37624812
-7.3673053 -1.2872373 -1.8531737
-7.3589435 -1.2079087 -1.8562343
-7.3614645 -1.1683916 -1.8537688
-7.3627138 -1.2083437 -1.8539952
-7.357162 -1.4794949 -1.8639017
-7.3533487 -1.4871241 -1.8663626
-7.3585672 -1.4070504 -1.8613014
-7.3592672 -1.3669378 -1.8599083
-7.3656702 -1.327194 -1.8551209
-7.3602018 -1.3670937 -1.8593545
-7.3644724 -1.4478768 -1.8587704
-5.7876682 -1.137996 -2.7921615
-5.7109814 -1.1551056 -2.8383386
-5.6420035 -1.159078 -2.8795965
-5.7428875 -1.0398768 -2.8164973
-5.7679377 -1.0394914 -2.8015397
-5.81775 -1.0169847 -2.7712679
-5.8347678 -1.000409 -2.7607098
-5.8164282 -1.1201741 -2.7745659
-8.6449499 -0.34794596 -1.0679235
-8.6187592 -0.2877323 -1.082088
-8.644042 -0.14803469 -1.0636041
-8.6465931 -0.28801286 -1.0654857
-4.1737251 -1.1417789 -3.7553415
-4.1020212 -1.0742476 -3.7964871
-4.1010838 -1.0740285 -3.7970412
-4.0493093 -0.98691863 -3.8258185
-4.0355668 -0.95429248 -3.8332257
-3.9715853 -0.89183784 -3.8698866
-3.9771979 -0.87415105 -3.8661072
-3.9238524 -0.70825887 -3.8939061
-3.9545479 -0.70857179 -3.8755968
-4.0141377 -0.71350652 -3.8401575
-4.0326338 -0.84114021 -3.8322244
-4.0371871 -0.91348779 -3.8312664
-4.1108885 -0.99120283 -3.7891765
-4.1572666 -1.0184931 -3.7621651
-4.1606874 -1.0733786 -3.7614579
-4.598217 -1.1548285 -3.502352
-4.6117077 -1.1543791 -3.4942908
-4.6711445 -1.1553204 -3.4588459
-4.7576146 -1.1548606 -3.4072354
-4.7729621 -1.155017 -3.3980808
-4.7767467 -1.1555587 -3.3958356
-4.8660822 -1.2552526 -3.3449507
-4.9276853 -1.2620361 -3.3083553
-4.9891939 -1.1579342 -3.2691197
-5.0266147 -1.1556602 -3.2467344
-5.0505219 -1.156347 -3.2324851
-5.1118317 -1.1522607 -3.1958001
-5.141655 -1.1554222 -3.1780806
-5.1579866 -1.1546878 -3.1683171
-5.2307854 -0.99772912 -3.1210594
-5.2501731 -1.1420485 -3.1129994
-5.2183905 -1.1480371 -3.1321106
-5.1589928 -1.297135 -3.1711805
-5.1741343 -1.3406739 -3.1632042
-5.1744475 -1.373163 -3.1638069
-5.175128 -1.3915718 -3.1638486
-5.1753225 -1.4190617 -3.1644013
-5.1447029 -1.4261029 -3.1828442
-5.0779109 -1.5152884 -3.2248695
-5.0673552 -1.5152227 -3.2311668
-5.0061331 -1.432092 -3.2656786
-4.9599228 -1.4222958 -3.293015
-4.9138584 -1.4274949 -3.3206296
-4.8215604 -1.4203986 -3.3755341
-4.7439337 -1.4353132 -3.422219
-4.7141781 -1.4324691 -3.4399059
-4.6526432 -1.4168483 -3.4762459
-4.6205735 -1.2740825 -3.4919109
-4.5119176 -1.1700321 -3.554219
-4.5733995 -1.1643196 -3.5173917
-7.3580966 -1.0879533 -1.8538227
-7.3642583 -1.1272682 -1.8511018
-7.358283 -1.1285053 -1.8546977
-6.125092 1.4177598 -2.5286613
-6.171289 1.4103121 -2.5012753
-6.1557407 1.4198272 -2.5103221
-6.1402631 1.4193457 -2.5195696
-6.248116 1.4074308 -2.4555001
-6.3554277 1.3877281 -2.3919432
-6.4323316 1.4162309 -2.3453593
-6.4015589 1.4316574 -2.3633473
-6.3254633 1.4256769 -2.4089012
-6.2861629 1.4261866 -2.4323404
-6.2757387 1.4269015 -2.4385433
-5.3420281 1.3693178 -2.997117
-5.3264799 1.3788327 -3.0061636
-5.2805552 1.3694829 -3.0337956
-5.1537495 1.3930602 -3.108891
-5.1420879 1.3950238 -3.1158023
-5.1265745 1.3995407 -3.1249495
-5.1113682 1.402953 -3.1339407
-5.0517235 1.4206334 -3.1691027
-5.04498 1.4204227 -3.1731317
-5.03444 1.4206766 -3.1794152
-4.9710913 1.3928348 -3.2178941
-4.931097 1.3812824 -3.2420409
-4.8908758 1.3539824 -3.266706
-4.8813105 1.3516182 -3.2724714
-4.8641458 1.3489423 -3.2827792
-4.848732 1.3484607 -3.2919888
-4.8815398 1.3419029 -3.2725708
-4.8854017 1.3421068 -3.2702613
-4.9254389 1.3606908 -3.2459178
-4.9425011 1.3707474 -3.2354918
-4.9791269 1.381367 -3.213378
-5.0155725 1.3808398 -3.1916425
-5.0347352 1.3783441 -3.1802683
-5.0790658 1.3764911 -3.1538601
-5.1249657 1.3852592 -3.1262569
-5.1824937 1.3512746 -3.0927548
-5.2037387 1.3491758 -3.0801282
-5.2651839 1.3540066 -3.0433445
-5.2803907 1.3505944 -3.034353
-5.2844005 1.3514131 -3.0319405
-7.4400096 1.1805367 -1.7497791
-7.4389753 1.2215387 -1.7493991
-7.4379539 1.2212471 -1.7500157
-7.235569 1.3426445 -1.8678329
-7.2316976 1.3270062 -1.8705233
-7.2267547 1.3418505 -1.873112
-7.2003412 1.424904 -1.8868541
-7.215601 1.4139943 -1.8780135
-5.6035519 -1.161763 -2.902607
-5.5267773 -1.1663772 -2.9485331
-5.6055794 -1.1585364 -2.9013186
-5.5261736 1.3674229 -2.8872778
-5.587883 1.3554583 -2.850745
-5.6492157 1.3545947 -2.814167
-5.7565145 1.3787718 -2.7495503
-5.6335969 1.3741062 -2.8230126
-5.5875063 1.3665591 -2.8506999
-5.5570931 1.373384 -2.8686824
-3.3585336 1.3688769 -4.1807384
-3.4599214 1.4268744 -4.1188269
-3.4752941 1.4269383 -4.1096516
-3.5428989 1.3793051 -4.0704684
-3.6497524 1.4586391 -4.0047765
-3.6804295 1.4607646 -3.9864187
-3.7425885 1.3838801 -3.9511964
-3.7271745 1.3833987 -3.9604061
-3.6964154 1.3912697 -3.9785695
-3.6350124 1.3756853 -4.0155897
-3.5427887 1.3754694 -4.0706272
-3.5121117 1.3733438 -4.088985
-3.4352818 1.3761086 -4.1347647
-6.9214611 -0.76542789 -2.1065331
-6.9038625 -0.80602348 -2.118022
-6.9281321 -0.84622306 -2.1045172
-6.9223328 -0.82039106 -2.1073496
-3.3261664 1.3474495 -4.2005739
-3.2973835 1.3396342 -4.2179394
-3.2821202 1.3379899 -4.2270875
-3.2360289 1.3353829 -4.2546549
-3.159179 1.3406469 -4.3003855
-3.1281872 1.3596772 -4.3184166
-3.1436219 1.3576596 -4.3092556
-3.2049763 1.3619107 -4.2725401
-3.2512109 1.3470237 -4.2453127
-3.34325 1.3697319 -4.1898375
-4.0803928 1.3811072 -3.7496858
-4.049757 1.3739834 -3.7681403
-4.0344524 1.3773377 -3.7771914
-3.9883449 1.3853956 -3.8045092
-4.0650282 1.391959 -3.7585907
-4.1155605 1.42337 -3.7276723
-4.1165648 1.4238178 -3.7270622
-4.1329012 1.4239117 -3.7173116
-4.2031994 1.4122761 -3.6756454
-4.2339172 1.4094033 -3.6573851
-4.3393755 1.4236989 -3.5941074
-4.3432293 1.4238193 -3.591805
-4.3566513 1.4235723 -3.5838017
-4.4490747 1.3906307 -3.5294507
-4.464509 1.388613 -3.5202894
-4.5107841 1.3687277 -3.4931593
-4.4644604 1.3772799 -3.5205941
-4.4357057 1.3832966 -3.5376067
-4.3877125 1.3700479 -3.5665679
-4.3571243 1.3742572 -3.5847182
-4.3167114 1.3843266 -3.6085892
-4.2648602 1.3790398 -3.6396589
-4.2033548 1.3759513 -3.6764359
-4.1574144 1.3721815 -3.7039418
-4.1265659 1.3737177 -3.7223125
-4.0958071 1.3815887 -3.7404761
-3.9268358 1.3741411 -3.8414874
-3.8962684 1.3758513 -3.8596864
-3.8615866 1.3856 -3.8801448
-3.9114907 1.3824937 -3.850441
-3.9576638 1.3751041 -3.8230679
-6.5059891 -1.4027129 -2.3699548
-6.4354601 -1.4773867 -2.4138577
-6.4412465 -1.4824703 -2.4105284
-6.5125346 -1.5152568 -2.3687859
-6.5353093 -1.4831107 -2.3544135
-3.8222675 1.386204 -3.9035931
-3.8480914 1.3850951 -3.8882103
-3.8500547 1.3882391 -3.8869619
-6.9941721 -1.4858583 -2.0806632
-7.0365815 -1.5267538 -2.0563509
-7.0347748 -1.5234704 -2.057349
-5.9215631 1.3878419 -2.6508403
-5.8948393 1.3939153 -2.6666398
-5.8718748 1.3892409 -2.6804569
-5.9023252 1.3877631 -2.6623223
0 0 0 1 0 0 0 1 0 0 0 1 0 0 0 0 0 517 1 0 0
