ply
format ascii 1.0
comment PCL generated
element vertex 610
property float x
property float y
property float z
element camera 1
property float view_px
property float view_py
property float view_pz
property float x_axisx
property float x_axisy
property float x_axisz
property float y_axisx
property float y_axisy
property float y_axisz
property float z_axisx
property float z_axisy
property float z_axisz
property float focal
property float scalex
property float scaley
property float centerx
property float centery
property int viewportx
property int viewporty
property float k1
property float k2
end_header
-8.4154911 -1.5533725 6.3267956
-8.4461699 -1.5315429 6.3382568
-8.4581356 -1.4835029 6.3435941
-8.4619741 -1.4432893 6.34585
-8.4483776 -1.4830912 6.3401098
-8.3996964 -1.5541615 6.3211236
-8.5260038 1.2567822 6.4279866
-8.5189781 1.2888479 6.4261746
-8.5170622 1.29623 6.4256506
-8.5087566 1.3257202 6.4233241
-8.4102421 1.3002983 6.3874993
-8.3351936 1.2986158 6.3605957
-8.2448101 1.3185054 6.3286757
-8.1620932 1.3238605 6.299181
-8.0998249 1.3029519 6.2764311
-8.0603828 1.3007463 6.2622633
-7.960412 1.3225604 6.226953
-7.8981452 1.3141469 6.2044773
-7.8516741 1.3190171 6.1879482
-7.8414497 1.3234023 6.1843843
-7.8154283 1.3145038 6.1748734
-7.7429357 1.3079766 6.1487789
-7.6646919 1.3036036 6.1206722
-7.5672779 1.32807 6.0863357
-7.5050097 1.3096603 6.0636406
-7.4668465 1.3050324 6.0498772
-7.4120693 1.3293968 6.0308018
-7.3395767 1.3228694 6.0047069
-7.2931061 1.3277398 5.9881778
-7.3109937 1.2663369 5.9932346
-7.390502 1.1458368 6.0190554
-7.4687366 1.0652442 6.0452948
-7.4680886 0.98523819 6.0433083
-7.5068817 0.90493882 6.0554347
-7.6258311 0.78414547 6.0953684
-7.6639762 0.62384015 6.1055083
-7.7822914 0.54299229 6.146091
-7.8611693 0.50242162 6.173439
-7.7816477 0.50297016 6.1449828
-8.5438118 0.81545663 6.4246831
-8.5423803 0.73532063 6.4224129
-8.5449276 0.65550607 6.4215746
-8.5048332 0.53580976 6.4045963
-8.5080242 0.49601728 6.4048662
-8.5252762 0.45706713 6.4101877
-8.5234108 0.41663986 6.4086332
-8.5222425 0.37592226 6.4073224
-8.5279331 0.33661157 6.4084969
-8.5188665 0.29674894 6.4043775
-8.4973106 0.25630403 6.3957734
-8.4905052 0.1764273 6.3915854
-8.4972916 0.0963687 6.3922591
-8.4940977 0.058019891 6.3902745
-8.4904871 0.016491935 6.3880715
-8.4553003 0.098335415 6.3772697
-8.4858036 0.17747369 6.389925
-8.4851685 0.21741927 6.390574
-8.4171591 0.29862458 6.3680081
-8.3308506 0.37923169 6.3388786
-8.219327 0.42000479 6.2998481
-8.1423483 0.30075493 6.2696753
-8.0544004 0.26147911 6.2373295
-7.9839306 0.18193874 6.2103577
-7.983922 0.10197109 6.208601
-7.9444895 0.18223214 6.1962447
-7.9438553 0.22217768 6.1968937
-7.9833097 0.34183574 6.2136421
-7.985302 0.50155735 6.2178583
-8.5449657 1.0053645 6.4292612
-8.5323734 1.0572459 6.4258909
-8.5342951 1.0973445 6.4274583
-8.5240784 1.1766996 6.4255409
-8.5189705 1.2213752 6.4246922
-8.531086 0.97720158 6.4236746
-8.5698681 0.85509193 6.4348803
0.8257699 -0.4919993 3.0417929
0.98363543 -0.38222456 2.9876859
0.99821901 -0.38204008 2.9824693
1.0130887 -0.38201249 2.9771466
1.0822148 -0.37965155 2.9524519
1.0890007 -0.38210177 2.9499691
1.0834799 -0.38222101 2.9519427
1.0133052 -0.41177896 2.9764163
0.99931002 -0.422097 2.9812002
-5.1219835 -0.95828402 5.1608033
-5.1232738 -0.96321338 5.1611571
-5.2073822 -1.0789877 5.1887279
-5.2394295 -1.1188366 5.1993265
-5.3515892 -1.2096895 5.2374864
-5.3900275 -1.3199 5.2488298
-5.2346187 -1.2390708 5.1949677
-5.199111 -1.2786702 5.1813879
-5.1614413 -1.2784669 5.1679068
-5.0767164 -1.4383167 5.1340709
-5.0281549 -1.4377633 5.1166983
-4.9591265 -1.4752297 5.0911651
-5.0142622 -1.3176731 5.1143584
-5.0030837 -1.2377163 5.1121101
-5.0273542 -1.1178746 5.1234269
-5.0406961 -1.0180414 5.1303926
-4.9621029 -0.8776961 5.1053348
1.6715832 0.65416878 2.7641363
1.671792 0.69915366 2.7650483
1.6784034 0.65921593 2.7618055
1.7947259 0.57944709 2.7184138
1.7901711 0.57441622 2.719934
-7.9238443 -1.553293 6.1507926
-7.8513527 -1.5473254 6.1249723
-7.8151073 -1.5493395 6.1119523
-7.8773727 -1.5584186 6.1340437
-7.9408026 -1.5592672 6.1567326
-7.9600892 -1.5587758 6.1636477
-7.6289411 0.024643987 6.0798254
-7.6974888 0.064085677 6.1052299
-7.6671133 0.10424173 6.0952363
-7.664566 0.18405622 6.0960751
-7.5449686 0.22484368 6.0541544
-7.5162239 0.30491495 6.0456204
-7.4648304 0.42527306 6.0298615
-7.464839 0.50524074 6.0316181
-7.3866091 0.62581736 6.0062571
-7.3465195 0.54610479 5.9901576
-7.3458719 0.46609885 5.9881711
-7.3070607 0.38646287 5.9725304
-7.1371136 0.4261499 5.9125614
-7.1276469 0.54776794 5.9118395
-7.137661 0.66609412 5.9180193
-7.1369982 0.74602687 5.9195352
-7.1186123 0.78779221 5.9138689
-7.1124597 0.82790518 5.9125462
-7.0987844 0.86632538 5.908493
-7.1156774 1.0280159 5.918087
-7.14256 1.1462014 5.9303021
-7.1011901 1.2263329 5.9172497
-7.0756197 1.2281901 5.9081364
-6.9720616 1.3239909 5.8731647
-6.9256487 1.3263606 5.8566012
-6.8768625 1.3076898 5.838727
-6.816843 1.3252239 5.817625
-6.7341614 1.3280478 5.7880878
-6.634429 1.3093044 5.7519736
-6.5789447 1.3217838 5.7323842
-6.5325298 1.3291516 5.71593
-6.4237294 1.3130207 5.6766267
-6.4033294 1.3107773 5.6692743
-6.3861942 1.310903 5.6631432
-6.3047791 1.3162987 5.6341157
-6.2220955 1.3241208 5.6046872
-6.1858253 1.3270739 5.5917673
-6.0668783 1.3203557 5.5490384
-6.0306129 1.3108137 5.5358462
-5.9479256 1.3286319 5.5066361
-5.9119787 1.3141098 5.4934492
-5.8709555 1.3142906 5.4787669
-5.8441958 1.3152918 5.4692092
-5.7933464 1.3149072 5.4509974
-5.713201 1.3153778 5.4223161
-5.6737604 1.3206477 5.4083123
-5.630693 1.3161889 5.392797
-5.5573626 1.2765898 5.3656769
-5.5224047 1.157163 5.3505435
-5.4936948 1.0772872 5.3385139
-5.5650239 1.1270851 5.3651409
-5.6012864 1.1441243 5.3784962
-5.7202706 1.0483818 5.4189916
-5.7225423 1.0358584 5.4195304
-5.7565579 0.99669731 5.4308486
-5.8075333 0.91555119 5.4473181
-5.7566252 0.81051904 5.4267898
-5.7566309 0.79552478 5.4264631
-5.8121247 0.75555605 5.4454527
-5.8756309 0.65479964 5.4659777
-5.8665857 0.59493625 5.4614267
-5.8552804 0.515109 5.4556289
-5.9113164 0.51436293 5.4756727
-5.9765406 0.39434779 5.4963903
-5.9940553 0.35409963 5.5017776
-6.0310011 0.23372808 5.5123644
-6.0310049 0.22373191 5.5121465
-6.067297 0.15830278 5.5237036
-6.0717511 0.11357537 5.5243173
-6.1121073 0.073529661 5.5378861
-6.1468678 -0.0071409345 5.5485611
-6.1138158 -0.13645443 5.5338926
-6.1161079 -0.2064559 5.5331779
-6.1138763 -0.30389002 5.5302424
-6.1071463 -0.36295283 5.5265379
-6.1098042 -0.40405056 5.526588
-6.0985746 -0.44267702 5.5217209
-6.1029744 -0.48315239 5.522408
-6.1102643 -0.58773673 5.5227242
-6.1103458 -0.62022537 5.5220408
-5.9916401 -0.72218484 5.4773097
-5.8727784 -0.76166606 5.4338923
-5.8263917 -0.7943542 5.4165692
-5.7063708 -0.88138783 5.3716946
-5.624702 -0.78869838 5.3444905
-5.6263113 -0.92108333 5.3421636
-5.6271505 -1.001021 5.3407106
-5.6163721 -1.0810087 5.3350983
-5.6008148 -1.2008127 5.3269014
-5.5887747 -1.2406607 5.3217173
-5.5896001 -1.2456871 5.3219023
-5.5872326 -1.320799 5.3194075
-5.6284003 -1.3610214 5.3332629
-5.6663146 -1.4011307 5.3459563
-5.7039394 -1.4414001 5.3585424
-5.7821827 -1.441794 5.3865442
-5.9004869 -1.434836 5.4290485
-5.976932 -1.4828169 5.4553628
-6.0608253 -1.4429147 5.4862709
-6.1754146 -1.483647 5.5263996
-6.3300972 -1.5295229 5.5807681
-6.4081688 -1.4846472 5.6097012
-6.4915819 -1.4850508 5.6395535
-6.5680084 -1.5255344 5.6660256
-6.6055331 -1.5258175 5.6794529
-6.6847053 -1.5260172 5.7077913
-6.7595139 -1.5467366 5.7341175
-6.80721 -1.5264752 5.7516365
-6.8784823 -1.5497407 5.7766414
-6.9630575 -1.5272979 5.8074102
-7.0548601 -1.5244237 5.8403378
-7.0987806 -1.4719703 5.8572116
-7.2463121 -1.5462273 5.9083977
-7.32903 -1.5465842 5.9380021
-7.3392553 -1.5409738 5.9417858
-7.4219732 -1.536333 5.9714994
-7.32341 -1.433305 5.9384747
-7.3033504 -1.3530456 5.9330535
-7.3450422 -1.2332535 5.9506059
-7.3948317 -1.1536238 5.9701762
-7.3789835 -1.0734439 5.9662609
-7.3838711 -0.99368215 5.9697599
-7.4084463 -0.95388645 5.9794307
-7.3971334 -0.83378351 5.9780145
-7.4062037 -0.75393701 5.9830127
-7.4798727 -0.63422137 6.0120111
-7.464077 -0.59435397 6.0072308
-7.4730902 -0.51417893 6.0122156
-7.468564 -0.4741345 6.0114737
-7.3926539 -0.37390774 5.9864964
-7.3871431 -0.31376553 5.9858427
-7.3745403 -0.29369763 5.981771
-7.3518953 -0.21342696 5.9754248
-7.3315115 -0.17317042 5.9690104
-7.3247199 -0.13309565 5.9674578
-7.3890934 -0.013770878 5.9931197
-7.4663591 0.065678596 6.0225224
-7.5888653 0.064882949 6.0663614
-8.4709806 -0.92296338 6.3604856
-8.4722557 -0.95037574 6.3603406
-8.4735317 -0.96279401 6.3605251
-8.4824219 -0.9237721 6.3645635
-8.4790592 -0.88299394 6.364254
-8.4786587 -0.84253627 6.3649979
-8.4858646 -0.8031171 6.3684421
-8.4914913 -0.8439256 6.3695617
-1.5380809 0.054847032 3.9000206
-1.4362767 -0.02008462 3.8619323
-1.3810024 -0.063982479 3.841182
-1.3803811 -0.1040068 3.8400819
-1.3753068 -0.14431888 3.8373814
-1.3753214 -0.18430206 3.8365097
-1.3759725 -0.22424415 3.8358667
-1.375366 -0.30425167 3.833895
-1.3750257 -0.32865065 3.8332381
-1.3779254 -0.34407043 3.8339379
-1.3753955 -0.38421807 3.8321519
-1.4161077 -0.38440561 3.8467221
-1.4600797 -0.38473475 3.8624566
-1.5328341 -0.36955547 3.888835
-1.5732305 -0.3855257 3.902946
-1.6533823 -0.38598296 3.9316297
-1.7313526 -0.41060892 3.959002
-1.8097475 -0.53106153 3.9844251
-1.9272785 -0.4118419 4.0291147
-2.0096126 -0.38832849 4.0591049
-2.0797851 -0.38890219 4.0842137
-2.1251111 -0.41295236 4.0999122
-2.2029209 -0.57342958 4.124248
-2.1234574 -0.6129936 4.0949335
-2.0446291 -0.65251684 4.0658469
-2.1229229 -0.69300199 4.0929871
-2.1649041 -0.69306898 4.1080146
-2.2425625 -0.73359483 4.1349268
-2.2807813 -0.77389055 4.1477251
-2.3397789 -0.89420646 4.1662068
-2.3391941 -0.93423092 4.1651201
-2.3392446 -0.97421473 4.1642613
-2.3392951 -1.0141985 4.1634026
-2.28055 -1.0938014 4.1406264
-2.2029927 -1.133243 4.1119967
-2.2424321 -1.1334733 4.1261106
-2.2456939 -1.1336093 4.1272755
-2.3199897 -1.0940316 4.1547403
-2.339396 -1.094166 4.1616845
-2.3782065 -1.0994351 4.1754627
-2.4389431 -1.0946816 4.1973104
-2.4583499 -1.094816 4.2042546
-2.5039022 -1.0551847 4.2214313
-2.5435135 -1.0398905 4.2359471
-2.5758307 -0.93561256 4.2498031
-2.7347708 -0.86648047 4.308218
-2.7742984 -0.93668228 4.3208294
-2.8157451 -1.0167576 4.3339105
-2.7600417 -1.1366694 4.3113394
-2.7624092 -1.216664 4.3104329
-2.7624598 -1.2566478 4.3095741
-2.812387 -1.3768563 4.324811
-2.8537331 -1.3769641 4.3396101
-2.9707801 -1.3777366 4.381495
-3.009584 -1.3780075 4.3953805
-3.1279023 -1.3786983 4.4377222
-3.1679771 -1.3788878 4.4520645
-3.2746882 -1.3796333 4.4902496
-3.3798919 -1.2601691 4.5305314
-3.482857 -1.3807708 4.5647469
-3.4846623 -1.3006808 4.5671496
-3.4426305 -1.2606301 4.5529809
-3.3656077 -1.2200633 4.5262971
-3.2904403 -1.1393905 4.5011573
-3.2858915 -1.0597086 4.501276
-3.327136 -0.97984892 4.5177927
-3.168642 -0.89900118 4.4628267
-3.0896621 -0.81857312 4.4363165
-3.0145457 -0.77788389 4.4103179
-3.0118523 -0.65809596 4.4119806
-2.9768445 -0.57795244 4.401206
-2.8488255 -0.57719392 4.3553929
-2.7362604 -0.53649199 4.3159885
-2.7354488 -0.39658493 4.3187661
-2.8161831 -0.3569392 4.3485374
-2.9332809 -0.39769542 4.3895636
-3.0133297 -0.3181068 4.4199657
-3.0133042 -0.29811969 4.4203949
-3.013279 -0.27812305 4.4208245
-2.9736881 -0.15794154 4.409287
-2.9366391 -0.037596703 4.398663
-2.9372239 0.002427876 4.3997502
-2.9284682 0.042370588 4.3974915
-2.9745045 0.20199391 4.4174728
-2.9744539 0.24197763 4.4183316
-2.8962107 0.242479 4.3903322
-2.8171804 0.36289084 4.3646812
-2.6601088 0.32386893 4.3075953
-2.5554395 0.28441307 4.2692595
-2.4431984 0.28841874 4.229166
-2.4031079 0.32863057 4.2156959
-2.363668 0.32890028 4.2015829
-2.3083649 0.32937795 4.1817951
-2.2084684 0.29016054 4.1451731
-2.1696646 0.29047135 4.1312885
-2.0901637 0.25098655 4.1019621
-2.0526326 0.25137961 4.0885348
-2.0144649 0.25173157 4.0748792
-1.9084852 0.21229717 4.0360746
-1.8166595 0.17307284 4.0023417
-1.7797642 0.173507 3.9891429
-1.7397029 0.13375244 3.9739299
-1.623307 0.094701827 3.9314046
-7.6659245 0.90384173 6.1123466
-7.7066565 1.0110816 6.1292801
-7.8656969 0.98249567 6.1855879
-7.8414602 0.86258721 6.1742821
-7.8573132 0.82239127 6.1790757
-7.9413481 0.66184676 6.2056384
1.0374951 -0.14196484 2.9736738
1.0362868 -0.10194851 2.9749839
1.0300598 -0.14197862 2.9763353
1.3853083 0.2441659 2.8576283
1.3568583 0.21960613 2.8672745
1.3950186 0.13613954 2.851783
1.4209437 0.11197129 2.8419719
1.4310951 0.098913074 2.8380516
1.443728 0.13962519 2.8344219
1.4314194 0.16888967 2.8394701
1.4290986 0.21901354 2.8414001
1.4113264 0.23999098 2.8482225
-8.0428047 -1.5666298 6.1930866
-8.079052 -1.5671146 6.2060518
-8.0325804 -1.5597454 6.1895776
-7.996335 -1.5592606 6.1766129
-0.19460297 -0.13690409 3.4148636
-0.19691324 -0.13669895 3.4156952
-0.19380713 -0.1418768 3.4144697
-0.074428558 -0.17674106 3.3709688
-0.045558453 -0.17650622 3.3606386
0.0417943 -0.21642406 3.3284917
0.040367603 -0.37633431 3.3254957
-0.032031059 -0.48750383 3.3489757
-0.0092206001 -0.531609 3.3398426
-0.0082855225 -0.73153651 3.3351231
0.11093664 -0.68660593 3.2934279
0.0040159225 -0.52731133 3.3351982
-0.0063266754 -0.53163254 3.3388059
-0.074854374 -0.13671859 3.371999
-0.068047523 -0.13667269 3.3695631
0.043647289 -0.096536279 3.3304577
0.0442729 -0.096572168 3.3302331
0.16128397 -0.1037979 3.2881856
0.16935682 -0.10381927 3.2852952
0.20369291 -0.10345279 3.2730112
0.27893019 -0.063084722 3.2469625
0.28913927 -0.063647136 3.2432952
0.31645632 -0.062894002 3.2335324
0.32475138 -0.063350953 3.2305532
0.36100149 -0.063089907 3.2175817
0.37105322 -0.062938057 3.2139864
0.39712095 -0.063386232 3.2046447
0.44115782 -0.062989637 3.1888885
0.51621008 -0.062608175 3.162029
0.52769423 -0.063240871 3.1579039
0.55565071 -0.062522911 3.1479115
0.63975525 -0.0229256 3.1186714
0.64430952 -0.017894641 3.1171513
0.70337772 0.01751779 3.096782
0.75431252 -0.0221802 3.0776772
0.75412703 -0.062166803 3.0768666
0.80800152 -0.14230582 3.0558228
0.87109232 -0.21682391 3.0316029
0.87105751 -0.2243214 3.0314507
0.80157375 -0.26250666 3.0554876
0.75061989 -0.30266014 3.0728481
0.71515417 -0.37475294 3.0839634
0.71507263 -0.39224708 3.0836089
0.7795496 -0.47912702 3.0586214
0.81738234 -0.53155077 3.0439281
0.8136344 -0.53134954 3.0452743
0.69417858 -0.61126912 3.0862856
0.68443871 -0.65140736 3.088892
0.65920973 -0.69150519 3.0970445
0.55336952 -0.77136463 3.1331825
0.5410037 -0.77149189 3.1376069
0.44325829 -0.81125665 3.1717267
0.41815758 -0.8912313 3.1789584
0.41322374 -0.89136195 3.1807218
0.30057573 -0.97125149 3.2192967
0.26471758 -0.90393299 3.2336099
0.22438526 -0.85137498 3.2492013
0.11046124 -0.85158795 3.2899802
0.10756683 -0.85156441 3.2910168
-0.033781528 -0.81162179 3.342494
-0.045440674 -0.81165516 3.3466673
-8.1799259 0.78015274 6.2936416
-8.1398373 0.70044017 6.2775416
-8.1042738 0.58068317 6.2621841
-8.2186995 0.51992607 6.301815
-8.2975931 0.61929893 6.3322372
-8.3357563 0.61892891 6.3458915
-8.4140091 0.69827151 6.3756452
-8.3399611 0.81893265 6.3517828
-8.2988939 0.81929469 6.3370891
-7.7040653 0.70355266 6.1216083
-8.2200155 0.85986519 6.309741
-8.0635366 0.92858815 6.2552304
-8.0654726 1.1011333 6.2597075
-8.1847839 1.1001463 6.3023982
-8.2225895 1.0199537 6.3141737
0.76666212 0.57709175 3.0863986
0.78188419 0.57724106 3.0809526
0.92086267 0.49763536 3.0294538
0.92539406 0.49766803 3.0278325
1.0400295 0.54284108 2.9877849
1.0406446 0.53780752 2.9874544
1.1584325 0.42310184 2.9427717
1.1564956 0.41820902 2.9433579
1.0390081 0.49783033 2.9871633
0.92067766 0.45764875 3.0286434
0.88697958 0.45724714 3.0406981
0.88059902 0.45759863 3.0429897
0.75811577 0.33715826 3.0841963
0.67975283 0.29724467 3.1113741
0.65917683 0.25711122 3.1178598
0.61821032 0.21683094 3.1316423
0.60910177 0.20676899 3.1346822
0.61098003 0.3366552 3.1368585
0.60939455 0.37666881 3.1383038
0.7654686 0.45716703 3.0841961
0.76338816 0.49713731 3.0858173
0.76375866 0.57711065 3.0874386
-7.1046629 -0.31209457 5.8847542
-7.1059523 -0.2120574 5.8874097
-7.266283 -0.13311018 5.9465375
-7.3037934 -0.25346994 5.9573264
-7.294086 -0.31336379 5.952538
-7.2630625 -0.35321373 5.940558
-7.5567293 -1.5538787 6.0193563
-7.523881 -1.5571878 6.0075245
-7.4944634 -1.5497974 5.9971552
-7.5249567 -1.555625 6.0079436
0.41468954 -0.33154696 3.1924744
0.35011482 -0.48677927 3.2121871
0.30315304 -0.49136794 3.2288983
0.26748514 -0.4890627 3.2417176
0.18538904 -0.41137105 3.2728109
0.21246719 -0.30335575 3.2654862
0.3231864 -0.26324883 3.2267294
-8.4904079 -0.68322623 6.3726978
-8.4742069 -0.64288509 6.3677831
-8.4722919 -0.625507 6.3674784
-8.4824619 -0.56391758 6.3724699
-8.4881659 -0.48327672 6.3762803
-8.4870052 -0.44402668 6.3767257
-8.4904423 -0.38334644 6.3792868
-8.4904461 -0.34336257 6.3801651
-8.490449 -0.32337165 6.3806043
-8.4859295 -0.22335047 6.3811798
-8.4847698 -0.18410042 6.3816257
-8.4814072 -0.14332218 6.3813162
-8.4812937 -0.14266498 6.38129
-8.4806595 -0.10271944 6.3819389
-8.4857759 -0.062429316 6.384654
-8.4836769 -0.10336866 6.3830051
-7.2714043 -0.052836224 5.9501314
-7.1298542 0.027947769 5.9012299
-7.069108 0.1482437 5.8821211
-7.1098361 0.2279945 5.8984509
-7.2682495 0.30682689 5.9568901
-7.3070383 0.1865437 5.9681377
-7.3632536 0.066308379 5.9856257
-6.5975451 0.029553786 5.7107034
-6.5387187 -0.010004878 5.688777
-6.4986606 -0.049754173 5.6735644
-6.5782294 -0.21019977 5.6985307
-6.6140294 -0.32561421 5.7088156
-6.7323523 -0.32615358 5.7511625
-6.8358049 -0.32662982 5.788187
-6.8161011 -0.13178845 5.7854061
-6.7372236 -0.13124482 5.7571807
-6.8399935 -0.012045503 5.7965856
-6.7377853 0.068714738 5.7617669
-6.7051468 0.06890136 5.7500868
-6.6582737 0.069221854 5.733314
-6.1874304 0.39250636 5.5718465
-6.2663364 0.31199354 5.5983281
-6.3858914 0.39122027 5.6428652
-6.2960019 0.51172191 5.6133285
-6.8998623 0.38775969 5.8267856
-6.8191404 0.22825545 5.7943902
-6.8993006 0.18780017 5.8221993
-6.9180689 0.18760955 5.8289142
-7.017602 0.22696936 5.8654094
-7.0175581 0.34692323 5.8680243
-6.5831428 0.22992277 5.7099419
-6.7408686 0.30880481 5.768136
-6.7014008 0.38904577 5.7557669
-6.542407 0.31009087 5.6971173
-2.7986112 -0.29671037 4.3435678
-2.8186486 -0.29680508 4.350739
-2.9265049 -0.19750476 4.3915281
-2.8972502 -0.077350199 4.3836904
-2.7789321 -0.076659404 4.3413486
-2.7389078 -0.11645371 4.326148
-6.5879254 1.0299067 5.7291985
-6.5879836 0.86996841 5.7257118
-6.7444415 0.94877744 5.7834501
-8.472332 -0.26815048 6.3753295
-8.4644394 -0.22231367 6.3735094
-1.7685027 -0.6109212 3.9679084
-1.8474827 -0.69134927 3.9944186
-1.8474321 -0.65136552 3.9952774
-8.4757557 -0.32242578 6.3753653
-8.4712162 -0.40233284 6.3719873
-8.4684811 -0.42331752 6.3705482
-8.471035 -0.44315735 6.3710275
-8.472311 -0.45307672 6.3712668
-8.4598751 -0.52213287 6.3653002
-8.4598713 -0.56211674 6.3644218
-8.4666624 -0.60219145 6.3659744
-8.4598579 -0.68206823 6.3617864
-8.482439 -0.76383668 6.3680773
-8.4904003 -0.76319391 6.3709412
-2.8966315 -1.0970633 4.3611059
-2.8942411 -1.2171777 4.3576159
-3.0520492 -1.2580825 4.4132128
-3.0920577 -1.2057933 4.4286819
-3.0142636 -1.057811 4.404078
-8.4836864 -0.023400977 6.3847618
-8.4851418 -0.022483766 6.385303
-7.3053141 -1.1931597 5.9372625
-7.305614 -1.1130086 5.9391279
-7.3081841 -0.99290395 5.9426823
-7.2617168 -0.95304787 5.9269214
-7.3005328 -0.83342797 5.9434404
-7.3011856 -0.71343821 5.9463053
-7.3011899 -0.67345434 5.9471841
-7.3024774 -0.59341013 5.9494004
-7.2572927 -0.51349366 5.9349771
-7.0866442 -0.56775713 5.8726969
-7.1033487 -0.63204181 5.8772669
-7.0878305 -0.71194249 5.8699594
-7.0975838 -0.80769283 5.8713512
-7.0787511 -0.87175667 5.863204
-7.0742159 -0.91167992 5.8607049
-7.0889235 -0.96754909 5.8647447
-7.0918407 -1.3673067 5.8570223
-7.1077461 -1.311499 5.8639402
-7.26232 -1.2728803 5.9201231
-7.1077504 -1.2715153 5.8648186
-7.1052074 -1.1517168 5.8665357
-7.0905008 -1.0874385 5.8626804
-7.1052256 -0.99178147 5.8700495
-7.2939825 -1.2329919 5.932333
-7.050221 -1.0073209 5.8500175
-6.9339151 -1.0466642 5.8075185
-6.8528156 -0.92644989 5.7811222
-6.9690223 -0.84712046 5.8244624
-7.0645108 -0.95158082 5.8563557
-7.2597461 -1.4329687 5.9156909
0 0 0 1 0 0 0 1 0 0 0 1 0 0 0 0 0 610 1 0 0
