ply
format ascii 1.0
comment PCL generated
element vertex 861
property float x
property float y
property float z
element camera 1
property float view_px
property float view_py
property float view_pz
property float x_axisx
property float x_axisy
property float x_axisz
property float y_axisx
property float y_axisy
property float y_axisz
property float z_axisx
property float z_axisy
property float z_axisz
property float focal
property float scalex
property float scaley
property float centerx
property float centery
property int viewportx
property int viewporty
property float k1
property float k2
end_header
-10.341379 1.3635789 1.8617082
-10.376715 1.3468807 1.8768382
-10.393377 1.3071529 1.8856164
-10.397448 1.2716109 1.8890934
-10.395974 1.1817037 1.8931373
-10.396386 1.2693793 1.8887801
-2.42399 1.1821244 -1.3259321
-2.5017474 1.2215225 -1.2965667
-2.5332723 1.22145 -1.2838335
-2.5406022 1.2214231 -1.2808722
-2.5808845 1.2210606 -1.2645878
-2.6556273 1.1813616 -1.2323588
-2.6775692 1.1416841 -1.2214518
-2.7500017 1.1016232 -1.1901369
-2.7572622 1.1011698 -1.1871817
-2.7719679 1.1010106 -1.1812354
-2.8986423 1.1785699 -1.1340865
-2.9065135 1.2211061 -1.1331028
-2.904526 1.1831623 -1.1319476
-2.899642 1.1409529 -1.131742
-2.9021463 1.1013179 -1.1286858
-2.90064 0.94183004 -1.1210656
-2.9008582 0.9039197 -1.1190215
-2.8963413 0.85946405 -1.1185517
-2.9009137 0.78201711 -1.1127098
-2.9026473 0.73990774 -1.1098372
-2.7276976 0.70542729 -1.178702
-2.7855072 0.57790458 -1.1487794
-2.9080215 0.66388988 -1.103745
-2.9067476 0.62031794 -1.1020113
-2.9121592 0.58276761 -1.0978888
-2.9113202 0.542871 -1.0961692
-2.9148927 0.50304121 -1.0926716
-2.9088027 0.42318135 -1.0910105
-2.9013982 0.36597747 -1.091049
-2.9071245 0.34338826 -1.0875713
-2.9032407 0.26356184 -1.085021
-2.9024014 0.22366518 -1.0833015
-2.8975174 0.18145585 -1.0830959
-2.8985174 0.14383888 -1.0807514
-2.897264 0.10140276 -1.0790681
-2.9007788 0.021969557 -1.0735506
-2.8991005 -0.057823539 -1.0701114
-2.897342 -0.098859876 -1.0687044
-2.8979499 -0.21737647 -1.0623441
-2.8949051 -0.25730637 -1.0615134
-2.8956196 -0.28255808 -1.0599221
-2.8954327 -0.33706614 -1.0571853
-2.9633894 -0.43335643 -1.0247768
-3.1460676 -0.44619229 -0.95034999
-3.1455562 -0.36642554 -0.95467192
-3.1304216 -0.33984923 -0.96215439
-3.1337352 -0.3234123 -0.96166438
-3.1254134 -0.26057935 -0.96826649
-3.1676357 -0.14028984 -0.95742351
-3.160778 -0.098117024 -0.96236843
-3.1635354 -0.020700127 -0.96524924
-3.1580164 0.012683481 -0.96920019
-3.1590219 0.022352487 -0.96929306
-3.1458333 0.10093582 -0.97867298
-3.1475115 0.18072897 -0.98211211
-3.1527624 0.22069216 -0.9820537
-3.1775894 0.25926232 -0.97401863
-3.175499 0.33843559 -0.97894752
-3.1856563 0.37954354 -0.97696698
-3.1916041 0.45192444 -0.97829968
-3.1788554 0.49802178 -0.9858259
-3.1898732 0.53736842 -0.98340702
-3.191196 0.58022773 -0.98508412
-3.1922634 0.61703157 -0.98655194
-3.1874046 0.65796781 -0.99062592
-3.189795 0.73763108 -0.9937709
-3.1900489 0.81768417 -0.99779856
-3.2143266 0.94037652 -0.99432546
-3.2272739 0.97806358 -0.99104184
-3.2549949 0.99249411 -0.98059273
-3.2969704 1.051747 -0.96670032
-3.3124127 1.0519693 -0.96047622
-3.3055301 1.0394055 -0.96260732
-3.3379679 0.90525377 -0.94258773
-3.3465271 0.89291215 -0.93849468
-3.3803635 0.83284175 -0.92173243
-3.3932841 0.81808043 -0.91575366
-3.3916059 0.73828733 -0.91231447
-3.3842063 0.69401944 -0.91301841
-3.3849907 0.65084743 -0.9104743
-3.3799829 0.61381555 -0.91058576
-3.3760648 0.57602429 -0.91021818
-3.3865714 0.49890798 -0.90199697
-3.4132061 0.45236766 -0.88884085
-3.3821921 0.37269646 -0.89725351
-3.3871543 0.29724562 -0.891357
-3.3837426 0.25956196 -0.89079046
-3.3840625 0.25306225 -0.8903259
-3.3854213 0.21319479 -0.88772041
-3.4190242 0.13390446 -0.8700608
-3.3851647 0.097796202 -0.88187009
-3.3726926 0.015228182 -0.88264632
-3.3451481 -0.022460014 -0.89182413
-3.3259428 -0.19899663 -0.89047104
-3.3820245 -0.26120621 -0.86461586
-3.3805161 -0.28656524 -0.86391658
-3.3735585 -0.34539467 -0.86369079
-3.3727109 -0.38529387 -0.86197448
-3.3616905 -0.44638455 -0.86327261
-3.3988519 -0.56551063 -0.84212083
-3.4421268 -0.60477471 -0.82262099
-3.5072138 -0.77804816 -0.78739929
-3.5424583 -0.78003377 -0.77306527
-3.5777559 -0.77952558 -0.75883853
-3.5947833 -0.78506982 -0.7516768
-3.6654315 -0.78155982 -0.72333062
-3.7720127 -0.7476173 -0.68204486
-3.8185871 -0.75413024 -0.66290236
-3.876544 -0.76267678 -0.63905859
-3.9472451 -0.75667316 -0.61081958
-3.9822779 -0.7686336 -0.59605646
-3.995795 -0.77104855 -0.59047371
-4.0399885 -0.77000028 -0.57268268
-4.1459045 -0.76935792 -0.52994746
-4.2105627 -0.77193975 -0.5037055
-4.2406378 -0.77209771 -0.49155334
-4.2876358 -0.75866097 -0.47326893
-4.3457518 -0.75972646 -0.44974703
-4.4516444 -0.75820208 -0.40706679
-4.5336227 -0.75921953 -0.37391195
-4.639462 -0.76018876 -0.33112451
-4.6862483 -0.75672692 -0.31241104
-4.7441525 -0.76776719 -0.28845993
-4.850204 -0.7587617 -0.24610156
-4.8615866 -0.76079535 -0.24140033
-5.0026712 -0.76375026 -0.18427874
-5.0169024 -0.61485136 -0.18621448
-5.0971279 -0.76268589 -0.14619234
-5.1085639 -0.76222587 -0.14159831
-5.1438613 -0.7617178 -0.12737167
-5.1552439 -0.76375139 -0.12267046
-5.2221117 -0.76227641 -0.095745742
-5.3395491 -0.75542009 -0.048678834
-5.3509135 -0.75738686 -0.043988548
-5.4305148 -0.86569965 -0.0062575489
-5.5123744 -0.87176013 0.027109653
-5.5739288 -0.76415277 0.046413071
-5.6445341 -0.76325858 0.074876986
-5.7144895 -0.72720301 0.10126447
-5.7344427 -0.68732202 0.10726384
-5.755106 -0.64756387 0.11355633
-5.859436 -0.57239461 0.15180606
-5.8604827 -0.52500939 0.14978379
-5.8846998 -0.60985613 0.16394016
-5.9575577 -0.72992909 0.19955477
-6.0381069 -0.73075581 0.2321229
-6.0570278 -0.7315715 0.23980501
-6.0748301 -0.73055452 0.24694109
-6.081933 -0.73178375 0.24987262
-6.1715999 -0.77174079 0.28814125
-6.1841564 -0.7696557 0.29310381
-6.2431965 -0.72595537 0.31468931
-6.2669697 -0.73102331 0.32455021
-6.3171878 -0.73315763 0.34493825
-6.3974805 -0.73148108 0.37727353
-6.4198751 -0.7162379 0.38552985
-6.4883347 -0.76408851 0.41564223
-6.5818868 -0.80567157 0.45556369
-6.6385398 -0.85443664 0.48095575
-6.6892872 -0.85379398 0.50141406
-6.7148829 -0.89336199 0.51379108
-6.6970663 -0.90106744 0.50699437
-6.6076565 -1.0542886 0.47879639
-6.6004887 -1.0963825 0.47807369
-6.5753365 -1.1365932 0.46999213
-6.5303273 -1.1770554 0.45390525
-6.4981127 -1.1375712 0.43885985
-6.4909534 -1.0975059 0.433902
-6.4174604 -0.97691333 0.39800417
-6.3788443 -0.97605664 0.38236696
-6.3075786 -1.0068784 0.35518026
-6.2806587 -1.0100951 0.34447625
-6.273047 -0.97241014 0.33945829
-6.2151279 -0.91541612 0.31313029
-6.1811447 -0.90452778 0.29884627
-6.1009946 -0.7726351 0.25967732
-6.0670114 -0.76174664 0.24539331
-5.9836669 -0.77450359 0.21239743
-5.9105244 -0.88877428 0.18875837
-5.8818364 -0.93021703 0.17931247
-5.8735695 -0.93124521 0.17602751
-5.7931437 -0.94300187 0.14415851
-5.7690954 -0.95040381 0.13482967
-5.6415639 -0.93207288 0.082387321
-5.6113343 -0.96812648 0.072041027
-5.5914769 -0.96837795 0.064035632
-5.5385227 -0.96904868 0.042687692
-5.5296974 -0.96916044 0.039129712
-5.4808235 -0.96766865 0.019317709
-5.4062991 -0.9291029 -0.012764513
-5.3475537 -0.9095183 -0.037496071
-5.2468476 -0.88517511 -0.079416737
-5.210124 -0.88537633 -0.094235107
-5.1657991 -0.89081883 -0.1118525
-5.1243734 -0.91023427 -0.12757826
-5.0912871 -1.0847592 -0.13193403
-5.0951705 -1.0902507 -0.13008259
-5.099669 -1.1299541 -0.12621756
-5.0837841 -1.1501014 -0.13159245
-5.0192246 -1.1078331 -0.15984198
-4.9871435 -1.0913938 -0.17364429
-5.0199132 -1.075415 -0.16123649
-5.0549779 -0.90478092 -0.15588126
-5.0004468 -0.86848581 -0.17977318
-4.9251895 -0.85365009 -0.2109271
-4.8220067 -0.89570928 -0.25042191
-4.790833 -0.85434806 -0.26514351
-4.7428284 -0.83010978 -0.28577811
-4.6607976 -0.83158612 -0.31882557
-4.5881672 -0.89481777 -0.34489101
-4.6103044 -1.0096071 -0.33002982
-4.6679049 -1.0488231 -0.30474767
-4.5956383 -1.162183 -0.32807988
-4.5866547 -1.1697913 -0.33131489
-4.4660954 -1.1537807 -0.38082212
-4.4043965 -1.1325278 -0.40683246
-4.3488202 -1.1532714 -0.42820361
-4.3219233 -1.1736021 -0.43801543
-4.2664714 -1.1697099 -0.4606075
-4.2315979 -1.1502686 -0.47569242
-4.1735873 -1.1442157 -0.49942899
-4.0772424 -1.1303495 -0.53904802
-3.9969938 -1.1517437 -0.5703482
-3.9503665 -1.1477244 -0.58938348
-3.8788712 -1.1911337 -0.61601329
-3.7263513 -1.1886388 -0.67772883
-3.6910005 -1.1916406 -0.69184834
-3.5834846 -1.2508214 -0.73220944
-3.5720835 -1.2684362 -0.7359044
-3.5079882 -1.2462772 -0.7629289
-3.5001626 -1.244879 -0.76616108
-3.4796228 -1.2229922 -0.77558404
-3.4569263 -1.1681788 -0.78757685
-3.4560096 -1.0887132 -0.79204696
-3.2754116 -1.1246076 -0.8631196
-3.2723582 -1.1645386 -0.86229235
-3.2511609 -1.2468153 -0.86660683
-3.2509453 -1.2480545 -0.86662984
-3.2132885 -1.3257403 -0.87782747
-3.2131295 -1.3332214 -0.87750566
-3.1635873 -1.4054267 -0.89378518
-3.2441905 -1.5322095 -0.85469687
-3.279382 -1.5366889 -0.84025556
-3.2850795 -1.5377058 -0.83790243
-3.3146267 -1.5386745 -0.82592148
-3.3672695 -1.5287483 -0.80517679
-3.4496179 -1.5123098 -0.77277297
-3.5255969 -1.446695 -0.74547839
-3.614511 -1.5177103 -0.70591128
-3.6486597 -1.5238112 -0.69180757
-3.5904903 -1.5252396 -0.71522224
-3.5439162 -1.5187265 -0.73436475
-3.4867511 -1.5292258 -0.75690609
-3.4616733 -1.5301776 -0.76698321
-3.4205723 -1.5346563 -0.78334856
-3.3852215 -1.5376582 -0.79746807
-3.3556218 -1.5391831 -0.80934161
-0.50716591 1.3900553 -2.1106641
-0.51433134 1.3953612 -2.1080444
-0.48771286 1.3874623 -2.1183856
-0.43218422 1.388869 -2.1408801
-0.40608263 1.3841 -2.1511738
-0.38199234 1.3789216 -2.1606343
-0.36130333 1.3727918 -2.1686718
-0.34651804 1.3708352 -2.1745412
-0.33518267 1.3704202 -2.1790972
-0.30272293 1.3717879 -2.1922746
-0.33835745 1.3720142 -2.1778972
-2.4055219 1.1419502 -1.3313167
-2.343138 1.1023669 -1.3544648
-2.3394573 1.0629982 -1.3539199
-2.3407731 1.0227087 -1.3513098
-2.342803 0.98228753 -1.3484046
-2.3390107 0.90289247 -1.3458397
-2.2702184 0.82532537 -1.3696158
-2.2715983 0.78546548 -1.367002
-2.2843995 0.74350083 -1.3596679
-2.2660911 0.62585104 -1.3609908
-2.2652657 0.58595598 -1.3592657
-2.3242195 0.46510082 -1.3292252
-2.3598578 0.44807363 -1.313956
-2.4854929 0.42534256 -1.2620524
-2.5217276 0.34386688 -1.2432175
-2.5244873 0.26414692 -1.23799
-2.5196638 0.24412972 -1.238905
-2.512635 0.22407752 -1.2407086
-2.5356376 0.14239252 -1.2272059
-2.5233908 0.10460222 -1.2302014
-2.515949 0.064602613 -1.2311425
-2.5151236 0.024707735 -1.2294174
-2.5054767 -0.015326709 -1.2312473
-2.4985895 -0.1350812 -1.2278497
-2.5202761 -0.17647672 -1.2169571
-2.5204144 -0.28935686 -1.2110773
-2.4765823 -0.32849121 -1.2267574
-2.4768195 -0.33483481 -1.2263343
-2.5182903 -0.37634581 -1.2074471
-2.6040194 -0.52881718 -1.1649635
-2.5981526 -0.60869092 -1.1632115
-2.6153772 -0.6505155 -1.1540984
-2.6190658 -0.69033104 -1.1505548
-2.6227543 -0.73014665 -1.147011
-2.6176136 -0.77012396 -1.1470243
-2.6183691 -0.8498764 -1.1426045
-2.6191242 -0.92962885 -1.1381848
-2.6198795 -1.0093813 -1.1337651
-2.6059387 -1.1691692 -1.1311504
-2.5588126 -1.2124081 -1.1479487
-2.5397472 -1.290031 -1.1516424
-2.5625758 -1.3693792 -1.1383305
-2.482641 -1.5179121 -1.1629444
-2.4231977 -1.528736 -1.1863889
-2.435904 -1.5214968 -1.1816316
0.048530102 -1.2926711 -2.1966398
0.047090054 -1.3325288 -2.1940019
0.036865711 -1.3747284 -2.187696
0.028478622 -1.3675476 -2.18468
0.022589207 -1.3277062 -2.1843574
0.043839931 -1.2481641 -2.197042
0.048008919 -1.2505076 -2.1986046
0.04997015 -1.2528135 -2.1992776
-10.246065 -1.5405539 1.9730558
-10.380867 -1.5906553 2.0300732
-10.451054 -1.543735 2.0559933
-10.480782 -1.5349126 2.0675426
-10.517258 -1.5147328 2.0812297
-10.553455 -1.4469191 2.0923474
-10.607302 -1.39217 2.1112659
-10.617943 -1.3172623 2.1116982
-10.645736 -1.2621305 2.1200759
-10.646769 -1.2197328 2.1183057
-10.669247 -1.1545608 2.1240199
-10.666183 -1.0738887 2.1186202
-10.642588 -0.95483315 2.1029503
-10.66864 -0.91402578 2.1113648
-10.638892 -0.83518755 2.0952852
-10.635112 -0.75439179 2.0895901
-10.635369 -0.71436495 2.0876288
-10.675448 -0.63469887 2.0997024
-10.676422 -0.59479499 2.0980365
-10.675369 -0.54953313 2.0952761
-10.67701 -0.48219541 2.0924647
-10.679596 -0.43505612 2.0910771
-10.678347 -0.42732763 2.0901737
-10.650563 -0.35634196 2.0752923
-10.649618 -0.33614081 2.0738688
-10.650105 -0.3161906 2.0730357
-10.647728 -0.29574293 2.0710211
-10.677849 -0.21185422 2.0788558
-10.683312 -0.1351586 2.0771048
-10.655968 -0.016663611 2.0599494
-10.685022 0.082436621 2.0665686
-10.692207 0.14130378 2.0664327
-10.693605 0.19866556 2.0640376
-10.689278 0.257016 2.0592794
-10.665923 0.38394552 2.0433006
-10.657227 0.3888455 2.039536
-10.635429 0.54426241 2.0227163
-10.659619 0.66392493 2.02631
-10.659875 0.74318969 2.0223236
-10.613836 0.76306188 2.002708
-10.57078 0.82666576 1.9820402
-10.528062 0.8255862 1.9648468
-10.382765 0.90706038 1.901973
-10.377842 0.87025273 1.9018844
-10.378271 0.86816669 1.9021653
-10.370516 0.75049722 1.9051046
-10.371994 0.70104718 1.9082527
-10.375612 0.66866922 1.9113846
-10.515698 0.62494648 1.9702063
-10.367313 0.50901008 1.916271
-10.368001 0.42713815 1.9207726
-10.365828 0.3890515 1.9218597
-10.354436 0.27160716 1.9233196
-10.476341 0.18571824 1.9769754
-10.483297 0.14484882 1.9818933
-10.487738 0.10682803 1.9856477
-10.355526 -0.013912231 1.9384906
-10.349403 -0.04890269 1.9378235
-10.345566 -0.13160357 1.940541
-10.344166 -0.16942129 1.941927
-10.340015 -0.24925092 1.9443698
-10.343881 -0.29119694 1.9480946
-10.345171 -0.30904245 1.9495361
-10.344626 -0.35103244 1.9514828
-10.341449 -0.39095828 1.9522595
-10.336126 -0.40886632 1.9510343
-10.343452 -0.47386268 1.9573462
-10.341509 -0.55367041 1.9606786
-10.329544 -0.58845735 1.9576421
-10.330233 -0.67032915 1.9621441
-10.327482 -0.71234119 1.9632015
-10.33444 -0.75321156 1.9681196
-10.327314 -0.79004067 1.9671421
-10.332496 -0.83301926 1.9714518
-10.329319 -0.87294507 1.972229
-10.328346 -0.91284895 1.9738948
-10.321219 -0.94967806 1.9729173
-10.326401 -0.99265659 1.977227
-10.325428 -1.0325603 1.9788933
-10.318301 -1.0693896 1.9779153
-10.32128 -1.11239 1.9813364
-10.316786 -1.1512834 1.9815283
-10.319334 -1.1921978 1.9846683
-10.317875 -1.2520536 1.9871676
-10.313868 -1.2709949 1.9865265
-10.314211 -1.3119314 1.9887774
-10.314983 -1.3549531 1.9913089
-10.30905 -1.3782585 1.9901152
-10.144207 -1.4106299 1.9252226
-10.132758 -1.4281979 1.9215064
-10.048273 -1.5487231 1.8936101
-10.023474 -1.551867 1.8837584
-10.034986 -1.5513492 1.8883802
-10.070747 -1.5505893 1.9027812
-10.098886 -1.5559381 1.9144192
-10.134279 -1.5505981 1.9284356
-10.169613 -1.5477521 1.9425561
-10.19922 -1.5439177 1.9543135
-0.10123825 -0.85139567 -2.158931
-0.10684729 -0.88890964 -2.1547306
-0.25265217 -0.81345987 -2.0997481
-0.10832548 -0.72992289 -2.1623366
-0.10838795 -0.68989742 -2.1643763
-0.10668707 -0.64954716 -2.167145
0.029467106 -0.73299682 -2.2178178
0.037994862 -0.77146339 -2.2192767
-2.9824057 1.4064341 -1.1120197
-2.910455 1.3405356 -1.137673
-2.9226902 1.3783525 -1.1346836
-4.0742073 -1.6124921 -0.51539809
-3.9448376 -1.609822 -0.56777465
-3.9298911 -1.6114106 -0.57372808
-3.8435011 -1.6104568 -0.60866123
-3.8389449 -1.6113465 -0.61045492
-3.7990081 -1.6285479 -0.6256938
-3.7876782 -1.6240206 -0.63050228
-3.6837454 -1.5332779 -0.67715168
-3.6723094 -1.5337379 -0.68174571
-4.0837717 -1.5122662 -0.51670706
-4.1179204 -1.5183672 -0.50260329
-4.1532707 -1.5153654 -0.48848382
-4.1889391 -1.4974014 -0.47500792
-4.2710752 -1.4909376 -0.44217512
-4.3298116 -1.5103309 -0.41745725
-4.259481 -1.4988788 -0.44644728
-4.2012062 -1.5052943 -0.46964729
-4.1004648 -1.6133502 -0.50475115
-8.4942141 -0.61543858 1.217937
-8.5623856 -0.60593873 1.2449741
-8.6204462 -0.64565647 1.270468
-8.631896 -0.64763266 1.2751935
-8.7730465 -0.64373088 1.3319881
-8.8244152 -0.6611836 1.3536307
-8.8788033 -0.64516896 1.374766
-8.9146271 -0.66145927 1.3900722
-8.9299755 -0.70015508 1.3982661
-8.957118 -0.73847187 1.411203
-8.9595318 -0.74264503 1.4123933
-8.9230947 -0.74655277 1.3978816
-8.8541079 -0.90351844 1.3781233
-8.8929043 -0.98069853 1.3977712
-8.9036694 -1.0206158 1.4041778
-8.8922825 -1.0356898 1.4003576
-8.8526812 -1.1428974 1.3898979
-8.8876686 -1.2643212 1.4102902
-8.9902506 -1.3252294 1.4548547
-9.0096054 -1.3449832 1.4636892
-8.985672 -1.4246184 1.4581337
-9.0254402 -1.5051857 1.4783487
-9.1145401 -1.5413164 1.5161909
-9.1255627 -1.5412064 1.5206361
-9.1638956 -1.5450048 1.5363109
-9.2316866 -1.5472246 1.563799
-9.2545271 -1.553671 1.5733546
-9.3601608 -1.5600971 1.6163405
-9.2348728 -1.6229091 1.5689905
-9.2271137 -1.6640564 1.5679804
-9.1830235 -1.6644964 1.5501994
-9.1064091 -1.6232762 1.5171365
-8.9976997 -1.5424823 1.4690717
-8.9735107 -1.5402303 1.4591882
-8.9383602 -1.5355942 1.4447553
-8.9269094 -1.5336181 1.4400295
-8.8566685 -1.521852 1.4110596
-8.7632227 -1.5186034 1.3731591
-8.7394619 -1.5184376 1.363556
-8.6926775 -1.5193075 1.3447096
-8.6161785 -1.4989479 1.3127693
-8.5646276 -1.4889771 1.2914388
-8.5409279 -1.4863172 1.2817316
-8.4578991 -1.5274427 1.2503266
-8.4462051 -1.5354426 1.2460177
-8.4105682 -1.5507585 1.2324178
-8.3514738 -1.5534385 1.2086941
-8.3985624 -1.5400988 1.2270199
-8.4345026 -1.512313 1.2400991
-8.4821987 -1.4740334 1.2573833
-8.5123062 -1.4201961 1.2667631
-8.549983 -1.3801873 1.2799125
-8.5574245 -1.2812922 1.2778149
-8.5123425 -1.2123303 1.256053
-8.4690418 -1.1803483 1.2369186
-8.4434385 -1.1456964 1.2247921
-8.428072 -1.0979638 1.2161247
-8.4292173 -1.0568824 1.2144673
-8.4329386 -0.97496659 1.2117437
-8.4451408 -1.0758648 1.2218765
-8.4665775 -1.1005847 1.2318082
-8.5261106 -1.1506642 1.2584311
-8.6693058 -1.0608888 1.3116207
-8.6695633 -1.0208614 1.3096594
-8.6749439 -0.98091358 1.3097712
-8.6715078 -0.94105375 1.306327
-8.6786652 -0.89899778 1.3070475
-8.6734533 -0.86124599 1.302995
-8.4979506 -0.85921931 1.2320232
-8.4723606 -0.89478493 1.2235252
-9.8319511 1.3785177 1.6552331
-9.8495874 1.3786944 1.6623455
-9.8786745 1.3768935 1.6741836
-9.8901253 1.3749174 1.6789093
-9.8662434 1.3700953 1.6695147
-9.8018236 1.3690501 1.6435562
-9.7904339 1.3735205 1.6387264
-0.44339943 1.3767906 -2.1357284
-0.39534378 1.3694007 -2.1547515
-0.75570917 -0.36631885 -1.9196857
-0.75770235 -0.37449318 -1.9184593
-0.74793291 -0.41156563 -1.9204913
-0.74206638 -0.4914394 -1.9187393
-0.75708342 -0.53330439 -1.9105155
-0.7427206 -0.61164105 -1.9122735
-0.74056053 -0.69130588 -1.9090354
-0.76478195 -0.73483598 -1.8970093
-0.80766535 -0.76692724 -1.8780373
-0.85390329 -0.7907716 -1.8581365
-0.81278992 -0.84909242 -1.8717289
-0.78199625 -0.861884 -1.8835031
-0.73516893 -0.87045556 -1.9019696
-0.67590714 -0.87130511 -1.9258554
-0.6065588 -0.86829734 -1.954013
-0.68823195 -0.72890317 -1.9282258
-0.53079557 -0.64807081 -1.9959681
-0.48516703 -0.60902333 -2.0164073
-0.4312768 -0.49360862 -2.0441225
-0.43866968 -0.45359945 -2.0432014
-0.52119112 -0.36360765 -2.0145228
-0.64067078 -0.44889957 -1.9618771
-0.64877462 -0.48863429 -1.9565548
-0.69765711 -0.60964531 -1.9305729
-5.4984961 -1.5002377 0.05393108
-5.4405746 -1.4917634 0.030105382
-5.5226545 -1.4878479 0.063046925
-5.5600882 -1.4877696 0.078158237
-5.6265821 -1.5277694 0.10707205
-5.6505203 -1.5253556 0.11661354
-5.7210155 -1.5294493 0.14529046
-5.7676826 -1.5309689 0.1642127
-5.7089376 -1.5113845 0.13948131
-5.6598148 -1.4919153 0.11864132
-3.9186139 -1.5193342 -0.58303231
-3.8832636 -1.522336 -0.59715176
-3.860498 -1.5182687 -0.60655427
-3.6926227 -1.5306572 -0.6737023
-8.1873007 -1.558376 1.1426566
-8.2581501 -1.5452021 1.1705853
-8.2694788 -1.5521663 1.1755193
-8.1306219 1.3687702 0.96874762
-8.060441 1.3830302 0.93967354
-8.0374184 1.3819946 0.93043029
-8.0838985 1.3703943 0.94979715
-7.6970654 1.3827792 0.79295713
-7.6854935 1.3797675 0.78843957
-7.7200279 1.381321 0.80230451
-8.5181227 1.3838192 1.1244423
-8.6113873 1.3730887 1.1626556
-8.6467199 1.3759347 1.1767759
-8.6238785 1.382381 1.1672202
-8.7519894 1.3545446 1.220387
-8.7872019 1.3524024 1.2347158
-8.8270111 1.3619894 1.2502962
-8.7693481 1.3590623 1.2271633
-8.707653 1.3636727 1.2020133
-7.31495 -1.591553 0.79211742
-7.3560944 -1.6171517 0.81005204
-7.4133315 -1.5460761 0.82949704
-7.4018803 -1.5440999 0.82477123
-7.2979059 -1.5400833 0.78257942
-7.2694397 -1.5376601 0.77095985
-7.2518435 -1.5353898 0.7637375
-7.1988893 -1.5360605 0.74238962
-7.104291 -1.5418626 0.70449054
-7.2136345 -1.5786681 0.75054181
-7.2428012 -1.579618 0.76236826
-0.47527552 1.3784704 -2.1229436
-0.67388153 -0.35808259 -1.9531524
-0.70642805 -0.37018582 -1.9393858
-0.73530626 -0.37006962 -1.9277309
-1.4961824 -1.5349014 -1.5603949
-1.4736164 -1.5258156 -1.5699757
-1.5555799 -1.5265713 -1.5368403
-5.1624928 -1.4984735 -0.08183638
-5.1397276 -1.4944063 -0.091238789
-5.0886478 -1.4948748 -0.11184043
-5.0578022 -1.4908952 -0.12450098
-5.0338345 -1.4959307 -0.13391922
-5.0760183 -1.5017495 -0.11658539
-5.1466241 -1.5008552 -0.088121317
-8.3061848 1.3692374 1.0396152
-8.2595835 1.3758496 1.0204564
-8.3185558 1.3735418 1.0443883
-8.2240076 1.3630277 1.0067527
-8.1889172 1.3701577 0.99221563
-7.5196056 1.3841562 0.72122854
-7.4625301 1.38462 0.69815791
-7.4156852 1.3812561 0.67941564
-7.3087778 1.380226 0.63630027
-7.2609568 1.3727055 0.61737823
-7.2961936 1.3707104 0.63170969
-7.40201 1.3697124 0.67448932
-7.413363 1.3652039 0.67930615
-7.4455614 1.3685867 0.69213313
-7.4586735 1.3679336 0.69746155
-7.50804 1.3786896 0.71684051
-7.5328922 1.3778418 0.72691947
-7.6027603 1.3822412 0.75490481
-5.7020864 1.4459606 -0.015865311
-5.6429253 1.379989 -0.036350563
-5.6779494 1.3680189 -0.021590412
-5.7247515 1.3714904 -0.0028710589
-5.7485294 1.3690162 0.0068579912
-5.8067374 1.3704729 0.030286908
-5.8182497 1.3734456 0.034782149
-5.7206454 1.4473108 -0.0084409863
-9.1978474 1.3734751 1.3994455
-9.2682705 1.3691911 1.4281029
-9.3036652 1.374531 1.4421194
-9.2569408 1.3761551 1.4231689
-9.2454901 1.3781313 1.4184431
-9.1282225 1.3790518 1.3710436
-9.1274252 1.3777592 1.3707881
-6.5884237 -1.542829 0.49623588
-6.6474752 -1.5324246 0.51954365
-6.6705041 -1.5389137 0.52917743
-6.635036 -1.5468427 0.51526469
-0.41661549 -0.35625958 -2.0571289
-0.44191313 -0.35449257 -2.0470052
-0.45320082 -0.35657448 -2.04234
-0.48958635 -0.35463846 -2.0277474
-0.5338974 -0.35636845 -2.0097656
-0.54771423 -0.35828936 -2.0040872
-0.60712242 -0.342601 -1.980908
-0.61617899 -0.33966947 -1.9774023
-0.6537261 -0.34913418 -1.9617528
-3.7327538 1.4020071 -0.80880433
-3.7002797 1.3974791 -0.82168365
-3.6508756 1.4080075 -0.8421759
-3.6185668 1.410965 -0.85537469
-3.6071839 1.4129986 -0.86007595
-3.5981452 1.4171818 -0.86394155
-3.5960131 1.425007 -0.8652063
-3.6313105 1.4255152 -0.85097951
-3.6665549 1.4235296 -0.83664548
-3.7244594 1.4124893 -0.81269437
-3.745255 1.4066995 -0.80399847
-3.7950015 1.4110118 -0.78413361
-3.8391061 1.4260485 -0.76710016
-3.872818 1.419361 -0.75314248
-3.8808599 1.419201 -0.74988693
-3.9122767 1.4105027 -0.73675215
-3.9359798 1.4030695 -0.72679746
-3.9702873 1.4044497 -0.71301562
-4.0406704 1.3954912 -0.68413305
-3.9795985 1.3957653 -0.70880771
-3.9443047 1.3952321 -0.72303158
-3.8882563 1.4029735 -0.74606305
-3.8488491 1.410709 -0.76237464
-3.8033409 1.4030735 -0.78035671
-5.9556155 -1.5282062 0.23995653
-5.9202576 -1.5311474 0.225831
-5.9782891 -1.5346338 0.24944368
-7.5266027 -1.5478327 0.87532616
-7.5038743 -1.5438988 0.8659454
-7.538022 -1.5473055 0.87990999
-8.5027046 -0.73490566 1.2275294
-8.4986076 -0.78111196 1.228259
-8.4505577 -0.88502902 1.2142181
-8.437089 -0.89513689 1.2093008
-8.4343662 -0.89869171 1.2083849
-8.4303589 -0.93927908 1.2088606
-7.0856323 1.379249 0.54624552
-7.1916089 1.3857323 0.58870387
-7.214314 1.3767153 0.59833729
-7.2028551 1.3762363 0.59373492
-7.1790237 1.3762168 0.58411306
-9.9288044 -1.5673689 1.8463311
-9.8709946 -1.5488045 1.8220302
-9.8352966 -1.5666145 1.8085341
-9.8175993 -1.5692842 1.8015258
-9.8405619 -1.5707426 1.8108733
-9.8581982 -1.5705669 1.8179858
-9.8643837 -1.5684143 1.8203722
-0.40658331 -0.35510555 -2.0612397
-0.38577747 -0.37154475 -2.0687928
-0.34126568 -0.45299831 -2.0825639
-0.28810978 -0.52728468 -2.1001954
-0.26084709 -0.58692932 -2.1081264
-0.31484985 -0.64831913 -2.083153
-0.32242155 -0.72667593 -2.0760531
-0.2671566 -0.81079698 -2.0940287
-0.28969669 -0.80828017 -2.0850568
-0.40471029 -0.94404662 -2.0316103
-0.27420521 -1.012502 -2.0807757
-0.40469885 -0.96782482 -2.0303881
-0.43791819 -0.93390489 -2.0187242
-0.52258205 -0.91173959 -1.9856813
-0.55826283 -0.89114451 -1.9723359
-0.57092381 -0.88639891 -1.9674685
-0.54247427 -0.89166951 -1.9786843
-0.414639 -0.77371615 -2.0363891
-0.26542044 -1.5261383 -2.0578227
-0.27680397 -1.5232298 -2.053376
-0.31218195 -1.5201303 -2.0392504
-0.35877466 -1.5281789 -2.0200214
-0.37010288 -1.5302281 -2.0153415
-0.39409208 -1.527532 -2.0057938
-0.38269806 -1.5263984 -2.010453
-0.33620834 -1.519093 -2.0296023
-0.30127859 -1.4981041 -2.0447896
-0.20775604 -1.5101202 -2.0819337
-0.12443686 -1.5111085 -2.1155264
-0.10906935 -1.4916515 -2.1227357
-0.25418091 -1.5215663 -2.062597
-4.9679675 1.4158939 -0.31074759
-4.8974257 1.4173715 -0.33930841
-4.976346 1.4068878 -0.30689979
-5.0253425 1.3799168 -0.28572372
-5.1314468 1.3914158 -0.24347252
-5.1615567 1.3875116 -0.23111293
-5.1666384 1.3869367 -0.22903135
-5.2093248 1.3925383 -0.2120837
-5.1970067 1.3954916 -0.21721017
-5.1782861 1.3973715 -0.22486636
-5.1222353 1.4106359 -0.24818373
-5.0740194 1.4248996 -0.26838908
-5.0387745 1.4268851 -0.28272322
-6.6390214 1.3623323 0.366779
-6.6049099 1.3733641 0.35243592
-6.5810256 1.3708507 0.3429212
-4.8698788 -1.4938958 -0.20022872
-4.8107195 -1.4944521 -0.22408828
-4.857347 -1.4984714 -0.20505293
-4.9165592 -1.4954215 -0.18130068
-4.9632397 -1.4969469 -0.16237268
-4.9232306 -1.4928324 -0.17874038
-4.5528207 -1.5167971 -0.32707366
-4.6109366 -1.5178624 -0.30355179
-4.6757951 -1.4941969 -0.27858317
-4.7287946 -1.490941 -0.2573503
-4.6590471 -1.4520581 -0.28752011
-4.6291146 -1.4926714 -0.29751119
-8.0109386 -1.5601357 1.0715333
-8.0462112 -1.5597838 1.0857581
-8.0585213 -1.5579735 1.0906353
-8.1405783 -1.5567518 1.1237063
-8.0755901 -1.5358744 1.0963874
-7.9994278 -1.5606536 1.0669118
-7.9765863 -1.5542072 1.0573561
-8.499754 -0.69673944 1.2243686
-8.4852381 -0.65738207 1.2164764
-8.4857502 -0.62061846 1.2147868
-5.4197793 1.379012 -0.12640534
-5.3264408 1.3845381 -0.16438007
-5.2786727 1.3795115 -0.18340932
-5.3139629 1.3800101 -0.16918504
-5.3956828 1.3665237 -0.13549119
-5.4663692 1.3725085 -0.10725714
-5.5255432 1.3755205 -0.083518311
-5.4904127 1.3825032 -0.098064125
-5.4550695 1.3795108 -0.11218106
-7.0576787 -1.5378488 0.68546176
-6.9876795 -1.5113095 0.65582705
-6.9053793 -1.5252007 0.6233114
-6.8825402 -1.5262551 0.61414349
-6.8584366 -1.5361509 0.60492122
-6.9166884 -1.5296617 0.62810808
-6.9291525 -1.5302688 0.63317227
-6.9405718 -1.5297415 0.63775617
-7.0145631 -1.5369438 0.66800511
-6.5186448 -1.5063138 0.46617553
-6.4920559 -1.4945668 0.45483288
-6.4607239 -1.4978395 0.44235
-6.4015927 -1.4957126 0.4183636
-6.3400097 -1.4916114 0.39328507
-6.3198433 -1.4846642 0.38478354
-6.2495685 -1.4705946 0.35568091
-6.2045569 -1.4939866 0.33871242
-6.1436586 -1.5204556 0.3154875
-6.0728879 -1.5288317 0.28734285
-6.1309195 -1.5323182 0.31095555
-6.1902151 -1.5269632 0.33462259
-6.2843204 -1.4950871 0.37097722
-6.3086133 -1.4927347 0.3806653
-2.0825906 -1.5354458 -1.3235781
-2.1531806 -1.5366457 -1.2950124
-2.1772156 -1.5314559 -1.2855749
-2.1659322 -1.5269129 -1.2903655
-0.54678249 -1.522007 -1.9444232
-0.47588539 -1.5318366 -1.9725441
-0.42931557 -1.5278709 -1.9915532
-0.4533577 -1.5251863 -1.9819837
-0.48871708 -1.5235422 -1.9677905
-3.261023 1.4233477 -1.0003879
-3.1820846 1.424889 -1.0323424
-3.1705835 1.4219815 -1.0368364
-3.1465814 1.4143816 -1.0461363
-3.1848288 1.419382 -1.0309502
-6.7653227 -1.5231357 0.56665075
-6.7526937 -1.5300105 0.56190592
-6.7878861 -1.5345513 0.57635069
-6.535635 -1.5360178 0.47456869
-6.5065098 -1.5392624 0.46297529
-6.4479294 -1.5121959 0.43792447
-6.3785334 -1.5067426 0.40962133
-2.9635417 -1.5022348 -0.96956795
-3.0159197 -1.5047772 -0.94828683
-3.0803406 -1.5251874 -0.92122096
-3.1030002 -1.534242 -0.91160387
-3.1211238 -1.5356709 -0.90421194
-3.1325066 -1.5377046 -0.89951068
-3.1678042 -1.5371964 -0.88528395
-3.208787 -1.5377052 -0.86870909
-3.2382405 -1.5436614 -0.85650861
-3.2678404 -1.5421363 -0.84463507
-2.8984854 -1.511749 -0.99534649
-2.8574901 -1.5112402 -1.0119264
-2.8271 -1.5164739 -1.0239278
-2.7922752 -1.5282356 -1.0373831
-2.7750881 -1.526569 -1.044409
-2.7384741 -1.525439 -1.0592519
-2.7288663 -1.5258521 -1.0631101
-2.7046523 -1.5237076 -1.0729983
-2.6579428 -1.5189795 -1.0921034
-2.6227157 -1.5146394 -1.1065518
-2.5180044 -1.5147718 -1.1488268
-2.5053885 -1.5170239 -1.1538049
-3.1483471 -0.48494768 -0.94743001
-3.0481689 -0.60508955 -0.9816829
-2.9614298 -0.52562338 -1.0208076
-2.9631777 -0.44333121 -1.0243477
-9.787714 -1.5687768 1.7894323
-9.7532406 -1.5678363 1.7754636
-9.7646313 -1.5723064 1.7802933
-9.799902 -1.5719544 1.7945178
0 0 0 1 0 0 0 1 0 0 0 1 0 0 0 0 0 861 1 0 0
