ply
format ascii 1.0
comment PCL generated
element vertex 740
property float x
property float y
property float z
element camera 1
property float view_px
property float view_py
property float view_pz
property float x_axisx
property float x_axisy
property float x_axisz
property float y_axisx
property float y_axisy
property float y_axisz
property float z_axisx
property float z_axisy
property float z_axisz
property float focal
property float scalex
property float scaley
property float centerx
property float centery
property int viewportx
property int viewporty
property float k1
property float k2
end_header
-9.692174 1.4825041 0.16377521
-9.7026815 1.4825388 0.17024159
-9.7307463 1.450879 0.1851871
-9.7768383 1.3937545 0.20935655
-9.8073921 1.3799101 0.22713828
-9.7624245 1.3946983 0.20055914
-9.7310028 1.3881249 0.18074822
-9.7138033 1.3963795 0.17077231
-9.6393414 1.4296584 0.12740302
-9.593771 1.4140673 0.098227739
-9.5026951 1.3803949 0.03973484
-9.4726038 1.376807 0.020960808
-9.51791 1.4023594 0.050703287
-9.5630836 1.4328926 0.080729246
-9.5786295 1.4424052 0.090989113
-9.6087208 1.4459932 0.10976315
-1.3530688 -0.14605184 -5.085453
-1.3657131 -0.1266233 -5.0762515
-1.3373327 -0.12555024 -5.0936317
-1.3233676 -0.16974464 -5.1054597
-1.3228402 -0.18481302 -5.1068878
-1.2940149 -0.25095344 -5.1294651
-1.3731022 -0.32850942 -5.0864944
-1.3857465 -0.3090809 -5.0772924
-4.3585439 1.383866 -3.1245189
-4.3189278 1.3914692 -3.1483324
-4.2043223 1.3780857 -3.2198143
-4.1985836 1.377986 -3.223352
-4.1283903 1.3433604 -3.2690687
-4.1274123 1.3432391 -3.2696791
-4.0561161 1.3441929 -3.3134685
-4.0090895 1.3426652 -3.3425095
-4.0696449 1.3377627 -3.3056169
-4.0999589 1.334066 -3.2872396
-4.1130505 1.3314533 -3.2793775
-4.1302733 1.3303692 -3.268862
-4.1759996 1.3385774 -3.2401314
-4.1903949 1.3404132 -3.2311416
-4.2364106 1.3386573 -3.2029629
-4.270216 1.3503921 -3.1813073
-4.3549604 1.3696759 -3.1277628
-4.373301 1.3732462 -3.1162188
-4.4193888 1.3689992 -3.0881782
-8.6936131 -1.6541789 -0.6802696
-8.7339573 -1.6489476 -0.65506804
-8.816946 -1.5338582 -0.59558558
-8.8549089 -1.52925 -0.57189441
-8.9312983 -1.5374649 -0.52550399
-8.991231 -1.5341474 -0.48839271
-9.007555 -1.540699 -0.47883058
-9.0376463 -1.537111 -0.46005654
-8.9978905 -1.5272719 -0.48379242
-8.9675999 -1.5233889 -0.50214124
-8.9294386 -1.5205272 -0.52540743
-8.8828764 -1.4987628 -0.55245662
-8.8454771 -1.3758527 -0.56646001
-8.8970432 -1.295176 -0.5288291
-8.9103546 -1.2148111 -0.51475322
-8.9669514 -1.1483195 -0.4750663
-8.9853783 -1.1317574 -0.46251786
-8.9857397 -1.0537356 -0.45657992
-8.9966841 -1.0156541 -0.44705796
-8.9853363 -1.0013103 -0.45298851
-8.9771338 -0.98987997 -0.45719695
-8.9550457 -0.99742746 -0.4713372
-8.9234266 -0.99652958 -0.49072289
-8.8629131 -0.99125397 -0.52756226
-8.8326893 -0.98986125 -0.54605269
-8.7774038 -0.97422659 -0.57891738
-8.7342138 -0.98919511 -0.606583
-8.67237 -0.98690474 -0.64445925
-8.6578255 -0.98098028 -0.65297294
-8.6422424 -0.97050607 -0.66179168
-8.6276016 -0.97958767 -0.67146337
-8.6280479 -1.0123297 -0.67358673
-8.6211987 -1.0492171 -0.68050253
-8.7013941 -1.1297395 -0.63706744
-8.6931973 -1.2294137 -0.6494112
-8.7012157 -1.2916865 -0.64903998
-8.6910543 -1.3346469 -0.65843773
-8.6963701 -1.3489511 -0.65621507
-8.7426682 -1.3607541 -0.62859881
-8.7599993 -1.3739892 -0.61890662
-8.7474957 -1.5425506 -0.63894594
-8.6873131 -1.5497267 -0.676494
-8.5852308 -1.6522977 -0.74680448
-8.5050383 -1.5592983 -0.78932428
-8.4275169 -1.5615398 -0.83717656
-8.4129715 -1.5556152 -0.84569061
-8.3066235 -1.555969 -0.91113853
-8.2007961 -1.6290385 -0.98159206
-8.1705723 -1.6276457 -1.0000826
-8.0766544 -1.5542326 -1.0524803
-8.0478935 -1.5548353 -1.0702169
-8.0001335 -1.5410368 -1.0985872
-8.0703545 -1.6456933 -1.0630553
-8.0825319 -1.648762 -1.0557891
-8.1350479 -1.686915 -1.0262774
-8.1652718 -1.6883076 -1.007787
-8.2019205 -1.6713746 -0.98400164
-8.317934 -1.6844473 -0.91359174
-8.3409176 -1.6841228 -0.89942932
-8.449419 -1.6493254 -0.8301338
-8.5365763 -1.6632907 -0.77754056
-8.582345 -1.6551708 -0.7487905
-8.6559563 -1.6477745 -0.70296538
-8.6587505 -1.6480762 -0.70126867
-10.836773 1.1926879 0.84666467
-10.836338 1.137987 0.84239078
-10.834122 1.0727272 0.83624649
-10.831532 1.1503654 0.84034038
-10.844021 -0.86549729 0.70036054
-10.830881 -0.79221493 0.69764447
-10.836437 -0.74852359 0.70426369
-10.830585 -0.63232136 0.70917535
-10.830139 -0.75100029 0.70020723
-10.75898 -0.8255862 0.65096951
-10.75818 -0.90963972 0.64432001
-10.766066 -0.92243969 0.64823389
-10.763433 -1.1048896 0.63324976
-10.785618 -1.1524533 0.64341283
-10.786629 -1.1549872 0.6438489
-10.821224 -1.2679513 0.6568563
-10.806538 -1.3098387 0.64475346
-10.791455 -1.3367836 0.63350153
-10.774246 -1.4703058 0.61313462
-10.703519 -1.5471597 0.56399584
-10.676644 -1.5603265 0.54649901
-10.722479 -1.5546968 0.5751071
-10.782991 -1.5599725 0.61194658
-10.797274 -1.5559356 0.62102771
-10.804029 -1.5500617 0.62561369
-10.809739 -1.5460014 0.62942386
-10.812489 -1.5339712 0.63199615
-10.823635 -1.5075365 0.64078975
-10.824852 -1.4577137 0.64518809
-10.847065 -1.3885332 0.66391993
-10.850416 -1.3461237 0.6690886
-10.927176 -1.2526551 0.72315431
-10.92605 -1.210319 0.72556376
-10.946815 -1.1529636 0.74253917
-10.954159 -1.1320201 0.74859047
-10.955489 -1.1290349 0.74962735
-10.954365 -1.0866987 0.75203705
-10.95225 -1.007007 0.7565732
-10.828703 -0.41265738 0.72410774
-10.828401 -0.47234076 0.71955013
-10.833868 -0.50962275 0.7201829
-10.839941 -0.42754152 0.72993088
-10.835003 -0.41018072 0.72816467
-10.835304 -0.3505007 0.73272181
-10.827947 -0.3131316 0.73093295
-10.833717 -0.29073036 0.73612404
-10.838655 -0.30809119 0.73789024
-4.7692003 1.3528005 -2.8741727
-4.8533859 1.3932625 -2.8194206
-4.7700729 1.3678522 -2.8725333
-4.7084999 1.3626851 -2.9107895
-4.6784029 1.3589088 -2.9295807
-4.6479445 1.3675876 -2.9476819
-4.5875335 1.3675079 -2.9848506
-4.5417347 1.3617907 -3.0134435
-4.5864439 1.3599297 -2.9860761
-4.6629901 1.3470038 -2.939934
-4.7245636 1.3521707 -2.9016778
-2.2071934 1.3625194 -4.4495211
-2.1909544 1.3805064 -4.4581928
-2.1311593 1.3578839 -4.496634
-2.108978 1.345127 -4.5112133
-2.1238625 1.306968 -4.5048523
-2.138747 1.2688091 -4.4984913
-2.1483035 1.2278427 -4.4956131
-2.151299 1.2103566 -4.4950514
-2.1587408 1.191277 -4.4918709
-2.1671424 1.2682786 -4.4810619
-2.1717288 1.3080087 -4.4753304
-4.0249767 -0.98314941 -3.5031035
-4.0555596 -0.99419856 -3.4850993
-4.0576835 -1.0614601 -3.4887197
-4.1210518 -1.153311 -3.4564657
-4.1260185 -1.1551852 -3.4535475
-4.1767793 -1.1585878 -3.4225707
-4.1826448 -1.1578475 -3.4189081
-4.2515378 -1.197753 -3.3794503
-4.2591052 -1.198024 -3.3748152
-4.3068185 -1.2170128 -3.3468547
-4.3230858 -1.2164643 -3.3368073
-4.3531895 -1.2127116 -3.3180137
-4.3824472 -1.199769 -3.2990673
-4.4129515 -1.2083268 -3.2809291
-4.4449916 -1.2087041 -3.2612467
-4.4753122 -1.212424 -3.2428665
-4.5213213 -1.2141566 -3.2146904
-4.5498247 -1.2156724 -3.1972671
-4.6116338 -1.2028986 -3.1583085
-4.6724205 -1.2153203 -3.1218245
-4.6881809 -1.2158238 -3.1121662
-4.7485337 -1.2133003 -3.0748541
-4.8244305 -1.2038075 -3.0274701
-4.7590618 -1.2369667 -3.0701113
-4.7190084 -1.2369798 -3.0947518
-4.6889763 -1.2432233 -3.1136837
-4.6341448 -1.2325473 -3.1466322
-4.5812731 -1.2541242 -3.1807375
-4.5360703 -1.2774347 -3.2102525
-4.5060239 -1.2736561 -3.2284594
-4.491097 -1.2708006 -3.2374325
-4.4142098 -1.2481856 -3.2830744
-4.4130363 -1.2482363 -3.2837999
-4.3985677 -1.25016 -3.2928417
-4.3233004 -1.2376028 -3.3382237
-4.2918839 -1.2414078 -3.3578286
-4.2662296 -1.2371424 -3.3732982
-4.2490129 -1.2374762 -3.3839135
-4.2002201 -1.2481699 -3.4147124
-4.0966825 -1.3390646 -3.4850633
-4.1021967 -1.3940059 -3.4856958
-4.1152363 -1.4354187 -3.4807079
-4.2220039 -1.4779253 -3.4181416
-4.3286085 -1.4841863 -3.3530204
-4.4072385 -1.5134593 -3.3067946
-4.4381232 -1.5145774 -3.2878771
-4.4528947 -1.5158254 -3.2788815
-4.4216886 -1.5222652 -3.2985501
-4.3863745 -1.5168154 -3.3198748
-4.3611522 -1.5200965 -3.3356314
-4.3092179 -1.5167445 -3.3673339
-4.3006153 -1.5179279 -3.3727129
-4.2087936 -1.5197077 -3.4293287
-4.1715245 -1.5145047 -3.4518743
-4.1243548 -1.4755359 -3.4780369
-4.0755501 -1.4718866 -3.5077927
-4.0367031 -1.3917524 -3.5258203
-3.9899268 -1.3652394 -3.5526533
-3.9732981 -1.3173651 -3.5593758
-3.9880393 -1.3054513 -3.5494349
-3.983156 -1.1135803 -3.5383842
-3.8970098 -1.1155638 -3.5915236
-3.8771806 -1.1272486 -3.604578
-3.8311188 -1.1605746 -3.6353545
-3.8167288 -1.1649895 -3.6445303
-3.770818 -1.1658795 -3.6728382
-3.7407069 -1.1697774 -3.6916473
-3.7875292 -1.1565247 -3.6618729
-3.876389 -1.0772291 -3.6014009
-3.8826342 -1.037956 -3.5946822
-3.9477029 -0.985497 -3.5508118
-3.9631875 -0.9785403 -3.5407763
-3.9785938 -0.96909237 -3.5306067
-5.6014972 -1.4390627 -2.5666771
-5.6708508 -1.4753994 -2.5266747
-5.7358379 -1.4803909 -2.4870627
-5.6651125 -1.4811264 -2.5306244
-5.6399083 -1.4943193 -2.5470958
-5.6100211 -1.5055447 -2.5663033
-5.5039482 -1.5162991 -2.6323438
-5.4560952 -1.5591376 -2.6649191
-5.4452581 -1.5761126 -2.6728292
-5.3992491 -1.57438 -2.7010055
-5.3693404 -1.5630749 -2.7185762
-5.2843604 -1.5187505 -2.7676063
-5.2610478 -1.5191429 -2.781976
-5.2459888 -1.5210179 -2.7913771
-5.1881413 -1.5182849 -2.8267629
-5.1538982 -1.5150617 -2.8475919
-5.1237221 -1.5163236 -2.8662477
-5.0476809 -1.5208344 -2.9133563
-5.0269456 -1.5184612 -2.9259379
-4.9701505 -1.518095 -2.9608495
-5.068079 -1.3998916 -2.8919487
-5.0867782 -1.3285016 -2.8752162
-5.0207033 -1.1989323 -2.9063723
-4.976202 -1.1996669 -2.9338019
-5.0063272 -1.1810695 -2.9139075
-5.0743723 -1.161306 -2.8706007
-5.0809541 -1.1617376 -2.8665836
-5.1738086 -1.1600966 -2.8093424
-5.1794801 -1.1603271 -2.8058705
-5.2197666 -1.1818687 -2.7826655
-5.2811103 -1.191687 -2.7456479
-5.3414869 -1.2016323 -2.7092347
-5.4137506 -1.2025999 -2.6648517
-5.4080439 -1.2433233 -2.6713452
-5.4087486 -1.4032358 -2.6826253
-5.5339513 -1.4649978 -2.6101291
-10.815734 0.38664839 0.77467918
-10.835483 0.30891117 0.78113389
-10.829211 0.18980893 0.76855159
-10.84143 0.31399807 0.78516507
-10.838123 0.34824076 0.78563905
-10.836008 0.42793229 0.79017496
-10.837351 0.43375012 0.79142761
-10.845106 0.47042295 0.79888463
-10.8304 0.55346167 0.79592037
-10.775214 0.47364345 0.75612521
-10.833826 1.2326208 0.84777689
-10.833759 1.2351111 0.84791851
-10.825212 1.2728148 0.84542251
-10.799797 1.3508129 0.83550119
-10.752735 1.3648589 0.80757856
-10.72371 1.3742175 0.79040933
-10.677742 1.3735687 0.76208401
-10.600874 1.4741822 0.72216749
-10.59324 1.4741882 0.71747136
-10.52503 1.3875083 0.6691618
-10.585609 1.379742 0.70585895
-10.676544 1.3656027 0.76076365
-10.691767 1.3500841 0.76899099
-10.738983 1.340899 0.797364
-10.823912 1.2713182 0.84451294
-10.833897 -0.12878338 0.7480967
-10.825233 -0.13322639 0.74244237
-10.823414 -0.21342835 0.73544765
-10.837116 -0.17166866 0.74693561
-2.044116 0.55163121 -4.6092386
-2.1504784 0.67774904 -4.5345697
-2.1584504 0.70624459 -4.5275784
-1.9970915 0.75073349 -4.6235819
-1.9897172 0.70613158 -4.6313858
-1.9989355 0.6510396 -4.6297503
-2.032861 0.54778099 -4.6164441
-1.9443908 0.45403591 -4.6777353
-1.9299078 0.4521406 -4.6867828
-1.8829145 0.44880435 -4.7159362
-1.8713517 0.43191424 -4.7242861
-1.8822007 0.42897019 -4.7178278
-1.9243283 0.42991117 -4.691844
-1.9352765 0.23536226 -4.6993599
-1.9279337 0.2281749 -4.7044034
-1.886909 0.19165471 -4.7323151
-1.8849249 0.18650386 -4.7339134
-1.8793068 0.085690439 -4.7447538
-1.8802819 0.053305298 -4.7465262
-1.8817067 0.0059732199 -4.7491169
-1.8691063 -0.053361088 -4.7612143
-1.8878379 -0.091348827 -4.7524738
-1.8666816 -0.20602964 -4.7738891
-1.8602848 -0.28684625 -4.7837439
-1.8604779 -0.33173439 -4.7869129
-1.86516 -0.44877189 -4.7926064
-1.8654284 -0.49615115 -4.7959118
-1.9273233 -0.54328132 -4.7612886
-1.9929631 -0.63280916 -4.7274671
-1.9967425 -0.55079174 -4.7191343
-1.989363 -0.5132333 -4.7209225
-1.9948454 -0.4685598 -4.7142777
-2.0005164 -0.38661394 -4.7047863
-2.0290859 -0.35041469 -4.6845598
-2.0111384 -0.21291672 -4.6855288
-2.0068462 -0.13312796 -4.6823244
-2.0196354 -0.036521345 -4.6673803
-2.1487381 0.025827616 -4.5833941
-2.0144143 0.10551074 -4.6601887
-2.0058203 0.19048426 -4.6592512
-2.0135775 0.22747049 -4.6517696
-2.022825 0.3789542 -4.634985
-2.0382016 0.3896158 -4.6247444
-2.0527532 0.4276801 -4.6130047
-2.0570796 0.4723064 -4.6070743
-2.0505035 0.50241506 -4.6089144
-10.819869 0.71036804 0.80093575
-10.831003 0.67282486 0.80503535
-10.826999 0.75260365 0.80841541
-10.822994 0.83238232 0.81179595
-10.823599 0.95174563 0.82091117
-10.812285 0.82734179 0.8048389
-10.823846 0.74721503 0.80608106
-9.9599056 1.3734417 0.32048559
-9.9914589 1.3750342 0.34001303
-10.007203 1.3770757 0.34984803
-9.9920921 1.3777727 0.34060287
-9.945426 1.3768759 0.31182981
-9.9158354 1.3810068 0.29392934
-9.9447279 1.376629 0.31138253
-5.0435543 1.3571061 -2.7050838
-5.0077186 1.3925638 -2.7245317
-4.9978328 1.393842 -2.7305193
-4.9373493 1.3962535 -2.76755
-4.9295712 1.392792 -2.7725887
-5.0128069 1.3757492 -2.7226331
-5.0289421 1.3627436 -2.7136598
-2.6314538 -0.87049204 -4.3520994
-2.6574388 -0.8740083 -4.3363719
-2.6914952 -0.875296 -4.315516
-2.6980858 -0.87570345 -4.3114915
-2.7794034 -0.97552824 -4.2687798
-2.8245339 -0.98723328 -4.2418742
-2.8617136 -0.99103653 -4.2192812
-2.9116204 -0.98884237 -4.1884198
-2.9271052 -0.98188567 -4.1783843
-3.003397 -0.95455384 -4.1294498
-3.0060492 -0.95170391 -4.1276097
-3.0326087 -0.95327032 -4.1113858
-3.0850241 -0.99745011 -4.0823779
-3.1120851 -1.0206758 -4.0674324
-3.1552775 -1.0719901 -4.0446205
-3.1904631 -1.1503433 -4.0287151
-3.2992742 -1.1666368 -3.9629717
-3.2076101 -1.1733991 -4.0198555
-3.1919675 -1.1753734 -4.029623
-3.1581371 -1.1547298 -4.0489221
-3.145113 -1.1463693 -4.0563216
-3.129307 -1.1059431 -4.0630836
-3.0655453 -1.0016363 -4.0946674
-2.9765596 -1.033378 -4.1517334
-2.9368591 -1.0731952 -4.1790724
-2.9302516 -1.0815326 -4.1837482
-2.8937907 -1.1159648 -4.2086997
-2.8290508 -1.0744956 -4.2454877
-2.7304771 -1.0717187 -4.3059235
-2.6992273 -1.0706955 -4.3250723
-2.6767747 -1.0685797 -4.3387299
-2.6601579 -1.0706435 -4.349103
-2.6483026 -1.0727291 -4.3565483
-2.6422684 -0.99785113 -4.3547754
-2.5343122 -0.94653654 -4.417428
-2.5197544 -0.94594073 -4.4263401
-2.4737673 -0.94424736 -4.4545054
-2.4213235 -0.95484245 -4.4875431
-2.4123671 -0.95196998 -4.4928427
-2.375252 -0.95167518 -4.5156527
-2.3166335 -0.95405138 -4.551887
-2.2727878 -0.85466981 -4.5715799
-2.2414656 -0.81864899 -4.5882092
-2.1291931 -0.79277885 -4.6553807
-2.0166836 -0.79295897 -4.724606
-2.0107074 -0.78277969 -4.7275367
-1.9984553 -0.75245655 -4.7328525
-1.9996164 -0.66923159 -4.7260418
-3.4659441 -1.1601195 -3.8599646
-3.3900008 -1.1673987 -3.9072156
-3.4678035 -1.1179304 -3.8557303
-3.4889307 -1.1171031 -3.8426728
-3.5251436 -1.1199383 -3.8206036
-3.5401993 -1.1179893 -3.8111992
-3.6176369 -1.1580424 -3.7664962
-3.6341805 -1.1660075 -3.7569027
-3.6025813 -1.1599914 -3.7759004
-3.5275757 -1.1597464 -3.8220234
-3.5120122 -1.1642119 -3.8319249
-3.8226478 1.3397179 -3.457418
-3.8761277 1.3402297 -3.4244814
-3.8986068 1.3468447 -3.4101686
-3.9457498 1.3451986 -3.3812885
-3.8838239 1.3549141 -3.4186716
-3.8694909 1.3480364 -3.4279923
-3.793082 1.3558567 -3.4744239
-3.7170479 1.3512211 -3.5215368
-3.6937389 1.343325 -3.5364542
-3.711333 1.3455102 -3.5254707
-3.7658873 1.3418641 -3.492178
-3.7923005 1.3433536 -3.4758205
-2.725292 1.3432029 -4.1322188
-2.7643616 1.3431511 -4.1081886
-2.7490025 1.347374 -4.1173277
-2.7260733 1.355706 -4.1308222
-2.634325 1.3516191 -4.187562
-9.1833858 1.3892947 -0.15604138
-9.213213 1.4028442 -0.13670039
-9.2294197 1.3874532 -0.12785816
-9.3044786 1.376253 -0.082504749
-9.2441635 1.3740575 -0.1197691
-9.1980639 1.3783896 -0.14781094
-9.167841 1.3797822 -0.16630125
-9.1376839 1.3786844 -0.18493319
-9.076973 1.3914312 -0.22134709
-8.9995832 1.3842089 -0.26948333
-8.9115953 1.4029077 -0.32224059
-8.8877869 1.4031402 -0.33687031
-8.8813725 1.4043003 -0.34073102
-8.8469372 1.3956581 -0.36254716
-8.7976255 1.4053923 -0.392169
-8.7150259 1.4476123 -0.43988895
-8.6574593 1.412955 -0.47784054
-8.6348581 1.4115092 -0.49185002
-8.6115589 1.4098155 -0.50630701
-8.5441113 1.45151 -0.54474461
-8.5365152 1.451687 -0.54940414
-8.4768896 1.4136 -0.58887386
-8.4375534 1.3863226 -0.61507034
-8.3839121 1.3771822 -0.64873827
-8.2918444 1.3808653 -0.70510507
-8.3827801 1.3667259 -0.65020061
-8.3997879 1.3742429 -0.63918722
-8.444293 1.3768873 -0.61161554
-8.4904575 1.3700651 -0.58371603
-8.5143824 1.3661957 -0.56928194
-8.559761 1.368428 -0.5412029
-8.5919533 1.3672904 -0.52148306
-8.6041126 1.3662112 -0.51408172
-8.6191578 1.3680053 -0.50469494
-8.6500807 1.36686 -0.48575652
-8.6956139 1.3573 -0.45844638
-8.7354784 1.3646543 -0.43338394
-8.7796097 1.3600676 -0.4065721
-8.819499 1.345248 -0.38311911
-8.8955574 1.3494849 -0.33601999
-8.9258766 1.3624526 -0.31641889
-8.9710207 1.3761351 -0.28764534
-9.0314016 1.3758403 -0.25052285
-9.0458145 1.3748964 -0.24172521
-9.0614262 1.3819185 -0.2316072
-7.4097166 -1.5228647 -1.4604602
-7.3768225 -1.4745313 -1.4771553
-7.3007612 -1.3664826 -1.5160308
-7.3015656 -1.3263804 -1.5125985
-7.3081055 -1.2906123 -1.5059552
-7.3181863 -1.210916 -1.4939163
-7.3034782 -1.1311967 -1.4971244
-7.2904191 -1.0454475 -1.498877
-7.2821541 -1.0104175 -1.5013956
-7.2744856 -0.96980679 -1.5031379
-7.2762704 -0.92958033 -1.4990935
-7.2800164 -0.88910538 -1.4938242
-7.265584 -0.73093182 -1.4911163
-7.2624664 -0.69132638 -1.490133
-7.2616396 -0.62893051 -1.4860711
-7.2619376 -0.57139206 -1.481673
-7.2586436 -0.4918085 -1.4778697
-7.185092 -0.61600536 -1.5322137
-7.1895747 -0.77043915 -1.5407685
-7.2200766 -0.8884744 -1.5306509
-7.2104826 -0.9703232 -1.5425482
-7.1920009 -1.0491861 -1.5596945
-7.1929455 -1.0900156 -1.562104
-7.1921129 -1.2482251 -1.5742054
-7.1853261 -1.3259226 -1.5840716
-7.150351 -1.3652927 -1.6084709
-7.1418786 -1.4463667 -1.6196215
-7.0680065 -1.5256038 -1.6708692
-7.0593991 -1.5341942 -1.6767937
-7.0899372 -1.5453868 -1.6588278
-7.146153 -1.525826 -1.6228125
-7.1826315 -1.5291128 -1.6006131
-7.3086758 -1.446746 -1.5170413
-7.3470793 -1.4907383 -1.4966393
-7.3633461 -1.5086778 -1.4879465
-7.9096613 -1.5443301 -1.1544837
-7.8454533 -1.5273527 -1.1927387
-7.8112941 -1.5264703 -1.2136877
-7.7871728 -1.5317832 -1.2289153
-7.8333383 -1.5386055 -1.2010156
-7.2230077 -0.10282153 -1.4712985
-7.2195368 0.016749203 -1.4646749
-7.1828074 0.13684383 -1.4784727
-7.2157145 0.21627644 -1.4524107
-7.1782522 0.2965894 -1.4695733
-7.1048355 0.33740208 -1.5117474
-7.08354 0.36971346 -1.522481
-7.0759993 0.49939916 -1.51762
-7.0754232 0.54179966 -1.5148685
-7.0680151 0.57933903 -1.5166759
-7.0655136 0.61748481 -1.5154204
-7.0600309 0.65927899 -1.5157318
-7.0594549 0.70167947 -1.5129803
-7.0528646 0.86086464 -1.5053742
-6.9777741 0.89147031 -1.5493252
-6.9447722 0.900172 -1.5689896
-6.9321198 0.88077104 -1.5781939
-6.9526668 0.71581101 -1.5776377
-6.9808526 0.58185148 -1.5701113
-6.9947672 0.54357147 -1.5643556
-6.9990387 0.41915616 -1.5708413
-7.0076442 0.36021981 -1.5698647
-7.0313272 0.25974861 -1.5626552
-7.0354166 0.1387094 -1.5690058
-7.0975957 0.058052659 -1.5366635
-7.1131096 0.018425494 -1.5300224
-7.110589 -0.064385921 -1.5376389
-7.1566362 -0.10113797 -1.5120046
-7.19133 -0.22179309 -1.4995003
-7.1924868 -0.26165003 -1.501708
-7.2152252 -0.33098078 -1.4927988
-7.2259054 -0.37089354 -1.4891523
-7.2281623 -0.38218385 -1.4885908
-7.2470536 -0.45169473 -1.4820611
-10.447774 1.3753052 0.62074232
-10.372715 1.3865054 0.57538891
-10.296391 1.39223 0.52885675
-10.280516 1.3951693 0.51930571
-10.327939 1.4300141 0.55103159
-10.372023 1.4710656 0.58115721
-10.449038 1.3807808 0.62192106
-10.495005 1.3814297 0.65024614
-10.477997 1.3739127 0.63923287
-9.3809996 1.3630574 -0.036398172
-9.4270325 1.3612159 -0.0082149506
-9.3662558 1.3764529 -0.044487
-9.3505783 1.3719211 -0.054463387
-10.006502 -1.5717607 0.13341236
-10.021415 -1.5649862 0.14308262
-9.9761457 -1.5653871 0.11520553
-9.9590054 -1.5679235 0.10447526
-9.9747496 -1.5658821 0.11431003
-4.9255586 -1.5211221 -2.9885027
-4.8796935 -1.5243713 -3.0169554
-4.8638606 -1.521377 -3.0264759
-4.8939648 -1.5176243 -3.0076818
-6.9429426 -1.526264 -1.7478529
-6.9071722 -1.5382344 -1.7707344
-6.8704677 -1.4446896 -1.7864616
-6.8507161 -1.2846596 -1.7868899
-6.8722878 -1.4450916 -1.7853715
-6.769115 -0.94547319 -1.8122425
-6.8426185 -1.0056822 -1.771436
-6.8446503 -0.92352617 -1.7641681
-6.9149113 -0.80696034 -1.7124076
-6.9230371 -0.80466563 -1.7072406
-6.9543014 -0.7648167 -1.6850889
-6.972332 -0.72442997 -1.6710386
-6.9032478 -0.76294768 -1.7163584
-6.8398066 -0.75663793 -1.7549233
-6.7494469 -0.72324812 -1.8080636
-6.8020716 -0.84480715 -1.784595
-6.7877512 -0.88567269 -1.7963977
-7.6061282 1.3875597 -1.1264443
-7.5746403 1.3834767 -1.1461136
-7.6040521 1.394781 -1.1271925
-7.6185198 1.3941255 -1.1183406
-7.6645355 1.3923696 -1.0901618
-7.6363516 1.386167 -1.107954
-7.633204 1.3859971 -1.1099027
-6.0067821 -1.5108929 -2.3226211
-5.9609175 -1.5141419 -2.3510737
-5.8914266 -1.4840882 -2.3916206
-5.8819032 -1.4840293 -2.3974748
-5.8403816 -1.4820141 -2.4228697
-5.8078232 -1.4882917 -2.4433584
-5.7693038 -1.4843756 -2.4667675
-5.7656636 -1.4835715 -2.4689479
-5.789196 -1.4805905 -2.454253
-5.8814783 -1.4015821 -2.3916969
-5.9373636 -1.4833299 -2.3633063
-4.6804943 -1.5239327 -3.1394637
-4.6363592 -1.5122699 -3.1657598
-4.6178455 -1.5170285 -3.1774976
-4.6254759 -1.5169848 -3.1728005
-4.6352315 -1.5174737 -3.1668348
-2.1728506 0.87112916 -4.5066419
-2.1632314 0.91178119 -4.5095816
-2.160996 0.86904359 -4.5140872
-2.1687429 1.0703506 -4.4945755
-2.1680512 1.0305636 -4.4979153
-2.162786 0.99174118 -4.5039988
-2.1561956 1.028478 -4.5053616
-2.4705112 -0.87454188 -4.4514027
-2.3545902 -0.7542032 -4.5138984
-2.3031909 -0.75384343 -4.5454912
-2.2204452 -0.7481811 -4.5959787
-2.2088683 -0.74027836 -4.6025214
-2.1624315 -0.72363806 -4.629869
-2.0820136 -0.70820129 -4.6782084
-3.278511 1.345089 -3.791759
-3.2904415 1.3446834 -3.7844496
-3.3348217 1.3578899 -3.756181
-3.4107809 1.3650167 -3.7089314
-3.4567673 1.3633235 -3.6807661
-3.3965714 1.3807552 -3.7165198
-3.3889406 1.3807269 -3.7212162
-3.3658004 1.3717394 -3.7361095
-3.3201139 1.3634681 -3.7648201
-3.1220593 1.3558902 -3.8872118
-3.0461488 1.3662262 -3.9331522
-2.9696915 1.3565837 -3.9808927
-2.9240046 1.3483124 -4.0096035
-2.8932245 1.3469431 -4.0286388
-2.9045308 1.3433931 -4.0219436
-2.9084406 1.3438787 -4.0195026
-2.9539938 1.3371805 -3.9919705
-2.9998307 1.3404695 -3.9635324
-3.0150468 1.337405 -3.9543962
-3.0607331 1.3456764 -3.9256856
-3.0910807 1.3420407 -3.9072833
-3.1691568 1.3416225 -3.8592842
-3.2358806 1.3416334 -3.8182371
-3.182754 1.3486187 -3.8504071
-7.2618608 -0.33139923 -1.4641407
-7.2633109 -0.382783 -1.4670126
-7.2622132 -0.41135544 -1.4697807
-7.2604284 -0.45158198 -1.4738252
-7.2609968 -0.30306917 -1.4625971
-7.2263031 -0.18241404 -1.4751015
-7.2251458 -0.14255711 -1.4728937
-7.8200226 1.3962334 -0.99422848
-7.8345017 1.3927993 -0.9855727
-7.850246 1.3948407 -0.97573805
-4.4840603 -1.5138192 -3.2595625
-4.4988055 -1.5149354 -3.2505736
-4.5290737 -1.5160197 -3.2320328
-4.541666 -1.516834 -3.2243462
-4.5131812 -1.5202521 -3.2421196
-5.3095102 1.3453736 -2.5423362
-5.3184147 1.3439742 -2.5369611
-5.3341889 1.343424 -2.5272975
-5.3493862 1.3403288 -2.5181756
-5.3227038 1.3488582 -2.5339649
-5.303658 1.3545939 -2.5452609
-5.2726946 1.3582369 -2.5640416
-5.2569208 1.3587871 -2.573705
-5.2109776 1.358052 -2.6020217
-5.2266068 1.3624839 -2.5920823
-5.2423811 1.3619336 -2.5824189
-5.2574978 1.3613318 -2.5731637
-2.1541829 0.94576049 -4.5126591
-2.54707 -0.88734448 -4.4052439
-9.1888952 -1.5490549 -0.36788797
-9.1585398 -1.5426816 -0.38609493
-9.1506681 -1.5437016 -0.39101219
-7.5884275 -1.5160022 -1.3500208
-7.54246 -1.5166512 -1.378346
-7.5584021 -1.5220807 -1.3689365
-7.5744104 -1.5300008 -1.3596689
-7.5780659 -1.5317823 -1.3575509
-7.6042476 -1.5285265 -1.3412061
-7.6384907 -1.5317496 -1.3203769
-7.6686673 -1.5304879 -1.301721
-7.6844997 -1.5334823 -1.2922006
-7.7110481 -1.5335298 -1.2758726
-7.6643572 -1.5255262 -1.3040087
-7.6526175 -1.5200208 -1.3108275
-7.6063914 -1.5108157 -1.3385899
-6.8875608 1.3752061 -1.5693876
-6.9392481 1.3816512 -1.5371193
-6.9090066 1.3828568 -1.5556345
-4.5587554 -1.5171294 -3.213855
-4.5739684 -1.5201627 -3.2047188
-4.5873337 -1.5184803 -3.1963737
-4.5896111 -1.5181885 -3.1949515
-4.5668902 -1.5160092 -3.2087688
-6.9477553 1.382759 -1.5318048
-6.9636016 1.3797176 -1.5222795
-10.570362 -1.5631707 0.48090935
-10.478758 -1.5769202 0.42355084
-10.432592 -1.5700979 0.39565063
-10.462749 -1.5690002 0.41428304
-10.494171 -1.5624269 0.43409419
-6.9944239 1.3810556 -1.5032203
-7.024157 1.3748152 -1.4853868
-7.0319357 1.3782767 -1.4803481
-7.0341163 1.3794731 -1.4789191
0 0 0 1 0 0 0 1 0 0 0 1 0 0 0 0 0 740 1 0 0
