ply
format ascii 1.0
comment PCL generated
element vertex 503
property float x
property float y
property float z
element camera 1
property float view_px
property float view_py
property float view_pz
property float x_axisx
property float x_axisy
property float x_axisz
property float y_axisx
property float y_axisy
property float y_axisz
property float z_axisx
property float z_axisy
property float z_axisz
property float focal
property float scalex
property float scaley
property float centerx
property float centery
property int viewportx
property int viewporty
property float k1
property float k2
end_header
0.60478449 -1.5526019 1.2385361
0.64178991 -1.5520225 1.2266898
0.71627283 -1.5463657 1.2044417
0.75374889 -1.5412886 1.1940404
0.8287015 -1.5311344 1.1732377
0.86962128 -1.5363302 1.1580641
0.9404254 -1.5226493 1.1398658
0.86594248 -1.528306 1.1621137
0.8208766 -1.5195839 1.1798906
0.78340054 -1.5246611 1.1902919
0.73786449 -1.5204368 1.2066237
0.65970612 -1.5180696 1.2329201
0.5852232 -1.5237265 1.255168
0.54798222 -1.5265547 1.266292
0.47005558 -1.5219383 1.2933122
0.43672848 -1.530542 1.301109
0.40019226 -1.526624 1.3144007
0.31420612 -1.5127058 1.3473512
0.27768946 -1.5140073 1.3587819
0.27254534 -1.513639 1.3605882
0.21398592 -1.5407655 1.3700206
0.25490332 -1.5459609 1.3548481
0.28799868 -1.5396066 1.3463274
0.32524014 -1.5367782 1.3352034
-9.5686588 -1.47709 4.5787387
-9.5557785 -1.4636941 4.5793037
-9.5206776 -1.4818861 4.5614071
-9.5134926 -1.5024711 4.5517521
-9.4801846 -1.5397067 4.5276723
-9.4072666 -1.5490472 4.5006046
-9.3624268 -1.56195 4.4814157
-9.2816277 -1.5745223 4.450633
-9.244628 -1.573599 4.4389105
-9.2725296 -1.5855095 4.4437656
-9.3560677 -1.5808604 4.4726253
-9.4298515 -1.5804614 4.4967976
-9.4503498 -1.5777527 4.504436
-9.4664154 -1.5768933 4.5099735
-9.5816154 -1.5384204 4.5611644
-6.7450471 1.358304 4.6666932
-6.6697016 1.3735657 4.6475773
-6.6384335 1.3628318 4.6335793
-6.5652981 1.3567417 4.6075959
-6.624814 1.3394728 4.6208429
-6.6600513 1.3441617 4.6339855
-6.6991825 1.3566 4.6511502
-8.9622688 1.1851616 5.3272886
-8.9594765 1.1606686 5.3176756
-9.0406666 1.1793644 5.3507624
1.0900955 -1.5045896 1.0975376
1.0643578 -1.5269926 1.097959
0.98205042 -1.521099 1.1268599
1.0153775 -1.512495 1.119063
0.97790098 -1.5175723 1.1294644
-0.18681407 1.4052229 2.5474277
-0.2602942 1.4367352 2.5825574
-0.18059206 1.3890541 2.5396557
-0.17600656 1.379446 2.5347481
-0.11853218 1.3596187 2.5089836
-0.043895721 1.3678343 2.4875948
-0.0080661774 1.3548057 2.4712956
0.12031269 1.3499119 2.4277451
-0.015652657 1.3733845 2.4803686
-0.032298326 1.3828101 2.4891393
-0.098101139 1.378974 2.5092072
-0.13484526 1.3804858 2.5217116
-7.0452385 -1.2773612 3.8278654
-6.9949436 -1.1461993 3.8580937
-7.0678291 -1.2730643 3.8367498
-7.0801415 -1.2802173 3.838218
-7.0720491 -1.3492978 3.8110342
-7.1215639 -1.486307 3.7784736
-7.0657301 -1.4795907 3.762676
-6.9448876 -1.5611081 3.6943514
-6.8035421 -1.4425427 3.6904497
-6.7589617 -1.5481207 3.6384127
-6.7133298 -1.5522227 3.6220932
-6.636169 -1.5191789 3.6087053
-6.6084652 -1.5202129 3.5993149
-6.5840063 -1.5272013 3.5888655
-6.5551066 -1.5382012 3.5755444
-6.4810963 -1.5365996 3.5520093
-6.3775826 -1.5180652 3.5248823
-6.4042292 -1.4166282 3.5696073
-6.4128618 -1.4106523 3.574542
-6.4703593 -1.3668927 3.6088185
-6.4758263 -1.3588899 3.6134429
-6.6331673 -1.3072431 3.6830399
-6.6795015 -1.2248515 3.7274089
-6.6744099 -1.1910998 3.7377443
-6.6716814 -1.1126837 3.7647212
-6.6456242 -1.0664616 3.77266
-6.6053028 -0.97114158 3.7934
-6.5103049 -0.88948125 3.7914789
-6.3666463 -0.85160667 3.7581499
-6.3203201 -0.76916301 3.7723589
-6.2086296 -0.76002306 3.7392304
-6.0896626 -0.76926118 3.6972015
-6.0519819 -0.7617228 3.6876082
-5.9955482 -0.79451478 3.6575756
-5.9171124 -0.79424167 3.632127
-5.8721557 -0.80508143 3.6136332
-5.700932 -0.8478303 3.5426767
-5.648324 -0.78230965 3.548826
-5.4914517 -0.78176349 3.4979286
-5.4460449 -0.78811133 3.4808846
-5.4088149 -0.7850647 3.4698417
-5.3643084 -0.80039608 3.4498982
-5.4064894 -0.85285228 3.4449956
-5.3847876 -1.0047722 3.3839421
-5.3937612 -1.0431421 3.3732297
-5.4395094 -1.0660907 3.3799746
-5.5115571 -1.1643867 3.3685095
-5.5665741 -1.206756 3.371372
-5.5917087 -1.1647232 3.3944945
-5.6303082 -1.1245602 3.4213378
-5.8067732 -1.0715628 3.4976435
-5.6226473 -1.0765424 3.4359064
-5.5923958 -1.006089 3.4510899
-5.6210051 -0.84973973 3.5159669
-5.6916304 -0.84599531 3.5402994
-6.9454126 -1.4753532 3.7249956
-6.9817429 -1.4694165 3.7389379
-7.0664015 -1.3503721 3.8088131
-6.8080807 -1.3740909 3.7162526
-6.7671275 -1.294083 3.7313457
-6.7626362 -1.2208228 3.7559161
-6.9050016 -1.1164131 3.8393857
-6.942729 -1.1187322 3.8508489
-8.3014545 -1.2284 4.2543983
-8.3258171 -1.146924 4.291286
-8.3045063 -1.0579937 4.3159471
-8.2052441 -0.94405812 4.3241062
-8.080019 -0.79532242 4.3361759
-8.2088604 -0.79281592 4.3790283
-8.2458611 -0.7937392 4.3907514
-8.2830811 -0.79690814 4.4017472
-8.3360434 -0.77790678 4.4257488
-8.3732624 -0.78109717 4.4367371
-8.3965015 -0.85436177 4.4182706
-8.3662682 -0.99332708 4.3590422
-8.3724804 -1.0278821 4.3487859
-8.3815899 -1.0502651 4.3437986
-8.3830061 -1.0536653 4.3430519
-8.3829021 -1.0637387 4.3394384
-8.3681278 -1.100454 4.3215795
-8.3371353 -1.1448212 4.2957196
-8.3175726 -1.2208613 4.2623272
-7.903203 -1.4398016 4.0495701
-7.8222504 -1.4608037 4.0157418
-7.7852497 -1.4598804 4.0040188
-7.748467 -1.4612026 3.9915695
-7.6328921 -1.4291728 3.9653101
-7.5914392 -1.3643779 3.9748347
-7.579699 -1.3154407 3.9884009
-7.5728297 -1.3627934 3.9693367
-7.4720588 -1.4645069 3.9003725
-7.3900127 -1.474281 3.8701777
-7.325367 -1.4742873 3.8491213
-7.3160105 -1.4724343 3.8467324
-7.3113575 -1.4720381 3.8453579
-7.3149862 -1.5149009 3.8313081
-7.3702459 -1.5560532 3.8346817
-7.427722 -1.5766501 3.8460817
-7.5857682 -1.5187284 3.9181385
-7.5883136 -1.521172 3.9180989
-7.6276407 -1.5222934 3.9305091
-7.7440128 -1.5214341 3.9687152
-7.8584285 -1.5474534 3.9967332
-7.9039106 -1.5412472 4.0137515
-8.0218639 -1.5211686 4.0593023
-8.1130486 -1.5110018 4.0926127
-8.0653772 -1.4947516 4.0828619
-8.0272541 -1.459157 4.0830936
-7.9589176 -1.4444309 4.0660706
0.83422661 1.4530551 2.2318845
0.82159519 1.4535673 2.2361803
0.7293539 1.4422948 2.2622166
0.71913385 1.4325573 2.2620847
0.69835424 1.4097703 2.2607551
0.59133911 1.3555427 2.2763386
0.67573595 1.3690002 2.2536335
0.73670626 1.4239938 2.2533185
0.76540899 1.4340396 2.2475402
0.84306049 1.437921 2.2236295
0.89207268 1.4098208 2.1976812
0.90068388 1.4038231 2.1927452
0.9452405 1.3885059 2.1727908
0.98037672 1.371259 2.1552184
1.0081601 1.3723133 2.1465445
1.12046 1.3880086 2.1155469
1.1732879 1.3633819 2.0895905
1.2394233 1.3786592 2.0734799
1.1946373 1.3917286 2.0927103
1.3120518 -1.2888336 1.1019189
1.3096638 -1.3008827 1.098415
1.2949352 -1.2635672 1.1164721
1.2945294 -1.2286615 1.1290083
1.2995014 -1.1820539 1.1439512
1.3060141 -1.1860211 1.1404203
1.3167911 -1.2542963 1.1126485
-6.8166914 -0.93229347 3.8760519
-6.8661547 -0.96529841 3.8804331
-6.9545345 -1.0602446 3.8754776
-6.9897676 -1.0945438 3.8747642
-6.9939966 -1.1424351 3.8591232
-7.1339617 -0.78658116 4.0311623
-7.1498642 -0.76330024 4.0446148
-7.0222702 -0.77744114 3.998034
-6.5218544 1.3748841 4.5998936
-6.4691095 1.3503661 4.5740027
-6.3485565 1.3571842 4.5371628
-6.4609184 1.3410308 4.568018
-6.5061264 1.3494749 4.585742
-2.3514435 -1.4548621 2.2360766
-2.457212 -1.5000839 2.2544541
-2.5451367 -1.4354515 2.3060579
-2.5587587 -1.414434 2.3179631
-2.5851374 -1.3998914 2.331722
-2.7148743 -1.3566668 2.3893359
-2.7590394 -1.2958667 2.4253254
-2.7816164 -1.2915574 2.4342098
-2.8133106 -1.2846727 2.4469788
-2.8531661 -1.2678545 2.4659357
-2.8973837 -1.2714398 2.4790628
-3.0475879 -1.2300985 2.5426733
-3.056416 -1.1371946 2.5785625
-3.0761261 -1.2613734 2.5408542
-3.0530133 -1.2840047 2.5252845
-2.8940189 -1.306811 2.4653976
-2.8919442 -1.3779311 2.4394491
-2.9526043 -1.4775026 2.4238219
-2.9074502 -1.4861209 2.4060533
-2.8350134 -1.5002975 2.3774238
-2.7208195 -1.4665332 2.3522305
-2.5964408 -1.5121961 2.2954955
-2.5071502 -1.5395403 2.2566977
-2.4686713 -1.5241675 2.2496281
-2.4116511 -1.5042942 2.2381196
-2.3657355 -1.4779097 2.2325413
-2.332428 -1.4692729 2.2247624
-2.3005934 -1.458468 2.2182341
-7.9104447 -0.76072717 4.293241
-7.9476652 -0.76389623 4.3042374
-7.8854828 -0.79183531 4.2740569
-7.8112607 -0.78770041 4.2513533
-7.7558684 -0.84850383 4.2117057
-7.752852 -0.85286158 4.2091746
-7.7351236 -0.8591283 4.2011738
-7.6710663 -0.8820461 4.1721668
-7.6588049 -0.87484932 4.1707311
-7.597692 -0.86349314 4.1548629
-7.4623375 -0.79969162 4.1334515
-7.3580656 -0.7718271 4.1093936
-7.4870744 -0.77050543 4.1518798
-7.5560274 -0.77250391 4.1736269
-7.607204 -0.77689075 4.1887355
-7.6333833 -0.77139944 4.199213
-7.7052879 -0.77761602 4.2204223
-7.7823133 -0.77515447 4.2463837
0.17840672 1.3767467 2.4183605
0.23215246 1.3611114 2.3953001
-1.2929304 -0.75325888 2.1406496
-1.3899696 -0.74017215 2.1769047
-1.4169142 -0.74375921 2.1844053
-1.4318597 -0.74338472 2.1894062
-1.4906411 -0.5846132 2.2649708
-1.4512391 -0.55426729 2.2629216
-1.4265478 -0.51668608 2.2682345
-1.3706174 -0.46900505 2.2669623
-1.285593 -0.40188789 2.2631214
-1.2601123 -0.39608455 2.2568848
-1.2511828 -0.38623995 2.2574749
-1.2509489 -0.38399142 2.2581978
-1.2463279 -0.36011446 2.2651775
-1.2308364 -0.30007994 2.2814658
-1.3444798 -0.29565394 2.3200507
-1.3561184 -0.29656392 2.323518
-1.3584423 -0.35208637 2.3045447
-1.3820179 -0.39341933 2.2975352
-1.4900231 -0.50254595 2.2939324
-1.5249469 -0.53214151 2.2947898
-1.5317371 -0.59734613 2.2738304
-1.53777 -0.78035164 2.2107635
-1.3661182 -0.77382553 2.1571774
-1.4492726 -0.81690288 2.1689522
-1.4769642 -0.81218374 2.1796479
-1.5339284 -0.81123006 2.1985395
-1.5939827 -0.83367938 2.2101209
-1.6466978 -0.81116146 2.2352915
-1.7133133 -0.82843518 2.250849
-1.7880192 -0.83639479 2.2723515
-1.8782043 -0.81898075 2.3079119
-1.9448199 -0.83625454 2.3234694
-1.9820559 -0.83911008 2.3345819
-2.0224655 -0.78543442 2.3668168
-1.9432774 -0.75827456 2.3506775
-1.925534 -0.74474877 2.3497052
-1.9046655 -0.73217106 2.3473783
-1.8443761 -0.76184237 2.3171988
-1.76967 -0.75388277 2.2956963
-1.7146137 -0.75391638 2.2777531
-1.6864049 -0.75074041 2.2696946
-1.6498711 -0.75463009 2.2564137
-1.6343305 -0.75891197 2.2498307
0.44822931 -1.5501161 1.2904077
0.51856565 -1.5409334 1.270763
-4.657486 -1.5486898 2.9537849
-4.6949482 -1.5539551 2.9641149
-4.8313103 -1.5501601 3.0098751
-4.8674197 -1.5288732 3.0291998
-4.8553896 -1.5174847 3.0293288
-4.7103324 -1.5261879 2.9789925
-4.6281686 -1.5340333 2.949445
-4.5164618 -1.5249758 2.9162819
-4.6202507 -1.5456707 2.9427307
-5.7346401 -1.543653 3.306391
-5.6595044 -1.530822 3.2864797
-5.6683555 -1.5281651 3.2903066
-5.7130871 -1.5150795 3.3095253
-5.8163762 -1.5313683 3.3373771
-5.7716446 -1.5444537 3.3181584
-0.21948981 -1.2489727 1.6148885
-0.24474621 -1.320004 1.597873
-0.24003768 -1.3576117 1.5829754
-0.18683052 -1.4895904 1.5187471
-0.15498781 -1.5007508 1.5044105
-0.10450149 -1.4954419 1.4898542
-0.037326097 -1.453637 1.4828316
-0.019858122 -1.4411554 1.4815778
-0.035204411 -1.5015674 1.4651083
-0.040192604 -1.5252457 1.4583186
-0.082570791 -1.5458686 1.4647923
-0.13636565 -1.5386219 1.4848877
-0.16489935 -1.5400171 1.493685
-0.18143153 -1.5298998 1.5026646
-0.24629164 -1.5251721 1.5254687
-0.32744956 -1.5080786 1.5579752
-0.39378309 -1.524318 1.5738084
-0.40456533 -1.5228639 1.5778369
-0.47732997 -1.5284946 1.5995345
-0.50083661 -1.5325277 1.6057571
-0.51676416 -1.5307081 1.6115912
-0.59759688 -1.5322442 1.6373715
-0.63459873 -1.5328512 1.6492069
-0.67183471 -1.5357069 1.6603194
-0.75346088 -1.5231102 1.6913804
-0.82816696 -1.5310698 1.7128829
-0.89117074 -1.4985955 1.7449423
-0.99282384 -1.519367 1.7706683
-1.1000378 -1.4956524 1.8140136
-1.0172389 -1.4877821 1.7898438
-0.9705987 -1.4866409 1.7750591
-0.97135925 -0.79119956 2.0224354
-0.89688706 -0.78548837 2.0002103
-0.94244814 -0.78127831 2.0165448
-0.97944975 -0.7818855 2.0283802
-1.1035931 -0.73584896 2.0851715
-1.2060394 -0.74248767 2.1161778
-1.2148325 -0.73991889 2.1199546
-1.2606049 -0.74317676 2.1337042
-1.1198349 -0.79812503 2.0683312
-1.0896907 -0.93364567 2.0103555
-5.9983664 1.3532753 4.4217215
-6.0433569 1.3639657 4.4401727
-6.0284023 1.3529725 4.4313955
-5.9948292 1.3435481 4.4171124
-5.9901752 1.3439405 4.4157362
-5.9609127 1.3586597 4.4114361
-0.23174667 -0.77644837 1.7867943
-0.28469563 -0.7561788 1.811242
-0.35131097 -0.77345252 1.8267995
-0.44126225 -0.75379014 1.8630826
-0.34322047 -0.78276664 1.8208548
-0.28784394 -0.87341785 1.7706059
-0.31201744 -0.96291661 1.746675
-0.33923793 -1.0310572 1.7313265
-0.34673047 -1.1030073 1.7081988
-0.33173084 -1.1413463 1.6896896
-0.32707477 -1.3141526 1.6267656
-0.34327793 -1.3768865 1.60975
-0.4560411 -1.5047624 1.6010343
-0.52934241 -1.4992313 1.6268731
-0.61284184 -1.5046221 1.6521523
-0.69563842 -1.5032676 1.6795995
-0.81403232 -1.4890296 1.7232186
0.86482954 1.4478831 2.2200794
0.92111588 1.4231787 2.1929688
0.96705008 1.4213486 2.1773582
0.99535799 1.3824334 2.1543102
-0.15630722 -0.81421614 1.7488036
-0.18963623 -0.79329324 1.7670934
-0.12071133 -0.82712954 1.7326216
-0.20003366 -0.88979614 1.7361871
-0.22847152 -0.96335244 1.7193103
-0.2447288 -0.98812181 1.7158031
-0.25454879 -1.0602503 1.6933702
-0.29025745 -1.1032383 1.6897242
-0.26938748 -1.2182269 1.6420653
-1.6587715 -1.0584528 2.1513476
-1.6638944 -1.0633067 2.1512911
-1.5866261 -1.1395018 2.0990496
-1.2368238 -0.77039635 2.1162865
-6.0763869 -1.182725 3.5459514
-6.0187411 -1.1601877 3.5351856
-5.9206262 -1.1275766 3.5148191
-5.8973804 -1.1364291 3.5041027
-8.3008976 -1.5448117 4.1417789
-8.3398161 -1.4712367 4.1805992
-8.3516665 -1.4744726 4.1833086
-8.4728165 -1.5113974 4.2096443
-8.5087643 -1.5112154 4.221417
-8.5474749 -1.5199808 4.2309098
-8.4573841 -1.5413756 4.1939654
-8.412776 -1.5565642 4.1740398
-8.3677311 -1.5672618 4.1555681
-6.2432351 -0.91885811 3.6940582
-6.0754671 -0.95744056 3.6257079
-6.1006289 -1.035388 3.6062036
-6.1888862 -1.0893073 3.6157875
-6.3256845 -0.93643403 3.7146652
-6.3369799 -0.93428564 3.7191076
-6.2568879 -1.146104 3.6177518
-6.1725264 -1.1776843 3.5790539
-6.0968027 -1.2022153 3.5456746
-5.845747 -0.98964536 3.5394464
-5.8701277 -0.92189783 3.5714617
-2.3797116 -0.69603872 2.5149348
-2.4158583 -0.68968701 2.5289645
-2.4239295 -0.69942969 2.528131
-2.5546093 -0.76217544 2.5483947
-2.6515045 -0.78356606 2.5723512
-2.5691149 -0.78916526 2.5435281
-2.5241814 -0.89028049 2.4929621
-2.4864936 -0.88276917 2.4833567
-2.4494839 -0.88199615 2.4715779
-2.3396831 -0.90688992 2.426971
-2.3268762 -0.89475542 2.4271119
-2.3189924 -0.80189359 2.4575431
-2.3064528 -0.76848745 2.4653301
-2.6808224 -0.79822278 2.5766912
-2.7178319 -0.79899579 2.5884702
-2.8398652 -0.95015621 2.5744994
-2.8782988 -1.0158737 2.5636637
-2.8896079 -1.0379276 2.55951
-2.9186993 -1.0503381 2.5645745
-2.6964326 -0.77270156 2.5908444
-2.7255239 -0.78511214 2.5959091
-2.8079138 -0.77951288 2.624732
-2.8746929 -0.79943484 2.6394019
-2.972693 -0.76831436 2.6823783
-3.0546303 -0.758223 2.7126503
-3.092092 -0.76348823 2.72298
-3.2133002 -0.77663076 2.7577858
-3.2015994 -0.81806326 2.7392519
-3.1921897 -0.84066492 2.7281556
-3.1681402 -0.8754999 2.7079442
-3.1439235 -0.95596349 2.671464
-3.1363587 -1.0155535 2.6478245
-3.1385851 -1.0390986 2.6401827
-3.1064582 -1.0610527 2.621918
-3.0800815 -1.0956991 2.6010156
-3.0624933 -1.1287763 2.5835333
-1.5362928 -1.5111668 1.9505836
-1.6030948 -1.5319033 1.9649713
-1.6217127 -1.533331 1.9705276
-1.657028 -1.5194132 1.9869752
-1.7687359 -1.5279801 2.0203128
-1.8123326 -1.5266607 2.0349808
-1.8508303 -1.5198803 2.0499282
-1.9175704 -1.5195249 2.0717912
-1.9318972 -1.523665 2.074986
-2.009738 -1.5399759 2.0945415
-2.0469742 -1.5428315 2.1056542
-2.0175946 -1.5284134 2.1012092
-1.9879811 -1.5117469 2.097487
-1.8822126 -1.4665248 2.0791092
-1.8513856 -1.3716984 2.1027665
-1.7982707 -1.2828667 2.1170342
-1.6830571 -1.2950172 2.0751927
-1.5863531 -1.2021362 2.0767031
-1.5877352 -1.2208464 2.0705044
-1.5866914 -1.2923942 2.0447397
-1.5854073 -1.3072497 2.0390425
-1.5892673 -1.317127 2.0367897
-1.6326952 -1.4664513 1.9978706
-1.5531764 -1.499284 1.960305
-1.4582942 -1.4494233 1.9471213
-1.4569492 -1.4477994 1.9472603
-1.4466581 -1.4485309 1.9436486
-1.4024072 -1.46866 1.9220836
-1.3916247 -1.470114 1.9180552
-1.3524246 -1.470149 1.9052758
-1.3151886 -1.4672935 1.8941633
-1.2599277 -1.514303 1.8594604
-1.3501127 -1.4968889 1.8950206
-1.3882852 -1.5087383 1.9032422
-1.4546666 -1.5237637 1.9195226
-6.2237892 -1.0921634 3.6261401
-6.8122649 -0.79712915 3.9226415
-6.722929 -0.92008573 3.8498526
-6.6416416 -0.93686229 3.8174167
-6.5944347 -0.92524302 3.8061709
0 0 0 1 0 0 0 1 0 0 0 1 0 0 0 0 0 503 1 0 0
