ply
format ascii 1.0
comment PCL generated
element vertex 449
property float x
property float y
property float z
element camera 1
property float view_px
property float view_py
property float view_pz
property float x_axisx
property float x_axisy
property float x_axisz
property float y_axisx
property float y_axisy
property float y_axisz
property float z_axisx
property float z_axisy
property float z_axisz
property float focal
property float scalex
property float scaley
property float centerx
property float centery
property int viewportx
property int viewporty
property float k1
property float k2
end_header
-10.28841 -1.5157623 3.0138679
-10.262127 -1.533007 3.005281
-10.252363 -1.5293918 3.0018291
-10.159557 -1.5371847 2.9701183
-10.142589 -1.541934 2.9644074
-10.122917 -1.5446966 2.957715
-10.181766 -1.5169332 2.9772253
-10.206505 -1.4958144 2.9851797
-10.227344 -1.4758188 2.9918225
-10.263578 -1.4330766 3.0031636
-10.263361 -1.4480662 3.0034814
-9.1916952 1.3692999 2.5611877
-9.1685238 1.392895 2.5526016
-9.2646122 1.3593407 2.5865238
-9.2476444 1.3545916 2.5808129
-9.2280445 1.3568255 2.5740147
0.43564224 -1.5235912 -0.67376667
0.57970238 -1.4685599 -0.72474772
0.60505199 -1.3862486 -0.73562008
0.60547781 -1.3849547 -0.73580045
0.69591713 -1.3052214 -0.76898879
0.70770836 -1.1311387 -0.77760142
0.69847012 -1.0673174 -0.77609545
0.71228838 -1.0261713 -0.78192466
0.60981274 -0.90800422 -0.74977857
0.73308325 -0.82781899 -0.79426891
0.77882576 -0.82820588 -0.80998892
0.78789139 -0.81829125 -0.81336612
0.82695055 -0.78735006 -0.82760793
0.84720469 -0.74755621 -0.83561498
0.83016014 -0.70785236 -0.8307932
0.82181168 -0.66611344 -0.82901508
0.82770443 -0.6281445 -0.83203548
0.81429005 -0.58611941 -0.82852286
0.80900049 -0.54554182 -0.82776624
0.80862999 -0.50743878 -0.82863647
0.81254339 -0.42754155 -0.83207411
0.81237888 -0.40755081 -0.83254093
0.809762 -0.36756346 -0.83268791
0.8069787 -0.30759889 -0.83330089
0.79809189 -0.28623676 -0.83080393
0.67819214 -0.24720383 -0.79059428
0.66435194 -0.20647278 -0.7869013
0.65444756 -0.16772145 -0.78450984
0.654778 -0.20768943 -0.78357702
0.65510798 -0.24765745 -0.78264409
0.66501236 -0.28640878 -0.78503543
0.66517687 -0.30639946 -0.78456873
0.66567278 -0.36634472 -0.78316969
0.66583729 -0.38633546 -0.78270286
0.6565938 -0.42752004 -0.7784459
0.66649818 -0.46627146 -0.78083724
0.68502188 -0.49390417 -0.78648382
0.60325718 -0.6681577 -0.75380391
0.58996058 -0.66674757 -0.74926823
0.59170675 -0.82532543 -0.74571687
0.58661127 -0.86784279 -0.74285156
0.59596634 -0.89290023 -0.74541241
0.59498453 -0.94524884 -0.74370426
0.60632467 -0.98660755 -0.74652117
0.60708046 -1.0252814 -0.74576849
0.59554958 -1.0664468 -0.74072534
0.59545422 -1.1077087 -0.73961216
0.60349655 -1.1451467 -0.7413978
0.60624266 -1.2666876 -0.73915988
0.61167908 -1.3050766 -0.74002439
0.59090376 -1.3874266 -0.73072392
0.59055996 -1.3987126 -0.73031026
0.57361031 -1.4559218 -0.72298354
-10.083766 1.4242492 2.8665187
-10.063663 1.4340477 2.8593495
-10.037004 1.4379103 2.8500805
-10.000437 1.4353952 2.8375714
-9.9640503 1.4453714 2.8247974
-9.9363613 1.4253726 2.8157992
-9.8806076 1.4064825 2.797121
-9.825593 1.3914669 2.7785952
-9.8163872 1.386466 2.7755606
-9.7874756 1.3762052 2.7658865
-9.7705059 1.3714559 2.7601757
-9.714304 1.3686764 2.7409213
-9.6134291 1.3872383 2.7057459
-9.586937 1.3885791 2.6966009
-9.5598202 1.3749774 2.6876316
-9.6228294 1.3586404 2.7097273
-9.6591425 1.3436677 2.7226069
-9.7338657 1.3639442 2.7477725
-10.165073 1.3582813 2.8962061
-10.109052 1.3679929 2.876687
-10.073441 1.3843429 2.864013
-10.001328 1.3865523 2.8391566
-9.9929743 1.386198 2.8362932
-9.9534168 1.3890283 2.8226159
-9.9072304 1.4001215 2.8064427
-9.8490191 1.3853602 2.7868111
-9.8155756 1.3775942 2.7755136
-9.7972374 1.3725898 2.7693386
-9.7789717 1.3725808 2.7630575
-7.4371948 -0.72787124 2.0127497
-7.404366 -0.73464191 2.0016375
-7.3976021 -0.74185336 1.9995003
-7.3920865 -0.7820549 1.9986563
-7.3897839 -0.82182032 1.9989054
-7.3989496 -0.85413945 2.0029037
-7.4278045 -0.90192246 2.0140774
-7.485487 -0.85564142 2.0327017
-7.4768801 -0.81462216 2.0286679
-7.4819655 -0.76014912 2.0289907
-7.4594965 -0.7351771 2.0206101
-3.6379018 -0.77172244 0.70737815
-3.6433837 -0.89409804 0.71246737
-3.5014522 -0.7710982 0.6604389
-5.8798571 -0.95703161 1.4832045
-5.8499122 -0.97711062 1.4734325
-5.852767 -0.97823882 1.4744439
-5.8893542 -0.97562617 1.4869573
0.25729227 1.399276 -0.68896121
0.33056307 1.388665 -0.71388
0.3035841 1.3851953 -0.70451158
-10.425213 0.9024601 2.9975989
-10.425692 0.8626287 2.9988062
-10.423118 0.84264147 2.9984446
-10.418261 0.82265329 2.9972978
-10.421791 0.86150539 2.9974945
-1.9236758 1.3657522 0.061918557
-1.9166958 1.3244576 0.060599387
-1.9435253 1.3571024 0.068970978
-1.9632707 1.3797352 0.07516855
-1.9804406 1.3922837 0.080744445
-1.9267745 1.3845243 0.062492669
-2.1919658 1.3473305 0.15466172
-2.1899037 1.3250676 0.15453547
-2.2731619 1.3642783 0.18214011
-2.2548957 1.3664799 0.17580104
-2.2262621 1.3653185 0.16598481
-1.7162187 -1.6502593 0.06954211
-1.7720156 -1.659883 0.088981867
-1.8455808 -1.6092958 0.11295533
-1.8821573 -1.6089822 0.12552518
-1.9090717 -1.6099448 0.13480586
-1.9752729 -1.5283649 0.1554355
-1.9195168 -1.5137451 0.1358791
-1.8967185 -1.5064471 0.12784803
-1.8830023 -1.5065646 0.12313432
-1.8464258 -1.5068784 0.11056441
-1.8098288 -1.50969 0.098052859
-1.7539902 -1.5050623 0.078729689
-1.7533877 -1.5049858 0.078520477
-1.7165308 -1.5027634 0.065787733
-1.6638114 -1.4759729 0.046956956
-1.5204809 -1.424526 -0.0036792755
-1.51595 -1.4195693 -0.0053671002
-1.424782 -1.5103834 -0.034340799
-1.3591785 -1.5195217 -0.056661546
-1.286005 -1.522647 -0.081743002
-1.2494493 -1.5204628 -0.09437114
-1.2128727 -1.5207765 -0.10694098
-1.1396787 -1.5263999 -0.13196415
-1.1300373 -1.525178 -0.13531166
-1.0761876 -1.5257509 -0.15381473
-1.0299699 -1.5248429 -0.16973203
-0.95677567 -1.5304661 -0.19475526
-0.92019939 -1.5307798 -0.20732516
-0.83742571 -1.5276875 -0.23587066
-0.81812286 -1.527742 -0.24250716
-0.79122901 -1.5242814 -0.25184625
-0.74507308 -1.5158794 -0.26793855
-0.70849657 -1.516193 -0.28050834
-0.61604047 -1.5168749 -0.31228477
-0.58906412 -1.5234063 -0.32139057
-0.71265864 -1.6273656 -0.27616638
-0.76338673 -1.6357284 -0.25850278
-0.81731892 -1.6251634 -0.24023288
-0.94622779 -1.6391559 -0.19553679
-0.99246597 -1.6375659 -0.17967778
-1.1022367 -1.6316289 -0.14208478
-1.1483722 -1.642529 -0.12593406
-1.2581422 -1.636592 -0.088341236
-1.3042159 -1.6549859 -0.072015643
-1.3504336 -1.655894 -0.056098282
-1.3773892 -1.6518606 -0.046934307
-1.4237101 -1.6402788 -0.031308472
-1.4506657 -1.6362453 -0.022144377
-1.5237775 -1.6406139 0.0031119585
-1.5698509 -1.6590078 0.019437551
-1.625648 -1.6686317 0.038877308
-1.662245 -1.66582 0.0513888
-6.7308187 -1.5150425 1.7904471
-6.7453837 -1.5118809 1.7953731
-6.8184052 -1.519147 1.8206744
-6.8549929 -1.5165344 1.8331878
-6.8087869 -1.5105455 1.8171415
-6.7406793 -1.503655 1.79354
-6.708797 -1.5144936 1.7828598
0.091788292 1.3955827 -0.6319502
0.099095821 1.3943207 -0.63443011
0.1649971 1.3924656 -0.65704387
0.11091614 1.4005139 -0.63865703
0.055049896 1.4133782 -0.61978227
0.17457151 1.3936825 -0.66036826
0.18420744 1.3874047 -0.66351765
-10.201241 1.3333156 2.9092977
-10.217773 1.3080854 2.9156437
-10.21944 1.2656162 2.9173286
-10.235378 1.1684475 2.9253535
-10.20363 1.1834221 2.9140439
-10.218492 1.2633728 2.9170609
-5.4092174 1.398771 1.2596791
-5.3613367 1.4148176 1.2427937
-5.388576 1.3999522 1.25255
-5.4340596 1.3826711 1.2686435
-4.9164667 1.2780483 1.0933905
-5.0029984 1.4018097 1.119907
-5.0285668 1.4009299 1.1287227
-5.0657663 1.4048834 1.1414115
-5.0833454 1.3977594 1.1476431
-5.0851417 1.3950412 1.1483321
-5.0125251 1.3806694 1.1237366
-3.1700914 -0.77030075 0.54646802
-3.1432972 -0.76915151 0.53722382
-3.060492 -0.76582944 0.50866139
-3.0142386 -0.76233244 0.49266395
-2.9604821 -0.77502275 0.47451019
-2.9239304 -0.77519768 0.46194518
-2.9105523 -0.77358359 0.45730239
-2.8946857 -0.7766723 0.45192695
-2.8851557 -0.81168991 0.4495666
-2.9222231 -0.92758369 0.46534783
-2.8942776 -0.97517943 0.45698386
-2.875102 -1.0015287 0.45107958
-2.8635395 -1.0140741 0.44743189
-2.8516693 -1.0540988 0.44439784
-2.8548589 -1.0691286 0.44588825
-2.8728828 -1.0915242 0.45267278
-2.8925357 -1.131627 0.46048096
-2.9566758 -1.1147685 0.48209643
-3.039005 -1.1605587 0.51160705
-3.0525441 -1.1754818 0.51665366
-3.1244645 -1.1726966 0.54131305
-3.1608105 -1.0950277 0.55177844
-3.1863039 -1.0624316 0.55969179
-3.2034187 -1.0161083 0.56436443
-3.1507597 -0.97267389 0.54511869
-3.1153555 -0.87042558 0.53026664
-3.8973799 -1.5334755 0.81655294
-3.879689 -1.5363442 0.81054437
-3.8510983 -1.5324767 0.80061126
-3.8146305 -1.5251572 0.78787887
-3.8448012 -1.4966958 0.79750896
-3.8805971 -1.4961431 0.80980414
-3.9245939 -1.4971528 0.82496041
-3.9339316 -1.5333006 0.82911789
-4.7414455 -0.77870089 1.0870529
-4.776217 -0.73357046 1.0978286
-4.7804174 -0.73908025 1.0994173
-4.7776976 -0.81880033 1.1005692
-4.8107529 -0.91326088 1.1144098
-4.8173265 -0.93820935 1.1173235
-4.8126183 -1.0185492 1.1178079
-4.9207659 -1.1387744 1.1581459
-4.937377 -1.1374173 1.1638227
-4.9689288 -1.1292915 1.1744602
-4.9740405 -1.1272497 1.1761645
-4.9771013 -1.1801507 1.1786021
-4.9682298 -1.1867518 1.1757241
-4.936789 -1.189878 1.164994
-4.8904519 -1.1938756 1.149164
-4.8177958 -1.1542554 1.1231413
-4.8042569 -1.1393321 1.1180949
-4.773026 -1.0183574 1.1041876
-4.7757459 -0.93863726 1.1030358
-4.7742577 -0.90843964 1.1017333
-4.7744536 -0.89095271 1.1013428
-7.3909101 -1.5349317 2.0179634
-7.4137564 -1.5050064 2.0250363
-7.4805193 -1.5357262 2.0487993
-7.4964433 -1.5375412 2.054323
-7.5170507 -1.5357093 2.0613616
-7.5535812 -1.5356922 2.0739236
-7.4768758 -1.5753493 2.048584
-7.4018683 -1.5837096 2.0230088
-7.3931932 -1.5835247 2.020021
-10.409003 0.70385504 2.9972243
-10.408422 0.66388285 2.9980714
-10.410063 0.7039957 2.9975848
-9.4205017 1.3557932 2.6402242
-9.4936371 1.3608235 2.6652427
-9.52318 1.3674657 2.6752286
-3.4158201 -1.0200874 0.6375103
-3.3789885 -1.0452436 0.62550306
-3.4617934 -1.0485657 0.65406549
-8.0456762 1.3611645 2.1673021
-8.026906 1.359123 2.1609008
-8.0641041 1.3580188 2.1737216
-8.099968 1.359157 2.1860249
-8.1036434 1.3587381 2.1872997
-8.0993023 1.3602781 2.1857665
-8.0902052 1.3627722 2.1825728
-8.0529709 1.3613781 2.169805
-0.34408975 -1.5259817 -0.40556604
-0.32494092 -1.5235484 -0.41221482
-0.29792142 -1.5250745 -0.42146653
-0.30749583 -1.5262913 -0.41814214
-6.4400778 1.4350727 1.6132259
-6.4612513 1.433969 1.6205362
-6.50495 1.434691 1.6355447
-6.4631166 1.4526629 1.6206882
-6.4051991 1.4361143 1.6012045
-6.3386517 1.4364138 1.5783122
-6.3321085 1.4357846 1.5760783
-6.3532257 1.4296846 1.5834999
-7.1253042 -1.534657 1.9266183
-7.0741191 -1.533336 1.908982
-7.1107063 -1.5307233 1.9214954
-4.1997757 -1.5107663 0.91994774
-4.2427292 -1.4968503 0.93435448
-4.2285624 -1.4971468 0.92949039
-4.1439605 -1.4911065 0.90023905
-4.4334345 -1.0986986 0.98951066
-4.479744 -1.0971993 1.0053966
-4.4372435 -1.1391823 0.99188042
-4.4060526 -1.1500101 0.98143786
-4.3493137 -1.2127888 0.96356994
-4.3129578 -1.1954769 0.95061439
-4.1926494 -1.2772663 0.91138357
-4.2307687 -1.1371959 0.92082489
-4.2618475 -1.1363606 0.93149054
-4.3504615 -1.1103654 0.96128297
-4.3701725 -1.09023 0.96753412
-4.4078283 -1.1001942 0.98074436
-5.58778 -1.5341094 1.3978726
-5.5052004 -1.5132453 1.3689284
-5.4615459 -1.5333673 1.3544432
-5.4677777 -1.5345258 1.3566166
-5.577497 -1.5364158 1.3943968
-9.2744484 1.3607219 2.58987
-9.3651276 1.3487383 2.6213667
-9.374279 1.364388 2.6241043
-9.4304094 1.3621711 2.6434648
-9.503581 1.3696995 2.6684303
-9.5303125 1.3708336 2.677593
-8.5311756 1.353494 2.3344588
-8.5775423 1.3548921 2.3503671
-8.6039677 1.356061 2.3594236
-8.5762081 1.3571346 2.3498499
-8.5579796 1.3596244 2.3435161
-2.786447 -1.520316 0.43417531
-2.8326724 -1.5263112 0.45022848
-2.7598767 -1.4991817 0.42448488
-2.6991487 -1.52607 0.40430543
-2.689487 -1.5273464 0.40101627
-2.6937442 -1.5308089 0.40257093
-2.7132595 -1.5281603 0.40921262
-2.7207241 -1.5276749 0.41176689
-1.5338895 -1.1846212 -0.0053493977
-1.4995992 -1.1849153 -0.017133653
-1.4297266 -1.1881235 -0.041077733
-1.3717465 -1.1660293 -0.061594725
-1.3255289 -1.1651211 -0.077512026
-1.2985938 -1.1666565 -0.086734414
-1.2558212 -1.1483455 -0.10192263
-1.2260387 -1.0948424 -0.11356527
-1.1897094 -1.0651802 -0.12683493
-1.1812043 -0.98782098 -0.13178509
-1.1750059 -0.9079442 -0.13600808
-1.1707637 -0.86801565 -0.13851231
-1.1732118 -0.78676027 -0.13979775
-1.2147145 -0.7858336 -0.12554997
-1.2257905 -0.7863093 -0.1217286
-1.2494831 -0.7852909 -0.1136077
-1.2817845 -0.86445463 -0.10042709
-1.3021965 -0.94551396 -0.091285408
-1.3206573 -1.0244703 -0.082869828
-1.3993208 -1.0870562 -0.054180026
-1.4552414 -1.0816921 -0.035090208
-1.5015211 -1.0751061 -0.019347727
-1.5380769 -1.0772905 -0.0067195296
-1.6224315 -1.1080898 0.023095071
-1.6463015 -1.2587025 0.035246968
-1.6444318 -1.2659674 0.034794211
-4.5845852 -1.5263529 1.052686
-4.6211371 -1.5261779 1.065251
-4.6791487 -1.4996426 1.0845056
-4.6445522 -1.5014865 1.0726568
-4.6409039 -1.5010462 1.0713906
-4.5384994 -1.5078671 1.0363538
-4.5214348 -1.5078917 1.0304862
-4.2730756 -1.4929293 0.94468737
-4.2964559 -1.4990339 0.95288736
-4.2827206 -1.5015976 0.94823122
-5.295207 -1.494983 1.2962368
-5.2535543 -1.4144611 1.2798047
-5.2141151 -1.4017383 1.2659092
-5.1771636 -1.4343302 1.2540554
-5.1437922 -1.4521456 1.2430459
-5.1216712 -1.4923277 1.236491
-4.9643393 -1.5065297 1.1827586
-4.906496 -1.5009952 1.1627223
-4.8973584 -1.5010389 1.1595812
-4.8698883 -1.5061663 1.1502688
-4.7871952 -1.4928519 1.1214833
-4.7774372 -1.4941761 1.1181625
-4.7311001 -1.4981735 1.1023324
-4.7602892 -1.501695 1.1124623
-4.850317 -1.5138111 1.1437387
-4.8793378 -1.5323217 1.1542033
-4.9426842 -1.5332959 1.1760125
-4.9834552 -1.5337259 1.1900443
-7.2738523 1.3921189 1.901073
-7.2470093 1.3910086 1.8918715
-7.2786574 1.3903944 1.9027708
-5.1942115 -1.5331784 1.262506
-5.156467 -1.5370438 1.2496275
-7.5231085 1.3972297 1.9866548
-7.4765959 1.3858383 1.9709582
-7.4565835 1.3894837 1.9639807
-7.4669056 1.3944502 1.9674003
-7.4936743 1.3980823 1.9765103
-7.5863719 1.3983805 2.0083799
-7.5766444 1.404494 2.0048747
-8.8898277 1.3827727 2.4570272
-8.9263573 1.3827899 2.469589
-8.9532719 1.396415 2.4784875
-8.9166317 1.3889031 2.4660842
-8.7938824 -1.544956 2.5006869
-8.8303413 -1.5499356 2.5133548
-8.8668728 -1.5499187 2.5259171
-8.9496994 -1.5534999 2.5544934
-8.8753757 -1.5462949 2.5287461
-8.8279276 -1.547158 2.5124521
-4.4483032 -1.5107399 1.0054119
-4.4288721 -1.5058939 0.99860287
-4.4385738 -1.5095661 1.0020353
-5.2393813 -1.530427 1.2779671
-8.1996536 1.3528299 2.2204709
-8.2192526 1.3505961 2.2272692
-8.2490444 1.3581045 2.2373176
-9.701292 -1.5551399 2.8129981
-9.6830997 -1.5501516 2.8066113
-9.6562958 -1.556282 2.797554
-9.8121834 -1.5598296 2.8512547
-9.7840824 -1.5612196 2.8416274
-9.7561264 -1.5526159 2.8317885
-9.7725534 -1.5523984 2.8374319
-9.7828579 -1.5514822 2.8409517
-9.7926941 -1.5501008 2.8442979
-9.8024578 -1.5537159 2.8477497
-9.8657198 -1.5525655 2.8694746
-9.8304491 -1.5598212 2.8575356
0 0 0 1 0 0 0 1 0 0 0 1 0 0 0 0 0 449 1 0 0
