ply
format ascii 1.0
comment PCL generated
element vertex 401
property float x
property float y
property float z
element camera 1
property float view_px
property float view_py
property float view_pz
property float x_axisx
property float x_axisy
property float x_axisz
property float y_axisx
property float y_axisy
property float y_axisz
property float z_axisx
property float z_axisy
property float z_axisz
property float focal
property float scalex
property float scaley
property float centerx
property float centery
property int viewportx
property int viewporty
property float k1
property float k2
end_header
1.755087 -1.3292663 2.3043253
1.7881712 -1.2499131 2.3819711
1.7917365 -1.1699597 2.381943
1.7785033 -1.1297791 2.3424294
1.7577677 -1.2889524 2.3066323
-0.92915922 0.10902846 -4.9215107
-0.92755777 0.18897367 -4.9267011
-0.91307396 0.18932211 -4.8886647
-0.90200382 0.10902619 -4.850121
-0.90391308 0.069000125 -4.8504338
-0.90556318 0.029073954 -4.8500776
-0.90669566 -0.010652423 -4.8483839
-0.92649311 -0.073692083 -4.8930178
-0.93321127 -0.050815582 -4.9133692
-0.92901212 -0.011028767 -4.9070082
-0.9265613 0.068870068 -4.9099593
-0.62426174 0.98549151 -4.2230086
-0.62230355 0.98549855 -4.2178612
-0.60791516 0.94880974 -4.1757212
-0.58132881 0.90786231 -4.1010127
-0.57244247 0.9044503 -4.07725
-0.56760365 0.90407181 -4.0644846
-0.56649506 0.90412533 -4.0615764
-0.5528031 0.82334387 -4.0160828
-0.54809874 0.71054065 -3.9904521
-0.54892606 0.70285475 -3.9917231
-0.55078036 0.64566064 -3.9898732
-0.56360328 0.62385237 -4.0210195
-0.57257819 0.62685549 -4.0449672
-0.58028698 0.66727388 -4.0699854
-0.59436834 0.70328665 -4.111239
-0.60558569 0.73686922 -4.1446772
-0.60612589 0.74440181 -4.1469831
-0.63320321 0.82659161 -4.2278318
-0.65871441 0.86555851 -4.2994804
-0.63971585 0.90618956 -4.2543125
-0.6318593 0.94589055 -4.2383261
1.2595563 -1.3196194 1.0004706
1.3149016 -1.3604183 1.1507671
1.2612031 -1.3042607 1.0029938
1.2661664 -1.1844752 1.0019579
1.2426794 -1.0931684 0.92947602
1.2401251 -1.057277 0.91854072
1.2399986 -1.0397625 0.9161489
1.2947336 -0.9216361 1.046155
1.2948371 -0.91914052 1.0461333
1.2888389 -0.87879932 1.0256212
1.2194531 -0.91860098 0.8478899
1.2188594 -0.91845876 0.84631228
1.2160176 -0.9809435 0.84618855
1.2247856 -1.1189775 0.88546896
1.219087 -1.1993669 0.87993979
1.236169 -1.2381021 0.92940187
1.2486323 -1.2785716 0.96692562
0.95775145 -1.4733305 0.22511697
0.98330653 -1.5147266 0.29716706
0.99063271 -1.4335437 0.30688167
1.0077759 -1.3934587 0.34723711
1.0293808 -1.2437859 0.38643646
1.0314488 -1.1938752 0.38600492
1.0331033 -1.1539466 0.38565969
1.038159 -1.1142015 0.3942771
1.0378101 -1.0342573 0.38396025
1.0396749 -0.95421207 0.37945104
1.04303 -0.91437525 0.38358736
1.0474801 -0.79478228 0.38122463
1.1096196 -0.72111684 0.53592396
1.1132277 -0.71630913 0.54484415
1.1279808 -0.6070559 0.57078338
1.1305659 -0.54466754 0.5702436
1.1206495 -0.51662052 0.54087615
1.1220355 -0.39708266 0.53046489
1.1252334 -0.34429103 0.53266478
1.1429701 -0.25748166 0.56908631
1.155633 -0.3175368 0.60943747
1.1357703 -0.35736489 0.56190252
1.8588266 0.66117334 2.3430145
1.8510535 0.67908823 2.320473
1.8476558 0.62128699 2.3183367
1.8575833 0.50619459 2.3579681
1.8383684 0.38194025 2.3220632
1.8337889 0.30157924 2.3194726
1.8431364 0.38192081 2.3346002
1.8607744 0.50102508 2.3669651
0.24211764 -0.61386788 -1.7572967
0.28312483 -0.61451775 -1.6494149
0.33010551 -0.64778024 -1.5219945
0.38076478 -0.73626548 -1.3784101
0.35219312 -0.81576127 -1.4441763
0.32479346 -0.73502862 -1.5257008
0.2806721 -0.69441813 -1.6464682
0.23577178 -1.4140832 -1.6798903
0.21897417 -1.4538636 -1.7193727
0.18225618 -1.3715001 -1.8255864
0.17125309 -1.372366 -1.8544111
0.18478478 -1.2919414 -1.8282934
0.17577922 -1.2108568 -1.8615024
0.20880686 -1.07748 -1.7903572
0.20999365 -1.0917629 -1.7855579
0.20908596 -1.1325181 -1.7831521
0.20772302 -1.1712232 -1.7821842
0.23941295 -1.2940618 -1.6844299
0.30027875 -1.295283 -1.5242739
0.34520152 -1.2959201 -1.4060997
0.3650437 -1.1763842 -1.3679907
0.38667679 -1.0567201 -1.3251889
0.40514088 -0.9764508 -1.2860858
0.43109688 -0.90462232 -1.2262948
0.43781871 -0.90465432 -1.2086197
0.46670651 -0.89807028 -1.1334496
0.4852891 -0.90545148 -1.0837291
0.52255595 -0.90569836 -0.98572779
0.55567455 -0.78665978 -0.91265762
0.56827968 -0.86638355 -0.87014562
0.57806236 -0.94716704 -0.83492905
0.57785171 -0.96444309 -0.83345151
0.57449687 -1.0271205 -0.83490145
0.57540828 -1.0660856 -0.82792395
0.63304788 -1.1071184 -0.67156827
0.6261735 -1.2669289 -0.67085004
0.631621 -1.427955 -0.63759553
0.62868363 -1.4683653 -0.64056611
0.65871549 -1.4687729 -0.56156635
0.68679041 -1.4920256 -0.48502493
0.73150319 -1.4976764 -0.36681342
0.76498944 -1.4451959 -0.28495073
0.78101069 -1.4302821 -0.24458539
0.8218593 -1.4865179 -0.13058472
0.83442998 -1.5122069 -0.094516635
0.84931761 -1.5124588 -0.055348277
0.87955636 -1.5078754 0.023608565
0.92452562 -1.5134296 0.14248312
-0.13633291 -0.82625163 -2.7272482
-0.13116087 -0.88655734 -2.7065606
-0.12950964 -0.84663028 -2.7069142
-0.24985428 -0.92373419 -3.0142269
-0.24883397 -0.76282245 -3.0304646
-0.24718262 -0.72289532 -3.030818
-0.25169879 -0.60079968 -3.0570469
-0.25304043 -0.5841198 -3.0625353
-0.26803184 -0.5618096 -3.1045699
-0.28147513 -0.51434785 -3.1454921
-0.29198337 -0.52128083 -3.1723022
-0.3020367 -0.64078552 -3.1846807
-0.33279681 -0.68070841 -3.2608528
-0.33836365 -0.72064811 -3.270792
-0.33661544 -0.76075971 -3.2614794
-0.33813769 -0.8006376 -3.2607927
-0.37377125 -0.92027324 -3.3404043
-0.38559377 -0.91996926 -3.3715208
-0.37655783 -0.9999305 -3.3383641
-0.370803 -1.0429599 -3.3181753
-0.36419821 -1.0797344 -3.2964878
-0.38378239 -1.199172 -3.33393
-0.39002639 -1.319446 -3.3362033
-0.37983406 -1.4393742 -3.2953072
-0.38329142 -1.479991 -3.2996206
-0.36571985 -1.4399149 -3.2581382
-0.36211371 -1.3614274 -3.2578864
-0.3492316 -1.2970992 -3.2315838
-0.32491243 -1.2033792 -3.1786699
-0.32411098 -1.163406 -3.181263
-0.26668853 -1.084013 -3.0396378
-0.25645953 -1.0834427 -3.0128136
-0.25480819 -1.0435156 -3.0131669
-0.69073224 -1.4555302 -4.1107402
-0.72340369 -1.4880817 -4.1928039
-0.75292391 -1.475217 -4.2719235
-0.74337679 -1.3944519 -4.256321
-0.74590182 -1.3546395 -4.2676401
-0.75264263 -1.3120885 -4.2903647
-0.75687522 -1.2350166 -4.310554
-0.74876827 -1.1540589 -4.2987604
-0.74796766 -1.1140863 -4.3013554
-0.74675441 -1.0641321 -4.30404
-0.73706967 -0.99463278 -4.2867508
-0.73716754 -0.91459465 -4.2964191
-0.72541863 -0.91455281 -4.2655368
-0.69182533 -0.82271117 -4.1880207
-0.68894255 -0.83537382 -4.1789532
-0.64906687 -0.87574577 -4.0693755
-0.60507071 -0.89883584 -3.9509971
-0.57956362 -0.79328775 -3.8963511
-0.54326093 -0.71328282 -3.8103204
-0.54601598 -0.55759948 -3.8358684
-0.55826896 -0.52441627 -3.8719826
-0.55424088 -0.43393654 -3.8720317
-0.55234998 -0.39390853 -3.871767
-0.54960799 -0.31426728 -3.8739226
-0.56365782 -0.17382878 -3.9273715
-0.56542051 -0.13372493 -3.9367211
-0.56469852 -0.053741872 -3.9442275
-0.56602055 -0.023663938 -3.9512396
-0.56479418 0.0062791705 -3.9515362
-0.5697636 0.10397601 -3.9760876
-0.58976626 0.14303356 -4.0332661
-0.55897075 0.22525948 -3.9619744
-0.55597913 0.22962809 -3.9546232
-0.55086327 0.2278313 -3.9409628
-0.55171233 0.19485044 -3.939317
-0.54852319 0.10281491 -3.9201112
-0.5488264 0.026144266 -3.9118934
-0.54942191 -0.013365269 -3.9088135
-0.54021645 -0.13364935 -3.87047
-0.54504603 -0.21411949 -3.8737049
-0.53126615 -0.27380592 -3.8304605
-0.53316587 -0.29406479 -3.8330729
-0.53367704 -0.31404129 -3.8320677
-0.53498775 -0.36351737 -3.8296962
-0.53191191 -0.39379987 -3.8180494
-0.5410521 -0.5133518 -3.8280213
-0.5265438 -0.55411595 -3.7850869
-0.53072309 -0.59390765 -3.7913952
-0.53268516 -0.67323792 -3.7872257
-0.52222878 -0.71937835 -3.7543116
-0.52372706 -0.79361433 -3.7495217
-0.52509803 -0.833435 -3.7484436
-0.5285489 -0.87408507 -3.7527361
-0.54585081 -0.9141317 -3.7935133
-0.56166393 -0.99285853 -3.8258283
-0.56464779 -1.0741282 -3.8241169
-0.55537671 -1.1535741 -3.7904027
-0.51415473 -1.1947904 -3.6771863
-0.47246051 -1.0725954 -3.5819423
-0.47223467 -1.1580689 -3.5712986
-0.71132928 -0.63531864 -4.2613287
-0.6892854 -0.55524039 -4.2127924
-0.68376559 -0.59680903 -4.1933937
1.0792768 -1.4351288 0.5401082
1.0927206 -1.4580333 0.57814407
1.097615 -1.3947778 0.58357358
1.1127325 -1.3163288 0.61409259
1.114184 -1.2691064 0.61235595
1.1045775 -1.1170121 0.56921792
1.085837 -1.2950898 0.54088879
1.0838724 -1.342505 0.5412991
1.0782998 -1.3947277 0.53278923
1.8183064 -0.44952986 2.3670857
1.828046 -0.40948641 2.3879821
1.8358355 -0.3779107 2.4047477
1.8336641 -0.32876214 2.3932602
1.8009628 -0.29790458 2.3036625
1.7969061 -0.41772485 2.3070862
1.7870839 -0.52964449 2.2944233
1.7912548 -0.52953887 2.3053758
1.8361217 -0.017823219 2.3631608
1.8258748 0.10205549 2.3221271
1.8296943 0.15756553 2.3256414
1.8315659 0.22213745 2.3229692
1.8384182 0.14210135 2.3503945
1.8597119 0.18180168 2.401706
-0.043751046 -1.4081423 -2.4154375
-0.026230976 -1.3263335 -2.3789973
-0.01258117 -1.3688042 -2.338119
-0.016038567 -1.4094211 -2.3424325
-0.028346762 -1.4081905 -2.3749347
0.28208786 -1.374892 -1.5627362
0.33921558 -1.4160957 -1.4077061
0.39902657 -1.4169782 -1.2503629
0.42854509 -1.4175673 -1.1726911
0.43756837 -1.424872 -1.1481106
0.46491951 -1.4655936 -1.0714182
0.49546456 -1.4658085 -0.99109179
0.5100956 -1.4661567 -0.95258665
0.53987092 -1.4666607 -0.87424994
0.55718273 -1.4266951 -0.83343732
0.55692935 -1.3459848 -0.84359342
0.55224848 -1.2654765 -0.86536533
0.55478758 -1.1859083 -0.86804581
0.57247478 -1.094211 -0.83232898
1.6693264 -1.2478008 2.0692871
1.6736617 -1.1675586 2.0712492
1.6817353 -1.0877379 2.0830889
1.6833435 -1.0077891 2.0779166
1.6883992 -0.96804398 2.0865343
1.6653919 -1.0075923 2.0306997
1.6642506 -1.0473281 2.0323713
1.6582609 -1.1674992 2.0307548
1.6230092 -1.2869736 1.9521279
1.6370697 -1.3071898 1.9914689
1.6665308 -1.3274654 2.0713046
1.6679286 -1.2876332 2.0702958
0.97888994 -0.63409722 0.18201172
1.0126022 -0.51520085 0.25665951
1.0258354 -0.55538142 0.2961731
1.0523018 -0.63574249 0.37520075
1.1151613 -0.55689323 0.53118324
1.1180986 -0.51648295 0.53415394
1.4404964 -0.23186848 1.3482535
1.4414161 -0.20941055 1.3480308
1.4396162 -0.21181637 1.3435817
0.4238199 0.0053153634 -1.352416
0.42340708 -0.0046663284 -1.3523276
0.46544003 -0.07517612 -1.2335349
0.47347987 -0.082900703 -1.2114905
0.48657143 -0.083827078 -1.1769646
0.49099892 -0.083625138 -1.1653488
0.48043156 -0.036085427 -1.1987194
0.47900254 -0.0029426217 -1.2063732
0.42686453 0.085071146 -1.3537896
0.18621522 -0.97496164 -1.8618034
0.18377779 -1.0113196 -1.8639362
0.20214146 -1.012091 -1.8155686
0.18802139 -0.93129134 -1.8621898
-0.67121547 -1.4365888 -4.0616589
-0.61345869 -1.357433 -3.9191267
-0.58572018 -1.4357897 -3.8369908
-0.55352354 -1.4854264 -3.7465115
-0.55291182 -1.4704547 -3.7466636
-0.54929191 -1.4359567 -3.7412033
-0.53202528 -1.3559556 -3.7052169
-0.53037012 -1.3522252 -3.7013044
-0.52395022 -1.3172928 -3.6885343
-0.29739761 -0.26087138 -3.217155
-0.29965127 -0.26080537 -3.2230878
-0.3118456 -0.16184586 -3.2667813
-0.37315315 -0.22784775 -3.4201949
-0.37145025 -0.18053281 -3.4212813
-0.38681817 -0.094591379 -3.4717875
-0.38492316 -0.054563582 -3.4715121
-0.38053763 0.065001488 -3.4740415
-0.37674761 0.14505708 -3.4734907
-0.38342351 0.21972167 -3.4998202
-0.38595307 0.26534104 -3.5118341
-0.38208735 0.38469887 -3.5157056
-0.37020725 0.30475366 -3.4750733
-0.36147815 0.21920598 -3.4420667
-0.35504031 0.17940247 -3.4204617
-0.33673447 0.13782978 -3.3674486
-0.34180349 0.10238951 -3.3766079
-0.33586049 0.019532502 -3.3512416
-0.32221383 -0.021224678 -3.3105731
-0.31605214 -0.032263935 -3.2930765
-0.31029135 -0.14012152 -3.2652497
-0.30761427 -0.15777409 -3.2561364
-0.29721546 -0.26043117 -3.2167282
1.2698631 -0.51937878 0.9334743
1.2639111 -0.51905781 0.91778898
1.261314 -0.47889999 0.90623975
1.2554536 -0.41921169 0.88381481
1.2583376 -0.38619834 0.88751483
1.2820313 -0.47251394 0.95995331
1.284272 -0.48013812 0.96674037
0.81652135 -0.95110226 -0.20757198
0.83140898 -0.95135427 -0.16840363
0.86509866 -0.95184892 -0.079777479
0.9056744 -0.87223864 0.017533064
0.90898329 -0.79238153 0.016842365
0.90000153 -0.75243032 -0.011467457
0.91794145 -0.67292154 0.026346803
0.9193393 -0.6330893 0.025338292
0.93506557 -0.55368149 0.057344794
0.93702269 -0.55367684 0.06248939
0.84273344 -0.6719507 -0.17148459
0.84413135 -0.63211846 -0.1724931
0.83851635 -0.63203603 -0.1872642
0.82924372 -0.63186646 -0.21166146
0.81104714 -0.71147162 -0.25013912
0.79424846 -0.75124454 -0.28962529
0.74274015 -0.62929481 -0.43937635
0.75697303 -0.59048533 -0.40652227
0.76284772 -0.50966477 -0.40058088
0.76615661 -0.42980766 -0.40127158
0.7780146 -0.39042941 -0.37472785
0.77884156 -0.37045842 -0.37490213
0.77966905 -0.35050085 -0.37507331
0.78786087 -0.28991756 -0.36066079
0.78668904 -0.26333377 -0.36686718
0.78761971 -0.24087399 -0.36706138
0.78701377 -0.20906502 -0.37239444
0.78866822 -0.16913646 -0.37273967
0.78447056 -0.090637445 -0.39300501
0.77830809 -0.13043308 -0.40452671
0.76510155 -0.16885716 -0.43472803
0.71323037 -0.24686655 -0.56192183
0.69322914 -0.16663378 -0.62393761
0.67962438 -0.16590011 -0.65978992
0.66165775 -0.16680431 -0.70691681
0.60418653 -0.2436302 -0.8489719
0.59618181 -0.24407995 -0.86996299
0.58647645 -0.24443808 -0.89543569
0.57287174 -0.24370432 -0.93128794
0.52938449 -0.25724721 -1.044021
0.48322409 -0.28653407 -1.1619303
0.47036862 -0.33465904 -1.190068
0.4561511 -0.37345424 -1.2228835
0.46161175 -0.46078354 -1.1982596
0.48897052 -0.47693509 -1.1244359
0.50524837 -0.46192488 -1.0834074
0.53195959 -0.46248391 -1.0131195
0.56542706 -0.42338958 -0.9297322
0.59282792 -0.46900582 -0.85233337
0.65526611 -0.42470872 -0.69339573
0.65429902 -0.58814341 -0.67672145
0.6610294 -0.74868774 -0.6401509
0.65823364 -0.82835215 -0.63813376
0.65811867 -0.86770266 -0.63380909
0.65821105 -0.94774324 -0.62415516
0.651501 -1.0274169 -0.63242745
0.83015192 -0.75163829 -0.19519114
0.79259408 -0.7911731 -0.28927994
0 0 0 1 0 0 0 1 0 0 0 1 0 0 0 0 0 401 1 0 0
