ply
format ascii 1.0
comment PCL generated
element vertex 523
property float x
property float y
property float z
element camera 1
property float view_px
property float view_py
property float view_pz
property float x_axisx
property float x_axisy
property float x_axisz
property float y_axisx
property float y_axisy
property float y_axisz
property float z_axisx
property float z_axisy
property float z_axisz
property float focal
property float scalex
property float scaley
property float centerx
property float centery
property int viewportx
property int viewporty
property float k1
property float k2
end_header
-7.1335187 -1.5546644 -0.26782629
-7.0802646 -1.6525862 -0.27236086
-7.0756202 -1.6299131 -0.27667582
-6.9958334 -1.5482519 -0.31214598
-0.083762169 -1.3708217 -2.5189395
-0.082898617 -1.331488 -2.5241518
-0.24098635 -1.2422919 -2.4853895
-0.24276018 -1.2835146 -2.4796524
-0.090154648 -1.3661598 -2.5175047
-10.939669 0.81846541 0.63709104
-10.944113 0.7908594 0.64196193
-10.934191 0.755889 0.64321721
-10.927815 0.70985311 0.64698303
-10.92341 0.55222046 0.66538477
-10.919411 0.51274407 0.66907752
-10.926521 0.46857405 0.67687118
-10.916687 0.39453322 0.68306041
-10.919798 0.31088686 0.69454694
-10.895597 0.27186424 0.69179857
-10.88397 0.23127931 0.69322014
-10.86142 0.19136643 0.69110489
-10.863585 0.23575467 0.68621552
-10.868143 0.34905362 0.67342913
-10.873426 0.38391483 0.67072165
-10.886493 0.44062144 0.66773045
-10.898056 0.50728649 0.6630137
-10.878712 0.5905509 0.64644492
-10.876879 0.5954628 0.64524865
-10.879148 0.66313189 0.63746905
-10.88028 0.7028504 0.63283932
-10.880314 0.74316257 0.62778771
-10.884313 0.78263897 0.62409472
-10.891116 0.82713622 0.62065732
-10.896725 0.83717841 0.62116873
-10.903261 0.91299981 0.61371398
-10.904724 0.91613108 0.613783
-10.904644 1.029321 0.59954453
-10.903367 1.1080554 0.5892545
-10.907755 1.0315621 0.60024619
-0.36342907 -1.5144086 -2.4125228
-0.24126482 -1.4892986 -2.4542851
-0.24193525 -1.4841692 -2.4547172
-0.25421667 -1.4786923 -2.4515235
-10.879679 1.3610535 0.54999912
-10.910091 1.2657428 0.57157886
-10.851963 1.3087122 0.54781258
-10.840895 1.3207588 0.54280138
-10.802198 1.3484719 0.52709222
-10.760102 1.3755019 0.51039374
-10.805431 1.3519545 0.52767634
-9.210742 -0.64963174 0.27502233
-9.1735334 -0.65296865 0.26368183
-9.1253376 -0.65037024 0.24812347
-9.0166454 -0.64432108 0.21301246
-8.9708557 -0.63798201 0.19774514
-8.8964396 -0.64465594 0.17506444
-8.8309193 -0.65361416 0.15548187
-8.8109293 -0.64785838 0.14844149
-8.7738256 -0.64873141 0.13682485
-8.7384357 -0.65575802 0.12652242
-8.7488346 -0.68994051 0.13410109
-8.7735023 -0.70905125 0.14429688
-8.8168755 -0.77205908 0.16591644
-8.8211813 -0.82125008 0.17345434
-8.817667 -0.85576004 0.17667681
-8.8141518 -0.89026988 0.17989922
-8.8101521 -0.92974627 0.18359226
-8.7963915 -0.97440737 0.18485141
-8.7998333 -1.0087535 0.19025201
-8.8097467 -1.0479025 0.19830102
-8.8070965 -1.0972574 0.20366067
-8.8099566 -1.1716188 0.21390218
-8.8109903 -1.2528365 0.22442716
-8.8042355 -1.2794352 0.22563249
-8.8008738 -1.3582789 0.23447019
-8.7981339 -1.3681889 0.23484892
-8.7891655 -1.4570744 0.24317557
-8.7188931 -1.5423508 0.23167473
-8.6621637 -1.5560572 0.21546668
-8.6160593 -1.5571098 0.20102781
-8.5788517 -1.5604467 0.18968767
-8.3931255 -1.5697398 0.13215703
-8.3669624 -1.5505674 0.12148112
-8.2555475 -1.5556505 0.086907327
-8.3897638 -1.6485834 0.14099485
-8.3963003 -1.6582751 0.14427775
-8.4630241 -1.6690121 0.16671365
-8.6262474 -1.6609163 0.21728271
-8.7456856 -1.5467401 0.24069339
-8.7656279 -1.526515 0.24445629
-8.9240923 -1.4982047 0.29098308
-8.950449 -1.5320439 0.30356216
-8.9594097 -1.5392172 0.30729461
-8.9683056 -1.5415015 0.31039298
-9.0048828 -1.5529478 0.32339042
-9.0425119 -1.5397556 0.33362621
-9.1169291 -1.5330815 0.35630721
-9.1625071 -1.5443485 0.3721267
-9.2172976 -1.5505078 0.39021611
-9.310605 -1.5482476 0.41942167
-9.3652906 -1.5568709 0.43778741
-9.3280821 -1.5602081 0.42644703
-9.253665 -1.5668817 0.40376604
-10.878904 -1.2138394 0.87308073
-10.884794 -1.1943356 0.87249327
-10.882371 -1.1325319 0.86396682
-10.881863 -1.1029427 0.86009049
-10.82691 -1.0629953 0.83770728
-10.814573 -0.9839825 0.82388651
-10.816884 -0.9297775 0.81781042
-10.894032 -0.85904324 0.83331037
-10.890581 -0.83449441 0.82913756
-10.805485 -0.70936894 0.78653133
-10.805274 -0.67154008 0.78171468
-10.80079 -0.71598291 0.78587806
-10.715246 -0.82344526 0.7723366
-10.657733 -0.87192309 0.76024711
-10.649943 -0.94594812 0.76708055
-10.641096 -0.99046135 0.76987374
-10.669706 -1.0617393 0.78786635
-10.694399 -1.1154058 0.80240905
-10.76622 -1.1943386 0.83501923
-10.769663 -1.2286847 0.84042001
-10.766827 -1.2740178 0.84521592
-10.763013 -1.3175159 0.84947264
-10.76597 -1.3568285 0.8553437
-10.760775 -1.4307599 0.86298513
-10.747772 -1.4704158 0.8638556
-10.707308 -1.5501328 0.86107695
-10.70141 -1.6225646 0.86830807
-10.663208 -1.6228442 0.8562696
-10.567057 -1.5731564 0.81964231
-10.663936 -1.4871247 0.83945751
-0.4263792 -1.5326467 -2.3903377
-0.48099661 -1.5167568 -2.3750715
-0.44655657 -1.5119958 -2.3865538
-0.43522596 -1.5130165 -2.3900065
-0.39825487 -1.5092022 -2.4021702
-0.37235546 -1.5118425 -2.4100242
-3.1946588 -1.447664 -1.5261126
-3.1422548 -1.4245012 -1.545583
-3.2138045 -1.4914267 -1.5145664
-3.295424 -1.5286734 -1.4840941
-3.3322606 -1.5350411 -1.4716526
-3.2596493 -1.4952106 -1.4996023
-0.76115084 1.393014 -2.6519072
-0.64046955 1.3798897 -2.6883998
-0.77682304 1.4305747 -2.6516707
-0.79718399 1.4676366 -2.6498895
-0.80645943 1.4263039 -2.641768
-2.7525604 -1.2232479 -1.6940145
-2.7894897 -1.1680993 -1.6892682
-2.7435522 -1.2258315 -1.696537
-2.7411318 -1.2316639 -1.6965697
-2.7287276 -1.2541903 -1.6976613
-2.7249904 -1.2936682 -1.6938852
-2.7338412 -1.32392 -1.6872892
-2.7291236 -1.3722627 -1.6827099
-2.7446446 -1.4252303 -1.6711535
-2.6473866 -1.5296183 -1.6887834
-2.7024724 -1.5208683 -1.6724726
-2.7325478 -1.5066361 -1.6647546
-2.7457705 -1.4898298 -1.662686
-2.7495079 -1.450352 -1.6664621
-2.7572627 -1.4158409 -1.6683447
-2.7381465 -1.3637707 -1.6809247
-0.40676022 -0.49014008 -2.5274444
-0.42301464 -0.48965389 -2.5223684
-0.4282012 -0.53064537 -2.5155821
-0.41554642 -0.56613648 -2.515125
-0.416152 -0.6092152 -2.5095243
-0.42333412 -0.64919949 -2.5022335
-0.44380236 -0.7218765 -2.4866385
-0.57307911 -0.76581109 -2.4402649
-0.60506582 -0.73917532 -2.4335003
-0.65007544 -0.76500851 -2.4160314
-0.72445345 -0.76023614 -2.3931241
-0.80722713 -0.76767457 -2.36603
-0.84446049 -0.76405698 -2.3547168
-0.96411276 -0.77772927 -2.3151846
-1.0022416 -0.76456165 -2.3047876
-1.1009989 -0.803509 -2.2686856
-1.1344543 -0.81286001 -2.2569382
-1.1383209 -0.79742855 -2.2576537
-0.39122248 -0.49489355 -2.5317583
-0.36307096 -0.5058279 -2.5392823
-0.28858232 -0.51297593 -2.5619264
-0.28703356 -0.55484188 -2.5571587
-0.26208162 -0.6023277 -2.559082
-0.30493784 -0.6848743 -2.5351725
-0.27801466 -0.79864895 -2.5293946
-0.24586725 -0.84280217 -2.5340104
-0.24494791 -0.88250864 -2.529315
-0.24638176 -0.88834369 -2.5281291
-0.23766279 -0.97262251 -2.5203018
-0.24451351 -1.0015583 -2.5145035
-0.24769974 -1.0408226 -2.5085659
-0.26175785 -1.1861089 -2.4858794
-0.27489424 -1.0451186 -2.4994318
-0.32964611 -0.92636013 -2.4970403
-0.40315723 -0.90106344 -2.476984
-0.48744726 -0.86675191 -2.4546533
-0.5607214 -0.851601 -2.4333978
-0.58648682 -0.85366404 -2.4249959
-0.60018778 -0.8503741 -2.4210789
-0.62945604 -0.79797351 -2.4184086
-0.73302555 -0.76752132 -2.3895001
-0.81571054 -0.77742267 -2.3621247
-0.85744667 -0.89438111 -2.3342481
-0.7932725 -0.96245599 -2.3459816
-0.76286268 -1.0865775 -2.3400068
-0.76759434 -1.0839703 -2.3388386
-0.8013196 -0.96284229 -2.34339
-0.88924646 -0.92520237 -2.3203278
-0.92245531 -0.90448916 -2.3124332
-0.94343233 -0.88924789 -2.3077173
-0.96976566 -0.8662883 -2.3022778
-0.99761868 -0.85329336 -2.2951069
-5.1387229 -0.68934751 -1.006925
-5.1432133 -0.67420769 -1.0074069
-5.2726803 -0.68294734 -0.96539235
-5.306344 -0.68504947 -0.95448917
-5.3235359 -0.68646848 -0.94887769
-5.3546858 -0.71034122 -0.93603522
-5.3913293 -0.72163522 -0.92303622
-5.5188556 -0.77528214 -0.87599593
-5.6134324 -0.80321681 -0.84259778
-5.7133355 -0.7574352 -0.81677282
-5.7322974 -0.76345766 -0.81002378
-5.8536048 -0.73622501 -0.775105
-5.9368653 -0.7315973 -0.74937218
-5.9731226 -0.75274402 -0.73525786
-5.9921989 -0.75673616 -0.72872764
-6.0189676 -0.75652802 -0.72029382
-6.0451756 -0.76521111 -0.71092063
-6.1195984 -0.79782915 -0.68330401
-6.1654148 -0.81141174 -0.66711849
-6.1967077 -0.8158589 -0.65667015
-6.2434402 -0.81684172 -0.64177716
-6.1821094 -0.83348453 -0.65907061
-6.1082435 -0.82567585 -0.68339598
-6.0922899 -0.81873339 -0.68930966
-6.0725927 -0.81381226 -0.69615275
-5.9698725 -0.81705743 -0.72820926
-5.8958778 -0.83114731 -0.74982566
-5.7293248 -0.83737153 -0.80168205
-5.6104336 -0.92235148 -0.82858598
-5.5377259 -0.88498437 -0.85625696
-5.4858322 -0.89398193 -0.87152767
-5.3470597 -0.90493399 -0.91401058
-5.2996707 -0.94056129 -0.92451394
-5.2714558 -0.94146293 -0.93331778
-5.1178117 -0.96771252 -0.97857994
-5.1128812 -0.97522986 -0.97919422
-5.1120815 -0.96723956 -0.98045033
-5.0832028 -0.89497292 -0.99865162
-5.131701 -0.7364794 -1.0032259
-8.2776623 1.2824609 -0.26248193
-8.3078175 1.3576639 -0.26239473
-8.3834944 1.3939042 -0.2430281
-8.4291782 1.3851011 -0.22748458
-8.512701 1.3944182 -0.20225793
-8.6226444 1.3650074 -0.16381776
-8.6504316 1.3583093 -0.1541948
-8.6180563 1.4683101 -0.17823943
-8.5980263 1.48753 -0.18698326
-8.4703312 1.5288625 -0.23253065
-8.3748493 1.4943564 -0.25837395
-8.3689346 1.4870944 -0.25933135
-8.3382635 1.4528744 -0.26472792
-8.2342415 1.3707008 -0.28728503
-8.2252398 1.3705213 -0.29010725
-8.1422434 1.3735235 -0.31671479
-8.124176 1.3780534 -0.32299355
-8.1598244 1.364027 -0.30996597
-8.2732668 1.2848351 -0.26416922
-0.39986658 1.3733416 -2.7636185
-0.35151863 1.3742003 -2.7790065
-0.40862465 1.3684661 -2.7602384
-0.51141071 1.3814912 -2.729389
-0.51763964 1.3763306 -2.7267723
-0.50893116 1.3787193 -2.7298248
-9.2257948 -0.66411042 0.28159773
-9.2231359 -0.70169711 0.28547728
-9.1764412 -0.79569316 0.2825228
-9.1782112 -0.85966384 0.29111463
-9.1717148 -0.90656698 0.29495108
-9.1659689 -0.98057616 0.30242842
-9.1689262 -1.0198889 0.30829942
-9.1695642 -1.0592561 0.31344444
-9.1604338 -1.0920401 0.31467545
-9.1546078 -1.1383725 0.31865203
-9.1487732 -1.1729369 0.32114846
-9.1558838 -1.2171069 0.328942
-9.1518831 -1.2565835 0.33263475
-9.1364422 -1.3406663 0.33831292
-9.1330814 -1.4195099 0.34715092
-9.1401911 -1.4636798 0.35494423
-6.3543334 -1.3373923 -0.54136521
-6.4275494 -1.3751888 -0.51347971
-6.4620047 -1.4130569 -0.49783528
-6.5449576 -1.4712651 -0.46430939
-6.5477729 -1.497977 -0.46006548
-6.415915 -1.5286639 -0.49788493
-6.4130011 -1.5296595 -0.49868095
-6.3996711 -1.529084 -0.50296599
-6.3312311 -1.5111213 -0.52685148
-6.2708268 -1.3896646 -0.56119311
-6.2245054 -1.3705094 -0.57823807
-6.1752257 -1.2591022 -0.6078018
-6.150116 -1.245151 -0.61748934
-6.1572704 -1.2400329 -0.61587095
-6.1762166 -1.2344643 -0.61058235
-6.2775655 -1.2221267 -0.58010101
-6.3121738 -1.2147574 -0.57008851
-6.3872542 -1.1749878 -0.55135363
-7.560945 1.394861 -0.50310951
-7.6068959 1.3935206 -0.48841882
-7.6665511 1.3870578 -0.46875364
-7.617959 1.3854678 -0.48391122
-7.5925546 1.3902392 -0.49253923
-7.5555568 1.39183 -0.50443196
-10.320901 1.4809816 0.35834193
-10.395947 1.5024388 0.37936556
-10.456313 1.5083916 0.39769626
-10.476634 1.4452317 0.41204953
-10.510691 1.3746526 0.43167555
-10.4828 1.3788869 0.42232871
-10.474009 1.3836353 0.41895425
-10.416179 1.3920875 0.39961624
-10.38188 1.3962357 0.3882556
-10.330863 1.3950353 0.37228274
-10.317328 1.3972104 0.36773205
-10.282529 1.397614 0.35668319
-10.214705 1.3873792 0.33653313
-3.7856495 1.3807609 -1.694496
-3.832175 1.3941972 -1.6814791
-3.911567 1.418402 -1.6594272
-3.8618119 1.4321129 -1.6768736
-3.8523393 1.4269254 -1.6792159
-3.8145204 1.3989739 -1.6876585
-3.7814755 1.3881121 -1.6967382
-3.7488134 1.3871014 -1.706934
-3.7421689 1.3882768 -1.7091815
-3.7204213 1.3812022 -1.7151664
-3.7695997 1.3852282 -1.7001294
-10.867162 -0.16293873 0.73740935
-10.870523 -0.08409512 0.72857165
-10.851335 -0.045164406 0.71761847
-10.845654 -0.1240626 0.72573018
-7.7379375 -1.5504713 -0.077330232
-7.7644148 -1.562252 -0.067482889
-7.7468333 -1.5527556 -0.074231982
-10.238815 -1.6841614 0.72984278
-10.210503 -1.6897829 0.72160065
-10.131707 -1.5882263 0.68394542
-10.095024 -1.5792439 0.67122412
-10.160439 -1.5727494 0.69108284
-10.243542 -1.5732877 0.7174145
-10.271435 -1.5775218 0.72676134
-10.289436 -1.577163 0.73240554
-10.32654 -1.5762897 0.74402213
-10.400956 -1.5696161 0.76670301
-10.428848 -1.5738502 0.77604997
-10.354221 -1.5854518 0.75392115
-0.99238968 -1.5152216 -2.2136421
-0.92693806 -1.5174279 -2.2340503
-0.97256613 -1.526021 -2.2185509
-5.9166455 -1.4125752 -0.67025292
-5.9097295 -1.4530647 -0.66735446
-5.7761321 -1.5179222 -0.70143288
-5.7395983 -1.5040996 -0.71471483
-5.702569 -1.5025961 -0.72660661
-5.6457372 -1.3229508 -0.76712567
-5.6654396 -1.5035563 -0.73822045
-5.5905876 -1.5202596 -0.75977951
-5.5534592 -1.5212197 -0.77139318
-5.5264773 -1.5129197 -0.78096277
-5.4893513 -1.5139418 -0.79256785
-5.4491148 -1.5233147 -0.80410749
-5.4792013 -1.5231402 -0.79462063
-5.5066919 -1.526017 -0.78557134
-5.5248318 -1.5318477 -0.77910608
-5.5807509 -1.5288992 -0.76180351
-5.5990896 -1.5299275 -0.75587845
-5.6819482 -1.5352111 -0.72902822
-5.7381673 -1.5246906 -0.71258157
-5.7841082 -1.5260112 -0.69789636
-5.8210416 -1.5299156 -0.68573362
-5.8592882 -1.5158145 -0.67541659
-5.8869615 -1.5132127 -0.66699737
-5.9238949 -1.5171173 -0.65483457
-5.970377 -1.5203252 -0.6397413
-6.0073485 -1.5075629 -0.62965935
-6.025897 -1.5042076 -0.62421846
-5.9987574 -1.4778788 -0.63610196
-5.9268236 -1.3738633 -0.67189711
-5.9206738 -1.3346426 -0.67876571
-5.9100628 -1.1510022 -0.70517868
-5.9006438 -1.3345406 -0.68510884
-5.9023409 -1.348058 -0.68287522
-2.7409608 -1.2487185 -1.6944822
-7.0717568 1.3782361 -0.65562671
-7.1152697 1.3773606 -0.6417647
-7.1461911 1.3851917 -0.6329757
-7.1805096 1.4033546 -0.62441021
-7.172533 1.4014726 -0.62669486
-7.0979023 1.3895254 -0.64878112
-7.0629168 1.3805597 -0.65871221
-7.0257969 1.3795452 -0.67031634
-6.9974194 1.3737438 -0.67855644
-6.9885798 1.3760674 -0.68164194
-6.9209199 1.376972 -0.70313889
-6.8774133 1.3779507 -0.71701187
-6.8291144 1.3821156 -0.73279941
-6.8203826 1.3869667 -0.73616809
-6.8945341 1.3865998 -0.71268702
-6.977704 1.3887701 -0.68667406
-6.2465439 1.3932643 -0.91831684
-6.240685 1.4719999 -0.93005526
-6.3113894 1.3829718 -0.89653039
-6.3572445 1.3791685 -0.88156056
-6.3937268 1.3780568 -0.86989105
-6.3549657 1.3779185 -0.88212383
-6.3177047 1.3755922 -0.89360774
-6.2916327 1.3697588 -0.90111518
-9.3719807 1.3677099 0.072665453
-9.4179802 1.3662987 0.087380409
-9.4552937 1.3720996 0.0984447
-9.4847612 1.4048233 0.10364866
-9.555315 1.4359879 0.1220336
-9.5752735 1.4330509 0.12870997
-4.0234871 1.4266589 -1.6250925
-4.0366926 1.4266768 -1.6209211
-4.0548716 1.4173496 -1.6140046
-7.5416379 -1.5514936 -0.1392411
-7.5591373 -1.5585103 -0.13282949
-7.6049657 -1.5622904 -0.11787093
-7.6267328 -1.5506265 -0.11245614
-7.5787668 -1.5505333 -0.12762737
-9.7247515 -1.582969 0.55466974
-9.6333828 -1.5653632 0.52358258
-9.596386 -1.5637724 0.51169014
-9.6417542 -1.579967 0.52806211
-9.9449625 -1.5814712 0.62407792
-9.9202385 -1.5684915 0.61463416
-9.873374 -1.574549 0.60058367
-9.8372421 -1.5654893 0.58802664
-9.7817965 -1.5618711 0.57004929
-9.9332466 -1.5829856 0.62056541
-9.9499083 -1.5841422 0.62597632
-10.020818 -1.5809898 0.64799106
-9.8074341 -1.5933626 0.58210599
-9.8542976 -1.5873051 0.5961566
-0.63585567 -1.5235028 -2.3252821
-0.6578207 -1.5330031 -2.3171473
-0.68621588 -1.5294888 -2.3086145
-5.4235277 -1.5281813 -0.81158298
-5.4047461 -1.5299881 -0.81729198
-5.4216738 -1.5256469 -0.81248701
-5.4420729 -1.5241003 -0.80623436
-7.3811903 1.408839 -0.56167501
-7.3761883 1.4117868 -0.56362599
-7.3386149 1.4135048 -0.57571656
-7.2531381 1.5384166 -0.61841607
-7.2515006 1.5393262 -0.61904776
-7.3477006 1.4034247 -0.57157934
-7.3117433 1.3975174 -0.58220166
-7.2494869 1.4102654 -0.60347813
-6.5059304 1.3882856 -0.83571422
-6.4491463 1.3764877 -0.85217905
-6.5144706 1.3785088 -0.83178759
-6.5605173 1.3796313 -0.81737572
-6.6061807 1.3709025 -0.80184799
-6.671792 1.3803122 -0.78229356
-6.5974493 1.3757536 -0.80521673
-9.2891941 1.3756399 0.045505524
-9.3633995 1.3773859 0.06873858
-9.4466076 1.3793116 0.094794035
-10.768135 -1.3124402 0.85045433
-10.769258 -1.3468409 0.85512888
-0.50111198 -1.5180228 -2.3685553
-0.48979664 -1.5166829 -2.3722997
-5.880168 -1.0951077 -0.72164541
-5.9195881 -1.1321862 -0.70453107
-5.9221478 -1.1383667 -0.70294607
-4.8406644 1.387336 -1.3618913
-4.89573 1.3909957 -1.3449476
-4.932662 1.3871181 -1.3327887
-4.9779425 1.3685379 -1.3161449
-5.0343437 1.3704848 -1.2985642
-5.0431709 1.3680966 -1.2954745
-5.07972 1.3543675 -1.2821995
-5.0975661 1.3545165 -1.2765779
-5.1546373 1.373703 -1.2609503
-5.1834106 1.3786197 -1.2524741
-5.2188969 1.3805773 -1.2415048
-5.2290359 1.3975883 -1.2404363
-5.2018633 1.414042 -1.25109
-5.1839466 1.4210939 -1.2576382
-5.1126127 1.4760189 -1.2870796
-5.0005713 1.4556353 -1.31993
-4.9273996 1.4215884 -1.3387802
-4.9249835 1.4190602 -1.3392262
-7.7037592 1.3903944 -0.45741326
-7.7823615 1.389766 -0.43249261
-7.8282557 1.3858907 -0.41750142
-7.791152 1.3850179 -0.4291181
-7.7169461 1.3832717 -0.45235121
-5.8706951 -1.1382062 -0.71922749
-5.8442426 -1.1335142 -0.72817671
-5.753232 -1.097656 -0.7614426
-5.7352509 -1.0877436 -0.76837021
-5.7024279 -1.0357767 -0.78526914
-5.711339 -1.0356562 -0.78246784
-5.7300973 -1.0392153 -0.77609259
-5.73734 -1.0486329 -0.77262098
-5.8032618 -1.0920911 -0.74632978
-5.8273439 -1.0968772 -0.73811793
-8.8538446 1.3605697 -0.090191305
-8.8914738 1.3737624 -0.079955459
-8.9211187 1.3711016 -0.070252299
-8.9001598 1.3665502 -0.076304793
0 0 0 1 0 0 0 1 0 0 0 1 0 0 0 0 0 523 1 0 0
