ply
format ascii 1.0
comment PCL generated
element vertex 516
property float x
property float y
property float z
element camera 1
property float view_px
property float view_py
property float view_pz
property float x_axisx
property float x_axisy
property float x_axisz
property float y_axisx
property float y_axisy
property float y_axisz
property float z_axisx
property float z_axisy
property float z_axisz
property float focal
property float scalex
property float scaley
property float centerx
property float centery
property int viewportx
property int viewporty
property float k1
property float k2
end_header
-7.3033371 -1.4668579 -2.5644617
-7.3322697 -1.4093626 -2.5741856
-7.3471527 -1.3583229 -2.5726702
-7.3051305 -1.4137608 -2.5500238
-7.1755624 -1.4537485 -2.4404368
-7.1348391 -1.4147974 -2.3903499
-7.1145988 -1.2960896 -2.3352892
-7.0971403 -1.2531612 -2.3058517
-7.0821676 -1.1249197 -2.2528453
-7.0993929 -1.0949411 -2.2599256
-7.11728 -1.0166773 -2.2529655
-7.1248779 -0.93565392 -2.2355013
-7.1260042 -0.85654396 -2.2125382
-7.1314864 -0.80911356 -2.2032869
-7.1141191 -0.78212148 -2.1787741
-7.0959072 -0.77154231 -2.1584518
-7.0485058 -0.77167374 -2.1139579
-6.9954786 -0.75978535 -2.0605292
-6.9741869 -0.75903881 -2.0402994
-6.9583998 -0.84808469 -2.0525057
-6.8195381 -0.81784415 -1.9128628
-6.8139219 -0.87195593 -1.9240174
-6.7959442 -0.93428355 -1.9260523
-6.8085713 -0.90774536 -1.9298575
-6.948719 -0.89541125 -2.057781
-6.9494419 -0.93531108 -2.0705757
-6.9316864 -1.0019342 -2.0741241
-6.8001795 -1.0891351 -1.9770515
-6.7568274 -1.1214466 -1.9461334
-6.7599363 -1.0179049 -1.9176149
-6.7785873 -0.97590292 -1.9223835
-7.2795677 -1.4863176 -2.5480394
-7.2582207 -1.5146035 -2.5365725
-7.2170653 -1.5035665 -2.4945557
-7.1299853 -1.5241513 -2.4189949
-7.094275 -1.4982212 -2.3775713
-7.0230331 -1.470794 -2.3023119
-6.9913368 -1.4320748 -2.2607763
-7.0272131 -1.3600943 -2.2726252
-7.0290871 -1.3187015 -2.2618172
-6.9580107 -1.2362834 -2.1700149
-6.9327865 -1.1956509 -2.1339788
-6.9143515 -1.1807762 -2.1121428
-6.9098873 -1.1775351 -2.1069646
-6.9053721 -1.13078 -2.0885253
-5.7878551 -0.81396013 -0.94241834
-5.9009943 -0.75146353 -1.029736
-5.9056416 -0.76511782 -1.0382477
-7.7338877 1.2115248 -2.1556835
-7.686204 1.2913381 -2.0866504
-7.6679621 1.2997037 -2.0669713
-7.6604929 1.2954324 -2.0612514
-7.6584053 1.2603735 -2.0699353
-7.6449637 1.2198919 -2.0695992
-7.5712576 1.1117038 -2.0332031
-7.5588608 0.95625317 -2.068758
-7.6053839 0.86855173 -2.1390965
-7.5971451 0.82700038 -2.1439731
-7.5806489 0.7512871 -2.1514654
-7.5984817 0.65664005 -2.1969583
-7.5664477 0.55735791 -2.1970091
-7.5839319 0.56116068 -2.212281
-7.5927854 0.59732187 -2.2096186
-7.6160622 0.66677392 -2.2103982
-7.6477156 0.77310848 -2.2078488
-7.6345835 0.82869387 -2.1786323
-7.6234193 0.86188042 -2.1580667
-7.675745 1.0118035 -2.1617033
-7.6749911 1.1007124 -2.1339982
-7.719151 1.1706592 -2.1542473
-6.0210571 1.4570165 -0.47193876
-5.988482 1.4567344 -0.44142029
-5.9338422 1.4248626 -0.39976403
-6.000731 1.4122562 -0.46643373
-6.0131879 1.4045265 -0.48048416
-6.0457392 1.4023216 -0.5117358
-6.0757475 1.4043267 -0.53931963
-6.0802383 1.4236946 -0.53765762
-6.0271249 1.4528992 -0.47888973
-6.0232897 1.4553943 -0.47452876
-4.0601969 1.3560717 1.3396355
-4.0597458 1.3745821 1.3456798
-4.069387 1.3728712 1.3361026
-2.8615918 -0.36987635 1.9416466
-2.8448539 -0.35930032 1.9605833
-2.8120904 -0.37445846 1.9867619
-2.7727795 -0.42064595 2.0096698
-2.7266152 -0.44540933 2.0455217
-2.7012722 -0.45491523 2.0664451
-2.6741707 -0.45781153 2.0910275
-2.6330497 -0.52468997 2.1093533
-2.5033216 -0.49808294 2.2393117
-2.4861341 -0.51034534 2.2517359
-2.4704075 -0.53333557 2.2595303
-2.3977585 -0.68805939 2.2808027
-2.3137479 -0.75748956 2.3386481
-2.246258 -0.73008299 2.4103768
-2.2023683 -0.73164773 2.4511361
-2.1478133 -0.76539022 2.4921446
-2.0637832 -0.78822535 2.564157
-2.1260934 -0.79053116 2.5049164
-2.1674013 -0.78974855 2.4663453
-2.2400496 -0.90763855 2.3622954
-2.2413337 -0.9197104 2.3574238
-2.248843 -0.94152725 2.3437443
-2.2659731 -0.97085094 2.3187463
-2.2792318 -1.0264096 2.2894197
-2.2338171 -1.1277145 2.301326
-2.3659599 -1.1306837 2.1762764
-2.3841534 -1.1411223 2.156014
-2.4760344 -1.1553137 2.0653825
-2.483547 -1.1712657 2.0534809
-2.5188708 -1.2110282 2.0082207
-2.5558805 -1.1841949 1.9815978
-2.5882208 -1.1656339 1.9568499
-2.5935006 -1.1571201 1.9544747
-2.6184926 -1.1240914 1.9410237
-2.6786664 -1.0800958 1.8978498
-2.6895571 -1.0462327 1.8979002
-2.6959455 -0.96557927 1.9163885
-2.7107499 -0.92474031 1.9148804
-2.7286553 -0.85815716 1.9182761
-2.7803669 -0.78844535 1.8908606
-2.8078804 -0.73702049 1.8806268
-2.8394632 -0.69414556 1.8639735
-2.8394818 -0.69122916 1.8648417
-2.8323205 -0.65686661 1.8820037
-2.8316197 -0.62059921 1.8936745
-2.8213038 -0.53031588 1.9307803
-2.8366437 -0.46157813 1.9372404
-2.8604693 -0.42171812 1.9269595
-2.8688219 -0.37526605 1.9332174
-4.0990853 -0.80666089 0.64639533
-4.1240745 -0.77190685 0.63347065
-4.1770678 -0.76276594 0.5864594
-4.1352177 -0.80292505 0.61358327
-4.1461515 -0.9461382 0.55982488
-4.2617445 -0.88707781 0.46915898
-4.3126535 -0.75592119 0.46115524
-4.333231 -0.76143956 0.44014677
-4.356813 -0.86849254 0.38548562
-4.3764334 -1.0343281 0.31669676
-4.403995 -1.0431834 0.28811374
-4.4025121 -1.1246793 0.26476103
-4.3677597 -1.2354953 0.26376235
-4.3615532 -1.2190863 0.27457583
-4.2700906 -1.1837547 0.37123305
-4.2346058 -1.1670794 0.40963441
-4.2143846 -1.159175 0.4310323
-4.1727409 -1.1621652 0.46924835
-4.1352034 -1.1683027 0.50265127
-4.0592446 -1.2270477 0.5561766
-4.0545979 -1.2133934 0.56468856
-4.0492377 -1.1615914 0.58545387
-4.0485706 -1.092659 0.60701144
-4.0574713 -1.0105256 0.62358892
-4.0825934 -0.96661031 0.61332119
-4.0926733 -0.89427996 0.62581384
-7.5611973 -0.32092842 -2.4587643
-7.5529356 -0.3598744 -2.4628284
-7.6656957 -0.26154378 -2.5389085
-7.6772928 -0.2617991 -2.5498815
-7.6792269 -0.22472459 -2.5404408
-7.6876369 -0.18578804 -2.5365193
-7.6892724 -0.16521525 -2.5318091
-7.6921372 -0.14941162 -2.5297019
-7.6983461 -0.088133752 -2.5169284
-7.69837 -0.086690962 -2.5165126
-7.7061043 -0.00046396255 -2.4975967
-7.7184205 0.028629184 -2.5003338
-7.7312946 0.10177791 -2.4902174
-7.7313557 0.10538507 -2.4891794
-7.7429342 0.17816132 -2.4779594
-7.7431288 0.18970442 -2.4746373
-7.7489486 0.22789603 -2.468508
-7.755857 0.25419581 -2.4670129
-7.7033715 0.3738215 -2.3813791
-7.6868658 0.28954381 -2.3914621
-7.6771965 0.25239909 -2.3936567
-7.6689682 0.21256977 -2.3980203
-7.6568666 0.17610323 -2.3977239
-7.6576252 0.13621366 -2.4105489
-7.6462827 0.059857666 -2.4230778
-7.6474094 0.021852612 -2.4356768
-7.6318412 -0.055361032 -2.4444957
-7.6261702 -0.093539 -2.4507601
-7.6153545 -0.13034791 -2.451776
-7.6019673 -0.16647214 -2.4501679
-7.6014404 -0.20601928 -2.4616809
-7.5805883 -0.2707777 -2.4617543
-5.5443048 -1.526984 -0.93010974
-5.5440788 -1.5177293 -0.92708743
-5.6466479 -1.5151703 -1.022674
-3.5641973 -0.77355188 1.1589752
-3.5506418 -0.82129884 1.1572125
-3.5580769 -0.84314573 1.1435937
-3.5997202 -0.84015566 1.1053774
-3.6215007 -0.829355 1.0881944
-3.6820683 -0.82969248 1.0311887
-3.678483 -1.0183523 0.97727144
-3.7169435 -0.8308683 0.99806654
-3.7237117 -0.82670236 0.99297273
-3.7293441 -0.77113551 1.0045537
-3.7119207 -0.7731759 1.0203034
-3.6706343 -0.77377999 1.0589087
-3.6091263 -0.76647973 1.1189119
-3.59395 -0.76620591 1.1332532
-4.4761682 -1.4801836 0.087614059
-4.3531938 -1.4404852 0.21520254
-4.3369498 -1.4523289 0.22686744
-4.251297 -1.4633698 0.3039856
-4.2310762 -1.4554653 0.32538328
-4.1669397 -1.4765079 0.37924963
-4.1870298 -1.4960532 0.35444033
-4.2073822 -1.4923165 0.33645409
-4.2897301 -1.4818535 0.26226547
-4.3281164 -1.5740414 0.19820908
-4.3526645 -1.47961 0.20381957
-4.4753232 -1.4965965 0.083423987
-4.5833745 -1.4466071 -0.002911061
-4.6019459 -1.4597602 -0.02435258
-4.6110063 -1.4570814 -0.032051206
-4.6279469 -1.441921 -0.04336378
-4.7242785 -1.3854235 -0.11671168
-4.6334949 -1.3242908 -0.012858003
-4.6448526 -1.2530329 -0.0018915236
-4.6596203 -1.2121789 -0.0033607185
-4.6717997 -1.1720903 -0.0026303828
-4.7246327 -1.0834944 -0.025365353
-4.7457042 -0.96199989 -0.0082705319
-4.8645611 -0.86308002 -0.089899778
-4.7409916 -0.93270624 0.0050516129
-4.808094 -0.74867201 -0.0021095574
-4.7871594 -0.74553949 0.018509477
-4.7255206 -0.74988019 0.075101241
-4.6431727 -0.76034331 0.14928983
-4.70787 -0.90601063 0.044275463
-4.6129823 -0.95150912 0.11960721
-4.5678558 -1.0404222 0.13500518
-4.5497642 -1.1368752 0.12271476
-4.5461054 -1.1447985 0.12374641
-4.5620456 -1.1813344 0.09767656
-4.5640545 -1.2215791 0.083568871
-4.572494 -1.2635484 0.062896162
-4.6127858 -1.3304133 0.0047387779
-4.5987248 -1.4126222 -0.0070130229
-7.707757 0.41234183 -2.3738027
-7.7225871 0.49102187 -2.3638446
-7.7218876 0.45071268 -2.3754272
-7.372386 1.3892574 -1.7620857
-7.3429222 1.3932393 -1.7331951
-7.3731899 1.3529992 -1.7738507
-7.4002409 1.3494422 -1.8003452
-7.4468861 1.2671243 -1.8691638
-7.4512625 1.3049183 -1.861799
-7.4285874 1.3462694 -1.82794
-7.4017816 1.3681474 -1.7961128
-5.0227675 1.3932691 0.44659647
-5.0642486 1.3845747 0.40498489
-5.0939236 1.392359 0.37946922
-5.0962892 1.3974199 0.3787832
-5.0860424 1.397841 0.38853806
-5.064765 1.3986092 0.4087612
-5.0236416 1.4096897 0.45076105
-4.9921989 1.4062133 0.47924581
-4.9816437 1.4043491 0.48859644
-4.9309168 1.4042585 0.53622675
-4.9717155 1.3908355 0.49382064
-7.3585267 -1.2856097 -2.5612769
-7.370616 -1.2535243 -2.562892
-7.3912144 -1.1635816 -2.5549335
-7.4096231 -1.0494004 -2.5375578
-7.4241734 -0.93418443 -2.5162435
-7.4599967 -0.77329099 -2.5010445
-7.4384518 -0.92633742 -2.5272753
-7.4239016 -1.0415534 -2.5485897
-7.4067788 -1.1560795 -2.5672784
-7.3919859 -1.1991161 -2.5664487
-7.384984 -1.2376742 -2.5715785
-2.8383188 -1.5299146 1.6112709
-2.7757273 -1.5296402 1.6701587
-2.7139306 -1.5129286 1.7332913
-2.7552028 -1.512404 1.6946752
-2.7971208 -1.5187734 1.6533593
-1.2370412 -1.5348244 3.1141784
-1.2217946 -1.5537479 3.1227567
-1.2798827 -1.5537469 3.0681832
-1.3171923 -1.5499542 3.0342824
-1.3552127 -1.5296614 3.004724
-1.2961898 -1.5468656 3.0549521
-1.2566421 -1.5357232 3.0954905
-5.0319519 -1.2106659 -0.3527064
-5.0296736 -1.1342179 -0.32735243
-5.0412636 -1.0945607 -0.32619974
-5.0705032 -1.0428772 -0.33797684
-5.04848 -1.0468419 -0.31849012
-5.011806 -1.0501616 -0.28504273
-5.0095344 -1.0761182 -0.29079011
-5.0128469 -1.1391925 -0.31305483
-5.4016557 -1.0367522 -0.64723432
-5.3849692 -0.97858584 -0.61389542
-5.46837 -0.85265267 -0.65401125
-5.4773269 -0.83769453 -0.65788448
-5.4219284 -0.75661439 -0.58121765
-5.3810205 -0.75471771 -0.54220891
-5.3398609 -0.74355924 -0.5001514
-5.2969308 -0.77688736 -0.46993873
-5.2696161 -0.84852737 -0.46602973
-5.2822461 -0.86306363 -0.48230943
-5.29983 -0.89937806 -0.5098561
-5.338212 -0.9179765 -0.5515635
-5.3450165 -1.0589125 -0.60075068
-5.2674646 -1.102466 -0.54111564
-5.2258348 -1.1053412 -0.50287783
-5.2435279 -1.130008 -0.52699029
-5.2543812 -1.1535622 -0.54433894
-5.326426 -1.1266437 -0.60385156
-5.3568878 -1.1131486 -0.62837243
-5.3875709 -1.0587721 -0.64068818
-5.39993 -1.0437357 -0.64773357
-5.0444937 -0.8422941 -0.2526345
-5.0505481 -0.84290016 -0.25850704
-5.0659275 -0.84293497 -0.27296636
-5.0820374 -0.82494837 -0.28264007
-5.2886786 1.3860872 0.19459227
-5.3294449 1.3726208 0.15220377
-5.3303189 1.3890414 0.15636833
-3.9537506 -0.77585387 0.7922914
-3.9541593 -0.81698167 0.7794193
-3.9820778 -0.78053147 0.76425773
-3.9807069 -0.76104283 0.77146327
-1.3655415 -1.5265332 2.99597
-1.3603773 -1.5273643 3.0005696
-5.5825014 -0.811575 -0.7487644
-5.6287408 -0.74013501 -0.77051413
-5.6214151 -0.7995016 -0.78165805
-5.6192503 -0.81381726 -0.78397107
-5.6721816 -0.92569548 -0.86767113
-5.6016426 -0.82488501 -0.77078915
-6.2677345 1.3743269 -0.72880054
-6.3360462 1.3685317 -0.79473913
-6.3104715 1.3869979 -0.76510417
-6.3721695 -1.1588511 -1.5961057
-6.3796701 -1.1534178 -1.6015029
-6.3576188 -1.2740672 -1.6174202
-6.3428259 -1.3171037 -1.6165904
-6.340045 -1.2413244 -1.5909677
-6.3561726 -1.1942674 -1.5918308
-1.6705496 -0.49284291 3.0232911
-1.6123328 -0.63156557 3.0358632
-1.6829758 -0.77294445 2.9265652
-1.7325075 -0.79667604 2.8728242
-1.76125 -0.80914825 2.8420334
-1.7483473 -0.79912931 2.8571978
-2.4552557 -1.5317152 1.9706115
-2.5291729 -1.5256318 1.9030136
-2.5802345 -1.522212 1.8560795
-2.6204863 -1.5285845 1.8163282
-2.6320312 -1.5208726 1.8078233
-2.5901134 -1.514503 1.8491392
-2.5595908 -1.5050087 1.8806982
-2.5303273 -1.5068085 1.9076446
-2.4883349 -1.512105 1.9454881
-2.467736 -1.5065343 1.9665323
-2.4467769 -1.5033495 1.9871904
-2.4349637 -1.5121269 1.9956237
-3.811506 -1.5242312 0.69868833
-3.8149981 -1.4829801 0.70793331
-3.7557249 -1.48226 0.76383895
-3.7087867 -1.492007 0.80497777
-3.7122979 -1.4971799 0.80010831
-3.7176585 -1.5060623 0.79237509
-3.7289517 -1.5289438 0.77481711
-3.8085771 -1.5259273 0.70092511
-3.5080047 -1.4858845 0.99547136
-3.5667896 -1.5006316 0.93576503
-3.5733924 -1.4870775 0.93367732
-3.5672777 -1.4866047 0.93956578
-3.5295584 -1.4633491 0.98206449
-3.5077791 -1.4766295 0.99849343
-3.4850612 -1.4854269 1.0171658
-3.4434175 -1.488417 1.0553819
-3.4232907 -1.5014086 1.0703461
-3.3347323 -1.4880233 1.1576111
-3.2775571 -1.4956052 1.2090248
-3.2149792 -1.4954629 1.2678601
-3.1528523 -1.5138304 1.3206509
-3.17343 -1.519349 1.2996426
-3.2556467 -1.5205268 1.2220423
-3.3125978 -1.5061696 1.1728964
-3.3293583 -1.5070155 1.156893
-3.3435054 -1.5108093 1.1424499
-1.378341 -1.1958382 3.0843594
-1.3325772 -1.131561 3.1468716
-1.3389111 -1.0385067 3.1691766
-1.3367968 -1.0026926 3.1820378
-1.3514686 -0.95812976 3.1817851
-1.3180158 -0.85376704 3.2449031
-1.3118036 -0.84782398 3.2525442
-1.2018473 -0.8391068 3.3584948
-1.1997328 -0.80329281 3.371356
-1.2365284 -0.79251546 3.3400593
-1.2750657 -0.77480853 3.3092301
-1.3549826 -0.70065689 3.256664
-1.4228201 -0.78753233 3.1665516
-1.5022588 -0.76903754 3.0975349
-1.5454464 -0.66026485 3.0899885
-1.5691512 -0.56650645 3.0961871
-1.5819438 -0.54668325 3.0901878
-1.5980184 -0.52863908 3.0805647
-1.6160941 -0.52169865 3.06569
-1.6630406 -0.47102609 3.0369704
-1.6815734 -0.44655046 3.0269907
-1.7017539 -0.43849593 3.0104771
-1.722059 -0.43462476 2.9925759
-1.7593734 -0.53108001 2.9282308
-1.4214046 -1.1632001 3.0538113
-1.498147 -1.1495047 2.9858706
-1.4481578 -1.0887856 3.0512724
-1.437017 -1.0366478 3.0775707
-1.4374807 -1.0073828 3.0860214
-1.4353664 -0.9715687 3.0988824
-1.4552102 -0.91077971 3.0986974
-1.4729259 -0.83910227 3.1038182
-1.5894525 -0.78659117 3.0102863
-1.6094055 -0.78510505 2.9919918
-1.6688931 -0.81822062 2.9260478
-1.7112634 -0.79855329 2.8922129
-1.4473333 -1.4887629 2.9305956
-1.4505613 -1.4877853 2.9278598
-1.423985 -1.5182824 2.9435678
-1.3978131 -1.5255553 2.9659479
-5.912406 1.4139822 -0.38292864
-5.9140358 1.414263 -0.38437435
-5.8716803 1.4065368 -0.34692731
-5.8537021 1.4131432 -0.32803091
-5.8729124 1.4253433 -0.34237429
-6.6858826 1.3825305 -1.1191589
-6.7232938 1.3820453 -1.1544542
-6.7655091 1.3782499 -1.1952678
-6.7490139 1.3751991 -1.1806968
-6.7296243 1.3723447 -1.1633472
-6.7231488 1.3704247 -1.1578466
-6.6612763 1.3752348 -1.0982568
-6.6414089 1.3854837 -1.0764796
-6.6211877 1.3933465 -1.0550941
-6.6614208 1.3868549 -1.0948644
-6.6168957 -1.0983639 -1.8076589
-6.5217228 -1.0728412 -1.7104948
-6.4850931 -1.1317712 -1.6939747
-1.8807116 -0.77853215 2.7390959
-1.9093471 -0.86360985 2.6863594
-1.9544094 -0.84647417 2.6492264
-2.0028744 -0.78810918 2.6214159
-1.9423244 -0.77387828 2.6826239
-1.9269471 -0.77162069 2.6977561
-6.9922142 1.3737209 -1.4096323
-6.9925036 1.3969612 -1.4028474
-6.9721375 1.393204 -1.3848542
-6.94664 1.392549 -1.3610983
-6.9090567 1.3792353 -1.3298315
-6.9516687 1.3906267 -1.3664066
-2.9034796 -1.5177439 1.553748
-2.9256153 -1.5020776 1.5377085
-2.9633648 -1.4978509 1.5035263
-3.0255961 -1.5005112 1.4442523
-3.0921893 -1.4901173 1.3848442
-3.11134 -1.5051796 1.3622785
-3.090631 -1.5113021 1.3798753
-2.9628558 -1.5235686 1.4961953
-2.9869919 -1.5210187 1.4742939
-1.6977615 -1.4832847 2.6969819
-1.7093842 -1.4746339 2.6886892
-1.7127867 -1.5151887 2.6731784
-1.7113721 -1.5364585 2.6680489
-1.6637328 -1.5183175 2.7183146
-1.911572 -1.525351 2.4833341
-1.9193251 -1.5112753 2.4803243
-1.9620342 -1.5126824 2.4397717
-1.9193187 -1.523005 2.4767685
-2.0012364 -1.5144801 2.4023955
-2.0232952 -1.5104134 2.3829062
-2.0367928 -1.5108824 2.3700826
-2.0635467 -1.5167859 2.3431549
-2.1055584 -1.5112332 2.305371
-2.0743418 -1.3982098 2.3690181
-2.0604899 -1.4037917 2.380337
-2.3941853 -1.0731497 2.1672287
-2.3918912 -0.96334189 2.2027264
-2.5274367 -0.95307612 2.0784991
-2.531589 -0.99884188 2.0607011
-2.1943867 -1.1884742 2.3199213
-2.1868775 -1.1666574 2.3336008
-2.6835275 -0.7664938 1.9885067
-2.6854229 -0.587493 2.0410788
-2.7679677 -0.58644336 1.9638467
-2.791048 -0.65739137 1.9206197
-2.7118976 -0.76686209 1.9617411
-2.2707891 -1.5081024 2.1510875
-2.3057609 -1.4684658 2.1302671
-2.3037665 -1.4183708 2.147352
-2.2800548 -1.361757 2.1868198
-2.2744203 -1.349793 2.1957462
-2.2352359 -1.4247842 2.209789
-2.2179842 -1.4664634 2.2133412
-2.5895591 -0.67681569 2.1040204
-2.5956883 -0.60865343 2.118959
-2.4830952 -0.55220771 2.2418797
-2.4515052 -0.72656065 2.2186167
-4.8736868 -1.4891474 -0.28857622
-4.8878341 -1.4929414 -0.30301943
-4.8722696 -1.5004436 -0.29067454
-4.8668995 -1.489809 -0.2824004
-2.2544765 -1.5517757 2.153152
-2.2325282 -1.558423 2.1717541
-2.232532 -1.551825 2.173754
0 0 0 1 0 0 0 1 0 0 0 1 0 0 0 0 0 516 1 0 0
