ply
format ascii 1.0
comment PCL generated
element vertex 552
property float x
property float y
property float z
element camera 1
property float view_px
property float view_py
property float view_pz
property float x_axisx
property float x_axisy
property float x_axisz
property float y_axisx
property float y_axisy
property float y_axisz
property float z_axisx
property float z_axisy
property float z_axisz
property float focal
property float scalex
property float scaley
property float centerx
property float centery
property int viewportx
property int viewporty
property float k1
property float k2
end_header
-5.2913566 -1.4799378 -2.9086826
-5.2934818 -1.4398658 -2.9258659
-5.2886958 -1.3176956 -2.7914984
-5.2868328 -1.4783587 -2.8329792
-5.2777801 -1.5255785 -2.704179
-5.2868319 -1.4788618 -2.8331912
-5.2881775 -1.4946705 -2.8626235
-5.2899861 -1.5196875 -2.9038694
-5.4012399 0.87431461 -3.6698103
-5.4027729 0.94514281 -3.6633155
-5.4036746 0.96766037 -3.6681209
-5.4046741 1.0051317 -3.6678119
-5.4049053 1.0250819 -3.6626568
-5.4059701 1.0752113 -3.6577294
-5.4070282 1.0640876 -3.6802833
-5.4062605 1.0342746 -3.6809845
-5.4047413 0.99425453 -3.6738243
-5.4035258 0.95539123 -3.6711822
-5.2225966 1.4174635 -0.46368867
-5.2227912 1.4229712 -0.46443301
-5.2251663 1.4173894 -0.50631499
-5.0172186 -1.5297643 1.6134018
-5.0188212 -1.5251937 1.5888931
-5.0173492 -1.5233171 1.614133
-5.0164065 -1.5254227 1.6288173
-5.0149369 -1.523967 1.6538345
-5.0140586 -1.5231533 1.6687592
-5.0126605 -1.5205352 1.6931187
-5.011457 -1.5206165 1.7130295
-5.0081735 -1.508912 1.77274
-5.0054226 -1.5206031 1.8130765
-5.0077653 -1.5219679 1.77362
-5.0101128 -1.5247431 1.7334614
-5.0112534 -1.5262233 1.7138786
-5.0136676 -1.5270051 1.6735095
-5.0139899 -1.5266558 1.6683186
-4.8204455 -1.5199635 4.8798232
-4.8227243 -1.5256807 4.8394709
-4.8250022 -1.5296524 4.799921
-4.8214517 -1.5123593 4.866569
-4.8200316 -1.5140432 4.889349
-4.816493 -1.5169041 4.9467211
-4.8156209 -1.5211414 4.9592719
-4.8178988 -1.5251129 4.9197221
-4.8367963 -1.5388834 4.6002445
-4.840045 -1.536868 4.5472999
-4.8423882 -1.5400703 4.5070143
-4.843967 -1.5409243 4.4804564
-4.8423162 -1.5435247 4.5066533
-4.8414874 -1.5435753 4.5203686
-4.8391423 -1.5421021 4.5599051
-4.8536839 -1.5378157 4.3207703
-4.8521876 -1.5331092 4.3476954
-4.8489261 -1.5356222 4.4006329
-4.8521051 -1.5384759 4.3466501
-4.8536177 -1.5411868 4.3203559
-4.8559628 -1.5435328 4.2804174
-5.1572323 -1.5307593 -0.7081306
-5.1571913 -1.5290164 -0.7066651
-5.153635 -1.5273626 -0.64696848
-5.1512876 -1.5250932 -0.60702652
-5.1494875 -1.5272403 -0.57815874
-5.1512189 -1.5285957 -0.60746706
-5.1532741 -1.5319732 -0.64306295
-5.1571884 -1.5305219 -0.70729864
-5.1712074 -1.5471389 -0.94717991
-5.1691251 -1.5358809 -0.90759003
-5.1715398 -1.5356519 -0.94751418
-5.1742764 -1.5266516 -0.98883164
-5.176374 -1.5321814 -1.0260941
-5.1836791 -1.532009 -1.1471174
-5.176106 -1.5426756 -1.0263757
-5.2945824 -1.1651306 -2.8203614
-5.2919674 -1.1728542 -2.7804902
-4.8343844 -1.5399086 4.6397676
-4.8329887 -1.5320415 4.6664481
-4.8344512 -1.5365375 4.6401825
-5.3434949 -0.93356848 -3.526901
-5.3488097 -0.79102874 -3.5507965
-5.3464422 -0.91444916 -3.5671461
-5.3460407 -0.93004751 -3.5675156
-5.3451052 -0.96559101 -3.568017
-5.3444452 -0.99363518 -3.5697114
-5.3443584 -1.0335042 -3.5862272
-5.3422327 -1.074008 -3.5692384
-5.3407116 -1.1141653 -3.5621099
-5.3393426 -1.1535928 -3.5571744
-5.3379726 -1.1935915 -3.5524807
-5.3372054 -1.2341003 -3.5580094
-5.3361373 -1.2740684 -3.5583062
-5.3347683 -1.3134959 -3.5533707
-5.3332472 -1.3535099 -3.5461817
-5.3314247 -1.3935547 -3.5340023
-5.3307385 -1.4141257 -3.5318968
-5.3299298 -1.3519136 -3.4904683
-5.3302622 -1.3402114 -3.4907093
-5.3314633 -1.2958187 -3.4906173
-5.3319254 -1.2329199 -3.4699502
-5.3319263 -1.2323455 -3.469707
-5.3256116 -1.1526239 -3.329109
-5.3183942 -1.1753324 -3.2196918
-5.315846 -1.1805578 -3.1798031
-5.3133645 -1.183285 -3.1398964
-5.3128023 -1.1814024 -3.1297266
-5.3086014 -1.1817477 -3.0602427
-5.3063211 -1.1764772 -3.0200708
-5.2994742 -1.164686 -2.9012496
-5.3102679 -1.1213 -3.0606453
-5.3124728 -1.0389822 -3.0601132
-5.3149014 -0.99825382 -3.0820229
-5.3160911 -0.99315715 -3.0994544
-5.3185716 -0.99093306 -3.1395726
-5.3212533 -0.9807111 -3.1794262
-5.323669 -0.9799791 -3.2191384
-5.3280668 -0.97230542 -3.2885902
-5.3302159 -0.98148048 -3.3283458
-5.3326983 -0.97816253 -3.3680074
-5.3353806 -0.96792501 -3.4078567
-5.3379297 -0.96211207 -3.4475012
-5.0727654 1.3398471 1.9851867
-5.0716763 1.3272939 1.9975851
-5.0706534 1.339678 2.0201206
-4.9762645 -1.529128 2.292604
-4.9810925 -1.5282044 2.212986
-4.9897423 -1.477765 2.0923104
-4.9874625 -1.4723201 2.1325545
-4.9850478 -1.4721342 2.172667
-4.982502 -1.4766871 2.2128215
-4.9801555 -1.4749653 2.2525012
-4.9778781 -1.4695106 2.2927105
-4.9723148 -1.4973111 2.3724124
-4.9663448 -1.5397871 2.452245
-4.9687576 -1.5396206 2.4123209
-4.9712377 -1.5369558 2.3724105
-4.9735861 -1.5386758 2.3327057
-5.2478709 -1.5627983 -2.2251244
-5.2424388 -1.5628121 -2.1350844
-5.2408934 -1.5539951 -2.1054931
-5.238749 -1.5427239 -2.0648632
-5.2350554 -1.5246458 -1.9954892
-5.2344518 -1.5246401 -1.9854816
-5.2291551 -1.5426486 -1.9057835
-5.2267404 -1.5428776 -1.8658593
-5.2243266 -1.5426035 -1.8257232
-5.2219782 -1.540837 -1.7859932
-5.2196302 -1.5385679 -1.7460513
-5.2172852 -1.5347912 -1.7054745
-5.2149372 -1.532522 -1.6655325
-5.2126575 -1.5272532 -1.6253623
-5.2101769 -1.5294775 -1.5852437
-5.2077608 -1.5307105 -1.5457423
-5.2053471 -1.5304384 -1.5056074
-5.2036705 -1.5251105 -1.4754167
-5.2052808 -1.5324335 -1.5054131
-5.2076912 -1.5347161 -1.5463949
-5.2101083 -1.53298 -1.5856842
-5.2125201 -1.5342581 -1.6262432
-5.2148724 -1.5340159 -1.6651275
-5.2458572 -1.5480378 -2.1850941
-5.2416949 -1.5243291 -2.105412
-5.239481 -1.5167503 -2.0653033
-5.2373385 -1.5044748 -2.0242505
-5.2346563 -1.5146968 -1.9843973
-5.2321081 -1.5199223 -1.9445084
-5.2295489 -1.5241952 -1.9040023
-5.2270613 -1.5228927 -1.8621825
-5.2220473 -1.5368316 -1.7853407
-5.2196345 -1.5360564 -1.7449936
-4.9037452 -1.5391171 3.4902952
-4.9014082 -1.5369071 3.5300336
-4.8989863 -1.5369515 3.5701568
-4.9013324 -1.5392835 3.5302188
-4.903748 -1.540084 3.4898138
-4.9060936 -1.5424159 3.4498761
-4.889338 -1.5385841 3.7293715
-4.8845792 -1.5364187 3.809233
-4.8822308 -1.5331197 3.8496518
-4.879818 -1.5332862 3.8895757
-4.877676 -1.5244262 3.9290733
-4.8802304 -1.5183537 3.8894603
-4.8825016 -1.5240934 3.8492255
-4.8849206 -1.5220835 3.8100297
-4.8872576 -1.5252919 3.7698452
-4.8894129 -1.5361533 3.729224
-4.8918152 -1.5349524 3.6899421
-4.894228 -1.5347861 3.6500182
-4.8965764 -1.5380849 3.6095996
-4.8942308 -1.535753 3.6495371
-5.0395551 1.3878551 2.5573559
-5.0424371 1.4055381 2.5175409
-5.0447888 1.4024305 2.4771595
-5.0495539 1.3995159 2.3968532
-5.0446596 1.3966312 2.476686
-5.0421791 1.3939393 2.5165949
-5.0395598 1.3870528 2.5569141
-5.3718653 1.3697238 -2.9596944
-5.376225 1.3511152 -3.0403483
-5.3786383 1.3506186 -3.0805776
-5.3803668 1.3496308 -3.1096795
-5.3827829 1.3500447 -3.149544
-5.3838778 1.3685994 -3.1593351
-5.3831854 1.3665061 -3.1488018
-5.3791742 1.3715045 -3.0800571
-5.3745427 1.3784494 -3.0001469
-5.3719268 1.3706801 -2.9602847
-5.3280478 1.3522868 -2.2411652
-5.3301239 1.3380134 -2.2820058
-5.3303242 1.3456376 -2.2818937
-5.3283076 1.3602226 -2.2418966
-5.3261604 1.3704555 -2.2016871
-5.3239493 1.3792176 -2.1610906
-5.3214617 1.3749027 -2.1217978
-5.3190479 1.3751411 -2.0816698
-5.314281 1.3765764 -2.0020051
-5.3189793 1.3721294 -2.0818944
-5.3213935 1.3718891 -2.1220214
-5.3260322 1.3670013 -2.2011175
-5.2854905 1.3803871 -1.5230073
-5.2825408 1.359998 -1.4832987
-5.2803936 1.3702314 -1.4430895
-5.2789822 1.4089715 -1.4022459
-5.2805185 1.420058 -1.4227158
-5.2817254 1.4199378 -1.4427795
-5.287291 1.4482248 -1.5222994
-5.2900391 1.4607325 -1.5622218
-5.2920027 1.4612138 -1.594559
-5.2924581 1.4619715 -1.6017644
-5.2948728 1.4619894 -1.6417902
-5.2983303 1.3837755 -1.7343407
-5.3000546 1.3854337 -1.7621748
-5.302474 1.3867373 -1.801692
-5.3050847 1.3929646 -1.8421651
-5.3073006 1.3857448 -1.8821508
-5.3097878 1.3900597 -1.9214433
-5.3111644 1.3852351 -1.9464372
-5.0409446 -1.496794 1.2349352
-5.035656 -1.5260894 1.3094059
-5.0327687 -1.5334382 1.3539624
-5.0305581 -1.5375445 1.3887607
-5.0341854 -1.581553 1.3088049
-5.0355425 -1.5819263 1.2861362
-5.0399742 -1.5349085 1.2338488
-5.0457115 -1.5121926 1.1489698
-5.0479927 -1.5169601 1.1090101
-5.0508118 -1.4997332 1.070038
-5.053144 -1.4922252 1.0347564
-5.0556388 -1.5002797 0.98976666
-5.0579848 -1.5035532 0.94940192
-5.0555558 -1.4914727 0.99510998
-5.0534935 -1.4895114 1.0301845
-5.0532093 -1.4884875 1.0353538
-5.0506625 -1.4936466 1.0752511
-5.0483165 -1.4910154 1.1153281
-5.0434341 -1.5054166 1.1897751
-5.2659826 -1.5595758 -2.5239224
-5.2662835 -1.5600483 -2.5291238
-5.2744341 -1.5585225 -2.6635509
-5.2747355 -1.5587459 -2.6686478
-5.2430754 1.4163122 -0.80368948
-5.2453561 1.4110775 -0.8438586
-5.2430072 1.4133008 -0.80391401
-5.2418008 1.408999 -0.78585523
-5.240591 1.4130259 -0.76398998
-5.2395201 1.4137666 -0.74589562
-5.2371054 1.4135375 -0.70597142
-5.235693 1.4099782 -0.6841625
-5.2322092 1.4105814 -0.62614077
-5.2345972 1.41502 -0.6637252
-5.2358303 1.4162593 -0.68361217
-5.238245 1.4160841 -0.72371423
-5.2406635 1.4171946 -0.76330769
-5.2412667 1.4171345 -0.77333957
-5.199492 -0.66778702 -1.0199662
-5.1969404 -0.67502087 -0.98092306
-5.1950321 -0.68914926 -0.95565391
-5.1935086 -0.7301684 -0.94887435
-5.1903138 -0.81021255 -0.93197405
-5.1881895 -0.84978163 -0.91457868
-5.1858993 -0.90681177 -0.90229899
-5.1852975 -0.92948341 -0.90253693
-5.1848969 -0.94428551 -0.90256464
-5.184896 -0.94478673 -0.90277535
-5.1889215 -0.97531205 -0.98325908
-5.1914721 -0.96864307 -1.02254
-5.1920738 -0.94609696 -1.022355
-5.1920748 -0.94559395 -1.0221429
-5.1964159 -0.78421193 -1.0214144
-5.1971202 -0.76818961 -1.0258759
-5.2000127 -0.68817401 -1.0377854
-4.9519401 -1.5400397 2.6909299
-4.949388 -1.5434501 2.731699
-4.947042 -1.5411181 2.7716365
-4.946506 -1.5386615 2.781631
-4.9471827 -1.5373274 2.7710114
-4.9510355 -1.5386188 2.7065656
-4.8751292 -1.5295894 3.9689701
-4.8727245 -1.5288248 4.0091801
-4.8715763 -1.5285943 4.028316
-4.8680234 -1.533011 4.0852208
-4.865284 -1.5358496 4.1293583
-4.8632002 -1.5430751 4.1606431
-4.8607206 -1.5457261 4.2005548
-4.8584418 -1.540009 4.2409067
-4.8608546 -1.5398564 4.2009821
-4.8750591 -1.5311208 3.9694376
-4.8726463 -1.5312871 4.0093608
-4.8714375 -1.5345471 4.0279355
-4.8706393 -1.5351222 4.0409074
-4.8689446 -1.5392096 4.0671573
-4.8676224 -1.5400819 4.0886869
-4.8651519 -1.5427427 4.1284418
-4.9231148 -1.5352874 3.1709173
-4.9255948 -1.5326227 3.131007
-4.9279475 -1.5351551 3.0908649
-4.9302864 -1.5372865 3.0511317
-4.9279432 -1.5359216 3.0905881
-4.9255977 -1.5335896 3.1305256
-4.8550959 -0.79311329 4.6328182
-4.8526816 -0.79312634 4.6728282
-4.8478842 -0.79247099 4.7526555
-4.8443694 -0.83373612 4.7923365
-4.8410859 -0.86658585 4.8319674
-4.8374066 -0.91370833 4.8717384
-4.836339 -0.95368135 4.8714299
-4.833137 -1.0735407 4.8705244
-4.8390312 -1.0336611 4.7907705
-4.8436613 -1.0407116 4.7108412
-4.8486919 -1.0327424 4.6310387
-4.8521776 -0.99200928 4.5916047
-4.8543105 -0.91236198 4.5921159
-4.8599291 -0.79213101 4.5531392
-4.8581161 -0.79255915 4.5829973
-5.2903247 1.3818364 -1.6024992
-5.2926059 1.3766017 -1.6426685
-5.2945523 1.3823175 -1.6723664
-5.2951565 1.3823862 -1.6823473
-5.2975755 1.3836896 -1.7218646
-5.1037226 -0.78303289 0.51574153
-5.1058364 -0.78606415 0.47933167
-5.1086202 -0.77907258 0.43633366
-5.1106491 -0.77638829 0.40391296
-5.1111016 -0.77643949 0.39638749
-5.1135831 -0.77361816 0.35652068
-5.1159306 -0.77588749 0.31657875
-5.117589 -0.77673435 0.28870806
-5.1183434 -0.77666277 0.27623174
-5.119173 -0.82756263 0.23955485
-5.1197758 -0.84996676 0.21947065
-5.1185689 -0.84957588 0.23965529
-5.1137433 -0.84990036 0.31950408
-5.1125374 -0.85045356 0.33924386
-5.1099725 -0.84968191 0.38210839
-5.0977244 -0.90880841 0.55851626
-5.093349 -0.92965901 0.62166584
-5.0922928 -0.92931694 0.63932741
-5.0964231 -0.8749218 0.59535742
-5.1010771 -0.78294617 0.55963892
-5.1013765 -0.77975941 0.55610627
-5.0532336 -0.77460945 1.3565159
-5.0518184 -0.7346555 1.3979744
-5.0499907 -0.77391285 1.4105954
-5.0496812 -0.78216904 1.411999
-5.049367 -0.82206953 1.3992393
-5.0485978 -0.85345572 1.3978521
-5.0469875 -0.9128263 1.3978047
-5.0453773 -0.97225595 1.3977296
-5.043231 -1.0524396 1.3971846
-5.0445666 -1.1028965 1.3523189
-5.0463457 -1.17223 1.2915934
-5.0468483 -1.1871594 1.2765404
-5.0485921 -1.2133969 1.2358131
-5.049799 -1.2137878 1.2156285
-5.0510058 -1.2141787 1.1954437
-5.0520611 -1.2136357 1.1781993
-5.0562701 -1.1164649 1.152191
-5.0521436 -1.1019047 1.2271551
-5.0497613 -1.089671 1.2721584
-5.045795 -1.0525622 1.3546258
-5.0523515 -0.89428508 1.3172303
-5.0534263 -0.86293584 1.3135357
-5.0534248 -0.85454732 1.317336
-5.0532174 -0.78034592 1.3542029
-5.1382966 -1.1121835 -0.20567244
-5.1398335 -1.0545354 -0.20518583
-5.1434989 -0.90727943 -0.19961593
-5.1327748 -0.94790232 -0.040135242
-5.131434 -0.90714669 0.00045089424
-5.1337104 -0.83151573 -0.0032221973
-5.1355143 -0.764063 -0.002744019
-5.137929 -0.763834 -0.042668216
-5.1366649 -0.84883088 -0.060000084
-5.1446457 -0.87384546 -0.20356712
-5.1499348 -0.76518756 -0.24230692
-5.1523495 -0.76495868 -0.28223112
-5.1601872 -0.82291567 -0.43827009
-5.1641455 -0.76735634 -0.47885585
-5.1644893 -0.7613157 -0.48183447
-5.1651273 -0.77122283 -0.4968769
-5.1683645 -0.7874518 -0.55785346
-5.1681952 -0.88344693 -0.59828585
-5.1640077 -0.97068214 -0.56816107
-5.1580811 -1.0926131 -0.52483636
-5.1579471 -1.0978606 -0.52497751
-5.155695 -1.1278065 -0.50113153
-5.1541309 -1.1495486 -0.48500246
-5.1511497 -1.1651813 -0.44262248
-5.1397696 -1.2540828 -0.29401615
-5.1369224 -1.2858429 -0.26111814
-5.2693253 -1.4810228 -2.5439515
-5.2686248 -1.3196927 -2.4596682
-5.2640319 -1.4969599 -2.4633813
-5.2619219 -1.5195873 -2.4385881
-5.2607489 -1.5296662 -2.4236875
-5.2579336 -1.5448847 -2.3838692
-5.2630949 -1.5329397 -2.4640522
-4.9060464 -0.91466361 3.7334285
-4.9112239 -0.86100101 3.6717718
-4.9133525 -0.82066125 3.6546578
-4.9116778 -0.79363489 3.6945903
-4.9045763 -0.79101241 3.8135004
-4.9022975 -0.78617495 3.8534517
-4.8999505 -0.7825321 3.8940012
-4.8975368 -0.78174317 3.9343703
-4.8951244 -0.78225803 3.9741282
-4.8915257 -0.78159797 4.0340891
-4.8902988 -0.78210247 4.0541997
-4.8845191 -0.81976318 4.1330504
-4.8795853 -0.8694613 4.1924481
-4.8747602 -0.86900932 4.2726398
-4.8711386 -0.91257077 4.3130612
-4.868639 -0.95090723 4.3372221
-4.8666644 -0.99127364 4.351778
-4.8623981 -1.1505085 4.3507776
-4.8672233 -1.1509007 4.270607
-4.8682833 -1.1502526 4.2533321
-4.8727856 -1.1233333 4.1908212
-4.8750725 -1.1271217 4.1511989
-4.8774209 -1.1293679 4.1112552
-4.8811765 -1.1223536 4.0521593
-4.8826518 -1.113874 4.0315208
-4.8841252 -1.1019703 4.0124531
-4.8870749 -1.0820612 3.9725246
-4.8901772 -1.0638015 3.9293218
-4.8906274 -1.0618752 3.9227257
-4.9007492 -1.0222524 3.772778
-4.9008837 -1.0172557 3.7728047
-5.3094478 1.3755119 -1.9223603
-5.3072319 1.3827641 -1.8823618
-5.304883 1.3849547 -1.8424298
-5.3024445 1.3814566 -1.8035812
-5.2999196 1.3799241 -1.7624198
-5.2990804 1.3823195 -1.7474278
-5.0213008 -1.5234709 1.5485638
-5.023118 -1.5344412 1.5134932
-5.0256653 -1.5296364 1.473429
-5.0259943 -1.5290136 1.4682572
-5.0284123 -1.5267763 1.4291786
-5.0281439 -1.5260315 1.4339631
-5.0259976 -1.5270052 1.4691027
-5.0235167 -1.5297322 1.5090091
-5.0771694 -1.5057138 0.63039571
-5.0747566 -1.5049386 0.67074275
-5.0771046 -1.507208 0.63080084
-5.0795174 -1.5079832 0.59045386
-5.0816965 -1.5068612 0.55483156
-5.0819335 -1.5067501 0.55095237
-5.0844131 -1.5050271 0.5106231
-5.0864515 -1.5062026 0.47630385
-5.0889349 -1.5063744 0.43505836
-5.0916586 -1.5033361 0.39127332
-5.0892439 -1.5035648 0.43119752
-5.0868964 -1.5012956 0.4711394
-5.084415 -1.5040228 0.51104587
-5.0816941 -1.5049729 0.55572128
-5.0793509 -1.5045252 0.59476948
-5.1057568 -1.5077367 0.15557405
-5.103344 -1.507899 0.19549844
-5.1009316 -1.5080612 0.23542282
-5.0989022 -1.5026492 0.27150068
-5.0961728 -1.5058875 0.31528515
-5.0937605 -1.5060496 0.35520953
-5.1583433 -0.9262318 -0.45424235
-5.1470766 -1.0540369 -0.32503769
-5.1496768 -0.86488867 -0.28293955
-5.0940714 -1.5041113 0.35092631
-5.0965543 -1.5003799 0.31144261
-5.0989671 -1.5011551 0.27109557
-5.101315 -1.5034244 0.2311537
-5.1037312 -1.5021913 0.1916523
-5.106144 -1.5029665 0.15130529
-5.115869 -1.4995525 -0.0083738118
-5.1179547 -1.5019286 -0.044020824
-5.1159377 -1.4960501 -0.0079332814
-4.9980483 -1.5245912 1.9335284
-4.9980469 -1.5251319 1.9333022
-5.0005269 -1.5224671 1.8933918
-5.0029397 -1.5223007 1.8534679
-5.000731 -1.5159391 1.8929518
-4.9983845 -1.5130476 1.9331502
-5.2496424 -1.1340036 -2.0613427
-5.2443624 -1.2047982 -2.0056984
-5.2449508 -1.2221859 -2.0232892
-5.2521319 -1.2214857 -2.1420217
-5.2569613 -1.221028 -2.2218699
-5.2614427 -1.1458647 -2.2623031
-5.2691007 -1.2173849 -2.4214735
-5.2684999 -1.2395563 -2.4215014
-4.9399405 -1.5375878 2.8909545
-4.9423566 -1.5366976 2.851305
-4.9207721 -1.5339224 3.2103739
-4.9207082 -1.5346847 3.2110832
-5.2969284 -1.1684041 -2.8607259
-5.1439328 -1.5254836 -0.48527825
-5.141696 -1.5235107 -0.44731206
-5.1440401 -1.5277885 -0.48809958
-5.146102 -1.5290174 -0.52283138
-5.1463914 -1.5280495 -0.52719587
-5.1485806 -1.5254128 -0.56229728
-5.1464548 -1.5275595 -0.52802372
-5.1461701 -1.5274634 -0.52326262
-5.1440439 -1.52578 -0.48725396
-5.1210008 1.3994236 1.2123997
-5.1236148 1.4068799 1.1724255
-5.1252303 1.4015293 1.1432265
-5.1232862 1.3963757 1.1731368
-5.1909227 -1.5313222 -1.26689
-5.1932054 -1.5350854 -1.3064269
-5.1955514 -1.538359 -1.3467916
-5.1976299 -1.5281943 -1.3766639
-5.1933417 -1.5285817 -1.3057566
-5.1928048 -1.5261408 -1.2957578
-5.1909943 -1.5263124 -1.2658147
-5.1885128 -1.5290396 -1.2259082
-5.1884413 -1.5340493 -1.2269835
-5.2549367 -1.1175636 -2.1417005
-5.2558594 -1.1224599 -2.1592028
-5.259233 -1.1360874 -2.2212679
-5.2615118 -1.1418593 -2.2616506
-4.937458 -1.5392855 2.9313459
-4.9398708 -1.5391192 2.891422
-4.9422836 -1.5389528 2.8514981
-5.2969937 -1.1669101 -2.861131
-5.131866 1.4011123 1.0330369
-5.1307292 1.4044991 1.0534127
-5.1283088 1.4023025 1.0925432
-5.1306634 1.4024358 1.0535699
-5.2757511 -1.201822 -2.524713
-5.2737269 -1.225929 -2.5020099
-5.2736535 -1.137212 -2.4608309
-5.2739859 -1.125725 -2.4611652
-5.2758641 -1.1464863 -2.5016537
-5.2763677 -1.161893 -2.5169437
0 0 0 1 0 0 0 1 0 0 0 1 0 0 0 0 0 552 1 0 0
