ply
format ascii 1.0
comment PCL generated
element vertex 588
property float x
property float y
property float z
element camera 1
property float view_px
property float view_py
property float view_pz
property float x_axisx
property float x_axisy
property float x_axisz
property float y_axisx
property float y_axisy
property float y_axisz
property float z_axisx
property float z_axisy
property float z_axisz
property float focal
property float scalex
property float scaley
property float centerx
property float centery
property int viewportx
property int viewporty
property float k1
property float k2
end_header
-8.7178288 1.2073871 6.1232538
-8.7042418 1.2446316 6.1273499
-8.6189051 1.2440945 6.0040879
-8.5341063 1.3988438 5.9802833
-8.4884453 1.4727449 5.9614744
-8.4703455 1.5345664 5.9746895
-8.4068842 1.4833155 5.8507099
-8.3342533 1.4819384 5.7452159
-8.3069868 1.3631673 5.6304636
-8.3696365 1.4403079 5.7697277
-8.4240322 1.4717366 5.868053
-8.5042286 1.319325 5.8867145
-8.6029797 1.2164315 5.9635687
-8.6071777 1.2058827 5.962913
-8.7040396 1.1358708 6.0579438
-8.7100697 1.136555 6.0670638
-9.2595263 -1.4000701 5.2465305
-9.2625446 -1.5046602 5.184412
-9.2271423 -1.5657487 5.0945969
-9.2124186 -1.5643507 5.0742779
-9.2265892 -1.5520835 5.1024857
-9.2503662 -1.4870653 5.1780515
-5.3620577 -0.99012351 -0.10694927
-5.278635 -0.88881707 -0.16273499
-5.2468047 -0.7691747 -0.1325528
-5.2153778 -0.77139843 -0.17923415
-5.1324821 -0.74381518 -0.28111029
-5.1159344 -0.74901438 -0.30824983
-5.1005254 -0.7569207 -0.33546972
-5.0651684 -0.85898668 -0.45125985
-4.9762545 -0.80553114 -0.54536295
-4.9803486 -0.79507911 -0.53282356
-5.4037766 -0.85495424 0.039040864
-5.3571877 -0.74542761 0.041535735
-5.4252038 -0.77003521 0.1238699
-5.5299759 -0.77595675 0.27102265
-5.55266 -0.75533044 0.31680471
-5.5824819 -0.77800405 0.3453525
-5.5996475 -0.79090035 0.36188239
-5.6454372 -0.80402327 0.41949952
-5.692924 -0.79610282 0.49293387
-5.7234993 -0.73073667 0.5785141
-5.7336631 -0.71653426 0.60217988
-5.760994 -0.74303234 0.62470853
-5.8033066 -0.77235568 0.66702241
-5.8579335 -0.76127958 0.75274676
-5.8988476 -0.78148299 0.798841
-5.8933434 -0.91672516 0.70496851
-5.8821325 -0.95418048 0.66501844
-5.840313 -1.0227727 0.56119144
-5.8202753 -0.99236286 0.5516535
-5.7698402 -0.95991981 0.49962276
-5.742733 -0.94636244 0.46919239
-5.6900744 -0.90692151 0.41840601
-5.6395197 -0.9115026 0.34267458
-5.6034164 -0.91578573 0.2879492
-5.5450273 -0.9493047 0.18254298
-5.5287824 -0.94933259 0.15912604
-5.5143528 -0.93774867 0.14570272
-5.4878106 -0.88524437 0.14083624
-4.7902436 1.3938727 0.58438766
-4.8224177 1.4051324 0.63788688
-4.9032226 1.3972901 0.74929631
-4.9206104 1.3984975 0.77510935
-4.9841208 1.4007077 0.86799586
-5.018888 1.4169134 0.9283731
-5.0304699 1.4228017 0.94879794
-5.0479155 1.4210644 0.9728229
-5.0765753 1.4176198 1.011916
-5.1105852 1.4185995 1.0615273
-5.0944982 1.4129697 1.0347776
-5.0780749 1.4046021 1.0058037
-5.0629749 1.3994987 0.98081023
-5.04949 1.385024 0.95218766
-5.0264378 1.3830391 0.91772169
-4.9796734 1.3842689 0.85114259
-4.9642305 1.3764178 0.82390934
-4.9358606 1.383818 0.78774726
-4.8236251 1.3894498 0.62966037
-1.8128588 0.31940991 -4.3871021
-1.7660232 0.30931932 -4.4609776
-1.7895381 0.15431333 -4.5256095
-1.7867284 0.12999916 -4.5451078
-1.7845426 0.11108804 -4.5602741
-1.7806036 0.05785954 -4.5997734
-1.792814 0.015158534 -4.6093216
-1.8022499 -0.030119568 -4.6245031
-1.8241796 -0.10156077 -4.6383147
-1.7911432 -0.17457053 -4.7322979
-1.8459377 -0.26311105 -4.7096367
-1.8730094 -0.30627483 -4.6980715
-1.9010265 -0.40144289 -4.7181931
-1.8777251 -0.48794279 -4.806726
-1.8666768 -0.56438988 -4.8712211
-1.9162929 -0.59649211 -4.8201532
-2.0015345 -0.75570637 -4.7985482
-2.0054827 -0.7642442 -4.7982864
-2.0794172 -0.80493355 -4.7176471
-2.1202564 -0.84951711 -4.6871538
-2.1443481 -0.92220438 -4.6986427
-2.2016807 -0.81292868 -4.546617
-2.254998 -0.86370254 -4.5020833
-2.1908464 -0.73117942 -4.5102725
-2.1684959 -0.72765136 -4.540225
-2.1318676 -0.71222132 -4.5831795
-2.0978458 -0.70564365 -4.628005
-2.0066235 -0.72297305 -4.7704163
-1.9206913 -0.56628621 -4.7946224
-1.9718649 -0.46598747 -4.6571727
-1.9872847 -0.45817137 -4.6299949
-1.9780834 -0.41511637 -4.6158881
-1.9647493 -0.35497376 -4.5968752
-1.9564874 -0.32081056 -4.5870657
-1.9443798 -0.25303406 -4.5614347
-1.9287417 -0.19991434 -4.5502033
-1.9172363 -0.1638822 -4.5438781
-1.8974693 -0.093686998 -4.5277433
-1.8873284 -0.04174003 -4.5093393
-1.8653986 0.029701173 -4.4955273
-1.8461256 0.10483092 -4.4755449
-1.8448336 0.1170572 -4.4696364
-1.8487484 0.16090542 -4.4361329
-1.8909671 0.2232731 -4.3356862
-1.880543 0.25868231 -4.3281994
-1.8779371 0.26753455 -4.3263273
-1.8796473 0.34021789 -4.2776752
-1.8681417 0.37625003 -4.2713504
-1.8417103 0.40940052 -4.2883558
-1.8408008 0.39367968 -4.2996564
-2.3686748 1.3605584 -2.9248607
-2.3396754 1.3383875 -2.9807212
-2.3038466 1.3628516 -3.0167835
-2.1746795 1.3540783 -3.2084134
-2.1414504 1.3696911 -3.2463558
-2.0779221 1.3675587 -3.3392181
-2.0497992 1.372394 -3.3766541
-2.0151258 1.3811846 -3.4210124
-1.9751542 1.3898078 -3.4731083
-1.9930689 1.3775756 -3.4550772
-2.0183079 1.3589748 -3.4305425
-2.0282481 1.3553243 -3.4185443
-2.0690529 1.355787 -3.3594742
-2.0837457 1.3546716 -3.3390193
-2.1579046 1.3507378 -3.234699
-1.6622524 1.2040201 -4.041883
-1.7387242 1.083231 -4.0084915
-1.7953115 1.0337484 -3.958427
-1.8421328 0.95735919 -3.9395289
-1.851593 0.92146146 -3.9487147
-1.9247804 0.81935394 -3.9081817
-1.9692209 0.72024035 -3.9071536
-1.9390295 0.82584488 -3.883532
-1.9322252 0.86543107 -3.8681765
-1.9170997 0.89728594 -3.8697205
-1.8962514 0.96810436 -3.8547468
-1.8550954 1.0485362 -3.862916
-1.8102016 1.1259027 -3.8784165
-1.7460818 1.2122597 -3.9158978
-1.7332604 1.2511376 -3.9096599
-1.7698712 1.3683536 -3.7824359
-1.7400436 1.3719709 -3.8231015
-1.730665 1.3742433 -3.8351665
-1.7038574 1.3860145 -3.8663006
-1.6544156 1.3847762 -3.9383044
-1.5914235 1.4043713 -4.0165873
-1.6042209 1.3561128 -4.028821
-5.1339569 -0.80914795 -0.32050335
-5.1161356 -0.80994737 -0.34668159
-4.7587204 1.3804018 0.53042018
-4.7401247 1.3948772 0.51283371
-4.6444407 1.3814071 0.36644819
-4.5895677 1.3833417 0.28863758
-4.5545292 1.4202068 0.26159444
-4.4864655 1.4334751 0.17198592
-4.4555926 1.4177929 0.11755025
-4.3992367 1.3912593 0.019512594
-4.3883538 1.3679396 -0.010983229
-4.3691077 1.3846262 -0.028101504
-4.3505125 1.3991014 -0.045687675
-4.6420255 1.4127725 0.38290131
-4.605392 1.4282515 0.33997023
-4.565484 1.4624006 0.30418745
-4.5635548 1.4614204 0.30078521
-4.5314741 1.4614208 0.25457618
-4.5250349 1.4606916 0.24483776
-4.4942336 1.4638834 0.20249903
-4.4634104 1.474689 0.16496754
-4.433188 1.4567958 0.11006361
-4.4236984 1.4403139 0.085921109
-4.42026 1.4288495 0.073682547
-3.3701503 1.4133574 -1.4487619
-3.3867822 1.4055351 -1.429776
-3.4193964 1.3921026 -1.3913341
-3.3571713 1.3855186 -1.4851482
-3.3387127 1.4111713 -1.4954343
-2.9552422 -1.4441261 -3.862287
-2.9687345 -1.4581316 -3.8517528
-3.0098474 -1.5001976 -3.8192649
-3.0518954 -1.5207053 -3.7717304
-3.0230539 -1.5166727 -3.8107119
-3.005043 -1.5094677 -3.8320761
-2.9559312 -1.4539609 -3.8675447
-8.3671541 -0.77244633 4.3599834
-8.3169785 -0.77129555 4.2884398
-8.2842054 -0.7689172 4.2427454
-8.2668972 -0.75868762 4.2243147
-8.2627468 -0.75951749 4.2178087
-8.2132359 -0.76063627 4.145781
-8.1592827 -0.73484159 4.0844574
-8.1145325 -0.73694289 4.0186639
-8.0802479 -0.74466312 3.9643731
-8.0532236 -0.7736553 3.907023
-8.0884848 -0.79628217 3.9434352
-8.1774502 -0.89941859 4.0060406
-8.1903563 -0.91314638 4.0159078
-8.2385731 -0.90761149 4.0888767
-8.2706871 -0.90774095 4.1350517
-8.3929129 -0.96954709 4.2718325
-8.4098473 -1.0360312 4.2539754
-8.4163837 -1.0637944 4.2457471
-8.4302158 -1.0865628 4.2512035
-8.4532604 -1.1281016 4.2579999
-8.4482365 -1.2504168 4.1730328
-8.4650469 -1.2891963 4.1726036
-8.4925661 -1.3567846 4.1692924
-8.5087214 -1.3891603 4.1719885
-8.5209332 -1.4425695 4.1556382
-8.4874449 -1.5357784 4.0481682
-8.439229 -1.5413129 3.9751997
-8.3769436 -1.5476785 3.8814375
-8.4046154 -1.5208944 3.9383171
-8.4386721 -1.5276476 3.9830811
-7.5819607 -1.0201578 3.071558
-7.5894227 -1.0569615 3.0589182
-7.6341286 -1.0902524 3.1021576
-7.6817894 -1.1342477 3.1428511
-7.7035208 -1.1264262 3.1791239
-7.7219486 -1.1277411 3.2048326
-7.7893243 -1.1504972 3.2874203
-7.81707 -1.1769688 3.3105638
-7.8276949 -1.1715567 3.3293076
-7.8738999 -1.1860715 3.3866377
-7.9434724 -1.1671038 3.4989049
-7.9992142 -1.2440206 3.5303171
-8.0688477 -1.184274 3.6685865
-8.0688019 -1.1603395 3.6837306
-8.0526466 -1.1279635 3.6810346
-8.0665102 -1.1813028 3.6671083
-7.4906793 -0.83509296 3.0576801
-7.499598 -0.79945779 3.0931723
-7.5327039 -0.74198973 3.1773789
-7.5339565 -0.71597373 3.1957154
-7.5387249 -0.70783049 3.2077589
-7.546608 -0.69549185 3.2269545
-7.5676622 -0.7026031 3.252763
-7.641613 -0.74358946 3.3332369
-7.6689768 -0.72711325 3.3831227
-7.683136 -0.71482521 3.4113269
-7.7145128 -0.72420418 3.450562
-7.7319098 -0.72295588 3.4764142
-7.7390108 -0.73202777 3.4808774
-7.7776203 -0.76945293 3.5127094
-7.8263941 -0.77758366 3.5777962
-7.858418 -0.78917062 3.6165612
-7.8758149 -0.78792238 3.6424131
-7.9621696 -0.82441807 3.7436085
-7.9766893 -0.80376637 3.7776458
-8.0075979 -0.78802216 3.8321731
-7.9709516 -0.7724368 3.7892907
-7.9022813 -0.74526465 3.7076442
-7.8573027 -0.76183945 3.6323235
-5.3659558 -1.1725904 -0.21728885
-5.3625002 -1.1852152 -0.23028964
-5.3530874 -1.2320936 -0.27363843
-5.333436 -1.3425457 -0.37213552
-5.337976 -1.5006095 -0.46604276
-5.3392348 -1.5164077 -0.47426867
-5.3572044 -1.5287187 -0.45620883
-5.3751736 -1.5410295 -0.43814886
-5.4040408 -1.5185888 -0.38230729
-5.3794575 -1.4822894 -0.39464962
-5.3488407 -1.1388168 -0.22047931
-5.3518987 -1.0134792 -0.13642466
-5.1984816 1.4154136 1.1861107
-5.2627478 1.4266884 1.2858461
-5.2954779 1.4244722 1.3315829
-5.3755331 1.415561 1.4412327
-5.4021263 1.3890826 1.4627116
-5.3443313 1.3831985 1.3757232
-5.2960215 1.4109753 1.3237886
-5.2484994 1.4031297 1.2503508
-5.2016277 1.3930732 1.1764454
-5.1756964 1.3834969 1.133008
-5.1849909 1.4009299 1.157474
-6.2367382 1.3866167 2.6633365
-6.1814437 1.4168537 2.6029043
-6.1531906 1.3922669 2.5465832
-6.0902281 1.3881345 2.4532647
-6.0452652 1.3600844 2.3706741
-6.0984406 1.3608494 2.4477556
-6.127521 1.3588495 2.4883723
-6.1570644 1.3675385 2.5364494
-6.2239032 1.3699081 2.6342311
-6.2714477 1.3661619 2.7003343
-6.2894483 1.3537271 2.7183607
-6.3215756 1.3535855 2.7645473
-8.464179 -0.77516532 4.4980116
-8.47229 -0.80242753 4.4923706
-8.4546623 -0.80900025 4.4628029
-8.4394979 -0.88768518 4.3909569
-8.4336872 -1.0108078 4.3043437
-8.4593525 -1.0502505 4.3162479
-8.4615211 -1.0694356 4.3071785
-8.4697447 -1.1653855 4.2580509
-8.4763565 -1.2038114 4.2431555
-8.5409679 -1.3295755 4.2563024
-8.6305332 -1.4768094 4.291748
-8.6415024 -1.4776525 4.3070135
-8.6619854 -1.4791391 4.3355727
-8.6684761 -1.4829751 4.342484
-8.7162104 -1.5246781 4.3847408
-8.7804623 -1.5250187 4.4770746
-8.8519421 -1.5648803 4.5547037
-8.8010101 -1.5538932 4.4883223
-8.7726707 -1.5845582 4.4280138
-8.7349157 -1.5636789 4.3868995
-8.6929455 -1.5783329 4.317132
-8.655694 -1.5743784 4.2659883
-8.5873604 -1.5662196 4.1727438
-8.5426035 -1.5774466 4.10114
-8.5278864 -1.576069 4.0808163
-8.4501028 -0.77597541 4.477221
-8.4227142 -0.78480852 4.4321566
-8.4005728 -0.77703238 4.4052057
-3.5706592 -1.1520129 -2.7901947
-3.5216956 -1.1220343 -2.8416717
-3.4716702 -1.1097698 -2.9059358
-3.4240596 -1.1288707 -2.9866531
-3.3913288 -1.1266589 -3.0323937
-3.341954 -1.1166055 -3.0971255
-3.3284686 -1.1310803 -3.1257484
-3.281045 -1.1276608 -3.1918855
-3.3471076 -1.1607832 -3.1177762
-3.3734651 -1.1865654 -3.0961947
-3.3787618 -1.192995 -3.0926509
-3.4526794 -1.2261642 -3.0072572
-3.502322 -1.2858677 -2.9736915
-3.5129783 -1.2957046 -2.9645932
-3.5390897 -1.2794505 -2.9166524
-3.5415196 -1.2735069 -2.9093754
-3.5695515 -1.2268432 -2.8393438
-3.5765417 -1.1994275 -2.8118527
-7.5171542 -0.9123292 3.0467329
-7.563798 -0.97810328 3.0721209
-7.8797703 -1.4673145 3.2163687
-7.8230581 -1.5418994 3.0872812
-7.7716947 -1.5249367 3.024076
-7.7154727 -1.5275748 2.9414165
-7.6598983 -1.532421 2.8582864
-7.7099667 -1.5449675 2.9224327
-7.7753997 -1.5611 3.0064316
-7.8236156 -1.555565 3.0794001
-7.8751111 -1.5915021 3.1307383
-7.8925734 -1.5933088 3.1547432
-7.9257846 -1.575825 3.2136917
-7.9447632 -1.5534687 3.2552354
-8.033041 -1.5620104 3.3769643
-8.1037512 -1.5752234 3.4704206
-8.0452499 -1.552224 3.4007704
-8.0719328 -1.4049273 3.5328097
-8.1404066 -1.4461657 3.6052344
-8.1990051 -1.4485816 3.6881053
-8.1381569 -1.4498498 3.5996523
-4.9603052 -0.9892447 -0.68508375
-4.9596639 -0.99620461 -0.69043005
-4.901886 -0.95117658 -0.74503982
-4.9113226 -0.94092357 -0.72493219
-4.955111 -0.98072612 -0.68715203
-4.0294647 -1.5145364 -2.3596992
-4.0042167 -1.5371543 -2.4104407
-4.0337882 -1.5170497 -2.3550687
-4.0665193 -1.5192614 -2.3093276
-5.7522445 1.3631203 1.9505306
-5.7422905 1.3554964 1.9313476
-5.6873446 1.3656106 1.8586299
-5.702117 1.3756965 1.8863177
-5.717535 1.3835747 1.9135327
-9.1862955 -0.95048332 5.4267521
-9.1615982 -0.90540457 5.4198236
-9.1229134 -0.7690779 5.4507351
-9.112052 -0.68511635 5.4884467
-9.1471195 -0.74727893 5.4994555
-9.1590624 -0.8318795 5.4628959
-9.1661673 -0.84856153 5.4625278
-8.9160786 -1.5499874 4.6565504
-8.8987694 -1.539758 4.6381197
-6.7350416 -1.5141361 1.5377232
-6.7882986 -1.5488594 1.59237
-6.8345265 -1.5251408 1.6740302
-6.9018922 -1.5475388 1.7568313
-6.9352708 -1.5519435 1.8021114
-7.0007267 -1.556334 1.8936056
-7.087328 -1.5420338 2.0274353
-7.1020851 -1.5319153 2.0551224
-7.1534305 -1.5486211 2.1184649
-7.1990051 -1.5226849 2.2005935
-7.1521721 -1.5328238 2.1266909
-7.1174941 -1.5240065 2.0823431
-7.0854182 -1.5240271 2.0361276
-7.0026484 -1.5095513 1.9261029
-6.9358945 -1.5007545 1.8355399
-6.9050775 -1.5165722 1.7810986
-6.8530817 -1.4976571 1.7182231
-6.7825284 -1.5062157 1.6111574
-5.2404776 -0.94061053 -0.25061136
-5.3432345 -0.99927521 -0.13987857
-5.3295708 -1.122087 -0.2376048
-5.3149543 -1.1512897 -0.27721643
-5.2617984 -1.2192541 -0.39697361
-5.205308 -1.1802533 -0.45355916
-5.2495255 -1.218431 -0.4141289
-4.8317022 -1.5287132 -1.2131492
-4.8650837 -1.5331362 -1.1678762
-4.8823786 -1.5431892 -1.1493533
-4.8792195 -1.5208727 -1.1397219
-5.2084222 -0.8926326 -0.26629561
-5.2222848 -0.91535878 -0.26076949
-3.4508336 1.3942885 -1.344662
-3.5073323 1.4319761 -1.2393303
-3.5231135 1.4118044 -1.2294176
-3.529814 1.4042443 -1.2245702
-5.8473353 1.3785937 2.0973344
-5.8174543 1.3939028 2.0640218
-5.7991443 1.3730646 2.0244052
-2.2722969 -0.87367022 -4.4835
-2.3242698 -0.89242864 -4.420558
-2.3389623 -0.89354408 -4.4001031
-2.4216316 -1.0051724 -4.351963
-2.436481 -1.0179919 -4.3387203
-2.5138493 -1.002854 -4.2176576
-2.5299203 -0.99725103 -4.1909475
-2.5483761 -0.99669707 -4.1640115
-2.506182 -0.95400804 -4.1976609
-2.4437096 -0.91098499 -4.2603064
-2.4224737 -0.86934608 -4.2644343
-2.3806615 -0.85460436 -4.3152933
-2.3226488 -0.85671091 -4.4001951
-3.3747656 -1.5009887 -3.2941322
-3.4117134 -1.4975474 -3.2387247
-3.4253008 -1.5263064 -3.2374291
-3.393914 -1.5286618 -3.2841363
-3.368006 -1.5299155 -3.3222513
-3.3118024 -1.5279343 -3.4019489
-3.2445455 -1.5060327 -3.4849095
-3.2994781 -1.4919156 -3.396812
-3.3340676 -1.5120212 -3.3597655
-8.901907 -1.5622545 4.6283426
-8.8709793 -1.5779575 4.5738149
-8.9359732 -1.5690488 4.6730938
-7.1607609 1.3940766 3.999059
-7.1286125 1.3979505 3.9552131
-7.1025848 1.403746 3.9214053
-7.1288638 1.3765968 3.9420052
-7.1633434 1.3737633 3.9898701
-7.1773648 1.3698519 4.0075808
-7.2108636 1.3767644 4.0602255
-7.9730697 -1.4851891 3.3393998
-8.0021229 -1.4810919 3.3838525
-8.0328674 -1.3770871 3.494231
-8.0176725 -1.310752 3.5144982
-6.7945247 1.3444757 3.4400039
-6.7641282 1.3417702 3.394501
-6.7424345 1.3545544 3.3713775
-6.7270422 1.3672792 3.3572922
-6.756587 1.3874509 3.4126678
-6.7906513 1.3806868 3.4574366
-6.8208413 1.387168 3.5050411
-6.8469229 1.3900677 3.5444522
-6.8645096 1.3851848 3.5666814
-6.83042 1.3828285 3.5160809
-7.8641133 -1.0996959 3.4274313
-7.9141388 -1.0818107 3.510855
-7.9463701 -1.1656277 3.5040169
-6.7177229 -1.5040346 1.5191962
-6.6843438 -1.4996299 1.4739161
-6.621448 -1.5154567 1.3732618
-6.5559921 -1.5110662 1.2817677
-6.6406765 -1.5435658 1.383096
-6.7023134 -1.5119407 1.491976
-6.4943552 -1.542691 1.1728876
-6.5097642 -1.5347847 1.2001075
-6.4571157 -1.5136502 1.137702
-6.3942199 -1.5294769 1.0370476
-6.4577246 -1.5272392 1.1299434
-5.8103185 -1.5076382 0.20986253
-5.7673011 -1.5537835 0.11857504
-5.749332 -1.5414726 0.10051519
-4.5556259 -1.5345433 -1.6145201
-4.5915995 -1.5386399 -1.5653062
-4.6379185 -1.5242877 -1.4894674
-4.7366681 -1.5443944 -1.360003
-4.7514544 -1.5343422 -1.3323166
-4.7348104 -1.5265006 -1.3513079
-4.5235453 -1.5345428 -1.6607292
-4.5711555 -1.5154419 -1.5800123
-4.58845 -1.5254948 -1.5614893
-5.8826904 1.3559316 2.1338596
-5.8968182 1.3797079 2.1693187
-5.963655 1.3591117 2.2525032
-6.0112014 1.3783315 2.3332038
-5.9925547 1.392974 2.31565
-5.9764905 1.3873034 2.2889073
-2.8787324 -1.1851323 -3.8079066
-2.8125472 -1.0928982 -3.8446283
-2.7865744 -1.087327 -3.8785
-2.6983674 -1.0732856 -3.9966316
-2.6731746 -1.0479057 -4.0167913
-2.6411073 -1.0479673 -4.0630207
-2.5885589 -1.015851 -4.1183033
-2.8276131 -1.1666474 -3.8697934
-2.8083866 -1.1576568 -3.8917742
-2.7698851 -1.1584363 -3.9477282
-2.7518594 -1.1574 -3.9730339
-2.7204432 -1.1596746 -4.019732
-2.6754212 -1.1043303 -4.0494123
-2.6230814 -1.046931 -4.0883274
-2.5952568 -1.0311923 -4.1184049
-3.6589615 -1.5027729 -2.8859041
-3.7134471 -1.5417763 -2.8322082
-3.6986611 -1.5518287 -2.8598943
-3.6428747 -1.5084028 -2.9126537
-6.6152415 1.3483425 3.1842179
-6.5638232 1.3768169 3.1282489
-6.6300149 1.3699113 3.2192044
-6.6486602 1.3437859 3.2294595
-7.7675161 -0.91671658 3.4045711
-7.7870522 -0.90802598 3.4382336
-7.7790008 -0.83473277 3.473213
-7.5165462 -1.5534414 2.6384404
-7.5288529 -1.5230718 2.675467
-7.5153408 -1.5375677 2.6467919
-7.4461422 -1.5275581 2.5534778
-7.4274807 -1.5244195 2.5285916
-7.4170566 -1.5305558 2.5096774
-7.3992662 -1.5490754 2.4722829
-7.3687506 -1.5475482 2.4292984
-7.3677988 -1.5626837 2.4183087
-7.419467 -1.5623031 2.4929743
-7.4522281 -1.5646402 2.5386791
-6.0964885 -0.8399511 1.0463719
-6.1214809 -0.76337576 1.1310337
-6.1401424 -0.76651675 1.1559179
-6.1459966 -0.78640181 1.1517135
-6.1385183 -0.8589046 1.0948678
-6.1008048 -0.88097072 1.0265216
-5.6466365 -1.5080416 -0.026164472
-5.5798378 -1.5106115 -0.12401587
-5.5438576 -1.4973691 -0.16742718
-5.5127344 -1.4702765 -0.19504088
-5.518775 -1.4493747 -0.17305696
-5.530849 -1.4531801 -0.15808409
-5.5547552 -1.4626173 -0.12964571
-5.5933375 -1.4846976 -0.088102818
-8.0205708 -1.3092761 3.5196102
-6.519506 1.3465592 3.0451853
-6.5027962 1.3430961 3.0189152
-6.4680867 1.3635508 2.9819176
-6.4507318 1.373778 2.963419
-6.4921823 1.3663154 3.0183823
-7.7715816 -1.0592999 3.319818
-6.3429136 -1.501382 0.98099935
-6.2954268 -1.5093025 0.907565
-6.2741637 -1.4973236 0.88454944
-6.2594466 -1.49606 0.86415368
-6.247982 -1.5058435 0.84142226
-6.3127041 -1.5307832 0.91880047
-7.3649001 1.3561655 4.2690129
-7.3906822 1.3592844 4.3081322
-7.425386 1.3503232 4.3524256
-7.4119382 1.3775117 4.3503327
-7.3734655 1.3809514 4.297102
-7.3321271 1.3585441 4.2233176
-7.3494358 1.3483143 4.2417488
-5.9495864 -0.78460979 0.86993939
-5.9252992 -0.7836777 0.8355481
-5.9335685 -0.77892721 0.85047799
-7.6135349 -1.5560373 2.7764959
-7.5930805 -1.5233305 2.7678177
0 0 0 1 0 0 0 1 0 0 0 1 0 0 0 0 0 588 1 0 0
