ply
format ascii 1.0
comment PCL generated
element vertex 872
property float x
property float y
property float z
element camera 1
property float view_px
property float view_py
property float view_pz
property float x_axisx
property float x_axisy
property float x_axisz
property float y_axisx
property float y_axisy
property float y_axisz
property float z_axisx
property float z_axisy
property float z_axisz
property float focal
property float scalex
property float scaley
property float centerx
property float centery
property int viewportx
property int viewporty
property float k1
property float k2
end_header
-10.82952 1.3740354 0.21615994
-10.78264 1.3784873 0.19374883
-10.749298 1.3693711 0.17723286
-10.702477 1.3688319 0.15461636
-10.655597 1.3732837 0.13220513
-10.555211 1.3758829 0.08389008
-10.508301 1.3828305 0.061581612
-10.454824 1.3784821 0.035575151
-10.428139 1.373175 0.022449493
-10.374602 1.3738179 -0.0033519268
-10.307089 1.3561083 -0.036758542
-10.247589 1.3661187 -0.064997792
-10.200799 1.3630838 -0.087717056
-10.107487 1.334553 -0.13407934
-10.053593 1.3651435 -0.15864861
-10.036861 1.3655761 -0.16670132
-9.9699068 1.3698046 -0.19880891
-9.939847 1.3663371 -0.21347547
-9.8764162 1.3562478 -0.244555
-9.7758799 1.3713251 -0.29235697
-9.7291193 1.3657944 -0.31517899
-9.6955671 1.3741478 -0.33097601
-9.615345 1.3694836 -0.36990261
-9.5735931 1.3644803 -0.39028287
-9.5351515 1.3623238 -0.40893245
-9.4951305 1.3525051 -0.42870396
-9.4616079 1.3583628 -0.44460368
-9.4214973 1.3560302 -0.46406686
-9.3478642 1.3595562 -0.49943012
-9.267581 1.3598833 -0.5381518
-9.2323599 1.3680608 -0.55476278
-9.1387691 1.3636967 -0.60012579
-9.1270313 1.3657521 -0.6056931
-9.1640205 1.245041 -0.59350932
-9.176096 1.1791188 -0.59077638
-9.1733437 1.164964 -0.59276837
-9.1667385 1.1234657 -0.59790277
-9.1763926 1.0850494 -0.59504718
-9.1778307 1.0343717 -0.59673101
-9.1723566 1.0035667 -0.60081762
-9.177804 0.9669016 -0.59990972
-9.172843 0.92722183 -0.60416538
-9.1712475 0.88625056 -0.6068576
-9.1776524 0.8055923 -0.60755187
-9.1776934 0.76698714 -0.60934371
-9.1773291 0.72751671 -0.6113717
-9.1749067 0.68591005 -0.61449277
-9.1753845 0.64597988 -0.61613566
-9.1917925 0.56747103 -0.61190265
-9.1760111 0.52445865 -0.62153554
-9.1785889 0.4480595 -0.62387639
-9.1808281 0.36641437 -0.62662733
-9.1784058 0.32480764 -0.6297484
-9.1727571 0.20344891 -0.63816822
-9.1824121 0.16503276 -0.63531226
-9.1814623 0.20847838 -0.63373208
-9.3021927 0.28715861 -0.57178688
-9.3825979 0.20688324 -0.53675735
-9.4458675 0.12617554 -0.51001644
-9.4173794 0.02624315 -0.52845114
-9.3783159 -0.063436575 -0.55150735
-9.3721609 -0.073256664 -0.55493796
-9.3785257 -0.080906034 -0.55222619
-9.4241953 -0.19348121 -0.53547245
-9.5530586 -0.23498391 -0.4752422
-9.5813704 -0.29471889 -0.46438473
-9.6123762 -0.33500159 -0.45131409
-9.6505432 -0.39127001 -0.43553859
-9.6883678 -0.39575034 -0.41749811
-9.7268391 -0.39608955 -0.39895123
-9.8048887 -0.48910737 -0.36565661
-9.9397516 -0.5777303 -0.30474269
-9.9214725 -0.65742064 -0.31730139
-9.9969912 -0.81817132 -0.28840613
-10.016829 -0.93821979 -0.2844671
-9.9922943 -0.98297572 -0.29840577
-10.035954 -1.1383035 -0.28462768
-10.092949 -1.2188488 -0.26090682
-10.091937 -1.2739285 -0.26397932
-10.167154 -1.3397572 -0.23077548
-10.126423 -1.4995782 -0.25792778
-10.128572 -1.5393326 -0.25875628
-10.242346 -1.5430217 -0.20403254
-10.322807 -1.5583225 -0.16592705
-10.35618 -1.551702 -0.14951384
-10.469894 -1.5503998 -0.094584584
-10.550297 -1.5607094 -0.056273699
-10.58367 -1.5540888 -0.039860487
-10.63052 -1.5560453 -0.017346978
-10.663981 -1.5569116 -0.0012419224
-10.694789 -1.5455633 0.014155507
-10.712322 -1.5437185 0.022701979
-10.732426 -1.5459906 0.032295704
-10.777667 -1.5531137 0.053790331
-10.823366 -1.5463083 0.076159954
-10.857889 -1.5484496 0.092717052
-10.88666 -1.5067818 0.10855424
-10.889528 -1.4670478 0.11180294
-10.889795 -1.4195428 0.11416066
-10.885075 -1.3054001 0.11723912
-10.907528 -1.2252702 0.1318326
-10.881069 -1.1456254 0.12280297
-10.87545 -1.0257266 0.12571788
-10.868697 -0.98563379 0.12434089
-10.870309 -0.94575781 0.12698984
-10.869831 -0.90582758 0.12863278
-10.945386 -0.82586825 0.16884053
-11.001292 -0.74605703 0.19956076
-11.001947 -0.6263206 0.20549524
-10.98134 -0.54660827 0.19929254
-11.002123 -0.46665394 0.21307206
-10.997223 -0.4066487 0.21352339
-11.002778 -0.34691751 0.21900642
-11.004152 -0.28707469 0.22247732
-11.003195 -0.2072143 0.22576261
-11.022348 -0.16604084 0.23693645
-11.02187 -0.12611064 0.23857892
-11.023004 -0.046304405 0.24287081
-11.001455 0.1121731 0.23990977
-11.020131 0.19327675 0.25272644
-11.109483 0.2733168 0.29959512
-11.109003 0.31324697 0.30123758
-11.017736 0.39292765 0.26093948
-11.007604 0.47127402 0.25972629
-11.015343 0.59257865 0.26915252
-11.003927 0.67270976 0.26740468
-11.018148 0.70726967 0.27588809
-11.018089 0.7122609 0.27609348
-11.01794 0.72473907 0.2766068
-11.013428 0.75229943 0.27572298
-11.017132 0.79212135 0.27937877
-11.018679 0.87224525 0.28388488
-11.015696 0.9119119 0.28430665
-11.015575 0.92189437 0.28471696
-11.018118 0.95351845 0.28742766
-11.019747 0.99229938 0.29003334
-11.025947 1.0329324 0.29493165
-11.025469 1.0728627 0.29657447
-11.030834 1.113408 0.30106592
-10.929491 1.2317346 0.25771916
-10.92692 1.271719 0.25835514
-10.913894 1.3119739 0.2539587
-10.910281 1.333778 0.2532388
-10.902528 1.3529525 0.25039732
-10.896593 1.3598244 0.24785638
-10.842909 1.3729454 0.22256875
-9.7117424 -1.5771066 -0.46165234
-9.5650148 -1.614977 -0.53422636
-9.703989 -1.5579323 -0.46449375
-10.641054 1.1918406 0.11667442
-10.795774 1.1905715 0.19126844
-10.743674 1.3510443 0.1736598
-9.31071 -1.5729634 -0.6549589
-9.4016991 -1.45469 -0.60550618
-9.3685932 -1.4138055 -0.61956167
-9.3341742 -1.3330789 -0.63238144
-9.3327379 -1.2132882 -0.62745363
-9.284481 -1.0940369 -0.64514232
-9.2581444 -1.0943403 -0.65786403
-9.1872129 -0.93283266 -0.68451041
-9.1950998 -0.89311904 -0.67884159
-9.2075014 -0.81185293 -0.66904473
-9.2049303 -0.77186859 -0.66840881
-9.2018824 -0.69195408 -0.66612995
-9.2042971 -0.61393255 -0.66130358
-9.2036715 -0.49241138 -0.6559037
-9.1974802 -0.39420652 -0.65428269
-9.1951504 -0.37418896 -0.65446776
-9.1883974 -0.33409637 -0.65584475
-9.1929111 -0.29254383 -0.65171725
-9.1905794 -0.27252287 -0.65190262
-9.1830168 -0.23416086 -0.65375167
-9.1450577 -0.27594221 -0.67402768
-9.1404676 -0.31140998 -0.67790663
-8.9881945 -0.37485164 -0.75435644
-9.1405268 -0.31639951 -0.67811233
-9.1820307 -0.39555812 -0.66180062
-9.1848412 -0.45550925 -0.66325772
-9.1893826 -0.48556519 -0.6624769
-9.1857986 -0.53536963 -0.66654307
-9.0450134 -0.61506325 -0.73821217
-8.9896307 -0.49464226 -0.75928432
-8.9895086 -0.41469401 -0.75559217
-8.9875984 -0.39490294 -0.75558496
-7.109129 -1.5652251 -1.7168757
-7.0686021 -1.5511327 -1.7357692
-7.0081539 -1.5281705 -1.7638583
-6.9612989 -1.5238255 -1.7862623
-6.8985577 -1.5269879 -1.8166838
-6.8476963 -1.5330487 -1.8415091
-6.8138027 -1.5048895 -1.8565418
-6.8160357 -1.4871646 -1.8546326
-6.8166451 -1.4849877 -1.8542366
-6.8627272 -1.367053 -1.8264678
-6.8521309 -1.3276207 -1.8297303
-6.8476281 -1.2852603 -1.8299153
-6.8524079 -1.3252835 -1.8294868
-7.0755329 -1.5570334 -1.7327018
-7.0286403 -1.5501925 -1.7550068
-4.7424822 1.369808 -2.7210813
-4.8091412 1.3884165 -2.6880445
-4.8287287 1.3895931 -2.6785383
-4.8824759 1.3966409 -2.6522744
-4.8893356 1.3933529 -2.6491189
-4.9699035 1.3733282 -2.6111836
-4.9495096 1.3902887 -2.6202281
-4.80019 1.3917471 -2.6922076
-4.8072729 1.3921938 -2.6887689
-8.9194059 1.385832 -0.70493162
-8.8859138 1.389194 -0.72093403
-8.8324976 1.3798544 -0.74714589
-8.8994522 1.3756258 -0.71503836
-8.9522057 1.3692933 -0.68988121
-8.9931221 1.3742089 -0.66990823
-9.0732851 1.3838644 -0.63077587
-8.9996881 1.3855051 -0.66620994
-8.9797039 1.3777945 -0.67621434
-2.5450683 1.3819746 -3.7807796
-2.4236197 1.3756936 -3.8396742
-2.3433266 1.3781252 -3.8783021
-2.4095411 1.3828362 -3.846132
-2.4304423 1.3849448 -3.8359482
-2.8795476 -1.1784809 -3.7395341
-2.7997451 -1.1665879 -3.7774818
-2.7062922 -1.1704532 -3.8227546
-2.6993079 -1.1697201 -3.8260901
-2.6392808 -1.1692129 -3.8550301
-2.7072644 -1.3539448 -3.8308957
-2.7453742 -1.4341151 -3.8162692
-2.7435384 -1.4742979 -3.8190403
-2.7853193 -1.4741025 -3.7988715
-2.8592148 -1.521088 -3.7654212
-2.9585829 -1.5020232 -3.7165806
-3.012332 -1.4952646 -3.6903291
-3.0724258 -1.5073578 -3.661901
-3.1524549 -1.4946599 -3.6226902
-3.1861353 -1.5052041 -3.6069341
-3.2530088 -1.4988351 -3.5743682
-3.2662535 -1.4974984 -3.567915
-3.3465486 -1.4997772 -3.5292788
-3.3874197 -1.5235387 -3.5106733
-3.4469252 -1.4939678 -3.4805739
-3.5007753 -1.501416 -3.4549401
-3.5474787 -1.498143 -3.4322517
-3.5740561 -1.5004621 -3.4195368
-3.6268849 -1.5108989 -3.394536
-3.6394792 -1.5136588 -3.3885889
-3.6603699 -1.5116026 -3.3784125
-3.6950014 -1.5140216 -3.3618162
-3.715553 -1.5116417 -3.351788
-3.7627773 -1.5185866 -3.3293278
-3.7754295 -1.5237888 -3.3234673
-3.8214076 -1.5195662 -3.3010843
-3.8353775 -1.5191791 -3.2943254
-3.8739119 -1.5210806 -3.2758217
-3.8821695 -1.5208982 -3.2718287
-3.9227748 -1.5296831 -3.2526484
-3.954252 -1.5261292 -3.2372937
-3.9826789 -1.5225773 -3.2234111
-3.9491315 -1.5195215 -3.2394543
-3.9189563 -1.5156106 -3.2538304
-3.9020905 -1.5132188 -3.2618561
-3.8962739 -1.5138098 -3.2646904
-3.8766689 -1.5145183 -3.2741833
-3.8527653 -1.5154164 -3.285759
-3.8334584 -1.5119803 -3.2949138
-3.8067927 -1.5096893 -3.3076725
-3.7264688 -1.3997595 -3.3412714
-3.7669528 -1.2795862 -3.3160987
-3.7843325 -1.1995373 -3.3039565
-3.7695868 -1.1943002 -3.3108258
-3.6889374 -1.1720523 -3.3486958
-3.6690774 -1.1926211 -3.3592434
-3.5554118 -1.197271 -3.4143064
-3.5177703 -1.197129 -3.432462
-3.4614739 -1.1738636 -3.4585335
-3.3811345 -1.1690888 -3.4970741
-3.3142166 -1.1729617 -3.5295441
-3.3008833 -1.169306 -3.5358059
-3.2005072 -1.1751156 -3.584511
-3.1202559 -1.1753328 -3.6232429
-3.0734196 -1.1711174 -3.6456439
-3.0055113 -1.1590641 -3.6778448
-2.9928145 -1.1513658 -3.6836097
-2.9636006 -1.1580893 -3.6980212
-1.8043976 -0.59316564 -4.2308378
-1.8030753 -0.55476457 -4.2296743
-1.8100624 -0.51186836 -4.2242899
-1.8080935 -0.4335292 -4.2215643
-1.800488 -0.3950119 -4.2234263
-1.7485828 -0.33570486 -4.2456884
-1.7461658 -0.31570387 -4.2459159
-1.7200661 -0.25532469 -4.2556763
-1.5864096 -0.18952069 -4.3170786
-1.4848781 -0.21104583 -4.3670783
-1.4328194 -0.27152818 -4.3950353
-1.4206986 -0.29874629 -4.4021606
-1.4151087 -0.31180453 -4.4054708
-1.3693314 -0.37238953 -4.4304013
-1.3358254 -0.37176943 -4.4465389
-1.3016734 -0.33121115 -4.4611149
-1.2496018 -0.29119295 -4.4843616
-1.25105 -0.25129354 -4.481791
-1.2483087 -0.2113166 -4.4812374
-1.2476621 -0.17137842 -4.4796758
-1.1842151 -0.051006764 -4.5046411
-1.1353478 0.02810353 -4.524508
-1.0340028 0.029882342 -4.5733242
-1.0254421 0.14904447 -4.5718632
-1.0663958 0.14915825 -4.5520978
-1.1717768 0.20527984 -4.4986172
-1.1984792 0.26649237 -4.4828606
-1.2443986 0.26709533 -4.4606762
-1.2844439 0.27211982 -4.4411182
-1.3179903 0.26900357 -4.4250779
-1.3573294 0.26645815 -4.4062157
-1.3924899 0.26600105 -4.3892717
-1.4250069 0.25420427 -4.374136
-1.5070763 0.26552695 -4.3340054
-1.5392652 0.26551235 -4.3184748
-1.5873289 0.26559138 -4.29528
-1.6257591 0.26795661 -4.2766261
-1.6739645 0.2645691 -4.2535257
-1.7059312 0.27301335 -4.2377052
-1.7982526 0.34677029 -4.1896982
-1.8176684 0.39726436 -4.1779609
-1.8256006 0.42456686 -4.1728525
-1.8563652 0.46392369 -4.1561613
-1.876719 0.58642489 -4.1405926
-1.8739777 0.6264019 -4.1400394
-1.8559318 0.70658827 -4.1449842
-1.8252912 0.74553186 -4.1579413
-1.8783197 0.74610007 -4.132328
-1.9121642 0.74624854 -4.1159906
-2.0033789 0.86666363 -4.0663285
-1.9880738 0.90687293 -4.0718269
-2.0061994 0.86767668 -4.0649204
-1.9990368 0.74696529 -4.0740404
-1.9766483 0.70745343 -4.0866971
-1.9626865 0.66730136 -4.0953178
-1.9681177 0.58783281 -4.096426
-1.9690881 0.52792549 -4.0987692
-1.8894439 0.38791442 -4.1437674
-1.8917456 0.34813929 -4.1445231
-1.8861098 0.30831742 -4.1491108
-1.8888507 0.26834053 -4.1496644
-1.8901443 0.18846415 -4.1527882
-1.8492727 0.10911463 -4.1762323
-1.8503532 0.067969173 -4.1776419
-1.8550076 -0.012066185 -4.1791515
-1.8625836 -0.0920588 -4.1792498
-1.8575945 -0.17181888 -4.1853991
-1.8548207 -0.25910616 -4.1908331
-1.851028 -0.3319833 -4.1960831
-1.8692045 -0.37166476 -4.1891747
-1.8539381 -0.51171184 -4.2031121
-1.8562398 -0.55148691 -4.2038679
-1.8955216 -0.70404512 -4.1920729
-1.996686 -0.74584359 -4.1452212
-2.0135603 -0.75364208 -4.1374454
-2.0058012 -0.83490056 -4.1450019
-2.0323744 -0.88125503 -4.1343555
-2.0869541 -0.93372262 -4.1104822
-2.2011571 -0.96173573 -4.0566926
-2.2534347 -0.99550784 -4.0330529
-2.2822585 -1.0140902 -4.0200171
-2.3635211 -1.0764291 -3.9837325
-2.4003372 -1.076723 -3.9659822
-2.4377999 -1.1169552 -3.9497938
-2.5723495 -1.172965 -3.887501
-2.4718723 -1.1736009 -3.9360118
-2.4252472 -1.1817739 -3.9588923
-2.3918219 -1.1861459 -3.9752254
-2.3226295 -1.1526191 -4.0070381
-2.1976895 -1.1781663 -4.0685215
-2.1710463 -1.1707909 -4.0810308
-2.1277909 -1.1522094 -4.1010299
-2.0878458 -1.1122218 -4.1184273
-2.0814652 -1.0253464 -4.1174297
-2.0472322 -0.97979587 -4.1318102
-2.0398588 -0.9122839 -4.1322002
-2.0118265 -0.86185741 -4.1433597
-3.2371716 1.3415391 -3.4487317
-3.1700392 1.3502676 -3.4807141
-3.1565962 1.3614438 -3.4866762
-3.2236485 1.3577075 -3.4544981
-3.316102 1.3800045 -3.4088423
-3.3428359 1.3801877 -3.3959343
-3.4113178 1.3828913 -3.3627644
-3.4646888 1.3404278 -3.339005
-3.5281887 1.3408021 -3.3083484
-3.5655966 1.33831 -3.2904158
-3.5826359 1.3397945 -3.2821245
-3.6121149 1.3292674 -3.2683945
-3.787117 1.3391094 -3.1834927
-3.6127224 1.3164694 -3.268702
-3.5790935 1.3271338 -3.2844276
-3.5121722 1.3259975 -3.316771
-3.4580283 1.3211918 -3.3431215
-3.4181042 1.3297588 -3.3619833
-3.3443103 1.3403311 -3.3970931
-3.2971592 1.3435283 -3.4196939
-3.2806087 1.3418975 -3.4277561
-7.0370102 1.3789829 -1.6135232
-7.0201683 1.3812929 -1.6215414
-6.9265523 1.3825409 -1.6666532
-6.9936438 1.3025757 -1.6380332
-7.0286856 1.1799203 -1.6268806
-7.0337167 1.0986887 -1.6282647
-7.0418024 1.0594851 -1.6262028
-7.0460658 0.99740905 -1.6270585
-7.0558448 0.90087706 -1.6268697
-7.0556116 0.86085838 -1.6288599
-7.023097 0.74164516 -1.6501421
-7.0337811 0.70071596 -1.6469076
-7.0020986 0.58158422 -1.6677846
-7.0367756 0.50102973 -1.6548324
-7.0379739 0.42115527 -1.6580021
-7.0172081 0.30111307 -1.6736546
-7.0184059 0.2212386 -1.6768246
-7.0086875 0.14227463 -1.685219
-7.0202031 0.10142688 -1.6815794
-7.043365 0.061720148 -1.6722667
-7.0593662 0.023044497 -1.6663607
-7.0641332 0.01979889 -1.6642128
-7.1157064 -0.019599274 -1.6411772
-7.1770802 -0.099023193 -1.6152906
-7.1810069 -0.13863441 -1.6152546
-7.1991262 -0.17784512 -1.6083517
-7.2066016 -0.25784707 -1.6084988
-7.2176628 -0.29799682 -1.6050456
-7.2265916 -0.34000027 -1.6027082
-7.2323179 -0.41015363 -1.6032369
-7.2276807 -0.44651532 -1.6071808
-7.2266126 -0.48661935 -1.6095779
-7.2388802 -0.56998259 -1.6075704
-7.2316966 -0.64967728 -1.6147759
-7.2364764 -0.68970048 -1.6143476
-7.2467747 -0.76813257 -1.6130588
-7.2346673 -0.84935361 -1.6227119
-7.2396698 -0.90435261 -1.6228789
-7.2407794 -0.92769772 -1.6234388
-7.2231321 -1.0071723 -1.6356828
-7.2515578 -1.0881248 -1.6257658
-7.2636833 -1.1634901 -1.6234517
-7.2555962 -1.247697 -1.6313049
-7.2552571 -1.249014 -1.6315303
-7.2592983 -1.2906518 -1.6315342
-7.2557068 -1.3304991 -1.6351368
-7.3784881 -1.247529 -1.5720007
-7.4553871 -1.3281757 -1.5386806
-7.4561439 -1.4078333 -1.5420531
-7.5314245 -1.4083967 -1.5057561
-7.5810194 -1.4400632 -1.4833121
-7.6592755 -1.4805841 -1.4474542
-7.6898203 -1.4887187 -1.4330978
-7.7738552 -1.4816898 -1.3922206
-7.8114915 -1.4821168 -1.3740807
-7.8569412 -1.5067096 -1.3533049
-7.970686 -1.5079031 -1.2984782
-8.0852976 -1.58147 -1.2466289
-8.1123505 -1.6055 -1.2347037
-8.145812 -1.6063663 -1.2185985
-8.1692228 -1.6060966 -1.2072901
-8.2452641 -1.5322113 -1.1671326
-8.3119192 -1.5114833 -1.1339984
-8.3526449 -1.5257554 -1.1150177
-8.3998451 -1.5903573 -1.0952744
-8.4075985 -1.6095319 -1.0924333
-8.453187 -1.6463604 -1.0721647
-8.5159111 -1.6468897 -1.0419245
-8.5706348 -1.6077319 -1.0136824
-8.6333485 -1.5377481 -0.98013878
-8.66675 -1.5336231 -0.96382856
-8.6834545 -1.5312555 -0.95565748
-8.7136011 -1.5355793 -0.9413147
-8.8299942 -1.4090562 -0.87921739
-8.9422817 -1.5322641 -0.83081901
-8.9686174 -1.5319608 -0.81809723
-9.1303654 -1.4919615 -0.73817581
-9.186923 -1.5353142 -0.71292043
-8.1016273 0.8921594 -1.1226804
-8.0352077 0.85231918 -1.156598
-7.9959497 0.81341797 -1.1773655
-7.9565129 0.7894904 -1.1975167
-7.8896189 0.78872758 -1.2298294
-7.842679 0.7981708 -1.2520354
-7.7847133 0.8553018 -1.2773234
-7.7557411 0.93523079 -1.2875522
-7.6716404 0.97513658 -1.326259
-7.6537714 1.0160847 -1.3329595
-7.6523404 1.0559404 -1.3317798
-7.6517415 1.0958776 -1.3301947
-7.6528063 1.135978 -1.3277996
-7.6538711 1.1760781 -1.325404
-7.6535048 1.2560341 -1.3218291
-7.653738 1.2960528 -1.3198388
-7.7621632 1.375693 -1.263786
-7.7151265 1.3920124 -1.2857156
-7.6955724 1.395142 -1.2950037
-7.6690645 1.3850455 -1.3082677
-7.6013522 1.3957016 -1.3404396
-7.5015931 1.3934376 -1.3886802
-7.408277 1.3747171 -1.4345845
-7.3747225 1.3803892 -1.4505086
-7.3281202 1.3672848 -1.4736093
-7.257647 1.3807991 -1.5069792
-7.2225037 1.3813161 -1.5239118
-7.1137471 1.3825411 -1.5763303
-6.6851811 -0.72822475 -1.8821595
-6.7130246 -0.68847966 -1.8668598
-6.7344317 -0.66983336 -1.8556559
-6.77384 -0.68486792 -1.8373466
-6.8359642 -0.74432713 -1.8101612
-6.8829675 -0.75865602 -1.788154
-6.9095588 -0.75595498 -1.7751968
-6.9297481 -0.75800925 -1.7655516
-6.9340825 -0.76808095 -1.7639328
-6.9556046 -0.80845606 -1.7554427
-6.9308476 -0.88788319 -1.7711151
-6.8497696 -0.96918297 -1.8140507
-6.8539376 -1.0574667 -1.816182
-6.8572149 -1.0858477 -1.8159325
-6.8574705 -1.1271003 -1.817745
-6.8569045 -1.2056097 -1.821702
-6.8525739 -1.2470715 -1.8257369
-6.6989479 -0.76476949 -1.8772317
-6.7031374 -0.81639093 -1.8776325
-6.7064142 -0.84477192 -1.8773831
-6.7007298 -0.88457531 -1.8819935
-6.6458735 -0.96398115 -1.9121881
-6.629611 -1.0456243 -1.9238658
-6.6065431 -1.0738591 -1.936321
-6.5671015 -1.1078621 -1.9569474
-6.5342107 -1.1470937 -1.9746584
-6.4808331 -1.1643034 -2.0012209
-6.4675374 -1.1656538 -2.0076997
-6.4473486 -1.1635997 -2.0173447
-6.4138999 -1.1653919 -2.0335679
-6.4006042 -1.1667424 -2.0400465
-6.3672304 -1.1735266 -2.056468
-6.2871504 -1.1859496 -2.09569
-6.2880044 -1.2433565 -2.0979717
-6.3358245 -1.3125963 -2.0781472
-6.3489799 -1.4043291 -2.0761039
-6.2655344 -1.5231085 -2.1219404
-6.2923484 -1.5353831 -2.1095786
-6.3257217 -1.528599 -2.0931571
-6.3589845 -1.5143268 -2.076438
-6.4123621 -1.4971173 -2.0498755
-6.4262476 -1.4841685 -2.0425677
-6.48773 -1.4476771 -2.0111897
-6.4715099 -1.432721 -2.0183144
-6.4501739 -1.4048257 -2.0273004
-6.4368372 -1.3521469 -2.0312636
-6.4525771 -1.285108 -2.0205231
-6.5609875 -1.1568724 -1.9621971
-6.6145511 -1.1521425 -1.9361305
-6.7363019 -1.1281193 -1.8762575
-6.8302917 -1.2449732 -1.8363899
-7.2226944 -1.5535058 -1.6615298
-7.1825013 -1.561877 -1.681316
-7.1490159 -1.5611734 -1.6974399
-7.2312703 -1.5297524 -1.6562772
-7.2643614 -1.4903722 -1.6384625
-7.2763243 -1.4507008 -1.6308289
-7.2632041 -1.4110116 -1.6352973
-4.0477762 -1.5223397 -3.1919897
-4.014328 -1.5241319 -3.2082129
-4.9242992 -1.5277206 -2.7693129
-4.8441448 -1.5351516 -2.808337
-4.7770262 -1.5237604 -2.8401878
-4.7426357 -1.5181493 -2.8565183
-4.6500163 -1.5268464 -2.9016156
-4.6165314 -1.5261427 -2.9177394
-4.5830464 -1.5254389 -2.9338632
-4.6171589 -1.5170404 -2.9170096
-5.363884 -1.1837115 -2.5410683
-5.4028139 -1.1588646 -2.5211182
-5.4563351 -1.1590726 -2.4953036
-5.5573063 -1.1445936 -2.445905
-5.6373868 -1.1321707 -2.4066825
-5.6710944 -1.1478502 -2.3911541
-5.7510266 -1.1254435 -2.3515348
-5.8080521 -1.1615742 -2.3257151
-5.8651485 -1.1511636 -2.2976768
-5.9791226 -1.1668998 -2.243422
-5.9053445 -1.3216801 -2.2862833
-5.970171 -1.4602771 -2.2615075
-6.0042872 -1.5034119 -2.2470701
-5.9341884 -1.4836073 -2.279964
-5.9105029 -1.4897299 -2.2916796
-5.8238258 -1.5187157 -2.334862
-5.7903409 -1.5180119 -2.3509858
-5.763638 -1.5132251 -2.3636456
-5.6834831 -1.5206561 -2.4026694
-5.6214743 -1.5202183 -2.4325686
-5.5832882 -1.5360167 -2.4517353
-5.5165405 -1.549585 -2.4845781
-5.435792 -1.5170807 -2.5220146
-5.3893452 -1.5401912 -2.5455101
-5.3761234 -1.5465336 -2.552187
-5.3561573 -1.559455 -2.5624275
-5.3262973 -1.5729321 -2.5774674
-5.3095245 -1.5700858 -2.5854268
-5.296155 -1.5664444 -2.591707
-5.2793307 -1.5610993 -2.5995741
-5.2633343 -1.5591344 -2.6072001
-5.2422209 -1.5462148 -2.6167815
-5.2120266 -1.5372283 -2.6309285
-5.1785784 -1.5390207 -2.6471517
-5.1328545 -1.5213581 -2.668385
-5.1107264 -1.5218101 -2.6790833
-5.0511603 -1.5146509 -2.7074885
-5.1310182 -1.4872524 -2.6676707
-5.2214923 -1.5215909 -2.6256275
-5.2729397 -1.3609699 -2.5932672
-5.2659526 -1.3181239 -2.5946279
-5.2686501 -1.3031073 -2.5926218
-5.2717333 -1.2798513 -2.5900431
-5.3072238 -1.1983055 -2.569092
-5.2746921 1.3434905 -2.4655209
-5.3082466 1.3378183 -2.4495969
-5.3215561 1.3391223 -2.4431133
-5.3382168 1.3437756 -2.4348564
-5.3883648 1.3477466 -2.4104729
-5.3514142 1.3525678 -2.4280758
-5.2926898 1.3465422 -2.4566936
-5.2409134 1.364139 -2.4808507
-5.1907272 1.3626641 -2.5051351
-5.1507978 1.3587519 -2.5245848
-5.1976242 1.3568798 -2.5020785
-5.2143683 1.3565387 -2.4940152
-5.7627144 1.3698196 -2.2288108
-5.7962685 1.3641474 -2.2128868
-5.8762379 1.3840601 -2.1733668
-5.9025955 1.4041408 -2.1597068
-5.8727055 1.3876742 -2.1749015
-5.8226638 1.381732 -2.1993258
-5.7759495 1.3761158 -2.2221296
-10.890187 -0.12762754 0.17497015
-10.807155 0.032332435 0.14241207
-10.972373 -0.0078125745 0.22024715
-1.9779401 1.1880937 -4.0635204
-2.0030403 1.1461532 -4.0533776
-1.9944053 1.1865298 -4.0556498
-1.9856701 1.2278768 -4.0579243
-2.0038085 1.3435425 -4.043745
-2.0436816 1.3848016 -4.0225697
-2.1158905 1.3742443 -3.988224
-2.0824656 1.3698721 -4.0045567
-2.0460138 1.3477008 -4.0231857
-2.603611 1.4652956 -3.7486227
-2.6277609 1.4662048 -3.7369275
-2.7294888 1.4919649 -3.6866341
-2.7601299 1.4635611 -3.6731825
-2.7840686 1.4394974 -3.662761
-2.8091779 1.4244707 -3.6513505
-2.8651705 1.3871429 -3.6260855
-2.88203 1.3805918 -3.618258
-2.8953719 1.3756559 -3.612052
-2.9086933 1.3719683 -3.6057973
-2.8918939 1.3747753 -3.6137714
-2.8582263 1.38538 -3.6295185
-2.7781549 1.4253352 -3.6662788
-2.6637301 1.4158249 -3.721936
-2.5942979 1.3829037 -3.7569823
-2.5709648 1.3695256 -3.7688684
-2.5576429 1.3732132 -3.7751234
-7.9042735 0.61346579 -1.2309823
-7.8655057 0.56879568 -1.2517841
-7.7517915 0.5674935 -1.3067132
-7.6716585 0.55534244 -1.3459482
-7.6548738 0.55373985 -1.3541219
-7.6023731 0.37606436 -1.387791
-7.6514764 0.33592916 -1.3659817
-7.7537394 0.33531141 -1.3166679
-7.8261514 0.29417562 -1.2836587
-7.9047642 0.2936728 -1.245751
-7.9809952 0.21295823 -1.2127564
-8.0955744 0.2118526 -1.1575229
-8.1340456 0.21151339 -1.1389763
-8.2541132 0.17100473 -1.0829434
-8.2922287 0.13064744 -1.0664462
-8.3178043 0.090067461 -1.0560099
-8.3276653 -0.034931004 -1.0571167
-8.3268938 -0.10997583 -1.0610107
-8.3659658 -0.2301935 -1.0477988
-8.4804296 -0.29128397 -0.99543595
-8.6273146 -0.23203391 -0.92178255
-8.6279697 -0.11229748 -0.91584814
-8.6474218 0.0085943788 -0.90078962
-8.6774216 0.087324783 -0.88262022
-8.7583055 -0.032880709 -0.84923357
-8.7930813 -0.073589437 -0.83436418
-8.82827 -0.11398044 -0.81928056
-8.8572254 -0.19281414 -0.80900824
-8.9122601 -0.24912605 -0.78509629
-8.9295301 -0.29448241 -0.77889144
-8.5781422 1.391908 -0.86930865
-8.49792 1.3872439 -0.90823567
-8.477787 1.3920115 -0.91772628
-8.4911442 1.3934174 -0.91121525
-8.1050329 0.85226303 -1.1229092
-8.1138773 0.81211615 -1.1205257
-8.1038389 0.777448 -1.1269957
-8.0705566 0.76334059 -1.1437169
-8.0699301 0.57199568 -1.1529976
-8.0239763 0.74283618 -1.1671546
-7.9459043 0.73312652 -1.2052803
-7.9029598 0.65330815 -1.2297467
-6.5423498 1.4619921 -1.8483058
-6.6167955 1.4613657 -1.8124146
-6.647779 1.4604411 -1.7975082
-6.7458081 1.3871329 -1.7536483
-6.7592306 1.3809487 -1.7474619
-6.7074637 1.3813467 -1.7724212
-6.7040854 1.3820057 -1.7740204
-6.6086378 1.3845347 -1.8199558
-6.5258741 1.3843461 -1.8598989
-6.4850197 1.3768044 -1.8799653
-6.4044895 1.3943329 -1.9179993
-6.3107233 1.4055651 -1.962715
-6.4111614 1.4035251 -1.9143485
-6.4493704 1.4208068 -1.8951018
-6.5143414 1.4619706 -1.8618211
-4.0497293 -1.5261925 -3.1912284
-4.0162258 -1.525633 -3.2073674
-4.9038873 -1.5106907 -2.778363
-4.9372978 -1.5064026 -2.7620409
-5.0043426 -1.5128019 -2.7299917
-5.0309339 -1.5101007 -2.7170343
-4.8367682 -1.4992995 -2.8102138
-4.1414123 -1.5260381 -3.1469831
-4.2285347 -1.5270036 -3.1049914
-4.2216043 -1.521103 -3.1080585
-4.1846838 -1.5132492 -3.1255045
-4.0679655 -1.524394 -3.1823444
-4.0832324 -1.5267524 -3.1750889
-5.5153484 1.3533068 -2.3489418
-5.5020008 1.3544989 -2.3553262
-5.5221329 1.355011 -2.3455882
-3.0092106 1.370108 -3.5573843
-3.042676 1.371984 -3.5411489
-3.005652 1.3742197 -3.5589082
-2.9889054 1.3745289 -3.5669742
-2.9791708 1.3716104 -3.5718081
-2.9757047 1.3707281 -3.5735219
-1.6513777 0.06797123 -4.2736492
-1.6423035 0.10854958 -4.276123
-1.5031815 0.22906275 -4.3375959
-1.4591594 0.21364601 -4.35956
-1.4421644 0.22893284 -4.3670435
-1.3650599 0.24971901 -4.4032712
-1.3200293 0.2296436 -4.4259405
-1.2572775 0.18836053 -4.4581566
-1.2263823 0.10849886 -4.4768105
-1.2256107 0.070136532 -4.4789829
-1.3120422 -0.050176278 -4.4429245
-1.4707918 -0.074142806 -4.3674512
-1.4976916 -0.054677531 -4.3535585
-1.5170937 -0.046000764 -4.3437896
-1.6485271 0.025482684 -4.2770176
-1.8078141 -0.63160539 -4.2309933
-1.8072958 -0.67239362 -4.2331572
-1.835413 -0.69854587 -4.2208176
-1.8486943 -0.69973737 -4.2144651
-1.8823619 -0.71034205 -4.1987181
-1.9632611 -0.75021583 -4.1615543
-1.9814429 -0.7960732 -4.154933
-8.738677 1.3937495 -0.79176295
-8.7855873 1.386802 -0.76945442
-8.7186928 1.3860391 -0.80176735
-8.6048594 1.3947196 -0.85628575
-5.8298283 -1.4622176 -2.3293147
-5.8613949 -1.3207564 -2.307446
-5.7140265 -1.2800797 -2.3766437
-5.6567693 -1.3612688 -2.4080803
-5.7478037 -1.4845803 -2.3699417
-5.7540822 -1.4847121 -2.3669183
-5.7966032 -1.4789854 -2.3461328
-6.0461297 -1.1708032 -2.2112737
-6.0158572 -1.1622739 -2.2254803
-6.0092096 -1.1629492 -2.2287195
-4.033711 1.3491509 -3.0640383
-3.9617748 1.3515327 -3.0986362
-3.9200382 1.3448945 -3.1190858
-3.9935596 1.3406385 -3.083811
-4.0471334 1.3429666 -3.0578523
-4.0938849 1.3460866 -3.0351477
-4.0804629 1.352271 -3.0413337
-4.0771351 1.3519449 -3.0429544
-4.5820198 1.3649276 -2.7987347
-4.5485401 1.3656076 -2.8148568
-4.5952921 1.3687278 -2.7921524
-4.628809 1.3655516 -2.7761292
-4.7302828 -1.5269033 -2.8628893
-4.9577847 -1.5284243 -2.7531893
-4.9913435 -1.53412 -2.7372639
-10.806074 0.19214107 0.14938927
-10.88659 0.31178033 0.19385266
-10.804516 0.39187986 0.15800953
-10.692207 0.27328277 0.0982548
-10.765934 0.1923046 0.13002872
-2.2965803 1.3774407 -3.9008899
-2.2762747 1.3818616 -3.91048
-2.2832179 1.3836244 -3.907047
-2.3098207 1.3787453 -3.8944399
-8.6116648 1.3860503 -0.85340887
-7.8357363 1.3771585 -1.2282175
-7.7972946 1.3750021 -1.2468671
-7.8490047 1.3860512 -1.221398
-7.8623033 1.3924483 -1.2146814
-7.8742375 1.3743237 -1.2097733
-8.0296135 1.3881162 -1.134156
-8.0631361 1.3822587 -1.1182562
-8.1433277 1.3894185 -1.0792269
-8.0563002 1.3934234 -1.1210303
-8.910387 -1.2094685 -0.83106178
-8.8315287 -1.0490694 -0.8615852
-8.8694639 -0.96977812 -0.83956039
-8.9388113 -0.92990422 -0.80422908
-9.0584164 -0.93157786 -0.74659729
-9.1415625 -0.96158898 -0.70788676
-9.2251606 -1.1334041 -0.67561167
-9.2256403 -1.1733342 -0.67725414
-9.1622429 -1.2914462 -0.71338576
-9.1802311 -1.3966962 -0.70964515
-9.1650267 -1.4532696 -0.7196359
-4.4363546 1.3497655 -2.8697309
-4.4552612 1.344391 -2.8608603
-4.4416718 1.3520191 -2.8670592
-4.4145851 1.3708236 -2.8792462
-4.3880033 1.3657196 -2.892312
-4.354599 1.3614073 -2.9086323
-4.3747311 1.3619195 -2.8988943
-8.183403 1.3936356 -1.0596925
-8.2570724 1.388225 -1.0244
-8.1901484 1.3899577 -1.0566102
-6.0956526 -1.5223391 -2.2038736
-6.1182609 -1.5191482 -2.1928153
-6.1785603 -1.5321267 -2.1643293
-6.1362658 -1.6043625 -2.1881261
-6.1270022 -1.603251 -2.1925437
-6.0513649 -1.5227327 -2.2252612
-6.0714803 -1.5197952 -2.2154176
-7.2552423 -1.447711 -1.6408608
-7.259634 -1.4072691 -1.6368442
-6.8793039 -1.4456171 -1.8221558
-6.8726916 -1.4230217 -1.8242861
-8.2579737 -0.84809542 -1.1288996
-8.3368206 -0.72863197 -1.08525
-8.4486609 -0.84996742 -1.0369792
-8.3634758 -0.92902052 -1.0817912
-10.347634 0.27651173 -0.067852736
-10.420636 0.39536017 -0.027052045
-10.271637 0.47719258 -0.09510541
-10.224566 0.35778213 -0.12342048
-6.1433268 1.4089651 -2.0433257
-6.1501861 1.405677 -2.0401702
-6.1167068 1.4063569 -2.0562923
-8.9732647 -1.4315203 -0.81114191
-8.9050541 -1.3224751 -0.8389377
-8.9039469 -1.2301366 -0.83513892
-10.307468 0.83640069 -0.060961366
-10.312104 0.6765548 -0.066225052
-10.23459 0.637604 -0.10545409
-10.158003 0.67830056 -0.14049828
-10.179085 0.8379733 -0.12283361
-7.3586178 0.89886039 -1.4808738
-7.467545 0.85790366 -1.4302374
-7.4641466 1.0573028 -1.4225208
0 0 0 1 0 0 0 1 0 0 0 1 0 0 0 0 0 872 1 0 0
