ply
format ascii 1.0
comment PCL generated
element vertex 622
property float x
property float y
property float z
element camera 1
property float view_px
property float view_py
property float view_pz
property float x_axisx
property float x_axisy
property float x_axisz
property float y_axisx
property float y_axisy
property float y_axisz
property float z_axisx
property float z_axisy
property float z_axisz
property float focal
property float scalex
property float scaley
property float centerx
property float centery
property int viewportx
property int viewporty
property float k1
property float k2
end_header
-6.2111778 -1.5791962 -1.8415531
-6.2322373 -1.5816404 -1.8626276
-6.299017 -1.5295727 -1.9130405
-6.3404846 -1.5392787 -1.9558808
-6.343627 -1.533764 -1.9574119
-6.4845147 -1.5323286 -2.0935197
-6.523283 -1.5367725 -2.1323004
-6.5239887 -1.5371256 -2.133081
-6.5183897 -1.442663 -2.1017356
-6.5169258 -1.4166397 -2.0931759
-6.5397968 -1.3360695 -2.0932269
-6.5503569 -1.1541935 -2.0535517
-6.5103936 -1.3343077 -2.0642557
-6.3949137 -1.2783577 -1.9370185
-6.3747325 -1.1639894 -1.8860832
-6.3601003 -1.1156827 -1.8586513
-6.2477455 -1.1174715 -1.7502856
-6.1856742 -1.1510606 -1.6993635
-6.1498795 -1.1689636 -1.669596
-6.1216478 -1.2059573 -1.6523943
-6.12078 -1.251276 -1.6639886
-6.113081 -1.2905158 -1.6672968
-6.0933771 -1.3391063 -1.6615393
-6.09903 -1.3699502 -1.67548
-6.0891047 -1.4399951 -1.6850839
-6.0370488 -1.5250299 -1.6579822
-6.0576305 -1.5146365 -1.6750716
-6.137485 -1.5404824 -1.7595317
-1.5569446 -0.43560371 2.9815736
-1.6035032 -0.40764424 2.9441366
-1.6408322 -0.42381802 2.9035316
-1.6789296 -0.43225127 2.8643064
-1.7244403 -0.40516496 2.8276453
-1.7471409 -0.40316385 2.8062005
-1.7680926 -0.43225813 2.7779174
-1.7349761 -0.48703215 2.7949729
-1.7284722 -0.52313668 2.7913675
-1.7151315 -0.55526018 2.7954779
-1.685559 -0.58843172 2.8150277
-1.6202207 -0.6936788 2.849452
-1.6361976 -0.79793805 2.8053637
-1.5498617 -0.79269528 2.89045
-1.4348996 -0.93484992 2.9628258
-1.4555478 -1.015835 2.9205985
-1.4781446 -1.1058183 2.8740134
-1.4845538 -1.1294527 2.8613186
-1.4919252 -1.1458631 2.8496737
-1.4503179 -1.1362436 2.8926253
-1.4307616 -1.1395435 2.9106674
-1.4096372 -1.1371419 2.9317927
-1.3891542 -1.1299242 2.9536185
-1.3653116 -1.1205597 2.9792886
-1.3516819 -1.1067421 2.9962854
-1.3856537 -1.0032178 2.9917784
-1.3842576 -0.96285737 3.0042057
-1.3914618 -0.87993979 3.0199785
-1.3275061 -0.81341302 3.1001978
-1.2796869 -0.80557746 3.1486783
-1.2610519 -0.81092876 3.1652646
-1.225574 -0.81807637 3.1976767
-1.1852138 -0.81656665 3.2371945
-1.1679564 -0.79520124 3.2597775
-1.1743908 -0.75697315 3.2640333
-1.2055292 -0.72445655 3.2427869
-1.2396424 -0.68232393 3.2212968
-1.244843 -0.6835264 3.2159281
-1.2911658 -0.7133444 3.1628656
-1.2952402 -0.71621829 3.1581292
-1.3008199 -0.7361837 3.1472449
-1.352109 -0.7816686 3.0850716
-1.4356022 -0.71904641 3.0213614
-1.4715853 -0.6447143 3.0068955
-1.4783351 -0.59561163 3.0138292
-1.4948149 -0.51677036 3.0194969
-1.5126927 -0.47226605 3.0143876
-7.6345625 1.1876708 -2.4613938
-7.6448202 1.2282271 -2.4602041
-7.6380587 1.3033613 -2.4330363
-7.6328993 1.2250684 -2.4495211
-7.6334176 1.195428 -2.4581566
-7.6236057 1.1509304 -2.4608607
-7.6086473 1.0841368 -2.4646959
-7.6057358 1.0723921 -2.4650979
-7.5929499 0.99395216 -2.4742336
-7.5992804 0.99440038 -2.4802442
-7.6105652 0.99426675 -2.4912143
-7.6199055 1.0716898 -2.4790187
-7.6308498 1.1165341 -2.4773173
-7.7388268 0.17749602 -2.8396044
-7.7507534 0.25430423 -2.8300829
-7.7309179 0.25803238 -2.8098421
-7.7051516 0.26209444 -2.7837629
-7.698432 0.25722271 -2.7785897
-7.7043371 0.22170895 -2.7940559
-7.7023978 0.1460548 -2.8129363
-7.6687441 0.034629345 -2.8109055
-7.6627002 -0.085076392 -2.8378973
-7.6596718 -0.12160587 -2.8449869
-7.653254 -0.16050065 -2.8494415
-7.6649284 -0.24346995 -2.8835192
-7.6816378 -0.24694759 -2.9006624
-7.6804895 -0.20685279 -2.8885479
-7.6823311 -0.14506936 -2.8733788
-7.7016115 -0.092408836 -2.8776088
-7.7108068 -0.054773211 -2.8761907
-7.7079172 0.04049027 -2.8472509
-7.7074995 0.063574255 -2.8405118
-7.7270455 0.14047503 -2.8383479
-7.4446092 -0.2785168 -2.6796765
-7.4542246 -0.21093601 -2.6704483
-7.4454765 -0.13388944 -2.640831
-7.4778461 -0.061910987 -2.6524415
-7.4713554 -0.020660043 -2.6348343
-7.483314 0.068475068 -2.6219621
-7.4868689 0.094974756 -2.6181345
-7.4661255 0.13953304 -2.5858102
-7.4508095 0.021296322 -2.6034145
-7.4016685 -0.024938643 -2.5684905
-7.3751392 -0.13304937 -2.572453
-7.3550806 -0.2128526 -2.5749168
-7.3541794 -0.21775579 -2.5753894
-7.3458395 -0.28484043 -2.5857167
-7.3351479 -0.31825915 -2.584528
-7.3317928 -0.32668334 -2.5835891
-7.3143425 -0.43267405 -2.5957665
-7.3183331 -0.51505131 -2.6222367
-7.3207502 -0.55345857 -2.635118
-7.3232708 -0.67333323 -2.6704531
-7.2320094 -0.75476217 -2.6043773
-7.1940999 -0.75145972 -2.5667419
-7.1508532 -0.7385518 -2.5212998
-7.1343284 -0.73528451 -2.5043931
-7.072279 -0.73597187 -2.4444637
-7.0005274 -0.73611891 -2.3749866
-6.9745979 -0.71649426 -2.3444791
-6.9515858 -0.7285037 -2.325479
-6.9295502 -0.73328638 -2.3054419
-6.9063644 -0.76295108 -2.2911181
-6.9032221 -0.76846588 -2.289587
-6.8766136 -0.85008144 -2.286202
-6.8745413 -0.87975729 -2.2923374
-6.8887901 -0.89303279 -2.3097854
-6.9448133 -0.96356761 -2.383419
-6.9306617 -1.0416985 -2.3911471
-6.8523688 -1.1131369 -2.3348947
-6.8175325 -1.1201937 -2.3030791
-6.7663069 -1.1192348 -2.2531853
-6.7277822 -1.1146977 -2.2146153
-6.5980301 -1.0852284 -2.0808167
-7.2090263 -1.4783063 -2.7806501
-7.2435751 -1.4607517 -2.8093061
-7.2561445 -1.4386926 -2.8154311
-7.228374 -1.414947 -2.7820096
-7.2085752 -1.4724402 -2.7786031
-3.4450996 -0.76941472 1.0606079
-3.4292002 -0.80793983 1.0654411
-3.4346929 -0.82970691 1.0541465
-3.4555707 -0.86659968 1.0237954
-3.4697952 -0.91963106 0.99546176
-3.4642627 -0.96058267 0.98958504
-3.4112246 -1.0627831 1.0129281
-3.407325 -1.0817512 1.0115013
-3.4918308 -1.1721328 0.90482593
-3.5474265 -1.1434641 0.85882807
-3.596386 -1.174844 0.80278224
-3.6165648 -1.2090485 0.77384615
-3.6572294 -1.208326 0.73464555
-3.7077479 -1.2233901 0.68156654
-3.7372017 -1.2258037 0.65236747
-3.7716379 -1.2268236 0.61872351
-3.7805083 -1.2263398 0.61026204
-3.8739941 -1.2174993 0.52211261
-3.8760214 -1.3474991 0.48447672
-3.8005474 -1.4625591 0.52602834
-3.7432728 -1.4558933 0.58334887
-3.7228544 -1.461655 0.60155052
-3.6817002 -1.469418 0.63929313
-3.642988 -1.455687 0.68056786
-3.5796366 -1.4660101 0.73911434
-3.4991093 -1.4778836 0.81387627
-3.5956523 -1.5023654 0.71362138
-3.5975931 -1.5077899 0.71025246
-3.6770825 -1.5022238 0.63476521
-3.7029114 -1.4871086 0.61388826
-3.784415 -1.4680083 0.54016328
-4.055346 1.4466027 1.0774355
-4.0975604 1.4755234 1.044471
-4.1013975 1.4752649 1.0406823
-4.1638331 1.4907333 0.98443526
-4.1965313 1.4458033 0.94042635
-4.2231684 1.4402839 0.9131043
-4.2770367 1.424775 0.85665751
-4.318027 1.4279064 0.81780255
-4.3596687 1.4358557 0.77963895
-4.3962765 1.4229177 0.74062073
-4.4080262 1.4122974 0.72632253
-4.4582138 1.4050306 0.67570353
-4.5108924 1.3984607 0.6228621
-4.4607558 1.4252211 0.67878062
-4.4170103 1.4180647 0.71920079
-4.385385 1.4323968 0.75377375
-4.3626027 1.4473296 0.7799443
-4.3464088 1.4427994 0.79439121
-4.3012042 1.4514602 0.84056479
-4.2837644 1.4465817 0.85612303
-4.2446461 1.4422971 0.89284754
-4.1973343 1.4353746 0.93678713
-4.146378 1.4294554 0.98453242
-4.0711083 1.4018911 1.049895
-3.9469852 1.3607608 1.1588674
-3.9411509 1.3571562 1.1635311
-3.9413245 1.3748113 1.1682074
-2.4209914 -1.5315108 1.8437122
-2.4726779 -1.5050132 1.8009057
-2.5030313 -1.5071559 1.7709095
-2.5359373 -1.5108061 1.7380263
-2.5526643 -1.5133672 1.7211175
-2.5831096 -1.5149915 1.6911743
-2.6344953 -1.5249486 1.6386563
-2.6451998 -1.5318286 1.6263971
-2.6240752 -1.5294271 1.6475232
-2.5843568 -1.5231011 1.6877406
-2.5543818 -1.5342743 1.7137163
-2.5237987 -1.5297077 1.7446005
-2.4818707 -1.5224962 1.7872021
-2.8432627 -1.5279864 1.4355551
-2.9239638 -1.4984576 1.3654693
-2.8592873 -1.5041552 1.4265687
-2.8393912 -1.5097023 1.4443232
-2.8194957 -1.5152495 1.4620773
-2.780736 -1.5158362 1.4994692
-2.7600021 -1.5109832 1.5208892
-2.7198143 -1.5245433 1.5561049
-2.761282 -1.5342493 1.5132648
-2.778718 -1.5335696 1.4965583
-3.9557657 -0.75114417 0.57085472
-4.0793657 -0.7698338 0.44597444
-4.1391592 -0.75310719 0.39263242
-4.077435 -0.75138557 0.45290712
-3.8804734 -1.2190158 0.51541889
-3.8900251 -1.3475766 0.47088775
-3.9629564 -1.4564101 0.37036318
-3.9895186 -1.4675975 0.34155804
-3.9472265 -1.4803647 0.37903029
-3.8877804 -1.4617805 0.44172487
-3.8424582 -1.461488 0.48571634
-3.8257308 -1.4624679 0.50165415
-7.4268208 -0.35899669 -2.6845255
-7.4190216 -0.39693269 -2.6873789
-7.4034476 -0.43304896 -2.6822
-7.3872061 -0.51709104 -2.6895251
-7.378037 -0.59382796 -2.7016983
-7.3704391 -0.63437122 -2.7054615
-7.34373 -0.71468323 -2.7016215
-7.3577185 -0.77115989 -2.7306719
-7.3729353 -0.79400182 -2.7516828
-7.3728881 -0.8735137 -2.7734551
-7.340919 -0.91155297 -2.7529192
-7.322587 -1.0015063 -2.7598414
-7.2789822 -1.0772235 -2.7383704
-7.2750206 -1.1154177 -2.7450128
-7.2965508 -1.1942198 -2.7874961
-7.2695885 -1.1911092 -2.7605195
-7.1983509 -1.2314777 -2.7025771
-7.1233139 -1.2753998 -2.6419287
-7.0952682 -1.2714331 -2.613668
-7.0685568 -1.2715814 -2.5878291
-7.0721669 -1.1953883 -2.5704188
-7.0803151 -1.1152873 -2.556334
-6.9434109 -1.122021 -2.4255395
-6.8985147 -1.1540594 -2.3908329
-6.8781066 -1.1467974 -2.3690672
-6.8171854 -1.1555045 -2.3124318
-6.7319078 -1.2554296 -2.2572293
-6.7143183 -1.1416678 -2.2089715
-6.5936255 -1.1341996 -2.0899868
-7.4338737 -0.32992142 -2.6833806
-1.0575039 -1.5055295 3.1718774
-1.0158603 -1.5136521 3.2099953
-1.0207407 -1.5172625 3.2042766
-1.3777897 -1.4828178 2.8677955
-1.3186252 -1.5152946 2.9162064
-1.244575 -1.5277976 2.98452
-1.1990309 -1.5350182 3.0266647
-1.1814165 -1.5338027 3.0440645
-1.1762154 -1.5326003 3.0494337
-1.1410396 -1.5223603 3.0863242
-1.1447203 -1.522099 3.0828295
-1.1984253 -1.5220923 3.0307984
-1.2475493 -1.5181816 2.9842772
-1.2618351 -1.5115554 2.9722543
-1.3085766 -1.4826461 2.9349008
-1.373426 -1.4766572 2.873714
-3.6114912 -0.75527298 0.90327734
-3.6918447 -0.76105475 0.82383913
-3.7779276 -0.7851584 0.73382229
-3.8126895 -0.78376937 0.70052391
-3.8536799 -0.78063786 0.66166902
-3.873611 -0.77506238 0.64388824
-3.8866627 -0.77604699 0.63097274
-3.4650307 -0.76383924 1.0428271
-3.5173426 -0.7888093 0.98529243
-3.5641656 -0.78892744 0.93989486
-3.3123093 -1.4847634 0.99297243
-3.3761382 -1.487278 0.93044102
-3.4359317 -1.4705514 0.87709898
-3.3543494 -1.3482831 0.9896915
-3.3530536 -1.3479798 0.99103016
-3.3178201 -1.4767135 0.98984212
-3.2941575 -1.4935408 1.0081508
-3.2319341 -1.5118835 1.0634037
-3.1747482 -1.5062538 1.1203537
-3.1292193 -1.5132933 1.1625335
-3.1896636 -1.4917488 1.109883
-3.2133145 -1.4947995 1.0861311
-1.6269286 -1.5461782 2.6090274
-1.6051624 -1.5485926 2.6294532
-1.5618474 -1.5290241 2.6767893
-1.5804245 -1.5230154 2.6604395
-1.6337395 -1.4601253 2.6260414
-1.6434493 -1.4375479 2.622829
-1.707685 -1.5314555 2.5348253
-1.6878078 -1.5371635 2.5525174
-2.1261883 -1.0953746 2.249012
-2.0018995 -1.1149262 2.3640666
-2.0037835 -1.1097534 2.3636603
-2.170265 -0.98852551 2.2356272
-2.1666014 -0.93555164 2.2537127
-2.1778319 -0.85127008 2.2659588
-2.1099105 -0.76967084 2.354156
-2.0663781 -0.77449965 2.3950081
-2.126862 -0.71464872 2.3528304
-2.1807728 -0.66826493 2.3133259
-2.3092332 -0.61740887 2.2028198
-2.3174112 -0.59190142 2.2018957
-2.3706818 -0.63906223 2.1373429
-2.4132879 -0.62371558 2.1002746
-2.5346465 -0.5463835 2.0039141
-2.5421414 -0.5349676 1.9997852
-2.5573335 -0.52237511 1.9885212
-2.6049299 -0.44629657 1.9632826
-2.6699915 -0.36737576 1.9219028
-2.6786184 -0.35718495 1.9163407
-2.6997354 -0.33270216 1.9025992
-2.713414 -0.32888857 1.890393
-2.7465322 -0.33961654 1.8553621
-2.7472701 -0.34064576 1.854365
-2.763793 -0.35695013 1.8338825
-2.767458 -0.36158782 1.8290591
-2.7685797 -0.36794332 1.8262283
-2.7683167 -0.37204137 1.8253585
-2.763711 -0.40304792 1.8213128
-2.7242169 -0.48352847 1.8374932
-2.7237549 -0.55914176 1.8171928
-2.7213421 -0.64198196 1.7967991
-2.6879659 -0.69437605 1.814759
-2.6676164 -0.76016265 1.8164232
-2.6605849 -0.76746964 1.8212308
-2.626039 -0.8018772 1.8452597
-2.591116 -0.92043042 1.8465644
-2.5714998 -0.98855662 1.8468763
-2.5755343 -1.0689207 1.8209152
-2.5472617 -1.0819331 1.8447372
-2.510761 -1.1208515 1.8694221
-2.4752994 -1.1227187 1.9032674
-2.4279082 -1.1227924 1.9491628
-2.3891163 -1.1269844 1.9855967
-2.3473856 -1.1451912 2.0210323
-2.3386891 -1.1476886 2.0287726
-2.2994151 -1.1111284 2.0768559
-2.2924056 -1.0830346 2.091356
-2.1753681 -1.0665607 2.20927
-4.3449607 -1.4831781 -0.0070928633
-4.2433224 -1.4452283 0.10179459
-4.2351356 -1.4512179 0.10808285
-4.1696796 -1.460748 0.16888586
-4.1507249 -1.4590967 0.18770352
-4.1355972 -1.2871699 0.24953705
-4.1074562 -1.4790907 0.22413863
-4.0484877 -1.4733441 0.28284833
-4.1079335 -1.4919281 0.22015363
-4.1722612 -1.4743783 0.1626443
-4.2103229 -1.4929273 0.1206782
-4.2310786 -1.4648786 0.10826516
-4.1083927 -0.99720097 0.35546151
-4.1772261 -0.96541989 0.29749203
-4.2677984 -1.0184002 0.19520214
-4.2955108 -1.0047055 0.1721105
-4.2960625 -1.0118752 0.16960855
-4.2963133 -1.0151341 0.16847128
-4.2978864 -1.0591041 0.15488183
-4.2831511 -1.0794513 0.1635751
-4.2664604 -1.0876698 0.17749061
-4.1700106 -1.2112608 0.23702443
-6.126308 1.4155291 -0.93757451
-6.085453 1.397108 -0.90304637
-6.0594587 1.4073969 -0.87503815
-6.0869265 1.4243792 -0.89699066
-6.1813359 1.4680666 -0.97647297
-6.2128162 1.4953943 -0.99947453
-6.2602243 1.4813067 -1.0492723
-6.2834167 1.4648286 -1.0762639
-6.3155551 1.4572269 -1.1094879
-6.3594704 1.452293 -1.1533897
-6.3766384 1.4507934 -1.1704344
-6.3825474 1.4501334 -1.1763405
-6.4168816 1.4483675 -1.2100908
-6.4666176 1.3736459 -1.2787817
-6.5080814 1.3640243 -1.3215942
-6.5776124 1.366917 -1.3881669
-6.6093731 1.371194 -1.4177649
-6.5942731 1.3822218 -1.4001093
-6.5879917 1.3811234 -1.3943248
-6.557683 1.377932 -1.3658358
-1.9042959 -0.7732771 2.5523796
-1.8785954 -0.75492406 2.5823159
-1.814929 -0.69168425 2.6613531
-1.7548785 -0.76753581 2.6987205
-1.737437 -0.79043323 2.7093358
-1.7717018 -0.92642415 2.6388216
-1.7834473 -0.94541466 2.622231
-1.8293345 -0.8705036 2.5983281
-1.9014442 -0.77720755 2.5540638
-1.964818 -0.78441256 2.4906864
-2.0039308 -0.77781248 2.4546022
-1.980387 -0.76815426 2.480063
-4.5976 -1.3718235 -0.22131032
-4.6733322 -1.5005138 -0.32999739
-4.5732217 -1.4993705 -0.23268998
-4.5722499 -1.5000852 -0.23194483
-4.513607 -1.4919298 -0.17288956
-4.3911347 -1.4812598 -0.051302597
-4.3639054 -1.497853 -0.029474556
-4.3533769 -1.4932039 -0.017997921
-4.3464069 -1.4854367 -0.0091138333
-3.9889793 -1.0867257 0.44659173
-3.9347332 -0.97266537 0.53044701
-3.9210041 -0.93609071 0.55378467
-3.9153428 -0.88860363 0.57230014
-4.7590504 -1.4932055 -0.41104114
-4.7371883 -1.4803329 -0.38632768
-4.7775278 -1.4820192 -0.42587394
-4.8285599 -1.4837232 -0.47578454
-4.8795915 -1.4854273 -0.52569515
-4.9173274 -1.5063851 -0.56800675
-4.9377356 -1.5136471 -0.58977252
-4.876163 -1.5271719 -0.5338282
-4.8249812 -1.5033671 -0.47770792
-5.2110238 -1.5462928 -0.86350989
-5.2500615 -1.5576148 -0.90443885
-5.2600317 -1.554827 -0.91333389
-5.279963 -1.5492516 -0.93111444
-5.3029747 -1.5372422 -0.95011449
-5.3434882 -1.5212731 -0.98498476
-5.3221035 -1.521238 -0.96425605
-5.240448 -1.5250919 -0.88620043
-2.1715317 -1.4705584 2.1021304
-2.2038455 -1.397954 2.090745
-2.2175312 -1.3450277 2.0920086
-2.2176759 -1.3569279 2.088603
-2.2060409 -1.3939536 2.089716
-2.2595873 -1.50773 2.0066166
-2.22664 -1.5133553 2.0369945
-2.1980665 -1.5215607 2.0624268
-2.1788309 -1.5224527 2.0808187
-2.1782253 -1.5095268 2.0849524
-1.7688849 -1.5200331 2.4786649
-1.8105288 -1.5119104 2.4405465
-1.8294432 -1.5134265 2.4218049
-1.8720493 -1.4980799 2.3847365
-1.8737693 -1.355158 2.4222879
-1.8060532 -1.4020324 2.4750333
-1.8031318 -1.4038391 2.4773679
-1.7470489 -1.5203238 2.4997416
-1.7521341 -1.5202115 2.4948454
-4.5987692 -1.3304155 -0.21108085
-4.5994129 -1.3222456 -0.20946258
-4.609827 -1.2451601 -0.19840071
-4.6062965 -1.185292 -0.17855236
-4.6531792 -1.0860202 -0.19673496
-4.6775737 -1.0487683 -0.21014795
-4.6817594 -0.97342527 -0.19352952
-4.6869669 -0.93488252 -0.18799856
-4.73206 -0.84543276 -0.20714289
-4.8618422 -0.82520711 -0.32733425
-4.9033093 -0.83491319 -0.37017399
-4.9647083 -0.83904368 -0.43079466
-5.048636 -0.88184798 -0.52385467
-4.9751062 -1.0623509 -0.50214398
-4.9143581 -1.0534024 -0.4408322
-4.8937764 -1.0637958 -0.42374277
-4.875248 -1.0944756 -0.41420996
-4.8879185 -1.1071563 -0.42996526
-4.9331284 -1.1260233 -0.47894478
-4.9640408 -1.1442541 -0.51389742
-4.9901137 -1.162482 -0.54416043
-4.9953213 -1.1239393 -0.53862947
-4.9953451 -1.0841833 -0.52774352
-5.1335015 -1.0129104 -0.64204133
-5.1396303 -1.0267979 -0.65178996
-5.1743984 -1.02579 -0.6851989
-5.1940036 -1.0226234 -0.70332515
-5.2242308 -1.0118511 -0.72965509
-5.2294202 -1.0031253 -0.73228878
-5.2634048 -0.91739529 -0.74169093
-5.3527408 -0.8979845 -0.82291901
-5.4029894 -0.90617037 -0.87384963
-5.4634123 -0.91752762 -0.9355073
-5.5115547 -0.8781932 -0.97135758
-5.5846043 -0.9049316 -1.0494698
-5.5962791 -0.88778341 -1.0560756
-5.5903726 -0.77351677 -1.0189985
-5.6085362 -0.71142507 -1.0195585
-5.5311117 -0.68396306 -0.93700898
-5.5298657 -0.68431151 -0.93589771
-5.4458761 -0.71431512 -0.86275613
-5.424643 -0.72952628 -0.84635794
-5.3992805 -0.81079334 -0.8440845
-5.2836485 -0.83066761 -0.73750639
-5.2685709 -0.82560658 -0.72150928
-5.244319 -0.82163763 -0.69692332
-5.1510534 -0.78642464 -0.59689903
-5.1472292 -0.78180045 -0.5919252
-5.11169 -0.77751148 -0.55631566
-5.0574274 -0.76014072 -0.49897593
-5.0523806 -0.75492942 -0.49265617
-5.0172634 -0.73394477 -0.45287424
-4.9781694 -0.73190981 -0.41443932
-4.9582949 -0.72819823 -0.39416456
-4.8727336 -0.76095921 -0.32025713
-4.7502618 -0.7502892 -0.19867045
-4.7293544 -0.7630915 -0.18192682
-4.6297421 -0.72516578 -0.075009465
-4.5474143 -0.76673925 -0.0066523254
-4.5628672 -0.93625724 -0.068140075
-4.5537786 -0.96395099 -0.066933274
-4.5454865 -1.0120122 -0.072087422
-4.4697857 -1.0840573 -0.018512547
-4.4532905 -1.0846767 -0.0027009696
-4.4571567 -1.2055063 -0.039602637
-4.4704928 -1.2535099 -0.065695554
-4.4993033 -1.2975297 -0.1056883
-4.5071988 -1.3711452 -0.13353798
-4.3522487 -1.4851842 -0.014704242
-7.2273889 1.4255801 -2.001616
-7.2680635 1.4263662 -2.0408082
-7.286067 1.417509 -2.0606813
-7.2360673 1.4187423 -2.0119004
-7.1946039 1.4283637 -1.9690877
-7.2066574 1.4303907 -1.9802095
-4.6391158 1.4023706 0.49970365
-4.6587214 1.405537 0.48157731
-4.6987357 1.4014419 0.44168526
-4.6585479 1.3878821 0.47690099
-4.616755 1.3951792 0.51939511
-4.8623719 1.4115587 0.28591996
-4.8009729 1.4156891 0.34654042
-4.7758584 1.4113268 0.36967623
-4.7593317 1.40774 0.38470405
-4.8016019 1.3876053 0.33822486
-4.8221841 1.3979985 0.32113564
-5.1137962 1.3874463 0.035707191
-5.1037579 1.3966225 0.047950782
-5.0634184 1.3983089 0.087497063
-5.033452 1.3932983 0.1151556
-5.0731344 1.3867589 0.074914366
-5.0946283 1.3714479 0.049888082
-6.7530975 1.3759693 -1.5557045
-6.7733636 1.3839754 -1.5731426
-6.7275143 1.3877293 -1.5276908
-6.7042894 1.3918403 -1.5040611
-6.6983533 1.3861884 -1.4998606
-6.7117767 1.370365 -1.5172081
-6.6913681 1.3775848 -1.4954538
-2.2976315 -1.5239725 1.9652998
-2.2999113 -1.5269818 1.9622654
-2.2868822 -1.5176234 1.9774566
-2.2781811 -1.5116543 1.9875247
-4.5972986 -1.3679128 -0.21994564
-4.0026541 -1.179315 0.40793622
-4.0839839 -1.17787 0.32953501
-4.1096916 -1.2612257 0.28175497
-4.1099925 -1.2651364 0.28039029
-6.9631319 1.3860954 -1.756421
-6.9600334 1.3765897 -1.7560276
-6.9554987 1.377642 -1.7513449
-4.5381804 1.3977591 0.59623134
-4.5556817 1.4017185 0.58036137
-4.5995793 1.3936285 0.53561068
-4.5940704 1.392433 0.54061997
-4.5772181 1.3864371 0.5553022
-5.0985222 -1.532835 -0.75081795
-5.0585804 -1.5363616 -0.71308768
-5.0482121 -1.5339363 -0.70237678
-5.0182409 -1.5346751 -0.67354143
-5.037044 -1.52108 -0.68802851
-5.0880747 -1.5227853 -0.73793828
-5.0980449 -1.5199976 -0.74683297
-6.2052517 1.4154643 -1.0140784
-6.2283888 1.4122912 -1.0373656
-6.2583027 1.4206866 -1.0640445
-6.3083019 1.4194533 -1.1128255
-6.3701744 1.4026121 -1.1773926
-6.4066467 1.3720804 -1.2211076
-6.4280252 1.3720883 -1.2418182
-6.4680533 1.3680564 -1.2817063
-5.7641783 1.3807813 -0.59625453
-5.7031245 1.3873771 -0.53529155
-5.6836305 1.36897 -0.52145541
-5.7646275 1.367936 -0.6002143
-5.7857699 1.3678955 -0.62070972
-5.795095 1.3658761 -0.63029861
-5.8234587 1.374487 -0.65541625
-5.8365965 1.3891155 -0.66413093
-5.8041873 1.3766509 -0.63615102
-5.6892161 -1.5227551 -1.3203552
-5.7104273 -1.5404456 -1.3457601
-5.7719994 -1.5269208 -1.4017042
-5.5406008 1.3693734 -0.38276803
-5.438436 1.3881277 -0.2786383
-5.3786068 1.3714415 -0.22525054
-5.439538 1.3800999 -0.28190881
0 0 0 1 0 0 0 1 0 0 0 1 0 0 0 0 0 622 1 0 0
