ply
format ascii 1.0
comment PCL generated
element vertex 492
property float x
property float y
property float z
element camera 1
property float view_px
property float view_py
property float view_pz
property float x_axisx
property float x_axisy
property float x_axisz
property float y_axisx
property float y_axisy
property float y_axisz
property float z_axisx
property float z_axisy
property float z_axisz
property float focal
property float scalex
property float scaley
property float centerx
property float centery
property int viewportx
property int viewporty
property float k1
property float k2
end_header
1.1084685 1.3749063 2.2587526
1.0091982 1.4281347 2.3155246
0.86569929 1.4054959 2.3664067
0.99387455 1.4002252 2.3129752
1.0721035 1.3646286 2.2702248
1.27426 1.3831573 2.1943591
1.3418193 1.3635235 2.160918
1.3061891 1.360173 2.1742628
1.2032452 1.3787649 2.2216725
1.1685953 1.3846507 2.2375135
1.13272 1.3789909 2.2502341
-9.1074038 -1.554419 5.4684787
-9.0976925 -1.5713557 5.4592519
-9.0629797 -1.5770223 5.4434538
-9.1111593 -1.547943 5.472024
-9.0090351 0.38925487 6.0374055
-9.0380096 0.2911678 6.0183945
-9.0417423 0.2542544 6.0083427
-9.0344353 0.22328085 5.9956913
-9.0207825 0.30887574 6.0169802
1.1440983 1.378257 2.2454078
-3.0839233 -0.78000951 3.277596
-3.1949601 -0.82186323 3.3093464
-3.1936753 -0.82312 3.3084338
-3.099009 -0.90859115 3.2434247
-3.1028774 -0.94551027 3.2334261
-3.1510196 -1.0707736 3.2136483
-3.1103003 -1.1034518 3.186965
-3.0718107 -1.1363422 3.1611161
-3.0448518 -1.1767913 3.1375585
-3.0343308 -1.1845374 3.1308825
-2.9197016 -1.2097949 3.0766647
-2.8698294 -1.320807 3.0217535
-2.820462 -1.3751776 2.9847834
-2.9051816 -1.5164227 2.9747777
-2.7316647 -1.5330126 2.8994844
-2.624897 -1.5251422 2.8588166
-2.5332406 -1.5407712 2.8168945
-2.5063272 -1.5421219 2.805599
-2.4695165 -1.534898 2.7929902
-2.4164352 -1.5452617 2.7683008
-2.3140459 -1.5344565 2.7303207
-2.2723417 -1.5473261 2.7094429
-2.2004962 -1.5362504 2.6838868
-2.1273484 -1.5359588 2.6544275
-2.065608 -1.5106119 2.6374228
-1.9936221 -1.5047791 2.6101682
-2.0216298 -1.5154901 2.6181288
-2.026089 -1.5158935 2.6198039
-0.12605047 1.3827696 2.7599411
-0.1219418 1.4050243 2.7652504
-0.051778793 1.3766026 2.7280054
0.0044023991 1.3577034 2.6993906
0.015535116 1.3546603 2.6939402
0.096948147 1.3490818 2.6593037
0.007635355 1.3480558 2.6950634
-0.0028216839 1.3557446 2.7016957
-0.076275826 1.370209 2.7358994
-0.10077286 1.3638153 2.7437937
-0.12252951 1.3721557 2.7551949
0.75762844 -1.5218937 1.4933469
0.73213863 -1.5350604 1.4995213
0.80325079 -1.5309666 1.472075
-1.0809548 -1.4924233 2.2453341
-1.179703 -1.4974189 2.2836626
-1.1532984 -1.5081184 2.269645
-1.1188703 -1.5164385 2.2531312
-1.0467758 -1.5030532 2.2281978
-0.96545696 -1.5088834 2.1935205
-0.95448828 -1.5119314 2.1881347
-0.89520383 -1.4968846 2.1688967
-0.83649921 -1.5052949 2.1425471
-0.8192997 -1.5048057 2.1357522
-0.72606707 -1.4836231 2.1047211
-0.70477295 -1.4893341 2.0943303
-0.64940476 -1.512989 2.0645547
-0.60351038 -1.5197377 2.0439005
-0.5433805 -1.512543 2.0218623
-0.6242013 -1.5020933 2.057785
-0.65912747 -1.4983926 2.0730534
-0.69486523 -1.47603 2.0944939
-0.72831631 -1.3997372 2.1318989
-0.72948551 -1.3909376 2.1351266
-0.86183453 -1.4652473 2.1653233
-0.89686918 -1.469099 2.1782708
-0.97077179 -1.4730612 2.2068853
0.27831078 -1.185674 1.7922716
0.44231844 -1.1323736 1.7427063
0.49764347 -1.1179526 1.7248718
0.52069426 -1.1090214 1.7183566
0.53088951 -1.1047066 1.7155889
0.53152037 -1.2355955 1.674346
0.35374022 -1.2458301 1.7429613
0.41177416 -1.4076421 1.6688447
0.44935656 -1.4460046 1.6416487
0.5437932 -1.5387952 1.5744402
0.4091773 -1.4907866 1.643857
0.36632776 -1.5215241 1.6515419
0.34450817 -1.539495 1.6547291
0.32204103 -1.5377374 1.6643559
0.24046445 -1.5213808 1.7024336
0.22838712 -1.5223432 1.7070113
0.20553327 -1.5176526 1.7177128
0.12373066 -1.5164016 1.7511514
-0.004942894 -1.5176278 1.8027495
-0.053472757 -1.5290475 1.8187789
-0.12192655 -1.5149587 1.850845
-0.14691663 -1.5235053 1.8582642
-0.18068647 -1.5164683 1.8741103
-0.25253201 -1.5275441 1.8996663
-0.30839849 -1.5085084 1.9281965
-0.36877751 -1.518013 1.9496124
-0.29842663 -1.5207953 1.9203205
0.30008411 1.3768468 2.5859346
0.36715317 1.3525951 2.5512452
0.43890285 1.3639145 2.5258043
0.34611225 1.3702269 2.5652671
0.63760376 1.3584175 2.4438109
0.67298841 1.3594589 2.4298422
0.7311101 1.3918753 2.4165132
0.83104849 1.4113817 2.3822479
0.68806696 1.3850596 2.4317675
0.61680698 1.3783584 2.458457
0.55619001 1.3639958 2.4784474
-0.79115224 -0.78395295 2.3501177
-0.83555198 -0.7633462 2.3745074
-0.9957118 -0.74917412 2.4436474
-1.0103214 -0.65161681 2.4800999
-1.1194606 -0.56596804 2.5510116
-1.1693413 -0.59617364 2.5617037
-1.2888253 -0.61666816 2.6035552
-1.323988 -0.5693382 2.6325819
-1.4819055 -0.55973303 2.6993861
-1.5355299 -0.51991057 2.73352
-1.5637672 -0.5156045 2.7462759
-1.6118789 -0.51382595 2.7662692
-1.7737377 -0.50803179 2.833472
-1.6425951 -0.56273854 2.763361
-1.5980208 -0.62848556 2.7247648
-1.6475191 -0.78513402 2.6957064
-1.6016243 -0.79188287 2.6750522
-1.5544841 -0.78708345 2.6575115
-1.4846315 -0.79448503 2.6269741
-1.4117203 -0.77591789 2.6033335
-1.2950459 -0.77908236 2.555208
-1.2498987 -0.79276025 2.532686
-1.1573977 -0.78677189 2.4971924
-1.1414649 -0.78805554 2.4903538
-1.0750184 -0.80895442 2.4569659
-1.0149097 -0.89339864 2.406239
-1.0277164 -0.94594121 2.394959
-1.0026925 -0.98980975 2.3711119
-0.96714163 -0.96226358 2.3653762
-0.85831451 -0.9349001 2.3299809
-0.84461117 -0.93638563 2.3239796
-0.79488897 -0.81859779 2.3407781
-0.78750992 -0.78873116 2.3471498
-8.674119 -1.5599151 5.2917175
-8.7604713 -1.5929382 5.3162613
-8.6894121 -1.5881218 5.2890625
-8.6181183 -1.5809982 5.2624922
-2.1031981 -1.5119694 2.6521835
-2.2209382 -1.5162963 2.6983938
-2.3300161 -1.5188673 2.7416544
-2.383327 -1.502326 2.7683711
-2.4058723 -1.5066533 2.776124
-2.4587564 -1.5073507 2.7972698
-2.5166783 -1.503427 2.821898
-2.6026287 -1.4806591 2.8637505
-2.620502 -1.4775329 2.8719501
-2.7444789 -1.4782935 2.9217966
-2.8198195 -1.3758061 2.9843271
-2.8339982 -1.2842743 3.0187185
-2.8801634 -1.1694832 3.0733156
-2.8274345 -1.0834422 3.0789578
-2.7814584 -1.0087249 3.0837822
-2.7833722 -0.96615082 3.0978873
-2.9303484 -0.91806942 3.1723204
-2.885499 -0.78776819 3.1950059
-3.0133088 -0.7801466 3.2490258
-3.0484953 -0.77892435 3.2636232
-6.3724308 1.3341482 5.2681541
-6.3259625 1.3322802 5.2487969
-6.3933296 1.3518317 5.2821345
-8.2834301 1.422503 6.0678358
-8.2160873 1.4006331 6.033782
-8.1638355 1.3324094 5.9913092
-8.1430149 1.3123789 5.9766254
-8.0960255 1.3151536 5.9585109
-8.0244989 1.3245842 5.9325686
-7.9890866 1.3258388 5.9186554
-7.9994965 1.3358543 5.9259973
-8.0705547 1.331038 5.9531956
-8.1526461 1.4261708 6.0161505
-8.1571064 1.427197 6.0182734
-8.1887503 1.4349737 6.0334921
-8.235507 1.4345062 6.0522346
-8.2704544 1.4378657 6.0674047
-8.3535557 1.4269149 6.0975475
-1.7978654 -1.5107173 2.5292261
-1.8750277 -1.5349295 2.5528162
-1.8944161 -1.5280693 2.5627971
-1.8330407 -1.5093261 2.5438719
-1.4993348 -1.0813663 2.5430765
-1.4985182 -1.050831 2.552309
-1.54721 -1.0471559 2.5731306
-0.64094877 -1.2251148 2.1512871
-0.48130012 -1.2644913 2.0744605
-0.4664278 -1.2494228 2.0731711
-0.62111902 -1.2050236 2.1495676
0.80951786 1.4243953 2.3950214
0.78600073 1.4272377 2.4054122
0.75897932 1.4105451 2.4111009
0.73166513 1.396033 2.4175911
-5.6327634 1.3409035 4.9714556
-5.643095 1.3508992 4.9787598
-5.6893287 1.3550749 4.998745
-2.5038855 -0.78631514 3.0412951
-2.478682 -0.77541953 3.0345254
-2.437386 -0.77177835 3.0189826
-2.3971138 -0.77894014 3.0004706
-2.3050754 -0.79012829 2.959785
-2.2112651 -0.79818249 2.9193649
-2.1698742 -0.78777087 2.9059038
-2.1105645 -0.80761456 2.8757296
-2.0968614 -0.80910009 2.8697286
-2.0054474 -0.80082786 2.8353894
-1.9640691 -0.78564781 2.8234267
-1.8708616 -0.67886746 2.819211
-1.8029469 -0.49714765 2.8486805
-1.826782 -0.47010574 2.8667777
-1.8294475 -0.448062 2.8747575
-1.7929821 -0.40476146 2.8735857
-1.7793983 -0.41567236 2.8646812
-1.7715153 -0.42851073 2.8574762
-2.4204311 -0.83136672 2.9934731
-2.3335176 -0.83104932 2.9584606
-2.216774 -0.8359611 2.9097598
-2.0877881 -0.84540635 2.8546939
-2.0731273 -0.84695292 2.8482869
-2.0374539 -0.84372479 2.8348861
-2.0062199 -0.84892708 2.8206391
-1.9498551 -0.86334324 2.793354
-1.8697816 -0.88072187 2.7555635
-1.8226203 -0.78428328 2.766711
-1.8367538 -0.68600154 2.8031979
-5.9202447 1.3909173 5.1032553
-5.9655409 1.4043241 5.1257524
-6.0281839 1.3711505 5.1406713
-5.9922824 1.3769703 5.1279902
-5.9561462 1.3850977 5.1159368
-5.8991117 1.3755417 5.0899029
-5.8768244 1.3590488 5.0757346
-5.8660231 1.3536689 5.0696864
-5.7709951 1.3580463 5.0326672
-5.8519583 1.3679409 5.0684738
-6.1098499 1.3741219 5.1745934
-6.11901 1.3956559 5.1850376
-6.1002216 1.3572032 5.1654058
-7.3188286 1.5701156 5.7243776
-7.3300381 1.5979576 5.7376251
-7.3403492 1.5832245 5.7371769
-7.3511724 1.5709713 5.7377119
-7.3804274 1.5358284 5.7385254
-7.3887444 1.5190108 5.736619
-7.3957205 1.5076218 5.7358704
-7.4089298 1.4899518 5.7356739
-7.4377642 1.4665167 5.7399836
-7.5095105 1.4503655 5.7639103
-7.5630322 1.382992 5.7644339
-7.565536 1.3806689 5.7647181
-7.6231456 1.3422129 5.7759485
-7.5848637 1.3421972 5.7604785
-7.5104694 1.3702788 5.7392178
-7.3850303 1.4131346 5.7019634
-7.3268614 1.3424108 5.6563168
-7.3208704 1.3239899 5.6481276
-7.1681952 1.3461797 5.5933981
-7.1062922 1.3522816 5.5703011
-7.0149603 1.35254 5.5334854
-6.9588633 1.3337533 5.50494
-7.0055661 1.3333137 5.5236692
-7.0769005 1.3262894 5.5502877
-7.1213522 1.3263822 5.5682745
-7.3055487 1.4576166 5.6837835
-7.2763596 1.415221 5.6587152
-0.17823863 -1.500541 1.8781091
-0.11931109 -1.4977252 1.855185
-0.084384918 -1.501426 1.8399165
-0.063195705 -1.5144513 1.8272775
-0.27827644 -0.91502166 2.1018796
-0.23213983 -0.81478792 2.1146293
-0.25178623 -0.7944212 2.1289442
-0.31930399 -0.76495939 2.1654463
-0.35536742 -0.76525438 2.1799231
-0.43049598 -0.76343805 2.2108426
-0.44840217 -0.76330489 2.218118
-0.45502138 -0.76565748 2.2200553
-0.55059385 -0.76749229 2.2580905
-0.57486868 -0.74379689 2.2753174
-0.57550716 -0.74317324 2.2757707
-0.58019853 -0.77664435 2.2671843
-0.58585811 -0.83238786 2.2520146
-0.48594046 -0.83619195 2.2104583
-0.38065648 -0.94734782 2.1331165
-0.4011519 -1.0062375 2.1229548
-0.42011857 -1.0404594 2.1199005
-0.42856359 -1.0778174 2.1116133
-0.38206077 -1.1502036 2.070159
-0.33843303 -1.1428488 2.0548372
-0.30380368 -1.0517377 2.0693793
-0.31244802 -1.0090648 2.0862346
-0.30382347 -0.96764994 2.0957193
-3.1043313 -1.5155864 3.0554929
-3.058382 -1.5222473 3.0348442
-3.0325079 -1.5041863 3.0300474
-3.0928431 -1.5141027 3.0513163
-4.9796906 -0.77258468 4.0457811
-4.9877319 -0.76864612 4.0502629
-5.0616121 -0.77181053 4.0791187
-5.1406927 -0.77226675 4.1109228
-5.1763549 -0.77568591 4.124259
-5.1118178 -0.79629701 4.091733
-5.0577135 -0.93948942 4.0250344
-5.1075263 -1.0104551 4.0229349
-5.1598101 -1.0885608 4.019598
-5.1892056 -1.1165049 4.0227222
-5.1348481 -1.1516562 3.9897552
-5.0900793 -1.1698294 3.9659781
-5.0644865 -1.1540468 3.9605815
-5.0569477 -1.1483797 3.9593108
-5.0517678 -1.1410306 3.9595194
-4.9882674 -1.0935133 3.9487464
-4.9741817 -1.0742038 3.9491029
-4.9592953 -1.0404224 3.9536676
-4.9462981 -0.95503861 3.9751551
-4.956121 -0.90116072 3.9959955
-4.9762115 -0.85167933 4.0196071
-4.9671102 -0.78875852 4.035634
-4.9692783 -0.78254396 4.038456
-6.5927982 1.349647 5.3620324
-6.5709615 1.3411946 5.350564
-6.5819969 1.3442669 5.3559842
0.058976889 -1.4758492 1.7900101
0.11228824 -1.4750817 1.7687135
0.26109004 -1.4102848 1.7288913
0.27160525 -1.4039016 1.7266423
0.30793762 -1.2416887 1.7627618
0.23118973 -1.1904612 1.8098087
0.17176819 -1.1906598 1.8337519
0.11432195 -1.1969321 1.8549951
0.068952799 -1.13868 1.8915653
0.086772442 -1.1147637 1.8918558
0.13029766 -1.0911342 1.881672
0.14750242 -1.0841507 1.8769084
0.19756341 -1.070508 1.8609568
0.24193573 -1.091131 1.8365729
0.25792909 -1.1657444 1.8067465
-3.3398757 -1.5250649 3.1476808
-3.4088876 -1.5366712 3.171926
-3.4116991 -1.5364652 3.1731262
-3.4574065 -1.5274969 3.1943998
-3.3860667 -1.5207117 3.1677046
-6.4893408 -1.5102611 4.4246511
-6.4062204 -1.4994915 4.394444
-6.4522676 -1.4929702 4.4150887
-6.4991369 -1.4805866 4.437901
-6.5930457 -1.4988035 4.4701338
-6.6534233 -1.5110216 4.4906998
-6.745832 -1.4838319 4.5365458
-6.7837219 -1.4710417 4.5558577
-6.848588 -1.471354 4.581965
-6.8844624 -1.4771011 4.5946579
-6.9336252 -1.5005939 4.607162
-6.8611569 -1.4821734 4.5836544
-6.8267202 -1.4902792 4.5672045
-6.7705956 -1.5483977 4.5263309
-6.6803246 -1.5405806 4.4923105
-6.5722208 -1.5187222 4.4554834
-6.5264139 -1.5275519 4.4342132
-4.2327204 -1.5373361 3.5045333
-4.2786698 -1.5306754 3.525182
-4.385921 -1.5431607 3.5646
-4.4133983 -1.5494787 3.5737216
-4.3425856 -1.5565324 3.5429056
-4.2683902 -1.5407288 3.5178809
-6.3058109 -0.77993202 4.5792117
-6.2694564 -0.76956749 4.567771
-6.247488 -0.90183657 4.5174756
-6.1338458 -0.92376375 4.4646993
-6.1047182 -0.91410094 4.4559584
-6.0142379 -0.79108417 4.4579287
-5.9887757 -0.77537787 4.4525609
-5.9429684 -0.78420776 4.4312901
-5.9075727 -0.78307825 4.417345
-5.8424683 -0.78045708 4.3918643
-5.7824106 -0.83864266 4.349381
-5.7378025 -0.84496003 4.3293819
-5.780457 -0.90884495 4.3266077
-5.7884026 -0.91647297 4.3274293
-5.8482513 -0.98031271 4.3316154
-5.8888559 -0.90012586 4.3731298
-5.9659963 -0.89361155 4.406333
-6.0371137 -0.90118086 4.432693
-6.1161537 -1.0655969 4.4131365
-6.1314764 -1.1214577 4.401834
-6.1445251 -1.1368948 4.4022713
-6.2094574 -1.1929797 4.4109397
-6.3298235 -1.1675764 4.4675207
-6.4240074 -1.1195406 4.5206122
-6.4358082 -1.1017156 4.5309615
-6.4184952 -1.0664389 4.5350142
-6.3932724 -1.0530413 4.5290203
-6.3217134 -0.92406929 4.5404992
-6.3608093 -0.85059386 4.5793028
-6.3718414 -0.80412388 4.5983114
-6.3307934 -0.79102081 4.5858316
-5.2476797 -0.78252429 4.1509318
-5.3084531 -0.79711157 4.1709151
-5.4033265 -0.88158488 4.1827898
-5.4215546 -0.88904846 4.1878161
-5.4614134 -0.8007322 4.231575
-5.3670363 -0.77478027 4.2015753
-5.2831011 -0.78363627 4.1648932
-6.2757711 -1.4919405 4.3441091
-6.1916924 -1.4719356 4.3164072
-6.1258402 -1.4788315 4.2876449
-6.0995989 -1.4849777 4.2751188
-6.0554037 -1.481256 4.25843
-5.9919748 -1.4677368 4.2370396
-5.9662724 -1.4497217 4.2322974
-5.883297 -1.4601865 4.1954994
-5.847394 -1.4544601 4.1827888
-5.7733126 -1.2729301 4.2097073
-5.7514901 -1.2797328 4.1987615
-5.6850352 -1.32165 4.1587882
-5.6713591 -1.3386121 4.1479516
-5.6539984 -1.4634566 4.1018424
-5.6082659 -1.5194875 4.0658212
-5.6391006 -1.5220678 4.0774698
-5.6816511 -1.5278282 4.0928559
-5.71804 -1.5178552 4.1106796
-5.7816052 -1.4711885 4.1509724
-5.8281312 -1.4692851 4.1703644
-5.862916 -1.4826063 4.1802454
-5.9447927 -1.4816957 4.2136073
-6.0072403 -1.50453 4.2316847
-6.0994387 -1.501467 4.2698903
-6.123538 -1.4950731 4.2816286
-6.1579752 -1.4869676 4.298079
-6.2054605 -1.4942992 4.3149662
-5.2913117 -1.515381 3.9390628
-5.3382483 -1.5179729 3.9572129
-5.3795547 -1.5006349 3.9793293
-5.4265213 -1.4906416 4.0014324
-5.4659243 -1.4887285 4.0179496
-5.4033122 -1.464823 4.0001416
-5.3662052 -1.4475603 3.9905567
-5.3386822 -1.2618309 4.0375996
-5.3300481 -1.2630537 4.0337286
-5.3410759 -1.4424909 3.9819922
-5.3009005 -1.4984031 3.9482532
-5.2463017 -1.5312469 3.915911
-7.3552256 -1.5010564 4.7773371
-7.2843995 -1.4985471 4.7495103
-7.3450651 -1.5236059 4.766171
-7.4045482 -1.5269023 4.7891688
-7.416358 -1.5307295 4.7927418
-7.4980612 -1.5278378 4.8266535
-7.4272346 -1.5253284 4.7988267
-7.3990602 -1.5220556 4.7884698
-6.797719 -1.2109179 4.642971
-6.7620845 -1.2074797 4.6296515
-6.7552986 -1.1592908 4.6420007
-6.7541747 -1.1312903 4.6503153
-6.7779121 -1.0705155 4.6789365
-6.7964182 -0.995049 4.7100453
-6.8150568 -0.95068359 4.7314682
-6.8138256 -0.91125357 4.7433181
-6.8566532 -0.88750708 4.7680559
-6.9252872 -0.86898708 4.8015828
-6.966095 -0.87978142 4.8146882
-7.0341425 -0.92565829 4.8278117
-7.0743322 -0.92473924 4.8443356
-7.1156845 -1.0039256 4.8362441
-7.130126 -1.0773456 4.8190866
-7.1241426 -1.0835993 4.8147106
-7.1037283 -1.1092687 4.7984257
-7.0250082 -1.1374369 4.757803
-7.0090928 -1.1362439 4.7517467
-6.8767648 -1.1824387 4.6838226
-6.8435268 -1.2020881 4.6642413
0 0 0 1 0 0 0 1 0 0 0 1 0 0 0 0 0 492 1 0 0
