ply
format ascii 1.0
comment PCL generated
element vertex 490
property float x
property float y
property float z
element camera 1
property float view_px
property float view_py
property float view_pz
property float x_axisx
property float x_axisy
property float x_axisz
property float y_axisx
property float y_axisy
property float y_axisz
property float z_axisx
property float z_axisy
property float z_axisz
property float focal
property float scalex
property float scaley
property float centerx
property float centery
property int viewportx
property int viewporty
property float k1
property float k2
end_header
-7.2868347 0.10857378 -2.8750844
-7.3956747 0.18818524 -2.8316061
-7.4068708 0.30814272 -2.8264208
-7.4159193 0.38811123 -2.8223381
-7.4054604 0.42814544 -2.8262117
-7.4438486 0.5480063 -2.8102913
-7.4446201 0.62800205 -2.8094759
-7.5226336 0.68772322 -2.7782953
-7.5227594 0.82771987 -2.7773523
-7.5542784 0.86761338 -2.7646542
-7.5625467 0.94757611 -2.7608795
-7.4820595 1.0278682 -2.7921436
-7.5163584 1.1077372 -2.7780929
-7.5244102 1.1077087 -2.774914
-7.6005063 1.1474445 -2.7446177
-7.5920815 1.1149734 -2.7481511
-7.5941501 1.0674646 -2.7476375
-7.598999 1.0274521 -2.7459784
-7.5962601 0.94745946 -2.74757
-7.5872469 0.90749013 -2.7513833
-7.5899906 0.86748612 -2.7505555
-7.5962577 0.8274644 -2.7483368
-7.5940046 0.78747332 -2.7494817
-7.5984039 0.7474584 -2.7480001
-7.5893917 0.70748895 -2.7518129
-7.5916901 0.67998385 -2.751081
-7.5915728 0.66748202 -2.7512071
-7.5826664 0.62751466 -2.7549784
-7.5848484 0.58750772 -2.7543724
-7.5825949 0.54751658 -2.7555172
-7.582665 0.50751966 -2.7557447
-7.5802689 0.42752734 -2.7572012
-7.5847745 0.3875145 -2.7556777
-7.6755881 0.2671921 -2.720592
-7.6867456 0.22715549 -2.7164423
-7.6709747 0.18720774 -2.7229238
-7.6776619 0.10718793 -2.7207942
-7.6740112 0.063585408 -2.7225137
-7.6665249 0.025521608 -2.7257123
-7.6621561 -0.016186481 -2.7277031
-7.6712823 -0.056389164 -2.7243567
-7.6751585 -0.092801496 -2.7230587
-7.6731167 -0.13278839 -2.7241197
-7.6735935 -0.13611136 -2.7239528
-7.6795921 -0.21281241 -2.722074
-7.6795559 -0.25281146 -2.7223434
-7.6729593 -0.30778426 -2.7252984
-7.6613064 -0.31630009 -2.7299535
-7.5752211 -0.37243572 -2.7642984
-7.5686207 -0.4428044 -2.7673531
-7.5685315 -0.52280235 -2.7678988
-7.5641413 -0.56272638 -2.7698867
-7.5640526 -0.64272434 -2.7704325
-7.5501242 -0.68267828 -2.7761865
-7.5228286 -0.72269863 -2.7872179
-7.5193238 -0.73270106 -2.7886653
-7.4594588 -0.7973882 -2.8127127
-7.4505377 -0.84234917 -2.8165221
-7.4237881 -0.88229078 -2.8273373
-7.4147501 -0.92224091 -2.8311605
-7.4126205 -0.95224178 -2.8321929
-7.411911 -0.96224207 -2.8325367
-7.4146166 -1.0422379 -2.8319788
-7.412498 -1.0622389 -2.832943
-7.4103794 -1.08224 -2.8339071
-7.4235611 -1.1672274 -2.8292453
-7.4123421 -1.2022353 -2.8338978
-7.4143934 -1.2422327 -2.833343
-7.4318171 -1.282218 -2.8267193
-7.4247413 -1.3622214 -2.8300235
-7.4011202 -1.4021269 -2.8396039
-7.3878183 -1.3970703 -2.8448229
-7.3722868 -1.3220621 -2.8504763
-7.3701577 -1.2420547 -2.8508062
-7.3386192 -1.161936 -2.8627465
-7.3414283 -1.1494342 -2.861558
-7.351573 -1.0831724 -2.8571301
-7.3593817 -1.0419565 -2.8537841
-7.3527861 -0.98942953 -2.8560529
-7.3439455 -0.96189243 -2.8593674
-7.3617334 -0.92196912 -2.8520899
-7.351553 -0.84193444 -2.8555984
-7.2709103 -0.74164224 -2.8867965
-7.2242446 -0.74149972 -2.9052191
-7.1379232 -0.72120982 -2.9391694
-7.1066122 -0.73605496 -2.9516258
-7.0599494 -0.73341256 -2.9700315
-6.9921846 -0.74023336 -2.9968286
-6.9567013 -0.75022411 -3.0109012
-6.9433923 -0.75272077 -3.0161715
-6.9212122 -0.75771505 -3.02496
-6.8713145 -0.75516456 -3.0446434
-6.839076 -0.75519097 -3.0573714
-6.7891741 -0.74487114 -3.0770071
-6.7536793 -0.75221974 -3.0910673
-6.7332573 -0.75266439 -3.0991325
-6.7148104 -0.7526595 -3.1064153
-6.7036853 -0.75265342 -3.1108077
-6.6970592 -0.75265497 -3.1134238
-6.6374307 -0.75927353 -3.1370072
-6.6315975 -0.75925571 -3.1393101
-6.544188 -0.89011043 -3.1746545
-6.5242605 -0.91260487 -3.1826653
-6.4262967 -0.75757974 -3.2203524
-6.3796444 -0.74506491 -3.2386911
-6.308609 -0.73004711 -3.2666402
-6.2229667 -0.71252155 -3.3003397
-6.1554761 -0.73250502 -3.3271127
-6.1443462 -0.72999907 -3.331491
-6.0621901 -0.71747518 -3.3638463
-6.0267067 -0.72746605 -3.377919
-5.9202118 -0.73493886 -3.4200108
-5.873559 -0.72242397 -3.4383495
-5.7559147 -0.71739101 -3.4847634
-5.6227384 -0.71235412 -3.5373096
-5.6027775 -0.71734893 -3.545222
-5.480773 -0.75231409 -3.5936127
-5.4342995 -0.83229762 -3.6124709
-5.4286995 -0.87229568 -3.6149368
-5.4300165 -0.91229504 -3.6146722
-5.4211721 -0.93479043 -3.6183076
-5.4167805 -0.95229095 -3.620153
-5.3858914 -1.0497793 -3.6329701
-5.3903728 -1.07228 -3.6313443
-5.386003 -1.1072782 -3.6332929
-5.3683314 -1.1422751 -3.6404929
-5.3216839 -1.1322603 -3.6588454
-5.303925 -1.1347537 -3.6658726
-5.2329283 -1.1397356 -3.6939342
-5.2217932 -1.1347296 -3.6982982
-5.1153083 -1.1472024 -3.7404182
-5.0686798 -1.1471872 -3.758827
-5.0004649 -1.1521707 -3.7857902
-4.992816 -1.1521666 -3.78881
-4.9532738 -1.1521547 -3.8044212
-4.9524455 -1.1521549 -3.8047481
-4.836401 -1.1521217 -3.8505623
-4.801394 -1.1521139 -3.8643832
-4.7624097 -1.149603 -3.8797584
-4.7357564 -1.1520929 -3.8902969
-4.6907129 -1.1520846 -3.9080801
-4.6336594 -1.154564 -3.9306207
-4.6092863 -1.1570607 -3.940259
-4.5626535 -1.1545458 -3.9586537
-4.5004873 -1.1520269 -3.983181
-4.4805264 -1.1570216 -3.9910934
-4.3997765 -1.1519985 -4.0229416
-4.3895097 -1.1519955 -4.0269947
-4.3385286 -1.1644856 -4.0472016
-4.2876267 -1.1119692 -4.0669632
-4.256218 -1.0719632 -4.0791078
-4.2161222 -0.99195462 -4.0944271
-4.177331 -0.95194316 -4.1094866
-4.1459222 -0.91193718 -4.1216316
-4.0996795 -0.75192541 -4.1388674
-3.9848166 -0.74689388 -4.1841831
-3.8782864 -0.7518636 -4.2262731
-3.7850599 -0.75183672 -4.2630787
-3.7112725 -0.75181717 -4.2922101
-3.6363604 -0.75179577 -4.3217854
-3.549767 -0.73927087 -4.3558927
-3.5142732 -0.74426174 -4.3699374
-3.4773941 -0.75175184 -4.3845453
-3.3974261 -0.79172814 -4.4163718
-3.3952518 -0.79172736 -4.4172301
-3.3145123 -0.74670452 -4.4488192
-3.2257335 -0.75167871 -4.4839005
-3.1969261 -0.771671 -4.4954014
-3.1259198 -0.77165294 -4.5234346
-3.0664663 -0.75583744 -4.5468059
-3.0124187 -0.7516225 -4.5681171
-3.006856 -0.75161946 -4.5703135
-2.9713531 -0.75161052 -4.5843301
-2.9133244 -0.74802065 -4.6072168
-2.8778152 -0.73545116 -4.6211557
-2.8423107 -0.73538136 -4.6351724
-2.7956836 -0.7302736 -4.6535482
-2.7101007 -0.79008287 -4.6877184
-2.6980424 -0.79006428 -4.6924787
-2.5604172 -0.73727882 -4.7464762
-2.4894083 -0.73713934 -4.7745099
-2.44278 -0.72953165 -4.79287
-2.3651357 -0.78937781 -4.8239059
-2.3258774 -0.82928455 -4.8396602
-2.2541385 -0.73414475 -4.8673754
-2.1897516 -0.70900249 -4.8926353
-2.0853658 -0.66874951 -4.9335899
-2.0738688 -0.66873604 -4.9381289
-2.0188255 -0.61365253 -4.9595084
-1.9429417 -0.58849692 -4.9893069
-1.936635 -0.44847834 -4.9909034
-1.9721384 -0.44604811 -4.976871
-2.0586305 -0.30872098 -4.9418478
-2.0009243 -0.20861927 -4.9639916
-2.0009098 -0.16862009 -4.9637423
-2.000895 -0.12862091 -4.9634924
-2.0008802 -0.08862175 -4.9632435
-1.9788992 0.071424097 -4.9709001
-1.9896715 0.1514114 -4.9661369
-2.0025439 0.19139238 -4.9607997
-2.0007629 0.23137161 -4.9612474
-2.0269132 0.23135994 -4.9509239
-2.0783982 0.24623509 -4.9305024
-2.1960227 0.27348718 -4.8838902
-2.2314987 0.35091582 -4.86939
-2.2381666 0.39088562 -4.8665028
-2.1404853 0.51107484 -4.9043007
-2.0490518 0.51127785 -4.9403973
-2.0671659 0.55126691 -4.9329906
-2.136003 0.6310811 -4.9053044
-2.1366832 0.67107791 -4.9047804
-2.2967436 0.7507354 -4.8410802
-2.3001976 0.80822223 -4.8393497
-2.2987847 0.87072575 -4.839509
-2.3045835 0.95071054 -4.836709
-2.3112004 0.99071294 -4.8338413
-2.3001049 1.0607171 -4.8377752
-2.3001013 1.0707169 -4.8377128
-2.3000867 1.1107159 -4.8374634
-2.3216758 1.1506929 -4.8286848
-2.3244264 1.2306818 -4.8270888
-2.3264823 1.310673 -4.8257666
-2.3177509 1.3506762 -4.8289585
-2.3709977 1.378071 -4.8077617
-2.4176192 1.3879629 -4.7892923
-2.4531248 1.3853931 -4.7752914
-2.5241358 1.3802537 -4.7472887
-2.5596416 1.3776842 -4.7332873
-2.6062658 1.3800763 -4.7148647
-2.6528912 1.3799683 -4.6964579
-2.7239013 1.377329 -4.6684399
-2.7949138 1.3671898 -4.6404686
-2.8666248 1.3495482 -4.6122699
-2.9062996 1.3494641 -4.5966067
-2.9591711 1.3743343 -4.5755744
-2.9769301 1.3717989 -4.5685792
-3.0235548 1.3741909 -4.5501566
-3.0413001 1.3766568 -4.5431347
-3.0768056 1.3740871 -4.5291338
-3.0945644 1.3715515 -4.5221386
-3.121737 1.3490108 -4.5115547
-3.2099628 1.3488253 -4.4767241
-3.2477064 1.3637346 -4.4617276
-3.2943292 1.3711265 -4.443274
-3.3653393 1.368487 -4.415256
-3.4119635 1.3708792 -4.3968334
-3.4829755 1.3632399 -4.3688464
-3.5296052 1.3506323 -4.3505173
-3.5692809 1.3480482 -4.3348699
-3.6827564 1.3178159 -4.2902627
-3.7203496 1.3077391 -4.275485
-3.8776588 1.3074079 -4.2133813
-3.9166386 1.3073261 -4.1979923
-3.9945984 1.3071629 -4.1672149
-4.1080623 1.3069298 -4.1224208
-4.186717 1.3067641 -4.0913687
-4.2243004 1.3241868 -4.0764198
-4.3467917 1.3464224 -4.0279179
-4.3829913 1.3463502 -4.0136271
-4.4129357 1.3462995 -4.0018053
-4.4595561 1.3586916 -3.9833202
-4.4950628 1.3536218 -3.9693346
-4.52918 1.3460569 -3.9559135
-4.566072 1.3534824 -3.9413011
-4.5939336 1.3459389 -3.9303493
-4.683702 1.3657347 -3.8947823
-4.7414513 1.3555889 -3.8720477
-4.8013391 1.3579875 -3.8483887
-4.8479614 1.3653795 -3.8299348
-4.8945875 1.3627716 -3.8115435
-4.9475322 1.3451945 -3.7907529
-5.0011034 1.3575625 -3.7695241
-5.0366077 1.3574929 -3.7555072
-5.072113 1.3549231 -3.7415061
-5.1187367 1.3598152 -3.723068
-5.0582604 1.2249734 -3.7478044
-5.0583191 1.0649768 -3.7488022
-5.1780386 1.0647223 -3.7015386
-5.2135577 1.0246534 -3.6877711
-5.3291216 0.98441398 -3.6424031
-5.3694916 0.98432755 -3.6264656
-5.4583354 1.0740392 -3.5908175
-5.4686022 1.0740266 -3.5867641
-5.5000997 1.073987 -3.5743294
-5.5684881 1.0739102 -3.5473299
-5.6927767 1.0762714 -3.4982457
-5.8112411 1.0736412 -3.4514923
-5.8871617 1.0335612 -3.4217746
-5.9658413 1.0134726 -3.3908401
-6.0056386 0.91342878 -3.3757663
-6.0925703 0.83333516 -3.3419569
-6.121428 0.71330637 -3.3313293
-6.2773471 0.71313244 -3.2697735
-6.2171526 0.59320086 -3.2943039
-6.3158736 0.5130949 -3.2558398
-6.2784309 0.39313632 -3.2713876
-6.3183012 0.23309369 -3.2566679
-6.3553295 0.12055883 -3.2427673
-6.2035952 0.11321999 -3.3027186
-6.2420731 -0.046818301 -3.2885489
-6.3555326 -0.046937991 -3.2437558
-6.3945608 -0.086980745 -3.2286029
-6.4718728 -0.12706481 -3.1983359
-6.5108528 -0.12710834 -3.1829467
-6.5102539 -0.20710464 -3.1836936
-6.5499859 -0.27261525 -3.1684253
-6.588407 -0.3671886 -3.1538601
-6.6679306 -0.43264541 -3.1228819
-6.7459679 -0.47266647 -3.0923281
-6.8226471 -0.48007575 -3.0621023
-6.9002457 -0.36753666 -3.0307481
-6.9011912 -0.47270969 -3.0310459
-7.0489783 -0.54592609 -2.9731665
-7.1256132 -0.48122588 -2.9424982
-7.2858133 -0.4018186 -2.8787444
-7.2845049 -0.32182175 -2.8787503
-7.2866035 -0.14892012 -2.8768187
-7.2866306 -0.11892083 -2.8766165
-7.2866821 -0.061422188 -2.8762293
-1.2862525 -0.30710623 -5.2467732
-1.3018208 -0.40213478 -5.2412329
-1.3950288 -0.28735289 -5.203702
-1.3546445 -0.24726048 -5.2193899
-1.3121443 -0.24550119 -5.2361579
-7.0852113 0.18929598 -2.9541705
-7.0845118 0.18929833 -2.9544466
-7.0739636 0.12933497 -2.9589937
-6.6867208 1.4156866 -3.1036694
-6.6468019 1.4151669 -3.1194329
-6.6400456 1.415851 -3.1220961
-6.6001654 1.4152342 -3.1378446
-6.5869355 1.4176974 -3.1430521
-6.6045685 1.420978 -3.1360698
-6.6512461 1.4233134 -3.1176262
-6.7045679 1.4200646 -3.0965955
-6.7110133 1.4205972 -3.0940475
-6.7464948 1.4204702 -3.0800402
-6.7755585 1.4274992 -3.068521
-6.811058 1.4274665 -3.0545058
-6.8200026 1.4302145 -3.0509572
-6.8286629 1.4326786 -3.0475223
-6.870903 1.4424355 -3.0307837
-6.9885654 1.4198033 -2.9844749
-7.024065 1.4197707 -2.9704597
-7.0595613 1.4222379 -2.95643
-7.0994306 1.4417144 -2.9405651
-7.1698823 1.4289705 -2.9128323
-7.1927729 1.4313858 -2.9037795
-7.1148472 1.4691622 -2.9343038
-7.0864162 1.5292643 -2.9451447
-7.0133362 1.5095257 -2.974123
-6.9687595 1.5096831 -2.9917207
-6.8978209 1.5374364 -3.0195501
-6.875514 1.5100143 -3.028532
-6.8043756 1.4327679 -3.0571103
-6.7875824 1.4303242 -3.063756
-6.7488275 1.4304641 -3.0790555
-4.595808 0.025961325 -3.9380319
-4.6333976 0.025884438 -3.9231918
-4.6723776 0.025802786 -3.9078031
-4.6797299 0.025787324 -3.9049006
-4.7113576 0.025721131 -3.8924143
-4.7899976 0.065554619 -3.8611128
-4.7105889 0.22571939 -3.8914413
-4.6907516 0.22576143 -3.8992729
-4.6716094 0.22580105 -3.9068303
-4.558145 0.2260341 -3.9516246
-4.5198851 0.15861477 -3.9671597
-4.9803739 1.0251409 -3.7798293
-4.8613644 0.98539382 -3.8270681
-4.7458296 0.9456349 -3.8729351
-4.6678405 1.0257965 -3.9032137
-4.6657405 1.0658028 -3.9037874
-4.7436624 1.1681374 -3.8723707
-4.7443366 1.2256339 -3.8717377
-4.824337 1.345461 -3.8393888
-4.8674874 1.345365 -3.8223538
-4.9419866 1.3052145 -3.7931974
-4.9789143 1.2151418 -3.7791932
-6.2196136 0.39320263 -3.2946084
-6.2085686 0.35321364 -3.2992239
-6.1254907 0.23330474 -3.3327885
-5.9708662 0.31347293 -3.3933227
-5.970818 0.35347214 -3.3930864
-6.0472398 0.47338715 -3.36215
-6.0752082 0.51335752 -3.350853
-4.5566373 0.54603231 -3.9501779
-4.4425077 0.46626934 -3.9957454
-4.4808364 0.34619254 -3.9813793
-4.6318607 0.42588097 -3.9212463
-5.1003428 0.3449004 -3.7368057
-5.1010528 0.30489886 -3.7367809
-5.1856985 0.22472411 -3.7038741
-5.3061228 0.314219 -3.6557596
-5.2952275 0.38449132 -3.6596127
-5.1378889 0.46482104 -3.7212174
-5.929265 0.75351447 -3.406939
-5.8490715 0.87360579 -3.4378333
-5.8114843 0.87364495 -3.4526727
-5.736454 0.75372553 -3.4830596
-5.5827203 0.67389458 -3.5442634
-5.5814252 0.5939005 -3.5452852
-5.6587858 0.51381713 -3.515254
-5.7735882 0.5536924 -3.4696755
-5.811872 0.55365098 -3.4545612
-5.8898315 0.55356401 -3.4237833
-5.9293137 0.71351528 -3.4071751
-4.5839777 0.86597383 -3.9373426
-4.5154552 0.86611456 -3.9643943
-4.4750266 1.0261977 -3.9793341
-4.5501914 1.066043 -3.9494047
-4.6664648 0.98580205 -3.9040117
-6.3871799 1.4054303 -3.2219942
-6.4359217 1.3929346 -3.2028306
-6.4470153 1.3929244 -3.1984508
-6.4981127 1.4088591 -3.1781759
-6.5180392 1.4078342 -3.1703155
-6.5403028 1.4152648 -3.1614783
-6.41154 1.4079322 -3.2123606
-6.4626288 1.406486 -3.1921999
-6.2473173 1.3681331 -3.2774501
-6.3050594 1.3930305 -3.2544944
-6.2939234 1.3930653 -3.2588909
-6.2340446 1.4055957 -3.2824512
-6.1519122 1.4031957 -3.3148923
-6.2117963 1.3856654 -3.2913618
-3.2363365 0.14880003 -4.473969
-3.1980958 0.028881779 -4.4898314
-3.1194448 0.019047668 -4.5209455
-3.0612688 0.14916721 -4.5430832
-4.4427133 -0.09371914 -3.9992373
-4.3264689 -0.093476549 -4.0451293
-4.3257151 0.066522546 -4.0444059
-4.4036598 0.10635841 -4.0133791
-4.5021958 -0.013846824 -3.975244
-3.6962423 0.71033484 -4.2888145
-3.7561328 0.54768509 -4.2662077
-3.860543 0.6674642 -4.2242222
-3.2394888 1.0287701 -4.4671097
-3.2785273 0.86869168 -4.4527183
-3.3578768 0.86852354 -4.421392
-3.435112 0.94836104 -4.3903904
-3.4343731 1.0683609 -4.3899164
-3.3570938 1.108521 -4.4201698
-3.3167241 1.1086074 -4.4361076
-2.96595 0.98934484 -4.5753546
-2.9659352 1.029344 -4.5751052
-2.9652107 1.1093446 -4.5748806
-2.8290935 1.1896285 -4.6281075
-2.7087083 1.1098869 -4.6761446
-2.7498174 0.98980057 -4.6606808
-2.8572149 0.90957713 -4.6187921
-2.7082627 0.42990339 -4.6806593
-2.626133 0.43008101 -4.7130833
-2.5071084 0.43033311 -4.7600727
-2.4579062 0.31043944 -4.7802625
-2.5475516 0.23025082 -4.7453823
-2.4424462 0.11047409 -4.787642
-2.5556719 0.030237142 -4.7434525
-2.5887339 -0.089831322 -4.7311659
-2.7487938 -0.010173876 -4.6674657
-2.7480845 0.02982766 -4.6674905
-2.7576265 0.10980618 -4.6632128
-2.7480407 0.14982517 -4.6667418
-2.662138 0.23000745 -4.7001448
-2.6679664 0.22999395 -4.697844
-2.7083364 0.22990756 -4.6819062
-2.7620201 0.22979499 -4.6607127
-2.9045959 0.30949286 -4.6039152
-2.8279676 0.46964806 -4.6331458
-2.7486324 0.42981702 -4.664722
-4.9459162 0.065228008 -3.7995582
-4.9260788 0.065270022 -3.8073895
-4.8297162 -0.054526951 -3.8461981
-4.8680305 -0.13460457 -3.8315825
-5.0260315 -0.1274385 -3.7691579
-5.0459914 -0.094978392 -3.7610705
-5.0621901 -0.015012924 -3.7541652
-2.6264262 -0.36990237 -4.7180719
-2.588208 -0.5498262 -4.7343082
-2.7448072 -0.51015604 -4.6722298
-2.6654062 -0.36998403 -4.702683
-3.6366041 0.027950229 -4.3167138
-3.5600052 0.10810713 -4.3464437
-3.6379209 0.22794133 -4.314918
-3.6775956 0.22785731 -4.2992549
-3.7158804 0.22777805 -4.2841406
-3.7938838 0.1076172 -4.2541113
-3.7131736 0.027791686 -4.2864852
-3.6762791 0.027866196 -4.3010507
0 0 0 1 0 0 0 1 0 0 0 1 0 0 0 0 0 490 1 0 0
