ply
format ascii 1.0
comment PCL generated
element vertex 633
property float x
property float y
property float z
element camera 1
property float view_px
property float view_py
property float view_pz
property float x_axisx
property float x_axisy
property float x_axisz
property float y_axisx
property float y_axisy
property float y_axisz
property float z_axisx
property float z_axisy
property float z_axisz
property float focal
property float scalex
property float scaley
property float centerx
property float centery
property int viewportx
property int viewporty
property float k1
property float k2
end_header
1.6958995 -1.3275465 2.1898537
1.7175846 -1.367849 2.2002611
1.7257543 -1.2928603 2.2040677
1.7277341 -1.2878628 2.2050066
1.735745 -1.2478728 2.2087817
1.7460766 -1.1278877 2.2135634
1.7327418 -1.0478745 2.2070932
1.7387948 -1.0078824 2.2099333
1.7093954 -0.94257176 2.1958098
1.7096462 -0.88757348 2.1958594
1.7121501 -0.76757932 2.1969028
1.7101927 -0.76757705 2.1959682
1.7101812 -0.77007699 2.1959658
1.6820898 -0.84726429 2.1826477
1.656127 -0.8869549 2.1702986
1.6518483 -0.96694803 2.1683569
1.6594939 -1.0069557 2.1720595
1.6357241 -1.1268384 2.1608596
1.6364813 -1.2068546 2.1613231
1.6407075 -1.2644277 2.1634145
-2.8792892 1.1264334 0.0016971081
-2.9000487 1.1291811 -0.0082208514
-2.8961184 1.1341939 -0.0063501447
-2.8783016 1.1314366 0.0021624416
-3.4778068 1.3723125 -0.28445786
-3.4811513 1.3698609 -0.28605205
-3.5132868 1.3700125 -0.30139965
-3.5414987 1.3701768 -0.31487334
-3.5448399 1.3702252 -0.31646919
-3.5762119 1.3826222 -0.33146769
-3.5940223 1.3903797 -0.33998343
-3.6432011 1.4130342 -0.36349934
-3.5897536 1.4022617 -0.33795995
-3.5270092 1.3774674 -0.30796272
-0.36883378 -0.77458918 1.2030669
-0.32833147 -0.77445018 1.22241
-0.26568389 -0.77698481 1.2523328
-0.23435473 -0.77700222 1.267295
-0.20603442 -0.77549273 1.2808186
-0.19705582 -0.77564359 1.2851068
-0.18808126 -0.77579182 1.2893931
-0.1791029 -0.77594274 1.2936811
-0.16574311 -0.77567959 1.3000612
-0.15841866 -0.7756958 1.3035593
-0.14778996 -0.77597868 1.3086358
-0.1388154 -0.77612698 1.312922
-0.11794138 -0.78288513 1.3228997
-0.095797062 -0.7907722 1.3334855
-0.096158028 -0.8682698 1.3334116
-0.0937047 -0.87529391 1.3345922
-0.07589674 -0.91619003 1.3431491
-0.07686162 -0.92369449 1.3426976
-0.014965057 -1.0837615 1.372462
0.011944056 -1.0892115 1.3853202
0.10585952 -1.0943191 1.4301794
0.18767309 -1.0384432 1.4691811
0.281672 -1.0803049 1.5141268
0.31298494 -1.0803409 1.5290813
0.34768677 -1.075433 1.5456482
0.36561704 -1.0807321 1.5542181
0.3958075 -1.0807493 1.5686367
0.41390443 -1.081066 1.5772798
0.42075396 -1.081074 1.580551
0.44617271 -1.086103 1.592697
0.47750831 -1.0811391 1.6076561
0.49542737 -1.088938 1.6162238
0.56252098 -1.1170716 1.6483026
0.59396863 -1.1623852 1.663379
0.59770036 -1.2023884 1.665212
0.52424574 -1.281745 1.6302322
0.51242399 -1.2992308 1.6246085
0.495049 -1.4419338 1.6164918
0.56404233 -1.5221155 1.6495439
0.51926494 -1.5218551 1.6281586
0.49966788 -1.5217106 1.6187991
0.48010874 -1.5191883 1.6094548
0.3950305 -1.5212424 1.5688255
0.34991312 -1.520703 1.5472775
0.31432414 -1.5253835 1.5302866
0.26968551 -1.518111 1.5089587
0.23837304 -1.518075 1.4940042
0.17123365 -1.4999412 1.4619166
0.15785098 -1.5052042 1.4555318
0.12187672 -1.5196054 1.4383694
0.18447948 -1.5246772 1.4682739
-0.42255569 -0.78117454 1.1774186
-0.49867368 -0.77636421 1.1410598
-0.50313067 -0.77829301 1.1389335
-0.61505175 -0.77537292 1.0854782
-0.65983582 -0.77310091 1.0640872
-0.71353436 -0.7746864 1.0384436
-0.76277518 -0.77434319 1.0149264
-0.82546663 -0.7742663 0.98498595
-0.87469625 -0.7714231 0.96147108
-0.91948032 -0.76915109 0.94008005
-0.92590594 -0.95355511 0.93724561
-0.92086935 -0.95357895 0.93965113
-0.84407234 -0.92645669 0.97629356
-0.76332259 -0.8918395 1.0148144
-0.74543881 -0.8946442 1.0233591
-0.69619751 -0.89498746 1.0468763
-0.62817407 -0.91563606 1.0793895
-0.54861331 -0.92601621 1.1173996
-0.41879678 -0.92924106 1.179402
-0.34486246 -0.91700888 1.2146963
-0.28900337 -0.93746579 1.2413998
-0.25473976 -1.0370632 1.25789
-0.25380754 -1.077081 1.2583861
-0.24502277 -1.1122324 1.2626263
-0.22562742 -1.1351826 1.2719183
-0.21388674 -1.1572694 1.2775537
-0.18549538 -1.1703683 1.2911295
-0.17327809 -1.1720264 1.2969663
-0.098674059 -1.2783483 1.3327312
-0.096636772 -1.3233831 1.3337615
-0.098346472 -1.3382552 1.3329638
-0.1023581 -1.3582495 1.3310734
-0.10725927 -1.4626014 1.3288653
-0.17812657 -1.523006 1.295097
-0.20048356 -1.5281208 1.2844261
-0.21844816 -1.5303214 1.2758493
-0.20604753 -1.5319993 1.2817738
-0.17470884 -1.5295167 1.2967376
-0.14223194 -1.5261042 1.3122436
-0.13056564 -1.5257107 1.3178148
-0.090503693 -1.5185258 1.3369386
-0.061958551 -1.5186965 1.3505714
-0.017003536 -1.5312479 1.3720573
-0.0080134869 -1.5288988 1.3763478
0.072610617 -1.5192702 1.4148403
0.041332006 -1.5117345 1.3998926
0.042220354 -1.3167405 1.4000689
0.092608213 -1.3170943 1.4241339
0.19898319 -1.3203954 1.4749411
0.35110712 -1.3334877 1.5476097
0.30107808 -1.5006475 1.5239291
-7.3835969 -1.551286 -2.1460848
-7.3700423 -1.5609257 -2.1395991
-7.352222 -1.5611835 -2.131088
-4.8933077 1.4479139 -0.96057463
-4.9425235 1.4431398 -0.98407322
-4.9111328 1.4407179 -0.9690786
-7.7265196 0.74481469 -2.312778
-7.7151208 0.58484918 -2.3071308
-7.689558 0.54456609 -2.2948709
-7.7016125 0.42454058 -2.3004756
-7.7155895 0.38485557 -2.3071003
-7.8348393 0.26149708 -2.3638954
-7.818934 0.18163109 -2.3561974
-7.762639 0.10157824 -2.3292103
-7.7556143 0.021812916 -2.3257542
-7.7712283 -0.018316984 -2.3331599
-7.79282 -0.058147222 -2.3434215
-7.7899051 -0.098100454 -2.3419785
-7.7885828 -0.18561 -2.3412356
-7.8021541 -0.25822225 -2.3476248
-7.7193317 -0.37512499 -2.3079214
-7.7172804 -0.39786243 -2.3069129
-7.7227006 -0.48521549 -2.3093905
-7.7247481 -0.55792242 -2.310276
-7.7226868 -0.59790468 -2.3092408
-7.7284813 -0.63795251 -2.3119569
-7.724359 -0.71791685 -2.3098869
-7.7269483 -0.72522217 -2.3111143
-7.7321181 -0.75798106 -2.3135414
-7.6906924 -0.79798394 -2.2937064
-7.6767874 -0.84539014 -2.2870054
-7.6747875 -0.87784982 -2.2860088
-7.6464019 -0.88558578 -2.2724428
-7.6354284 -0.88543147 -2.2672019
-7.5950665 -0.88604963 -2.2479248
-7.5987406 -1.0854043 -2.2494264
-7.5886502 -0.88610756 -2.2448606
-7.5595899 -0.88624948 -2.2309818
-7.6040359 -0.79330862 -2.2523265
-7.5996804 -0.75836003 -2.2502909
-7.6163225 -0.64612621 -2.2583814
-7.6182566 -0.59843016 -2.2593656
-7.6166811 -0.4384194 -2.2588167
-7.6006031 -0.37837163 -2.2512145
-7.6051345 -0.34082437 -2.2534261
-7.6051459 -0.33582285 -2.253438
-7.5981798 -0.28607774 -2.2501745
-7.6104436 -0.21625274 -2.2561202
-7.6102557 -0.13625535 -2.2561321
-7.6234956 -0.093130231 -2.2625103
-7.6192374 -0.018183112 -2.260572
-7.6148949 0.021765232 -2.2585487
-7.6096945 0.103737 -2.2561693
-7.6107459 0.1417107 -2.2567196
-7.6119528 0.18172187 -2.2573466
-7.61871 0.22179586 -2.2606249
-7.6210275 0.2618196 -2.2617826
-7.6200147 0.30180568 -2.2613497
-7.6091318 0.34372926 -2.2562056
-7.605114 0.38373786 -2.2543373
-7.620306 0.42180145 -2.2616415
-7.6215134 0.46181256 -2.2622685
-7.61939 0.50178617 -2.2613058
-7.6195846 0.58178324 -2.2614999
-7.6142282 0.66171759 -2.2590437
-7.6122131 0.70370799 -2.2581348
-7.6256204 0.78183919 -2.264637
-7.6223869 0.82180005 -2.2631435
-7.6000652 0.86373216 -2.2525363
-7.6353455 0.94398946 -2.2694874
-7.6262026 1.0218306 -2.2652202
-7.6107593 1.0616534 -2.257895
-7.6119666 1.1016645 -2.2585225
-7.6557941 1.1815374 -2.2795558
-7.6699162 1.2638912 -2.2864046
-7.6583052 1.3015583 -2.2809076
-7.6552329 1.3427622 -2.2794924
-7.6679139 1.3442414 -2.2855506
-7.6899967 1.3419919 -2.2960939
-7.7054381 1.3044977 -2.303421
-7.7310328 1.2220006 -2.3155398
-7.728972 1.1820183 -2.3145046
-7.7314692 1.1447873 -2.31565
-7.7316566 1.0647898 -2.3156381
-7.7266197 1.0220404 -2.3131781
-7.7113986 0.98316461 -2.3058591
-7.7301631 0.86480111 -2.3146706
-7.7307839 0.82488805 -2.3149161
-7.7253132 0.78479439 -2.3122525
0.83747244 1.4178226 1.7763929
0.78447175 1.4252214 1.7510711
0.72541428 1.402916 1.7228947
0.67622161 1.4006286 1.6994039
0.63921547 1.3856542 1.6817493
0.65841222 1.3834012 1.6909202
0.72127795 1.3960204 1.720928
0.80188322 1.3958676 1.759424
0.85104656 1.3856554 1.7829165
0.88658905 1.3876107 1.7998886
0.90023327 1.385443 1.8064077
0.85522938 1.4125504 1.78488
-3.7687573 1.4126239 -0.42346239
-3.8001428 1.4150214 -0.43845469
-3.8415627 1.4100637 -0.45822984
-3.8807683 1.3950741 -0.47693476
-3.8179836 1.4002793 -0.4469564
-3.7865911 1.4028816 -0.43196717
-2.1962528 1.3588824 0.32760888
-2.182663 1.3617103 0.33409572
-2.2024298 1.364464 0.32465184
-2.2454181 1.3790693 0.30410281
-2.2946327 1.3742568 0.28060475
-2.3260028 1.3866863 0.26560706
-2.3752272 1.376874 0.24211073
-1.4259602 -0.89848089 0.6983577
-1.3895752 -0.77159446 0.71557331
-1.5127573 -0.7904883 0.65676749
-1.5373106 -0.77306467 0.64501911
-1.5821062 -0.7732926 0.6236257
-1.5785333 -0.79051363 0.62535399
-1.5824555 -0.84829021 0.62355423
-1.5381653 -0.9510541 0.64483714
-1.5372332 -0.99107182 0.64533311
-1.5522856 -1.1008208 0.63828391
-1.5445029 -1.1109538 0.64201367
-1.5057956 -1.1511505 0.66055071
-1.4428087 -1.1509538 0.69063199
-1.3754712 -1.1113555 0.72274101
-1.340584 -1.0714524 0.73935187
-1.3403977 -1.0314537 0.73939002
-1.4284699 -0.95143604 0.69722646
1.7788692 -0.44822112 2.2283607
1.7948313 -0.3770861 2.2358937
1.7910914 -0.29709572 2.2340059
1.7716408 -0.17683035 2.2245636
1.7985492 -0.13697168 2.2373638
1.777719 -0.096821278 2.227365
1.7799644 0.023179233 2.2282848
1.7923546 0.063125134 2.2341514
1.7958736 0.14307195 2.2357302
1.7938399 0.22310388 2.2346573
1.7918072 0.30313581 2.2335849
1.7722816 0.26468462 2.2243085
1.7547169 0.1834324 2.216023
1.7664046 0.14345586 2.2216558
1.7219744 0.023662031 2.2005892
1.6931834 -0.016066432 2.1868892
1.6890683 -0.09607178 2.1850257
1.6808381 -0.25608239 2.1812987
1.6807446 -0.29608133 2.1813049
1.7296286 -0.36760947 2.204742
1.7509265 -0.41678587 2.2149758
-3.5749469 -0.8279416 -0.32805383
-3.5545228 -0.84962428 -0.31827193
-3.4921515 -0.85052568 -0.28848326
-3.4505351 -0.85001469 -0.26860863
-3.4180324 -0.84992826 -0.25308597
-3.3512206 -0.89002454 -0.22112679
-3.3332632 -0.91059685 -0.21252444
-3.3196912 -0.90773678 -0.20604631
-3.3018675 -0.90549445 -0.1975368
-3.207643 -0.86268783 -0.15259111
-3.14062 -0.86810029 -0.12057514
-3.0777915 -0.83039618 -0.090617105
-3.0462112 -0.81060934 -0.075560108
-2.9792984 -0.77570754 -0.043647923
-2.9908984 -0.7710613 -0.049193814
-3.0149291 -0.76769263 -0.060674757
-3.0325887 -0.77025026 -0.069105461
-3.0598967 -0.77565509 -0.082140446
-3.0955377 -0.77513999 -0.099162638
-3.12694 -0.78524226 -0.11414713
-3.2389002 -0.76529288 -0.16764289
-3.2567241 -0.76753533 -0.17615241
-3.3195055 -0.77024031 -0.20613235
-3.3687081 -0.76508546 -0.22963732
-3.4000905 -0.7601881 -0.2446312
-3.4136724 -0.77054793 -0.25110459
-3.4807158 -0.78013515 -0.28311127
-3.5412526 -0.77037269 -0.31203511
-3.5434802 -0.7703405 -0.31309903
-3.5791311 -0.77732521 -0.33011645
-3.7225041 -0.77497792 -0.39859208
-4.7991605 1.430649 -0.91558945
-4.7677937 1.4182274 -0.9005934
-4.7045455 1.4158559 -0.87038404
-4.6694331 1.3977768 -0.85359198
-4.610405 1.3961639 -0.8253991
-4.5888329 1.3976293 -0.8150984
-4.6435719 1.4107394 -0.84125745
-4.6535449 1.4110224 -0.84602082
-4.6731596 1.4134583 -0.85539168
-4.8507586 1.4578018 -0.94026637
-4.8440747 1.4601877 -0.93707734
-4.8127079 1.4477663 -0.92208129
-4.7635393 1.4325411 -0.89857984
-3.7195375 1.4199686 -0.39996523
-3.6801507 1.4097819 -0.38114178
-3.7059791 1.4128289 -0.39348087
-7.1213379 -1.0467075 -2.0214753
-7.1410627 -1.0039574 -2.0309501
-7.1232786 -1.0317143 -2.0224216
-2.9764063 1.3642404 -0.04498671
-2.9773099 1.3698099 -0.045425385
-2.9136453 1.3519461 -0.014997393
-2.9585958 1.3564832 -0.036470883
-2.5050862 1.3496792 0.18012673
-2.5406911 1.3576949 0.16311222
-2.5228763 1.359937 0.17161748
-2.4950385 1.3645337 0.18490645
-2.4736614 1.3647492 0.19511551
-2.4500585 1.3649323 0.20638776
-2.2051477 1.364011 0.3233543
-2.2810574 1.3695853 0.28709409
0.10780287 1.3748028 1.427969
0.096145868 1.3869741 1.4223863
0.14523697 1.3870676 1.4458313
0.15257668 1.3871579 1.4493365
-5.1651368 -1.6480339 -1.0864608
-5.1462026 -1.6483076 -1.0774177
-5.0576487 -1.5309755 -1.035275
-5.0712175 -1.5313356 -1.0417547
-5.0990586 -1.5284332 -1.0550549
-5.1047363 -1.5286305 -1.0577663
-5.1125765 -1.5286551 -1.0615103
-5.1361256 -1.528733 -1.072757
-5.1560645 -1.5281656 -1.0822804
-5.1715946 -1.5285321 -1.0896969
-5.189579 -1.5279593 -1.0982866
-5.1963634 -1.5281394 -1.1015265
-5.2345381 -1.5234232 -1.1197639
-5.2544866 -1.5303556 -1.1292822
-5.252368 -1.5306654 -1.1282701
-5.1719213 -1.6482139 -1.0897006
-4.4805875 1.4034562 -0.76340955
-4.4984112 1.4012139 -0.77191895
-4.4726119 1.399374 -0.75959533
-4.4670258 1.3988166 -0.75692666
-4.4590235 1.3997557 -0.75310618
-5.3041463 -0.80853391 -1.1539165
-5.2727032 -0.76843244 -1.1389508
-5.264883 -0.75104547 -1.1352381
-5.2176051 -0.72870755 -1.1126872
-5.1741767 -0.68874449 -1.0919974
-5.092464 -0.68881297 -1.0529726
-5.070056 -0.67135757 -1.0422931
-5.0465412 -0.72864091 -1.0309899
-5.0387716 -0.74875307 -1.0272539
-5.0287747 -0.76889741 -1.0224538
-4.9985538 -0.80877775 -1.0079701
-5.0311136 -0.88872391 -1.0234184
-5.0412965 -0.96871531 -1.02818
-5.0737991 -0.96880174 -1.0437027
-5.1510835 -0.98879707 -1.0805869
-5.2046666 -0.92857921 -1.106254
-5.2192006 -0.88864875 -1.113246
-6.7849689 1.3947592 -1.8639343
-6.7714157 1.3801417 -1.8574431
-6.753602 1.3823376 -1.8489383
-6.7286968 1.4625273 -1.8371458
-6.7408462 1.5027347 -1.8429992
-6.7457132 1.4627023 -1.8452728
0.39873862 1.3869374 1.5668999
0.38519001 1.3887994 1.560427
0.39883423 1.3866317 1.5669459
0.41660261 1.3863595 1.5754322
-4.3507833 1.400749 -0.70141363
-4.3784351 1.3946085 -0.71461201
-4.3470335 1.3971865 -0.69961828
-4.3329697 1.3954914 -0.69289935
-4.2566261 1.3935568 -0.65643656
-4.3372178 1.3986089 -0.69493222
-6.1253576 -1.512229 -1.5452197
-6.2373285 -1.4997793 -1.5987109
-6.3001032 -1.4974844 -1.6286939
-6.3112273 -1.4873238 -1.6340195
-6.4162846 -1.4544179 -1.6842352
-6.4457021 -1.4470143 -1.6982938
-6.4613423 -1.4070666 -1.7058141
-6.4654026 -1.3867648 -1.7077792
-6.4435215 -1.4073241 -1.6973029
-6.4084277 -1.4468925 -1.6804923
-6.2931495 -1.4470291 -1.625437
-6.281796 -1.287194 -1.620218
-6.3488503 -1.1548382 -1.6524101
-6.254693 -1.1620305 -1.6074331
-6.216682 -1.2070234 -1.5892226
-6.2257004 -1.2868924 -1.5934281
-6.250515 -1.3670895 -1.605177
-6.2326536 -1.4867907 -1.5964946
-5.7467165 1.379621 -1.3680621
-5.8137279 1.3801508 -1.4000665
-5.7821493 1.3948805 -1.3850037
-5.768549 1.4002626 -1.3785154
-5.7371531 1.4003406 -1.3635212
-5.7193394 1.4025366 -1.3550164
-5.6523457 1.3945074 -1.323011
-5.5895414 1.3996634 -1.2930236
-5.571722 1.4043596 -1.2845192
-5.5539145 1.4040556 -1.2760142
-5.5581393 1.4022417 -1.2780296
-5.6090636 1.3792677 -1.3023211
-5.6387691 1.3898897 -1.3165213
-6.4312029 1.3817475 -1.6949646
-6.4761758 1.3862872 -1.7164489
-6.4268899 1.4210603 -1.6929549
-6.4249277 1.4210651 -1.6920178
-6.3641796 1.3862178 -1.6629611
-6.3819814 1.3890216 -1.6714666
-2.9175334 -1.5254833 -0.01319696
-3.0342941 -1.6110201 -0.068851262
-3.1279192 -1.5102237 -0.11369328
-3.1771355 -1.5150685 -0.13719203
-3.216392 -1.5301964 -0.15592107
-3.2535024 -1.5306334 -0.17364378
-3.3341007 -1.530581 -0.2121364
-3.2848711 -1.5157363 -0.18864398
-3.1906669 -1.4879293 -0.1436889
-3.1828229 -1.4904037 -0.13993962
-3.1347783 -1.4906809 -0.11699388
-3.0942132 -1.4907458 -0.097620592
-3.0430455 -1.4933943 -0.073180333
-2.9938564 -1.508549 -0.049669147
-3.9018657 -1.029609 -0.48392868
-3.8861983 -1.0495572 -0.47642076
-3.8839231 -1.0893117 -0.47528365
-3.9155965 -1.149966 -0.49033323
-3.9311624 -1.1297411 -0.49779293
-3.933383 -1.1247091 -0.49885991
-3.9154377 -1.032469 -0.49040681
0.93577003 1.3848984 1.82338
0.96717644 1.3799582 1.8383857
0.94940805 1.3802304 1.8298993
-6.7161674 -0.88696742 -1.8281757
-6.8812075 -0.82687682 -1.9070724
-6.8989296 -0.75412118 -1.9156288
-6.8361516 -0.75391608 -1.8856473
-6.7165341 -0.72703266 -1.828554
-6.6884184 -0.67688304 -1.8151902
-6.6805849 -0.6868571 -1.8114364
-6.6747537 -0.72683692 -1.8086007
-6.6564617 -0.76680553 -1.7998139
-6.6394014 -0.81953448 -1.7915992
-6.6081581 -0.92692912 -1.7765412
-6.5925174 -0.9668768 -1.7690208
-6.5708275 -1.0071206 -1.7586108
-6.5354052 -1.0473194 -1.7416426
-6.4415102 -1.1266944 -1.6966989
-6.3864155 -1.1268303 -1.6703864
-5.9297662 1.3930578 -1.455501
-5.911953 1.3952539 -1.4469965
-5.9475679 1.3958616 -1.4640064
-6.1893973 1.3838046 -1.5794849
-6.1125803 1.3807995 -1.5427945
-6.185184 1.380619 -1.5774686
-6.1918621 1.3807328 -1.580658
-6.2208109 1.3762269 -1.5944779
-6.2521896 1.3836484 -1.6094732
-6.301405 1.3788743 -1.6329718
-6.3416986 1.381448 -1.6522188
-2.9675806 -1.1708746 -0.037549354
-2.962868 -1.1303866 -0.035350248
-2.9483721 -1.1180961 -0.028442815
-2.903049 -1.0907648 -0.0068320185
-2.8812983 -1.0860097 0.0035497695
-2.7928596 -1.0910363 0.045793161
-2.7164557 -1.0106115 0.082180157
-2.7064114 -0.99575675 0.086958289
-2.694495 -0.98461425 0.092635199
-2.6612558 -0.97060996 0.10849181
-2.5857205 -0.93559754 0.14452186
-2.5743849 -1.0256091 0.15004992
-2.5404115 -1.0653845 0.16632563
-2.5730619 -1.1053257 0.15078312
-2.6081953 -1.1460629 0.13405573
-2.6718123 -1.1621375 0.10369375
-2.7244952 -1.1904943 0.078569219
-2.7346783 -1.1995595 0.07371749
-2.7695069 -1.2309558 0.05712378
-2.8791444 -1.2904834 0.0048382878
-2.9110565 -1.3310995 -0.010350749
-2.8683174 -1.5206385 0.010301694
-2.8861413 -1.5228808 0.0017921776
-3.0156178 -1.2776794 -0.060355484
-3.0056109 -1.2903241 -0.055560276
-2.9119046 -1.331122 -0.010755762
-3.6250579 -1.4952695 -0.35113779
-3.6742909 -1.512614 -0.37462863
-3.7962308 -1.6094637 -0.43274206
-3.6743958 -1.5901122 -0.3745802
-3.6565752 -1.5903697 -0.36606908
-3.5758789 -1.517924 -0.32762188
-3.5444865 -1.5153215 -0.31263274
-3.4681468 -1.5197561 -0.27616844
-3.4503231 -1.5175138 -0.26765892
-3.4638848 -1.5128739 -0.27414167
-3.5322013 -1.4904993 -0.306797
-2.7279756 1.3289874 0.073704571
-2.6897008 1.3295467 0.091983363
-2.6527205 1.3402419 0.10963103
-2.640471 1.3443913 0.1154758
-2.6663005 1.3424137 0.10314259
-2.70192 1.3429294 0.086130604
-2.7524686 1.3368413 0.06199722
-2.736886 1.3291163 0.069449037
0.60994196 -1.5223944 1.6714652
0.73519325 -1.5225383 1.7312834
0.76646066 -1.5325739 1.7462289
0.73972964 -1.5356004 1.7334665
-5.2514229 1.4066131 -1.1315521
-5.2985382 1.3989952 -1.154044
-5.3163338 1.404299 -1.1625499
-5.7329688 1.3846552 -1.361503
-6.3191948 1.386678 -1.6414778
-6.2288227 1.3807497 -1.59831
-2.702879 -1.5288608 0.089322865
-2.7362149 -1.5295491 0.073403075
-2.7563367 -1.5255882 0.063788176
-2.7182958 -1.5248541 0.081954911
-2.7048576 -1.5270877 0.088375688
-2.6690545 -1.5251973 0.10547221
-3.9025242 -1.5170965 -0.48362353
-3.8823979 -1.6093307 -0.47389427
-3.8300622 -1.6093571 -0.44889951
-3.8668733 -1.5101118 -0.46660605
-1.7467841 -1.5250056 0.54593372
-1.6706311 -1.5223162 0.58229971
-1.5899743 -1.5076984 0.62080151
-1.5362992 -1.5111127 0.64644027
-1.5228492 -1.5108464 0.65286344
-1.5049419 -1.5086513 0.66141284
-1.5406168 -1.4830425 0.6443426
-1.6034012 -1.502965 0.61438304
-1.6700456 -1.5103829 0.58256418
-1.6851414 -1.5100639 0.57535422
-4.6458855 -1.6313641 -0.83849573
-4.6280651 -1.6316216 -0.82998466
-4.5473247 -1.5266767 -0.79155785
-4.5384083 -1.5243056 -0.78730237
-4.5787134 -1.5267792 -0.80654848
-4.5829654 -1.5261616 -0.80857986
-4.591876 -1.5285327 -0.8128323
-4.6101093 -1.5318816 -0.82153612
-4.6771359 -1.528969 -0.85355061
-4.7153058 -1.5292518 -0.87177962
-4.717432 -1.5289431 -0.87279534
-4.7399139 -1.5291742 -0.88353205
-4.72645 -1.6088123 -0.87700087
-4.6998835 -1.6088831 -0.86431301
-4.1632519 -1.0095161 -0.60878813
-4.1751142 -1.0770528 -0.61436749
-4.2201986 -1.0497011 -0.63593376
-4.2433696 -1.0096793 -0.6470508
-4.2576928 -0.96919441 -0.65394288
-4.2263041 -0.96909189 -0.63895226
-5.1845326 1.4189301 -1.0996222
-5.1372857 1.4211993 -1.0770607
-5.1215715 1.4262393 -1.0695623
-5.1550875 1.4240031 -1.085566
-5.1707816 1.4239652 -1.0930612
-4.3814731 -1.5312924 -0.71234387
-4.3755841 -1.5287734 -0.70953465
-4.4039416 -1.5215241 -0.72308689
-4.4128485 -1.5213954 -0.72734082
-6.4608335 -1.1523883 -1.7058951
-6.4158697 -1.1469258 -1.6844276
-6.3666601 -1.1470809 -1.6609259
-6.4964747 -1.1518734 -1.7229172
-6.54566 -1.1342187 -1.7464298
-6.5713177 -1.126487 -1.7586932
-6.5902424 -1.0066314 -1.7678838
-6.6574082 -0.95677328 -1.8000244
-6.6709633 -0.94713372 -1.8065102
-6.688736 -0.91187704 -1.8150432
-3.6287761 -1.0996619 -0.35341641
-3.5973365 -1.0620604 -0.33844906
-3.6720867 -1.089488 -0.37411371
-3.6643455 -1.2897725 -0.37016207
-3.6604319 -1.2972596 -0.36828351
-3.6626494 -1.2897274 -0.36935216
-1.3482485 -1.5163434 0.7362569
-1.3258957 -1.5147192 0.74693018
-1.3678163 -1.5113194 0.72690523
-1.3795708 -1.5113049 0.72129142
-0.71698022 -1.5146632 1.0377384
-0.74833727 -1.5171247 1.0227659
-0.73044181 -1.5174295 1.0313129
-1.0410233 -1.5134172 0.88297915
-1.0079937 -1.5156748 0.89875627
-1.0035365 -1.513746 0.9008826
-0.59609962 -1.5152359 1.0954698
-0.61848593 -1.5128498 1.0847754
-0.63194752 -1.5156162 1.0783499
-0.53497171 -1.515735 1.1246641
-0.50658846 -1.5207696 1.138226
-0.53349996 -1.5238023 1.1253773
0.36829686 -1.5012817 1.5560325
0 0 0 1 0 0 0 1 0 0 0 1 0 0 0 0 0 633 1 0 0
