ply
format ascii 1.0
comment PCL generated
element vertex 503
property float x
property float y
property float z
element camera 1
property float view_px
property float view_py
property float view_pz
property float x_axisx
property float x_axisy
property float x_axisz
property float y_axisx
property float y_axisy
property float y_axisz
property float z_axisx
property float z_axisy
property float z_axisz
property float focal
property float scalex
property float scaley
property float centerx
property float centery
property int viewportx
property int viewporty
property float k1
property float k2
end_header
1.2155519 1.3516418 2.6592441
1.2964706 1.3303486 2.6256013
1.364131 1.3378392 2.6061926
1.4058294 1.3164586 2.5852673
1.5281973 1.3410364 2.5539689
1.640017 1.3520199 2.5214114
1.5205574 1.3568381 2.5619006
1.4062829 1.3441116 2.5946548
1.3677106 1.3740193 2.6175041
1.3064528 1.3841203 2.6408973
1.1762576 1.3739444 2.6797059
-8.9090462 1.2035918 5.8989778
-8.880764 1.3009434 5.9233522
-8.8517017 1.3459924 5.9294395
-8.8482685 1.3515307 5.930233
-8.843667 1.3578731 5.9309239
-8.709837 1.310655 5.8711443
-8.7736893 1.2447864 5.8691869
-8.7877846 1.1994901 5.8581495
-8.7896471 1.1612182 5.8455591
-8.7894802 1.1507655 5.8419008
-8.7910023 1.1222385 5.8325596
-8.9053497 1.0962348 5.8607588
-8.9068985 1.1775964 5.8893166
-4.5731015 -1.5581377 3.5374238
-4.4948783 -1.5601891 3.5112917
-4.4667349 -1.5557218 3.5036845
-4.4594183 -1.552146 3.5025394
-4.4374681 -1.5414184 3.499104
-4.4996352 -1.5508299 3.5160649
-4.5478172 -1.5381547 3.5360959
-4.6227188 -1.5485615 3.5568528
-4.6595097 -1.5469863 3.5693538
-4.6143146 -1.5554018 3.5517626
0.74867201 1.3881701 2.8235884
0.86544943 1.4497625 2.8068695
1.0174174 1.5341638 2.7865775
1.0187187 1.5066167 2.7766562
1.0920315 1.4084414 2.7189765
1.0548329 1.4055341 2.7300646
1.0066805 1.408502 2.7467387
0.92437696 1.3922354 2.7678809
0.88462973 1.386885 2.7789552
0.84908485 1.3773755 2.7872293
-1.8774035 -0.78312856 2.9284701
-1.861599 -0.80569625 2.9155517
-2.000788 -0.86352301 2.9408531
-2.0372407 -0.87440813 2.9489481
-2.0698342 -0.84241015 2.9705749
-2.1398499 -0.82068276 3.0008237
-2.2224433 -0.81722075 3.0288627
-2.2596016 -0.82318437 3.0388839
-2.3413208 -0.84635484 3.0574558
-2.3930235 -0.77413321 3.0991626
-2.2731981 -0.77481532 3.0599809
-2.1989632 -0.7715171 3.0369897
-2.080507 -0.78576988 2.9935737
-1.9890985 -0.79146856 2.9618983
-1.9595408 -0.77514303 2.9579203
0.52694607 -1.5065925 1.8975366
0.37685347 -1.5289148 1.9386243
0.32295942 -1.5181735 1.9598451
0.28129435 -1.514586 1.9746242
0.17688894 -1.5052655 2.0117726
0.1226368 -1.4935598 2.0334425
0.054430008 -1.5261722 2.0443666
-0.027685165 -1.5181444 2.0738244
-0.060482502 -1.5115176 2.0867693
-0.073021412 -1.5118878 2.0907173
-0.14239168 -1.5012703 2.1169255
-0.23736906 -1.5231309 2.1402583
-0.20105004 -1.529398 2.1262927
-0.13260651 -1.5400109 2.1003871
-0.094287872 -1.5349215 2.0896873
-0.045702934 -1.527446 2.0764735
-2.321959 -1.5192826 2.8191359
-2.3643579 -1.517272 2.8336101
-2.3719749 -1.5133882 2.837425
-2.3300896 -1.5102606 2.8248894
-2.2847276 -1.5165026 2.8079932
-2.2028184 -1.52675 2.777837
-2.1360292 -1.5076444 2.7627163
-2.0429063 -1.4459281 2.7537286
-1.9040532 -1.4954629 2.6915178
-1.8266244 -1.4604998 2.6784067
-1.8668218 -1.4926828 2.6803751
-1.8884768 -1.5202923 2.6778939
-1.8963416 -1.5142372 2.682538
-2.0459898 -1.5269139 2.7268069
-2.0829933 -1.5274321 2.7386553
-2.2119741 -1.5110886 2.7862132
-2.1737549 -1.5097191 2.7742629
-0.94568014 -1.503181 2.3773582
-0.95289803 -1.4851118 2.3859344
-0.8903892 -1.4377944 2.3819325
-0.8332181 -1.3976097 2.3772058
-0.79302311 -1.3990612 2.363641
-0.7015748 -1.3763542 2.341747
-0.60638189 -1.2655311 2.3490186
-0.58162189 -1.1909155 2.3666987
-0.55771804 -1.0681905 2.4012451
-0.50950289 -1.029343 2.3989682
-0.41679835 -0.97737896 2.386754
-0.45360923 -0.81865329 2.4534473
-0.4507885 -0.81918478 2.4523473
-0.32819009 -0.90516227 2.3828542
-0.28101397 -0.90609241 2.3671999
-0.20584178 -1.0671486 2.2872343
-0.21669722 -1.0761224 2.2876687
-0.25056171 -1.1161615 2.2848701
-0.28824925 -1.1234649 2.2946012
-0.31735086 -1.135267 2.2999907
-0.35481024 -1.1403089 2.3104277
-0.39204192 -1.1430888 2.3215704
-0.42114305 -1.1548909 2.3269596
-0.52570367 -1.2235637 2.3372664
-0.5972724 -1.391866 2.3024974
-0.47533965 -1.4154882 2.2547207
-0.42860651 -1.3745251 2.2536554
-0.35038519 -1.4157321 2.2140231
-0.31403327 -1.4944971 2.1750493
-0.29086137 -1.5078669 2.1629078
-0.32786512 -1.5083849 2.1747565
-0.36464024 -1.5066414 2.1873107
-0.45845795 -1.4770806 2.2279966
-0.4787643 -1.4830495 2.2325387
-0.50174904 -1.4921868 2.2368588
-0.55148244 -1.5273268 2.2409072
-0.58894205 -1.5323684 2.2513442
-0.63384771 -1.5216029 2.2696519
-0.70671415 -1.5113305 2.2968774
-0.74417377 -1.5163722 2.3073144
-0.78231788 -1.5281994 2.3156345
-0.82653928 -1.5106484 2.3360591
-0.87121677 -1.4976211 2.3550725
-0.90867662 -1.5026629 2.3655095
-6.9063268 -0.74635065 4.5756936
-6.985239 -0.78710598 4.5872898
-7.0588875 -0.79415011 4.608799
-6.9691143 -0.82235652 4.5698943
-6.9233718 -0.82610923 4.5537329
-6.9041152 -0.81782925 4.5503287
-6.8614755 -0.79502732 4.544332
-6.845912 -0.78930473 4.5412464
-6.7511559 -0.76373219 4.5192657
-6.669301 -0.77579594 4.4885006
-6.6344986 -0.79767329 4.4696455
-6.6030335 -0.80552155 4.4567127
-6.5705876 -0.80361384 4.4468246
-6.4944086 -0.87446404 4.397635
-6.3728442 -0.85878837 4.3635278
-6.3097248 -0.77813518 4.370822
-6.2563167 -0.79767841 4.346724
-6.0788364 -0.77596295 4.2965255
-6.033967 -0.78875959 4.2775292
-5.9845929 -0.77959639 4.2646408
-5.9499121 -0.79096997 4.2494469
-5.9126863 -0.78799856 4.2383718
-5.8460712 -0.78409505 4.2180662
-5.8384552 -0.78431547 4.2155147
-5.802424 -0.77980435 4.205359
-5.7741952 -0.77458602 4.1979833
-5.7272167 -0.77992034 4.1808748
-5.6813374 -0.78153366 4.1654062
-5.5413094 -0.76732349 4.1247931
-5.6733398 -0.79289603 4.1588888
-5.7695861 -0.82203072 4.1801262
-5.8735971 -0.85965008 4.2009616
-5.9120455 -0.86336249 4.2121782
-5.9573512 -0.85508776 4.2297568
-6.0396428 -0.84754586 4.2591047
-6.0873494 -0.8641423 4.268888
-6.1582136 -1.0238054 4.2368689
-6.26825 -0.89818722 4.3159471
-6.3234768 -0.92057884 4.3261766
-6.3634911 -0.89914608 4.3465729
-6.5368509 -0.93172204 4.3916874
-6.5350795 -1.0085599 4.3646173
-6.5206251 -1.0500221 4.345623
-6.5807967 -1.0997331 4.3480406
-6.6295948 -1.1276345 4.3542805
-6.7229395 -1.2098829 4.3562608
-6.6868811 -1.3386412 4.3001447
-6.7380586 -1.2469947 4.3483787
-6.7937818 -1.1558475 4.3979182
-6.8745041 -1.0846598 4.4487009
-6.9117079 -1.0876535 4.4597607
-6.8204145 -1.0436002 4.4452777
-6.6921453 -1.016754 4.4128432
-6.690834 -0.85444236 4.4683824
-6.7288146 -0.81788665 4.4933314
-6.7459993 -0.80510557 4.5033236
-4.7914925 -0.82777739 3.8602364
-4.815711 -0.79789662 3.8784113
-4.8211875 -0.85437894 3.8607161
-4.9846859 -0.89950603 3.8982975
-5.0546198 -0.78848058 3.9593098
-5.0696449 -0.97277468 3.9006486
-5.1480646 -1.0351542 3.9046285
-5.186337 -1.0979462 3.8954175
-5.1459284 -1.1545911 3.8627522
-5.1460886 -1.2024736 3.8462944
-5.1343198 -1.2239523 3.8350632
-5.0997233 -1.2480927 3.8154948
-5.0879245 -1.1978312 3.8289902
-5.0658069 -1.1601968 3.8347778
-5.0630474 -1.1569431 3.8350027
-5.0320568 -1.121634 3.8371043
-4.9813681 -1.0764439 3.8362107
-4.9787121 -1.0725067 3.836705
-4.9772062 -1.0335174 3.8496592
-4.9654126 -0.9847064 3.8626561
-4.81319 -0.86574125 3.8541987
-4.7967162 -0.87679935 3.8450315
-4.7828617 -0.83866072 3.8536787
-4.8159571 -1.5428835 3.6216185
-4.8042159 -1.529525 3.6224082
-4.7959995 -1.5386281 3.6165988
-3.070507 -0.96707171 3.2528386
-3.0543127 -0.99045414 3.2395124
-3.0549312 -1.0899335 3.2054131
-3.0300894 -1.1193585 3.1871929
-3.0232706 -1.1150727 3.1864543
-2.977541 -1.0830767 3.1826231
-2.9637411 -1.078239 3.179806
-2.8153977 -1.0927296 3.1265938
-2.7811956 -1.0040473 3.146055
-2.7786486 -1.0016037 3.1460695
-2.8079245 -0.97028732 3.166383
-2.8149052 -0.97083926 3.1684616
-2.9326959 -0.926296 3.2221055
-2.9318779 -0.77820659 3.2729011
-2.9686685 -0.77663141 3.2854023
-3.0054593 -0.77505636 3.2979033
-3.016715 -0.84320903 3.2780628
-3.0260847 -0.91569662 3.2561142
0.56766462 -1.5356425 1.8742855
0.64354992 -1.5390131 1.8484583
0.68078709 -1.5362604 1.8373045
0.62803793 -1.5142081 1.862053
0.51097584 -1.4863117 1.9097202
0.52576971 -1.3624494 1.9476198
0.37894583 -1.41924 1.9757601
0.36850929 -1.4444407 1.9704632
-5.9493065 1.3817216 4.9983978
-5.9874172 1.4054972 5.0189829
-5.9982004 1.3874208 5.0162549
-5.9533768 1.3746606 4.9972858
-5.9083405 1.3641602 4.9790273
-7.1753011 1.6210057 5.4793863
-7.1782341 1.6769806 5.49964
-7.3067513 1.5922414 5.5121932
-7.4359522 1.5665637 5.5453339
-7.4500027 1.5586368 5.5471673
-7.4736819 1.5028564 5.5356302
-7.5686274 1.4088567 5.5340791
-7.401865 1.3593343 5.4628015
-7.3587303 1.3517367 5.4461613
-7.3413301 1.4398228 5.4708781
-7.3018699 1.5036665 5.4800663
-7.1848087 1.6164891 5.4809189
-8.0225086 1.3576325 5.6639414
-8.0148306 1.3417906 5.6559834
-7.9412036 1.3516952 5.6354675
-7.9870243 1.3606113 5.6534348
-7.7399702 -1.5214022 4.5794125
-7.6581097 -1.4846853 4.5654655
-7.6162109 -1.4804542 4.5533061
-7.5815325 -1.5044509 4.5337605
-7.4628458 -1.5177258 4.4906068
-7.5389652 -1.5420301 4.5069675
-7.6527891 -1.5261064 4.5494537
-6.0162644 -1.4697332 4.0369744
-5.969727 -1.4645686 4.0236297
-5.8949456 -1.5490639 3.9701893
-5.8617196 -1.5404114 3.9623733
-5.7819562 -1.5265944 3.9412119
-5.7287359 -1.5463479 3.9171028
-5.6540661 -1.538146 3.8956611
-5.5718374 -1.5458254 3.8662865
-5.5488544 -1.5020549 3.8739085
-5.3965044 -1.4076729 3.8569336
-5.3536353 -1.4872648 3.8155565
-5.3137231 -1.5028052 3.7972255
-5.2904572 -1.5009481 3.7903037
-5.2359333 -1.5100471 3.7694447
-5.2608361 -1.4328464 3.8041577
-5.2548318 -1.4002485 3.813446
-5.3335133 -1.2767955 3.8815863
-5.3817716 -1.3026488 3.8883574
-5.3884945 -1.3367958 3.8787687
-5.5601497 -1.402867 3.9117801
-5.5904646 -1.3625588 3.9355316
-5.5981016 -1.369894 3.9354846
-5.6719246 -1.4407988 3.9350312
-5.7002769 -1.4460952 3.94242
-5.7762604 -1.4678527 3.959615
-5.8041739 -1.4686306 3.9684193
-5.8487396 -1.4534615 3.9881349
-5.8944006 -1.449589 4.0043111
-5.9781628 -1.4577248 4.0287309
-6.0305843 -1.45215 4.0476918
-6.0601726 -1.4477863 4.0588131
-6.0609336 -1.4488282 4.0587015
-6.0654826 -1.4549356 4.0580745
-6.1553631 -1.52198 4.0641708
-6.2420254 -1.5124128 4.0956373
-6.256423 -1.5180457 4.0983748
-6.2805653 -1.52894 4.1024652
-6.3249116 -1.5115116 4.1228886
-6.3624935 -1.513477 4.1344261
-6.3992605 -1.5119487 4.146903
-6.4366827 -1.5172036 4.1572547
-6.4734497 -1.5156753 4.1697316
-6.5108719 -1.5209301 4.1800833
-6.5699549 -1.5601733 4.1857557
-6.6373944 -1.4990008 4.2287679
-6.6826172 -1.4906099 4.2463598
-6.7078586 -1.4599349 4.2651405
-6.6853099 -1.3818601 4.2847323
-2.5973492 -1.5023576 2.9144814
-2.5581377 -1.4790783 2.9097633
-2.5546074 -1.4885461 2.9053512
-2.8743336 -1.5047648 3.003679
-2.7542367 -1.5027738 2.9653308
-2.7489388 -1.361074 3.0124671
-1.4671991 -0.53605992 2.8803315
-1.5002785 -0.52057195 2.8964236
-1.4720902 -0.63229889 2.848738
-1.1581917 -0.85745698 2.6690772
-1.2028477 -0.81522787 2.6981523
-1.2293656 -0.80533409 2.7101829
-1.2549624 -0.80724531 2.7178435
-1.374249 -0.82607567 2.7501223
-1.4856102 -0.75292981 2.8115387
-1.486856 -0.7289809 2.8202012
-1.4771464 -0.68046612 2.8337731
-1.5464201 -0.7797339 2.8220615
-1.4857156 -0.83215386 2.7842562
-1.4815183 -0.83632988 2.7814522
-1.4619808 -0.84674501 2.7715108
-1.3791313 -0.82868493 2.7508094
-1.2949672 -0.91278523 2.6944559
-1.293107 -0.93355429 2.6866901
-1.1694863 -0.98623216 2.6283464
-1.1339719 -1.0845017 2.5829196
-1.063751 -1.0559586 2.5699377
-1.0823295 -0.94445866 2.6144214
-6.2860584 1.365991 5.1024275
-6.2319393 1.3554875 5.0812159
-6.3093309 1.348374 5.1039176
-6.3465605 1.3453113 5.1149626
-6.388803 1.3493129 5.1300721
-6.3042474 1.3689796 5.1093702
-7.7662764 -0.84487808 4.821229
-7.8456888 -0.87990731 4.8349624
-7.8507633 -0.88481545 4.8349195
-7.9438362 -1.0233175 4.8174152
-7.9509559 -1.0933945 4.7955666
-7.9496183 -1.1770154 4.7662988
-7.809309 -1.1324059 4.7360764
-7.75173 -1.1575207 4.7087016
-7.7083173 -1.1860627 4.6847496
-7.6317749 -1.15724 4.6698093
-7.6689892 -1.1603549 4.6808314
-7.7528558 -1.0716404 4.7386789
-7.78197 -1.0860788 4.7431636
-7.3966627 -1.1578734 4.593173
-7.37848 -1.1115192 4.6032462
-7.5433283 -1.0990729 4.661118
-8.2204247 -1.529303 4.7328491
-8.055789 -1.5440087 4.6742678
-7.9722023 -1.5378057 4.6492386
-8.0632553 -1.5259075 4.6829357
-7.9062967 -1.524771 4.6323118
-7.9351997 -1.5369501 4.6375065
-7.8160896 -1.5457065 4.5957732
-7.7788754 -1.5425918 4.5847511
-5.2937469 -0.78132397 4.0395007
-5.3599806 -0.79636955 4.055841
-5.4171505 -0.85840297 4.0530334
-5.4383173 -0.85510927 4.061049
-5.4863815 -0.85070658 4.0781889
-5.4947019 -0.84169912 4.0839992
-5.5013442 -0.82993764 4.0902138
-5.3316727 -0.77768409 4.0530825
-5.3769789 -0.76940936 4.0706615
-5.443284 -0.78666556 4.0862627
-0.01017046 1.3652862 3.0623434
0.034892082 1.3546532 3.0440304
0.11782408 1.3537112 3.0167503
0.19289207 1.3663098 2.996695
0.23773146 1.3534154 2.9776752
0.31279993 1.3660141 2.9576197
0.34146357 1.3756782 2.9516354
0.41630793 1.3860153 2.9308732
0.50598574 1.3602268 2.8928335
0.58060694 1.3683029 2.8713641
0.66286802 1.3605772 2.8419633
0.57274294 1.3818434 2.8785889
0.52745676 1.3902153 2.8961947
0.40799761 1.3950335 2.9366837
0.37253904 1.3922726 2.9472568
0.29640102 1.3863112 2.9699483
0.21391678 1.3917755 2.9986422
0.093114376 1.3830265 3.0348897
0.012845039 1.3754729 3.0583749
-0.025326252 1.3753203 3.0707293
-0.060285568 1.3833662 3.084866
-0.068287849 1.3838738 3.0876422
-0.099230766 1.3915004 3.1003292
-0.069526196 1.3811036 3.0870893
-0.055008888 1.3781806 3.0813632
-0.024618626 1.3703753 3.068794
0.091667175 -1.5234191 2.0332127
0.17492771 -1.5201364 2.0072827
0.21446466 -1.5380477 1.9882561
0.53442144 -1.3437574 1.9512528
0.4849329 -1.2188115 2.0104196
0.34194565 -1.2138249 2.0586138
0.33509588 -1.2180355 2.0593884
0.36114454 -1.1683329 2.0680594
0.34900427 -1.099606 2.0957024
0.34824181 -1.0570717 2.1106162
0.35289049 -1.0222861 2.1210995
0.38777399 -0.97601634 2.1257153
0.42924786 -0.93141377 2.1276138
0.46503735 -0.89733499 2.1277318
0.50192595 -0.96645463 2.0919094
0.54012585 -1.0203881 2.0608969
0.58294296 -1.0515282 2.036243
0.6006546 -1.1024859 2.0129158
0.58302593 -1.1397126 2.0058098
0.55054522 -1.1661839 2.0072396
0.51518726 -1.2165748 2.0013571
-7.1570959 -1.1131635 4.5307231
-7.1556168 -1.0973485 4.5356951
-7.1470938 -1.1041532 4.5305786
-7.0966101 -1.1862435 4.4858656
-7.1588597 -1.3278507 4.4572716
-7.1459675 -1.1900334 4.5006013
-7.1528001 -1.1651542 4.5114002
-7.1584086 -1.1394312 4.5220928
-6.4804401 1.3597201 5.163445
-6.562706 1.3671576 5.1927485
-6.5999365 1.3640949 5.2037935
-6.5682235 1.3592259 5.1918068
-6.5492506 1.35331 5.1836004
-7.1556115 1.3537019 5.3808198
-7.1222363 1.3647379 5.3737774
-7.1000824 1.3567635 5.3638268
-7.0613079 1.3530546 5.3499451
-7.1094513 1.3545309 5.3661022
-7.1454277 1.3528651 5.3772211
-7.6064801 1.3683137 5.532403
-7.6541853 1.350216 5.5416684
-7.7049303 1.3011364 5.5412393
-7.76682 1.3310283 5.5716619
-7.820447 1.3483011 5.595048
-7.7332659 1.3435971 5.5650897
-7.6645012 1.3508528 5.5452414
-7.6078148 1.3779618 5.5361633
-7.7043796 -0.84869832 4.7997937
-7.7639074 -0.80731392 4.8334112
-7.807704 -0.80122864 4.8497448
-7.8288422 -0.79924762 4.8572984
-7.9160233 -0.79454339 4.8872566
-7.9295559 -0.79119289 4.8928103
-7.9657135 -0.78301132 4.9073839
-8.0059261 -0.79981828 4.914659
-8.0090599 -0.80233079 4.9148111
-8.0037384 -0.84375179 4.8987994
-8.0001116 -0.85393214 4.8941102
-7.9741678 -0.8733834 4.8789711
-6.1993465 -1.0674975 4.2351732
-6.2501097 -1.1157479 4.2350359
-6.1676435 -1.0619829 4.2267699
-6.1225443 -1.0665491 4.210537
-6.0529327 -1.0803932 4.1831379
-6.1330414 -1.0502412 4.2195721
-6.4315457 1.354021 5.1455879
-6.4178772 1.3424333 5.1371498
-6.647687 -1.4102242 4.2627239
-6.635808 -1.4301625 4.2519879
-6.6183739 -1.4646547 4.2344284
-6.5725994 -1.4923794 4.209991
-6.5340304 -1.4937007 4.1969991
-6.521071 -1.4911664 4.1936607
-6.4517951 -1.4833615 4.1738353
-6.4123731 -1.4603705 4.1689496
-6.3754745 -1.4159186 4.1722836
-6.3710566 -1.4118044 4.172266
-6.3366909 -1.4382038 4.1519938
-6.2913027 -1.451992 4.1324868
-6.2708602 -1.4724514 4.1187882
-7.1616068 -1.3572216 4.4480376
-7.16926 -1.4512684 4.4180975
-7.1118646 -1.43944 4.4035211
-7.0400767 -1.4605844 4.3728971
-6.9929638 -1.4739373 4.3529801
-6.9522676 -1.4347672 4.3532586
-7.0750976 -1.4409682 4.3910437
-7.120831 -1.4192755 4.4133878
0 0 0 1 0 0 0 1 0 0 0 1 0 0 0 0 0 503 1 0 0
