ply
format ascii 1.0
comment PCL generated
element vertex 498
property float x
property float y
property float z
element camera 1
property float view_px
property float view_py
property float view_pz
property float x_axisx
property float x_axisy
property float x_axisz
property float y_axisx
property float y_axisy
property float y_axisz
property float z_axisx
property float z_axisy
property float z_axisz
property float focal
property float scalex
property float scaley
property float centerx
property float centery
property int viewportx
property int viewporty
property float k1
property float k2
end_header
-0.15968037 -1.5046228 -2.1992085
-0.14448309 -1.4891552 -2.2065675
-0.18374395 -1.507965 -2.1893022
-10.350495 1.3787818 1.6410806
-10.385774 1.3769935 1.6553468
-10.408208 1.3659003 1.665241
-10.472431 1.3075677 1.6957598
-10.451719 1.3468915 1.6842238
-3.9223444 -1.5292023 -0.69135857
-3.9843402 -1.6478766 -0.65674901
-3.8541491 -1.6490977 -0.70875072
-3.738003 -1.6087768 -0.75856173
-3.5896246 -1.6089517 -0.81792843
-3.49331 -1.5400581 -0.86216199
-3.5024743 -1.5299077 -0.85933268
-3.5343621 -1.4505466 -0.8531239
-3.5720096 -1.4678677 -0.83662713
-3.5867822 -1.4898561 -0.82889962
-3.7229152 -1.5272142 -0.77133441
-3.805171 -1.5211798 -0.73891389
-3.0290711 1.3970561 -1.2904663
-3.0646164 1.4029 -1.2767236
-2.9843326 1.3006613 -1.3004115
-2.9867108 1.265308 -1.2965406
-2.9820898 1.1864066 -1.2918751
-2.9802804 1.1067135 -1.286019
-2.9783528 1.1813641 -1.2929542
-2.9850993 1.2644074 -1.2971112
-2.9823103 1.2971677 -1.3009323
-2.9900122 1.3405182 -1.3014294
-2.9923489 1.3539487 -1.3016032
-2.9980929 1.3769913 -1.3012071
-3.0017266 1.3813854 -1.3001156
-4.9047756 1.4500945 -0.54418766
-4.8879924 1.4507506 -0.55095845
-4.7836957 1.4466695 -0.59236109
-4.73699 1.4464545 -0.61103511
-4.7008867 1.423244 -0.62356699
-4.9820189 1.4098985 -0.509956
-4.8653197 1.4328278 -0.55855232
-0.0040121078 -1.411742 -2.269176
0.0071702003 -1.4500234 -2.2704904
0.00059747696 -1.4463859 -2.2681601
-0.14320803 -1.327086 -2.2204599
0.0087943077 -1.2878554 -2.2845304
0.011425495 -1.2843552 -2.2858725
0.0090737343 -1.2912171 -2.2843645
0.001540184 -1.3238058 -2.2786589
-7.9713688 1.3711683 0.68958139
-8.0532293 1.3645301 0.72289026
-8.0778112 1.383198 0.73118663
-8.1022205 1.396896 0.73982406
-8.1341047 1.4033716 0.75204957
-8.1722794 1.4107723 0.766716
-8.2429237 1.4096805 0.7950778
-8.16115 1.4188038 0.76159859
-8.1495857 1.4144106 0.7573334
-10.553164 0.18373561 1.8208628
-10.636426 0.19678557 1.853107
-10.636634 0.14154261 1.8577514
-10.568771 0.10437423 1.833662
-10.541743 0.11041045 1.8223469
-10.415184 0.028453827 1.778465
-10.417965 0.10797215 1.7730122
-10.420494 0.19076997 1.7671874
-10.423754 0.18796039 1.768724
-8.9277382 -0.66536373 1.2404764
-9.0031433 -0.65269387 1.2696072
-9.028183 -0.66174293 1.2803754
-8.9689837 -0.74524653 1.2635784
-8.8674879 -0.84745628 1.2313993
-8.8413496 -0.90011919 1.225287
-8.8218422 -0.93818247 1.2206233
-8.8249969 -1.0519187 1.231277
-8.8814058 -1.1020745 1.257993
-8.8573208 -1.1381953 1.2513366
-8.7840462 -1.2191707 1.228698
-8.7385769 -1.2572665 1.2136468
-8.7315817 -1.2598677 1.2110622
-8.6616726 -1.3009765 1.1864786
-8.6515436 -1.3169565 1.1837445
-8.6049862 -1.279744 1.1620395
-8.5327187 -1.1777526 1.1246969
-8.5159922 -1.1507664 1.1157745
-8.5100479 -1.1417518 1.1126512
-8.4831467 -1.0793996 1.0967371
-8.6578903 -1.019644 1.1617355
-8.7107258 -0.9614889 1.1780788
-8.7269802 -0.93881953 1.1827117
-8.7475681 -0.91854805 1.1892775
-8.8012686 -0.8626138 1.2061498
-8.8085823 -0.83700156 1.2069622
-8.8117981 -0.74505848 1.200657
-8.6637878 -0.64047366 1.1327881
-8.6335306 -0.61746895 1.1187797
-8.5447979 -0.49550551 1.0731981
-8.5522518 -0.41917941 1.0698789
-8.6425228 -0.27874967 1.0944107
-8.7406988 -0.33600372 1.138428
-8.74512 -0.33591661 1.14019
-8.6722364 -0.27652219 1.106118
-9.8435783 -1.6424912 1.6876765
-9.8604774 -1.6645074 1.6962576
-9.9753227 -1.5595514 1.7335527
-10.092247 -1.6267787 1.7858965
-10.122121 -1.6284482 1.7979901
-10.155367 -1.6271776 1.8111904
-10.178701 -1.62836 1.8206265
-10.191439 -1.6266723 1.8255847
-10.305195 -1.6324371 1.8715858
-10.354801 -1.6298176 1.891222
-10.327847 -1.5123849 1.8707383
-10.33091 -1.4655536 1.8680975
-10.357405 -1.3922167 1.8726454
-10.357241 -1.2705413 1.8625333
-10.364443 -1.1909359 1.8588424
-10.36141 -1.2671747 1.8639235
-8.4312706 -1.5522366 1.1150184
-8.3215256 -1.6586944 1.0798882
-8.2203598 -1.5515047 1.030551
-8.244276 -1.4570311 1.0323219
-8.3253498 -1.5493565 1.0723908
-2.6192112 -0.37343526 -1.3083041
-2.6099067 -0.33548021 -1.3151617
-2.6176255 -0.28576142 -1.316178
-2.6207266 -0.25425673 -1.3175381
-2.621969 -0.21451172 -1.3203226
-2.612762 -0.17590225 -1.3271953
-2.5847979 -0.098709285 -1.3447603
-2.6171932 -0.056866705 -1.3352506
-2.6256959 -0.095276833 -1.3286763
-0.75690222 1.3791634 -2.1983123
-0.69998455 1.4169345 -2.2242095
-0.66437101 1.4085809 -2.2377722
-0.6288352 1.4027114 -2.251509
-0.58187103 1.3950636 -2.2696726
-0.53764582 1.393937 -2.2872787
-0.60242271 1.3851559 -2.2606299
-0.67494535 1.3830345 -2.231431
-0.68621826 1.3798445 -2.2266562
-0.73263931 1.370104 -2.2072742
-0.18671656 1.3723252 -2.425936
-0.11963367 1.354141 -2.4512813
-0.14191198 1.3478106 -2.4418428
-0.17755938 1.3562078 -2.4282701
-0.21056986 1.3703647 -2.4162283
-4.2742229 -1.0520847 -0.58993196
-4.3132749 -1.0697956 -0.57284093
-4.3949771 -1.0811529 -0.53920585
-4.466393 -1.0595766 -0.51240671
-4.5176811 -1.0542862 -0.49231794
-4.51231 -1.014694 -0.49773666
-4.432898 -1.0007993 -0.53066456
-4.3978224 -0.99171162 -0.54545224
-4.3077908 -0.93041968 -0.58654392
-4.3622847 -0.77446234 -0.57761276
-4.4403272 -0.76725829 -0.5469749
-4.5108733 -0.77301133 -0.51826715
-4.4394579 -0.79458749 -0.54506612
-4.2733808 -1.0117481 -0.59359956
-5.2200589 -1.1240541 -0.20546536
-5.0850348 -1.0562925 -0.26509714
-5.0834923 -1.1035054 -0.26181599
-5.2224803 -1.1798663 -0.19988802
-5.2393665 -1.2043207 -0.19111091
-5.2564149 -1.2238054 -0.18267928
-5.2238598 -1.1376234 -0.20282382
-7.9601517 1.3767148 0.68463433
-8.0197515 1.3861396 0.70770824
-8.0310555 1.383078 0.71248496
-8.6611814 -0.71502209 1.1379004
-8.6405926 -0.73529363 1.1313345
-8.5483274 -0.7735585 1.0975693
-8.545867 -0.65441155 1.0867469
-8.5122404 -0.60540926 1.0692433
-8.4835472 -0.53767544 1.0521677
-8.4347248 -0.47452354 1.0274143
-8.4213371 -0.41518956 1.0171574
-8.4198227 -0.39535269 1.0149137
-8.3937035 -0.31063682 0.99746549
-8.3992567 -0.29458165 0.99836242
-8.4429798 -0.23845258 1.0112258
-8.4786844 -0.23855036 1.0255228
-8.5215683 -0.23667927 1.0425307
-10.396669 -0.39566511 1.8060746
-10.393765 -0.41558653 1.8065572
-10.394774 -0.42886555 1.8080575
-10.395723 -0.4122636 1.8070662
-10.379989 -0.75686419 1.8292229
-10.382517 -0.67406648 1.8233979
-10.387256 -0.59122527 1.8184545
-10.386433 -0.66742069 1.8244162
-10.402672 -0.32937878 1.8030035
-10.404255 -0.30845708 1.8019094
-10.404062 -0.28961962 1.800277
-10.401661 -0.31610322 1.8015029
-10.400018 -0.35258305 1.8038573
-10.40027 -0.35586241 1.804229
-10.23327 1.3847234 1.5936763
-10.116131 1.39315 1.5461013
-10.069635 1.400485 1.5268881
-10.034096 1.3948184 1.5131334
-9.9629307 1.3810004 1.4857942
-10.009601 1.3786354 1.5046666
-10.056271 1.3762704 1.5235388
-10.091722 1.379452 1.5374639
-10.138217 1.372117 1.5566771
-10.2444 1.3766918 1.5987939
-10.303913 1.3836318 1.6220379
-5.258347 -0.81820154 -0.2153964
-5.3537664 -0.75563848 -0.1823754
-5.2965407 -0.88335538 -0.19473162
-7.1021204 1.3808987 0.34090438
-7.0424523 1.3711461 0.31783047
-6.9957299 1.3709208 0.29915079
-6.9715252 1.3644943 0.28999463
-6.8895779 1.3683965 0.25687698
-6.8073916 1.3648449 0.22427934
-6.8729377 1.403056 0.24735585
-6.9111366 1.4031223 0.26263753
-6.986454 1.4361359 0.2900537
-6.3656087 -1.0508553 0.24694028
-6.3710327 -1.0147271 0.24612787
-6.5118203 -0.90606195 0.29349878
-6.591557 -0.97711432 0.33127627
-6.6055217 -1.0910244 0.34627035
-6.6300125 -1.0937819 0.35629925
-6.6393442 -1.0950189 0.36013612
-6.6732426 -0.98852944 0.36490926
-6.6847906 -0.97337359 0.36827955
-6.7305489 -0.85832763 0.37709281
-6.7286634 -0.85651165 0.37618825
-6.7018042 -0.85050386 0.36494306
-6.6214056 -0.81586951 0.32990775
-6.5879092 -0.8100096 0.31601873
-6.5143032 -0.77852702 0.2839621
-6.4924302 -0.76329589 0.27395079
-6.4701576 -0.7522198 0.26412281
-6.3889599 -0.72589529 0.22945377
-6.2688355 -0.76497543 0.18460676
-6.2219787 -0.77016562 0.16628307
-6.1869073 -0.76101488 0.15149197
-6.1193714 -0.72798604 0.12173682
-6.0832739 -0.72858405 0.1073401
-6.0478778 -0.72937286 0.093239665
-5.9697642 -0.60862291 0.052008331
-5.8625202 -0.64329267 0.011951953
-5.8382602 -0.64961952 0.0027654469
-5.780673 -0.63684726 -0.021335691
-5.7183237 -0.65065205 -0.04514809
-5.6518059 -0.64056188 -0.072601631
-5.6260099 -0.68583202 -0.079187319
-5.5418835 -0.75723273 -0.10695928
-5.4953508 -0.75248337 -0.12597366
-5.4816966 -0.93217117 -0.11660142
-5.4239688 -0.96699333 -0.13682896
-5.5046802 -1.0082271 -0.10112354
-5.5556331 -1.0292214 -0.07899864
-5.6183004 -1.0137465 -0.055196822
-5.6559095 -1.0129085 -0.040215015
-5.6686997 -1.0111783 -0.03523913
-5.6890931 -1.012169 -0.026995942
-5.7010331 -0.90927684 -0.030713245
-5.8402972 -0.84988296 0.02011621
-5.8663511 -0.87247002 0.032408029
-5.9112606 -0.92691696 0.054876387
-5.9872479 -0.766307 0.07202512
-6.0066023 -0.76671863 0.079804808
-6.0112643 -0.76743478 0.08172965
-6.1517248 -0.77690375 0.13872391
-6.1708193 -0.90705454 0.15711197
-6.2252007 -1.0179796 0.18803433
-6.2842188 -1.0520554 0.21446717
-6.318316 -1.0910246 0.23133051
-8.5604277 -1.5015272 1.1625199
-8.5747299 -1.4922962 1.1674815
-8.6666794 -1.5367855 1.207953
-8.6784172 -1.5274223 1.2118773
-8.6304064 -1.5002514 1.1904202
-7.6318402 1.3784184 0.55310333
-7.5877829 1.3647839 0.53659737
-7.5476398 1.3746516 0.51971734
-7.5363812 1.3777521 0.51495564
-7.5611963 1.3795102 0.52474153
-3.9089971 1.3928 -0.93796802
-3.8627536 1.4075108 -0.9576894
-3.886658 1.4040989 -0.94784117
-3.9217319 1.3950377 -0.93305624
-3.9682896 1.3902638 -0.91402972
-4.0293384 1.3924549 -0.88977885
-4.0617971 1.3931371 -0.87684524
-4.1000433 1.3916707 -0.86141813
-4.1354351 1.3925209 -0.84732437
-4.1679616 1.3957639 -0.83457506
-4.2146759 1.3959584 -0.81589603
-4.2416892 1.3975558 -0.80521715
-4.2967 1.3945442 -0.78295314
-4.3124728 1.3992561 -0.77702987
-4.2658458 1.4015256 -0.79587746
-4.2306123 1.4056445 -0.81031799
-4.1921797 1.4022888 -0.82542157
-4.1567135 1.3989291 -0.83933794
-4.124279 1.3981249 -0.85225189
-4.0888081 1.3947902 -0.86617196
-0.13966608 -1.0455016 -2.2451277
-0.19803572 -1.02853 -2.2231693
-0.2966814 -1.0460744 -2.1822426
-0.30399799 -0.84774035 -2.1956906
-0.43163443 -0.77356303 -2.1507354
-0.44491863 -0.77320874 -2.1454484
-0.46738482 -0.9684779 -2.1203341
-0.51671743 -0.94885719 -2.1022112
-0.54109335 -0.93976629 -2.0932066
-0.58861542 -0.90962076 -2.0766773
-0.65944195 -0.90764737 -2.0484953
-0.75384378 -0.86971408 -2.0138478
-0.79993773 -0.88925266 -1.9937876
-0.8600831 -0.866754 -1.9715751
-0.93198156 -0.82751751 -1.9460411
-0.93319559 -0.78528613 -1.9490423
-0.88688755 -0.77320021 -1.9685727
-0.86939526 -0.76624095 -1.9761478
-0.8388505 -0.76653999 -1.9883471
-0.79623556 -0.77301943 -2.0048668
-0.74265385 -0.76891041 -2.0266495
-0.68434 -0.65418988 -2.0594592
-0.73318434 -0.48578003 -2.053817
-0.6977706 -0.48676673 -2.067908
-0.61054516 -0.3759312 -2.1119673
-0.60541821 -0.37584451 -2.1140263
-0.56244135 -0.37480831 -2.1313114
-0.52851105 -0.37454411 -2.144912
-0.52338409 -0.37445742 -2.146971
-0.47940922 -0.37254897 -2.1647274
-0.46891689 -0.3733505 -2.1688602
-0.45470381 -0.37482378 -2.1744268
-0.44910002 -0.37526339 -2.1766329
-0.44269514 -0.3931621 -2.1777184
-0.37920141 -0.51139605 -2.1933661
-0.32670498 -0.53353167 -2.2125475
-0.31867599 -0.54377621 -2.2149148
-0.33548737 -0.65352231 -2.1991251
-0.3140111 -0.70027572 -2.2038596
-0.29319572 -0.73061669 -2.2096846
-0.25761557 -0.81099433 -2.2172873
-0.22315073 -0.84816563 -2.2280107
-0.14322042 -0.92626393 -2.2535503
-0.14098835 -1.0126766 -2.2473085
-8.88305 -0.72875547 1.2278261
-9.2681732 1.4018996 1.2060257
-9.2414589 1.4038765 1.1951717
-9.1940956 1.386362 1.1776628
-9.2630253 1.3679339 1.2067701
-9.2870846 1.3716922 1.2160887
-9.3223629 1.3699038 1.2303548
-9.3931808 1.373782 1.2583759
-9.3465986 1.3786322 1.239333
-9.2780638 1.3992206 1.2102053
-9.3798313 -1.5449268 1.4940288
-9.3820324 -1.5556175 1.4957925
-9.2887812 -1.5484024 1.4578778
-9.3709021 -1.5475858 1.4906752
-9.0781307 -1.5402156 1.3728992
-9.0429382 -1.5359424 1.3584627
-8.9620342 -1.5019696 1.3232795
-8.9025211 -1.5089096 1.3000352
-8.8652973 -1.5015773 1.2845328
-8.8319635 -1.5053328 1.271503
-8.808835 -1.5141193 1.2629722
-8.7848606 -1.5153925 1.2534828
-8.8249159 -1.4964198 1.2679464
-8.8702841 -1.4201479 1.2798051
-8.9059963 -1.4095116 1.2932189
-8.9867268 -1.4484541 1.3287427
-0.35784912 1.3779407 -2.3579125
-0.38023996 1.3665929 -2.3480148
-0.36758566 1.369792 -2.3533432
-0.31962919 1.372408 -2.3727512
-3.9473987 1.3963585 -0.92289352
-3.9827905 1.3972087 -0.90879989
-4.0181823 1.3980589 -0.89470637
-4.592339 -0.79182196 -0.48411131
-4.5930505 -0.76946163 -0.48567292
-4.5462656 -0.77216113 -0.50417346
-10.371371 -0.951998 1.8418863
-10.370827 -0.95570368 1.8419743
-10.369184 -0.99218351 1.8443291
-10.368364 -0.95246786 1.8407216
-9.7642365 -1.5637894 1.649426
-9.8285007 -1.5682908 1.6755162
-9.8641281 -1.5601393 1.6891007
-9.9173489 -1.5541247 1.7099036
-10.035444 -1.5352168 1.7556038
-10.093157 -1.5480983 1.7797642
-10.117218 -1.54434 1.7890832
-10.128609 -1.5449169 1.7936893
-10.217511 -1.5133268 1.8266599
-10.284233 -1.4739227 1.8501084
-0.82039976 -0.36710763 -2.028712
-0.85193634 -0.366126 -2.0161719
-0.84674025 -0.36774045 -2.0181181
-0.50028992 -1.5202239 -2.0616081
-0.46469116 -1.5257512 -2.0753982
-0.41812706 -1.523531 -2.0942166
-0.40698767 -1.5203658 -2.0989358
-0.45355177 -1.5225861 -2.0801177
-0.49788761 1.3735595 -2.3015072
-0.49496794 1.3741443 -2.3027239
-0.48661423 1.3767493 -2.3062823
-0.47276402 1.3829588 -2.3123379
-0.50970078 1.3936596 -2.2984393
-2.940805 -0.37539333 -1.1794405
-3.0296338 -0.28685328 -1.1512018
-3.0272663 -0.28623658 -1.1522003
-2.9470851 -0.17665574 -1.1933367
-2.938611 -0.28497675 -1.1877841
-2.9371715 -0.32134318 -1.1853576
-2.9373469 -0.32472843 -1.1850078
-2.9387825 -0.37888694 -1.1799614
-2.93559 -0.44054505 -1.1761481
-2.9640706 0.85983562 -1.2721217
-2.9667485 0.74419606 -1.2615017
-2.962214 0.66120732 -1.2564641
-2.9624112 0.73999953 -1.2628909
-2.4073393 0.53848481 -1.468392
-2.2920327 0.56092823 -1.5163909
-2.4425528 0.57952988 -1.4576886
-10.456546 0.99206889 1.7154528
-10.446907 0.8302834 1.7249538
-10.454426 0.992643 1.7145571
-10.457712 1.0656025 1.7098478
-10.466871 1.1485311 1.7066658
-10.474324 1.2248571 1.7033466
-10.471039 1.1518974 1.708056
-10.469878 1.1490006 1.7078307
-6.1152115 -1.5265788 0.1860114
-6.0909519 -1.5329056 0.17682508
-6.1277499 -1.5324985 0.19151813
-6.3626213 -1.4887627 0.28190252
-6.4416647 -1.4944447 0.31400475
-6.4444685 -1.4952081 0.31518999
-6.479784 -1.4969041 0.32946327
-6.4215469 -1.504011 0.30674353
-6.3149519 -1.5188018 0.26530561
-6.2796373 -1.5171057 0.2510325
-6.2682576 -1.5190223 0.2466366
-6.2085199 -1.5286227 0.22352231
-6.2944708 -1.4960734 0.25523224
-6.3115768 -1.4948664 0.26197842
-6.3270626 -1.4945213 0.26814744
-10.362803 -1.1115046 1.8516276
-10.370255 -1.1510897 1.857878
-10.361665 -1.1545432 1.8547256
-2.9357653 -0.4439303 -1.1757983
-3.0029304 -0.56487024 -1.1389329
-2.9776504 -0.60329217 -1.1458775
-2.9766657 -0.7233271 -1.1363604
-2.9348142 -0.6822809 -1.1564986
-2.9329193 -0.60288388 -1.1638126
-2.9319718 -0.56318527 -1.1674696
-2.9349568 -0.52190942 -1.1696832
-2.5922189 -0.49194095 -1.3093215
-2.5421305 -0.37822416 -1.3387564
-2.579829 -0.25768915 -1.3336221
-2.5954614 -0.44868791 -1.3115953
-9.8101673 1.3812755 1.4246351
-9.8632145 1.3823198 1.4457783
-9.8984051 1.3780465 1.4602147
-9.8568363 1.3789104 1.4435073
-9.8213844 1.375729 1.4295821
-9.8037014 1.3753798 1.4225342
-9.7683353 1.3746833 1.4084386
-9.7987766 1.3818521 1.4200288
-5.3168592 -1.4955738 -0.13604963
-5.3411193 -1.4892468 -0.12686312
-5.3457813 -1.4899631 -0.12493829
-5.3745403 -1.4893222 -0.11348177
-5.3293338 -1.5035878 -0.13039565
-7.1474438 -1.5440571 0.60055447
-7.1716228 -1.5402151 0.60991371
-7.1525135 -1.5404232 0.60228348
-7.0655155 -1.5400965 0.56743979
-9.098362 -1.5406182 1.3810291
-9.1601639 -1.5418841 1.405867
-9.2069206 -1.5417641 1.4245689
-9.1695976 -1.5457836 1.4099642
-9.1474943 -1.546219 1.4011543
-2.9473858 -0.097215444 -1.1997758
-2.9588556 0.065377653 -1.2086108
-2.955111 0.13783085 -1.2160919
-2.9501979 0.061719894 -1.2117736
-4.6161261 -1.5121058 -0.41511837
-4.5693412 -1.5148054 -0.43361893
-4.5341864 -1.5082021 -0.44823301
-4.6056814 -1.4841415 -0.42160743
-5.2591906 -1.4852864 -0.15997809
-5.2236319 -1.4910449 -0.17373317
-5.2605929 -1.4856678 -0.15938547
0 0 0 1 0 0 0 1 0 0 0 1 0 0 0 0 0 498 1 0 0
