ply
format ascii 1.0
comment PCL generated
element vertex 857
property float x
property float y
property float z
element camera 1
property float view_px
property float view_py
property float view_pz
property float x_axisx
property float x_axisy
property float x_axisz
property float y_axisx
property float y_axisy
property float y_axisz
property float z_axisx
property float z_axisy
property float z_axisz
property float focal
property float scalex
property float scaley
property float centerx
property float centery
property int viewportx
property int viewporty
property float k1
property float k2
end_header
-0.39989853 -1.4738772 -3.4717827
-0.403265 -1.5170786 -3.4610658
-0.41243458 -1.5232203 -3.451664
-0.42721415 -1.5353948 -3.4361055
-0.43808317 -1.5355625 -3.4262226
-0.47178698 -1.5286775 -3.3968902
-0.58132267 -1.5334504 -3.2967453
-0.47190952 -1.4491284 -3.4108934
-0.46688652 -1.4070146 -3.4229193
-0.47626781 -1.3289735 -3.4282618
-0.47738552 -1.3041458 -3.4316535
-0.47917271 -1.2845004 -3.4335189
-0.46010256 -1.2325401 -3.4600263
-0.4622364 -1.1934342 -3.4650302
-0.48071051 -1.144326 -3.4569962
-0.47868443 -1.1287856 -3.4615903
-0.47439861 -1.0876138 -3.4727807
-0.46990395 -1.0614446 -3.4814985
-0.45535755 -0.96862358 -3.5111547
-0.44579744 -0.92260528 -3.5279858
-0.43726254 -0.88671184 -3.5420918
-0.42960453 -0.82960957 -3.5591657
-0.43211174 -0.76494014 -3.5683672
-0.42692327 -0.82143611 -3.5630462
-0.41902924 -0.90740812 -3.554949
-0.40917826 -0.95463073 -3.5555005
-0.40591192 -0.98679376 -3.5527546
-0.39549923 -1.0729048 -3.5469155
-0.39044714 -1.1123962 -3.5444884
-0.39819908 -1.1957097 -3.5226789
-0.39104986 -1.2742921 -3.5152168
-0.3883338 -1.3522738 -3.5038428
-0.39670467 -1.3966966 -3.4883726
-0.61313486 1.348763 -3.7792969
-0.63370562 1.3739014 -3.7651086
-0.65174437 1.3792939 -3.7497129
-0.66381168 1.3855574 -3.7398849
-0.7001729 1.3906779 -3.7078304
-0.71744061 1.3881562 -3.6917291
-0.63413 1.3381095 -3.7583737
-0.62363195 1.3434362 -3.7688355
-9.7212009 1.1653466 4.5100431
-9.742384 1.1437182 4.5330844
-9.7523575 1.092756 4.551167
-9.7404518 1.0151615 4.5541425
-9.732789 0.97412604 4.5544767
-9.7151098 0.89418787 4.5526333
-9.7021999 0.86018258 4.5469637
-9.6866932 0.84986812 4.5347357
-9.6838112 0.90805751 4.5217986
-9.7006207 0.94660693 4.5301976
-9.714469 0.97395569 4.537899
-9.7176743 1.067755 4.5241618
-9.7156525 1.1570687 4.5064821
-9.5945511 1.1753049 4.3934636
-9.5922947 1.1732361 4.3917851
-9.5805292 1.1695018 4.3817821
-9.5703735 1.1852224 4.3697863
-9.5784721 1.2251005 4.3700523
-9.5777435 1.2638669 4.362514
-9.5883617 1.258723 4.3730516
-9.5930958 1.2528379 4.3783875
-9.5905819 1.216737 4.382515
-4.4466372 1.409519 -0.31486577
-4.4940314 1.4182024 -0.27344197
-4.5115018 1.4090099 -0.25597322
-4.5801792 1.4126115 -0.19435382
-4.5871367 1.4147761 -0.18843067
-4.6342139 1.38586 -0.14062279
-4.6811562 1.3896303 -0.098737121
-4.6287789 1.3809235 -0.14467418
-4.5634618 1.3765197 -0.20310479
-4.5228596 1.3875117 -0.24186295
-4.5058408 1.4016171 -0.25979358
-4.4405241 1.397213 -0.31822419
-9.4870749 -1.4451315 4.7609758
-9.4448566 -1.4568691 4.7247868
-9.3523483 -1.5550447 4.6583428
-9.3283558 -1.5629042 4.6379871
-9.3052893 -1.5609336 4.6167274
-9.3410091 -1.5718663 4.6510491
-9.4072037 -1.5579269 4.7085824
-9.4351339 -1.5082881 4.7250953
-9.4710922 -1.4831512 4.7532325
-9.5888138 -1.4791359 4.8592391
-9.5932856 -1.4383274 4.8560524
-9.5818348 -1.4346775 4.8450246
-4.6274824 -1.4619209 0.35855579
-4.5521536 -1.4201632 0.28285831
-4.5433092 -1.4213307 0.2750479
-4.4849792 -1.4628738 0.22954035
-4.3829632 -1.4723647 0.13874328
-4.3732228 -1.469955 0.12948564
-4.3290339 -1.4606171 0.087769628
-4.2740951 -1.4436915 0.034962624
-4.2052221 -1.3351461 -0.046732426
-4.2531557 -1.2189834 -0.023889393
-4.1888323 -1.1006116 -0.10320371
-4.1742702 -1.0971345 -0.1170218
-4.145824 -1.082811 -0.14535075
-4.0867758 -1.0937328 -0.19694203
-4.0451136 -1.0737431 -0.23825723
-4.0235639 -1.0547479 -0.26116335
-3.9412174 -0.99102676 -0.34711921
-3.9324818 -0.97519338 -0.35784787
-3.8808558 -0.92324555 -0.4138658
-3.8329816 -0.86468023 -0.46765685
-3.8229976 -0.84658492 -0.47991824
-3.8130138 -0.82848954 -0.49217951
-3.7351987 -0.76965797 -0.57316023
-3.6930141 -0.7758615 -0.61030149
-3.62181 -0.79011488 -0.67232168
-3.5108099 -0.85457093 -0.76151085
-3.4590616 -0.79931617 -0.81822646
-3.387157 -0.76001418 -0.89038408
-3.3809171 -0.74870461 -0.89804733
-3.3504057 -0.721295 -0.93057036
-3.3274949 -0.72331393 -0.95098162
-3.249187 -0.65302563 -1.0344418
-3.2388902 -0.60766679 -1.0518242
-3.2333283 -0.58898765 -1.0601805
-3.1383648 -0.61263078 -1.1420735
-3.0635452 -0.73275799 -1.1885859
-2.9963527 -0.6907568 -1.2569507
-2.9915586 -0.60709083 -1.2761416
-2.986352 -0.52223331 -1.295918
-2.9763489 -0.59580773 -1.2919316
-2.9842086 -0.6823917 -1.2694441
-2.9834228 -0.7179994 -1.2638384
-2.9827547 -0.75691432 -1.2575396
-2.9806123 -0.79602385 -1.2525425
-2.9550233 -0.91588199 -1.2544733
-2.9465516 -1.0012993 -1.2469978
-2.9428353 -1.0113428 -1.2485846
-2.9620972 -1.0380737 -1.2263802
-2.9722164 -1.0888555 -1.2081966
-2.9700742 -1.127965 -1.2031995
-2.9721174 -1.17026 -1.1938429
-2.9643157 -1.2063786 -1.1945069
-2.9615242 -1.2480657 -1.1896409
-2.9519925 -1.3244854 -1.1847224
-2.9521298 -1.4021206 -1.1708231
-2.9598536 -1.4447811 -1.156252
-2.9768724 -1.4588864 -1.1383213
-3.0276761 -1.4764463 -1.0891502
-3.0626092 -1.4857602 -1.0558296
-3.118196 -1.5329661 -0.99706233
-3.1347828 -1.5268846 -0.98310494
-3.1922531 -1.5331581 -0.92989266
-3.1086445 -1.446867 -1.0209975
-3.1767039 -1.2871442 -0.98763895
-3.2406993 -1.259829 -0.93447125
-3.2706118 -1.1879334 -0.92011082
-3.2853322 -1.1228967 -0.91830564
-3.3119078 -1.083884 -0.90113604
-3.4412758 -1.1355373 -0.7746942
-3.3221571 -1.0437043 -0.8989737
-3.335876 -0.96008635 -0.90137315
-3.4751587 -0.9356848 -0.7794379
-3.4678965 -1.0519429 -0.76539373
-4.5893669 -1.4904771 0.32906932
-4.5256324 -1.4776856 0.26902193
-4.4845777 -1.4716067 0.23072575
-4.3648601 -1.5608456 0.13803126
-4.3610182 -1.6026063 0.14195772
-4.3497858 -1.5822489 0.12816355
-4.311759 -1.486618 0.076723129
-4.2480245 -1.4738266 0.016675711
-4.229424 -1.4769166 0.00036183
-4.185883 -1.4978591 -0.035393804
-4.1287775 -1.4908937 -0.088398069
-4.0985641 -1.4881811 -0.11626866
-4.0542102 -1.4838066 -0.1572535
-4.0405316 -1.4843664 -0.16955411
-3.9778972 -1.4969424 -0.22410321
-3.9497821 -1.4951661 -0.24990582
-3.9066932 -1.5111957 -0.28612339
-3.8694918 -1.5173758 -0.31875128
-3.7850626 -1.605083 -0.3797276
-3.7802849 -1.6165128 -0.38203073
-3.7390842 -1.5237274 -0.43584365
-3.8105145 -1.5070174 -0.37405443
-3.852247 -1.5057269 -0.33645111
-3.8992054 -1.4976242 -0.29531932
-3.9168932 -1.4952891 -0.27969891
-3.9561214 -1.4804037 -0.24677825
-3.9942269 -1.4643975 -0.21507412
-4.0633969 -1.4722527 -0.15097529
-4.1232786 -1.4727852 -0.096596062
-4.1934304 -1.3367027 -0.057145894
-4.0950699 -1.2454526 -0.16250366
-4.0818038 -1.2472038 -0.17421919
-4.0503793 -1.2155868 -0.20831645
-3.9213367 -1.2162702 -0.32517713
-3.9080706 -1.2180216 -0.33689249
-3.820833 -1.1416552 -0.42952627
-3.8183765 -1.1310267 -0.43363887
-3.795404 -1.0831877 -0.46295255
-3.6703327 -1.121912 -0.56946331
-3.6527693 -1.2961512 -0.55446994
-3.5827088 -1.2150904 -0.63236499
-3.4897592 -1.3299156 -0.69625378
-3.468827 -1.4558046 -0.69289315
-3.5313244 -1.520354 -0.62478387
-3.4841566 -1.5265808 -0.6664387
-3.4660077 -1.524758 -0.68321455
-3.419744 -1.5211589 -0.725793
-3.4566629 -1.3731115 -0.71859252
-3.4579992 -1.2952818 -0.73119032
-9.0781975 1.3677723 3.8912203
-9.0377502 1.390213 3.8505719
-8.9333973 1.3511758 3.7628989
-9.0427122 1.3811235 3.8566835
-9.0646362 1.3668838 3.8790841
-9.100811 1.3609056 3.9129391
-9.1598301 1.3505185 3.9682858
-9.2262554 1.3669744 4.0255828
-9.1474209 1.3619182 3.9550135
-4.7195239 -0.7313686 0.31237292
-4.7308431 -0.73735046 0.32369545
-4.7726064 -0.76497972 0.36645773
-4.7848678 -0.77665204 0.37964427
-4.8730903 -0.7765041 0.45959505
-4.8819342 -0.77533656 0.46740523
-4.9318419 -0.78931904 0.51512915
-4.9828115 -0.7769953 0.55914831
-5.0243158 -0.77815825 0.59697986
-5.0443263 -0.77868813 0.61521441
-5.0681367 -0.7731182 0.63581079
-5.1254659 -0.78224206 0.68940079
-5.1735487 -0.76630896 0.73016262
-5.1914644 -0.77052402 0.74715173
-5.2570095 -0.76372045 0.80536389
-5.2987404 -0.7624262 0.84296465
-5.3227816 -0.75445968 0.86334538
-5.3509893 -0.77113801 0.89187574
-5.3913736 -0.77203763 0.92864531
-5.4230266 -0.76837236 0.95668966
-5.528945 -0.77501798 1.0538875
-5.5534387 -0.76213694 1.0738066
-5.594264 -0.77067167 1.1123304
-5.6366735 -0.76200569 1.1492388
-5.6483116 -0.77227527 1.1616111
-5.7121983 -0.79125667 1.2228947
-5.7360134 -0.78574741 1.2435064
-5.751287 -0.81086504 1.2618092
-5.7339907 -0.86202651 1.2552069
-5.7087336 -0.97012687 1.2514906
-5.6905751 -0.96961808 1.2349391
-5.5747838 -0.92783058 1.1225557
-5.5169482 -0.90525186 1.0661197
-5.468183 -0.88803267 1.0188568
-5.4178329 -0.8880142 0.97320932
-5.3715515 -0.8878777 0.93122917
-5.3421955 -0.88473451 0.90405959
-5.2860651 -0.90003181 0.8558892
-5.2133722 -0.88506985 0.78733611
-5.1794682 -0.90075779 0.75938392
-5.1031537 -0.92511177 0.69452339
-5.0885229 -0.93027139 0.6821754
-5.0321217 -0.9113394 0.6276865
-5.0087638 -0.91199636 0.60662824
-4.9858575 -0.90774035 0.58510786
-4.9427686 -0.92376995 0.54889035
-4.8799086 -0.9388023 0.49457243
-4.8332224 -0.90246618 0.44580263
-4.7294841 -0.98295027 0.36604038
-4.7173581 -1.0039644 0.35877627
-4.684361 -1.0210884 0.33190149
-4.626996 -1.0112171 0.27814648
-4.5744739 -1.0551199 0.23832306
-4.5486202 -1.051253 0.21419935
-4.5118694 -1.0300457 0.1771208
-4.4403138 -1.0456146 0.1150153
-4.5107298 -1.010783 0.17266969
-4.5812545 -0.98142469 0.23139417
-4.5902257 -0.9710145 0.23767972
-4.6207161 -0.95067942 0.26171249
-4.6330481 -0.94107157 0.27118701
-4.6199708 -0.75970566 0.22715227
-4.597065 -0.75544953 0.20563214
-4.6507983 -0.73200369 0.25018352
-4.671207 -0.7092616 0.2646496
-5.1974859 -1.4999843 0.88203847
-5.204062 -1.4918497 0.88655674
-5.2226591 -1.4797316 0.90126526
-5.2625785 -1.4980953 0.94071221
-5.2027063 -1.4976318 0.88635361
-2.4441214 -0.16692215 -1.8505125
-2.4232187 -0.0683828 -1.8869455
-2.4522483 0.047604442 -1.8812084
-2.4493725 0.073377609 -1.8883886
-2.4495149 0.14425319 -1.900835
-2.4570689 0.18702996 -1.9015768
-2.4638534 0.23054802 -1.9031479
-2.5118604 0.24288648 -1.8618169
-2.5425897 0.22423249 -1.8306499
-2.5589173 0.14881277 -1.8024664
-2.5455892 0.11159438 -1.8079453
-2.535465 -0.0061845183 -1.7962258
-2.5172484 -0.050815642 -1.804821
-2.5063877 -0.16869345 -1.7937515
-2.4368811 -0.24550733 -1.843133
-1.4051249 -1.5191636 -2.5524731
-1.3953986 -1.5224065 -2.5607152
-1.3737175 -1.5222129 -2.580404
-4.7134352 -1.4988881 0.44303405
-4.6896253 -1.504458 0.4224377
-4.703578 -1.5044081 0.43507758
-4.7549419 -1.5000541 0.48086837
-4.6485705 -1.498379 0.3841415
-3.7425556 1.4278462 -0.9563936
-3.7071524 1.4414055 -0.99089384
-3.7479801 1.4328527 -0.95236433
-3.7890341 1.4267561 -0.91406548
-3.7932289 1.4248886 -0.90993154
-3.8131659 1.417136 -0.89048231
-3.8351676 1.4030538 -0.8680383
-3.8944952 1.4152453 -0.81641889
-3.8762224 1.3969746 -0.82974207
-3.8226261 1.3935478 -0.87772095
-3.7893558 1.411566 -0.91107881
-7.9298429 -0.74882692 3.2257426
-7.8184195 -0.74909168 3.1247802
-7.7219191 -0.82842696 3.0513756
-7.6804113 -0.82717299 3.0135245
-7.5760736 -0.78849185 2.912076
-7.5656862 -0.78089017 2.9013107
-7.5433025 -0.77156585 2.8793647
-7.535181 -0.78473002 2.8743377
-7.6072693 -0.868761 2.9545979
-7.6272821 -1.0119592 2.9981477
-7.629415 -1.0626938 3.0090833
-7.671731 -1.1043246 3.0548306
-7.7023115 -1.1871015 3.09724
-7.7214336 -1.1846933 3.1141479
-7.8566608 -1.2194844 3.2429094
-7.8573885 -1.258251 3.2504475
-7.8466806 -1.3757691 3.2615912
-7.8468828 -1.3858633 3.2635653
-7.7687106 -1.5276592 3.2178583
-7.7447147 -1.5355382 3.1975031
-7.7018528 -1.5364783 3.1588142
-7.674108 -1.5444299 3.1350734
-7.5896959 -1.6287241 3.0735073
-7.5163507 -1.5343194 2.990267
-7.550045 -1.5357527 3.0210662
-7.5940866 -1.5099726 3.0564172
-7.6533365 -1.5179021 3.1115363
-5.5158763 1.4194763 0.65267205
-5.4983888 1.4286487 0.63519132
-5.4333062 1.4266968 0.57653785
-5.3944073 1.4087789 0.54445398
-5.3643832 1.3829808 0.52181315
-5.3403597 1.3749621 0.50145811
-5.3764648 1.3689005 0.53526407
-5.4263186 1.4045918 0.57412559
-5.4925308 1.4188273 0.63162339
-5.5106964 1.4170249 0.64841104
-5.552433 1.418328 0.68601584
-5.7429371 1.3725934 0.86682928
-5.6955681 1.3639257 0.82542557
-5.6780806 1.3730981 0.80794477
-5.6193075 1.3858807 0.75239682
-5.5869699 1.4076583 0.71921754
-5.6231098 1.3925519 0.75466013
-0.44673157 0.14857775 -3.7171988
-0.4533515 0.22729826 -3.7251654
-0.45862055 0.27873445 -3.7295146
-0.45661831 0.30683088 -3.7363148
-0.47506332 0.38850927 -3.734086
-0.4707346 0.41134697 -3.7420621
-0.4742527 0.42722267 -3.7416897
-0.46562481 0.50545925 -3.7633929
-0.46317434 0.52864403 -3.7697277
-0.46362686 0.54610533 -3.7724156
-0.47203541 0.62564772 -3.7789063
-0.46455288 0.67221588 -3.793952
-0.47111702 0.71190721 -3.7950439
-0.48540688 0.66830462 -3.774353
-0.49423122 0.62068635 -3.7579045
-0.50071287 0.57933849 -3.7446923
-0.50936127 0.53836757 -3.7295833
-0.50002909 0.45696348 -3.7235994
-0.50335217 0.36830413 -3.7048559
-0.50578642 0.29492092 -3.6896291
-0.49078608 0.21823049 -3.6896205
-0.48862362 0.19437885 -3.6873488
-0.48496151 0.17947924 -3.6880245
-0.48249006 0.13991594 -3.6832457
-0.48001814 0.1003527 -3.6784668
-0.47531128 0.061330736 -3.6758099
-0.48758221 -0.0043948293 -3.6530242
-0.48533916 -0.028952658 -3.6507006
-0.47971392 -0.14054587 -3.6360002
-0.48260736 -0.24372506 -3.6150701
-0.48650694 -0.26502538 -3.6077554
-0.49063015 -0.28387678 -3.600673
-0.48996925 -0.28818533 -3.6005077
-0.48416281 -0.32693523 -3.5988958
-0.47322178 -0.38451189 -3.5985987
-0.46844578 -0.44164515 -3.5927908
-0.47642517 -0.47274372 -3.5800397
-0.48992729 -0.52147746 -3.5591524
-0.49025726 -0.53034276 -3.5572805
-0.46941757 -0.55798483 -3.5712681
-0.44871616 -0.63171053 -3.5769532
-0.44515944 -0.67267156 -3.5729098
-0.43010712 -0.74939752 -3.572942
-0.4333086 -0.67257702 -3.5836699
-0.4354434 -0.63347113 -3.5886734
-0.44367552 -0.55181724 -3.5956986
-0.45261812 -0.46923569 -3.6022439
-0.45119762 -0.39844435 -3.6160922
-0.44368076 -0.36660427 -3.6285558
-0.44767237 -0.30793467 -3.6353474
-0.45777225 -0.25571686 -3.6354561
-0.45198154 -0.19407111 -3.6516438
-0.45512199 -0.15969005 -3.6548967
-0.45313215 -0.093944848 -3.668366
-0.45763826 -0.047508776 -3.6725197
-0.46354532 0.02590847 -3.6801915
-0.44246912 0.10191774 -3.7127838
-0.44388008 0.10938478 -3.7128296
-5.527256 -1.5338607 1.1869979
-5.4447002 -1.5266201 1.1108735
-5.5156927 -1.5150068 1.1731701
-5.534061 -1.5143074 1.1896973
-5.5567441 -1.5210843 1.2114631
-5.7880802 -1.52139 1.4212319
-5.7161827 -1.5428323 1.3598585
-5.7576866 -1.5439953 1.3976899
-5.8236847 -1.5322771 1.4554405
-5.9272637 -1.0100981 1.4566884
-5.9501443 -0.98176479 1.4724035
-5.926558 -0.97585547 1.4499732
-5.9093218 -0.96426868 1.4322919
-5.9039936 -0.97466993 1.4293071
-5.9161725 -1.0248716 1.4492551
-5.9165845 -1.0298102 1.4505048
-0.77887249 -1.5220336 -3.1196847
-0.7358861 -1.5446044 -3.1546488
-0.77760506 -1.5306538 -3.1193044
-0.84363532 -1.531184 -3.0593514
-2.2974341 -1.521116 -1.7432156
-2.2457144 -1.5265346 -1.78914
-2.2203803 -1.535506 -1.8105145
-2.2595828 -1.5373945 -1.774641
-2.2829857 -1.5366035 -1.7535658
-2.3194196 -1.5378343 -1.7203186
-2.3476768 -1.5393207 -1.6944387
-2.4079561 -1.5348493 -1.6405866
-2.4432843 -1.5483584 -1.6061636
-2.4911962 -1.5344982 -1.5651889
-2.5556662 -1.5396711 -1.5058266
-2.5800252 -1.5354908 -1.484486
-2.658782 -1.5215178 -1.4155692
-2.6772356 -1.4947288 -1.4035937
-2.6760466 -1.4113703 -1.4194617
-2.68047 -1.3778697 -1.4213958
-2.6608038 -1.2962058 -1.4537134
-2.6433489 -1.3432982 -1.4611813
-2.657474 -1.389344 -1.4402065
-2.6044629 -1.515988 -1.4657928
-8.4088058 -0.57603079 3.6292818
-8.4487028 -0.5944882 3.6687241
-8.4669399 -0.64805025 3.6947606
-8.4736938 -0.66905755 3.7046096
-8.4971266 -0.7179271 3.734524
-8.4949131 -0.75706416 3.7394607
-8.4740314 -0.79288101 3.7268858
-8.4563179 -0.90521437 3.7307589
-8.4436169 -0.95497954 3.7280755
-8.4418058 -1.060046 3.7450757
-8.4430447 -1.0679806 3.7476068
-8.458662 -1.1283538 3.772476
-8.4104395 -1.1465698 3.731993
-8.366168 -1.1748075 3.6968691
-8.3454313 -1.2000816 3.682555
-8.3294287 -1.2312404 3.6735766
-8.2909899 -1.2846539 3.6482074
-8.1939774 -1.3090016 3.5645823
-8.1484146 -1.3786833 3.5356419
-8.1534004 -1.4602277 3.55463
-8.2290182 -1.5539322 3.6398056
-8.2651939 -1.5599102 3.6736605
-8.2700653 -1.5601014 3.6781111
-8.3067017 -1.5611641 3.7115116
-8.3246746 -1.565382 3.7285531
-8.3770771 -1.5547302 3.7741683
-8.3138762 -1.5367789 3.7136893
-8.2737904 -1.5555942 3.6806879
-8.3883009 -0.59884697 3.6147408
-8.33922 -0.66614348 3.5821881
-8.2393265 -0.80379379 3.5160544
-8.1938686 -0.79251802 3.4728439
-8.140872 -0.77003384 3.4208114
-8.0709572 -0.7715525 3.3577001
-8.0511417 -0.78699589 3.3424771
-8.0087128 -0.79557252 3.3055348
-7.9361868 -0.74317068 3.2304904
-8.9629002 -0.99609053 4.2061186
-8.9564705 -0.90784168 4.1846318
-8.9123116 -0.88587201 4.1407027
-8.8964863 -0.94615221 4.1370525
-8.8818092 -0.98766899 4.1311131
-8.8530693 -1.0681946 4.1193476
-8.7792377 -1.1171556 4.0611029
-8.7199879 -1.109226 4.0059834
-8.7130938 -1.1052368 3.9990261
-8.6563263 -1.09619 3.9459589
-8.6265364 -1.1137085 3.9220622
-8.6111326 -1.1342584 3.9117444
-8.6167374 -1.1562295 3.9207227
-8.6443138 -1.1721858 3.9485531
-8.6645355 -1.1890683 3.9698808
-8.6830578 -1.2029315 3.9891312
-8.763732 -1.1895387 4.0598898
-8.7669411 -1.1871091 4.0623674
-8.8163681 -1.1651046 4.103271
-8.8350325 -1.1619496 4.1196308
-8.8809519 -1.16831 4.1623869
-8.9484797 -1.1598206 4.2220969
-8.9729185 -1.1211252 4.2373857
-8.9766045 -1.0818028 4.2337503
-8.9746513 -1.0723269 4.230299
-5.1094589 1.3800809 0.29122952
-5.1375041 1.3743482 0.31767085
-5.156105 1.3774383 0.33398476
-5.1918035 1.3704038 0.36759502
-5.1559243 1.378922 0.33355767
-5.1023369 1.3902767 0.28296417
-5.09237 1.3902297 0.27393734
-5.0603781 1.3865294 0.24559179
-5.0506377 1.3889394 0.23633413
-5.0089488 1.3915603 0.19807681
-4.9961915 1.394408 0.18600629
-4.9728336 1.3937511 0.16494803
-5.009131 1.3901052 0.19849986
-5.0448279 1.3830423 0.23211391
-5.062994 1.3812399 0.24890159
-4.9308743 1.3900039 0.12757564
-4.8610268 1.3904898 0.064169824
-4.9263434 1.3948936 0.12260047
-8.3997202 1.3390653 3.2812495
-8.4591999 1.3335936 3.3361413
-8.4059734 1.3536201 3.2843363
-8.3882313 1.3602955 3.2670677
-8.3400097 1.3420796 3.2265847
-8.3162432 1.336658 3.206002
-8.298501 1.3433335 3.1887333
-7.8090954 1.3594611 2.7422075
-7.7263098 1.3644266 2.6662786
-7.6864138 1.3828843 2.6268368
-7.7572508 1.3942335 2.689039
-7.8335519 1.3722553 2.7621083
-7.8624201 1.3799436 2.7869143
-7.8799314 1.3708103 2.8044097
-7.9708524 1.3595834 2.8888247
-7.8869271 1.3506348 2.8143311
-8.0805264 1.342613 2.9912593
-8.1036015 1.3406615 3.0125237
-8.1504421 1.3441315 3.0543709
-8.1278276 1.3509982 3.0326519
-8.6723022 1.3345053 3.529165
-8.6072598 1.3327956 3.4705043
-8.6596622 1.3434474 3.5161197
-8.7016315 1.3471086 3.5535164
-8.7193737 1.3404331 3.5707846
-8.7669048 1.3512762 3.6119497
-8.8266153 1.3482621 3.6666143
-8.8503819 1.3536837 3.6871972
-8.8863268 1.3452477 3.7212796
-8.8205919 1.3361652 3.6633
-8.7844162 1.3421433 3.6294451
-7.2029505 -1.5396428 2.7071028
-7.2305031 -1.5385892 2.7318926
-7.2066879 -1.5441027 2.7112815
-7.1833248 -1.5447013 2.6902087
-7.1887722 -1.5398905 2.694293
-7.1910443 -1.5379188 2.696003
-7.0585842 -1.5436907 2.5769472
-7.047246 -1.5223813 2.5628879
-7.0651617 -1.5265934 2.5798764
-7.099637 -1.5497612 2.6152401
-6.1402559 -1.520612 1.7403541
-6.107419 -1.5241261 1.7112095
-6.0690365 -1.5346947 1.6782898
-6.0926256 -1.5316387 1.6991318
-6.134583 -1.5278802 1.7365009
-6.1611652 -1.5367712 1.7621764
-6.1852069 -1.5288047 1.7825572
-6.2087955 -1.5257527 1.8033998
-6.1765399 -1.5241218 1.7738695
-6.1491494 -1.5228317 1.7488101
-0.84717369 1.3781519 -3.5723464
-0.81520414 1.3878584 -3.60305
-0.79517221 1.3893704 -3.6214781
-0.76796198 1.3814857 -3.6447458
-0.78584099 1.3771551 -3.6277695
-0.81713772 1.3600807 -3.5963686
-0.85198545 1.3603179 -3.5648201
-0.90081143 1.365159 -3.5214164
-0.91683817 1.3598468 -3.505945
-0.94063234 1.365468 -3.4853721
-0.96638179 1.3721125 -3.4632082
-1.0063901 1.37482 -3.4274197
-1.0422759 1.3661273 -3.3933454
-1.0796642 1.3929775 -3.3642156
-1.0138481 1.3809412 -3.4217448
-1.0079429 1.3801444 -3.4269567
-0.96487904 1.3760006 -3.4652605
-0.91162229 1.3728263 -3.5129764
-1.5903571 -1.5207353 -2.3842745
-1.543551 -1.5223169 -2.4264255
-1.5612147 -1.5290716 -2.409214
-1.608021 -1.5274899 -2.367063
-1.2883132 -1.5284598 -2.656718
-1.3161283 -1.5348576 -2.6303673
-1.3481505 -1.5288997 -2.6023951
-1.3300438 -1.5270565 -2.6191366
-1.778913 -1.5339766 -2.2109923
-1.8206434 -1.5325732 -2.1734111
-1.796798 -1.5382755 -2.1940162
-8.4379396 -1.5454561 3.827697
-8.4270916 -1.5427697 3.8173864
-8.4081497 -1.5629748 3.8037999
-2.6172054 0.47047049 -1.8066981
-2.5553572 0.47103125 -1.862865
-2.5239787 0.51996952 -1.8999941
-2.5404069 0.58628684 -1.8968678
-2.5662177 0.58890897 -1.8739345
-2.616956 0.62566251 -1.8344598
-2.6439683 0.66788572 -1.8174636
-2.6485631 0.66871399 -1.8134451
-2.7184505 0.70803946 -1.7570672
-2.7523673 0.74886769 -1.7335646
-2.7578001 0.75175017 -1.729151
-2.7858124 0.74499446 -1.702558
-2.7891746 0.74494368 -1.6995013
-2.7911539 0.7035355 -1.6903598
-2.7939851 0.66122073 -1.6802855
-2.7883141 0.53755838 -1.6634851
-2.75898 0.46971768 -1.6780405
-2.7570488 0.43041188 -1.672817
-2.765698 0.38577688 -1.6570568
-2.755188 0.35067105 -1.6603556
-2.7529724 0.35201764 -1.6626029
-2.729013 0.43316859 -1.6987216
-3.0578082 0.99102765 -1.4996376
-3.0583754 0.94851369 -1.4915802
-3.0623648 0.90351945 -1.4799802
-3.0656788 0.81962043 -1.4620898
-3.0729244 0.89821488 -1.4694666
-3.0783124 0.97698134 -1.4785575
-3.0823188 1.0159104 -1.4818326
-3.0859418 1.0552075 -1.485521
-3.0891809 1.0948732 -1.4896225
-3.0804784 1.1000056 -1.4984221
-3.0732329 1.0214112 -1.4910455
-8.2332277 1.3391659 3.1303
-8.2281246 1.3368995 3.1260767
-8.1917191 1.34042 3.0924492
-8.1681843 1.337456 3.0716393
-8.1968222 1.3426864 3.0966725
-8.239481 1.3537207 3.1333869
-8.2705545 1.3454764 3.1630185
-6.9040508 1.3681815 1.9202043
-6.9275627 1.3626094 1.9425075
-6.932991 1.3673098 1.9465941
-6.9153094 1.3740127 1.929376
-6.8864894 1.3733628 1.903365
-6.3730421 1.3823085 1.436319
-6.3301759 1.3687217 1.3998698
-6.3937654 1.4335771 1.4460088
-6.396451 1.4405537 1.4472057
-6.4069891 1.4443691 1.4560819
-6.4197488 1.4376585 1.4688395
-6.4900117 1.4420619 1.5317541
-6.4986248 1.4407697 1.5397916
-6.5081768 1.4402595 1.5485415
-6.5568638 1.4285748 1.5947508
-6.5885048 1.4335713 1.6225482
-6.5929899 1.4325066 1.6268029
-6.6733022 1.3717661 1.7103863
-6.6967773 1.3688171 1.7321904
-6.7196546 1.364357 1.753721
-6.7380333 1.365027 1.7702633
-6.7429967 1.3648119 1.7748007
-6.7561798 1.3632393 1.7870308
-6.76931 1.365205 1.7985848
-6.792655 1.365854 1.8196331
-6.8165946 1.3719077 1.840261
-6.8395724 1.3696084 1.8614991
-6.8166785 1.373873 1.8399885
-6.7982874 1.3732185 1.8234322
-6.7702155 1.3754618 1.7975861
-6.7672687 1.3750978 1.7949791
-1.9777908 1.367739 -2.5455527
-1.9304285 1.3589523 -2.5869296
-1.9127119 1.3657544 -2.604197
-1.8707485 1.3620238 -2.6415765
-1.758986 1.3586199 -2.7422893
-1.876826 1.3744471 -2.6382713
-1.9178843 1.3683548 -2.5999694
-2.0202067 1.3763812 -2.5086346
-2.0451148 1.3854115 -2.4876568
-2.0287731 1.4158185 -2.5078661
-2.0168784 1.397243 -2.5153534
-5.870636 -1.5286303 1.4973565
-5.9175873 -1.5249834 1.5392722
-5.8885517 -1.5328453 1.5143453
-6.0216327 -1.5432642 1.6368368
-6.0056667 -1.5421255 1.6221611
-6.0212307 -1.5425615 1.636348
-0.99774766 -1.5210932 -2.9214332
-0.98768711 -1.5186752 -2.9309824
-0.94491005 -1.5262431 -2.9684188
-0.9504993 -1.5275865 -2.9631135
-3.7904119 -1.0741401 -0.46908313
-3.677927 -1.084771 -0.56916857
-3.6455803 -1.0444113 -0.60565335
-3.6835384 -0.8971768 -0.59736651
-3.6863692 -0.89348042 -0.59545624
-3.7449846 -0.86237162 -0.54783869
-3.7957973 -0.88900244 -0.49705017
-8.7268829 -1.5714376 4.094244
-8.7501879 -1.5709312 4.1152811
-8.7140121 -1.5649531 4.0814266
-8.6911678 -1.560544 4.0599351
-8.70891 -1.5672196 4.0772033
-9.088275 -1.568866 4.4214034
-9.0318012 -1.5659493 4.3696899
-8.9896002 -1.572029 4.3325124
-9.022541 -1.5779488 4.3634243
-9.0407429 -1.5797091 4.3802381
-9.043993 -1.5798266 4.3832045
-8.0618382 -1.54988 3.4875319
-8.0285559 -1.563786 3.4598274
-8.0081339 -1.5489467 3.4386818
-7.9044924 -1.5551088 3.34582
-7.8813639 -1.5446576 3.322999
-7.8210154 -1.5575161 3.2705724
-7.785531 -1.5441651 3.2360356
-7.7568936 -1.5493956 3.2110026
-3.0440657 0.50622362 -1.426077
-3.0523534 0.53943151 -1.424456
-3.0434899 0.57892495 -1.4394984
-6.4253426 -1.5335151 2.0010853
-6.4550571 -1.5182762 2.0253186
-6.5210557 -1.5065472 2.0830677
-6.555757 -1.5272577 2.1182003
-6.5083523 -1.535827 2.0767467
-6.4906626 -1.5291576 2.0595269
-6.4491582 -1.5280018 2.0216963
-6.1816192 1.3641634 1.2660065
-6.163228 1.3635094 1.2494501
-6.0925136 1.3541927 1.186998
-6.0505505 1.3504329 1.1496241
-6.0979195 1.3591006 1.1910279
-6.1690855 1.3733306 1.2530179
-6.2105966 1.3721769 1.2908539
-6.2231302 1.3630099 1.3038425
-6.3923373 1.3927894 1.4519511
-6.4655361 1.4291294 1.511861
-6.4832501 1.4224138 1.5291107
-6.5065784 1.4269166 1.5494595
-6.5474291 1.4145391 1.5886885
-6.55862 1.4032207 1.6008416
-6.5768204 1.3923733 1.6192658
-6.6084456 1.3722706 1.6515019
-6.6207533 1.360647 1.6647217
-6.6732025 1.3659046 1.7113359
-6.712985 1.361932 1.7481053
-3.3494163 1.4127767 -1.3101149
-3.4098201 1.4299545 -1.2584046
-3.427748 1.4256308 -1.2413851
-3.4555826 1.4252331 -1.2160815
-3.4940815 1.4253254 -1.1811973
-3.4959693 1.4243186 -1.1793072
-3.4779925 1.4198284 -1.1948069
-3.4456763 1.4213073 -1.2243654
-3.4218707 1.4157121 -1.2449532
-3.4185092 1.416523 -1.2481444
-1.0156329 -1.5253923 -2.9044569
-1.0303979 -1.5233631 -2.8914318
-1.0341814 -1.5223241 -2.8881862
-2.3072734 -1.5259898 -1.7334313
-2.3601823 -1.5272734 -1.6852398
-2.3737462 -1.5216086 -1.6739488
-2.4152436 -1.5101137 -1.6383691
-2.4558682 -1.5209891 -1.5996118
-2.4904492 -1.5228848 -1.5679265
-1.2110333 -1.5188096 -2.7284873
-1.1814492 -1.5320574 -2.7529557
-1.2231798 -1.530654 -2.7153745
-8.0933962 -1.5519819 3.5165136
-8.1346464 -1.5682454 3.5567937
-8.1759243 -1.5719569 3.594872
-7.4142122 -1.5498827 2.9004357
-7.4563622 -1.5483551 2.9383752
-7.4188066 -1.5514607 2.9048808
-7.395844 -1.550585 2.883909
-2.7140918 -0.048024356 -1.6268704
-2.707185 -0.12862867 -1.6188301
-2.7148747 -0.21665719 -1.5962402
-2.6906934 -0.28143615 -1.6066678
-2.6970708 -0.36492622 -1.5860727
-2.6958418 -0.37106091 -1.5860986
-2.686239 -0.44149068 -1.5823073
-2.6925037 -0.4480142 -1.5754708
-2.7229478 -0.52334625 -1.534506
-2.7313943 -0.56273681 -1.5198598
-2.7150831 -0.63589799 -1.5216656
-2.7227859 -0.68118399 -1.5066475
-2.7169292 -0.71995312 -1.5050781
-2.7152975 -0.79989868 -1.4923725
-2.7128015 -0.83947021 -1.487614
-2.712688 -0.84870869 -1.4860779
-2.6980598 -0.92157179 -1.4864106
-2.6975112 -0.99430346 -1.4740033
-2.6980131 -1.0407759 -1.4653027
-2.6942084 -1.1162035 -1.4553688
-2.689472 -1.1552403 -1.4527363
-2.7020876 -1.1277115 -1.446184
-2.7043588 -1.0970407 -1.449567
-2.7069654 -1.0173836 -1.4613376
-2.7114131 -0.99336386 -1.4615673
-2.7166984 -0.8937192 -1.4744561
-2.7354898 -0.29555041 -1.5635537
-2.753494 -0.41751444 -1.5255923
-2.7452984 -0.49582815 -1.5191269
-2.7258389 -0.77604854 -1.4870481
-2.7283204 -0.69134098 -1.4998282
-2.7364559 -0.65817487 -1.4983376
-2.7369168 -0.6142391 -1.5057154
-2.7344992 -0.60364568 -1.5097866
-2.7203395 -0.81096387 -1.4858385
-2.7233055 -0.26108748 -1.5807141
-2.7199681 -0.17716676 -1.5986296
-2.7510388 -0.070607007 -1.5893698
-2.7506518 -0.017820179 -1.5990865
-2.7620139 0.018832147 -1.5952896
-2.7633955 0.058669865 -1.6011055
-2.7381003 -0.012262046 -1.6114511
-3.3293436 -0.38731503 -1.0089219
-3.32727 -0.37300736 -1.0133402
-3.3329663 -0.34801781 -1.0126103
-3.0112112 -0.17813542 -1.3344352
-2.9903047 -0.27670634 -1.3358983
-2.9967203 -0.33532432 -1.3196818
-2.9945712 -0.37442538 -1.3146923
-3.0066919 -0.41095954 -1.2972223
-3.0112696 -0.3856231 -1.2975678
-3.0010729 -0.32491043 -1.3175838
-3.006988 -0.28779492 -1.3188068
-3.0054393 -0.25653371 -1.3257574
0 0 0 1 0 0 0 1 0 0 0 1 0 0 0 0 0 857 1 0 0
