ply
format ascii 1.0
comment PCL generated
element vertex 654
property float x
property float y
property float z
element camera 1
property float view_px
property float view_py
property float view_pz
property float x_axisx
property float x_axisy
property float x_axisz
property float y_axisx
property float y_axisy
property float y_axisz
property float z_axisx
property float z_axisy
property float z_axisz
property float focal
property float scalex
property float scaley
property float centerx
property float centery
property int viewportx
property int viewporty
property float k1
property float k2
end_header
-10.597242 -1.1142571 2.1734924
-10.623506 -1.2345364 2.1883957
-10.59486 -1.2340763 2.1773863
0.1332078 -1.0537622 -1.9461961
0.14511824 -1.1330795 -1.9475837
0.12888765 -1.0929468 -1.9429662
0.12159681 -1.0529281 -1.9417746
0.13718891 -0.97327447 -1.9509532
0.14153767 -0.93237442 -1.9542632
0.13530302 -0.92084771 -1.9523335
-0.36637354 1.4273002 -1.8540621
-0.38866282 1.4108522 -1.8448498
-0.35842943 1.3888979 -1.8555694
-0.3567071 1.3879188 -1.8561909
-0.34305859 1.3802752 -1.8611212
-0.32757044 1.3857858 -1.867285
-0.32475328 1.3881695 -1.8684616
-5.8495431 -0.89362109 0.34295252
-5.8825698 -0.89293033 0.35559708
-5.9917507 -0.77971458 0.39294672
-5.9542437 -0.77086544 0.37820029
-5.9312921 -0.77190214 0.36943528
-5.9096184 -0.76873833 0.36099219
-5.8097696 -0.73212546 0.32121134
-5.8010378 -0.73188424 0.31785125
-5.7317305 -0.72528273 0.29099309
-5.648808 -0.75923836 0.2605384
-5.6130724 -0.75953364 0.2468386
-5.5665007 -0.75824714 0.22891732
-5.5308084 -0.75604618 0.21513402
-5.4592934 -0.75913286 0.18781769
-5.4128094 -0.75285387 0.16972978
-5.3412504 -0.7584368 0.14249676
-5.3197083 -0.74778438 0.13380376
-5.2696476 -0.76651597 0.11534707
-5.1554823 -0.77185035 0.071756065
-5.1446266 -0.77020144 0.067524448
-5.1177874 -0.77040899 0.057234555
-5.0980821 -0.76641273 0.049513429
-5.0584154 -0.7657429 0.034266591
-5.0495362 -0.76464057 0.030815363
-4.9432216 -0.83108485 -0.0073113441
-4.8264656 -0.75312769 -0.055238485
-4.8155684 -0.75397485 -0.059385836
-4.7798796 -0.75183493 -0.073165417
-4.7191496 -0.76168406 -0.096072376
-4.5793915 -0.75780582 -0.14985302
-4.5188689 -0.75517482 -0.17318088
-4.472158 -0.76137018 -0.19085529
-4.425447 -0.76756549 -0.20852968
-4.4006972 -0.76208234 -0.21824613
-4.3648834 -0.76743048 -0.23177329
-4.2934227 -0.7681427 -0.25916407
-4.2111058 -0.76720607 -0.29078653
-4.1535807 -0.76925653 -0.3127766
-4.1321492 -0.84932947 -0.31778678
-4.1161842 -0.86945343 -0.32310507
-4.1617584 -0.89061123 -0.30476931
-4.197834 -0.91032636 -0.29013607
-4.2335644 -0.90997028 -0.27644059
-4.3132982 -1.0656602 -0.23959967
-4.2898836 -1.1307793 -0.24597093
-4.1389909 -1.1331615 -0.30377266
-4.0866437 -1.1510125 -0.32314196
-4.135067 -1.1759952 -0.30355951
-4.3109236 -1.2079332 -0.23480198
-4.4020309 -1.2527452 -0.19804606
-4.4034715 -1.247959 -0.19768548
-4.4619336 -1.1702021 -0.17837366
-4.6184835 -1.1744621 -0.11813462
-4.6330929 -1.2524189 -0.10940105
-4.5845532 -1.3345189 -0.12473124
-4.5660214 -1.3746333 -0.1302323
-4.4248519 -1.4106989 -0.18295172
-4.561296 -1.4539907 -0.12886113
-4.5955958 -1.4923706 -0.11416027
-4.6356077 -1.4862421 -0.099053741
-4.7177997 -1.4946666 -0.067178726
-4.7318182 -1.4910128 -0.061946332
-4.6684637 -1.3728435 -0.090997189
-4.6815557 -1.2918656 -0.089223117
-4.7569389 -1.1730821 -0.065064877
-4.8056564 -1.1636326 -0.046751231
-4.8217468 -1.1360207 -0.041685343
-4.7993178 -1.0951066 -0.051932961
-4.7999606 -0.97509152 -0.056502014
-4.8703856 -0.91416568 -0.031924695
-4.8953443 -0.90716875 -0.022628963
-4.9718041 -0.89220178 0.0061080754
-5.0444646 -0.94139266 0.035961598
-5.1638236 -0.86720216 0.078782603
-5.2212324 -0.87007064 0.10092548
-5.2678051 -0.8713572 0.11884692
-5.3392763 -0.87076676 0.14624657
-5.4625955 -0.96958214 0.19752918
-5.5155377 -0.97248757 0.2179596
-5.5382671 -0.94983703 0.22577199
-5.5804057 -0.93295801 0.24126315
-5.7183051 -0.87097788 0.29168802
-5.7291417 -0.87255973 0.29590946
-5.8056803 -0.89272988 0.32608652
-10.343172 -1.4351561 2.0888822
-10.291107 -1.2747755 2.0624695
-10.27725 -1.3939359 2.061934
-10.265297 -1.4339378 2.0589528
-10.246749 -1.4689846 2.053242
-10.244418 -1.4739895 2.0525486
-10.168135 -1.5559547 2.0265677
-10.203991 -1.5482669 2.0400171
-10.239897 -1.5380828 2.0533857
-10.243807 -1.5136184 2.0539043
-10.616634 -0.37369126 2.1512172
-10.626989 -0.4739899 2.159215
-10.637467 -0.63573849 2.1697257
-10.593805 -0.7950002 2.1593628
-10.585277 -0.91392422 2.1608624
-10.589708 -0.79440337 2.1577668
-10.588676 -0.67408669 2.1525433
-10.571301 -0.63352531 2.144249
-10.408418 -0.59201872 2.0800853
-10.585188 -0.60848832 2.1485727
-10.57671 -0.47375381 2.1399131
-10.411594 -0.43225974 2.0748937
-10.415415 -0.35236782 2.0731537
-10.416607 -0.29245642 2.0712073
-10.428926 -0.25183272 2.0743039
-10.42915 -0.17175475 2.0711765
-10.319387 -0.090843499 2.0258143
-10.320183 -0.050903738 2.0245168
-10.318745 -0.010976404 2.0223629
-10.321922 0.14878261 2.0171716
-10.325742 0.22867453 2.0154316
-10.328768 0.26862675 2.0149894
-10.326097 0.30772144 2.0123961
-10.330357 0.34850627 2.0123937
-10.33115 0.38844597 2.0110958
-10.332739 0.4683255 2.0085003
-10.34146 0.5091362 2.0102088
-10.33289 0.58813226 2.0037508
-10.333685 0.62807214 2.0024529
-10.337504 0.70796406 2.0007131
-10.336067 0.74789131 1.9985594
-10.336861 0.78783107 1.9972613
-10.339888 0.82778323 1.9968194
-10.342913 0.86773551 1.9963772
-10.343708 0.90767527 1.9950795
-10.47925 0.82773447 2.0502946
-10.484396 0.8282361 2.0522492
-10.497746 0.74796689 2.0605924
-10.630769 0.71460855 2.1129715
-10.630961 0.70706987 2.113348
-10.630123 0.68215752 2.1140258
-10.629825 0.66718006 2.1145124
-10.631763 0.6268419 2.1168745
-10.630968 0.58690214 2.1181724
-10.637684 0.54586816 2.122396
-10.637473 0.50083697 2.1241217
-10.616266 0.40339303 2.119895
-10.634694 0.36104786 2.1286645
-10.632006 0.34641832 2.1282203
-10.628487 0.32439965 2.1277535
-10.641684 0.26489723 2.1352046
-10.644985 0.22436059 2.138098
-10.636829 0.19300377 2.1362269
-10.653527 0.10294974 2.1462474
-10.647047 -0.016272694 2.1485448
-10.649668 -0.056709826 2.1511729
-10.653069 -0.092253983 2.1539042
-10.65287 -0.10223889 2.1542287
-10.606216 -0.17324591 2.1391768
-10.604189 -0.21401933 2.1400352
-10.633295 -0.29465723 2.1544385
-10.626703 -0.31622809 2.1527748
-9.872776 -1.5659498 1.9136397
-9.9208231 -1.5673515 1.9321318
-9.9262848 -1.5681478 1.9342593
-9.9620419 -1.5654525 1.947871
-9.9729662 -1.5670441 1.9521266
-10.008722 -1.5643488 1.9657382
-10.033605 -1.5575657 1.9750133
-10.074823 -1.5556657 1.9907526
-10.111629 -1.5512953 2.0046992
-10.121504 -1.5545621 2.0086193
-9.8120136 -1.6528207 1.8938113
-9.9118586 -1.6713884 1.9328666
-9.9538221 -1.6320457 1.9473892
-10.064173 -1.6322563 1.9897391
-10.078796 -1.6313485 1.9953136
-10.102112 -1.6320448 2.0042877
-5.791975 1.4045076 0.2286493
-5.8236184 1.4054651 0.24075253
-5.8643622 1.3800358 0.25740612
-5.9574409 1.3699802 0.29352376
-5.8502712 1.3689413 0.2524446
-5.7679453 1.3698785 0.22081876
-5.6966248 1.3766739 0.1931804
-5.6608171 1.3713355 0.17965537
-5.6142154 1.3726193 0.16172269
-5.6033363 1.3742493 0.15748306
-5.6282225 1.3787217 0.16685236
-5.7161455 1.4452215 0.19792005
0.14142799 -1.292622 -1.9397657
0.15086746 -1.3727086 -1.9401741
0.1446166 -1.3721714 -1.9377973
0.11674213 -1.3579669 -1.9276717
-0.18359852 1.3665999 -1.921757
-0.19865942 1.3803192 -1.9165287
-0.1519928 1.371574 -1.9340837
-9.8549709 -1.5635535 1.9067119
-9.8370686 -1.5661489 1.8999468
-9.8192139 -1.5662487 1.8931001
-9.7670708 -1.5665561 1.8731049
-9.7492657 -1.5641592 1.8661773
-9.6420469 -1.5697489 1.8252617
-9.790144 -1.6304791 1.8845234
-8.442625 -1.4118397 1.3587086
-8.4186888 -1.2588761 1.3433868
-8.4306412 -1.2188742 1.3463677
-8.4192066 -1.1384475 1.3387531
-8.3975506 -1.0976002 1.3288049
-8.3904476 -1.0161166 1.3228095
-8.4029598 -0.93782866 1.3244691
-8.3936234 -0.85635751 1.317618
-8.4072123 -0.84629798 1.3224282
-8.4572315 -0.7794373 1.3389376
-8.4568224 -0.69791639 1.3355094
-8.4511557 -0.65636021 1.3316678
-8.4472523 -0.61809915 1.3286349
-8.4803591 -0.61622769 1.3412627
-8.516264 -0.6060437 1.3546308
-8.5410471 -0.60425299 1.364068
-8.5586023 -0.61913085 1.3714012
-8.6115665 -0.64878714 1.3929135
-8.647274 -0.64858806 1.4066063
-8.6829815 -0.64838898 1.4202991
-8.7404375 -0.65636569 1.4426651
-8.8004799 -0.67684203 1.4665251
-8.8156557 -0.69922107 1.4732457
-8.8183565 -0.74203324 1.4760002
-8.8090715 -0.7957567 1.474593
-8.7824383 -0.90073538 1.4685863
-8.8020954 -0.93994141 1.4777018
-8.7983475 -1.0595617 1.4810638
-8.840436 -1.2205143 1.5036713
-8.9275169 -1.3275445 1.5413787
-8.963274 -1.3248492 1.5549905
-9.0053282 -1.3420864 1.5718185
-9.0134602 -1.3819765 1.5765395
-8.9992771 -1.4219909 1.5727026
-9.1149387 -1.5428046 1.6219298
-9.2304544 -1.5587888 1.6668946
-9.1133509 -1.622684 1.6245258
-9.0106936 -1.6232563 1.5851592
-9.004097 -1.6183012 1.5824294
-8.8498478 -1.6424681 1.524214
-8.8271351 -1.6625624 1.5163052
-8.810442 -1.6221005 1.5082767
-8.8040619 -1.5986396 1.504887
-8.6622763 -1.547015 1.4484128
-8.6264696 -1.5522065 1.4348822
-8.5800371 -1.5408289 1.4166094
-8.5086727 -1.5387309 1.3891428
-8.4730644 -1.5339375 1.3752878
-8.3902798 -1.55521 1.3443769
-8.4108963 -1.5384668 1.3516158
-8.0711069 -1.5894711 1.2232853
-8.0498543 -1.5563331 1.2138009
-8.000288 -1.5599145 1.1949265
-7.9893641 -1.5583229 1.190671
-8.0504751 -1.6170417 1.2164754
-8.0767059 -1.617825 1.2265713
-3.2761102 -1.5046813 -0.61995149
-3.3471961 -1.5264332 -0.59180295
-3.4189901 -1.5057529 -0.56508553
-3.4546373 -1.5103889 -0.55122173
-3.4904094 -1.5075368 -0.53761053
-3.402986 -1.4457681 -0.57363319
-3.3083673 -1.3279104 -0.61466753
-3.3049839 -1.2630585 -0.61856794
-3.3725998 -1.1666732 -0.59649122
-3.4868274 -1.2038472 -0.55117071
-3.5429108 -1.1543946 -0.53163576
-3.5787249 -1.1490465 -0.51810873
-3.5953417 -1.1315517 -0.51243484
-3.6397095 -1.0903013 -0.49706611
-3.5909967 -1.0658307 -0.51673901
-3.5708926 -1.0477631 -0.52517796
-3.5344477 -0.92789793 -0.54397154
-3.6306849 -0.82835275 -0.51103973
-3.5957041 -0.78378052 -0.52625024
-3.5631371 -0.77883399 -0.53894472
-3.5134294 -0.78034782 -0.55795681
-3.4202154 -0.78025836 -0.59372652
-3.3952987 -0.78475928 -0.60310638
-3.3486295 -0.78845865 -0.62086487
-3.2661877 -0.79501003 -0.65223479
-3.2414794 -0.78703094 -0.66203547
-3.2305405 -0.7903741 -0.66609859
-3.1501658 -0.80688739 -0.69627571
-3.1231828 -0.80142653 -0.70684814
-3.0818996 -0.80844629 -0.72240686
-3.075495 -0.84931827 -0.72322428
-3.1217248 -0.88878715 -0.70390213
-3.1921439 -0.95047545 -0.67440712
-3.1999943 -0.96918428 -0.67064416
-3.1946757 -1.0495358 -0.66946077
-3.1939359 -1.1284143 -0.6665796
-3.2165744 -1.2090364 -0.6546582
-3.224484 -1.2870598 -0.64849257
-3.2553151 -1.4464712 -0.63026619
-3.1859016 -1.4875319 -0.65525246
-3.1004128 -1.5136393 -0.68700671
-3.1637528 -1.5299885 -0.66204727
-6.9026856 -1.6192918 0.77616018
-6.8764892 -1.6185681 0.76607955
-6.8762331 -1.5403516 0.76284266
-6.8764524 -1.5278704 0.76242608
-6.9587598 -1.5288618 0.79404712
-7.0562401 -1.5388868 0.83185244
-6.9144583 -1.6182544 0.7806356
-2.9195187 0.30663174 -0.82945561
-2.9213459 0.29384249 -0.82824135
-2.918644 0.25421536 -0.82768798
-2.9246769 0.21434587 -0.82377326
-2.9326329 0.17273837 -0.81905115
-2.9274168 0.12776548 -0.81924784
-2.9116707 0.060432553 -0.82258797
-2.9258397 0.012897074 -0.81524384
-2.9234891 -0.066821009 -0.81294703
-2.925734 -0.10683808 -0.81047988
-2.9218404 -0.22672078 -0.80716348
-2.8921905 -0.14358801 -0.82187593
-2.8757045 -0.027477324 -0.83286059
-2.8725715 0.05235076 -0.83726597
-2.8553727 0.092109025 -0.84546041
-2.8574555 0.21691 -0.84966898
-2.8616049 0.3317492 -0.85268486
-2.8622715 0.37168556 -0.85403156
-2.8654861 0.41928446 -0.85470808
-2.8441727 0.49129415 -0.86577547
-2.8515387 0.53129721 -0.86455429
-2.8509099 0.61876476 -0.86830521
-2.8599546 0.6519388 -0.866166
-2.8606212 0.69187522 -0.8675127
-2.8673239 0.77454662 -0.86825812
-2.8679903 0.81448305 -0.86960495
-2.8632872 0.85162032 -0.87289965
-2.8576808 0.88250017 -0.87628984
-2.8540475 0.93237603 -0.87968528
-2.8524811 0.97229004 -0.88188791
-2.8592639 0.97734892 -0.87948835
-2.9073334 0.93114996 -0.85919034
-2.9299989 0.85305393 -0.84736001
-2.9229543 0.77958119 -0.8471148
-2.937808 0.73356235 -0.83956885
-2.9232669 0.67443633 -0.84277582
-2.9253094 0.65357852 -0.84115529
-3.0289345 0.57475185 -0.79823148
-3.0311258 0.57227814 -0.79729128
-2.9692292 0.49254048 -0.81784141
-2.9337323 0.37239772 -0.82664073
-6.137435 -0.93159389 0.4549399
-6.0274863 -0.7794193 0.40664655
-6.0990448 -0.77383637 0.43387955
-6.2391129 -0.75772643 0.48697704
-6.2532625 -0.74927497 0.49206701
-6.2856851 -0.75901306 0.50489831
-6.3572435 -0.75343007 0.53213131
-6.4398589 -0.73694789 0.56316924
-6.4643192 -0.76003289 0.5734809
-6.5574198 -0.76510239 0.60940695
-6.5683675 -0.77749121 0.61410475
-6.602232 -0.81317556 0.62853038
-6.6165185 -0.85029769 0.63550162
-6.6052637 -0.85538244 0.63138711
-6.5098381 -0.82122886 0.59340203
-6.4880333 -0.82555377 0.58520907
-6.3987107 -0.93528509 0.55533922
-6.3894057 -0.97362435 0.55330729
-6.4690142 -1.1110857 0.58936864
-6.4938688 -1.1117048 0.59893018
-6.5046616 -1.1157829 0.60323513
-6.5154548 -1.1198611 0.60754001
-6.5441103 -1.1360507 0.61918473
-6.5461173 -1.1763856 0.62157333
-6.5388184 -1.2053516 0.61993492
-6.5032139 -1.1981583 0.60598499
-6.4321375 -1.1762829 0.57783532
-6.3874683 -1.1766517 0.56071055
-6.3774381 -1.1738098 0.55674791
-6.3731971 -1.1334932 0.55350292
-6.2898345 -0.97183537 0.51503015
-6.2554541 -0.97232842 0.50185817
-3.6250374 -1.3705044 -0.49145237
-3.5945625 -1.5042831 -0.49777761
-3.5477679 -1.5154705 -0.5152837
-6.4867182 -1.5185888 0.61251307
-6.5442147 -1.5164648 0.6344893
-6.5907874 -1.5177516 0.65241075
-6.5688505 -1.529565 0.64446759
-7.0398521 -1.0967216 0.80782223
-7.084568 -1.0877268 0.82461882
-7.1093793 -1.090842 0.8342638
-7.1559954 -1.0896325 0.8521018
-7.2035532 -1.0983986 0.87070131
-7.2289076 -1.0998604 0.8804884
-7.1880026 -1.1401322 0.8664093
-7.130044 -1.1514189 0.84462345
-7.0726786 -1.1460543 0.82239723
-7.0010762 -1.1541334 0.79524755
-6.9825802 -1.1394267 0.78756058
-7.0127025 -1.1107833 0.7979691
-6.1542616 -1.5196643 0.48499304
-6.0967646 -1.5217884 0.46301678
-6.1687622 -1.4912431 0.48941648
-6.2085614 -1.4915411 0.50469941
-6.2508507 -1.5047156 0.52145433
-6.3439951 -1.5072888 0.55729705
-6.3080406 -1.5200651 0.54401398
-6.2613807 -1.5237708 0.5262593
-6.2008777 -1.5184548 0.50283116
-10.343334 1.346652 1.9773219
-10.335873 1.350243 1.9743148
-10.305876 1.3617287 1.9623444
-10.289539 1.3666129 1.9558799
-10.357551 1.2671704 1.9859661
-10.357346 1.3079314 1.9842519
-2.2425838 -1.5361452 -1.0152518
-2.2533844 -1.5378096 -1.0110408
-2.3357177 -1.535987 -0.97952282
-2.4072161 -1.5349959 -0.95212865
-2.4430332 -1.5295086 -0.9386059
-2.4679818 -1.5273488 -0.92911983
-2.4940341 -1.5305541 -0.9189949
-2.5145314 -1.5285176 -0.91121185
-2.5503147 -1.5255262 -0.89760184
-2.5082548 -1.5266662 -0.9136945
-2.4725306 -1.5246639 -0.92748213
-2.4572148 -1.5231885 -0.93341792
-2.4259684 -1.5259562 -0.94529617
-2.3544512 -1.5269432 -0.97269762
-2.3186927 -1.5274367 -0.98639822
-2.2471063 -1.5334154 -1.013626
-2.231817 -1.531985 -1.0195498
-2.2091255 -1.532779 -1.0282247
-6.2897873 1.3689712 0.42108518
-6.2401829 1.3700106 0.40201032
-6.3005824 1.362349 0.42549297
-5.7335658 -1.4931674 0.32250947
-5.6992979 -1.4888543 0.30918777
-5.6825266 -1.4919178 0.30287558
-5.7179551 -1.509096 0.31715876
-5.8109245 -1.521654 0.35333487
-5.8247228 -1.5331724 0.35909152
-5.860415 -1.5353734 0.37287483
-8.3401012 1.4404525 1.2049199
-8.4406672 1.3869281 1.2456547
-8.3939857 1.3858246 1.2277876
-8.3420372 1.4001147 1.2072815
-8.3229694 1.4053962 1.1997532
-8.2829838 1.4043299 1.1844535
-8.2617474 1.4010099 1.1764385
-8.2263756 1.3832377 1.1635795
-8.1578465 1.3853172 1.1372015
-8.1328154 1.3710454 1.1281698
-8.108182 1.3767434 1.1184891
0.14559698 -1.0133076 -1.9525733
-0.52347183 -0.36740422 -1.7217698
-0.58325481 -0.37183943 -1.698653
-0.53335476 -0.43645754 -1.7152067
-0.4458189 -0.39321128 -1.7505295
-0.40378809 -0.39305994 -1.7666626
-0.37000561 -0.39154533 -1.779686
-0.3554678 -0.3911584 -1.7852795
-0.31768942 -0.39129612 -1.7997694
-0.28813982 -0.38892683 -1.8112025
-0.3127861 -0.35801041 -1.8029864
-0.3231926 -0.36156142 -1.798851
-0.39514017 -0.35379475 -1.7715564
-0.43071795 -0.3658222 -1.7574227
-0.46868849 -0.36688298 -1.742811
-0.49852324 -0.36956418 -1.7312558
-0.50141382 -0.36954725 -1.7301471
-10.35429 1.2255644 1.9863844
-10.360842 1.189281 1.9903543
-10.356733 1.1548311 1.9901602
-10.356634 1.1498387 1.9903226
-10.352925 1.1099858 1.9904985
-10.349116 1.0674467 1.9907438
-10.34991 1.1073866 1.9894457
-10.351703 1.146506 1.9885639
-2.9178252 -0.40628234 -0.80149913
-2.9160542 -0.48626915 -0.79896915
-2.9185038 -0.40638542 -0.8012346
-2.916487 -0.32654613 -0.80521202
-2.9090025 -0.30665323 -0.80888212
-5.0765476 1.3881005 -0.045200974
-5.0488987 1.3825427 -0.055586696
-5.0656085 1.3847574 -0.049264103
-5.0847063 1.3878812 -0.042061687
-7.5421147 -1.5450658 1.0185299
-7.5022292 -1.5410405 1.0030644
-7.4556131 -1.5422502 0.98522627
-7.4349942 -1.5456629 0.97745192
-7.4664059 -1.5463282 0.98953128
-7.4880795 -1.549492 0.99797428
-7.5130219 -1.5451186 1.0073692
-6.4263473 -1.5057838 0.588835
-6.4045858 -1.5076125 0.58055854
-6.4402771 -1.5098135 0.5943417
-7.1749449 -1.5362345 0.87729287
-7.2520366 -1.5456035 0.90724874
-7.1697726 -1.542116 0.87554443
-7.1340809 -1.539915 0.86176109
-5.539453 -1.5005875 0.24832621
-5.4712071 -1.4961371 0.22196189
-5.552341 -1.4093652 0.24961103
-5.5643559 -1.3714215 0.25269857
-5.5751519 -1.4095947 0.25837272
-5.132421 -1.5015353 0.09218663
-5.1433182 -1.5006881 0.096333846
-5.1541739 -1.502337 0.10056528
-8.2392159 1.4042925 1.1676615
-8.2985344 1.4210793 1.1897482
-8.0258436 1.377937 1.0868481
-7.9432573 1.3666493 1.0556128
-7.9682879 1.380921 1.0646445
-8.9128485 1.3829505 1.4269897
-8.948555 1.3831496 1.4406824
-8.9732389 1.3799478 1.4502819
-8.9594297 1.3790617 1.445019
-8.9017258 1.3745571 1.4230585
-8.8660679 1.3768543 1.4092847
-7.2453928 1.3825819 0.78720379
-7.2700691 1.3745739 0.79699337
-7.2095432 1.3747473 0.77376282
-2.9202099 -0.30404592 -0.80468643
-3.0648074 -1.5065073 -0.70095479
-3.0398908 -1.5110084 -0.71033454
-2.7272303 -1.523687 -0.82979333
-2.7802064 -1.5191183 -0.80964983
-2.8017101 -1.5250083 -0.80116248
-2.7668667 -1.5265887 -0.8144685
-2.7320025 -1.5305277 -0.82768774
-2.7141788 -1.5282097 -0.83461964
-2.6963139 -1.5283877 -0.84146738
-2.6854582 -1.5267389 -0.84569883
-2.6637053 -1.5259372 -0.85407758
-2.6121483 -1.5257789 -0.87386632
-2.5860977 -1.5225347 -0.88399196
-2.6263685 -1.5218912 -0.86856592
-2.6705315 -1.5244718 -0.85151708
-2.7021911 -1.5234973 -0.83940852
-2.719424 -1.5242983 -0.83276415
-3.9160116 -1.5085661 -0.37426612
-3.9625561 -1.512355 -0.35625502
-4.0342665 -1.4966666 -0.32936922
-3.987639 -1.4978697 -0.34721193
-3.9736614 -1.4990277 -0.3525286
-3.6714635 1.4308585 -0.58604574
-3.6001694 1.4401302 -0.61377323
-3.589272 1.4392831 -0.61792052
-3.5639389 1.409822 -0.62645876
-3.5847428 1.4124452 -0.61858153
-3.6455772 1.4089884 -0.59510076
-3.6960466 1.4153912 -0.57599258
-3.731694 1.4107552 -0.56212866
-2.9653304 1.216382 -0.84838212
-2.9695795 1.1656187 -0.84471488
-2.9492497 1.1347302 -0.85127604
-2.9603682 1.4202861 -0.85846806
-2.9137721 1.4215999 -0.87639952
-2.8914704 1.4186532 -0.88483846
-2.8717113 1.4166498 -0.89233971
-2.8570135 1.4130992 -0.89783669
-2.8338203 1.4091147 -0.90657592
-2.7898202 1.3973473 -0.92298663
-2.7621927 1.3984187 -0.93363023
-2.7596273 1.399308 -0.9346503
-2.778157 1.3994291 -0.92754531
-7.6716585 1.3784239 0.95092821
-7.6964908 1.3827109 0.96028435
-7.7539473 1.3747342 0.9826504
-7.7428737 1.3688371 0.97863817
-7.7073154 1.3761269 0.96470213
-0.44601631 -1.5289751 -1.7048804
-0.39945889 -1.5302328 -1.7226939
-0.42449665 -1.5255885 -1.7132732
-2.8750076 -1.5241112 -0.77307439
-2.8641105 -1.5249584 -0.77722168
-2.8504016 -1.526852 -0.78240573
-2.8997159 -1.5320902 -0.7632736
-2.9173961 -1.5261843 -0.75672686
-4.0699973 -1.4963105 -0.31567374
-4.1387944 -1.4709487 -0.29029396
-4.1744003 -1.4780806 -0.27634588
-4.2374697 -1.4911079 -0.2516236
-4.2475343 -1.4940825 -0.24764237
-4.2143469 -1.4926562 -0.26043358
-4.1881695 -1.489403 -0.2706084
-4.1160297 -1.4900122 -0.29826382
-4.0916257 -1.5046002 -0.30704233
-5.0501041 -1.5005987 0.060564175
-5.0671482 -1.5052918 0.067292154
-5.0563111 -1.50371 0.063070551
-5.0454745 -1.5021281 0.058849096
-2.9240348 1.2293119 -0.86474609
-2.8638937 1.4074646 -0.89497066
-5.5739655 -1.4926058 0.26124847
-5.6251178 -1.4890492 0.28073269
-5.6359982 -1.488135 0.28487098
-0.49363041 -1.5243285 -1.6867973
-0.5543623 -1.519177 -1.6637012
-0.6116786 -1.5245062 -1.6414951
-0.68310928 -1.5285069 -1.6139269
-0.60098028 -1.5153542 -1.6459674
-0.56553698 -1.4933867 -1.6604483
-0.52958345 -1.5088575 -1.6736228
-0.48282957 -1.5226641 -1.6910083
-2.9081531 1.2141801 -0.8702327
-2.9117656 1.1802049 -0.86748338
-2.91431 1.1356999 -0.86472118
-0.60026455 -0.85475999 -1.6727489
-0.52557659 -1.0080158 -1.6952569
-0.52820826 -1.0134237 -1.6940302
-0.54246855 -1.0545131 -1.6869098
-0.47793961 -1.0867152 -1.7103773
-0.42145014 -1.0898308 -1.7319274
-0.41563511 -1.089676 -1.7341647
-0.34244394 -1.0495379 -1.7638586
-0.31516695 -1.0506344 -1.7742808
-0.26523781 -1.0099082 -1.7950728
-0.22481346 -0.92919815 -1.813822
-0.20482874 -0.88906896 -1.8231003
-0.19851303 -0.83608139 -1.8276498
-0.19898891 -0.80363548 -1.8287692
-0.3064909 -0.78729486 -1.7881765
-0.31741762 -0.78586221 -1.7840414
-0.3390193 -0.78919101 -1.7756195
-0.37483597 -0.78370368 -1.7620966
-0.38891888 -0.77809435 -1.7569182
-0.4107213 -0.77322459 -1.7487481
-0.43343496 -0.77109563 -1.7401183
-0.4462719 -0.77603412 -1.7349946
-0.50713444 -0.77256942 -1.7117808
-0.55368423 -0.77373827 -1.6938728
-0.60013199 -0.78239477 -1.6757034
-0.63884878 -0.81237 -1.659645
-0.6353035 -0.82432932 -1.6605254
-3.0317659 1.4133034 -0.83079255
-3.0714951 1.4154015 -0.8156327
-3.0329521 1.4152918 -0.83041728
-2.9874127 1.4146183 -0.84786355
-3.0067997 1.4089887 -0.84019899
0 0 0 1 0 0 0 1 0 0 0 1 0 0 0 0 0 654 1 0 0
