ply
format ascii 1.0
comment PCL generated
element vertex 442
property float x
property float y
property float z
element camera 1
property float view_px
property float view_py
property float view_pz
property float x_axisx
property float x_axisy
property float x_axisz
property float y_axisx
property float y_axisy
property float y_axisz
property float z_axisx
property float z_axisy
property float z_axisz
property float focal
property float scalex
property float scaley
property float centerx
property float centery
property int viewportx
property int viewporty
property float k1
property float k2
end_header
1.1230378 -1.5327423 1.1904955
1.1319442 -1.514744 1.1909003
1.044642 -1.5108912 1.2266302
0.98898411 -1.5311595 1.244405
0.91777515 -1.5357629 1.2718427
0.88217115 -1.5380647 1.2855613
0.78408003 -1.529375 1.3266671
0.70396805 -1.5519761 1.3536985
0.46418381 -1.542882 1.4515067
0.33669853 -1.5280993 1.5056984
0.30181885 -1.5207896 1.5212443
0.25542593 -1.5182545 1.5403388
0.21982145 -1.5205562 1.5540576
0.16012573 -1.520385 1.5779467
0.077766418 -1.5249574 1.6098464
0.044314623 -1.5248642 1.6232324
0.0065574646 -1.5295608 1.637284
-0.029227734 -1.5342655 1.650546
-0.14646745 -1.5315282 1.6979916
-0.18024969 -1.5244778 1.7130418
-0.21530509 -1.5195963 1.7281231
-0.29785657 -1.5266061 1.7595628
-0.35490918 -1.5168283 1.7845113
-0.47282171 -1.5245342 1.8299261
-0.62499833 -1.5138006 1.8930917
-0.71818757 -1.513557 1.9303789
-0.76666236 -1.5134954 1.9497606
-0.83821535 -1.5229533 1.9762667
-0.88354802 -1.5060134 1.9981097
-0.9493103 -1.4617811 2.0341253
-1.2956429 -1.3925084 2.1877563
-1.4194748 -1.1050098 2.3005428
-1.227545 -0.79864419 2.2913218
-1.1085992 -0.80366349 2.242692
-0.92077827 -0.78492999 2.1717734
-1.1055346 -0.76281929 2.2504616
-1.1396887 -0.74592489 2.2678282
-1.23981 -0.51500106 2.3586829
-1.2100618 -0.41658562 2.3684688
-1.154557 -0.32294583 2.3669124
-1.1442344 -0.29591507 2.3687403
-1.1358678 -0.27488649 2.3700283
-1.160023 -0.28399438 2.3776736
-1.3222048 -0.3618727 2.4253237
-1.3246622 -0.36353508 2.4259396
-1.3727441 -0.42333689 2.4319816
-1.4274573 -0.50341868 2.4362075
-1.4480686 -0.53258556 2.43802
-1.521333 -0.63937128 2.4437776
-1.5570323 -0.66806591 2.4517224
-1.7671075 -0.66034007 2.5373588
-1.8028841 -0.66506898 2.550612
-1.9240849 -0.7430377 2.5818682
-1.9623967 -0.75361437 2.5948467
-2.0557752 -0.78840679 2.6244941
-2.141099 -0.77485633 2.6615691
-2.2014732 -0.78435963 2.683599
-2.2831235 -0.77935636 2.7173238
-2.3157582 -0.76720679 2.7330384
-2.3759522 -0.77430749 2.7555254
-2.4623582 -0.76254815 2.7926381
-2.5038366 -0.76437718 2.8088081
-2.5833106 -0.78718388 2.8355396
-2.690073 -0.79465848 2.8765502
-2.8519375 -1.0994595 2.8741033
-2.7827249 -1.2535595 2.8125153
-2.588402 -1.5051197 2.6794782
-2.5614185 -1.5068402 2.6683183
-2.4712873 -1.5097818 2.6316586
-2.3623414 -1.5121179 2.587615
-2.3269253 -1.5121942 2.5734477
-2.233736 -1.5124378 2.5361605
-2.0646605 -1.2639214 2.5233321
-2.0312893 -1.2617404 2.510479
-1.8729858 -1.3561089 2.4264483
-1.8120685 -1.3836278 2.396049
-1.5083704 -1.2175213 2.311285
-1.6167839 -0.99234033 2.4041882
-1.6960907 -0.95610327 2.4438548
-1.8883176 -0.85952681 2.5419257
-1.9561412 -0.82859379 2.5758362
-2.0385334 -0.79917151 2.6152349
-2.1830816 -0.83730787 2.6645908
-2.229316 -0.83238083 2.6841488
-2.3854034 -0.87527692 2.7370672
-2.4318318 -0.82341617 2.7670379
-5.6989675 1.3353257 4.5477901
-5.731051 1.3595545 4.5659442
-5.8018818 1.3591337 4.594152
-5.8862967 1.3487532 4.6255941
-5.9327927 1.3510165 4.6446695
-5.9787922 1.3604832 4.6651335
-6.0007887 1.3678312 4.67554
-6.15204 1.3910737 4.7410908
-6.1988678 1.3885345 4.7592411
-6.3168569 1.3807721 4.8046741
-6.3878531 1.3779502 4.8324194
-6.4928308 1.3663647 4.8718119
-6.4490929 1.3534455 4.8514915
-6.3420191 1.3660824 4.8114929
-6.2631083 1.344393 4.775188
-6.1776991 1.3691804 4.7465215
-6.0595498 1.3417127 4.6932664
-6.0397015 1.3407805 4.6851306
-5.9935365 1.3337152 4.6651297
-5.8758779 1.3366752 4.6187716
-5.7696323 1.3373063 4.5764599
1.0516481 -1.5397487 1.2174761
1.021349 -1.5456699 1.2282782
0.98007727 -1.5491579 1.2440002
0.86265659 -1.5488234 1.2909892
0.78029728 -1.5533957 1.3228886
0.73939133 -1.5520773 1.3395231
-8.9747143 1.1310754 5.8116322
-8.9649229 1.0976797 5.8003654
-8.9172783 1.0913575 5.7799373
-8.8268747 1.0836689 5.7421236
-8.8172369 1.1223503 5.7467909
-8.6442728 1.3272884 5.7228122
-8.6171112 1.3364825 5.7139845
-8.5938263 1.3616025 5.7102127
-8.33601 1.36515 5.6079836
-8.3134184 1.3438954 5.5942769
-8.1834421 1.361274 5.5461721
-8.1372204 1.3542306 5.5261526
-8.1013327 1.3616884 5.5134563
-8.1939411 1.3733742 5.5530314
-8.3136349 1.4737973 5.6229687
-8.316534 1.4740875 5.6241913
-8.3891973 1.468153 5.6519165
-8.4338551 1.4657593 5.6692324
-8.4635048 1.466656 5.6812763
-8.5111446 1.4671509 5.7004204
-8.549511 1.471379 5.7166805
-8.7363892 1.3461764 5.7637763
-8.772934 1.3291156 5.774621
-8.8668585 1.3215959 5.8104925
-8.8990154 1.3065996 5.8200383
-8.9638996 1.2283633 5.8287344
-8.9668159 1.1818228 5.8196507
-8.7544594 -1.5626485 5.1304483
-8.9298363 -1.56098 5.2008877
-8.9678097 -1.5785859 5.212183
-9.0395842 -1.5935012 5.237576
-8.9573097 -1.5906863 5.2053232
-8.7223034 -1.5893465 5.1117215
-8.6041412 -1.5790737 5.0667725
-4.0699687 -1.5237844 3.2673259
-4.0057163 -1.524981 3.2413902
-3.9745493 -1.5329038 3.2271929
-3.8315313 -1.5233963 3.1721439
-3.7780631 -1.5356832 3.1480751
-3.7068882 -1.5307002 3.1207347
-3.6604297 -1.5331424 3.1016345
-3.5787294 -1.5378952 3.0679445
-3.5431418 -1.5354037 3.0542743
-3.5073817 -1.5305111 3.0410638
-3.468451 -1.5303117 3.025553
-3.42731 -1.5249052 3.0103056
-3.4006195 -1.5230367 3.0000529
-3.1793854 -1.2782159 2.9655709
-3.1894193 -1.2024744 2.986259
-3.1950047 -1.1264215 3.0052381
-3.2010326 -1.0542601 3.0235369
-3.1927192 -1.0070484 3.0306118
-3.2676582 -0.80956453 3.1040411
-3.2647419 -0.79980487 3.1050251
-3.2167263 -0.78063834 3.0900612
-3.1916647 -0.76841104 3.0827403
-3.1453786 -0.77325433 3.0631804
-3.0387895 -0.76818073 3.0217099
-2.9677877 -0.76559865 2.9939101
-2.9248209 -0.79253691 2.9708107
-2.7330396 -0.76772016 2.8996496
-2.7221682 -0.772654 2.8942194
-3.9805431 -1.5531651 3.225126
-3.7922537 -1.5528443 3.149966
-3.6853185 -1.5429688 3.1094148
-3.6034453 -1.5453205 3.0761847
-3.5107005 -1.5526061 3.0375242
-3.3934131 -1.5548673 2.9901643
-3.3078749 -1.5303222 2.9613929
-3.2112923 -1.5083098 2.9276507
-3.1216936 -1.5352895 2.8859105
-3.0617363 -1.5301745 2.863081
-3.050519 -1.5303065 2.8585701
-3.0044062 -1.5375507 2.8385506
-2.8876374 -1.547015 2.7898116
-2.7910547 -1.5250026 2.7560694
-2.6739402 -1.5296648 2.7082498
-2.6516786 -1.5323296 2.6987684
-2.5811956 -1.5369503 2.6695895
-2.5188668 -1.5358534 2.6449277
-2.5088656 -1.5376217 2.6405425
-2.4176221 -1.544055 2.6026697
-2.3662043 -1.5386066 2.5833254
-2.3197899 -1.5411311 2.5642247
-2.2735558 -1.5460582 2.5446668
-2.2126405 -1.5293469 2.5240083
-2.1772246 -1.5294232 2.509841
-2.1056716 -1.5199656 2.483335
-2.0376756 -1.5314189 2.453645
-2.0128427 -1.5250144 2.4451334
-1.9276905 -1.508334 2.4147842
-1.8924546 -1.510813 2.4001598
-1.8563175 -1.5012789 2.3878207
-1.5762086 -1.494802 2.2773299
-1.5431359 -1.5261121 2.2572212
-1.3901129 -1.5240602 2.1965327
-1.3273952 -1.4833231 2.1804447
-1.2842782 -1.4677751 2.1666412
0.19390249 1.3601766 2.1987751
0.065628052 1.3673658 2.25161
0.12590933 1.3794935 2.2301953
0.17227268 1.3746798 2.2106109
0.24319267 1.3771539 2.1828198
0.27891731 1.381994 2.1696119
0.31464195 1.3868341 2.156404
0.34691048 1.3626769 2.1381917
1.1691284 1.3631139 1.8097719
1.2184181 1.3800907 1.7938166
1.1476741 1.3800189 1.8220665
1.0410295 1.3727055 1.8630658
0.88108015 1.4303045 1.939657
0.83489323 1.4375203 1.9596999
0.75245333 1.4326894 1.9915748
0.68767023 1.4234662 2.0154276
0.65424347 1.4146791 2.0268483
0.58738947 1.3863401 2.0473194
0.60744333 1.3845024 2.0389023
0.69076395 1.4013443 2.0093203
0.73747873 1.401335 1.9906534
0.78419447 1.4013259 1.9719863
0.89936447 1.3701596 1.9191072
0.96993256 1.3678291 1.8903985
-5.887506 -1.5518575 3.9873381
-5.8572927 -1.5456718 3.9766285
-5.7226977 -1.5420643 3.9236457
-5.6406374 -1.5419695 3.8908796
-5.5696511 -1.5393376 3.8630967
-5.5233421 -1.5441599 3.8435321
-5.4409375 -1.5392634 3.8116858
-5.3593936 -1.546371 3.77754
-5.3345447 -1.5365162 3.7697816
-5.2487521 -1.5070875 3.7419837
-5.1242871 -1.5435495 3.6842248
-5.0890522 -1.545835 3.6696434
-5.0536451 -1.5457194 3.6555219
-4.9719291 -1.5504262 3.6218359
-4.8739419 -1.5591264 3.5807695
-4.8383546 -1.5566349 3.5670993
-4.7838197 -1.5523858 3.5462456
-4.6819873 -1.5319086 3.5100679
-4.6357017 -1.5367519 3.4905078
-4.5947647 -1.5379277 3.4738929
-4.5077157 -1.5463479 3.4372582
-4.3793831 -1.551142 3.3849275
-4.3437963 -1.5486505 3.3712575
-4.2948637 -1.5452247 3.3524609
-4.2508783 -1.5535352 3.3330567
-4.1356211 -1.5300341 3.292181
-4.258604 -1.5289073 3.3415666
-4.3189073 -1.5388242 3.363477
-4.3900819 -1.5438073 3.3908174
-4.4666615 -1.5249171 3.4255743
-4.5249271 -1.5320278 3.4472885
-4.5752254 -1.5244341 3.4690573
-4.6467462 -1.534219 3.4954786
0.4681468 -1.5164585 1.455742
0.46956205 -1.2016228 1.524506
0.4841814 -1.1839398 1.5225587
0.52268219 -1.1431924 1.5161487
0.51189613 -1.1053838 1.5287842
0.49012709 -1.0767056 1.5437971
0.47897673 -1.0766745 1.548259
0.42559433 -1.0808775 1.5686623
0.41780615 -1.081381 1.5716633
0.33383894 -1.0947347 1.6022716
0.28944254 -1.0929577 1.6204014
0.25401878 -1.0928566 1.6345772
0.17238379 -1.0878175 1.668304
0.081952095 -1.0515105 1.712431
-0.15393353 -0.81513876 1.8587296
-0.17743421 -0.80077749 1.8712819
-0.22721648 -0.78412831 1.8948386
-0.31878352 -0.76226133 1.9362392
-0.3651979 -0.75973684 1.95534
-0.4470284 -0.75713617 1.988608
-0.48262477 -0.75946248 2.0023181
-0.56337357 -0.74244618 2.0383282
-0.70738101 -0.77337474 2.0890555
-0.77857351 -0.77802742 2.1164758
-0.86094475 -0.78263444 2.1483727
-0.89654088 -0.78496075 2.1620827
-0.10900974 1.3793688 2.3240294
-0.036109924 1.3752866 2.2940035
-0.085881233 1.3583643 2.310163
-0.050455332 1.3583498 2.2960057
-0.041016817 1.3600519 2.2926092
-0.01467514 1.3631394 2.2827644
0.0410707 1.3600786 2.2598171
-6.7356429 -1.5506716 4.3264713
-6.5553761 -1.5108571 4.2632132
-6.5185714 -1.5120742 4.24824
-6.484446 -1.5082029 4.2354579
-6.4363389 -1.5095786 4.2159338
-6.4030256 -1.5125631 4.2019663
-6.354795 -1.5166862 4.1817875
-6.3083134 -1.5191076 4.162683
-6.2480583 -1.5091374 4.1408033
-6.2029347 -1.5098259 4.122623
-6.1677256 -1.5121019 4.1080542
-6.0978398 -1.520417 4.0783
-6.0278268 -1.524251 4.0494823
-6.0159512 -1.5227228 4.045074
-6.9103661 -0.75029558 4.5725307
-7.1045752 -0.81597424 4.635664
-7.1491842 -0.82153624 4.6522627
-7.3461385 -1.0837778 4.6732078
-7.35498 -1.1522568 4.6616607
-7.4005861 -1.1967708 4.6700802
-7.5985546 -1.1738478 4.7542257
-7.7075391 -1.5258589 4.7202549
-7.7054691 -1.143981 4.8035202
-7.7370415 -1.1091379 4.8238077
-7.7643118 -0.93500555 4.8730488
-7.5932903 -1.0970246 4.7690396
-7.3980169 -0.80317593 4.7557268
-7.3265619 -0.79809159 4.7282963
-7.2332211 -0.79111904 4.6925378
-7.2151494 -0.79331619 4.684833
-6.7778587 -1.5536736 4.3426771
-6.9159126 -1.4662164 4.4170952
-6.9507799 -1.4591367 4.4325857
-7.007988 -1.4471837 4.458075
-7.1217566 -1.4651068 4.4995842
-7.0787344 -1.4273152 4.4907169
-7.0020742 -1.2045517 4.5091419
-6.9480066 -1.1011763 4.5103035
-4.9270878 -1.5176504 3.6111374
-5.1227465 -1.2306443 3.7525134
-5.0721364 -1.1754456 3.7444475
-5.0521102 -1.1429765 3.7435961
-4.9300561 -1.0115905 3.7237618
-4.9297123 -1.0067887 3.7246819
-4.9187045 -0.93381542 3.7363529
-4.9119282 -0.91569281 3.7376363
-4.8235607 -0.81340557 3.7248538
-4.8291807 -0.80526477 3.7288918
-4.8536286 -0.77594101 3.7451172
-4.9183316 -0.77281761 3.7716572
-4.9954286 -0.77880377 3.8011429
-5.0773163 -0.77649778 3.8343689
-5.2550392 -0.78667843 3.903136
-5.393795 -0.7698108 3.96229
-5.4779277 -0.76522636 3.9969144
-5.5490289 -0.77028245 4.0242095
-5.5954084 -0.76556998 4.0437779
-5.6309586 -0.76809812 4.0574255
-5.6664882 -0.76958179 4.0712943
-5.7125473 -0.76110977 4.0915627
-5.8279133 -0.76573509 4.1366386
-5.863492 -0.7682513 4.1503
-5.9344783 -0.77088308 4.1780829
-5.9700575 -0.77339947 4.1917443
-6.0056362 -0.77591574 4.2054062
-6.0546722 -0.77658719 4.2248502
-6.1007099 -0.76707089 4.2453403
-6.2189384 -0.78861278 4.2878342
-6.267293 -0.78214771 4.308578
-6.324501 -0.77019483 4.3340673
-6.4533224 -0.77050388 4.3854699
-6.5249367 -0.78276587 4.4113827
-6.5736971 -0.79269505 4.4286785
-6.6772842 -0.77602971 4.4737368
-6.7587013 -0.76663959 4.5083346
-6.8049102 -0.75952518 4.5283637
-0.8421061 -1.4507694 1.9937167
-0.64320946 -1.4584498 1.9125566
-0.59373069 -1.4201301 1.9012258
-0.49325562 -1.199229 1.9097254
-0.49055171 -1.1631899 1.9165812
-0.44305801 -1.0022922 1.9330361
-0.63951039 -0.78800321 2.0587168
-0.70797658 -0.77981007 2.0878763
-0.87035322 -0.82420379 2.142978
-5.5614443 -0.87502885 4.006104
-5.4755673 -0.9002108 3.9662468
-5.4399881 -0.89769453 3.9525852
-5.393507 -0.90011597 3.9334807
-5.3490067 -1.2621827 3.8359704
-5.3975611 -1.2936023 3.8484514
-5.602078 -1.3635321 3.9147668
-5.6092649 -1.3712063 3.9159484
-5.7243619 -1.430966 3.9487755
-5.7960362 -1.4432011 3.9747186
-5.8448734 -1.4509065 3.9925346
-5.8915272 -1.4508861 4.0111794
-5.9154544 -1.4463663 4.0217347
-6.1214199 -1.3514962 4.1249194
-6.0650287 -1.0816698 4.1618061
-5.8929863 -0.84292901 4.1456399
-5.7621617 -0.78304881 4.106555
-5.7266111 -0.7805208 4.0929079
-7.807024 1.3612351 5.3957663
-7.8534107 1.3658774 5.4153223
-7.7709723 1.3710935 5.3835325
-7.693985 1.4000769 5.3591547
-7.7352495 1.3761504 5.3703728
-6.8166451 1.3201985 4.991025
-6.9344692 1.3148372 5.036921
-6.9697189 1.317028 5.0514874
-7.0267992 1.328968 5.0769229
-7.1092076 1.3238173 5.1087151
-7.1447878 1.3212059 5.1223559
-7.2004819 1.3115754 5.1424875
-7.2804527 1.3423703 5.181221
-7.3266754 1.3494136 5.2012405
-7.3830681 1.3733587 5.2290449
-7.3714161 1.3780634 5.2254257
-7.2547359 1.3667297 5.1763105
-7.246212 1.3666244 5.1728811
-7.1997156 1.3643613 5.1538053
-7.1485538 1.3674963 5.1340542
-7.058424 1.3571107 5.0957556
-7.0473046 1.3579271 5.0914931
-7.0384092 1.3585799 5.0880823
-6.9768152 1.363605 5.064579
-6.8955755 1.3620069 5.0317678
-6.8935595 1.3606424 5.0306625
-6.8268986 1.3346779 4.9983101
-6.744987 1.3326252 4.9651308
-4.8156667 -1.5255684 3.5648754
-4.8265691 -1.5206306 3.5703187
-4.8808022 -1.5224936 3.5915773
-0.1429193 1.368124 2.3351018
-0.18897462 1.3754132 2.3551083
-0.19942641 1.3850899 2.3614151
-0.16435432 1.380271 2.3463411
-8.0256424 -1.5420175 4.8437943
-7.9799142 -1.556263 4.8223863
-7.9083042 -1.5437481 4.7965307
0 0 0 1 0 0 0 1 0 0 0 1 0 0 0 0 0 442 1 0 0
