ply
format ascii 1.0
comment PCL generated
element vertex 354
property float x
property float y
property float z
element camera 1
property float view_px
property float view_py
property float view_pz
property float x_axisx
property float x_axisy
property float x_axisz
property float y_axisx
property float y_axisy
property float y_axisz
property float z_axisx
property float z_axisy
property float z_axisz
property float focal
property float scalex
property float scaley
property float centerx
property float centery
property int viewportx
property int viewporty
property float k1
property float k2
end_header
-8.491478 1.2556154 6.5185823
-8.3770523 1.2991127 6.4749813
-8.3029594 1.2973266 6.4464116
-8.2254372 1.297972 6.4165483
-8.0697117 1.3017488 6.3565874
-8.0305996 1.299565 6.3414922
-7.8694091 1.3132313 6.2795367
-7.787075 1.3137813 6.247818
-7.715714 1.3070502 6.2202463
-7.638175 1.3026962 6.19032
-7.5687151 1.3032968 6.1635628
-7.5215478 1.3036574 6.1453924
-7.4797101 1.3089181 6.1293311
-7.4419632 1.3042618 6.1147342
-7.3617077 1.3098521 6.0838733
-7.2841687 1.305498 6.0539474
-7.2213964 1.3060266 6.0297661
-7.2066464 1.3061433 6.0240841
-7.1511841 1.3098528 6.0027552
-7.0893316 1.3070909 5.9788914
-7.0509138 1.3074205 5.9640923
-7.0365858 1.3057864 5.9585533
-6.8822145 1.3070028 5.899085
-6.7972326 1.3249732 5.8665419
-6.7615108 1.3153286 5.8526697
-6.7237496 1.3081481 5.8380389
-6.616724 1.3089689 5.7968097
-6.5612264 1.3217213 5.7755685
-6.5255194 1.3170763 5.7617579
-6.4075089 1.3129507 5.7162404
-6.3704443 1.3107816 5.7019348
-6.2895203 1.3163244 5.6708155
-6.1715527 1.3271971 5.625483
-6.0535359 1.3205717 5.5799346
-5.9619274 1.3542762 5.5450149
-5.8591423 1.3155414 5.5049753
-5.8338976 1.3151039 5.4952431
-5.7825122 1.3151865 5.4754448
-5.7029386 1.3157532 5.4447899
-5.6638484 1.3210479 5.4297872
-5.6214485 1.3164692 5.4133987
-5.5484533 1.2769737 5.384829
-5.513783 1.1573645 5.3701272
-5.4662638 1.0775265 5.3509207
-5.3854513 0.95906317 5.3184524
-5.1143885 0.92093897 5.2135797
-4.9485927 1.0021882 5.1506081
-4.9102845 1.0424908 5.1362996
-4.8275437 1.0831791 5.1048756
-4.7757316 1.1099807 5.0852122
-4.7366261 1.110234 5.070147
-4.6221237 1.1510545 5.0264859
-4.543231 1.151545 4.9960928
-4.4293351 1.1523861 4.9522166
-4.3895469 1.1526233 4.9368882
-4.2722197 1.1934139 4.892138
-4.1542339 1.1541275 4.8462353
-4.1117105 1.1543001 4.8298521
-3.9956872 1.1150972 4.7847066
-3.91611 1.1155715 4.7540493
-3.8141525 1.0762593 4.7143221
-3.719749 1.0368311 4.6775045
-3.6394114 0.99729407 4.6461053
-3.5868475 0.95767713 4.6254067
-3.4800267 0.87825608 4.5833554
-3.3996124 0.79872334 4.5514774
-3.360431 0.75898111 4.535934
-3.3191981 0.71919048 4.5195994
-3.2400744 0.59969449 4.4877701
-3.2014999 0.51997292 4.4720116
-3.1608739 0.44020295 4.4554625
-2.9438698 0.36215287 4.3709707
-2.9075003 0.36247104 4.3569608
-2.8320258 0.36304247 4.3278856
-2.7497134 0.36345226 4.296174
-2.7349639 0.36354524 4.2904916
-2.7112925 0.36372179 4.281373
-2.6749227 0.3640399 4.2673626
-2.6337667 0.36424476 4.2515068
-2.6191959 0.3642683 4.2458925
-2.5541894 0.36471915 4.22085
-2.4597788 0.32870114 4.1840672
-2.4213586 0.32901037 4.1692672
-2.3822541 0.32930303 4.1542025
-2.327538 0.32975996 4.1331248
-2.228461 0.29054481 4.0945086
-2.1900408 0.29085404 4.0797081
-2.0739839 0.25177014 4.0345507
-2.0362477 0.25209582 4.0200143
-1.9308341 0.21280533 3.9789555
-1.8034494 0.17391148 3.9294355
-1.7635484 0.13419265 3.9136152
-1.7236474 0.094473809 3.8977947
-1.6460104 0.055080652 3.8674376
-1.56301 0.055550903 3.8354616
-1.4991071 0.020726293 3.8104477
-1.2177329 0.22089612 3.7042773
-1.2131979 0.26091152 3.7029791
-1.2131295 0.30090857 3.703402
-1.1964293 0.38085854 3.6978648
-1.1963608 0.42085558 3.6982875
-1.1989911 0.46089762 3.6997504
-1.1590757 0.54097062 3.6852696
-1.1219275 0.58109146 3.6714063
-1.0847797 0.62121236 3.6575432
-1.0453982 0.66134238 3.6428194
-0.9686811 0.70149922 3.6137099
-0.92950916 0.74158645 3.5990665
-0.81212974 0.7818538 3.5542903
-0.66030121 0.86228693 3.4966917
-0.62187195 0.86238825 3.4818854
-0.46255374 0.98269486 3.4218483
-0.4260118 1.062824 3.408668
-0.38805199 1.1829277 3.39539
-0.30970788 1.2631022 3.3661027
-0.27121043 1.3032005 3.3517194
-0.22057319 1.3405968 3.332628
-0.18214035 1.3431979 3.3178484
-0.13829231 1.3557085 3.3010936
-0.091754436 1.3631743 3.2832456
-0.056028843 1.3608207 3.2694535
-0.01527071 1.353533 3.2536669
0.026213646 1.3534341 3.2376814
0.10273123 1.3538463 3.2082026
0.14939499 1.361338 3.1903064
0.26741314 1.3741502 3.1449761
0.33875036 1.3669716 3.1174083
0.42315006 1.3770921 3.0850012
0.45676136 1.3747844 3.0720243
0.52809858 1.3676057 3.0444565
0.57475948 1.3725976 3.0265331
0.59944248 1.3654268 3.016942
0.72842741 1.3680714 2.9672718
0.77578115 1.3780526 2.9491377
0.79293203 1.3781432 2.9425302
0.89308643 1.3708768 2.9038577
1.0421824 1.5389117 2.8482952
1.2718029 1.3871437 2.7581148
1.3541379 1.3922961 2.7264478
1.4144707 1.367787 2.7029254
1.5544195 1.3577644 2.6488883
1.6724176 1.3555778 2.6033974
1.7859397 1.3408719 2.5594904
1.8192225 1.2210312 2.5453205
1.8244848 1.1810853 2.5428443
1.8347216 1.1411072 2.538451
1.8413568 1.1011403 2.5354457
1.8304362 1.0215327 2.5387597
1.8323913 0.94133031 2.5371058
1.8499527 0.86119807 2.5294394
1.866322 0.66117865 2.5208862
1.8703856 0.62111855 2.5188706
1.8651834 0.58128864 2.5204279
1.8873186 0.46139777 2.5105529
1.8715501 0.34133631 2.5152807
1.8714428 0.26134223 2.5144238
1.8867745 0.18119991 2.5076163
1.8846049 0.10141408 2.5075567
1.8956156 -0.0010282695 2.5021639
1.8914742 -0.018463939 2.5035636
1.8642697 -0.098661527 2.5131457
1.8597035 -0.17867571 2.5140069
1.8596497 -0.2186728 2.5135784
1.8609681 -0.25869089 2.5126209
1.870429 -0.33017528 2.508173
1.8704114 -0.38132909 2.5076053
1.8137889 -0.57025707 2.5273015
1.8178568 -0.69024169 2.5243871
1.8177233 -0.73023915 2.5239894
1.8108864 -0.89007926 2.5248291
1.8124557 -0.97023159 2.5233245
1.8098221 -1.0902278 2.5229921
1.811789 -1.1702188 2.5213361
1.8091555 -1.290215 2.5210035
1.802321 -1.3302243 2.5231876
1.7977209 -1.3702295 2.5245111
1.7643476 -1.4501213 2.536473
1.7504153 -1.4903033 2.5413904
1.7086725 -1.5200527 2.5571404
1.6729102 -1.5276144 2.5708354
1.519165 -1.5352205 2.6299903
1.4476738 -1.5403445 2.6574795
1.3911018 -1.5301323 2.6793921
1.293962 -1.5379512 2.7167339
1.2474623 -1.5353717 2.7346799
1.1759872 -1.535496 2.762219
1.1652174 -1.5353541 2.7663703
1.1045294 -1.5306206 2.7898076
1.0937591 -1.5304787 2.7939591
1.058022 -1.5305408 2.8077285
1.0222845 -1.5306031 2.8214979
0.98654652 -1.5306652 2.8352675
0.90430212 -1.5306475 2.8669579
0.87125731 -1.530745 2.8796897
0.82205677 -1.5306299 2.8986487
0.75058222 -1.5307542 2.9261875
0.62184572 -1.5256572 2.9758487
0.59687042 -1.5283611 2.9854419
0.47888756 -1.5284055 3.0309019
0.39663458 -1.5308878 3.0625675
0.36089706 -1.53095 3.0763371
0.26790667 -1.5232909 3.1122537
0.22145748 -1.5057124 3.1303487
0.078448772 -1.5234598 3.1852527
0.064695358 -1.5269964 3.1905127
0.0069742203 -1.5235841 3.2127917
-0.0287714 -1.5261461 3.2265363
-0.099805355 -1.522005 3.2539535
-0.17126131 -1.5221672 3.2814846
-0.22854757 -1.5069329 3.3037291
-0.32498217 -1.5248333 3.3406856
-0.38229895 -1.5195985 3.3628294
-0.45376229 -1.5222605 3.3903356
-0.52517271 -1.5074239 3.4180176
-0.58248973 -1.502189 3.4401617
-0.59807539 -1.4872254 3.4463348
-0.81578541 -1.2874031 3.5324657
-0.90694118 -1.3272761 3.5671415
-0.99324965 -1.2074122 3.6017437
-1.0185666 -1.0874785 3.6128452
-1.0569866 -1.007503 3.628547
-1.0986698 -0.96749783 3.6450572
-1.2235441 -0.80808985 3.694963
-1.4203439 -0.78573012 3.7710443
-1.4560719 -0.78581119 3.7848098
-1.5468457 -0.76815325 3.8199847
-1.692066 -0.79348117 3.8756559
-1.8289282 -1.128585 3.9246287
-1.7775013 -1.1713226 3.9043331
-1.6755774 -1.2484107 3.8641949
-1.5754859 -1.2583654 3.8255162
-1.535919 -1.3283389 3.8094847
-1.4989617 -1.3682749 3.794796
-1.4602208 -1.4882354 3.7785218
-1.5364027 -1.4883285 3.8078747
-1.5734806 -1.4883898 3.8221607
-1.647274 -1.4883289 3.8505952
-1.6624899 -1.488295 3.8564584
-1.6975427 -1.488386 3.8699639
-1.7298267 -1.466018 3.8826547
-1.8316448 -1.408388 3.9225338
-1.8806591 -1.3715023 3.9418337
-1.9616997 -1.32195 3.9736164
-2.015286 -1.2924548 3.9945953
-2.309283 -1.4948952 4.1056037
-2.3742173 -1.5745249 4.1297302
-2.3975306 -1.5745628 4.1387124
-2.6186447 -1.527 4.2244453
-2.7009666 -1.5224104 4.256217
-2.7833123 -1.5053219 4.2881379
-2.9369676 -1.5213985 4.3471632
-3.0083251 -1.5295663 4.3745666
-3.0906417 -1.5274763 4.4063077
-3.2086401 -1.5282202 4.451766
-3.3623192 -1.5317982 4.5109406
-3.5160031 -1.5328766 4.5701456
-3.6226954 -1.5031561 4.6115894
-3.6847878 -1.5036023 4.6355095
-3.7518456 -1.5040046 4.6613436
-3.8343213 -1.5297748 4.6928334
-3.9880004 -1.5333529 4.752008
-4.0236812 -1.5361868 4.7657247
-4.070322 -1.5287631 4.7837796
-4.157464 -1.5065621 4.817606
-4.2596869 -1.5326754 4.8567009
-4.3419995 -1.5330852 4.8884125
-4.4243212 -1.5284954 4.9201837
-4.5780053 -1.5295738 4.9793887
-4.6493912 -1.5227431 5.0069714
-4.7317085 -1.5206531 5.038713
-4.8100157 -1.5167769 5.0689297
-4.867979 -1.5171857 5.091259
-4.9815454 -1.4877536 5.1353483
-5.062542 -1.4381231 5.1671152
-5.2554102 -1.3191836 5.2427654
-5.3329334 -1.319598 5.2726316
-5.3734126 -1.3197806 5.2882271
-5.4915528 -1.3604194 5.333292
-5.6470876 -1.4011897 5.3927641
-5.6841011 -1.4414182 5.4065742
-5.7409034 -1.4017042 5.4289069
-5.9228849 -1.4025761 5.4990177
-5.9980569 -1.4430441 5.5275283
-6.0381088 -1.4432091 5.5429587
-6.1973076 -1.403982 5.6047411
-6.3118443 -1.4446249 5.6484175
-6.4333086 -1.4101754 5.6956067
-6.5828013 -1.4860767 5.7523561
-6.6225944 -1.4850193 5.7677011
-6.7428255 -1.4868819 5.8140068
-6.8023753 -1.4867436 5.8369541
-6.9738522 -1.4880995 5.9030113
-7.1232305 -1.5133635 5.9602857
-7.1302538 -1.5139062 5.9629855
-7.3056412 -1.542152 6.0302482
-7.3879919 -1.5377024 6.0620289
-7.4592867 -1.5509692 6.0893512
-7.6129823 -1.5447881 6.1486416
-7.7776337 -1.5508871 6.2120161
-7.8133097 -1.5487716 6.2257862
-8.0025902 -1.5679717 6.2985034
-8.1206179 -1.5614065 6.3440552
-8.167284 -1.5615722 6.3620343
-8.2430782 -1.5623885 6.3912301
-8.2496185 -1.562122 6.3937531
-8.3566465 -1.5557753 6.4350638
-8.4033861 -1.5334436 6.4533243
-8.4076748 -1.4833674 6.4555387
-8.4146805 -1.4432356 6.4586887
-8.4093132 -1.4033494 6.4570689
-8.4060268 -1.3631489 6.4562535
-8.4152241 -1.2782547 6.4607506
-8.4187765 -1.2431905 6.462513
-8.4182205 -1.2032087 6.4627481
-8.4176655 -1.1632271 6.4629831
-8.4173737 -1.0432547 6.4642172
-8.416131 -1.0032866 6.4641876
-8.4233627 -0.8837111 6.4683166
-8.4372044 -0.84398973 6.4740963
-8.4195633 -0.68368632 6.4690986
-8.4265156 -0.60376763 6.4726744
-8.4286356 -0.54562134 6.4741445
-8.4287758 -0.50312626 6.4746752
-8.4400702 -0.41291729 6.4800401
-8.4428196 -0.39146033 6.4813404
-8.4429274 -0.3589631 6.4817467
-8.4430084 -0.33396703 6.482059
-8.4430265 -0.32896659 6.4821219
-8.4372587 -0.22300762 6.4810891
-8.4434786 -0.19148256 6.48384
-8.4422607 -0.14401537 6.4839034
-8.4473362 -0.063929111 6.4867582
-8.4467802 -0.023947388 6.4869928
-8.4566669 0.056234449 6.4917026
-8.455308 0.061206549 6.4912348
-8.4473076 0.13603401 6.4889927
-8.4481277 0.176043 6.4897575
-8.4475708 0.21602476 6.4899921
-8.4877586 0.33570862 6.5068212
-8.4852734 0.41564471 6.5067606
-8.4881554 0.45569462 6.5083208
-8.4528818 0.57606483 6.4960809
-8.4897652 0.73567581 6.5120845
-8.4927769 0.81572115 6.5141439
-8.4937286 0.89572549 6.515409
-8.4960537 0.97575712 6.5172033
-8.4976931 1.055775 6.5187335
-8.4998875 1.0958115 6.5200281
-5.4650927 -0.77254355 5.3296971
-5.3470812 -0.78444558 5.2840915
-5.225389 -1.11887 5.2334471
-5.3357649 -1.2095678 5.2749581
-5.5986204 -1.080961 5.3776846
-5.6096601 -1.001001 5.3828359
0 0 0 1 0 0 0 1 0 0 0 1 0 0 0 0 0 354 1 0 0
