ply
format ascii 1.0
comment PCL generated
element vertex 709
property float x
property float y
property float z
element camera 1
property float view_px
property float view_py
property float view_pz
property float x_axisx
property float x_axisy
property float x_axisz
property float y_axisx
property float y_axisy
property float y_axisz
property float z_axisx
property float z_axisy
property float z_axisz
property float focal
property float scalex
property float scaley
property float centerx
property float centery
property int viewportx
property int viewporty
property float k1
property float k2
end_header
-8.0422115 0.15013146 6.5917587
-8.0450916 0.16765463 6.6041217
-8.0300655 0.17563838 6.5839052
-7.914403 0.39732695 6.4996634
-7.8772597 0.47792774 6.4768009
-7.8407526 0.5260374 6.4404726
-7.7808704 0.54753309 6.3553076
-7.7566018 0.55182666 6.3188243
-7.7260828 0.52556819 6.2588434
-7.7621331 0.40479451 6.2620816
-7.8517237 0.4134286 6.4076691
-7.8719416 0.40784663 6.43717
-8.0100355 0.1587584 6.5446954
-1.6817369 -1.4309101 -4.1754398
-1.710799 -1.4862931 -4.1541305
-1.7434645 -1.500278 -4.1086798
-1.7765887 -1.5049211 -4.058342
-1.8170395 -1.5248659 -4.0032287
-1.8762691 -1.5220494 -3.9082665
-1.9325502 -1.526845 -3.8213596
-1.9619305 -1.5242525 -3.7737222
-1.9776254 -1.5167828 -3.745564
-1.9815128 -1.5139074 -3.738133
-1.992382 -1.5045764 -3.7167807
-2.006669 -1.4900019 -3.6876845
-2.0083923 -1.420054 -3.653801
-2.01647 -1.3661263 -3.6169996
-2.0204 -1.3372068 -3.5979004
-2.2044139 -1.3376174 -3.3069539
-2.2573471 -1.4650466 -3.2799697
-2.2659009 -1.5026233 -3.2831745
-2.3285236 -1.5177765 -3.1908484
-2.3359983 -1.522958 -3.1813307
-2.3501394 -1.5301472 -3.1621609
-2.3945813 -1.5393941 -3.0959673
-2.4376087 -1.5415351 -3.0288472
-2.4733634 -1.526058 -2.9653859
-2.5475016 -1.5567889 -2.8617802
-2.5973969 -1.5485007 -2.7791486
-2.6110663 -1.5533211 -2.7596693
-2.6889052 -1.5352478 -2.6284695
-2.6449347 -1.5283695 -2.6949716
-2.458282 -1.260221 -2.8708324
-2.4598126 -1.2439681 -2.8611708
-2.2724662 -1.2117739 -3.1432323
-2.2586784 -1.1983778 -3.1590791
-2.2540324 -1.1957287 -3.1652498
-2.2217104 -1.1826333 -3.2105532
-2.2123678 -1.1812203 -3.2247047
-2.177201 -1.1757076 -3.2778864
-2.0521502 -1.016906 -3.4049945
-2.0342772 -0.97853374 -3.4161787
-2.0112965 -0.89867663 -3.416965
-2.0002487 -0.85897458 -3.416759
-1.978153 -0.77957034 -3.4163475
-1.9567878 -0.75185132 -3.4378023
-1.9390581 -0.73554301 -3.4585886
-1.9345474 -0.73445034 -3.4652376
-1.924129 -0.73795056 -3.4832797
-1.9049051 -0.74365318 -3.5162344
-1.9022186 -0.74465394 -3.5209303
-1.8893394 -0.76633292 -3.5509634
-1.8789937 -0.78231567 -3.5744505
-1.8573475 -0.80072522 -3.6168976
-1.8536325 -0.81447917 -3.628902
-1.8486922 -0.84371763 -3.6497416
-1.8469977 -0.85683388 -3.6582651
-1.748404 -0.96352887 -3.8617764
-1.5795267 -0.73481709 -4.0270815
-1.5107565 -0.6108495 -4.0806637
-1.4352143 -0.39494929 -4.1040092
-1.398247 -0.29425868 -4.1176438
-1.3934805 -0.27562585 -4.1168852
-1.3325412 -0.1506508 -4.157629
-1.319042 -0.10961822 -4.1607089
-1.275789 0.0444538 -4.1605101
-1.2012784 0.20540625 -4.2066994
-1.1670542 0.28683913 -4.2245727
-1.1258934 0.44660407 -4.2185283
-1.1381841 0.56874901 -4.1446748
-1.1223943 0.76758522 -4.0810866
-1.0413532 0.92899269 -4.1374059
-0.92847371 1.1272926 -4.227663
-0.92298484 1.1658211 -4.2191849
-0.95203447 1.3829739 -4.0764971
-1.0373883 1.3702888 -3.9471083
-1.0426962 1.3675716 -3.9399214
-1.0930247 1.3336785 -3.8753934
-1.1308527 1.2936437 -3.8333788
-1.1336324 1.293057 -3.8292422
-1.2281895 1.3470998 -3.65557
-1.2571003 1.3520601 -3.6076207
-1.3182075 1.3454034 -3.5139079
-1.3471184 1.350364 -3.4659581
-1.3970194 1.3585651 -3.3833566
-1.4107049 1.3536873 -3.3638778
-1.4501812 1.3482463 -3.3038454
-1.469419 1.3609188 -3.2677641
-1.5316923 1.3711689 -3.1646757
-1.5740387 1.3492925 -3.1074238
-1.6038947 1.3494265 -3.0601287
-1.6372478 1.3548067 -3.0049639
-1.6529884 1.3622327 -2.9767528
-1.7002106 1.384511 -2.8921189
-1.6698864 1.386745 -2.9390998
-1.5914044 1.3714368 -3.070085
-1.5171087 1.3808289 -3.1834455
-1.5025253 1.3904889 -3.2022147
-1.3948767 1.3945007 -3.3707395
-1.3406553 1.4023144 -3.453043
-1.3175521 1.3962786 -3.4922833
-1.2876959 1.3961449 -3.5395789
-1.2469661 1.3840017 -3.609426
-1.1986053 1.3905165 -3.6830359
-1.1863286 1.3882899 -3.7034512
-1.1123424 1.3732672 -3.8271966
-1.0672989 1.4009595 -3.8861251
-1.0285914 1.4355922 -3.9319377
-0.99677324 1.4172249 -3.990459
-0.97672153 1.4092476 -4.0257363
-0.92278695 1.4022021 -4.1142049
-0.88892961 1.4061577 -4.1660089
-0.84665799 1.3530114 -4.2565603
-0.84644318 1.3378458 -4.2636552
-0.84991145 1.2986798 -4.2756143
-0.87344956 1.1853268 -4.288866
-0.89624977 1.0497785 -4.3131723
-0.91303754 0.97309166 -4.3207712
-0.92704582 0.89699143 -4.3325067
-0.97566271 0.61211687 -4.3824835
-1.0307934 0.44953656 -4.3676801
-1.0544128 0.36182821 -4.3693805
-1.004065 0.14463401 -4.5457826
-1.0346754 0.033513129 -4.5468512
-1.1244965 -0.065512359 -4.448854
-1.1769714 -0.18949848 -4.421061
-1.1844807 -0.22738907 -4.4260588
-1.1928747 -0.26573259 -4.4298577
-1.1994994 -0.30317029 -4.4360533
-1.2269084 -0.42299315 -4.446063
-1.2369099 -0.44939202 -4.4419985
-1.2412937 -0.45102674 -4.435791
-1.36009 -0.55424458 -4.2938194
-1.4775262 -0.84972012 -4.2396393
-1.5099812 -0.93024713 -4.2241621
-1.5534842 -1.0504763 -4.20889
-1.5854516 -1.1971771 -4.22366
-1.5885937 -1.2238646 -4.2305765
-1.6131423 -1.3368986 -4.2420878
-7.5798721 -1.5308323 5.1115251
-7.5217199 -1.5348015 5.0177546
-7.4874525 -1.5356487 4.9631619
-7.4383793 -1.5487419 4.8796911
-7.3938923 -1.5388663 4.8137069
-7.374896 -1.5298321 4.7876768
-7.3656082 -1.5238382 4.7756519
-7.354969 -1.5160689 4.76228
-7.2771454 -1.5117695 4.6410704
-7.2230082 -1.5201116 4.5517039
-7.1853361 -1.5415604 4.4825492
-7.1536436 -1.5296431 4.4377155
-7.1302061 -1.5255276 4.4024682
-7.0957594 -1.5338671 4.344255
-7.0508099 -1.5590138 4.2619395
-7.0346308 -1.5581861 4.236711
-6.9845467 -1.5786633 4.1483507
-6.8924208 -1.5275134 4.0253825
-6.8757935 -1.5303527 3.9978118
-6.828846 -1.5310154 3.9232407
-6.8106441 -1.5249349 3.8971515
-6.7872972 -1.5136015 3.8652625
-6.7507577 -1.5027204 3.8123002
-6.6646261 -1.5271819 3.6651354
-6.6505589 -1.5589294 3.6287374
-6.5894489 -1.5522101 3.535048
-6.5586591 -1.5476677 3.4883585
-6.5103035 -1.5412333 3.4147215
-6.4776373 -1.5272284 3.369278
-6.4384346 -1.5216427 3.3097429
-6.4036541 -1.5422738 3.2455263
-6.3601093 -1.5374467 3.1787848
-6.3277936 -1.5478566 3.1230206
-6.2559242 -1.528266 3.0180421
-6.1669583 -1.5091491 2.8858047
-6.2680912 -1.5482345 3.0283971
-7.7681327 -1.5259955 5.4115276
-7.8121543 -1.5335066 5.477829
-7.8712492 -1.5532606 5.5625234
-7.7751632 -1.5667806 5.4044833
-7.7144737 -1.5620575 5.3105702
-7.6709175 -1.556911 5.2439523
-7.6385126 -1.5672162 5.1880941
-7.533802 -1.5549822 5.0278802
-7.7206545 -1.5240576 5.337275
-7.688715 -1.5367273 5.2811003
-7.6456251 -1.5339451 5.2141662
-8.3729286 -1.5424709 6.3610401
-8.2855101 -1.543658 6.2222056
-8.2465487 -1.5470394 6.1590586
-8.1519289 -1.5436075 6.0108895
-8.0444946 -1.5638003 5.8319225
-7.9990768 -1.5491958 5.766571
-7.9191933 -1.5575631 5.6364603
-4.2522368 1.3860414 1.1461388
-4.2227988 1.3877804 1.1003394
-4.1282372 1.4209228 0.96549541
-4.0798955 1.4043062 0.881612
-4.0465994 1.3987713 0.82646918
-4.0205021 1.3819435 0.77768445
-4.0151787 1.383769 0.77007556
-3.9481189 1.375066 0.6601029
-3.9367883 1.3681967 0.63911682
-3.8909173 1.3848262 0.57395154
-3.8506708 1.3730536 0.50503355
-3.8291745 1.3720212 0.47056416
-3.7660255 1.366317 0.36811489
-3.7245345 1.3835783 0.31016046
-3.6745911 1.3752759 0.22744639
-3.6458366 1.3923061 0.18953979
-3.6087911 1.4057062 0.13689885
-3.5632274 1.3980355 0.061395496
-3.5143828 1.4069328 -0.011918724
-3.4626446 1.3663573 -0.111848
-3.4337287 1.361454 -0.15977997
-3.4209921 1.361685 -0.17982781
-3.4124615 1.3851333 -0.18287933
-3.4848118 1.4187932 -0.053420186
-3.5027587 1.4230108 -0.023147404
-3.5071249 1.4249952 -0.015355825
-3.5215898 1.4267704 0.0083197355
-3.5674615 1.4449008 0.088969707
-3.6153688 1.440737 0.16290942
-3.6364424 1.4255424 0.189482
-3.691869 1.3976099 0.26473039
-6.6386375 1.387784 4.9224534
-6.7173748 1.3787975 5.0430207
-6.7751398 1.3662448 5.1288199
-6.8050241 1.366276 5.1761141
-6.8250647 1.3745725 5.2115159
-6.8486156 1.3611979 5.2428188
-6.8623238 1.3560884 5.2622304
-6.9013338 1.3553357 5.3236127
-6.9350824 1.3585227 5.3784261
-6.9786739 1.3534443 5.4451313
-6.992382 1.3483348 5.4645424
-7.0384417 1.3535075 5.5397182
-7.0721908 1.3566942 5.594532
-7.1343875 1.530545 5.7703733
-7.2203007 1.3997793 5.8480496
-7.2615361 1.3662264 5.8983426
-7.3142457 1.3232694 5.9625998
-7.3306231 1.3178761 5.9861083
-7.313024 1.3198168 5.9591289
-7.2993469 1.3249667 5.939785
-7.2424412 1.3383422 5.8557119
-7.2253342 1.3379312 5.8284636
-7.208693 1.3351552 5.8008986
-7.1881876 1.3236895 5.76335
-7.1601653 1.319732 5.7172523
-7.1430578 1.3193209 5.6900039
-7.1117773 1.3263848 5.643661
-7.0647488 1.3204689 5.5666213
-7.052475 1.3239567 5.5487571
-7.0045528 1.3282444 5.4748487
-6.9424572 1.3400068 5.3818469
-6.839282 1.2985053 5.2001262
-6.7961559 1.3012183 5.1331038
-6.7634788 1.315377 5.0877128
-6.7155561 1.319665 5.0138044
-6.6537862 1.3069863 4.91043
-6.6220398 1.3164151 4.8644037
-6.5442338 1.3206713 4.7432022
-6.4865227 1.3343608 4.6579947
-6.4508581 1.3394976 4.6038575
-6.4205084 1.341831 4.556881
-6.402936 1.3437853 4.5299497
-6.3436337 1.3413572 4.4350457
-6.3294601 1.3488319 4.4159513
-6.2601161 1.3443811 4.3042588
-6.2535162 1.3436277 4.2934813
-6.2488856 1.3429215 4.285841
-6.2211637 1.3333457 4.2377172
-6.1771069 1.3407888 4.171329
-6.1533542 1.343888 4.1351309
-6.1254416 1.356564 4.0966167
-6.0550518 1.3677087 3.9902163
-6.1055679 1.3838723 4.0773382
-6.1341815 1.3826027 4.1220422
-6.1754484 1.3871377 4.1893511
-6.2285681 1.3640978 4.2631292
-6.2693667 1.37321 4.3317361
-6.2821441 1.3728306 4.3517818
-6.2997165 1.3708766 4.3787131
-6.3286695 1.375638 4.426641
-6.3765917 1.37135 4.5005488
-6.4265165 1.3796782 4.5832443
-6.4563999 1.3797097 4.630538
-6.50246 1.384882 4.7057137
-6.5705342 1.3616991 4.8030877
-6.5910406 1.3676307 4.8381729
-6.6028862 1.3719814 4.8588524
-8.3865738 -1.5444281 6.3817573
-8.371769 -1.556674 6.3528776
-8.3578939 -1.5736489 6.3233657
-8.3004646 -1.5854774 6.2272367
-8.2851925 -1.5953586 6.1986742
-8.2407055 -1.5854833 6.13269
-8.2260981 -1.5756047 6.1139793
-8.1670027 -1.5558505 6.029284
-8.1202583 -1.5807662 5.9442301
-8.1015291 -1.596221 5.9077153
-8.0878525 -1.5910714 5.8883719
-7.9956899 -1.6013825 5.737967
-7.9558511 -1.574923 5.6867237
-7.9029908 -1.5627155 5.608531
-7.8858571 -1.5631394 5.5812349
-7.4610305 -1.5300784 4.9238405
-7.3419237 -1.1714641 4.8951421
-7.3732948 -1.1076828 4.9731851
-7.376112 -1.0891993 4.9858747
-7.3460569 -1.0063443 4.9752312
-7.3092518 -0.99849951 4.920496
-7.2995443 -0.99711275 4.9057555
-7.2284312 -0.95512855 4.8119483
-7.0794592 -0.80666602 4.6423898
-7.0623169 -0.79727191 4.619453
-7.0355983 -0.78201801 4.5839763
-7.0300417 -0.78080797 4.5757241
-6.9851599 -0.77599221 4.5068617
-6.9518013 -0.78145051 4.4516525
-6.8980598 -0.77794415 4.3681898
-6.8624325 -0.75972313 4.3199401
-6.8163557 -0.76489305 4.2447391
-6.7967529 -0.75866896 4.2164974
-6.7244267 -0.7532829 4.1044693
-6.658844 -0.75280142 4.0009251
-6.6265278 -0.76321125 3.9451604
-6.5785236 -0.78119183 3.8612032
-6.5066538 -0.76160127 3.7562246
-6.477272 -0.76415581 3.7086015
-6.4658065 -0.79301727 3.6776056
-6.2940555 -0.8125118 3.3971934
-6.2597489 -0.7449457 3.3730135
-6.2464366 -0.72658265 3.3601317
-6.1857958 -0.72222912 3.2661304
-6.1902742 -0.76105547 3.2559214
-6.1923666 -0.79621303 3.2435713
-6.1970582 -0.81556189 3.2423754
-6.2029042 -0.83308744 3.2438178
-6.2104745 -1.0058668 3.1788325
-6.2111344 -1.0198374 3.1736536
-6.2162123 -1.0427943 3.1714611
-6.2229843 -1.0569296 3.175879
-6.2935934 -1.1794751 3.2330036
-3.924943 1.3822877 0.62665313
-3.9422669 1.3860281 0.65572751
-3.9829822 1.3954337 0.72433275
-4.0319881 1.4084697 0.80767226
-4.1053166 1.4896045 0.95982623
-4.1238132 1.4952276 0.99159408
-4.1822729 1.4682577 1.0720706
-4.2333875 1.4424715 1.141453
-4.2937169 1.4037573 1.2196555
-4.337244 1.398962 1.2863843
-4.3832765 1.4042659 1.3615749
-4.4286785 1.3900032 1.4270527
-4.4610367 1.4002717 1.4828211
-4.477685 1.4030392 1.5103925
-4.5498204 1.4274473 1.6353914
-4.5625572 1.4272161 1.6554391
-4.653326 1.4245994 1.7978792
-4.670867 1.4226758 1.8247743
-4.7277718 1.4148989 1.9113392
-4.7576575 1.4149656 1.9586518
-4.7780662 1.4209523 1.9936067
-4.9575744 1.4281092 2.2807956
-4.9896693 1.4316945 2.3331707
-5.022584 1.4242852 2.3819449
-5.0688457 1.4204447 2.4534245
-5.0846877 1.4124968 2.4749479
-5.1112046 1.4069133 2.5144134
-5.1600494 1.397917 2.5876842
-5.2079639 1.3936486 2.6615887
-5.2535529 1.4012017 2.7370791
-5.2819304 1.3861616 2.7752762
-5.2168045 1.3678362 2.6640778
-5.1864505 1.3701839 2.6171002
-5.1448145 1.388016 2.5591707
-5.1306257 1.3955362 2.5400724
-5.081316 1.4068968 2.4671192
-5.0352616 1.4017081 2.3919456
-4.9723525 1.4112306 2.296658
-4.966661 1.4116707 2.2878499
-4.790338 1.4008431 2.004065
-4.7713275 1.3877616 1.9681609
-4.711628 1.4097278 1.8834947
-4.6636624 1.3918502 1.7996447
-4.6498475 1.374855 1.7702178
-4.5897441 1.3953531 1.6842587
-4.5583234 1.3803508 1.6278651
-4.5171394 1.373312 1.5595725
-4.4432902 1.3803046 1.4458498
-4.4129682 1.3825021 1.3988562
-4.3634934 1.3718326 1.3158292
-4.2921491 1.3889246 1.2105682
-3.0328832 1.1859 -0.87215841
-3.0136771 1.3930209 -0.81028509
-3.0094624 1.4083049 -0.81014526
-3.005311 1.4239786 -0.80973136
-2.9577258 1.4372492 -0.87910497
-2.9298949 1.4377215 -0.92292607
-2.9126308 1.4272115 -0.95492113
-2.8733363 1.4190335 -1.0207319
-2.8439484 1.4165316 -1.0683415
-2.8211157 1.4029853 -1.110499
-2.8215206 1.3628793 -1.1277233
-2.8279977 1.3246813 -1.1344905
-2.8865838 0.96173602 -1.2034708
-2.9006791 0.88643283 -1.2147132
-2.7652836 0.72045892 -1.502854
-2.7064865 0.72914809 -1.592007
-2.6317644 0.64880365 -1.7460138
-2.6004925 0.65110725 -1.7944628
-2.5497556 0.58955127 -1.9021534
-2.5431614 0.56481463 -1.9236051
-2.5506151 0.52106816 -1.9312986
-2.5595489 0.40683883 -1.9680465
-2.5599079 0.40329558 -1.9690567
-2.606621 0.25282139 -1.9621786
-2.6401916 0.12704134 -1.9650937
-2.6777291 -0.10990003 -2.0112476
-2.8284535 -0.27054775 -1.8443445
-2.8430362 -0.34942281 -1.856407
-2.8502007 -0.38379079 -1.8603805
-2.8560438 -0.58813465 -1.9421583
-2.8656325 -0.65257382 -1.9556919
-2.9068346 -0.76320249 -1.9397842
-2.9218011 -0.79057652 -1.9282991
-2.956059 -0.89676023 -1.9213973
-3.0075674 -0.97790468 -1.8760504
-3.10271 -1.0987492 -1.7793535
-3.1342952 -1.2212944 -1.7839686
-3.1103497 -1.5063677 -1.948835
-3.0789289 -1.5213699 -2.005229
-3.0632184 -1.5288711 -2.0334258
-2.9733515 -1.5050794 -2.1650071
-2.9653158 -1.5049638 -2.1776686
-2.9496272 -1.5124636 -2.2058306
-2.9106712 -1.5131507 -2.2677693
-2.8738077 -1.5182165 -2.3283477
-2.8509645 -1.5134895 -2.3623819
-2.8343167 -1.5162569 -2.3899536
-2.784842 -1.5269262 -2.47298
-2.7818279 -1.5291008 -2.4787178
-2.007637 1.3868711 -2.404686
-1.9893353 1.369463 -2.4413958
-1.9691617 1.3615267 -2.4768476
-1.9407096 1.3542888 -2.5250859
-1.8951128 1.3467288 -2.6005926
-1.8789043 1.3416708 -2.628489
-1.8036728 1.3557987 -2.74122
-1.7879322 1.3483727 -2.7694311
-1.7451177 1.3726168 -2.8263688
-1.9876277 1.3823733 -2.4383464
-1.9825625 1.3807929 -2.4470639
-1.9707651 1.3734558 -2.4689975
-1.9129467 1.3665049 -2.5635686
-1.89627 1.3638148 -2.5911508
-1.8231318 1.3902929 -2.6950688
-1.7932756 1.3901589 -2.7423639
-1.716419 1.389569 -2.8642225
-5.0911369 -0.73979199 1.5264416
-5.1232305 -0.79425472 1.5529571
-5.1404819 -0.92459953 1.5221903
-5.1580977 -1.1001267 1.4718741
-5.1570163 -1.1055082 1.4677658
-5.1483388 -1.1366228 1.4401772
-5.1736584 -1.4342263 1.3476716
-5.3032966 -1.508256 1.5197979
-5.3417325 -1.5078206 1.5808016
-5.3554258 -1.5128367 1.6002315
-5.4245834 -1.5169899 1.7077963
-5.4619575 -1.5338455 1.7594174
-5.5109005 -1.5205963 1.8427525
-5.5553837 -1.5301547 1.9088713
-5.5872302 -1.5173792 1.9649469
-5.6488094 -1.526464 2.0583253
-5.6873045 -1.5329177 2.1163535
-5.7251391 -1.5232469 2.1805196
-5.7519608 -1.5240339 2.2226038
-5.7720866 -1.5225843 2.2550912
-5.8454823 -1.5272226 2.3691444
-5.8762722 -1.5317649 2.4158335
-5.9202857 -1.5389578 2.482264
-5.8742762 -1.5443516 2.4070699
-5.8581185 -1.5495565 2.3791881
-5.7837844 -1.5401871 2.2657571
-5.7490034 -1.560818 2.2015405
-5.6852412 -1.5954583 2.0852318
-5.5941677 -1.5956826 1.9410433
-5.4947081 -1.5509157 1.8036288
-5.4848299 -1.5526483 1.7872292
-5.452322 -1.5514457 1.7363333
-5.4285846 -1.5615735 1.6942669
-5.4152536 -1.5503831 1.6781609
-5.3988519 -1.539713 1.6569639
-5.3842201 -1.5299658 1.638157
-5.3154645 -1.5282294 1.5301518
-5.281621 -1.5535867 1.4653127
-5.1744971 -1.5522385 1.296432
-5.1453218 -1.5538342 1.2495626
-5.1125526 -1.5493138 1.1997316
-5.0466433 -1.5103858 1.1127961
-5.0295463 -1.5108566 1.0855374
-5.0041194 -1.5133467 1.0442004
-4.9895945 -1.5142901 1.0208001
-4.9577203 -1.5131097 0.9708975
-4.9404573 -1.5137687 0.9432922
-4.9107504 -1.5136797 0.89633226
-4.8222895 -1.4969887 0.76381278
-4.8095531 -1.4967575 0.743765
-4.8409739 -1.4817551 0.80015862
-4.8567834 -1.1315833 0.98115063
-4.8220968 -1.0618508 0.95733482
-4.7985797 -1.0071819 0.9444797
-4.5944567 -0.90468872 0.66718972
-4.583271 -1.0632066 0.57888281
-4.5891881 -1.1493163 0.54988801
-4.5935674 -1.1834445 0.54161417
-4.6483002 -1.451816 0.50866491
-4.7443676 -1.5149279 0.63254118
-4.6807499 -1.5182654 0.53040475
-4.6504283 -1.516068 0.48341092
-4.636754 -1.5111032 0.4639886
-4.6054945 -1.5041721 0.41762027
-4.5585246 -1.5047421 0.34305507
-4.5213318 -1.5146282 0.27980804
-4.4645853 -1.5058823 0.19392486
-4.4342632 -1.5036849 0.14693105
-4.4048786 -1.5062212 0.099311799
-4.3886995 -1.5113555 0.071427733
-4.3583775 -1.5091581 0.02443397
-4.3109388 -1.5073613 -0.049818397
-4.2502952 -1.5029666 -0.14380598
-4.2047315 -1.5106373 -0.21930909
-4.1607356 -1.5034752 -0.28572524
-4.0882373 -1.5999515 -0.44339961
-4.0860806 -1.6072845 -0.45007801
-4.0551429 -1.5912466 -0.49188036
-3.9521747 -1.65974 -0.68529665
-3.878406 -1.6417806 -0.79400671
-3.8531191 -1.655715 -0.84022009
-3.8308868 -1.6509504 -0.8732717
-3.8167439 -1.6436188 -0.89238143
-3.7955263 -1.6326206 -0.92105114
-3.7010784 -1.5578163 -1.0371568
-3.6732616 -1.5455196 -1.0756888
-3.6600561 -1.5429218 -1.0954239
-3.629734 -1.5407244 -1.1424178
-3.5978446 -1.5533597 -1.1984987
-3.5816655 -1.5584941 -1.2263829
-3.5650177 -1.5612617 -1.2539541
-3.5054727 -1.5396671 -1.3385417
-3.4574041 -1.5574369 -1.4225067
-3.3796434 -1.5534427 -1.5437528
-3.3297679 -1.5326133 -1.6133829
-3.3082852 -1.5349982 -1.6484331
-3.2756934 -1.5290889 -1.6973647
-3.258986 -1.5250866 -1.7220153
-3.2145209 -1.5155576 -1.788119
-3.185605 -1.5204608 -1.8360506
-3.0915041 -1.5435345 -1.9952065
-3.0586772 -1.5514362 -2.0506616
-3.0137439 -1.5395403 -2.1164522
-2.9535685 -1.5375124 -2.210753
-2.9020896 -1.5325947 -2.2900076
-2.8854578 -1.5353575 -2.3175511
-2.8540802 -1.5503571 -2.3738751
-2.8383913 -1.5578573 -2.4020376
-2.8080902 -1.5557995 -2.4490604
-2.7548275 -1.5490291 -2.5303121
-2.7322707 -1.5615523 -2.5715775
-3.8038626 1.3944168 0.44049376
-3.8205104 1.3971844 0.46806523
-3.881623 1.3904228 0.56173992
-3.0956273 -0.26314199 -1.4183483
-3.1047111 -0.36115861 -1.4476373
-3.1249008 -0.46174899 -1.4605012
-3.1466751 -0.62248623 -1.4976504
-3.3725882 -0.74689472 -1.1956486
-3.1477189 -0.6705308 -1.5174003
-3.175065 -0.82063502 -1.5409977
-3.2347426 -0.92300546 -1.4921808
-3.2495275 -0.9816429 -1.494909
-3.2064257 -1.1153311 -1.6226505
-3.2152371 -1.1878629 -1.6410183
-3.2171855 -1.2186294 -1.6516403
-3.2958598 -1.4200281 -1.6168798
-3.3372169 -1.4619281 -1.5701123
-3.4014628 -1.5085437 -1.4892328
-3.4785931 -1.5321044 -1.3776993
-3.5382996 -1.5317655 -1.2830862
-3.5848007 -1.5288286 -1.2082083
-3.6459134 -1.5355902 -1.1145337
-3.661155 -1.525722 -1.0860242
-3.729116 -1.5008831 -0.96743858
-3.7423215 -1.5034811 -0.94770336
-3.7721746 -1.5033116 -0.90039682
-3.8119888 -1.510042 -0.84040451
-3.8261316 -1.5173734 -0.82129478
-3.8389921 -1.52637 -0.8049556
-3.8548861 -1.5344036 -0.78338814
-3.9206493 -1.5439641 -0.68360245
-4.0595379 -1.4865528 -0.43829274
-3.9494524 -1.1456636 -0.46061462
-3.8888087 -1.141269 -0.55460203
-3.8476655 -1.1164709 -0.60864902
-3.6815345 -1.0502758 -0.84199989
-3.6739576 -1.0497272 -0.8537432
-3.634418 -1.0393721 -0.91168642
-3.631659 -1.0294465 -0.9116298
-3.5902941 -0.8639673 -0.90336311
-3.5844147 -0.85030007 -0.90657699
-3.5583529 -0.80280757 -0.92665482
-3.5757637 -0.7905947 -0.89366865
-3.5847874 -0.79276067 -0.88035727
-3.6452699 -0.81908882 -0.79639518
-3.71066 -0.79985601 -0.68437397
-3.7330139 -0.7618168 -0.63206375
-3.7594247 -0.76701272 -0.59259355
-3.8079619 -0.7516098 -0.50894129
-3.8827486 -0.76333618 -0.3958441
-3.9019949 -0.75766802 -0.36286986
-3.9611392 -0.74776381 -0.26488537
-3.9869201 -0.77252626 -0.23512763
-4.0961013 -0.76151812 -0.057487905
-4.1375923 -0.77877939 0.00046655536
-4.2018399 -0.75587535 0.11231565
-4.2494402 -0.73573875 0.19659331
-4.3207846 -0.75283056 0.3018544
-4.3697906 -0.73979449 0.38519394
-4.3859696 -0.73466021 0.41307801
-4.4738002 -0.77091801 0.53588498
-4.4790912 -0.77288228 0.54338032
-4.6145849 -0.78861386 0.75073898
-4.7727818 -0.78569072 1.0023247
-4.7834697 -0.75386912 1.033409
-4.791647 -0.73442316 1.0550083
-4.7996626 -0.73691058 1.066582
-4.8356433 -0.74158537 1.1214244
-4.8538437 -0.75739223 1.1431789
-4.9668183 -0.77168018 1.3155518
-5.0071683 -0.73386687 1.3962332
-5.0277648 -0.73694146 1.4274499
-5.0410309 -0.73789674 1.4480125
-3.0441163 0.071180463 -1.3509244
-3.0516057 0.0333004 -1.3559486
-3.0665843 -0.042459786 -1.3659971
-3.0881691 -0.15564311 -1.3822639
-3.0358543 0.15272295 -1.3276734
-3.0279603 0.23070896 -1.3054247
-3.0184469 0.2679531 -1.3038862
-3.009191 0.30674702 -1.3012496
-2.9906793 0.38433492 -1.2959764
-2.991766 0.51271945 -1.23707
-2.9473817 0.65823847 -1.2424711
-2.9336727 0.73586637 -1.2295818
-2.9081683 0.84855276 -1.2197374
-5.8523722 1.3998437 3.6838698
-5.9576225 1.3852799 3.8439002
-5.9893723 1.3758395 3.8899264
-5.9365745 1.3594511 3.7990947
-5.8156242 1.366478 3.6108685
-5.7682905 1.3905311 3.5466957
-5.7512746 1.3951392 3.5218272
-5.7303782 1.4085572 3.4947438
-5.6863003 1.4160609 3.4283509
-5.6521091 1.4151733 3.3738613
-5.6027966 1.4074261 3.2923927
-5.5689554 1.3820248 3.2275376
-5.540462 1.3749156 3.1792912
-5.4882712 1.3898709 3.1033821
-5.5302258 1.4078207 3.1777539
-5.5743036 1.4003172 3.2441468
-5.6089621 1.4179482 3.3068342
-5.6331367 1.4495568 3.3591609
-5.6542015 1.4500151 3.3926911
-5.704442 1.4339256 3.4650102
-5.7338657 1.4363065 3.5126219
-5.7643204 1.4234335 3.5550704
-5.805388 1.3993831 3.6093307
-3.7666557 1.3858836 0.37782755
-5.3250775 1.3833861 2.8423038
-5.3607798 1.3993306 2.9058905
-5.4048576 1.3918269 2.9722834
-5.4369478 1.3870165 3.0209112
-5.3886924 1.3866546 2.9444046
-5.432189 1.3593657 3.0010657
-5.4503303 1.3772306 3.037725
-3.0522537 1.0430017 -0.90516448
-3.0455923 1.1177194 -0.88242173
-6.0206566 1.3687632 3.9362693
-6.0357323 1.3607731 3.9565611
-6.0419173 1.3635061 3.9675646
-6.02494 -1.550504 2.642695
-5.9829221 -1.5307245 2.5850286
-6.0410976 -1.5452991 2.670577
-6.0871072 -1.5399053 2.7457714
-6.0714183 -1.5474758 2.7175779
0 0 0 1 0 0 0 1 0 0 0 1 0 0 0 0 0 709 1 0 0
