ply
format ascii 1.0
comment PCL generated
element vertex 720
property float x
property float y
property float z
element camera 1
property float view_px
property float view_py
property float view_pz
property float x_axisx
property float x_axisy
property float x_axisz
property float y_axisx
property float y_axisy
property float y_axisz
property float z_axisx
property float z_axisy
property float z_axisz
property float focal
property float scalex
property float scaley
property float centerx
property float centery
property int viewportx
property int viewporty
property float k1
property float k2
end_header
-10.647167 0.71296918 2.0704892
-10.641573 0.74512398 2.0674593
-10.551634 0.82759702 2.0287454
-10.363323 1.0260568 1.9470954
-10.360744 0.94658625 1.9478691
-10.362361 0.90660894 1.949451
-10.358437 0.87005353 1.9486861
-10.359004 0.82664871 1.9499173
-10.356227 0.78666794 1.9497006
-10.352304 0.75011253 1.9489362
-10.354452 0.70166051 1.9509308
-10.353906 0.6267513 1.9524314
-10.353326 0.58677208 1.9531143
-10.35166 0.50926101 1.9542165
-10.353782 0.46683642 1.9560611
-10.353336 0.4283261 1.9567657
-10.351373 0.38920239 1.956862
-10.352041 0.34689894 1.9581091
-10.348486 0.30642858 1.9575856
-10.229184 0.15239546 1.9122964
-10.227174 0.066949219 1.9134403
-10.234798 0.063115507 1.9166495
-10.336428 -0.13138896 1.9627268
-10.335207 -0.17038983 1.9631248
-10.331849 -0.25034985 1.9635909
-10.336304 -0.29130387 1.9663568
-10.337568 -0.31031507 1.9673121
-10.337629 -0.35127258 1.9682798
-10.329529 -0.41026649 1.9663217
-10.329598 -0.50960308 1.9686368
-10.32472 -0.59017617 1.9684944
-10.326398 -0.67111099 1.9710441
-10.324263 -0.71207023 1.9711125
-10.322399 -0.75009274 1.9712253
-10.324657 -0.79104847 1.9730921
-10.327753 -0.87247205 1.9762337
-10.317302 -0.94999027 1.9737396
-10.325433 -1.0323887 1.9789643
-10.318398 -1.0709043 1.9769714
-10.312204 -1.1498878 1.9762537
-10.148055 -1.412378 1.9151037
-10.136818 -1.4298775 1.9109068
-9.9353294 -1.5570313 1.8313569
-9.8767748 -1.5505604 1.8072394
-9.8357744 -1.5611283 1.7906996
-9.7943745 -1.5675753 1.7739015
-9.7651424 -1.569118 1.7619712
-9.7302723 -1.5662092 1.747631
-9.6481991 -1.5607358 1.7139091
-9.5545921 -1.5638496 1.6756642
-9.4961662 -1.5644369 1.651762
-9.3414221 -1.5426124 1.5879174
-9.3325996 -1.5451181 1.5843636
-9.2506533 -1.5467029 1.5508567
-9.2387571 -1.5486698 1.5460324
-9.171381 -1.5447047 1.5183616
-9.0154963 -1.3439558 1.4499319
-8.9960184 -1.323982 1.4414991
-8.9061947 -1.0212765 1.397764
-8.8950672 -0.98124528 1.3922874
-8.9589739 -0.74424458 1.4129919
-8.9476566 -0.64698428 1.4061205
-8.8773699 -0.64703989 1.3773509
-8.8305664 -0.64859682 1.3582286
-8.7719765 -0.64462471 1.3341542
-8.7135143 -0.64771068 1.3102944
-8.5906754 -0.62076038 1.2593917
-8.561697 -0.6048125 1.2471631
-8.4398994 -0.39542913 1.1924876
-8.4394636 -0.37537974 1.1918476
-8.4404812 -0.35544997 1.1918051
-8.44135 -0.29548201 1.1907809
-8.4267359 -0.29518768 1.1847919
-8.3879461 -0.39516437 1.1712149
-8.3826818 -0.45513734 1.1704406
-8.4853821 -0.61937547 1.2162595
-8.4849377 -0.65788633 1.2169641
-8.4393902 -0.85977352 1.2029666
-8.4367323 -0.89846963 1.2027694
-8.4331951 -0.938757 1.2022489
-8.4357262 -0.97677612 1.2041597
-8.4370689 -1.0196902 1.2056974
-8.4330101 -1.0577143 1.2049109
-8.4323788 -1.0982442 1.2055855
-8.4484348 -1.1446147 1.2132249
-8.4742842 -1.1795754 1.2246109
-8.5045156 -1.2604877 1.238848
-8.2078533 -1.4534938 1.1218559
-8.0850067 -1.5362048 1.073474
-7.9860616 -1.5563853 1.0334369
-7.9744015 -1.5579144 1.0286992
-8.0092726 -1.5608232 1.04304
-8.0209322 -1.5592942 1.0477775
-8.0560751 -1.5592664 1.0621623
-8.067935 -1.559798 1.0670292
-8.1028423 -1.5602082 1.0813273
-8.2890396 -1.6555511 1.1597391
-8.41924 -1.5524616 1.2106619
-8.4546013 -1.5374416 1.2247908
-8.6303539 -1.5348037 1.2966719
-8.7006207 -1.5201941 1.3250984
-8.7474232 -1.5186371 1.3442208
-8.7709074 -1.5201383 1.353868
-8.8644409 -1.5220219 1.3921977
-8.9345455 -1.5344598 1.4211806
-8.9461689 -1.5354295 1.4259609
-8.9812393 -1.540399 1.440431
-9.1146679 -1.623728 1.4969658
-9.1916046 -1.6646248 1.5294001
-9.2355337 -1.6645899 1.547381
-9.3672886 -1.5605204 1.5989176
-9.4958935 -1.5673735 1.6517178
-9.5778027 -1.5682876 1.6852673
-9.636466 -1.5672623 1.7092568
-9.8342514 -1.6660739 1.7924918
-9.934948 -1.567464 1.8314406
-10.028934 -1.5539175 1.8696012
-10.069582 -1.5598103 1.886375
-10.104796 -1.554785 1.9006741
-10.265705 -1.629669 1.9682629
-10.386124 -1.5921031 2.0166905
-10.485613 -1.5344422 2.0560877
-10.538465 -1.5171289 2.0773234
-10.57918 -1.4358901 2.0921195
-10.610582 -1.3908892 2.1039381
-10.647612 -1.260929 2.1161044
-10.652332 -1.2363057 2.1174698
-10.669748 -1.1547439 2.1227217
-10.665824 -1.0743614 2.1192648
-10.657994 -0.99661255 2.1142704
-10.666691 -0.91432315 2.1159363
-10.636341 -0.8346957 2.1016803
-10.63169 -0.75425255 2.0979247
-10.670753 -0.63446909 2.1111574
-10.671333 -0.59448993 2.1104751
-10.669807 -0.54933202 2.1088107
-10.670786 -0.48186719 2.1076589
-10.672929 -0.4345127 2.1074457
-10.671584 -0.42689586 2.10672
-10.656525 -0.29600608 2.0975432
-10.668892 -0.21152094 2.1006606
-10.673649 -0.13436484 2.100832
-10.65365 -0.043092251 2.0905449
-10.684976 0.094849139 2.1001928
-10.685122 0.10484394 2.1000223
-10.703262 0.18634513 2.1055725
-10.704461 0.21876708 2.1053169
-10.703014 0.22528312 2.1045744
-10.653677 0.35968325 2.0812855
-10.651201 0.38564679 2.0796747
-10.655707 0.49961022 2.0788958
-10.655634 0.54464698 2.0778294
-10.648804 0.6252718 2.0731776
-10.646477 0.66549385 2.0712996
-10.646694 0.68048608 2.0710435
-10.647422 0.70544243 2.0707667
-0.14279556 1.361863 -2.2442615
-0.1304965 1.3569362 -2.2491825
-0.17804146 1.3671471 -2.2299557
-10.270674 1.3756938 1.9011234
-10.317296 1.3647573 1.920459
-10.351985 1.3493549 1.9350131
-10.359941 1.3461891 1.9383425
-10.373333 1.3068944 1.9447291
-10.374172 1.2664264 1.9460039
-10.37678 1.187634 1.9488847
-10.372568 1.1479578 1.9480739
-10.369064 1.1080376 1.9475584
-10.366879 1.0665272 1.947619
-10.367458 1.1065065 1.9469364
-10.370235 1.1464872 1.9471529
-10.200352 1.3731395 1.8723968
-10.212011 1.3746685 1.8771341
-10.235531 1.375666 1.8867388
-6.6474748 -1.5466757 0.4852818
-6.6827397 -1.5390539 0.49954155
-6.6593351 -1.5346063 0.4898589
-6.5393395 -1.1762699 0.43249273
-6.3322129 -1.4848337 0.35481048
-6.2620502 -1.4700928 0.3257511
-6.2172327 -1.4942383 0.3079614
-6.1564202 -1.5224373 0.28371769
-6.0994921 -1.5307589 0.26060662
-6.0859823 -1.5301846 0.25506333
-6.0628772 -1.5307645 0.24561891
-6.0744143 -1.5317239 0.25036353
-3.7889285 -1.6467108 -0.68252087
-3.8356524 -1.6475513 -0.66337597
-3.9652376 -1.6474769 -0.61033368
-3.9763207 -1.6468062 -0.60581231
-4.0923643 -1.6121317 -0.55910969
-4.2411432 -1.5112538 -0.5005312
-4.3115058 -1.5083829 -0.47179517
-4.3461747 -1.5114626 -0.45753306
-4.4049249 -1.5125623 -0.43345934
-4.4516196 -1.5159011 -0.41426867
-4.5455647 -1.514316 -0.3758499
-4.5686488 -1.5188677 -0.36629605
-4.6269569 -1.518236 -0.34244305
-4.7562971 -1.4964761 -0.2900002
-4.82619 -1.4943725 -0.26143903
-4.8733835 -1.4944454 -0.2421193
-4.8849397 -1.495472 -0.23736531
-4.9316635 -1.4963124 -0.21822038
-4.9783869 -1.4971528 -0.19907545
-5.0487213 -1.4967804 -0.17029369
-5.0910292 -1.5017486 -0.15286121
-5.1613755 -1.5014971 -0.1240717
-5.1773353 -1.4982748 -0.11761287
-5.2548265 -1.5006661 -0.085837968
-5.3718519 -1.5037475 -0.037864383
-5.4543881 -1.4939554 -0.0043047294
-5.5130444 -1.5052381 0.01996506
-5.5947747 -1.5184398 0.05372408
-5.6408625 -1.5272748 0.072792813
-5.6644979 -1.5261898 0.082442701
-5.7347832 -1.530936 0.11132216
-5.7584186 -1.5298507 0.12097205
-5.7814932 -1.5317698 0.13046144
-5.793561 -1.5322239 0.13541169
-5.8518391 -1.5315185 0.15925078
-5.9337225 -1.5322264 0.19278488
-5.9919701 -1.5340198 0.21666893
-5.968926 -1.5296021 0.20713454
-5.8991413 -1.5268494 0.17850588
-5.7030902 -1.2921852 0.092853919
-5.7770481 -0.95111191 0.11527716
-5.8007455 -0.94502938 0.12483723
-5.8811593 -0.93175185 0.1574479
-5.8893018 -0.93128502 0.1607701
-6.1862764 -1.0128669 0.28421032
-6.3265257 -1.0485953 0.34244162
-6.5068541 -1.1364084 0.41827774
-7.0675616 1.3792053 0.58989394
-6.9856348 1.3773625 0.55640066
-6.8685188 1.3728449 0.50856507
-6.9615741 1.3679818 0.54676783
-6.9967051 1.3656592 0.56120157
-2.9601619 1.4068309 -1.0920476
-2.9131212 1.3802092 -1.1106902
-2.756573 1.2989802 -1.1729014
-2.5734038 1.2219244 -1.2461056
-2.5331762 1.2221696 -1.2625778
-2.5258598 1.222194 -1.2655731
-2.4943981 1.2222774 -1.2784536
-2.4171553 1.1826698 -1.3091602
-2.3372576 1.1028517 -1.3400279
-2.3339243 1.0631511 -1.3404787
-2.335664 1.0229703 -1.3388417
-2.3381286 0.98272049 -1.3369064
-2.267014 0.82426608 -1.3623691
-2.2687767 0.78430581 -1.3607278
-2.2519181 0.70542407 -1.365813
-2.2176578 0.58527803 -1.3770716
-2.2328479 0.56789184 -1.3704535
-2.2877076 0.50462687 -1.3465414
-2.3135304 0.45483443 -1.334825
-2.360199 0.44647637 -1.3155296
-2.4148836 0.4243581 -1.292636
-2.5101318 0.23645028 -1.2493225
-2.5098333 0.20896736 -1.2488122
-2.5139561 0.18401232 -1.2465502
-2.5126531 0.064087003 -1.2443233
-2.4990356 0.024023592 -1.2489753
-2.4710677 -0.12356117 -1.2570266
-2.461709 -0.17608735 -1.2596484
-2.4608402 -0.25603759 -1.2581638
-2.4643657 -0.33595842 -1.2548813
-2.5013061 -0.37546292 -1.238851
-2.5536332 -0.48911646 -1.2148156
-2.5773253 -0.60996377 -1.2023361
-2.5541575 -0.68897599 -1.210001
-2.6110079 -0.85063696 -1.183009
-2.6328361 -0.93152881 -1.1722121
-2.5915749 -1.0897933 -1.185459
-2.5795677 -1.1295905 -1.189458
-2.570436 -1.1696483 -1.192274
-2.5640101 -1.2108294 -1.1939565
-2.5504 -1.2896093 -1.1977142
-2.3624361 -1.5251904 -1.2692323
-2.2094281 -1.5303874 -1.3317444
-2.1864839 -1.5293226 -1.3411608
-2.1634376 -1.5322359 -1.3505274
-2.0815837 -1.5293491 -1.3840995
-2.0457177 -1.533128 -1.3986938
-2.0780284 -1.5325409 -1.3854814
-2.1742597 -1.5367301 -1.345994
-2.1985612 -1.5394046 -1.3359851
-2.3502123 -1.5325979 -1.2740655
-2.4436309 -1.5290312 -1.235908
-2.5025642 -1.5198402 -1.211996
-2.5377717 -1.5170149 -1.1976494
-2.6426926 -1.5144902 -1.1547596
-2.6778369 -1.5191604 -1.1402663
-2.7244937 -1.5239412 -1.121058
-2.7486424 -1.5263116 -1.1111184
-2.7581878 -1.5261252 -1.1072155
-2.7948349 -1.5267175 -1.0922009
-2.8063557 -1.5270939 -1.0874764
-2.8768611 -1.5117301 -1.0589696
-2.9178126 -1.5120571 -1.0421991
-2.9824483 -1.5036756 -1.0159343
-3.034956 -1.5050293 -0.99440992
-3.1111906 -1.5343857 -0.96252871
-3.1400874 -1.5369521 -0.95064116
-3.1516438 -1.5379788 -0.94588709
-3.1868107 -1.5377926 -0.93149626
-3.2166069 -1.5413229 -0.91921842
-3.2570598 -1.5449158 -0.90257692
-3.2748578 -1.5456885 -0.89527369
-3.2864425 -1.5442164 -0.89056551
-3.3042817 -1.5424902 -0.88330305
-3.3332229 -1.5400597 -0.87151229
-3.3746161 -1.542118 -0.85452127
-3.4097548 -1.5444303 -0.84008443
-3.5712209 -1.6068009 -0.77255499
-3.5807972 -1.6064101 -0.76864409
-3.6569099 -1.6065512 -0.73748529
-6.2360682 1.372876 0.24967957
-6.1772704 1.3665187 0.22575787
-6.0837932 1.3681824 0.18745597
-6.1657486 1.3725239 0.22090346
-1.9056523 -1.5309829 -1.456077
-1.8001354 -1.5269661 -1.4993613
-1.6966524 -1.529621 -1.5416595
-1.8122547 -1.532051 -1.4942834
-0.50911188 1.3960636 -2.0951021
-0.5341773 1.3910879 -2.0847275
-0.51684141 1.3862692 -2.091713
-0.47042322 1.3798648 -2.1105661
-0.43861246 1.3781039 -2.1235468
-0.39066887 1.3703854 -2.1429942
-0.36822224 1.3701378 -2.1521769
-0.33032322 1.3697231 -2.1676805
-0.29801321 1.3716668 -2.1809511
-0.31888485 1.3732922 -2.1724448
-0.37707853 1.3789334 -2.1487539
-0.40083885 1.3827897 -2.1391168
-0.42712593 1.3891957 -2.1285038
-0.43608475 1.3880736 -2.1248109
-8.1925669 1.382754 1.0503172
-8.2733135 1.4019508 1.0829279
-8.3164988 1.4018626 1.1006073
-8.4267092 1.3834804 1.1461432
-8.4972324 1.3839741 1.1749995
-8.4503565 1.3774197 1.1559625
-8.4152489 1.3798904 1.141535
-8.3329945 1.3728704 1.1080266
-8.286191 1.3713136 1.0889043
-8.2041731 1.3647314 1.0554827
-8.1455097 1.3637062 1.0314934
-8.1106758 1.3691138 1.01711
-8.0639086 1.3700556 0.99794495
-7.9821081 1.3784658 0.96426749
-7.9466915 1.375501 0.94983864
-7.9114037 1.3654785 0.93562448
-7.8766413 1.3758836 0.92115569
-8.0406065 1.3840504 0.98808444
-8.0753679 1.3736453 1.0025532
-2.9953527 1.4095403 -1.077705
-3.0189736 1.4133226 -1.0681232
-3.13606 1.4153808 -1.020243
-3.1597087 1.4216615 -1.0107073
-3.171335 1.4255859 -1.0060387
-3.2235265 1.4226868 -0.98460805
-3.2498136 1.4222021 -0.97383666
-3.3053038 1.0533859 -0.94263351
-3.3408461 0.89367461 -0.92440879
-3.3752534 0.83377671 -0.90894592
-3.3882713 0.8188647 -0.90327394
-3.3873758 0.73891282 -0.90180027
-3.3803279 0.69400918 -0.90365171
-3.3818212 0.65241063 -0.90208304
-3.3770933 0.61477947 -0.90315211
-3.3734691 0.57643795 -0.90375316
-3.4118204 0.45296708 -0.88521278
-3.3874269 0.2980651 -0.89163256
-3.3846726 0.25322095 -0.89172769
-3.4206707 0.13348696 -0.87423658
-3.3757527 0.015516043 -0.88990784
-3.3877501 -0.26155877 -0.87861943
-3.3864911 -0.28697672 -0.87854981
-3.380034 -0.34642667 -0.87982452
-3.3795781 -0.38640395 -0.87909102
-3.4509816 -0.60643423 -0.84479868
-3.6173916 -0.78348541 -0.7726059
-3.7104714 -0.76659137 -0.7348938
-3.7156768 -0.76601994 -0.73277617
-3.7281561 -0.76463664 -0.72769976
-3.7815719 -0.74981368 -0.70617604
-3.828238 -0.75565124 -0.68693948
-3.8864608 -0.76251531 -0.66294885
-3.9568524 -0.75714576 -0.63425875
-4.0743232 -0.7618435 -0.58606553
-4.1553116 -0.76947939 -0.55273837
-4.2199655 -0.77150804 -0.52622652
-4.2964411 -0.76002157 -0.49518663
-4.3547492 -0.75939 -0.47133362
-4.4019141 -0.76196158 -0.4519681
-4.4602509 -0.75883138 -0.42816091
-4.5421414 -0.7594856 -0.39462501
-4.6476145 -0.7614255 -0.35140654
-4.6943951 -0.75726873 -0.33235329
-4.7525892 -0.76663148 -0.30831677
-4.8235359 -0.75299871 -0.2795895
-5.023263 -0.61368644 -0.2010407
-5.2061281 -0.76125121 -0.12279093
-5.2528992 -0.75708753 -0.10374162
-5.3463502 -0.75625646 -0.065507881
-5.3578873 -0.75721586 -0.06076327
-5.5803714 -0.76491749 0.030484602
-5.7108097 -0.65850997 0.081428573
-5.8641591 -0.52454233 0.1411165
-5.9186649 -0.64977443 0.16631001
-6.0798707 -0.73178017 0.23418483
-6.0870814 -0.73237979 0.23715034
-6.2480555 -0.72606015 0.30289719
-6.3219147 -0.73360479 0.33330423
-6.4240122 -0.7179358 0.37473556
-6.4932766 -0.76316631 0.40412924
-6.5867085 -0.8068065 0.4433786
-6.6607981 -0.81703961 0.47394171
-6.6943903 -0.85489577 0.48856357
-6.7202811 -0.89478064 0.50007963
-6.6150036 -1.0550666 0.46067503
-6.6084652 -1.0960681 0.45894238
-6.5837946 -1.1361337 0.44976601
-6.6007948 -1.5433432 0.46609744
-6.5189424 -1.5401363 0.43251848
-6.3907156 -1.50861 0.37930501
-6.285605 -1.5184765 0.33650661
-6.2030687 -1.5282685 0.30294695
-6.1447301 -1.5339713 0.27919799
-5.686151 1.4464747 0.022884801
-5.7045336 1.4470997 0.030395113
-5.7917418 1.4377432 0.066307902
-5.9081674 1.3822938 0.1152413
-5.9787369 1.3708539 0.14439113
-6.0490561 1.3712059 0.17316723
-5.9789801 1.3625941 0.14468099
-5.9760857 1.3628461 0.14349023
-5.884779 1.3643206 0.10608129
-5.8144889 1.3664672 0.077259615
-5.7441983 1.3686137 0.048437767
-5.7329841 1.367824 0.043865606
-5.6974592 1.3694456 0.029286727
-5.6626649 1.3674718 0.015089504
-5.6271687 1.371592 0.00046487898
-5.5453281 1.3772452 -0.033165626
-5.5105333 1.3752714 -0.047362845
-5.4517932 1.3739116 -0.071376041
-5.3814163 1.3685623 -0.10006066
-5.346314 1.3733835 -0.11454028
-5.2760239 1.3755299 -0.14336196
-5.1946917 1.3918785 -0.17703044
-5.1523972 1.3877236 -0.19424753
-5.1239214 1.3858281 -0.20586005
-5.0887327 1.3831536 -0.22020245
-5.0771251 1.3816626 -0.2249196
-5.0583663 1.3786426 -0.23252867
-4.9880319 1.3782703 -0.26131046
-4.9414225 1.3891048 -0.28063869
-4.8597598 1.4097477 -0.31454131
-4.8246498 1.4145585 -0.32902393
-4.8834562 1.4184562 -0.30504209
-4.9537621 1.41633 -0.27621442
-5.0242105 1.4266968 -0.24761599
-5.0593491 1.4243845 -0.23317912
-5.107533 1.409649 -0.21311662
-5.1592531 1.4009959 -0.19174656
-5.1827765 1.3971825 -0.18202984
-5.264502 1.3815351 -0.14821652
-5.3116632 1.3839028 -0.12896624
-5.4051118 1.3797405 -0.090618581
-5.4402719 1.3799165 -0.076230444
-5.4754601 1.3825912 -0.061888222
-5.5457215 1.377946 -0.033020623
-6.5172591 1.3667883 0.36492118
-6.5519676 1.3612663 0.37925568
-6.5987635 1.3654317 0.39831522
-6.564055 1.3709538 0.38398054
-0.24414682 -1.5201594 -2.1364398
-0.20894766 -1.5204464 -2.1508415
-0.17386675 -1.5082413 -2.1654823
-0.15019989 -1.5021036 -2.1753111
-0.12878036 -1.4909509 -2.1843357
-0.12961864 -1.3276348 -2.1877515
-0.31482744 -1.4896036 -2.1082108
-0.40784264 -1.5236508 -2.0693529
-0.4430418 -1.5233638 -2.0549512
-0.48948097 -1.5217059 -2.0359802
-0.54773426 -1.5159674 -2.0122671
-0.62954617 -1.5238514 -1.978597
-0.61802292 -1.5253079 -1.9832803
-0.57069683 -1.5230482 -2.0027046
-0.51246405 -1.5262882 -2.0264668
-0.47742701 -1.5265757 -2.0408022
-0.41840792 -1.5283103 -2.0649209
-0.38322115 -1.5286372 -2.0793164
-0.2899704 -1.5269403 -2.1175265
-7.50072 1.3846062 0.76707697
-7.5355148 1.3865799 0.7812742
-7.583981 1.3841265 0.80116963
-7.6777511 1.3826809 0.83958626
-7.5957685 1.3785975 0.80612195
-7.5138226 1.3770128 0.77261484
-7.4890552 1.3781182 0.76245141
-7.4403529 1.3699996 0.74270272
-7.434473 1.3697503 0.74030149
-7.3950396 1.3665876 0.72423291
-7.3834896 1.3700942 0.71942425
-7.2780395 1.3720648 0.67621446
-7.2309074 1.3721956 0.65691853
-7.1725607 1.3715367 0.63305032
-7.1490374 1.37535 0.62333369
-7.1023273 1.3786803 0.60413694
-7.1610389 1.3775417 0.62819588
-7.1961989 1.3777177 0.64258397
-7.219357 1.375702 0.65210986
-7.2429085 1.3743873 0.6617806
-7.3013415 1.3825423 0.68551159
-7.3968053 1.3803976 0.72463775
-7.4436445 1.3844533 0.74371743
-7.4652243 1.3887264 0.75245237
-3.5867677 1.4185122 -0.83582425
-3.595706 1.4136095 -0.83205271
-3.6302891 1.403034 -0.81765318
-3.7005382 1.3959106 -0.78873372
-3.7472901 1.3975689 -0.76963472
-3.7683415 1.3982584 -0.76103342
-3.8527918 1.3981276 -0.72646201
-3.9321046 1.3944581 -0.69391191
-3.9672675 1.3946691 -0.67952335
-4.0285988 1.39656 -0.65446162
-3.9583788 1.4061818 -0.68342674
-3.9001274 1.4105474 -0.70737159
-3.8686519 1.4190607 -0.72045159
-3.8269801 1.4263059 -0.73767614
-3.7127638 1.4131415 -0.78412592
-3.6545696 1.4225043 -0.80816245
-3.619431 1.4248166 -0.82259917
-3.5842636 1.4246304 -0.83699012
-3.162086 1.4074044 -1.009406
-3.2899182 1.0533044 -0.94892943
-3.2210398 0.97925389 -0.97541952
-2.8951344 1.1015376 -1.1116388
-2.8922715 1.1413867 -1.1137278
-2.8965333 1.1825277 -1.1129303
-2.8983142 1.2215124 -1.1130986
-3.1123271 1.4016049 -1.0296407
-4.6763988 -1.1308367 -0.33112136
-4.9676299 -1.1316742 -0.21189071
-4.861856 -1.4909203 -0.24691918
-4.8237996 -1.4908499 -0.26249859
-4.7448268 -1.4879538 -0.2948916
-4.6744494 -1.4516149 -0.324536
-1.2385359 -1.5227908 -1.7293402
-1.2148509 -1.5241593 -1.7390037
-1.2270122 -1.5242474 -1.7340236
-1.2730627 -1.5234179 -1.7151927
-1.2615609 -1.5223761 -1.7199248
-1.3900819 -1.5284765 -1.6671761
-1.4374921 -1.5207423 -1.6479473
-1.4956405 -1.5274962 -1.6239897
-1.4252892 -1.5256511 -1.6528295
-0.76782465 -0.36565089 -1.9486527
-0.77920485 -0.37545466 -1.9437689
-0.77082014 -0.53300953 -1.9435745
-0.84694529 -0.77234089 -1.9069052
-0.89340353 -0.80053949 -1.8872391
-0.88181734 -0.80949163 -1.8917756
-0.83464766 -0.86624193 -1.9097776
-0.77563047 -0.88542688 -1.933494
-0.64127493 -0.88879943 -1.988413
-0.61179733 -0.89464414 -2.0003448
-0.56498384 -0.90891993 -2.0191786
-0.49429703 -0.94705099 -2.0472355
-0.44526339 -0.96862698 -2.0668101
-0.41290903 -0.98647988 -2.0796428
-0.28738117 -1.0479962 -2.1296101
-10.048191 1.3764964 1.8100346
-10.001461 1.3799369 1.790827
-9.9309025 1.3769447 1.7620137
-9.9895287 1.3754712 1.7860458
-6.4349384 1.3642446 0.33128294
-6.4465175 1.3632367 0.33604583
-6.4118376 1.3712575 0.32166547
-6.4469686 1.3689349 0.33609936
-5.0953398 -1.1494319 -0.15920582
-5.2338772 -1.4858683 -0.094753765
-5.3192611 -1.4874396 -0.059766993
-5.3478389 -1.4873375 -0.048071414
-5.3725963 -1.4857513 -0.037973784
-5.4430342 -1.4780037 -0.0093194023
-5.6745124 -1.2922872 0.08115834
-5.5189137 -1.0254879 0.011325337
-5.4878054 -1.0071081 -0.0018314011
-5.3311796 -1.006667 -0.065954164
-5.1109724 -1.1293874 -0.15326828
-4.5085292 1.4061544 -0.45822987
-4.4733334 1.4034697 -0.47257492
-4.532197 1.4123644 -0.44868472
-4.5557795 1.4110786 -0.43900195
-4.5788922 1.4090254 -0.42949384
-4.5480585 1.4084543 -0.44210213
-4.5311036 1.4076847 -0.44902459
-0.68601274 -0.35776705 -1.9823228
-0.66556549 -0.35020402 -1.9908665
-0.62794781 -0.34101906 -2.0064764
-0.61887026 -0.34434441 -2.0101156
-0.54592657 -0.35812017 -2.0396569
-0.50167513 -0.3564446 -2.0578091
-0.46550798 -0.35764566 -2.0725861
-0.45404625 -0.35657156 -2.0773025
-0.41884708 -0.35686553 -2.0917039
-0.39847898 -0.37198097 -2.0996933
-0.35510159 -0.45214996 -2.1156042
-0.29658079 -0.52871597 -2.1377964
-0.2885828 -0.54047227 -2.1407998
-0.12267828 -0.650379 -2.2061808
-0.12122679 -0.69025415 -2.205857
-0.12154722 -0.77030557 -2.2038834
-0.12517405 -0.8902297 -2.1996384
-0.12121105 -0.92674208 -2.2004204
-0.12762022 -1.0073622 -2.1959412
-9.3982058 1.3714217 1.5440892
-9.4336929 1.3793837 1.5584323
-9.39855 1.3793558 1.5440476
-9.3868904 1.3778267 1.53931
-9.3165321 1.3727736 1.510626
-9.2814245 1.3752445 1.4961985
-9.2346573 1.3761864 1.4770335
-9.1759949 1.3751611 1.4530444
-9.2462082 1.3702192 1.481899
-9.2810793 1.3673104 1.4962398
-9.3278465 1.3663685 1.5154047
-6.2943573 1.3685377 0.27363926
-6.2827497 1.3670468 0.26892212
-6.2480407 1.3725691 0.25458747
-8.0171595 1.3880502 0.97839463
-7.9585881 1.3774681 0.95466292
-7.4559536 -1.541792 0.8161087
-7.412528 -1.5454282 0.79841685
-7.3892813 -1.5434889 0.78885639
-7.3614874 -1.5371324 0.77733314
-7.3562646 -1.5376515 0.77520716
-7.3389282 -1.538711 0.76813507
-7.3089924 -1.5398217 0.75590706
-7.2625632 -1.537486 0.736848
-7.2328782 -1.5395933 0.72474539
-7.2098036 -1.5376744 0.71525609
-7.1214309 -1.5364265 0.67905307
-6.9991021 -1.5109426 0.62839305
-6.9170356 -1.5252266 0.59512901
-6.8938999 -1.5283053 0.5857296
-6.8356829 -1.5240133 0.5618006
-6.7768741 -1.525224 0.53775585
-6.765276 -1.5292619 0.5331012
-7.5141706 -1.546084 0.84003782
-7.3675442 -1.6186292 0.78168821
-7.2543726 -1.579494 0.73446214
-7.2251782 -1.5789728 0.72249997
-7.1157918 -1.5415095 0.67686176
-7.0926867 -1.5420892 0.66741741
-7.0691118 -1.5381769 0.65767741
-7.0344696 -1.5377973 0.64348829
-7.0260067 -1.537643 0.64002073
-6.9641538 -1.53555 0.61465383
-6.9405794 -1.5316377 0.60491407
-6.8701725 -1.5368865 0.57621467
-6.7998567 -1.534639 0.54738021
-6.7924557 -1.5334741 0.5443238
-6.7647448 -1.5297673 0.53289557
-7.5372448 -1.5480031 0.84952724
-7.5488129 -1.5464638 0.85422695
-7.5026636 -1.5426259 0.83524811
-7.4675217 -1.5402529 0.82080841
-4.1687984 1.3965374 -0.5970726
-4.1336021 1.3938526 -0.61141777
-4.0984354 1.3936665 -0.6258086
-4.1225162 1.3956466 -0.61599708
-4.1692677 1.3973048 -0.59689796
-4.1808529 1.3987768 -0.59218979
-7.7050247 -1.5491118 0.91823089
-7.6817417 -1.5496712 0.90871322
-7.6585307 -1.5452332 0.89911008
-9.7672462 1.3742132 1.6950865
-9.8551407 1.3767807 1.7310054
-9.8667641 1.3758111 1.7357856
-9.7788334 1.3707449 1.6999092
-9.8020439 1.3663069 1.7095124
-9.8136311 1.3628386 1.7143353
-9.8312378 1.3653505 1.7214845
-9.8840618 1.372889 1.742934
-9.9016342 1.3729023 1.7501262
-1.9875481 -1.5288727 -1.4226027
-1.9645019 -1.531786 -1.4319693
-2.0112112 -1.5300025 -1.4128906
-9.0003157 1.3775206 1.3810781
-8.9768686 1.3815205 1.3713882
-8.8948488 1.3749384 1.3379663
-8.8479366 1.3658854 1.318972
-8.9299564 1.3724675 1.3523939
-8.6864777 1.3631557 1.2529438
-8.7309399 1.3547161 1.2713376
-8.7660465 1.3522451 1.2857651
-8.8056936 1.3619041 1.3017719
-8.6842985 1.3802068 1.2516593
-8.6959591 1.3817358 1.2563969
-8.7661362 1.3742955 1.2852944
-9.562335 1.3750292 1.6111901
-9.5388145 1.3740315 1.6015855
-9.5739584 1.3740596 1.6159703
-7.7128582 1.38021 0.8540138
-7.7477283 1.3773012 0.86835444
-7.7010345 1.3832405 0.84910405
-8.6255627 1.3741841 1.2277553
-8.5906572 1.3745944 1.2134576
-8.6258354 1.3771209 1.2277993
-8.5671005 1.3710982 1.2038957
0 0 0 1 0 0 0 1 0 0 0 1 0 0 0 0 0 720 1 0 0
