ply
format ascii 1.0
comment PCL generated
element vertex 445
property float x
property float y
property float z
element camera 1
property float view_px
property float view_py
property float view_pz
property float x_axisx
property float x_axisy
property float x_axisz
property float y_axisx
property float y_axisy
property float y_axisz
property float z_axisx
property float z_axisy
property float z_axisz
property float focal
property float scalex
property float scaley
property float centerx
property float centery
property int viewportx
property int viewporty
property float k1
property float k2
end_header
-2.2551904 0.43543836 -4.9265113
-2.2410636 0.3150008 -4.9275641
-2.2488832 0.31619868 -4.9230356
-2.2548289 0.31798449 -4.9196453
-2.2582808 0.4376218 -4.9248247
-2.2605815 0.51738012 -4.928278
-2.2557869 0.55547357 -4.9333944
-2.2553897 0.47545013 -4.9288054
-11.145411 0.34616187 0.3093152
-11.146709 0.38605133 0.30767488
-11.129997 0.40561 0.29666328
-11.118123 0.30701998 0.29561925
-11.116825 0.26713058 0.29725981
-11.142185 0.30622962 0.30982351
-10.749222 0.54789555 0.064063787
-10.783287 0.55817616 0.083486319
-10.858447 0.55793273 0.12772036
-10.658971 0.55821037 0.010344505
-10.606009 0.67793989 -0.028031588
-10.569729 0.71802473 -0.05179143
-10.454743 0.79754567 -0.12423444
-10.35775 0.83760595 -0.18371391
-10.359291 0.88497472 -0.18566155
-10.323446 0.99761081 -0.21353912
-10.287167 1.0376956 -0.2372992
-10.182978 1.1972513 -0.30821347
-10.264089 1.276346 -0.26526022
-10.37316 1.3112925 -0.20319533
-10.45015 1.3081567 -0.15771008
-10.477401 1.3162364 -0.14216471
-10.557845 1.3155951 -0.094797611
-10.583407 1.3162369 -0.079797029
-10.664349 1.3159747 -0.032160282
-10.687487 1.3161945 -0.018560886
-10.879251 1.3158927 0.094279289
-10.926428 1.3147328 0.12210512
-10.907147 1.0772022 0.12507725
-10.902622 0.99738073 0.12722588
-10.901324 0.95749116 0.12886596
-10.891013 0.87754083 0.12761784
-10.90087 0.67713213 0.14549565
-10.971539 -1.1477634 0.29705572
-10.974134 -1.0679845 0.2937746
-10.979958 -0.94827354 0.28998518
-10.994723 -1.0276664 0.3034575
-6.9906569 -0.7615397 -2.0683217
-7.0337105 -0.80270648 -2.0405107
-7.0395942 -1.1213527 -2.0178449
-7.3453507 -1.2051681 -1.8329055
-7.3385181 -1.3074734 -1.8307599
-7.3394032 -1.3676897 -1.8266101
-7.1111197 -1.5621188 -1.9491998
-7.3002582 -1.5476184 -1.8387965
-7.3484559 -1.481546 -1.814422
-7.3420396 -1.4443632 -1.820438
-7.3403997 -1.3671956 -1.8260533
-7.3473892 -1.3271544 -1.8243544
-7.3505163 -1.2872185 -1.8249216
-7.357573 -1.177435 -1.8273861
-7.3599482 -1.1302031 -1.8288355
-7.3620987 -1.0904492 -1.8299661
-7.4580045 -0.92314219 -1.7836244
-7.4656849 -0.85069942 -1.7834717
-7.4660306 -0.80912769 -1.7857738
-7.4700074 -0.7708801 -1.7857392
-7.4750657 -0.73089141 -1.7851733
-7.4699001 -0.64884114 -1.7931573
-7.471096 -0.60895777 -1.7948575
-7.470192 -0.571621 -1.7976395
-7.4547548 -0.50728416 -1.8105993
-7.4567351 -0.44745648 -1.8130398
-7.4603601 -0.38333204 -1.8147719
-7.4603591 -0.32033071 -1.8185692
-7.4640465 -0.29329956 -1.8180289
-7.6480398 -0.10327582 -1.7212313
-7.7283673 -0.12570645 -1.6726198
-7.8673306 -0.11999077 -1.591207
-7.944808 -0.10816799 -1.5463369
-7.9767938 -0.10262167 -1.5278528
-8.0143709 -0.1028171 -1.505733
-8.0527439 -0.10812458 -1.4828365
-8.0847301 -0.10257827 -1.4643524
-8.1232662 -0.1028996 -1.4416609
-8.2076778 -0.084208697 -1.3931243
-8.3011656 -0.054726452 -1.3398993
-8.3625507 -0.06305629 -1.3032823
-8.4247875 -0.046995938 -1.2676338
-8.5327234 -0.046952561 -1.2041337
-8.5635891 -0.046266437 -1.186016
-8.7164335 -0.087441191 -1.0936099
-8.8573742 -0.37438875 -0.99339545
-8.8541584 -0.41402632 -0.9928987
-8.8495884 -0.61372507 -0.98355234
-8.8964586 -0.77271426 -0.94639444
-8.8763399 -0.85786521 -0.95309937
-8.9487791 -0.85289204 -0.91078031
-8.9940834 -0.85262132 -0.88414252
-9.061347 -0.85846448 -0.84421647
-9.1646519 -0.85280526 -0.78377974
-9.1810198 -0.85317767 -0.77412724
-9.1829844 -0.73355234 -0.78018105
-9.183651 -0.65381646 -0.78459477
-9.2004166 -0.49400163 -0.78436255
-9.1953125 -0.35460144 -0.79576659
-9.1953135 -0.23590325 -0.80291975
-9.1635475 -0.11629154 -0.82881749
-9.2358723 0.12227082 -0.80064392
-9.2410278 0.16224593 -0.80001998
-9.2462187 0.32180342 -0.80658233
-9.2526722 0.40166804 -0.80759859
-9.2539701 0.44155738 -0.80923891
-9.2593689 0.48901185 -0.80892253
-9.2565651 0.5213362 -0.81252027
-9.238699 0.68273711 -0.83275914
-9.2483788 0.80253375 -0.83428383
-9.2496777 0.84242332 -0.83592415
-9.2509747 0.88231266 -0.83756483
-9.2153406 1.0308622 -0.8674823
-9.2652149 1.2015135 -0.84842432
-9.1897917 1.2823555 -0.89767075
-9.150239 1.162631 -0.91372573
-9.0987968 1.0032233 -0.93438399
-9.0306807 0.92375493 -0.96966946
-8.9943438 0.84366786 -0.98622119
-8.9914103 0.72387385 -0.98072767
-8.9560318 0.64366078 -0.99670792
-8.877943 0.52425766 -1.0354537
-8.6823883 0.52624202 -1.1506255
-8.6322784 0.52630615 -1.1801109
-8.4982777 0.31587383 -1.2462661
-8.4291868 0.2954385 -1.2856832
-8.4031954 0.29618588 -1.3010199
-8.3273144 0.27456883 -1.3443612
-8.2951517 0.23399338 -1.3608382
-8.1582613 0.17351553 -1.4377307
-8.1390619 0.17544463 -1.4491427
-8.1237202 0.17745951 -1.45829
-8.0778999 0.19152406 -1.4860957
-8.0626202 0.19630241 -1.4953736
-7.985568 0.19667467 -1.5407283
-7.9546218 0.19349551 -1.5587437
-7.9083958 0.19509467 -1.5860366
-7.8929729 0.19461644 -1.5950813
-7.8621078 0.19393033 -1.6131992
-7.7234888 0.1979166 -1.6949941
-7.5836802 0.22416264 -1.7788304
-7.4774194 0.37678656 -1.8505459
-7.4801178 0.46165207 -1.8540733
-7.4867964 0.49659052 -1.8522496
-7.5200839 0.57478595 -1.8373779
-7.5211887 0.5796386 -1.8370202
-7.5276399 0.6988827 -1.8404114
-7.531702 0.73836589 -1.8404012
-7.526206 0.77917325 -1.8460939
-7.5064702 0.82356203 -1.8603804
-7.4953823 0.90358174 -1.8717268
-7.5140653 1.0179139 -1.8676254
-7.5013165 1.1023461 -1.8802145
-7.5133018 1.1814207 -1.8779286
-7.4904943 1.258882 -1.8960158
-7.4897575 1.2987083 -1.8988492
-7.4773903 1.3013868 -1.9062867
-7.4772868 1.2636073 -1.9040709
-7.4785509 1.2387959 -1.9018319
-7.4780231 1.2237809 -1.9012374
-7.4995403 1.1048441 -1.8814101
-7.4977326 0.98270452 -1.8751123
-7.4929852 0.94782043 -1.875803
-7.4885106 0.86545289 -1.8734715
-7.4840364 0.78308547 -1.8711398
-7.4769692 0.67336559 -1.868685
-7.4773273 0.62350953 -1.8654697
-7.4714885 0.58652437 -1.8666757
-7.4691453 0.5435859 -1.8654666
-7.4667101 0.42700252 -1.8598731
-7.4613957 0.34668174 -1.8581588
-7.368535 0.14484042 -1.9006279
-7.3673406 0.10495996 -1.8989271
-7.3625622 -0.054561883 -1.8921244
-7.3624125 -0.059546962 -1.8919119
-7.3796043 -0.25586617 -1.8699654
-7.3649516 -0.29516891 -1.8762174
-7.352788 -0.44531065 -1.8743253
-7.3764801 -0.5467788 -1.8542709
-7.3574309 -0.64443815 -1.8595926
-7.3600659 -0.68468392 -1.8556167
-7.3560052 -0.72417867 -1.8556256
-8.6263895 -1.4318402 -1.0655621
-8.6387987 -1.0503979 -1.0812501
-8.862875 -1.2717177 -0.93607891
-8.8080111 -1.3293414 -0.96488488
-8.692627 -1.528706 -1.0207545
-8.4279518 -1.6072427 -1.171739
-8.6200686 -1.4485363 -1.0682749
-6.5274744 1.4069284 -2.4715183
-6.5891867 1.4061702 -2.4351652
-6.6242304 1.4219815 -2.4155004
-6.8509345 1.3982873 -2.280694
-6.9461803 1.4221294 -2.2260942
-7.0368075 1.4258034 -2.1729963
-6.9599628 1.4288 -2.2183876
-6.8836942 1.4614676 -2.265228
-6.8387036 1.5025996 -2.2941766
-6.7926774 1.5039706 -2.3213382
-6.7772255 1.50597 -2.3305497
-6.6690283 1.4980094 -2.3937261
-6.4968047 1.4135388 -2.4899607
-6.4324002 -1.180249 -2.3715301
-6.3861451 -1.1815109 -2.3986676
-6.3399653 -1.1802801 -2.4259109
-6.2788777 -1.1645128 -2.4628015
-6.2636709 -1.1599472 -2.4720232
-6.1133986 -1.0295488 -2.5682929
-6.0687575 -1.0382375 -2.5940332
-6.0415525 -1.0414683 -2.6098442
-6.014411 -1.0437639 -2.6256742
-5.9740362 -1.0408177 -2.6496058
-5.882834 -1.0059483 -2.7053649
-5.8232455 -0.99792075 -2.740907
-5.7600231 -0.98937261 -2.7786181
-5.7288256 -1.0001855 -2.7963212
-5.5852404 -1.158522 -2.8712549
-5.5080118 -1.1631187 -2.9164143
-5.4925814 -1.1660311 -2.9253173
-5.2965775 -1.0194458 -3.049468
-5.2761564 -0.99260485 -3.0630999
-5.2708931 -0.99147713 -3.0662646
-5.2664752 -0.99037564 -3.0689301
-5.2208433 -0.97418821 -3.0967526
-5.2172804 -0.99374163 -3.0976703
-5.0303059 -1.1537286 -3.1980324
-5.0060921 -1.1554776 -3.2121725
-4.9684334 -1.1579055 -3.2341824
-4.9528904 -1.1583279 -3.2433016
-4.9066353 -1.1595898 -3.2704391
-4.8757362 -1.160432 -3.2885673
-4.8437748 -1.1616645 -3.3072972
-4.7976151 -1.1605561 -3.3345213
-4.7558599 -1.1498259 -3.3597343
-4.7520514 -1.1493037 -3.3620062
-4.7363586 -1.1523736 -3.3710542
-4.712934 -1.1556886 -3.3846359
-4.6498375 -1.1499727 -3.4221022
-4.5898027 -1.1531627 -3.4572306
-4.5764732 -1.1513346 -3.465183
-4.4894571 -1.1648558 -3.515563
-4.4276047 -1.1668173 -3.5518351
-4.3967462 -1.1653056 -3.5700812
-4.2122431 -1.1558869 -3.6791987
-4.1426744 -0.99895978 -3.7295864
-4.0201836 -0.84064686 -3.8111935
-4.0178432 -0.79083312 -3.8155723
-4.0170021 -0.75101501 -3.8184671
-4.0062666 -0.71408296 -3.8270092
-3.9619462 -0.71050781 -3.8532999
-3.946713 -0.70841861 -3.8623881
-3.9157865 -0.70939934 -3.8805242
-3.8539336 -0.71136081 -3.9167962
-3.8195221 -0.71164501 -3.9370246
-3.7767112 -0.71621799 -3.9619365
-3.7150452 -0.72299016 -3.9978085
-3.6841867 -0.72147846 -4.0160551
-3.6532605 -0.72245914 -4.0341911
-3.6224527 -0.73074311 -4.0518169
-3.5143719 -0.73408854 -4.1152034
-3.4989338 -0.73947674 -4.1239614
-3.4061544 -0.74241889 -4.1783695
-3.37516 -0.74589205 -4.1963954
-3.3291366 -0.73979872 -4.2238398
-3.2361526 -0.75021827 -4.2779179
-3.1901298 -0.74412483 -4.3053617
-3.1670065 -0.75096095 -4.3185539
-3.1593215 -0.75240886 -4.3229885
-3.0712061 -0.7498371 -4.3749847
-3.0252674 -0.74115831 -4.4025354
-2.9943402 -0.7420783 -4.4206753
-2.9480412 -0.74586177 -4.4476871
-2.8866198 -0.73274684 -4.4846139
-2.8092504 -0.7424351 -4.5295496
-2.73224 -0.73966128 -4.5750246
-2.6551585 -0.7393797 -4.6203914
-2.5814524 -0.75458324 -4.6628389
-2.6142826 -0.75392842 -4.6435633
-2.761513 -0.7960676 -4.5544024
-2.9294283 -0.91616189 -4.4483738
-2.9697247 -1.0541826 -4.4163475
-3.2201648 -1.1168811 -4.2652259
-3.2384312 -1.1558251 -4.2521324
-3.2555006 -1.1606679 -4.2417979
-3.3171484 -1.1661838 -4.2051954
-3.3323822 -1.168273 -4.1961069
-3.3941665 -1.168804 -4.1597252
-3.5171399 -1.1800101 -4.0867
-3.5884092 -1.1926099 -4.0440102
-3.6270385 -1.1917064 -4.0213375
-3.7649598 -1.1572095 -3.9422724
-3.9088969 -1.1590002 -3.857481
-4.1683416 -1.3982012 -3.690424
-4.2350883 -1.4269328 -3.6494229
-4.2659464 -1.4284446 -3.6311767
-4.2975864 -1.436318 -3.6120872
-4.3679557 -1.4352528 -3.5707507
-4.4508405 -1.4351968 -3.5219898
-4.4971371 -1.4313203 -3.4949856
-4.5895929 -1.4285523 -3.440757
-4.6360755 -1.4294866 -3.4133534
-4.6665425 -1.4336649 -3.3951764
-4.7283955 -1.4317036 -3.3589044
-4.8057184 -1.4363147 -3.3131344
-4.8263774 -1.4387215 -3.3008351
-4.9313078 -1.4784541 -3.236706
-5.0339279 -1.5116686 -3.174329
-5.0445447 -1.5114926 -3.1680934
-5.2798376 -1.5653549 -3.0264158
-5.2954297 -1.5599475 -3.0175681
-5.6224904 -1.4514027 -2.8316882
-5.6533141 -1.4530534 -2.8134537
-5.659482 -1.4404318 -2.810586
-5.7393608 -1.1543165 -2.7808335
-5.7710447 -1.13353 -2.7634456
-6.012444 -1.3012908 -2.6113107
-5.992455 -1.4562585 -2.6137316
-6.1732702 1.4196875 -2.6806786
-6.095295 1.3901616 -2.7247748
-6.0645509 1.3942795 -2.7431111
-6.0337324 1.3959047 -2.7613409
-5.9564285 1.3888115 -2.8063936
-5.9252367 1.3779743 -2.8240919
-5.8483815 1.3858362 -2.8697827
-5.7710037 1.3762505 -2.9147291
-5.7404189 1.3804878 -2.9329786
-5.6184974 1.3573723 -3.0033164
-5.5923829 1.3429537 -3.0178118
-5.5542469 1.3430015 -3.0402513
-5.5333862 1.3524352 -3.0530932
-5.4621639 1.3603401 -3.0954723
-5.3446651 1.3228295 -3.1623404
-5.2987118 1.3314663 -3.1898968
-5.2447839 1.3450639 -3.2224443
-5.1067114 1.3734151 -3.3053858
-5.0758567 1.3749876 -3.3236337
-4.9979458 1.3576443 -3.3684263
-4.9205046 1.3454635 -3.4132538
-4.8437104 1.3557148 -3.4590523
-4.7974114 1.3519313 -3.486064
-4.7666283 1.3559963 -3.5044196
-4.7212691 1.362538 -3.5315003
-4.6902704 1.3591257 -3.5495324
-4.65909 1.3605205 -3.5679612
-4.7369289 1.3753713 -3.5230606
-4.7677841 1.3737988 -3.5048127
-4.8594089 1.3587562 -3.4499998
-4.9393053 1.3835454 -3.4044876
-5.0311065 1.4137534 -3.3522983
-5.0464787 1.4166169 -3.3434267
-5.0963173 1.4203377 -3.3143289
-5.180685 1.3881509 -3.2627528
-5.2078753 1.3797888 -3.2462516
-5.2313004 1.3715242 -3.2319717
-5.2731819 1.3527764 -3.2062016
-5.3923855 1.3667411 -3.1369112
-5.4007511 1.3686367 -3.1321034
-5.4635277 1.3954748 -3.0967872
-5.524857 1.3871194 -3.0602014
-5.6081066 1.3969275 -3.0118136
-5.6214685 1.3947546 -3.0038214
-5.7103567 1.4021729 -2.9519722
-5.7524958 1.3939736 -2.9266863
-5.8219671 1.3952866 -2.8858926
-5.8645153 1.4014043 -2.8612289
-5.9571857 1.4088713 -2.8071573
-6.0189724 1.4106057 -2.7709105
-6.1426854 1.423925 -2.6989281
-6.2045369 1.4330174 -2.6630867
-6.23559 1.4340041 -2.6448765
-6.2394133 1.4334743 -2.6425953
-6.2817011 1.4302601 -2.617522
-6.3203154 1.4325603 -2.5949426
-6.3739982 1.4252645 -2.5629191
-6.4018645 1.4264094 -2.5465932
-6.358397 1.4222786 -2.571918
-6.2755203 1.424933 -2.6208375
-6.234674 1.4138247 -2.6441994
-6.9035554 -0.80329764 -2.1170502
-6.9116468 -0.76120365 -2.1148267
-6.9393744 -0.72806531 -2.1005106
-6.2374043 -1.5118445 -2.4662688
-6.3143334 -1.5172187 -2.4206846
-6.4798546 -1.5251583 -2.3228238
-6.5297666 -1.5337609 -2.2929404
-6.5424814 -1.5254742 -2.2859592
-6.5311117 -1.488892 -2.2948532
-6.655345 -1.2403307 -2.2367423
-6.9542689 -1.3254216 -2.0557461
-6.9603548 -1.2480434 -2.056829
-5.9859772 -1.4804083 -2.6160872
-6.0645823 -1.5252758 -2.567137
-6.0888338 -1.5208788 -2.5531337
-6.6647959 -1.1490072 -2.236686
-6.6179056 -1.165228 -2.2632957
-6.5563698 -1.1644169 -2.2995484
-6.95784 -1.4025364 -2.0489976
-7.0538893 -1.539394 -1.9842401
-6.9513755 -1.4855261 -2.0477993
-6.9626122 -1.4945589 -2.0406437
-7.0082321 -1.5207142 -2.0122278
-7.0384583 -1.5423065 -1.9931431
-7.340476 -0.9223001 -1.8528216
-7.3459659 -0.96309042 -1.8471333
-6.9041739 -0.80841517 -2.1163778
-6.9068193 -0.84850502 -2.1124053
-6.9114618 -0.96046269 -2.1029263
-6.7562151 -1.1216077 -2.184552
-4.2586303 1.3813188 -3.8048198
-4.187458 1.4208165 -3.8490734
-3.9961705 1.3712738 -3.9586291
-4.1505499 1.378188 -3.8682189
-4.1812611 1.3716307 -3.8497553
-4.2742949 1.3720757 -3.7950468
-4.3048954 1.3728178 -3.7770879
-3.8267066 1.3714657 -4.0583425
-3.8884161 1.3683205 -4.0218472
-3.8421893 1.3670294 -4.0489664
-3.7651076 1.367311 -4.0943332
-5.6228638 -1.4389392 -2.8322194
-5.2956634 -1.5200908 -3.0198326
-5.4302979 -1.1776888 -2.9612584
-2.4540248 -0.83243203 -4.7331176
-2.4405093 -0.83267319 -4.7410545
-2.3916922 -0.78431916 -4.7726898
-2.4234815 -0.75348985 -4.7558451
-2.4601188 -0.75336552 -4.7342978
-2.5005631 -0.75377142 -4.7104778
-2.5392218 -0.75262153 -4.6878033
-4.4131193 1.3809335 -3.7139049
-4.4826136 1.385407 -3.6732886
-4.490345 1.3856368 -3.6687536
-4.5287685 1.3842056 -3.6460614
-4.5977063 1.3638432 -3.6042757
-4.5358868 1.3742881 -3.6412759
-4.4585891 1.3670921 -3.6863191
-4.3825188 1.3801912 -3.7318635
-4.3713975 1.3812943 -3.7384734
-4.3822651 1.3825059 -3.7321525
-4.3975649 1.3828771 -3.7231731
0 0 0 1 0 0 0 1 0 0 0 1 0 0 0 0 0 445 1 0 0
