ply
format ascii 1.0
comment PCL generated
element vertex 288
property float x
property float y
property float z
element camera 1
property float view_px
property float view_py
property float view_pz
property float x_axisx
property float x_axisy
property float x_axisz
property float y_axisx
property float y_axisy
property float y_axisz
property float z_axisx
property float z_axisy
property float z_axisz
property float focal
property float scalex
property float scaley
property float centerx
property float centery
property int viewportx
property int viewporty
property float k1
property float k2
end_header
-1.3170795 -0.40199235 -5.278564
-1.3019187 -0.30698565 -5.2847757
-1.3200991 -0.34704459 -5.2772021
-7.0080042 1.5735627 -2.8833249
-6.8216615 1.6116447 -2.9615805
-6.8041458 1.589183 -2.9689803
-6.6222067 1.4229751 -3.0457301
-6.5754242 1.4207556 -3.0653968
-6.5591831 1.4172071 -3.0722289
-6.5242472 1.4146887 -3.0869167
-6.5124431 1.4148909 -3.0918777
-6.4661818 1.4144496 -3.1113219
-6.3963108 1.4119129 -3.1406932
-6.3495703 1.4095966 -3.1603422
-6.3309765 1.4062848 -3.1681628
-6.2729874 1.398731 -3.1925485
-6.2262239 1.4040116 -3.2121944
-6.2093506 1.4051478 -3.2192843
-6.139482 1.4076108 -3.248646
-6.0696073 1.3975741 -3.2780313
-6.0346708 1.3950558 -3.2927194
-5.9997301 1.3825375 -3.3074262
-6.0355573 1.3923478 -3.2923512
-2.1497808 -0.78911394 -4.9292326
-2.1141038 -0.78908241 -4.9442277
-1.9532406 -0.58863801 -5.0115004
-1.946794 -0.44852459 -5.0139728
-2.0004182 -0.2488609 -4.9910975
-2.0113626 -0.16875583 -4.986362
-2.0114152 -0.12875645 -4.9862723
-2.0114682 -0.088757098 -4.9861822
-1.9897888 0.071326852 -4.9950237
-1.9999959 0.15144479 -4.9905987
-2.0118906 0.23123786 -4.9854646
-2.0414925 0.49101886 -4.9725838
-2.0760856 0.55159742 -4.957942
-2.1343181 0.67076707 -4.9332657
-2.3086789 0.87049645 -4.8596439
-2.3146255 0.95046711 -4.8570094
-2.3104029 1.0604677 -4.8585987
-2.3104165 1.0704676 -4.8585758
-2.3104694 1.110467 -4.8584862
-2.3119955 1.1504406 -4.8577771
-2.3142588 1.1904014 -4.8567586
-2.3187323 1.2303237 -4.8548107
-2.3174171 1.3503475 -4.8551607
-2.357538 1.3677385 -4.8382688
-2.3807023 1.3779254 -4.8285155
-2.4274447 1.3877008 -4.8088531
-2.4623811 1.3851821 -4.7941732
-2.5091069 1.3824579 -4.774539
-2.5322547 1.3801447 -4.7648139
-2.5671916 1.3776263 -4.7501345
-2.6139238 1.3799019 -4.7304888
-2.6606526 1.3796775 -4.7108488
-2.7305295 1.37714 -4.6814837
-2.7772582 1.3769157 -4.6618443
-2.8589239 1.3741729 -4.6275244
-2.8938642 1.3741541 -4.6128392
-2.9637442 1.3741167 -4.5834684
-2.9755363 1.3764111 -4.5785084
-2.9930091 1.3739011 -4.5711689
-3.0279491 1.3738824 -4.5564837
-3.0454164 1.3763738 -4.5491381
-3.0803533 1.373855 -4.5344582
-3.0978258 1.371345 -4.5271187
-3.2493649 1.3635647 -4.4634399
-3.2961037 1.3708403 -4.4437833
-3.3659806 1.3683028 -4.4144182
-3.4127126 1.3705784 -4.3947725
-3.4943783 1.3678356 -4.3604531
-3.5686526 1.3477213 -4.3292694
-3.6577129 1.3648494 -4.2918086
-3.7393851 1.3671063 -4.2574778
-3.8033442 1.3471723 -4.2306294
-3.8419685 1.3470892 -4.2143955
-3.8638327 1.3470401 -4.2052064
-3.9258575 1.3543074 -4.1791248
-3.9826255 1.3467772 -4.1552777
-4.0424666 1.3540457 -4.1301146
-4.1241455 1.3613025 -4.0957723
-4.2407608 1.3660407 -4.0467505
-4.3106341 1.3610035 -4.0173912
-4.4272499 1.3657416 -3.9683697
-4.4503913 1.3584287 -3.9586556
-4.4853249 1.3534101 -3.9439816
-4.5552049 1.3533726 -3.9146109
-4.6718307 1.3656108 -3.8655725
-4.7770739 1.3624566 -3.8213439
-4.7888656 1.3647507 -3.8163838
-4.8351684 1.3651247 -3.7969222
-4.8818936 1.3624003 -3.7772882
-4.9286294 1.3671758 -3.757637
-4.9867072 1.3573444 -3.7332432
-5.0216475 1.3573256 -3.7185581
-5.0565839 1.354807 -3.7038784
-5.0801654 1.3568957 -3.6939635
-5.1033196 1.3595825 -3.6842272
-5.1386962 1.3664656 -3.6693468
-5.1618338 1.3566526 -3.6596386
-5.1602845 1.0647683 -3.6607828
-5.4420419 0.87407416 -3.5426822
-5.5251508 0.91396111 -3.507684
-5.558651 0.87392735 -3.4936714
-5.5585923 0.75392914 -3.4938986
-5.5607667 0.67389244 -3.49312
-5.6357236 0.51384324 -3.4618859
-5.7143683 0.35373086 -3.4291019
-5.7915578 0.23364317 -3.396862
-5.8694654 0.073543444 -3.364388
-5.9095449 0.033474032 -3.34761
-6.1026249 -0.046748452 -3.2665939
-6.1055365 -0.1267978 -3.2655053
-6.1425271 -0.27256706 -3.2502046
-6.2591848 -0.47261208 -3.2015109
-6.3956399 -0.67351329 -3.1444981
-6.461576 -0.71941632 -3.1168628
-6.5359545 -0.73334366 -3.0856249
-6.5590997 -0.73562813 -3.0759008
-6.6058331 -0.74075949 -3.0562673
-6.6407714 -0.73821747 -3.0415785
-6.6969786 -0.73286265 -3.0179455
-6.7805262 -0.74304926 -2.9828472
-6.8550882 -0.72093987 -2.9514716
-6.9149504 -0.72123593 -2.926312
-7.01124 -0.74126178 -2.8858752
-7.0817428 -0.72683793 -2.8562183
-7.1464138 -0.72196835 -2.8290291
-7.1560392 -0.72209722 -2.8249836
-7.4136257 -0.56303787 -2.7164512
-7.4268308 -0.52307588 -2.7108333
-7.4338312 -0.44323662 -2.7077563
-7.3997421 -0.32298106 -2.7218809
-7.397788 -0.31311861 -2.7226853
-7.3919468 -0.28303966 -2.7250896
-7.3880863 -0.24277742 -2.726644
-7.3912954 -0.212964 -2.725245
-7.3956785 -0.1729067 -2.723335
-7.3872385 -0.092956565 -2.7267473
-7.4004345 -0.052985575 -2.7211337
-7.3889837 0.10721675 -2.7256756
-7.0325637 0.10915351 -2.8754764
-7.0385456 0.12905067 -2.8729286
-7.049819 0.18885751 -2.8680892
-7.05056 0.18884468 -2.8677778
-7.3979182 0.18719651 -2.7217855
-7.4206038 0.26720256 -2.7121155
-7.4071603 0.38717425 -2.7175632
-7.3923979 0.58720398 -2.7234302
-7.3902283 0.59220856 -2.7243333
-7.3732677 0.62750262 -2.7314024
-7.3501906 0.66747373 -2.741034
-7.390831 0.82720464 -2.7236829
-7.3909531 0.87470388 -2.7235518
-7.3781481 0.9872303 -2.7287436
-7.3782058 1.1074307 -2.7285161
-7.3808432 1.1872222 -2.7272727
-7.1590977 1.4055583 -2.8201041
-7.1360493 1.4079288 -2.829787
-6.9558239 1.4293944 -2.9054999
-6.7928247 1.4292094 -2.9740088
-6.780602 1.4271154 -2.9791496
-6.7157478 1.4174142 -3.0064244
-6.6571035 1.4153997 -3.031076
-6.6172476 1.4149462 -3.0478282
-6.6103268 1.4156802 -3.0507357
-7.2346234 -1.4822713 -2.7932386
-7.2609301 -1.4824169 -2.7821822
-7.3604946 -1.4025072 -2.7402
-7.4002008 -1.3628081 -2.7234445
-7.4005308 -1.2428097 -2.723103
-7.4014916 -1.1628207 -2.7225642
-7.4040432 -1.0428519 -2.7212892
-7.4041529 -1.0028524 -2.7211752
-7.4021521 -0.92282379 -2.7218812
-7.4100513 -0.84265184 -2.7184255
-7.524569 -0.6958546 -2.6700459
-7.5289683 -0.68336725 -2.6681757
-7.5378084 -0.64339274 -2.6643925
-7.5239992 -0.56322885 -2.6700611
-7.5275402 -0.52311444 -2.6685052
-7.632328 -0.3083052 -2.6240997
-7.7260523 -0.2571916 -2.584621
-7.7723742 -0.17753787 -2.5650172
-7.7684784 -0.097507432 -2.5665197
-7.7941713 -0.014510453 -2.5555806
-7.7929964 0.10551317 -2.5558715
-7.808836 0.18218754 -2.5490847
-7.8090687 0.22218651 -2.5489192
-7.7617469 0.26255408 -2.5687406
-7.7466307 0.26579103 -2.5750885
-7.7109737 0.26587936 -2.590075
-7.5439978 0.50705612 -2.6598477
-7.5431509 0.54723686 -2.6601357
-7.5454359 0.58723146 -2.6591079
-7.552187 0.66721594 -2.6561351
-7.5531693 0.67953432 -2.6557014
-7.5598893 0.74701905 -2.6527631
-7.5654063 0.8259936 -2.650311
-7.5572701 0.94720161 -2.6535258
-7.5614738 1.0269003 -2.6516242
-7.5974483 1.146216 -2.6363027
-7.5798807 1.2665889 -2.6434827
-7.5741367 1.3066232 -2.6458297
-7.5751891 1.3464414 -2.6453199
-7.3917675 1.1921986 -2.7226729
-7.1744308 1.4280248 -2.8136213
-7.0644274 1.5486425 -2.859652
-7.0422163 1.5884997 -2.8689201
-7.2424746 -1.4621692 -2.7899051
-7.2544379 -1.4198283 -2.7848053
-7.3222709 -1.2427729 -2.7559958
-7.2983313 -1.1621746 -2.7659216
-7.2789507 -1.1226496 -2.7740002
-6.9673395 -1.0014155 -2.9047661
-6.9308286 -1.0412952 -2.9201789
-6.5773029 -1.0398705 -3.068764
-6.3962584 -0.97350907 -3.1447451
-6.3464808 -0.97648424 -3.1656716
-6.3324604 -0.95879614 -3.1715345
-6.1488533 -0.73317057 -3.2483237
-6.1276016 -0.73289651 -3.2572553
-6.1162496 -0.73328561 -3.262027
-6.0577259 -0.73798054 -3.2866328
-6.022788 -0.7430225 -3.3013256
-5.8117046 -0.83325207 -3.3901966
-5.5245032 -0.87305748 -3.5109749
-5.4625053 -0.9529435 -3.5371675
-5.4218369 -1.0730731 -3.5544636
-5.4516439 -1.1879539 -3.5421298
-5.4538288 -1.1929513 -3.5412199
-5.4582157 -1.272945 -3.5395112
-5.4516935 -1.3929515 -3.5424552
-5.3350887 -1.4104038 -3.5914938
-5.3176079 -1.412923 -3.5988452
-5.2826686 -1.410465 -3.6135261
-5.2359371 -1.4128335 -3.6331713
-5.2010012 -1.4228754 -3.647872
-5.1645908 -1.4328955 -3.6631923
-5.084394 -1.4303279 -3.6968946
-5.0603743 -1.4328568 -3.7069945
-4.9677844 -1.4302806 -3.7459056
-4.8979053 -1.4203647 -3.7752595
-4.8206048 -1.4327698 -3.8077698
-4.7812982 -1.4278173 -3.8242822
-4.6777921 -1.432754 -3.867794
-4.54808 -1.4277223 -3.9223037
-4.5013423 -1.4050913 -3.9419093
-4.3497934 -1.4000859 -4.0055971
-4.306109 -1.3526391 -4.0238776
-4.2562642 -1.1298262 -4.0444512
-4.2234955 -1.0723662 -4.0581264
-4.1514072 -0.95995432 -4.0882354
-4.1199493 -0.91230494 -4.101377
-4.0682316 -0.83234465 -4.1229787
-3.9434953 -0.75217891 -4.1752701
-3.8705316 -0.75204384 -4.2059364
-3.8364694 -0.75727248 -4.2202621
-3.7779427 -0.75196749 -4.2448516
-3.7710137 -0.75242168 -4.2477646
-3.7316518 -0.74989867 -4.2643042
-3.7051172 -0.75200826 -4.2754602
-3.6892879 -0.75226188 -4.282114
-3.6307626 -0.75195688 -4.3067117
-3.5447216 -0.73937291 -4.3428535
-3.5097842 -0.74441487 -4.3575463
-3.4984331 -0.74730396 -4.3623219
-3.4733734 -0.75193512 -4.3728623
-3.3939238 -0.79187781 -4.4063225
-3.391731 -0.79186869 -4.4072442
-3.1078105 -0.91211516 -4.5267797
-2.8560643 -0.79204994 -4.6323857
-2.8189421 -0.79078013 -4.6479864
-2.7121954 -0.79006273 -4.6928511
-2.700593 -0.79011881 -4.6977272
-2.4712596 -0.81999564 -4.794167
-2.3317962 -0.82933533 -4.8527994
-2.1695144 -0.78923661 -4.920939
-6.1214709 1.4017382 -3.2562258
-6.1857319 1.3855524 -3.2292442
-6.2206583 1.3680712 -3.2145941
-6.2792144 1.3926848 -3.1899414
-6.3028264 1.3997804 -3.1800053
-6.3658862 1.4037093 -3.1534946
-6.4307642 1.4050562 -3.126224
-6.4706454 1.4084826 -3.1094561
-6.4825068 1.4082775 -3.1044712
-6.5292959 1.412997 -3.0847979
0 0 0 1 0 0 0 1 0 0 0 1 0 0 0 0 0 288 1 0 0
