ply
format ascii 1.0
comment PCL generated
element vertex 655
property float x
property float y
property float z
element camera 1
property float view_px
property float view_py
property float view_pz
property float x_axisx
property float x_axisy
property float x_axisz
property float y_axisx
property float y_axisy
property float y_axisz
property float z_axisx
property float z_axisy
property float z_axisz
property float focal
property float scalex
property float scaley
property float centerx
property float centery
property int viewportx
property int viewporty
property float k1
property float k2
end_header
-9.0103207 -0.59658903 6.1778388
-8.9686861 -0.45797327 6.1781836
-8.968977 -0.45464507 6.1801128
-8.9526901 -0.3282949 6.2126627
-8.9373178 -0.28766727 6.2080474
-8.9174852 -0.1278871 6.2503457
-8.8029909 0.078680784 6.1728163
-8.7845936 0.15285075 6.1787748
-8.7604284 0.22036797 6.173161
-8.7119417 0.30472314 6.1389246
-8.6995182 0.31941706 6.1270423
-8.6757736 0.35557264 6.1079602
-8.6572342 0.41963774 6.1091666
-8.6542921 0.42868972 6.1088562
-8.6380968 0.50522578 6.1191549
-8.621829 0.58092988 6.1289721
-8.5991001 0.6511997 6.1267333
-8.5699625 0.76192832 6.1331406
-8.5561371 0.79743373 6.1285248
-8.549509 0.83539629 6.1357241
-8.5460768 0.95489991 6.1843247
-8.5502415 1.0021966 6.2117772
-8.5196161 1.1526426 6.2338219
-8.4078484 1.2887145 6.1286664
-8.3803988 1.316063 6.1001129
-8.3390923 1.3567165 6.0569201
-8.2316771 1.3492395 5.8937273
-8.2019196 1.2908775 5.8232198
-8.1840324 1.2923136 5.7972493
-8.0969257 1.3261181 5.6828275
-8.0668297 1.3391596 5.6439066
-8.0336552 1.348292 5.5986476
-7.9982758 1.3494735 5.546535
-7.9584475 1.3617067 5.4927688
-7.8944917 1.3682175 5.4005289
-7.9589891 1.320978 5.4752703
-7.9878569 1.3330023 5.5236292
-9.0546827 -0.94947845 6.0852518
-9.0123329 -0.73721945 6.11763
-9.0116501 -0.60420728 6.1763921
-9.0780401 -0.90334433 6.1407409
-9.0715542 -0.85527694 6.1526933
-9.059124 -0.82370114 6.1483884
-9.02104 -0.58808696 6.1976104
-9.0322285 -0.55661297 6.2284031
-9.0279217 -0.53545648 6.231503
-8.9879007 -0.39827427 6.2336044
-8.9753876 -0.34220701 6.2401834
-8.9471416 -0.24408863 6.24225
-8.9577274 -0.10688531 6.3196645
-8.9128914 -0.044161886 6.2811389
-8.7926455 0.2159372 6.2191091
-8.7720184 0.34968358 6.2485247
-8.7566624 0.51502782 6.2999854
-8.7544394 0.55772233 6.3158646
-8.723814 0.70816839 6.3379087
-8.7195091 0.81768787 6.380723
-8.6258144 1.0252031 6.3345699
-8.5858278 1.2406774 6.3719087
-8.5729084 1.3041468 6.3812089
-8.568388 1.3101457 6.3771791
-8.5492783 1.3337915 6.3593717
-8.4010611 1.4275296 6.180954
-8.3926754 1.4329906 6.1709313
-8.3731356 1.4487878 6.1489553
-8.3194246 1.4534903 6.0711474
-8.2067089 1.5184338 5.9326148
-8.1667175 1.4828442 5.8571138
-8.1643391 1.456614 5.8417864
-8.0696373 1.3634335 5.6589942
-8.8854675 -1.5937077 5.5439296
-8.818224 -1.6091199 5.4369464
-8.7542677 -1.6026092 5.3447061
-8.7210941 -1.593477 5.2994475
-8.6909981 -1.5804356 5.2605267
-8.6253986 -1.5848862 5.1609154
-8.6110687 -1.5818915 5.1409383
-8.5767288 -1.5860715 5.0879631
-8.4948854 -1.5781246 4.9697523
-8.4471102 -1.5456333 4.9132657
-8.3812399 -1.5297197 4.8224034
-8.3314056 -1.5442173 4.7417355
-8.2679281 -1.5400572 4.6491513
-8.2030144 -1.528845 4.5576
-8.1503038 -1.526382 4.4802737
-8.1348801 -1.5316468 4.4549575
-8.0934677 -1.51961 4.398746
-8.0575571 -1.5172706 4.3463626
-8.046442 -1.5098339 4.3331656
-7.9970236 -1.4883044 4.2693076
-8.0690498 -1.3617396 4.4333625
-8.0771103 -1.3337808 4.4579215
-8.044754 -1.0883913 4.5200601
-8.0332823 -1.0657374 4.5131717
-7.8697515 -0.79841197 4.3899822
-7.7985678 -0.85039008 4.2607017
-7.7821155 -0.85600615 4.2336969
-7.7766647 -0.85629141 4.2254577
-7.761364 -0.85734749 4.2022157
-7.706007 -0.85468227 4.1210437
-7.5352502 -0.76666081 3.9065185
-7.6814842 -0.78179598 4.117311
-7.6990824 -0.75862408 4.1539102
-7.7448683 -0.77284229 4.2156491
-7.7937965 -0.76238656 4.2931523
-7.8126016 -0.76549351 4.3197384
-7.8586702 -0.77056819 4.3860073
-7.9233131 -0.76141602 4.4863081
-8.0042 -0.76466143 4.6052074
-8.0517044 -0.77678835 4.6704435
-8.0901566 -0.77120441 4.7301698
-8.0998955 -0.77325225 4.7437401
-8.1263809 -0.77901739 4.7805605
-8.1317682 -0.80865788 4.7752547
-8.1184511 -0.94827479 4.6926923
-8.1244678 -1.0838467 4.6407156
-8.1358948 -1.1692748 4.6193256
-8.2871876 -1.5101675 4.6912432
-8.332571 -1.530905 4.7494516
-8.3998137 -1.515493 4.8564348
-8.4310741 -1.5152221 4.9030719
-8.495779 -1.5444481 4.986218
-8.5465708 -1.534652 5.0661964
-8.6143551 -1.5599685 5.1556811
-8.6604233 -1.5650432 5.2219505
-8.7076578 -1.5568057 5.2959356
-8.727459 -1.5676448 5.320529
-8.7744846 -1.5774208 5.3861094
-8.8226757 -1.573885 5.4594054
-8.9004841 -1.5810397 5.5719676
-8.9486742 -1.5775037 5.6452637
-8.9146061 -1.6020479 5.583539
-9.0644913 -0.99344802 6.0800853
-9.0759754 -1.0498652 6.0718179
-5.8483677 1.3639425 2.354002
-5.863224 1.358592 2.3737035
-5.8780804 1.3532418 2.393405
-5.9513912 1.3677169 2.508996
-5.9581046 1.3727872 2.5212641
-6.0158601 1.3968637 2.6180241
-6.0653305 1.3753461 2.6819649
-6.1485796 1.3604 2.7991214
-6.1822376 1.3489335 2.8440506
-6.2607069 1.3574922 2.9646583
-6.3089848 1.3791022 3.0462079
-6.3891239 1.3421828 3.1488612
-6.4225459 1.369143 3.2107091
-6.4067335 1.3791943 3.1916978
-6.3734326 1.3702723 3.1381366
-6.3560653 1.3693367 3.1118736
-4.3199024 -0.78979033 -0.88827187
-4.3854389 -0.86644447 -0.82520503
-4.4335618 -0.90556544 -0.77118057
-4.4255371 -0.89319575 -0.77756208
-4.3959069 -0.85042626 -0.80242974
-4.3118095 -0.74511433 -0.88023573
-4.2949266 -0.70979226 -0.88948268
-4.2815337 -0.69474423 -0.90264851
-4.2728424 -0.69519079 -0.9157818
-4.2786255 -0.72342908 -0.91986769
-4.2095041 -1.6303306 -1.4303019
-4.2079077 -1.6372364 -1.4357808
-4.0816417 -1.5504175 -1.5846446
-4.0177331 -1.5442337 -1.6769607
-3.9702504 -1.5324516 -1.7423191
-3.8921933 -1.5056419 -1.8464181
-3.8112013 -1.5205215 -1.9736204
-3.7938113 -1.5214136 -1.9998977
-3.7645073 -1.5312642 -2.0479286
-3.7175064 -1.5218351 -2.1136274
-3.6846542 -1.5330319 -2.1675432
-3.667264 -1.533924 -2.1938205
-3.6233301 -1.5207955 -2.2532935
-3.5729125 -1.5507028 -2.3417554
-3.5257368 -1.559092 -2.4157226
-3.4444377 -1.5538002 -2.5343161
-3.415309 -1.5458324 -2.5740781
-3.3352809 -1.5654186 -2.7019618
-3.2679985 -1.5427624 -2.7918947
-3.2069812 -1.5506977 -2.8862538
-3.1910369 -1.5586492 -2.9135523
-3.1242366 -1.5383462 -3.0038259
-3.0564725 -1.5133369 -3.0934179
-3.0247593 -1.5114216 -3.1397464
-2.9651875 -1.5264164 -3.2351274
-2.9430602 -1.5323837 -3.2707341
-2.9103236 -1.5347347 -3.3205025
-2.88851 -1.5282397 -3.3500421
-2.8643944 -1.5214616 -3.3828795
-2.8480632 -1.5182168 -3.4057219
-2.8332632 -1.5132006 -3.4254897
-2.8012385 -1.4913933 -3.463341
-2.631799 -1.5169261 -3.7269399
-2.6007187 -1.4997162 -3.7654521
-2.5579729 -1.4734143 -3.8172367
-2.5559182 -1.439339 -3.80498
-2.5410161 -1.3612912 -3.7920778
-2.3977709 -1.1881706 -3.9274204
-2.3834374 -1.185452 -3.9475267
-2.3784649 -1.1796097 -3.9522998
-2.2754986 -1.1325511 -4.084363
-2.2379253 -1.1540976 -4.1499553
-2.2299013 -1.1417098 -4.1563277
-2.2149994 -1.1064723 -4.1626649
-2.0692904 -0.89394695 -4.2839642
-2.0375817 -0.89208573 -4.3303099
-1.8928883 -0.71190143 -4.4646325
-1.8635287 -0.6064778 -4.4609394
-1.8519816 -0.56694812 -4.4603558
-1.8336682 -0.49020982 -4.4531183
-1.7409532 -0.32515034 -4.5168953
-1.6365261 -0.27482283 -4.649663
-1.5753157 -0.26282287 -4.7353501
-1.5114157 -0.25674582 -4.8277016
-1.5017982 -0.2549977 -4.8412266
-1.5011892 -0.25047278 -4.8400993
-1.5018835 -0.24235141 -4.8354158
-1.5013046 -0.028468877 -4.7401533
-1.3790331 0.22945005 -4.8061776
-1.3895509 0.22434354 -4.7928219
-1.4724014 0.2382533 -4.66329
-1.5984802 0.30912781 -4.4438338
-1.6508417 0.30409575 -4.3681822
-1.7633061 0.40197003 -4.1568499
-1.8046582 0.44288391 -4.0769305
-1.8248286 0.56192863 -3.9934156
-1.8307118 0.49122536 -4.0164371
-1.8394547 0.33775312 -4.072402
-1.8443086 0.30147302 -4.0814843
-1.8529875 0.263336 -4.08571
-1.8684323 0.18799049 -4.0965905
-1.8838773 0.11264497 -4.1074705
-1.9080009 -0.00083765388 -4.1225767
-1.9167526 -0.072933555 -4.1419559
-1.9388907 -0.15152876 -4.1443372
-1.8936613 -0.3363651 -4.2947078
-1.909106 -0.41171065 -4.3055882
-1.915803 -0.44973135 -4.3127108
-2.0744627 -0.73631293 -4.2054238
-2.1500828 -0.89681196 -4.1650333
-2.1914446 -0.94576418 -4.1254883
-2.2126813 -0.96374309 -4.1019683
-2.2573006 -0.99648064 -4.0502887
-2.2931373 -1.0321716 -4.0130043
-2.3137703 -1.0579101 -3.99387
-2.3482993 -1.0966662 -3.9599092
-2.4280314 -1.1829681 -3.8800547
-2.5399041 -1.203043 -3.7226117
-2.5658817 -1.3000243 -3.7275431
-2.5705273 -1.3387408 -3.7380307
-2.3534677 1.4138843 -2.8239186
-2.3252006 1.3477607 -2.8956971
-2.2622485 1.3493116 -2.988672
-2.2295694 1.3559729 -3.0343044
-2.1988151 1.3532168 -3.081305
-2.1341839 1.3441247 -3.1815619
-2.1167641 1.3433111 -3.2078478
-2.0454834 1.3442571 -3.3134873
-2.0321155 1.3422667 -3.3342731
-1.99086 1.3464125 -3.3937976
-1.9820664 1.3479795 -3.4061782
-1.9473157 1.3462647 -3.4586575
-1.9012737 1.3508446 -3.5251091
-1.8838985 1.3499871 -3.5513484
-1.8373735 1.3569216 -3.6174605
-1.8071129 1.351719 -3.6648262
-1.7713974 1.3547134 -3.7166245
-1.7427301 1.3601506 -3.7568371
-1.7283969 1.362869 -3.7769434
-1.7096086 1.3665433 -3.8032486
-1.7007949 1.3682849 -3.8155806
-1.6813896 1.3721579 -3.842715
-1.6675386 1.3725222 -3.8631613
-1.634382 1.3814471 -3.9084871
-1.6136284 1.3970715 -3.9323461
-1.7069695 1.4186091 -3.783776
-1.7425995 1.4029684 -3.7377884
-1.7880988 1.3956863 -3.6733587
-1.7926838 1.3947233 -3.6669691
-1.8242974 1.3903375 -3.6218998
-1.8841901 1.3853937 -3.535002
-1.9298224 1.3763123 -3.4711831
-1.9675417 1.388459 -3.4095986
-1.9934916 1.390113 -3.3702419
-2.0564437 1.3885622 -3.2772667
-2.1678157 1.3705208 -3.1196551
-2.2007301 1.3815656 -3.0657151
-2.2753937 1.4141346 -2.9399791
-2.2852933 1.4275038 -2.9192402
-2.3162832 1.4479661 -2.8639314
-4.7175374 -1.6077641 -0.66421264
-4.6338086 -1.6335098 -0.80037099
-4.5282583 -1.5153712 -0.90433425
-4.5359931 -1.5102195 -0.89050967
-4.6071477 -1.5088971 -0.78403836
-4.6148825 -1.5037452 -0.77021366
-4.6286478 -1.506606 -0.7510168
-4.6375318 -1.5075544 -0.73822397
-4.662365 -1.5155276 -0.70485562
-4.7375741 -1.4724096 -0.57356721
-4.7539506 -1.4745171 -0.55014604
-4.7990732 -1.4668275 -0.47954828
-4.9711318 -1.5124952 -0.24405181
-4.8283339 -1.5127856 -0.45666391
-4.8028851 -1.5414616 -0.50741893
-5.2145801 -1.4896247 0.12847465
-5.1991277 -1.4805139 0.10957611
-5.1827011 -1.4861121 0.082618117
-5.119442 -1.4839214 -0.010526359
-5.0861506 -1.4929012 -0.06409955
-5.1181355 -1.4953936 -0.017626405
-5.1329408 -1.5005541 0.002084434
-5.1667571 -1.4940637 0.055319726
-5.2436171 -1.5156398 0.15998966
-5.324544 -1.5005432 0.28719231
-5.816144 1.3683574 2.3080375
-5.7670307 1.3694866 2.235465
-5.7069731 1.3542838 2.1392677
-5.6462731 1.3682867 2.0552406
-5.6279449 1.3636131 2.0258677
-5.6091361 1.3570701 1.9949403
-5.5611 1.3715364 1.9299645
-5.4905972 1.3552729 1.8177478
-5.4598503 1.3524834 1.7707434
-5.4149785 1.3703603 1.7120087
-5.3504024 1.3610544 1.6117382
-5.2757483 1.3799831 1.5091605
-5.1972928 1.3923228 1.3979659
-5.1397424 1.423807 1.3264812
-5.1304827 1.4289031 1.314993
-5.0842705 1.4158074 1.2403445
-5.0482535 1.4219543 1.1895142
-5.0356488 1.4144773 1.1673987
-5.0227714 1.4102253 1.1463258
-4.995122 1.3948787 1.098287
-4.9739747 1.3910769 1.0651113
-4.9264917 1.4028592 0.99975306
-4.8471208 1.3987383 0.87979758
-4.816371 1.3959473 0.83278835
-4.7677498 1.3946174 0.75984234
-4.7492204 1.3806133 0.72597748
-4.6709881 1.3896046 0.61360985
-4.6394501 1.4093384 0.57555026
-4.554296 1.4334556 0.45968094
-4.504869 1.4631242 0.39946777
-4.5029578 1.4640634 0.39704657
-4.4998779 1.4630136 0.39199197
-4.4211774 1.4717084 0.27879378
-4.3876677 1.4450463 0.21694946
-4.3552971 1.4314965 0.1626929
-4.3426371 1.4073157 0.13298708
-4.3652859 1.4200697 0.17242032
-4.4091778 1.428125 0.2413516
-4.4353595 1.4295596 0.28095433
-4.4596143 1.4238434 0.31447601
-4.5227141 1.3973809 0.39647463
-4.5573187 1.3813466 0.44075999
-4.5890322 1.3794312 0.48708841
-4.6192999 1.3845754 0.53443825
-5.7846403 1.4064982 2.278302
-5.8958111 1.4082915 2.4445288
-5.9631481 1.4233354 2.5514865
-6.015624 1.4352903 2.6349428
-6.0325136 1.4385762 2.6615512
-6.0781598 1.4358622 2.7282522
-6.1114607 1.4447844 2.7818134
-6.1840348 1.3959965 2.8678761
-6.2454934 1.3832312 2.9535887
-6.295085 1.3797516 3.0258162
-3.9056845 -1.5417329 -1.8425636
-3.8177934 -1.5284812 -1.9673889
-3.8100622 -1.5336337 -1.9812083
-3.7931542 -1.5368789 -2.0078259
-3.7628863 -1.5420231 -2.0551758
-3.7152286 -1.5480592 -2.1288025
-4.1302633 -1.5490878 -1.5116985
-4.1619768 -1.551003 -1.4653702
-4.2080135 -1.5557257 -1.3989904
-4.2244396 -1.5501274 -1.3720324
-4.2748575 -1.5202202 -1.2835708
-4.3060889 -1.5197823 -1.2369018
-4.2896628 -1.5253806 -1.2638597
-4.2561531 -1.5520427 -1.3257041
-3.5893028 1.4302574 -0.9776538
-3.5578642 1.4120921 -1.032598
-3.607188 1.4287475 -0.95171934
-3.3675244 1.4404022 -1.3030977
-3.3255835 1.4273884 -1.3713539
-3.2650368 1.417148 -1.466049
-3.2810724 1.3871943 -1.4556499
-3.2947018 1.3690102 -1.443542
-3.326622 1.3848215 -1.3889394
-3.4012032 1.4123833 -1.2655766
-3.4375119 1.409476 -1.2128561
-3.4660735 1.4056785 -1.1720634
-3.4682016 1.4071878 -1.1682186
-7.3639164 1.3274513 4.5927186
-7.3336115 1.3266996 4.547287
-7.2361207 1.3531373 4.414104
-7.2187405 1.3522346 4.3878374
-7.1974659 1.3537449 4.3568597
-7.181221 1.3540859 4.3328409
-7.1536798 1.3549908 4.2922668
-7.1233768 1.3500189 4.2449412
-7.1180387 1.3498322 4.2369142
-7.0710058 1.3475916 4.1659236
-6.9754119 1.3741739 4.0356274
-6.9594784 1.3661871 4.0083289
-6.942111 1.3652517 3.9820659
-6.9252214 1.3619659 3.9554579
-6.7810946 1.4132963 3.7640681
-6.7681684 1.4013133 3.7394488
-6.7541471 1.3839246 3.7107701
-6.7159166 1.3506778 3.6389422
-6.6597443 1.3673791 3.5628645
-6.6448879 1.3727294 3.5431631
-6.6936445 1.3919889 3.6243675
-6.7561798 1.3925608 3.7176769
-7.3164101 1.3437988 4.529377
-7.3001661 1.3561962 4.510778
-7.2700706 1.3776083 4.4756193
-7.257144 1.3735074 4.4545417
-7.2244802 1.3719616 4.4052434
-7.1585703 1.396119 4.318027
-7.1238289 1.3841234 4.2609415
-7.1083446 1.3840063 4.2378483
-7.0796213 1.3899125 4.1977625
-7.0478792 1.3919632 4.151453
-6.978044 1.3984976 4.0504756
-6.9592423 1.4046139 4.0252481
-6.9235516 1.4074439 3.973412
-6.8582687 1.439013 3.8904605
-6.823534 1.4371421 3.8379345
-6.7826676 1.4163514 3.7677822
-7.6751223 -1.2869545 3.8808146
-7.8480716 -1.4493917 4.0651574
-7.2002459 -0.79570884 3.3949816
-7.2013426 -0.7824769 3.4025605
-7.2474785 -0.72323763 3.4978333
-7.2646365 -0.71856773 3.5254629
-7.3437595 -0.76174629 3.6237912
-7.3651276 -0.76189798 3.6555192
-7.3759527 -0.76599264 3.6697865
-7.3880587 -0.7734108 3.6844654
-7.4620414 -0.79542863 3.7846558
-7.4932928 -0.79511559 3.8312984
-6.6096334 -1.5215186 2.1899619
-6.7025738 -1.5536656 2.3138084
-6.7675753 -1.5465745 2.4137173
-6.781918 -1.5494338 2.4337735
-6.8300333 -1.5456595 2.5070648
-6.9294224 -1.5163509 2.6681268
-6.8009977 -1.5196532 2.4755483
-6.6910391 -1.5087585 2.3168273
-6.6725736 -1.5229555 2.2829704
-4.9771914 -0.79011416 0.089619696
-4.8839407 -0.73594952 -0.024793386
-4.851088 -0.74714625 -0.078709424
-4.8193746 -0.74523091 -0.12503791
-4.8029485 -0.75082928 -0.15199584
-4.8227382 -0.84478176 -0.16477329
-4.8422556 -0.87840903 -0.15084499
-4.9115415 -0.90807134 -0.061079323
-4.9583669 -0.93531877 -0.0036494136
-4.9950233 -0.9627642 0.03856051
-5.0767918 -0.88467801 0.19532478
-5.1249094 -0.8809132 0.26861474
-5.1566219 -0.88281429 0.31494829
-5.1730266 -0.87714839 0.34190473
-5.3046131 -0.95159358 0.50424635
-5.3459239 -0.97514743 0.5551306
-5.4366364 -0.90352172 0.72230011
-5.5153699 -0.91489106 0.83434498
-5.5470829 -0.91679209 0.88067853
-5.5787954 -0.91869336 0.92701226
-5.6411242 -0.93572849 1.0121005
-5.7504749 -1.1178503 1.0929636
-5.799293 -1.3552115 1.0589284
-5.6923313 -1.5096124 0.83037937
-5.6775055 -1.5043973 0.81066257
-5.6453109 -1.5001444 0.76466846
-5.5787277 -1.5181042 0.6575222
-5.6584253 -1.5341773 0.76888782
-5.6891737 -1.5313745 0.81590033
-5.7377729 -1.5299616 0.88885081
-5.7690039 -1.5295109 0.93552405
-5.7997518 -1.5267082 0.98253655
-5.830018 -1.5215536 1.0298886
-5.8830895 -1.5233711 1.1080419
-5.9465151 -1.5271734 1.2007092
-6.0113869 -1.5380312 1.2923579
-6.0718288 -1.5143751 1.3929261
-6.1562214 -1.5290887 1.5118884
-6.2448869 -1.5087006 1.6529849
-6.2530704 -1.5059744 1.6663867
-6.314435 -1.5183058 1.7521541
-6.3313217 -1.5149918 1.7787712
-6.4179182 -1.5030963 1.9129717
-6.4674807 -1.5063777 1.9852455
-6.4823055 -1.5115891 2.0049627
-6.5140171 -1.5134834 2.0512972
-6.5309033 -1.5101665 2.0779147
-6.5610356 -1.522941 2.1170099
-6.5258155 -1.522519 2.0647924
-6.4807262 -1.522469 1.9977231
-6.4474363 -1.5314546 1.944149
-6.414628 -1.542792 1.8902354
-6.3838816 -1.5456016 1.8432224
-6.3526525 -1.5460589 1.7965486
-6.3204584 -1.5418125 1.7505531
-6.2811432 -1.5272857 1.698581
-6.2032418 -1.5385571 1.5775994
-6.1392021 -1.5503395 1.4770136
-6.1218333 -1.5513016 1.4507364
-6.1060429 -1.5413828 1.4316986
-7.4060373 -1.6043961 3.3377535
-7.4238863 -1.6055425 3.3637972
-7.5206909 -1.5711408 3.5233023
-7.5975819 -1.6033102 3.6232572
-7.6163859 -1.6049361 3.650507
-7.6967502 -1.5803938 3.7811179
-7.7562933 -1.5272838 3.8935857
-7.8185983 -1.544672 3.9784806
-7.8508091 -1.5490605 4.0244374
-7.3271952 -1.5560548 3.2421632
-7.2934222 -1.5626885 3.1889284
-7.2612286 -1.5584421 3.1429329
-7.2325144 -1.5590611 3.0999281
-7.1511378 -1.5654833 2.9759548
-7.0371876 -1.5537094 2.8116903
-7.0223627 -1.548498 2.7919731
-6.9742475 -1.5522723 2.7186816
-4.0359554 -1.5100579 -1.6344867
-4.001482 -1.5320137 -1.6956501
-3.1954484 -1.1138041 -2.7070646
-3.2596638 -1.1401596 -2.6233575
-3.2909508 -1.1801186 -2.5947614
-3.3042138 -1.2234294 -2.5944912
-3.3432622 -1.4166873 -2.6232424
-3.4657269 -1.5159253 -2.4856162
-3.5263937 -1.5436269 -2.4077945
-7.5142746 -0.80117846 3.8597944
-7.4586277 -0.90291655 3.7312691
-7.4329662 -1.046174 3.6287017
-7.4142075 -1.0784366 3.5862892
-7.5700798 -1.430285 3.6600969
-7.6516485 -1.3885906 3.8002079
-5.9332681 -1.5110772 1.1882317
-5.8106742 -1.192235 1.1491089
-5.9469943 -1.0208025 1.4289975
-5.9511776 -0.99868619 1.4451612
-5.9616327 -0.96581095 1.4754934
-5.9386401 -0.93753707 1.4539876
-5.773365 -0.82787979 1.2573431
-5.7594371 -0.79743207 1.2503022
-5.7461901 -0.78133595 1.237825
-5.7313643 -0.77612084 1.2181082
-5.6848259 -0.76900452 1.1520576
-5.6629844 -0.76673639 1.1205776
-5.6462531 -0.76480615 1.0965487
-5.6133094 -0.76574028 1.0471091
-5.603549 -0.76381254 1.0334524
-5.5866623 -0.76712656 1.0068357
-5.5064821 -0.74870157 0.89580935
-5.4261565 -0.69963264 0.79833823
-5.314013 -0.76376069 0.60264945
-5.26686 -0.77222919 0.5286805
-5.2417707 -0.77837622 0.48858568
-5.1748381 -0.76125419 0.39668551
-5.1610098 -0.76344967 0.37512249
-5.1564965 -0.76379496 0.36825204
-5.1290827 -0.76399279 0.32737136
-5.1113219 -0.75889826 0.3032333
-5.0455747 -0.74182683 0.21307433
-4.996129 -0.78609192 0.11960614
-7.2213497 -0.90930927 3.375329
-7.2244215 -0.94292241 3.3647933
-7.2197676 -1.0443087 3.3123031
-7.2492552 -1.083322 3.3386469
-7.2707624 -1.1096134 3.3588336
-7.2889299 -1.1274283 3.3778596
-7.3615856 -1.4482037 3.3418069
-7.2860875 -1.5277791 3.1937034
-7.2830043 -1.5288361 3.1886406
-7.2665601 -1.5344737 3.161638
-7.2491565 -1.5354095 3.1353214
-7.166841 -1.5192392 3.0201042
-7.1207871 -1.5144855 2.9537132
-7.0879793 -1.5258231 2.8997996
-7.039381 -1.5272454 2.8268476
-6.961134 -1.5182453 2.7144613
-7.2142348 -0.86391425 3.3851438
-5.517231 -1.5237095 0.56349689
-5.5454359 -1.5270841 0.60394907
-5.5648661 -1.5175928 0.63712633
-5.5321889 -1.5109878 0.59147161
-5.4831076 -1.510049 0.51886064
-5.4223576 -1.4821327 0.44101188
-5.4820108 -1.5232818 0.51128155
-5.5132413 -1.5228311 0.55795479
-5.0182848 1.2940847 1.0874537
-5.0199318 1.2952536 1.0904294
-5.090066 1.371285 1.228959
-5.1655817 1.3942393 1.3516414
-5.0075612 1.2967917 1.072714
-4.9165239 1.3681974 0.96934307
-4.8903975 1.3701447 0.93134236
-4.8284163 1.3669157 0.83766413
-4.7804523 1.3810512 0.77264655
-4.7332764 1.3726617 0.69867909
-3.4190128 1.4487326 -1.2227397
-3.4352512 1.4365318 -1.2040606
-3.4580636 1.4164159 -1.1791565
-5.2826314 1.3902987 1.5240389
-5.3573236 1.4002606 1.6396573
-5.3815284 1.3995327 1.6753461
-5.3906431 1.4012511 1.6896812
-5.4299645 1.3830301 1.7400022
-5.4848547 1.3947054 1.8269253
-5.5146189 1.3969895 1.8722403
-5.5360894 1.399334 1.9052415
-5.5766764 1.3999118 1.9658947
-5.6262679 1.3964323 2.0381222
-5.6888037 1.397004 2.1314313
-3.6217091 -1.5315545 -2.2605407
-3.6940904 1.3923782 -0.83875495
-3.8387818 1.2657323 -0.68037373
-3.9217358 1.3887228 -0.50166434
-4.015255 1.3722178 -0.36992627
-4.0476255 1.3857678 -0.31566972
-4.1273041 1.3697169 -0.20432347
-4.1596742 1.3832669 -0.15006697
-4.2071571 1.3714845 -0.084708691
-4.1822338 1.396264 -0.11065745
-4.1495566 1.4028857 -0.1563049
-4.1295819 1.395941 -0.18914807
-4.1131554 1.3903427 -0.2161063
-3.8100379 1.4268605 -0.65072948
-3.928309 1.4315152 -0.47265166
-3.9714966 1.4031645 -0.4211306
-4.0015888 1.3904904 -0.38204938
-3.1637349 -1.1118889 -2.7533929
-3.1489296 -1.1067281 -2.7731037
-3.0719678 -1.122615 -2.8947618
-3.0165915 -1.1128707 -2.9727817
-2.9837801 -1.1240623 -3.0266342
-2.9525747 -1.1246418 -3.073328
-2.9434931 -1.1257126 -3.0873225
-2.8960109 -1.1139303 -3.1526804
-2.871484 -1.1019449 -3.1837895
-2.8272672 -1.1246049 -3.2597678
-2.8080394 -1.1415663 -3.2960012
-2.7922387 -1.151675 -3.324055
-2.7887185 -1.1932015 -3.3479564
-2.7892034 -1.1955566 -3.3482931
0 0 0 1 0 0 0 1 0 0 0 1 0 0 0 0 0 655 1 0 0
