ply
format ascii 1.0
comment PCL generated
element vertex 460
property float x
property float y
property float z
element camera 1
property float view_px
property float view_py
property float view_pz
property float x_axisx
property float x_axisy
property float x_axisz
property float y_axisx
property float y_axisy
property float y_axisz
property float z_axisx
property float z_axisy
property float z_axisz
property float focal
property float scalex
property float scaley
property float centerx
property float centery
property int viewportx
property int viewporty
property float k1
property float k2
end_header
-2.3789756 1.40522 -0.32595342
-2.4579062 1.4110842 -0.31467062
-2.562917 1.3808653 -0.29317009
-2.640259 1.3844161 -0.28173971
-2.7330225 1.3903222 -0.26831126
-2.7945898 1.3881872 -0.25836533
-2.8345737 1.3873918 -0.25200701
-2.9189646 1.3736718 -0.23653162
-2.9276261 1.3575425 -0.23243058
-2.9287977 1.3550119 -0.23181623
-2.8886638 1.3432419 -0.23605323
-2.8489201 1.3306286 -0.24008542
-2.7418323 1.3482192 -0.2597537
-2.7057059 1.3458245 -0.2649672
-2.6884787 1.3452117 -0.26754361
-2.6493566 1.3544562 -0.27521002
-2.5481136 1.3438106 -0.28914911
-2.507719 1.3517916 -0.29679787
-2.4565985 1.3591406 -0.30600798
-2.3418741 1.4126418 -0.33299428
-10.447369 -1.5853269 1.4401604
-10.240174 -1.6587734 1.420452
-10.149767 -1.6558568 1.4058844
-10.131475 -1.6589482 1.4035652
-10.109981 -1.6553471 1.3996055
-10.049499 -1.6529095 1.3897768
-10.040035 -1.6537156 1.3884417
-9.9975262 -1.6449206 1.3803248
-9.9355488 -1.6418722 1.3701591
-9.9046078 -1.6391892 1.364886
-9.8806524 -1.6356087 1.3605466
-9.6979961 -1.5635362 1.3198185
-9.6262512 -1.5581402 1.307732
-9.5836639 -1.5517746 1.3000176
-9.5092468 -1.5563536 1.2892179
-9.4263487 -1.5457942 1.2745144
-9.3506174 -1.5579991 1.2648118
-9.3113079 -1.5558968 1.2583354
-9.2326899 -1.5516919 1.2453825
-9.1521568 -1.5538583 1.2332191
-9.1142912 -1.5599607 1.2283679
-8.9941072 -1.5178087 1.2024691
-8.9480038 -1.5144682 1.194724
-8.832963 -1.5245707 1.178545
-8.7899809 -1.5303519 1.1728425
-8.7048044 -1.5176208 1.1574137
-8.5033674 -1.5357265 1.1291552
-8.512476 -1.5289319 1.1294129
-8.5215836 -1.5221374 1.1296705
-8.5417671 -1.185675 1.0753813
-8.5229387 -1.1591156 1.0679176
-8.4996977 -1.133727 1.059967
-8.499752 -1.0560082 1.0467098
-8.4944181 -0.94619381 1.0271355
-8.5750237 -0.783369 1.0118876
-8.5335979 -0.61856127 0.97730958
-8.4968824 -0.53629017 0.95755291
-8.4557095 -0.48619631 0.94259489
-8.4403629 -0.42803487 0.93027908
-8.4385319 -0.4086197 0.92668009
-8.418231 -0.32192284 0.90872246
-8.4201813 -0.30784529 0.90662313
-8.4999943 -0.22895283 0.90557814
-8.5391464 -0.23591399 0.91285938
-8.5634489 -0.24542707 0.91826534
-8.7378702 -0.28470016 0.95211351
-8.7770996 -0.28923196 0.95899218
-8.8183193 -0.30832022 0.9686653
-8.8157005 -0.31319934 0.96909058
-8.8566399 -0.5521667 1.016251
-8.884428 -0.57684636 1.024788
-8.9230928 -0.64503992 1.0424452
-8.9259014 -0.6638791 1.046098
-8.8930521 -0.81286955 1.0664167
-9.0683794 -1.0227112 1.1295201
-9.1572285 -1.0275586 1.1441748
-9.1958942 -1.0231292 1.1494362
-9.4038315 -0.81364793 1.1460406
-9.404932 -0.77963698 1.1404066
-9.4429264 -0.71674246 1.1355841
-9.4829369 -0.74369311 1.1464111
-9.4439602 -0.85387522 1.159152
-9.4475708 -0.97042286 1.1796075
-9.433485 -1.0549772 1.1918478
-9.427103 -1.0934695 1.197425
-9.3095522 -1.2047236 1.1981206
-9.378067 -1.5041796 1.2598972
-9.5010452 -1.5392041 1.2850143
-9.534359 -1.5417415 1.290632
-9.5771837 -1.540819 1.2971392
-9.5880051 -1.5401621 1.2987112
-9.6198082 -1.5394783 1.3035438
-9.7019835 -1.5459352 1.3174347
-9.7444153 -1.5571594 1.325954
-9.7966232 -1.5578604 1.3341987
-9.8525038 -1.5506773 1.3416692
-9.8756342 -1.5499185 1.3451393
-9.8918123 -1.5527799 1.3481455
-9.9540949 -1.5589821 1.358897
-9.9934826 -1.5586551 1.364971
-10.072102 -1.56286 1.377924
-10.078896 -1.5640982 1.3791926
-10.16095 -1.5677075 1.3925786
-10.272633 -1.5557711 1.407922
-10.427044 -1.4233397 1.409348
-10.523836 -1.2788578 1.39975
-10.527811 -1.1626673 1.3805361
-10.559912 -1.0641054 1.3687084
-10.565886 -0.95209754 1.3505195
-10.56156 -0.9170537 1.3438647
-10.569202 -0.87603134 1.338052
-10.570459 -0.83716172 1.3316131
-10.684934 -1.0359669 1.3833623
-10.680188 -1.1297946 1.3986392
-10.673899 -1.3241429 1.4308336
-10.638397 -1.4155939 1.4409181
-10.615613 -1.4352126 1.440721
-10.535526 -1.5524551 1.4482694
-10.491678 -1.5849591 1.4469936
-10.473786 -1.5888871 1.4448795
-5.3834162 -0.77862555 0.51437742
-5.1192994 -0.79366153 0.47584021
-5.0680842 -0.78674757 0.46668965
-5.0310602 -0.77678502 0.4592272
-5.0256538 -0.77804279 0.45860052
-4.8915038 -0.78037989 0.43812203
-4.8767295 -0.78055608 0.43585283
-4.7112579 -0.72417605 0.40047753
-4.6739721 -0.7524088 0.39949387
-4.5879307 -0.92072201 0.41483277
-4.3232069 -0.90666407 0.37123498
-4.24684 -0.77107561 0.33620679
-4.2074413 -0.77154559 0.33015555
-4.1680431 -0.77201563 0.32410431
-4.0498481 -0.77342564 0.30595064
-4.1143093 -1.0070314 0.35585657
-3.9834518 -1.1476059 0.3594861
-3.8417995 -1.471085 0.39265555
-3.9606829 -1.4892061 0.41425008
-4.0360789 -1.4912322 0.42632958
-4.2342939 -1.6281453 0.4805468
-4.3493648 -1.6199869 0.49706233
-4.4363108 -1.5000291 0.490118
-4.3134875 -1.1975788 0.4193784
-4.5460005 -1.0394546 0.42857361
-4.6447005 -1.0028247 0.43768167
-4.6705389 -0.98987937 0.43949324
-4.8760219 -0.94400376 0.46364146
-4.9577022 -0.93640351 0.47505584
-5.0707455 -0.91915488 0.48970428
-5.3882799 -0.91757894 0.53885221
-5.4924288 -0.99547672 0.56835687
-5.6125698 -1.0398066 0.5946207
-5.6543207 -1.0470495 0.60235459
-5.8505063 -0.9993242 0.62474012
-5.9001293 -0.95371318 0.6246776
-6.2071853 -0.94939303 0.67172635
-6.3347249 -1.1302216 0.72244048
-6.3327699 -1.1958153 0.73333234
-6.3722143 -1.5264208 0.79590178
-6.284163 -1.5745283 0.79040992
-6.2551365 -1.5706317 0.78522754
-6.0929599 -1.53474 0.75386214
-6.0108418 -1.5361607 0.7413249
-5.9743056 -1.5479019 0.73764294
-5.895606 -1.5489265 0.72557002
-5.8535376 -1.5280747 0.71546388
-5.6869211 -1.499939 0.68473136
-5.8054061 -1.4889976 0.70130324
-5.8443694 -1.5031661 0.70978546
-5.9261985 -1.5114629 0.72393638
-5.9654517 -1.5159137 0.73080504
-6.008244 -1.5124716 0.73687708
-6.0870409 -1.5116558 0.74900079
-6.1301475 -1.5011342 0.7539134
0.82480907 -0.53319299 -0.49368292
0.82873583 -0.56525147 -0.48882198
0.80112314 -0.47216606 -0.5004133
0.7795887 -0.42528656 -0.50506383
0.77731895 -0.40482569 -0.50820309
0.77849722 -0.3815808 -0.51235408
0.77752733 -0.34273127 -0.51883429
0.77604914 -0.34612012 -0.51802582
-0.032788277 -1.5281212 -0.1903941
-0.14819765 -1.5147427 -0.17471689
-0.21410942 -1.5119233 -0.16494042
-0.26650238 -1.5105836 -0.15701538
-0.30597734 -1.5075786 -0.15138495
-0.33542633 -1.5145168 -0.14561754
-0.4960928 -1.5189471 -0.11985731
-0.57194328 -1.5085406 -0.10982925
-0.68992949 -1.5164788 -0.090112448
-0.808218 -1.5122766 -0.072420776
-0.88697624 -1.5135221 -0.059951246
-1.0477633 -1.5130962 -0.035001159
-1.2084899 -1.5150983 -0.0096459985
-1.2595236 -1.1765215 -0.059495151
-1.1668134 -1.1128206 -0.084796488
-1.1445036 -1.0496097 -0.099057853
-1.1455588 -1.0032647 -0.10680419
-1.1444411 -0.92384028 -0.12053508
-1.1381412 -0.88024652 -0.1289565
-1.145174 -0.83831406 -0.13501936
-1.1468019 -0.82914692 -0.13633084
-1.1709676 -0.78840375 -0.1395244
-1.2189043 -0.78469151 -0.13269782
-1.257746 -0.78282595 -0.12697142
-1.3340364 -0.83493972 -0.10620326
-1.3857427 -0.93367606 -0.081303179
-1.5375679 -1.0849729 -0.031850338
-1.6192567 -1.1209964 -0.012988508
-1.6513772 -1.2604454 0.015812725
-1.6506279 -1.2664553 0.016721904
-1.8484883 -1.5114555 0.089333236
-1.8878975 -1.510864 0.095365435
-1.9026761 -1.5106424 0.09762755
-1.9601145 -1.5179425 0.10781255
-2.0388727 -1.5191879 0.12028205
-2.0812502 -1.5278201 0.12835053
-2.1696389 -1.5276 0.14206865
-2.087368 -1.5389833 0.13120806
-1.9395435 -1.6517432 0.12744948
-1.9196472 -1.6571724 0.12527978
-1.7659769 -1.6607485 0.10197493
-1.6476281 -1.6673784 0.084688306
-1.6081581 -1.6703978 0.079061091
-1.5297632 -1.6545844 0.064161539
-1.450763 -1.6630511 0.053312153
-1.3720651 -1.6593777 0.040437639
-1.3265381 -1.6488059 0.031547874
-1.2841003 -1.6426016 0.023884416
-1.2147307 -1.6496029 0.014283687
-1.1750789 -1.6599064 0.0098714828
-1.1357303 -1.6580697 0.0034342408
-1.0962605 -1.6610892 -0.0021929145
-1.0571537 -1.6495404 -0.010250211
-0.97851658 -1.6434388 -0.023529768
-0.86224651 -1.6359154 -0.042908669
-0.79820633 -1.6368763 -0.05271107
-0.77856207 -1.6347439 -0.056132257
-0.73927402 -1.6304793 -0.062974453
-0.71143246 -1.6313373 -0.067160845
-0.67012596 -1.6387982 -0.072315812
-0.62209606 -1.639519 -0.079667509
-0.57812357 -1.6454732 -0.085494459
-0.55872202 -1.6336287 -0.090535641
-0.32063913 -1.5463905 -0.14247841
-0.22313547 -1.5347381 -0.15964156
-0.15109301 -1.523962 -0.1726926
-5.4619956 -0.7850979 0.52771133
-5.5375433 -0.78245759 0.53901792
-5.5800457 -0.78873301 0.54670358
-5.7428432 -0.72333193 0.56087601
-5.7799702 -0.68830264 0.56067485
-6.0146589 -0.74294621 0.60652584
-6.0933833 -0.74455976 0.61905289
-6.1358132 -0.75326455 0.62714195
-6.2602172 -0.76540744 0.64857525
-6.2633939 -0.76966131 0.64979565
-6.300631 -0.89613628 0.67717868
-6.3014798 -0.9241302 0.68208909
-6.3776617 -1.1219205 0.72770572
-10.717354 1.3914201 0.97407919
-10.770207 1.3219936 0.99415493
-10.770839 1.159843 1.0219305
-10.599192 1.3904395 0.9558574
0.13426065 1.4243755 -0.72035056
0.17669249 1.4281616 -0.7276004
0.25631046 1.3954422 -0.73440617
0.37449408 1.3961394 -0.75291771
0.41403008 1.3907061 -0.75814325
0.32602787 1.3836269 -0.74323946
0.28969145 1.3861392 -0.73801321
0.16233492 1.3772089 -0.7166689
0.083444118 1.3807912 -0.70500273
0.043604851 1.398365 -0.70180231
0.0036096573 -1.5330614 -0.19521534
0.12481022 -1.5280013 -0.2149412
0.16434669 -1.5334346 -0.22016674
0.24311543 -1.5321605 -0.23264271
0.32773685 -1.5148761 -0.24876237
0.47948265 -1.5307665 -0.26966584
0.31886721 -1.5352495 -0.24390447
0.15529537 -1.5465238 -0.21652389
-4.5097399 1.4042349 0.0058192313
-4.5552511 1.4301686 0.0084753633
-4.5947185 1.4330671 0.014122874
-4.7055597 1.4091158 0.035460979
-4.8297968 1.3897431 0.058102369
-4.7116709 1.3907616 0.03954488
-4.5905585 1.4033861 0.018541694
-4.5444279 1.3994122 0.012040824
-2.9670019 -0.75776863 0.13475803
-2.9274654 -0.76309603 0.12951443
-2.638181 -0.92613786 0.1123234
-2.6050127 -0.90582693 0.10369468
-2.5519125 -0.92985946 0.099532962
-2.4233897 -1.0482901 0.099746108
-2.4461229 -1.0547901 0.10439351
-2.5645134 -1.1055298 0.13147897
-2.6081736 -1.1446511 0.14495128
-2.5543437 -1.5134398 0.19952214
-2.4481089 -1.5472525 0.18876058
-2.5271096 -1.5387857 0.19961002
-2.6101105 -1.5432287 0.21328557
-2.684505 -1.5461324 0.22535899
-2.8465002 -1.5404088 0.24959287
-3.0029199 -1.5798159 0.28066239
-3.0460286 -1.5873594 0.28865886
-3.1585619 -1.5299003 0.29636449
-3.3228183 -1.5269451 0.32142276
-3.4172645 -1.5816585 0.34546006
-3.4411831 -1.5851901 0.34978533
-3.459125 -1.5811592 0.35188952
-3.5226583 -1.5410581 0.35493219
-3.6084154 -1.4949019 0.36039996
-3.7081876 -1.4752848 0.37257874
-3.6440749 -1.1419002 0.30569598
-3.6252048 -0.81397456 0.24678594
-3.7610788 -0.76672268 0.25986624
-3.7976289 -0.74978966 0.26266411
-3.6398978 -0.75652701 0.23926687
-3.5248272 -0.76468539 0.22275135
-3.4818902 -0.77297896 0.2174848
-3.4065633 -0.76852405 0.2050015
-3.2097096 -0.76601678 0.1739378
-3.1103446 -0.76769996 0.1587612
-3.0848517 -0.76850194 0.15493068
-2.9964125 -0.76227343 0.14010403
-4.9116631 -1.5205666 0.5676012
-5.0234294 -1.5178105 0.58452463
-5.1086545 -1.5182166 0.59785724
-5.1809506 -1.5186083 0.60917538
-5.2990732 -1.519814 0.62776423
-5.4565945 -1.5206115 0.65241492
-5.2897606 -1.499764 0.62289262
-6.906281 -1.1431627 0.81359893
-6.8533325 -1.1516855 0.80681348
-6.8526053 -1.1552911 0.80731571
-6.7203021 -1.5191007 0.84882414
-6.7657642 -1.5369182 0.85894048
-6.873786 -1.6068625 0.88769031
-7.0380859 -1.5395267 0.90176642
-7.0387411 -1.5383503 0.90166748
-7.1312089 -1.1688366 0.85298604
-7.0098372 -1.1658064 0.83358008
-10.576949 -0.64323181 1.2995213
-10.600422 -0.41755143 1.2646532
-10.584395 -0.63813078 1.2998095
-10.576092 -0.68293798 1.3061652
-7.0988712 1.3954544 0.41025677
-6.9797349 1.4192877 0.38764787
-6.8622866 1.3853848 0.37515664
-6.9441595 1.3771539 0.38930321
-7.0230908 1.3829391 0.40059954
-7.1083226 1.3752644 0.41517389
-7.2329512 1.3680537 0.43580022
-7.4232817 1.3716884 0.46480048
-7.4592876 1.3564682 0.47300187
-7.4845657 1.3604574 0.47625488
-7.5084438 1.3615849 0.47977856
-7.5479794 1.3669066 0.48502293
-7.6513815 1.3734183 0.5000037
-7.7695446 1.3743992 0.51822555
-7.7236767 1.3850276 0.50927317
-5.5922337 1.3931618 0.17617455
-5.723526 1.4467301 0.18746367
-5.8504491 1.4093761 0.21359232
-5.9560399 1.3698595 0.23677015
-5.8775263 1.3786471 0.22305134
-5.7136416 1.3902519 0.19556564
-5.6773262 1.3806293 0.19155642
-5.6347799 1.3868957 0.18386552
-3.8777122 1.3822448 -0.088787913
-3.9989626 1.3744779 -0.06859231
-3.9076681 1.4005315 -0.087247312
-3.8202362 1.4121256 -0.10283303
-3.7884631 1.4219251 -0.10945046
-3.7477784 1.4345438 -0.11793596
-3.6360397 1.4269228 -0.13402474
-3.5935168 1.4332013 -0.1417141
-3.57021 1.422714 -0.14355123
-3.6390262 1.4153173 -0.13157898
-3.6818252 1.4187536 -0.12550485
-3.7571521 1.4142988 -0.11302155
-3.7995367 1.403163 -0.10452461
-4.817451 -1.4804788 0.54609668
-4.9024277 -1.4954641 0.56187916
-5.0140443 -1.50019 0.58005643
-5.0567584 -1.491693 0.58525354
-5.0961561 -1.4912231 0.59130472
-2.2420371 -1.5273943 0.15330064
-2.1995993 -1.5211899 0.14563718
-7.1383371 1.3983474 0.41590494
-7.2264404 1.374227 0.43373334
-8.0091496 1.3720975 0.55590743
-8.0518951 1.3705907 0.56281704
-8.0847244 1.3794439 0.56641501
-8.1174746 1.3858676 0.57041538
-8.0421352 1.3858094 0.55870056
-8.0061054 1.3836486 0.55346215
-7.9600029 1.3869891 0.54571706
-7.84832 1.3750529 0.53037357
-7.9303741 1.3714435 0.54375952
-9.9524174 1.3759227 0.85767961
-9.9328032 1.3781893 0.85424018
-9.8932571 1.3730037 0.84897101
-9.8309755 1.3792052 0.83821964
-9.712656 1.3733656 0.82080263
-9.6308365 1.384263 0.80620921
-9.509552 1.3924041 0.78594452
-9.5553408 1.3793461 0.79529941
-9.600893 1.359 0.80586147
-9.6402817 1.3593268 0.81193542
-9.9162312 1.3689032 0.85324609
-9.8767643 1.3661473 0.84757447
-9.8569927 1.3635552 0.84493983
-9.794632 1.367327 0.83459103
-9.3952971 1.406595 0.76574117
-9.3131638 1.4077749 0.75275755
-9.2799778 1.3944814 0.74986196
-9.1609936 1.361501 0.73697424
-9.2001448 1.3545396 0.74425548
-9.2433615 1.367609 0.74875039
-9.3205662 1.3922985 0.75655115
-9.3981838 1.3901851 0.76899129
-9.441165 1.3959663 0.77469373
-8.1638136 1.3898149 0.57695323
-8.2500906 1.4110949 0.586748
-8.2828407 1.4175186 0.59074843
-8.3164701 1.4246986 0.59475648
-8.36201 1.4303191 0.60088432
-8.4012394 1.4257874 0.60776305
-8.4860229 1.4009097 0.62520403
-8.5768337 1.3762422 0.643547
-8.6014509 1.3764465 0.64734328
-8.6755381 1.3843474 0.65752465
-8.7671165 1.3582315 0.67623436
-8.6851406 1.3642702 0.66244602
-8.6098804 1.3666413 0.65032876
-8.5635414 1.3626938 0.64379096
-8.481801 1.3760207 0.62879521
-8.4393692 1.3872447 0.62027591
-8.2926798 1.4047294 0.59446251
-8.2459469 1.3886352 0.58993673
-8.2131968 1.3822114 0.58593643
-8.845892 1.3588853 0.68838233
-8.9641333 1.3622954 0.70620191
-9.0033627 1.3577635 0.71308064
-9.04603 1.3538275 0.7203927
-8.8723974 1.3835526 0.68829697
-8.993762 1.377841 0.70815945
-9.4707928 1.4115119 0.77665114
-5.0297055 1.3780587 0.091207981
-5.0503497 1.3737648 0.09515366
-4.9903765 1.3800173 0.084752977
-7.5480766 1.3878605 0.4814615
-7.5352383 1.3889687 0.47927439
-7.4991322 1.3866327 0.47405398
-7.4478846 1.3803101 0.46715772
0 0 0 1 0 0 0 1 0 0 0 1 0 0 0 0 0 460 1 0 0
