ply
format ascii 1.0
comment PCL generated
element vertex 332
property float x
property float y
property float z
element camera 1
property float view_px
property float view_py
property float view_pz
property float x_axisx
property float x_axisy
property float x_axisz
property float y_axisx
property float y_axisy
property float y_axisz
property float z_axisx
property float z_axisy
property float z_axisz
property float focal
property float scalex
property float scaley
property float centerx
property float centery
property int viewportx
property int viewporty
property float k1
property float k2
end_header
-1.2478535 -0.8413955 -5.4359775
-1.2442075 -0.7461459 -5.4297776
-1.2436492 -0.70615405 -5.429719
-1.2425332 -0.62617034 -5.4296031
-1.2417171 -0.58614856 -5.4288712
-1.216433 -0.42724675 -5.3682919
-1.21645 -0.36722654 -5.37044
-1.2271711 -0.24706802 -5.4027014
-1.2139556 -0.12724976 -5.3723269
-1.211723 0.032717735 -5.3720932
-1.2088978 0.11265033 -5.3675041
-1.2132038 0.23280486 -5.3829813
-1.2545222 0.47443101 -5.4995513
-1.2539642 0.51442289 -5.4994936
-1.2029047 0.55316675 -5.3672667
-1.1540586 0.51229811 -5.23804
-1.1371338 0.51201725 -5.1937504
-1.1075176 0.47153601 -5.1148477
-1.0603648 0.43109402 -4.9900661
-1.0459648 0.39084247 -4.9509807
-1.0328537 0.3504416 -4.9152622
-1.0197427 0.31004074 -4.8795443
-1.0105885 0.19131997 -4.8514328
-0.99726236 0.1110169 -4.8137531
-0.99807835 0.070995122 -4.8144846
-0.99863636 0.031003296 -4.8145428
-0.99867892 -0.0089288652 -4.8132544
-1.0156305 -0.13017662 -4.8533535
-1.0153342 -0.17019404 -4.8511758
-1.0167298 -0.27018058 -4.8513217
-1.0146551 -0.30524331 -4.8446646
-1.015004 -0.33024505 -4.8447013
-1.0157987 -0.35030073 -4.846077
-1.0160778 -0.37028989 -4.8461065
-1.0166572 -0.43025458 -4.8455205
-1.0079368 -0.50859606 -4.8199596
-1.0080066 -0.51359499 -4.8199668
-1.0204368 -0.59040141 -4.8497949
-1.0236293 -0.65315759 -4.8559475
-1.0261402 -0.71059477 -4.8605032
-1.0408065 -0.83033204 -4.8946762
-1.0602328 -0.91044462 -4.9426918
-1.0721396 -0.94975853 -4.9724655
-1.087914 -0.98952067 -5.0123415
-1.1023991 -1.0291334 -5.0488501
-1.1179155 -1.0688657 -5.0880518
-1.1503226 -1.2283438 -5.1672468
-1.1653234 -1.2680162 -5.205102
-1.1957146 -1.3199565 -5.2827926
-1.2268734 -1.4268856 -5.3605633
-1.2421728 -1.4141883 -5.4010363
-1.2394263 -1.3464928 -5.3962231
-1.2390835 -1.2665987 -5.3981276
-1.2389559 -1.1468023 -5.4019928
-1.2395908 -1.1066996 -5.4050598
-1.2371843 -1.0567608 -5.4005146
-1.2372814 -1.0268267 -5.4018183
-1.2464399 -0.90611339 -5.4300108
-1.2484117 -0.88138735 -5.4360361
1.729557 -1.5119165 2.3772111
1.7236884 -1.5299919 2.3624907
1.711542 -1.5294315 2.3306932
1.6937028 -1.534449 2.2841969
1.6842176 -1.5261271 2.2590895
1.631359 -1.5276136 2.1208496
1.6211443 -1.5378566 2.0944843
1.5954587 -1.5268956 2.0269001
1.5495634 -1.5261879 1.9068012
1.5172075 -1.5358809 1.8224893
1.4907551 -1.5249989 1.7529016
1.4752864 -1.5247805 1.7124236
1.4598174 -1.5245622 1.6719451
1.4270205 -1.5293087 1.5863063
1.3860514 -1.5231022 1.4789028
1.3682122 -1.5281196 1.4324067
1.3504081 -1.5306376 1.3859148
1.309474 -1.5219315 1.2785153
1.2886971 -1.5213529 1.2241373
1.257504 -1.5209423 1.1425133
1.2402461 -1.5209081 1.0973611
1.1946064 -1.5201743 0.97793007
1.1494777 -1.5193877 0.85983396
1.1220831 -1.5210822 0.78822184
1.0906694 -1.5181986 0.70593429
1.0714531 -1.5190514 0.65568948
1.0494442 -1.5164446 0.59801698
1.0431063 -1.5158522 0.5814147
1.0180407 -1.5266051 0.51621342
0.99889457 -1.522459 0.46597683
0.98521483 -1.5220565 0.4301728
0.96321607 -1.5324938 0.37298429
0.93169701 -1.5371089 0.29068398
0.91805232 -1.5342069 0.25488424
0.90024817 -1.5367248 0.20839238
0.85927916 -1.5305183 0.10098886
0.8319546 -1.5272137 0.02938509
0.82381141 -1.525556 0.0080221891
0.79229236 -1.5301709 -0.074278116
0.75537729 -1.5260431 -0.17100239
0.74719894 -1.5268849 -0.19236946
0.7335192 -1.5264825 -0.22817349
0.69656897 -1.5248539 -0.32490206
0.65144038 -1.5240675 -0.44299769
0.62411588 -1.520763 -0.51460153
0.59809828 -1.5266222 -0.58246493
0.592632 -1.5228785 -0.59689748
0.57021797 -1.5083995 -0.65604591
0.56481397 -1.5075977 -0.67021221
0.55934948 -1.5077076 -0.68450499
0.55052555 -1.5068053 -0.70762229
0.52028435 -1.5112888 -0.78658402
0.50156337 -1.5064133 -0.83573389
0.48842245 -1.5069737 -0.87009442
0.47103149 -1.5134226 -0.91536754
0.44275504 -1.5052243 -0.98963356
0.43559897 -1.5059608 -1.0083299
0.42942831 -1.5052381 -1.0244993
0.42013013 -1.5057424 -1.0488081
0.41105068 -1.5048665 -1.072593
0.40043777 -1.5041484 -1.1003842
0.38973778 -1.5069379 -1.1282805
0.36705938 -1.5139465 -1.1873674
0.34527153 -1.5093868 -1.24453
0.33641946 -1.5045924 -1.2678573
0.33100313 -1.5007757 -1.2821617
0.31174695 -1.495999 -1.3327084
0.3068651 -1.4965408 -1.3454616
0.29142809 -1.4938359 -1.3859437
0.27157578 -1.4951706 -1.4378356
0.25345629 -1.4947785 -1.4852546
0.24209538 -1.4941171 -1.5150009
0.23157215 -1.4945641 -1.5425168
0.22628275 -1.4938294 -1.5563811
0.21192229 -1.493621 -1.5939591
0.19557467 -1.5009997 -1.6364701
0.17779025 -1.5010509 -1.682997
0.16011068 -1.4936039 -1.7295123
0.15054837 -1.4927428 -1.75456
0.12868783 -1.4907508 -1.8118228
0.12149245 -1.4918824 -1.8306081
0.073819607 -1.5016288 -1.9549911
0.051740155 -1.4909728 -2.0131302
0.040630534 -1.4906439 -2.0422072
0.0012018979 -1.5100585 -2.1446824
-0.016687423 -1.5176084 -2.1912208
-0.034541696 -1.5226588 -2.2377553
-0.048215091 -1.5222539 -2.2735426
-0.061853528 -1.5193495 -2.3093262
-0.093031704 -1.4989998 -2.3916097
-0.12041336 -1.5006896 -2.4631882
-0.15176636 -1.4928375 -2.545491
-0.21499652 -1.5146259 -2.7101538
-0.26005772 -1.5088685 -2.8282475
-0.30132255 -1.5251503 -2.9356363
-0.31843516 -1.5285218 -2.9802892
-0.33297583 -1.5293709 -3.0183015
-0.35515347 -1.5262588 -3.0764332
-0.36082849 -1.525473 -3.0913081
-0.37611291 -1.5238388 -3.1313534
-0.40507755 -1.5242902 -3.2071166
-0.42307761 -1.5257795 -3.2541573
-0.43812612 -1.5261004 -3.2935166
-0.45183447 -1.528195 -3.329308
-0.46831366 -1.5325193 -3.3722703
-0.48339716 -1.53534 -3.411634
-0.49721232 -1.5398449 -3.4476199
-0.52842343 -1.527083 -3.5297239
-0.53382111 -1.5275857 -3.543828
-0.54878402 -1.5253334 -3.5830536
-0.55451643 -1.5253859 -3.5980492
-0.56112456 -1.5242683 -3.6153772
-0.5926578 -1.5289272 -3.6977129
-0.61982179 -1.5156116 -3.7692478
-0.63081634 -1.5183847 -3.7979152
-0.6514945 -1.5302687 -3.8515983
-0.6830976 -1.5399268 -3.9339416
-0.69662726 -1.5295197 -3.9697034
-0.7281605 -1.5341787 -4.0520391
-0.7417599 -1.5287708 -4.0878086
-0.78689265 -1.5280218 -4.2059135
-0.84100044 -1.4764107 -4.3492832
-0.85380125 -1.4341013 -4.3842564
-0.85238874 -1.394135 -4.3819618
-0.84558833 -1.2743129 -4.368371
-0.85130656 -1.1941247 -4.3861423
-0.84989417 -1.1541582 -4.3838482
-0.85048652 -1.0741234 -4.3882036
-0.84907401 -1.034157 -4.3859091
-0.84937012 -0.99413967 -4.3880868
-0.83749652 -0.93948317 -4.3589382
-0.83373046 -0.91459048 -4.3499579
-0.81169868 -0.79462254 -4.2965221
-0.80916989 -0.67467248 -4.2941113
-0.80749547 -0.55469686 -4.2939367
-0.80210757 -0.47484094 -4.2826395
-0.81096411 -0.37454766 -4.3093262
-0.81098115 -0.3145411 -4.3114748
-0.81196988 -0.27472851 -4.3154569
-0.81047428 -0.0945023 -4.3178616
-0.80211174 0.025874674 -4.3002033
-0.81225133 0.14560232 -4.3309283
-0.80112553 0.22562489 -4.3046255
-0.80306065 0.34518215 -4.313879
-0.80206776 0.38534907 -4.3126898
-0.79988194 0.42540494 -4.3083754
-0.79838848 0.46525607 -4.3058653
-0.79229271 0.54569221 -4.292737
-0.79772496 0.63527262 -4.3100891
-0.79548228 0.74583066 -4.3080969
-0.79492402 0.78582239 -4.3080387
-0.79878724 0.8653537 -4.3209338
-0.80367887 0.98793185 -4.3380284
-0.79105127 1.1857923 -4.3119273
-0.78300428 1.2658318 -4.2936802
-0.78296173 1.3057641 -4.2949686
-0.78291917 1.3456961 -4.2962575
-0.75586593 1.3797814 -4.2266741
-0.72443736 1.3769419 -4.1443491
-0.67578268 1.3835891 -4.0172892
-0.65193152 1.3778743 -3.9546876
-0.62053776 1.3725353 -3.8723662
-0.58907425 1.3721955 -3.7900374
-0.57513654 1.3817995 -3.7539096
-0.51578808 1.3848944 -3.5987468
-0.50041425 1.3844627 -3.5585101
-0.48239592 1.373538 -3.5109861
-0.4691138 1.3717371 -3.4761734
-0.43733463 1.3677807 -3.3928924
-0.39510331 1.3563664 -3.2820039
-0.37253562 1.3559688 -3.2229471
-0.34710726 1.3637642 -3.156693
-0.3382518 1.3648788 -3.133564
-0.3157194 1.3584116 -3.0743866
-0.28443632 1.3455606 -2.9920914
-0.25680998 1.3647468 -2.9204862
-0.19786566 1.3735815 -2.7665823
-0.16658258 1.3607303 -2.6842871
-0.15283933 1.3653246 -2.6484923
-0.12145147 1.359972 -2.5661855
-0.10774308 1.3620665 -2.5303946
-0.09009847 1.3521198 -2.4838829
-0.06275174 1.35131 -2.4123082
-0.04918316 1.3434066 -2.3765321
-0.004017055 1.3451477 -2.2584269
0.054892272 1.3514829 -2.1045268
0.10005844 1.3532239 -1.9864213
0.11770305 1.3432772 -1.9399098
0.14895114 1.3279265 -1.8576185
0.17643772 1.3371148 -1.7860285
0.2040291 1.3538016 -1.7144272
0.26683983 1.3455961 -1.5498103
0.29815781 1.3352443 -1.4675114
0.33942258 1.3515264 -1.3601227
0.37088037 1.3511728 -1.2778085
0.41200534 1.3574566 -1.1704352
0.42108345 1.3551248 -1.1466027
0.46624714 1.3568379 -1.0285027
0.48401615 1.3568562 -0.98201507
0.51144606 1.3610504 -0.91039836
0.55542839 1.3533369 -0.79505855
0.58795309 1.3548807 -0.71001965
0.60565174 1.3499 -0.66354066
0.63311684 1.3565936 -0.5919196
0.65252548 1.3515627 -0.54096508
0.67817509 1.350808 -0.47383261
0.67970854 1.3509657 -0.46982616
0.70556986 1.3525026 -0.40222013
0.72568285 1.3504927 -0.34952879
0.75478756 1.3521369 -0.27344096
0.78218234 1.3538315 -0.20182848
0.81356084 1.3484483 -0.11954534
0.82727575 1.3505453 -0.083737135
0.8724395 1.3522583 0.034362912
0.93124783 1.3510692 0.18826258
0.98039532 1.3457044 0.31703329
0.99005628 1.3498802 0.34216249
1.0247571 1.3448391 0.43312573
1.0488998 1.3511907 0.49606645
1.0667038 1.3537086 0.54255843
1.0845079 1.3562264 0.58905053
1.0940634 1.3529037 0.6141665
1.1215637 1.3620968 0.68579197
1.1707112 1.356732 0.81456256
1.2009267 1.3412455 0.89415717
1.2457998 1.3404326 1.0115855
1.2970452 1.3632511 1.1448572
1.310735 1.3653722 1.180599
1.3421837 1.3626322 1.2629731
1.4049796 1.3496536 1.4277182
1.4187372 1.3567739 1.4634621
1.4638757 1.3561549 1.581578
1.4776335 1.3632753 1.6173222
1.4913231 1.3653964 1.6530638
1.5541189 1.3524179 1.8178086
1.5679104 1.3620375 1.853554
1.613117 1.3664178 1.9716723
1.6444299 1.3536797 2.0540419
1.6719452 1.3679202 2.1255298
1.6896363 1.3580599 2.1721599
1.7307056 1.3644235 2.2793849
1.7781457 1.341632 2.4042995
1.779574 1.3318274 2.4083803
1.7814914 1.2621968 2.4158373
1.7822301 1.182439 2.4205658
1.7760448 1.1425247 2.4057829
1.7813399 0.98270619 2.4252384
1.7807968 0.94271457 2.4252195
1.7801889 0.78294134 2.4292302
1.851849 0.57977808 2.6238337
1.8512597 0.57471466 2.6224694
1.8531719 0.22023347 2.6398988
1.8611174 0.17961189 2.6621099
1.8539 0.15583381 2.6440611
1.7625288 -0.096678138 2.413862
1.7597485 -0.13785112 2.4080315
1.7587358 -0.20285372 2.4076605
1.7593143 -0.21775387 2.4096963
1.7620255 -0.32800505 2.4206548
1.7620531 -0.32902056 2.4207625
1.7599298 -0.36815545 2.416579
1.7586007 -0.40822697 2.4145067
1.7517325 -0.52930373 2.4007821
1.7509845 -0.56874961 2.400208
1.7508823 -0.64862955 2.4027407
1.7538651 -0.72887087 2.4133575
1.7462816 -0.84877658 2.3977203
1.7309151 -0.96835184 2.3617094
1.7439303 -1.0886267 2.3999767
1.7430069 -1.1361443 2.3992269
1.7430613 -1.1685857 2.400506
1.741681 -1.2485971 2.3996997
1.7337581 -1.449086 2.3859997
0 0 0 1 0 0 0 1 0 0 0 1 0 0 0 0 0 332 1 0 0
