ply
format ascii 1.0
comment PCL generated
element vertex 368
property float x
property float y
property float z
element camera 1
property float view_px
property float view_py
property float view_pz
property float x_axisx
property float x_axisy
property float x_axisz
property float y_axisx
property float y_axisy
property float y_axisz
property float z_axisx
property float z_axisy
property float z_axisz
property float focal
property float scalex
property float scaley
property float centerx
property float centery
property int viewportx
property int viewporty
property float k1
property float k2
end_header
-5.6653953 1.4433166 3.2574663
-5.7761793 1.4462425 3.3171315
-5.8078403 1.4404188 3.3350465
-5.8502207 1.4201795 3.3606408
-6.0083723 1.3885952 3.4504533
-6.0406427 1.3926419 3.4674189
-6.133131 1.3823069 3.5188873
-6.0830231 1.3724025 3.4930129
-6.0192447 1.3766469 3.457895
-5.9407301 1.3777677 3.4151952
-5.9086127 1.3761886 3.3979924
-5.8615789 1.400997 3.3692837
-5.8388147 1.4148208 3.3551536
-5.7723155 1.4311706 3.3169913
0.61306381 -1.5362849 0.24088001
0.68105173 -1.5457783 0.20526171
0.67730761 -1.5376189 0.20623326
0.62176704 -1.277045 0.20255208
0.61214876 -1.2010007 0.19790578
0.60551262 -1.0813977 0.18599582
0.55085897 -1.0527452 0.2119031
0.41305542 -1.0823277 0.29042745
0.36684704 -1.0872564 0.31611109
0.33451986 -1.0828904 0.33306623
0.28790092 -1.0804211 0.35801339
0.25584745 -1.080987 0.37545967
0.22781181 -1.0946447 0.39242554
0.19657946 -1.1100069 0.41134501
0.19515514 -1.1566243 0.41816092
0.13244247 -1.5016716 0.49688721
-0.015902042 -1.5284562 0.58076215
0.1589303 -1.5286615 0.48603034
0.22079849 -1.5464965 0.45481038
0.26714325 -1.5440338 0.42937231
0.33458328 -1.543663 0.39277196
0.38133907 -1.5485985 0.3680706
0.42782068 -1.5486017 0.34287786
0.50635624 -1.5480391 0.30023909
-4.8633566 -1.5424407 3.2098751
-4.8020167 -1.5411041 3.176456
-4.7556262 -1.5385888 3.1509864
-4.8347979 -1.5339499 3.1932955
-4.8841906 -1.5316377 3.2197664
-4.931035 -1.5312483 3.2451055
-5.1025252 -1.5346253 3.3384902
-4.9446878 -1.5408734 3.2537532
-4.9269395 -1.5443971 3.2445905
0.64597893 1.3622621 -0.15276289
0.68844318 1.3753504 -0.17747545
0.65986013 1.3715571 -0.16149163
0.53055143 1.3890213 -0.093671083
0.50210524 1.3827621 -0.077441931
0.45923042 1.3770717 -0.05346632
0.48836088 1.3710009 -0.068467855
0.50612259 1.3696705 -0.077922106
0.5526042 1.3696672 -0.1031146
-1.5026886 -0.7815187 1.2897519
-1.5347281 -0.7820996 1.3071924
-1.5989435 -0.78079522 1.3418279
-1.6314871 -0.7758882 1.3588302
-1.8451505 -0.5600161 1.4466465
-1.8934219 -0.5605526 1.4728789
-2.1297836 -0.56501329 1.6015644
-2.1569514 -0.63684285 1.625602
-2.1955197 -0.68206489 1.652369
-2.5230067 -0.63583916 1.8238723
-2.5303364 -0.61047405 1.8245562
-2.5412936 -0.59543717 1.8285456
-2.648437 -0.35765618 1.855788
-2.6952319 -0.33111721 1.8777099
-2.7029822 -0.3301416 1.8817838
-2.717329 -0.32992256 1.8895314
-2.7660685 -0.34664822 1.9181166
-2.8124366 -0.34932876 1.9435954
-2.8217299 -0.36116022 1.9501662
-2.8146396 -0.44899723 1.9577117
-2.8228989 -0.57194465 1.9781287
-2.8462868 -0.64289558 2.0000036
-2.8455696 -0.65523195 2.0012145
-2.8512621 -0.81067115 2.0244527
-3.0784998 -0.95295459 2.1660621
-3.1102109 -0.95861864 2.1839836
-3.203136 -0.96118212 2.2346809
-3.2207403 -0.96012568 2.2440856
-3.2828112 -0.96352035 2.2781677
-3.28861 -0.9638347 2.2813516
-3.3274851 -0.97434419 2.3037844
-3.2334211 -1.1292508 2.2728858
-3.2248125 -1.1395543 2.269556
-3.2642369 -1.5114772 2.3391447
-3.1682439 -1.5092888 2.286833
-3.0904288 -1.4961748 2.2429571
-3.0444679 -1.4862577 2.2167609
-2.9795678 -1.4921215 2.1823454
-2.9315443 -1.4997416 2.157305
-2.8685098 -1.5079641 2.1242065
-2.7565465 -1.5311296 2.0665264
-2.6784446 -1.5229502 2.0231352
-2.6311936 -1.5352383 1.9991184
-2.5677714 -1.5239103 1.9632752
-2.5213807 -1.521395 1.9378054
-2.5092525 -1.5226212 1.931391
-2.450413 -1.5282671 1.9002323
-2.3895929 -1.5263951 1.8670254
-2.261024 -1.5314701 1.7979994
-2.2287099 -1.5358216 1.7810495
-2.1680272 -1.5314832 1.7475973
-2.1215289 -1.5314898 1.7223963
-2.0894899 -1.5309089 1.7049559
-2.0573132 -1.5327942 1.6877607
-2.1261613 -1.5061173 1.7216175
-2.203511 -1.1535654 1.7178315
-2.3297348 -1.5072595 1.8321015
-2.375546 -1.5195839 1.8585289
-2.4643817 -1.5043823 1.9047065
-2.5438313 -1.1646792 1.9037247
-2.498848 -1.1195732 1.8734957
-8.3417168 -1.5396645 5.0947714
-8.3275051 -1.5329225 5.086195
-8.2633419 -1.5361443 5.051837
-8.1243095 -1.5232182 4.9748058
-8.2454739 -1.5444973 5.0432348
-0.74624586 -0.77940917 0.87948954
-0.78228426 -0.76439363 0.89707553
-0.79663444 -0.76629245 0.90509939
-0.85736275 -0.77064633 0.93857837
-0.93604159 -0.76872534 0.98097301
-1.0467482 -0.76736045 1.0407984
-1.1215527 -0.77854514 1.0827924
-0.9655385 -1.0837631 1.0378056
-0.95932031 -1.0818534 1.0341876
-0.91994905 -1.0458419 1.0081797
-0.81671309 -0.92544812 0.93661678
-0.76851368 -0.89910889 0.90707803
-0.71720481 -0.88495046 0.87743318
-0.69229841 -0.85664183 0.86026382
-0.69932961 -0.80215114 0.85700989
-1.439322 -0.77255166 1.2542449
-1.4108953 -0.7638219 1.2377059
-1.3323531 -0.76327688 1.1950657
-1.264287 -0.77773637 1.1600488
-1.3569055 -0.78511232 1.2112041
-1.4992812 -1.0023918 1.3165418
-1.5013988 -1.0130743 1.3190746
-1.3956416 -1.2424343 1.2914916
-1.1739349 -1.2257624 1.1691661
-1.1775556 -1.2419224 1.1732236
-0.98372841 -1.5290065 1.1053911
-0.90518641 -1.5284615 1.0627511
-0.76272583 -1.5243382 0.98500359
-0.69142723 -1.5235096 0.94625258
-0.63794303 -1.5188723 0.91666305
-0.60577846 -1.5207822 0.8994776
-0.57361388 -1.5226922 0.88229227
-0.50311303 -1.5216696 0.84394836
-0.54865122 -1.5082548 0.86689067
-0.60951614 -1.5101426 0.90012395
-0.67384481 -1.5063227 0.93449461
-0.7344358 -1.5131426 0.96821892
-0.76660037 -1.5112326 0.98540425
-0.80881619 -1.5087259 1.0079601
-0.89525795 -1.503593 1.0541457
-7.1078763 1.3778399 4.0477743
-7.0439563 1.4058956 4.0094924
-7.0841055 1.405068 4.0313606
-7.2366719 1.4041635 4.1141682
-7.245594 1.404291 4.1189871
-7.2828956 1.3839239 4.1418452
-7.3001418 1.3780648 4.1519523
-7.3257327 1.3710872 4.1667271
-7.3420548 1.3686632 4.1758881
-7.378315 1.3652393 4.1959844
-7.3636484 1.3645791 4.1881208
-7.3430643 1.3628339 4.1771908
-7.3114276 1.3686062 4.1592951
-7.2613454 1.3654617 4.1325588
-7.218092 1.3664516 4.1089873
-7.1895275 1.3774282 4.092082
-7.1255627 1.3812302 4.0569205
-8.013073 -0.77347469 4.8173099
-7.9194269 -0.78048444 4.7674632
-7.8697801 -0.7855134 4.7412066
-7.7590218 -0.78853893 4.6815681
-7.7304454 -0.77752227 4.6646519
-7.634202 -0.78235489 4.6131148
-7.6019697 -0.78643328 4.5961738
-7.5240393 -0.79058254 4.5544739
-7.4768476 -0.7851842 4.5281963
-7.4305544 -0.78005302 4.5024405
-7.3695946 -0.77558213 4.4688206
-7.2769723 -0.78400582 4.4197121
-7.2482591 -0.77533579 4.4030252
-7.2339025 -0.7710008 4.3946819
-7.2108083 -0.77185607 4.3822761
-7.1990681 -0.77222669 4.3759608
-7.1787224 -0.7734865 4.365097
-7.1341681 -0.76995623 4.3404913
-7.0707035 -0.77665132 4.3069615
-6.9982896 -0.76844388 4.2666492
-6.9661989 -0.77018517 4.2494822
-6.9341087 -0.77192652 4.2323151
-6.8672304 -0.77252996 4.196146
-6.6886029 -0.78958052 4.101541
-6.6454401 -0.78513193 4.07757
-6.6423407 -0.78459072 4.07582
-6.4422922 -0.7727229 3.9658561
-6.345767 -0.78035915 3.9145298
-6.2709465 -0.7668786 3.8722296
-6.1745653 -0.77204746 3.8206615
-6.1598535 -0.77520418 3.813097
-6.0634723 -0.78037304 3.761529
-6.0530648 -0.77837962 3.7556298
-6.0316334 -0.77716136 3.743856
-5.963376 -0.77567279 3.7066677
-5.8919821 -0.77699608 3.6681442
-5.8454318 -0.776941 3.6429069
-5.8130164 -0.78359866 3.6262012
-5.7778974 -0.78566599 3.6074347
-5.7139311 -0.78417718 3.5725725
-5.7023559 -0.78452218 3.5663433
-5.6675253 -0.78165478 3.5470934
-5.6529574 -0.7823441 3.5392873
-5.6353979 -0.78337777 3.5299041
-5.5711441 -0.78682369 3.4955254
-5.5567207 -0.78504562 3.4874775
-5.4990273 -0.77793348 3.4552858
-5.4814672 -0.77896714 3.4459026
-5.4639082 -0.78000075 3.4365194
-5.4203496 -0.77960134 3.412859
-5.3849421 -0.78660339 3.3945761
-5.3528152 -0.78832632 3.3773868
-5.3203993 -0.79498404 3.3606811
-5.3024077 -0.80341977 3.3520231
-5.2999568 -0.84536481 3.356133
-5.2969246 -0.91439688 3.3634398
-5.3333192 -1.0280474 3.3979006
-5.3335428 -1.0330466 3.3986702
-5.3332443 -1.0724165 3.4036126
-5.3289299 -1.1120019 3.4064064
-5.3583765 -1.2334958 3.4381185
-5.3716879 -1.2733887 3.4505053
-5.2277532 -1.5330126 3.4061542
-5.2895918 -1.5200415 3.4379888
-5.3852525 -1.5272094 3.4907658
-5.3996758 -1.5289874 3.4988139
-5.4457936 -1.5364445 3.5247762
-5.4634976 -1.5329435 3.5339179
-5.5603113 -1.5203726 3.5847604
-5.5891581 -1.5239286 3.6008563
-5.6348438 -1.5387878 3.6275444
-5.7136655 -1.5346527 3.6697292
-5.7927752 -1.5255827 3.7114305
-5.856741 -1.5270715 3.7462926
-5.9207067 -1.5285602 3.7811551
-5.9815369 -1.5328608 3.814682
-6.0135198 -1.5336051 3.8321133
-6.1050301 -1.5090203 3.8785241
-6.1474209 -1.5117583 3.9018545
-6.1677237 -1.5156806 3.9133673
-6.2141304 -1.518203 3.9388461
-6.3282299 -1.5269334 4.0018196
-6.4098501 -1.5232544 4.0455809
-6.4741774 -1.517305 4.0796742
-6.6022758 -1.6070571 4.1607399
-6.7653275 -1.5611062 4.2431555
-6.7919822 -1.5670114 4.2583675
-6.8506069 -1.5855911 4.292551
-6.9370356 -1.524914 4.3315282
-6.9427881 -1.5223644 4.3343153
-7.2055292 -1.5081072 4.4748716
-7.2894039 -1.5177189 4.5215774
-7.401967 -1.5001559 4.5803089
-7.4447651 -1.5028427 4.6038537
-7.4865952 -1.5155777 4.6281767
-7.5998511 -1.5370252 4.6923418
-7.7425394 -1.5348563 4.7693968
-7.7714181 -1.540938 4.7858377
-7.788682 -1.542455 4.7953911
-7.8031969 -1.5442622 4.8034925
-7.8678122 -1.533638 4.8371363
-7.949995 -1.5195957 4.879858
-8.0424309 -1.5323255 4.9316082
-8.0602989 -1.5239725 4.9402103
-8.013855 -1.5213089 4.9146919
-7.9272509 -1.1898296 4.8247762
-7.9464531 -1.1151457 4.8255005
-7.9496002 -1.0353354 4.8168588
-8.0036716 -0.8823328 4.8263283
-8.0311413 -0.83663791 4.8352919
-8.0504389 -0.79381323 4.840199
-1.7897987 -1.5280242 1.5421505
-1.6932688 -1.53368 1.4905651
-1.6159399 -1.5202612 1.4469134
-1.5659616 -1.5259798 1.4205668
-1.5339339 -1.5254238 1.4031358
-1.5044293 -1.527018 1.387351
-1.4692931 -1.5260642 1.3681839
-1.3913369 -1.5237668 1.3256339
-1.3009932 -1.5234098 1.2766218
-1.2688167 -1.525295 1.2594267
-1.1874642 -1.5276196 1.2156353
-1.1304736 -1.5126261 1.1828028
-1.0480571 -1.5251868 1.1397619
-0.20945454 -1.509658 0.68322921
-0.25940609 -1.5175295 0.7113235
-0.29493713 -1.5153604 0.73029995
-0.39170361 -1.5046986 0.78136468
-0.43434405 -1.5177933 0.80617332
-0.17712736 -1.514024 0.66627431
-0.13757896 -1.5192022 0.64551067
-0.12309217 -1.5197694 0.63773227
-0.16627932 -1.523 0.66155839
-0.19484282 -1.5292637 0.67785192
-0.27352238 -1.5273428 0.72024679
-0.28050184 -1.5265396 0.72392559
-0.3377142 -1.5259891 0.75486302
-0.44855762 -1.5221581 0.81444287
-6.6504612 1.3704153 3.8008199
-6.6149364 1.3611671 3.7827644
-6.5364218 1.3622876 3.7400646
-6.4935846 1.3751246 3.7151828
-6.6039124 1.3706478 3.7755604
-1.8230028 -1.5156326 1.5585405
-1.7942936 -1.5051179 1.5416169
-1.6959391 -1.2340844 1.4531691
-1.8638778 -1.090788 1.5256125
-1.8824198 -1.074693 1.5335753
-2.1173451 -1.0887469 1.662726
-2.2092056 -1.037179 1.7058281
-2.5259295 -0.92133379 1.8624716
-2.5332148 -0.76772702 1.8465047
-2.1875765 -0.75989741 1.658155
-2.1759293 -0.79279339 1.6561074
-2.1583917 -0.91148913 1.6619912
-2.1852608 -0.99925143 1.6879327
-7.8656178 1.3990451 4.4557176
-7.8174372 1.3994359 4.429553
-7.8084388 1.4011129 4.4244585
-7.7457218 1.3811518 4.3930545
-7.6927862 1.3730971 4.3654079
-7.6605511 1.3689986 4.3484678
-7.5883675 1.3783227 4.308136
-7.5681133 1.3816496 4.2967267
-7.5565886 1.3816465 4.2904806
-7.5243564 1.3775684 4.27354
-7.4921241 1.37349 4.2565989
-7.4541283 1.3708733 4.2363443
-7.4279618 1.370268 4.2222409
-7.3957295 1.3661896 4.2052999
-6.8408098 -1.2080609 4.2382936
-7.1641607 -1.1456997 4.4054632
-7.082262 -0.87777686 4.3263373
-7.0368357 -0.8579163 4.2991419
-6.7639298 -0.96596211 4.165236
-3.3461237 -1.5069454 2.3829393
-3.3887298 -1.522172 2.4080057
-3.3600869 -1.516133 2.3916984
-7.4100933 1.3619152 4.2136393
-7.4359503 1.3575858 4.2282152
-7.4681864 1.3616837 4.2451553
-7.5001221 1.3608466 4.2625728
-7.5674477 1.3647445 4.2985578
-7.6134386 1.3546785 4.32479
-7.6279535 1.3528713 4.332891
-7.7244225 1.3673245 4.3833032
-7.8025718 1.3541836 4.4273634
-7.8340483 1.3459247 4.4454942
-7.9501257 1.3911871 4.5025392
0 0 0 1 0 0 0 1 0 0 0 1 0 0 0 0 0 368 1 0 0
