ply
format ascii 1.0
comment PCL generated
element vertex 541
property float x
property float y
property float z
element camera 1
property float view_px
property float view_py
property float view_pz
property float x_axisx
property float x_axisy
property float x_axisz
property float y_axisx
property float y_axisy
property float y_axisz
property float z_axisx
property float z_axisy
property float z_axisz
property float focal
property float scalex
property float scaley
property float centerx
property float centery
property int viewportx
property int viewporty
property float k1
property float k2
end_header
-10.932356 0.71193933 0.63750851
-10.939655 0.78839421 0.6507417
-10.931046 0.81034887 0.64986098
-10.887995 0.90422821 0.6433655
-10.882302 1.0222682 0.65637934
-10.873507 1.1035991 0.66321528
-10.866929 1.2613448 0.68105686
-10.862276 1.3058925 0.68487298
-10.804228 1.3679597 0.66764176
-10.61921 1.3703542 0.58705366
-10.790118 1.3441142 0.65834033
-0.94458866 -1.5457399 -4.0263672
-1.0712152 -1.5587384 -3.9727044
-1.1058455 -1.5603184 -3.9577689
-1.1404762 -1.5618984 -3.9428334
-1.1872306 -1.5617319 -3.9223671
-1.2566056 -1.5673579 -3.8927703
-1.2687297 -1.5656115 -3.8872395
-1.3381047 -1.5712376 -3.8576431
-1.3845172 -1.5636728 -3.8363547
-1.4330125 -1.5566871 -3.8142314
-1.5715351 -1.5630069 -3.7544894
-1.604311 -1.56894 -3.7409368
-1.6526923 -1.5594882 -3.7185397
-1.7096024 -1.5594623 -3.6936512
-1.7443466 -1.5635084 -3.6789899
-1.7907596 -1.5559436 -3.6577015
-1.8594508 -1.5467731 -3.6264606
-1.9056358 -1.5342759 -3.6046238
-1.917304 -1.5226651 -3.5979967
-1.9229674 -1.5131606 -3.5942717
-1.9285169 -1.5011898 -3.5902729
-1.9336433 -1.4718927 -3.5841837
-1.9423499 -1.3494056 -3.5642896
-2.1831212 -1.1682777 -3.4352183
-2.1897283 -1.1710401 -3.4326921
-2.2391057 -1.1846036 -3.4128819
-2.3807497 -1.3646463 -3.3745918
-2.3858132 -1.4076031 -3.3780193
-2.3843946 -1.4435619 -3.3833623
-2.3789825 -1.4765081 -3.3900559
-2.3918648 -1.4890778 -3.3860741
-2.4269624 -1.5004625 -3.3722219
-2.4489198 -1.5008073 -3.3626659
-2.4615886 -1.5019832 -3.3572807
-2.4960968 -1.5010377 -3.3420668
-2.6124599 -1.5112199 -3.2925222
-2.7038 -1.5175189 -3.2534089
-2.7063274 -1.5181032 -3.2523806
-2.7384305 -1.5190988 -3.2384737
-2.7650976 -1.5136019 -3.2260909
-2.8468339 -1.5222634 -3.1914876
-2.8677456 -1.519815 -3.1820221
-2.9022498 -1.5190167 -3.1668296
-2.9290562 -1.5114093 -3.1541088
-2.939759 -1.5094185 -3.1491671
-3.1780598 -1.5077 -3.0447395
-3.2568893 -1.5201706 -3.0119076
-3.2724128 -1.5247127 -3.0057163
-3.3317096 -1.5301955 -2.9805074
-3.3529339 -1.5065321 -2.9681187
-3.4619882 -1.2733047 -2.889801
-3.7121356 -1.5411403 -2.8155959
-3.7240906 -1.5344183 -2.8094854
-3.5613518 -1.2093697 -2.8379552
-3.5109191 -1.1281283 -2.8493381
-3.429625 -1.1290498 -2.8850064
-3.372462 -1.1214588 -2.9090052
-3.3258927 -1.1265131 -2.9300325
-3.1392844 -1.1393342 -3.0133147
-3.0578802 -1.13779 -3.0487075
-2.7706289 -1.1179445 -3.1717076
-2.7182486 -1.160311 -3.2001762
-2.6920726 -1.1758664 -3.2136655
-2.6757021 -1.1948345 -3.2233148
-2.4156156 -1.196497 -3.3372617
-2.3564105 -1.1706688 -3.3597579
-2.3075991 -1.1696804 -3.3809719
-2.2728543 -1.1656344 -3.3956335
-2.150362 -1.0832734 -3.4383788
-2.1235433 -1.0474358 -3.4453988
-2.11443 -1.0371763 -3.4480364
-2.0645995 -0.97075772 -3.4611025
-2.0303602 -0.80693662 -3.4545586
-1.9878206 -0.80483437 -3.4728837
-1.8528557 -0.74845505 -3.5244951
-1.829916 -0.83240581 -3.5455523
-1.8394742 -0.91112268 -3.5517111
-1.843523 -0.95067453 -3.5551353
-1.8499718 -0.99525338 -3.5581703
-1.8813601 -1.109832 -3.5594935
-1.8962297 -1.1498591 -3.5582485
-1.9184666 -1.2340599 -3.5595837
-1.9389977 -1.3540131 -3.5663605
-1.7727566 -1.5510374 -3.6649294
-1.7444444 -1.5515311 -3.6773744
-1.6816759 -1.5486673 -3.7044449
-1.5833173 -1.5538622 -3.7481365
-1.0728416 -1.5494531 -3.9707737
-1.1194825 -1.5468205 -3.9500332
-0.45666647 0.13233829 -4.0193272
-0.45855474 0.090420008 -4.0240068
-0.55566454 0.1081959 -3.9792089
-0.55054665 0.23012364 -3.9654331
-0.49788761 0.25575358 -3.9850931
-0.49286604 0.23144329 -3.9904819
-10.929867 -0.42423967 0.48719776
-10.936652 -0.53924274 0.47506046
-10.932476 -0.42066416 0.48880792
-10.932524 -0.39975241 0.49157548
-10.931701 -0.38003588 0.49380517
-10.927894 -0.34048486 0.49733496
-10.929045 -0.4045198 0.48942816
-10.912291 0.19248724 0.56051147
-10.908372 0.23111576 0.56387103
-10.903767 0.3051067 0.57157528
-10.903439 0.34942508 0.57725203
-10.900477 0.3839795 0.58049595
-10.893381 0.5024035 0.59294617
-10.894079 0.54620326 0.59900391
-10.890092 0.5812763 0.60186684
-10.890562 0.59115481 0.60337007
-10.891927 0.62548006 0.60847485
-10.889437 0.66991305 0.61322153
-10.889395 0.70462227 0.61776221
-10.890024 0.74486661 0.62332284
-10.888781 0.75854981 0.62457597
-10.886664 0.78810775 0.62753284
-10.885865 0.82254755 0.6317066
-10.886901 0.90119135 0.64248836
-10.881121 1.0244969 0.65615571
-6.7344575 -1.0938358 -1.4352751
-6.7022448 -1.0120435 -1.4386184
-6.4731708 -1.1573517 -1.5578701
-6.4041629 -1.1589481 -1.5882549
-6.3340807 -1.1381011 -1.6161617
-6.2627993 -1.1371274 -1.6472033
-6.1820569 -1.150377 -1.6842496
-6.159729 -1.1493845 -1.6938826
-6.1364813 -1.1776217 -1.7077568
-5.8633375 -1.1629524 -1.8252679
-5.8241801 -1.1453559 -1.8400792
-5.7173204 -1.1227372 -1.8838351
-5.6763611 -1.1333263 -1.9031364
-5.532515 -1.1260532 -1.9650807
-5.455658 -1.1296487 -1.9991603
-5.3948307 -1.1366427 -2.0266769
-5.3134265 -1.1350985 -2.0620699
-5.3083973 -1.1349382 -2.0642476
-5.2736731 -1.1308053 -2.0788889
-5.2365937 -1.1238493 -2.0941889
-5.2194042 -1.1254826 -2.1019199
-5.1800928 -1.1310518 -2.1198411
-5.0981369 -1.1171796 -2.1538563
-5.0918674 -1.121798 -2.1572042
-5.0853734 -1.1929579 -2.1693897
-4.85078 -1.3954105 -2.2985601
-4.6407623 -1.5277406 -2.4077747
-4.5820169 -1.5345857 -2.4343612
-4.6637526 -1.5435266 -2.3997948
-4.7208056 -1.5486521 -2.3755205
-4.7918367 -1.5424819 -2.3436503
-4.8953485 -1.5400873 -2.2980731
-4.9301834 -1.5466859 -2.2837076
-4.9646873 -1.5458877 -2.2685151
-5.0808163 -1.5515649 -2.2184808
-5.1678009 -1.5655974 -2.1822882
-5.1974974 -1.5695699 -2.1698246
-5.2781067 -1.5694357 -2.1345587
-5.2923355 -1.5708139 -2.1285179
-5.44135 -1.5737593 -2.063745
-5.4916525 -1.5323244 -2.0363073
-5.5597773 -1.5110034 -2.0037181
-5.647058 -1.5131629 -1.9658365
-5.7688236 -1.5016403 -1.9110786
-5.78122 -1.504781 -1.9060704
-5.9088259 -1.5428283 -1.855269
-5.9903407 -1.5468382 -1.8201516
-6.0599008 -1.5575696 -1.7911446
-6.1773539 -1.592834 -1.7444172
-6.2231135 -1.5354699 -1.7168739
-6.3498363 -1.4884684 -1.6552887
-6.4187336 -1.4844065 -1.6246284
-6.4653029 -1.479352 -1.6036012
-6.7391386 -1.4877055 -1.4849579
-6.768445 -1.5310251 -1.4778326
-6.7996383 -1.5402639 -1.4654062
-6.8483782 -1.549471 -1.4453028
-6.9176064 -1.5528058 -1.4154693
-6.976572 -1.5508919 -1.389434
-6.9989004 -1.5518843 -1.3798008
-7.0231419 -1.5458374 -1.3684067
-7.1262121 -1.5335805 -1.3217273
-7.1639528 -1.5366495 -1.3056273
-7.1940427 -1.5399129 -1.2928985
-7.0434752 -1.4042871 -1.3409246
-6.8121777 -1.1888592 -1.4137704
-6.7936196 -1.1678561 -1.419127
-10.956385 -0.16615936 0.5326885
-10.975589 -0.087240666 0.55145109
-10.954996 -0.059096694 0.54614317
-10.921144 0.035549521 0.54377091
-10.919884 -0.04493919 0.53264892
-10.92153 -0.08437562 0.52818859
-10.922327 -0.11881548 0.52401435
-10.924818 -0.16324845 0.5192678
-10.927262 -0.2371248 0.51063383
-10.927349 -0.24239063 0.50998044
-10.927589 -0.28144312 0.50495648
-10.927095 -0.30604494 0.50150919
-10.950269 -0.24086958 0.52020204
-9.6862488 -1.5565524 -0.20531535
-9.62918 -1.5485762 -0.22922206
-9.7106075 -1.5503993 -0.1938554
-9.732975 -1.554077 -0.18455791
-8.9736462 -0.9926722 -0.44285679
-8.9962978 -1.0184661 -0.43633962
-8.9787617 -1.1306329 -0.4587394
-8.921896 -1.2620693 -0.50086743
-9.0714178 -1.5339702 -0.47119701
-9.1122856 -1.5385799 -0.45393193
-9.1530504 -1.540723 -0.43638825
-9.1813793 -1.5397823 -0.42387736
-9.2616043 -1.5415906 -0.38903451
-9.2875538 -1.5429658 -0.37786853
-9.2912388 -1.543128 -0.37627852
-9.3197727 -1.547117 -0.36432517
-9.2851744 -1.5452832 -0.37921321
-9.2507811 -1.5483792 -0.3946588
-9.2161827 -1.5465454 -0.40954685
-9.1169739 -1.5610442 -0.45483243
-9.0762081 -1.5589011 -0.47237623
-9.0085936 -1.5355437 -0.49887478
-8.9393978 -1.5318764 -0.52865058
-8.927166 -1.5337206 -0.53424114
-8.7453556 -1.6446583 -0.62831175
-8.7347488 -1.6490148 -0.63352191
-8.6898193 -1.6599745 -0.65460771
-8.5702085 -1.6625938 -0.70725399
-8.5073967 -1.6568058 -0.73395962
-8.4965849 -1.6562327 -0.73861212
-8.4239092 -1.6573327 -0.77053553
-8.3001356 -1.6901222 -0.82896459
-8.2767725 -1.69136 -0.83934313
-8.2075758 -1.6876926 -0.86911923
-8.1941776 -1.6845067 -0.87455916
-8.1392727 -1.676645 -0.89753509
-8.0804176 -1.6834292 -0.92416185
-7.9782677 -1.7173649 -0.97328603
-7.9639764 -1.7215592 -0.98008597
-7.9017849 -1.678914 -1.0016797
-7.8426018 -1.6413797 -1.0226291
-7.6735153 -1.5612303 -1.0860388
-7.6252317 -1.5554909 -1.1063981
-7.5784416 -1.5556141 -1.1268743
-7.5227885 -1.5532751 -1.1509025
-7.429832 -1.5461614 -1.1906154
-7.5335646 -1.5486979 -1.1455894
-7.5470457 -1.5446572 -1.1391637
-7.5715079 -1.5409689 -1.1279826
-7.6283703 -1.5440155 -1.1035186
-7.6738243 -1.5458627 -1.0838856
-7.7688589 -1.5439841 -1.0420829
-7.850184 -1.5433424 -1.0064377
-7.872551 -1.5470201 -0.99714017
-7.953876 -1.5463785 -0.96149486
-8.1148415 -1.5623204 -0.89320314
-8.2653627 -1.5653459 -0.82778198
-8.3020563 -1.5598134 -0.8110103
-8.3811836 -1.5640731 -0.77696967
-8.4748421 -1.5640521 -0.73601288
-8.5681934 -1.5566367 -0.69421923
-8.6856174 -1.3563094 -0.6165626
-8.6846733 -1.2972023 -0.60921252
-8.5661755 -1.0470896 -0.62817907
-8.5728455 -1.010879 -0.62050676
-8.5911751 -0.98479795 -0.60906589
-8.6135101 -0.97848195 -0.59847009
-8.707407 -0.99338424 -0.55936909
-8.7628946 -0.98191154 -0.53359902
-8.8171625 -0.99426508 -0.51149178
-8.8517609 -0.9960987 -0.49660379
-8.9210606 -1.0022308 -0.46710646
-8.9455233 -0.99854243 -0.45592535
-10.954208 0.42543286 0.6094352
-10.954351 0.47962976 0.61661589
-10.95092 0.50430578 0.61835611
-10.941096 0.55407906 0.62059772
-10.927038 0.61132252 0.62196887
-0.73284006 1.3669994 -3.7364073
-0.67900038 1.3830864 -3.7578368
-0.72165966 1.3893349 -3.7383623
-0.7663641 1.387134 -3.7191038
-0.79352474 1.3906554 -3.7067647
-0.83248425 1.3888777 -3.6899624
-0.86278582 1.3874954 -3.6768937
-0.89678192 1.3833221 -3.6625767
-0.97839451 1.3769764 -3.6277232
-1.0834188 1.3793665 -3.5814853
-1.1703801 1.3907186 -3.5419683
-1.2334733 1.3869153 -3.5148792
-1.2444873 1.38174 -3.5107427
-1.1867671 1.3843566 -3.5356388
-1.151206 1.3764749 -3.5522237
-1.0702763 1.3680239 -3.5887218
-0.99973011 1.3545003 -3.6213455
-0.8839426 1.3525615 -3.6722307
-0.77959442 1.3671657 -3.715941
-4.1706123 1.3587731 -2.2342505
-4.1951075 1.3597951 -2.2234054
-4.2414646 1.3697578 -2.2018261
-4.3340683 1.3921491 -2.1583924
-4.2167521 1.3986448 -2.2088382
-4.0893145 1.3578534 -2.2699206
-4.0077944 1.3618658 -2.3050396
-4.0772324 1.3536434 -2.2757564
-4.124033 1.3537424 -2.2552788
-0.52302074 0.70506513 -3.915092
-0.52700758 0.66550863 -3.9185438
-0.52603149 0.67031372 -3.9183393
-9.513257 -1.5473843 -0.27975523
-9.454299 -1.5517038 -0.30610323
-9.3849993 -1.5455717 -0.33560038
-9.4791851 -1.5419805 -0.29394436
-9.5254879 -1.5455401 -0.27416456
-10.919498 0.074985981 0.54823101
-10.942559 0.23914129 0.5798744
-10.969732 0.3047055 0.60036719
-10.969627 0.350869 0.6063844
-6.3784776 1.3813546 -1.2658498
-6.1695242 1.3695525 -1.3587691
-6.3645964 1.4678644 -1.2605577
-6.3745236 1.468819 -1.2560915
-6.3872714 1.4587212 -1.2518433
-6.484271 1.3832961 -1.2193346
-6.5780668 1.3765138 -1.179211
-6.4481378 1.3682003 -1.2371172
-6.3907804 1.3806325 -1.2605649
-5.5426378 1.3854113 -1.6308053
-5.6586547 1.3822199 -1.5804937
-5.6930418 1.3855065 -1.5650257
-5.7398419 1.3856055 -1.5445482
-5.8206968 1.3963888 -1.5077764
-5.850553 1.3919604 -1.4953029
-5.9023275 1.3899106 -1.4729327
-5.9717655 1.3816882 -1.4436492
-6.0653667 1.381886 -1.4026942
-5.9509854 1.3993526 -1.4504158
-5.9264903 1.3983305 -1.4612612
-5.8326674 1.4030647 -1.5016654
-5.8104734 1.401522 -1.5115728
-5.7533379 1.4090222 -1.5355713
-5.7289534 1.4055343 -1.5466921
-5.6479874 1.3972168 -1.5831884
-5.5908527 1.404717 -1.6071868
-5.5215254 1.4104733 -1.6367457
-5.4746137 1.4128405 -1.6569479
-5.3959689 1.4338038 -1.6885835
-5.319387 1.4720312 -1.71705
-5.2081008 1.4339862 -1.7707089
-5.0987234 1.3845055 -1.825035
-5.005455 1.37691 -1.8668163
-4.9709573 1.3760891 -1.8820088
-4.9003267 1.3601725 -1.914984
-5.0161219 1.361913 -1.8641214
-5.1493373 1.3603636 -1.8060739
-5.1666365 1.3595421 -1.7986172
-5.2235918 1.3739214 -1.7718239
-5.25914 1.3756371 -1.7560544
-5.3112683 1.3769985 -1.7330813
-5.3317666 1.3816369 -1.7235088
-5.4045372 1.3845941 -1.6913
-5.4858351 1.3855137 -1.6556301
-8.4569521 1.3736176 -0.35800993
-8.6557426 1.3360956 -0.27601278
-8.6780062 1.3348827 -0.26643682
-8.7365532 1.3490613 -0.23897374
-8.7832794 1.3515365 -0.2182163
-8.8178787 1.3497028 -0.20332837
-8.8523731 1.350334 -0.18816185
-8.8826675 1.3594776 -0.17371416
-8.947587 1.3684165 -0.14415276
-9.0145092 1.3639413 -0.11547744
-9.077219 1.3606178 -0.08849299
-9.092802 1.3635057 -0.081299305
-9.0958347 1.364583 -0.079831958
-9.1644135 1.3757044 -0.048383474
-9.0851851 1.3824288 -0.082144856
-9.0359516 1.3824465 -0.10367084
-8.9185247 1.4381329 -0.14770436
-8.6522875 1.4765598 -0.2590754
-8.6320038 1.4973093 -0.26521981
-8.5057859 1.5383964 -0.31501472
-8.4143124 1.4967767 -0.36047971
-8.3853951 1.4856204 -0.37458932
-8.1840563 1.3831949 -0.47608149
-8.1336451 1.3808819 -0.49842852
-8.0930843 1.3780965 -0.51653028
-8.0523205 1.3802402 -0.53407389
-8.0236826 1.3866934 -0.54574859
-7.9544864 1.3903605 -0.57552451
-7.9198875 1.3921942 -0.59041262
-7.8671999 1.3850995 -0.61438316
-7.8326015 1.386933 -0.62927121
-7.7918363 1.3890772 -0.64681524
-7.7631998 1.3955299 -0.65848958
-7.7165761 1.3905898 -0.67952561
-7.6819777 1.3924234 -0.6944136
-7.6588712 1.3961017 -0.70403433
-7.6066136 1.3964013 -0.72684568
-7.452919 1.4471581 -0.78738564
-7.3437538 1.5406585 -0.82284021
-7.3113089 1.5422008 -0.83682495
-7.2105637 1.5720081 -0.87696296
-7.1957879 1.5336385 -0.88846338
-7.0287514 1.3911773 -0.98021412
-6.9472318 1.3951896 -1.0153332
-6.8884606 1.3884149 -1.0419219
-6.8076057 1.3776315 -1.0786936
-6.7159729 1.384311 -1.1178846
-6.6811428 1.3908882 -1.132251
-6.6225934 1.3791815 -1.1593904
-6.5880961 1.3783605 -1.1745831
-2.381289 1.356091 -3.0170217
-2.415329 1.3667971 -3.0007305
-2.3913369 1.3534974 -3.0129685
-0.51784563 0.73991537 -3.9127774
-0.51903391 0.74462163 -3.9116397
-4.175106 -1.5293305 -2.6116014
-4.1534719 -1.5282884 -2.6209242
-4.1058779 -1.5259957 -2.6414347
-4.1827202 -1.5127662 -2.6060963
-4.1889739 -1.5155692 -2.60373
-4.2566209 -1.5333402 -2.5764837
-4.3515615 -1.5137264 -2.532393
-4.4312739 -1.5272412 -2.4993122
-4.4071436 -1.5357536 -2.5109816
-4.3620453 -1.5239062 -2.5291457
-9.9944553 -1.5579989 -0.070735455
-9.9252586 -1.5543317 -0.10051155
-9.9892845 -1.5527728 -0.072310209
-10.011753 -1.5589153 -0.063291788
-7.039197 1.3811123 -0.97696841
-7.1209383 1.3721681 -0.94240016
-7.1720476 1.3787775 -0.91918337
-7.2584848 1.3853151 -0.88052815
-7.3385639 1.4133604 -0.84182858
-7.4100814 1.4095494 -0.81105661
-7.5112705 1.3791549 -0.77080148
-7.571928 1.3773857 -0.74451005
-7.5929036 1.3724022 -0.73599261
-7.6273994 1.3730333 -0.72082573
-7.7556567 1.3712208 -0.66498065
-7.7901521 1.3718519 -0.64981401
-7.8248529 1.3675535 -0.63520479
-7.8896704 1.3789569 -0.60536444
-7.9243712 1.3746585 -0.59075522
-7.9530077 1.3682057 -0.57908094
-7.9752722 1.3669928 -0.56950462
-8.0281658 1.3691574 -0.54609144
-8.0498924 1.3655467 -0.53706515
-8.0629692 1.3623945 -0.53176099
-8.0976706 1.3580959 -0.51715171
-8.1320639 1.3611917 -0.50170612
-8.2197609 1.3565938 -0.46396255
-8.3014965 1.3473765 -0.42943263
-8.3312273 1.335427 -0.41800141
-8.3365059 1.3356837 -0.41565979
-10.074501 1.3670861 0.3484391
-9.9635429 1.3679812 0.30003762
-9.8770475 1.3725657 0.26281798
-9.9532013 1.3784329 0.29688835
-9.9756708 1.3722901 0.30590713
-1.2459946 -1.5573529 -3.8960962
-1.3153701 -1.5629789 -3.8664994
-1.3741345 -1.5585999 -3.8402281
-4.4496422 1.3988215 -2.1069791
-4.634016 1.3608028 -2.0313511
-4.749701 1.3650092 -1.9802129
-4.7967229 1.360176 -1.9602864
-4.8433018 1.3652067 -1.9392581
-4.8185854 1.3691168 -1.9495524
-4.8085828 1.369318 -1.9538996
-4.7393665 1.3726083 -1.9837339
-4.6459866 1.3674786 -2.0252397
-10.381002 1.3853388 0.48486054
-10.468792 1.3709149 0.5213536
-10.352354 1.3844309 0.47221434
-10.297516 1.3848118 0.4482851
-10.189602 1.3856121 0.40120256
-10.336012 1.4811778 0.47777438
-10.394686 1.5076134 0.50690269
-10.411002 1.504582 0.51363957
-1.7765265 1.3499224 -3.2822766
-1.7071509 1.3555487 -3.3118737
-1.6603966 1.3553822 -3.3323398
-1.6258798 1.3544961 -3.3475494
-1.5677962 1.3566178 -3.372669
-1.5446086 1.3534433 -3.383225
-1.4987106 1.3574015 -3.4027748
-1.4640012 1.3614925 -3.4174151
-1.5227036 1.370701 -3.3905368
-1.5336561 1.3708469 -3.3857286
-1.6284466 1.3750696 -3.3437247
-1.6974201 1.3767524 -3.3133438
-1.7893314 1.3627615 -3.274991
-1.8705239 1.3661615 -3.2390413
-1.8111563 1.3483428 -3.2673414
-1.9398322 1.3604455 -3.2094858
-2.0105309 1.3763037 -3.1764884
-1.9637132 1.3762114 -3.1969724
-6.6405897 1.3717476 -1.1524975
-6.6797285 1.3716811 -1.1353921
-6.6905441 1.3711671 -1.1307304
-6.7113171 1.3689835 -1.1219337
-6.8226924 1.3666791 -1.073535
-6.8388953 1.3688991 -1.0661585
-6.892971 1.3663286 -1.0428505
-6.9922853 1.3834795 -0.99717057
-9.2234745 1.3775591 -0.02231431
-9.304594 1.3831303 0.013888717
-9.3737907 1.379463 0.043664455
-9.3861246 1.3788424 0.048976183
-9.4549103 1.3850343 0.079867363
-9.4989243 1.394932 0.10041356
-9.5797367 1.4078976 0.13745296
-9.7114124 1.3911148 0.19282675
-9.7311821 1.382689 0.20036507
-9.8128157 1.3759364 0.23517406
-9.8648167 1.3707217 0.25722754
-9.3374052 1.3665361 0.026056409
-9.6803703 1.4804335 0.19098401
-9.673995 1.4816998 0.18836272
-9.5553923 1.4436845 0.13150811
-9.4884806 1.4078485 0.097543001
-4.0383415 -1.5106903 -2.6689563
-3.9797065 -1.5200009 -2.6958184
-3.9557967 -1.5334448 -2.7080393
-4.0488248 -1.5208702 -2.6657093
-4.0835495 -1.5250032 -2.6510682
-9.7184772 1.4498304 0.20362747
0 0 0 1 0 0 0 1 0 0 0 1 0 0 0 0 0 541 1 0 0
