ply
format ascii 1.0
element vertex 838
property double x
property double y
property double z
property double nx
property double ny
property double nz
end_header
0 -2.31584e+77 2.24432e-314 0 1.37765e-319 0
-1.02339 -0.0273027 -2.31187 -0.178086 -0.833195 0.523519
-0.811279 -0.0710494 -2.24298 0.43206 0.707438 -0.559336
-0.864855 -0.0713804 -2.26113 -0.37043 -0.660909 0.652672
-0.790885 -0.131864 -2.29105 -0.320421 -0.602394 0.731062
-0.647883 -0.0939917 -2.2731 -0.0301463 -0.863767 0.502988
-0.87642 0.0497331 -2.19615 -0.393503 -0.569752 0.721484
-0.733567 0.0506787 -2.14402 -0.196327 -0.753098 0.627933
-0.567732 -0.110235 -2.20086 -0.0301463 -0.863767 0.502988
-0.614968 0.0104998 -2.15729 -0.134494 -0.466087 0.874457
-0.608226 -0.0295478 -2.15993 -0.635091 -0.589459 0.499197
-0.652632 0.00928685 -2.2279 0.274933 0.618758 -0.735901
-0.594782 -0.0171563 -2.16679 -0.635091 -0.589459 0.499197
-0.530009 0.0105819 -2.15464 0.0398915 -0.803898 0.593428
-0.487207 0.0294837 -2.22072 -0.184174 -0.887963 0.421428
-0.269563 -0.12318 -2.17832 -0.05928 -0.650353 0.757316
-0.433825 -0.0294193 -2.15684 -0.552177 -0.277824 0.786075
-0.22868 0.0381698 -2.1383 -0.323603 -0.800231 0.504888
-0.305714 0.0365155 -2.16429 -0.154961 -0.787549 0.596451
-0.280994 -0.0429601 -2.15507 -0.432514 -0.467332 0.77106
-0.412776 -0.00358244 -2.06565 -0.05928 -0.650353 0.757316
-0.335203 0.0490324 -2.05112 -0.54742 -0.68776 0.476779
-0.392 0.0127941 -2.02763 0.0532157 -0.66701 0.743146
-0.316931 -0.0276537 -2.05565 -0.270593 -0.763284 0.586665
-0.300327 -0.0270768 -2.02203 -0.261775 -0.564279 0.782983
-0.145421 -0.0607545 -2.15202 -0.05928 -0.650353 0.757316
-0.13814 0.0396549 -2.13574 0.0554804 0.84464 -0.532451
-0.0394951 -0.0205378 -1.93757 -0.251973 -0.568667 0.783025
0.0669148 0.0502834 -1.99199 -0.206633 -0.881898 0.423745
0.103035 0.0330678 -2.00946 -0.206633 -0.881898 0.423745
0.121351 -0.0220841 -1.88325 0.475359 0.678083 -0.560568
0.222033 -0.0301065 -1.86036 -0.0233881 -0.860798 0.50841
0.125947 -0.0318638 -1.87412 0.475359 0.678083 -0.560568
0.204121 0.0490561 -1.89527 0.455036 0.670403 -0.58609
-3.55948 1.20145 -2.95524 -0.223851 -0.873118 0.433077
-3.71832 1.34254 -2.4777 -0.140203 -0.799866 0.583573
-3.79833 1.26069 -2.58174 0.0183062 -0.834179 0.55119
-3.85421 1.22061 -2.58689 -0.215429 -0.772906 0.59683
-3.70444 1.32583 -2.5735 -0.0201347 -0.871504 0.489975
-3.7576 1.25143 -2.67978 -0.280681 -0.776176 0.564596
-3.75803 1.29052 -2.59103 0.0179903 -0.798791 0.60134
-3.46079 1.26101 -2.55885 -0.172003 -0.800941 0.573505
-3.65265 1.25947 -2.6481 -0.341591 -0.67376 0.655258
-3.50785 1.30143 -2.53632 -0.215 -0.664712 0.715495
-3.61459 1.22673 -2.66075 -0.313872 -0.682554 0.660003
-3.45427 1.30424 -2.51822 -0.140203 -0.799866 0.583573
-3.63314 1.36676 -2.52021 -0.200711 -0.639533 0.7421
-3.72304 1.27339 -2.42952 0.343848 0.404089 -0.847633
-3.73566 1.26455 -2.36457 0.366724 0.386202 -0.846381
-3.72347 1.29749 -2.3405 0.171663 0.875253 -0.452178
-3.65177 1.22435 -2.37462 0.405522 0.362828 -0.838992
-3.60878 1.38264 -2.47117 -0.122442 -0.815308 0.565934
-3.50384 1.38318 -2.43936 -0.0768148 -0.850975 0.519558
-3.49076 1.42444 -2.36846 -0.13009 -0.69455 0.707586
-3.60533 1.3063 -2.26516 0.34916 0.465763 -0.813113
-3.63447 1.31656 -2.25094 0.405522 0.362828 -0.838992
-3.45844 1.4248 -2.34818 -0.0065557 -0.808493 0.588469
-3.59813 1.44212 -2.36036 -0.0991128 -0.583959 0.80571
-3.50911 1.50119 -2.27152 -0.164764 -0.766574 0.620658
-2.52406 0.154919 -2.73388 -0.48362 -0.517528 0.705887
-2.52412 0.284901 -2.73608 0.155493 0.47376 -0.866818
-2.44123 0.0797456 -2.74561 -0.37509 -0.803366 0.462505
-2.38104 0.142798 -2.71507 -0.256407 -0.746376 0.614149
-2.31183 0.280485 -2.707 -0.0344208 0.409518 -0.911652
-2.42263 0.377786 -2.71579 0.116027 -0.656537 0.745317
-2.45239 0.29683 -2.77171 0.287893 0.608248 -0.739697
-2.23931 0.417905 -2.70666 -0.617604 -0.446242 0.647637
-2.20227 0.417852 -2.71885 -0.522034 -0.666634 0.532052
-2.20226 0.380358 -2.71822 -0.101603 -0.695705 0.711105
-2.32993 0.161402 -2.6514 -0.256407 -0.746376 0.614149
-2.22583 0.121102 -2.67145 0.0125815 0.864052 -0.503246
-2.20686 0.161182 -2.66756 -0.463874 -0.651459 0.600352
-2.22696 0.161058 -2.67437 -0.256407 -0.746376 0.614149
-2.18465 0.121768 -2.63324 -0.13607 -0.842509 0.521214
-2.18488 0.147522 -2.58894 -0.463874 -0.651459 0.600352
-2.27635 0.161733 -2.63325 -0.463874 -0.651459 0.600352
-2.17338 0.161389 -2.65622 -0.463874 -0.651459 0.600352
-2.09343 0.163306 -2.54515 -0.219044 -0.587343 0.779133
-2.30986 0.391209 -2.66526 -0.322365 -0.844027 0.428601
-2.30983 0.328718 -2.6642 -0.101603 -0.695705 0.711105
-2.30095 0.281533 -2.64546 -0.26987 -0.777544 0.567974
-2.43046 0.400653 -2.69509 -0.221203 -0.770774 0.597475
-2.25625 0.334049 -2.64613 -0.00471817 0.83156 -0.555415
-2.2027 0.389372 -2.62891 -0.322365 -0.844027 0.428601
-2.25628 0.389041 -2.64706 -0.322365 -0.844027 0.428601
-2.18902 0.361011 -2.6798 -0.322365 -0.844027 0.428601
-2.16925 0.282378 -2.59898 -0.26987 -0.777544 0.567974
-2.274 0.415921 -2.68339 -0.176925 -0.4106 0.894486
-2.20166 0.449251 -2.631 -0.509612 -0.546219 0.664786
-2.20717 0.481705 -2.63945 -0.203528 -0.762084 0.614658
-2.16686 0.44158 -2.64751 0.0688797 0.874683 -0.479776
-2.16579 0.476421 -2.6492 -0.509612 -0.546219 0.664786
-2.00623 0.16337 -2.5436 -0.337949 -0.498088 0.79856
-2.05967 0.369752 -2.60998 -0.176925 -0.4106 0.894486
-1.97027 0.462285 -2.61111 0.261775 0.564279 -0.782983
-1.91606 0.453934 -2.50444 0.262147 0.563381 -0.783505
-1.7985 0.460812 -2.53754 0.262147 0.563381 -0.783505
-1.72609 0.501791 -2.482 0.296178 0.441034 -0.847212
-1.82864 0.460638 -2.54774 0.262147 0.563381 -0.783505
-1.91404 0.462211 -2.46097 -0.4704 -0.779829 0.413026
-1.89169 0.485013 -2.45232 -0.347006 -0.380996 0.856988
-1.72321 0.503507 -2.38585 -0.508496 -0.568953 0.646315
-1.63941 0.503691 -2.37426 0.4435 0.71567 -0.539559
-1.84475 0.514869 -2.45151 0.296178 0.441034 -0.847212
-1.74185 0.542226 -2.4582 0.296178 0.441034 -0.847212
-3.43439 1.20191 -2.9278 -0.249952 -0.721252 0.646003
-3.09543 1.2127 -2.73847 -0.272797 -0.864686 0.421782
-3.29269 1.20949 -2.64097 -0.233233 -0.674934 0.700048
-3.43614 1.23829 -2.57062 -0.233233 -0.674934 0.700048
-3.34469 1.26165 -2.52139 -0.221563 -0.695724 0.683285
-3.32919 1.2872 -2.49046 -0.2288 -0.672066 0.704257
-3.36463 1.22844 -2.56115 -0.172803 -0.713709 0.678792
-3.22183 1.24203 -2.49807 -0.238894 -0.752257 0.614035
-3.29312 1.22109 -2.55172 -0.249952 -0.721252 0.646003
-3.23933 1.2106 -2.57811 -0.12259 -0.868035 0.481132
-3.31126 1.27204 -2.49905 -0.313872 -0.682554 0.660003
-3.24424 1.26223 -2.48736 -0.276833 -0.701763 0.656423
-3.26633 1.22124 -2.54265 -0.12259 -0.868035 0.481132
-3.07815 1.21993 -2.61327 -0.178742 -0.758149 0.627106
-3.20964 1.26246 -2.47378 -0.270448 -0.654822 0.705738
-3.38339 1.41677 -2.37675 -0.0453727 -0.773927 0.631647
-3.41883 1.3655 -2.44757 -0.228959 -0.721488 0.653477
-3.36525 1.36331 -2.42938 -0.171721 -0.733408 0.657742
-3.27602 1.38159 -2.38454 -0.211734 -0.657405 0.723179
-3.29928 1.34326 -2.43093 -0.193754 -0.664096 0.722105
-3.28254 1.34336 -2.42526 -0.217931 -0.65472 0.723773
-3.24681 1.34353 -2.41503 -0.218416 -0.688801 0.691265
-3.27491 1.38413 -2.38234 -0.194096 -0.698024 0.689268
-3.29374 1.35346 -2.41991 -0.218416 -0.688801 0.691265
-3.22113 1.34365 -2.40819 -0.22118 -0.662004 0.716122
-3.2202 1.38438 -2.36754 -0.172783 -0.697207 0.695736
-3.27582 1.3358 -2.42845 -0.175882 -0.736415 0.653267
-3.38388 1.21839 -2.28375 0.028445 0.67329 -0.738831
-3.37716 1.22583 -2.2872 -0.291699 -0.761261 0.579132
-3.21406 1.26634 -2.25693 -0.23925 -0.737055 0.632068
-3.27623 1.42488 -2.34058 -0.0803603 -0.833472 0.546687
-3.2583 1.41472 -2.34926 -0.165362 -0.720049 0.673932
-3.27623 1.42488 -2.34058 -0.125538 -0.82076 0.557309
-3.20411 1.27266 -2.46275 -0.291699 -0.761261 0.579132
-3.18396 1.26258 -2.46695 -0.178742 -0.758149 0.627106
-3.11936 1.30348 -2.41592 -0.293065 -0.666901 0.685096
-3.18638 1.31079 -2.42756 -0.233233 -0.674934 0.700048
-3.19081 1.30313 -2.43639 -0.327042 -0.551849 0.767141
-3.00772 1.29906 -2.38175 -0.20473 -0.698302 0.685901
-3.0613 1.30375 -2.39999 -0.0817805 -0.288407 0.954009
-3.07902 1.26312 -2.43513 -0.225235 -0.647563 0.727964
-3.14187 1.34407 -2.38321 -0.18626 -0.752186 0.632079
-3.16755 1.34396 -2.39004 -0.200711 -0.639533 0.7421
-3.20009 1.3844 -2.36632 -0.204386 -0.664445 0.718846
-3.1733 1.38455 -2.35725 -0.249952 -0.721252 0.646003
-3.15094 1.38455 -2.35714 -0.172283 -0.760772 0.625735
-3.19398 1.30655 -2.24525 -0.239518 -0.688923 0.684117
-3.19169 1.30632 -2.25754 0.343848 0.404089 -0.847633
-3.20962 1.30649 -2.24868 -0.249849 -0.672104 0.69703
-3.1671 1.34639 -2.25366 -0.256832 -0.647745 0.717261
-3.16011 1.42542 -2.30871 -0.140114 -0.774232 0.617198
-3.11529 1.40002 -2.3304 -0.115797 -0.792785 0.5984
-3.12104 1.42561 -2.29734 -0.140571 -0.844664 0.516511
-3.16908 1.428 -2.30433 -0.168557 -0.726785 0.665862
-3.19808 1.42527 -2.31784 -0.185474 -0.840007 0.509891
-3.1868 1.40487 -2.33979 -0.171721 -0.733408 0.657742
-3.13322 1.41018 -2.32173 -0.175882 -0.736415 0.653267
-3.17815 1.42598 -2.2775 -0.176003 -0.720512 0.670735
-3.19943 1.34604 -2.27394 -0.15435 -0.792094 0.590562
-3.15114 1.42534 -2.31314 -0.256918 -0.820045 0.51139
-3.1155 1.43081 -2.28623 -0.288479 -0.836649 0.465616
-3.01256 1.38548 -2.3028 -0.249952 -0.721252 0.646003
-3.07943 1.3672 -2.34753 -0.22219 -0.755282 0.616588
-2.95821 1.22282 -2.44948 -0.248648 -0.692894 0.67681
-2.91829 1.26405 -2.38069 -0.277726 -0.647467 0.709687
-2.76019 1.34648 -2.24272 -0.249952 -0.721252 0.646003
-2.9187 1.35563 -2.29287 0.433638 0.546776 -0.716237
-2.60803 1.266 -2.26626 0.288964 0.536538 -0.792859
-2.67261 1.225 -2.32287 -0.188705 -0.872513 0.450678
-3.41967 1.49118 -2.2709 -0.134115 -0.73059 0.669516
-3.37933 1.46581 -2.29038 -0.0803603 -0.833472 0.546687
-3.13343 1.43847 -2.27751 -0.171587 -0.866245 0.46923
-3.22287 1.44599 -2.27808 -0.192527 -0.790185 0.581843
-3.34795 1.45303 -2.30565 -0.0803603 -0.833472 0.546687
-3.31209 1.43521 -2.32305 -0.171721 -0.733408 0.657742
-3.43963 1.46557 -2.30521 -0.164764 -0.766574 0.620658
-3.09779 1.43395 -2.25041 -0.288479 -0.836649 0.465616
-3.15136 1.44614 -2.26878 -0.15435 -0.792094 0.590562
-2.30992 1.2158 -2.41263 -0.253073 -0.695648 0.67233
-2.38121 1.21736 -2.46668 -0.186051 -0.868401 0.459635
-1.84544 1.22295 -2.28524 -0.122347 -0.84876 0.514429
-3.33049 1.34698 -2.22316 0.156177 0.362019 -0.918995
-3.08786 1.30682 -2.22796 0.156177 0.362019 -0.918995
-3.13389 1.36508 -2.18674 0.177099 0.505596 -0.844399
-3.09802 1.36476 -2.20445 -0.257204 -0.664956 0.701199
-3.16953 1.36461 -2.21374 0.31073 0.290769 -0.904931
-3.1516 1.36445 -2.2226 0.433638 0.546776 -0.716237
-3.05995 1.34701 -2.21736 0.177099 0.505596 -0.844399
-3.04444 1.36507 -2.1863 -0.249952 -0.721252 0.646003
-3.00902 1.36384 -2.11454 0.298636 0.728381 -0.616666
-2.88926 1.30831 -2.14203 0.583009 0.523185 -0.621593
-2.8175 1.42763 -2.1796 0.298636 0.728381 -0.616666
-2.85682 1.34825 -2.14482 -0.270057 -0.751186 0.60232
-2.85209 1.4274 -2.19318 -0.172783 -0.697207 0.695736
-2.78322 1.30888 -2.10798 -0.260323 -0.671999 0.693289
-2.80572 1.26939 -2.07943 0.300187 0.290708 -0.908502
-2.75865 1.26897 -2.10267 -0.218476 -0.705328 0.674375
-2.88842 1.34934 -2.08461 0.583009 0.523185 -0.621593
-2.68667 1.3775 -2.18477 -0.228775 -0.803291 0.549896
-2.65958 1.30647 -2.24152 -0.3363 -0.637765 0.692934
-2.68488 1.42917 -2.09175 -0.169182 -0.754506 0.634112
-2.59745 1.38828 -2.1398 -0.200142 -0.784548 0.586879
-2.58216 1.42963 -2.06442 -0.146988 -0.8321 0.534794
-2.723 1.28194 -2.07589 -0.260323 -0.671999 0.693289
-2.59766 1.42157 -2.09566 -0.25407 -0.739516 0.62335
-2.6443 1.38791 -2.16126 -0.250057 -0.705248 0.663398
-2.61585 1.27506 -2.03946 0.321629 0.619284 -0.716269
-2.67608 1.22952 -2.07025 -0.242588 -0.711998 0.658946
-2.56139 1.30717 -2.20079 0.63641 0.500913 -0.586574
-3.04795 1.50822 -2.15085 -0.168557 -0.726785 0.665862
-3.09596 1.50801 -2.16339 -0.122768 -0.70087 0.702644
-3.13385 1.49006 -2.18897 -0.207776 -0.778789 0.591876
-3.09596 1.50801 -2.16339 -0.168557 -0.726785 0.665862
-3.15821 1.46669 -2.23787 -0.171587 -0.866245 0.46923
-3.02627 1.43409 -2.24112 -0.30242 -0.828032 0.472129
-3.09351 1.4672 -2.20849 -0.375076 -0.793117 0.479878
-3.08027 1.49787 -2.17096 -0.0878047 -0.751734 0.653595
-3.12167 1.508 -2.16463 -0.0277326 -0.800428 0.598786
-3.13812 1.46681 -2.23107 -0.171587 -0.866245 0.46923
-3.10472 1.4673 -2.20296 -0.186369 -0.827586 0.529498
-2.99308 1.46788 -2.16887 -0.374613 -0.734818 0.565426
-3.12589 1.46705 -2.21759 -0.288479 -0.836649 0.465616
-3.02005 1.50842 -2.13954 -0.218414 -0.721472 0.657094
-2.9395 1.46819 -2.15073 -0.192527 -0.790185 0.581843
-2.87941 1.50923 -2.0919 -0.218414 -0.721472 0.657094
-2.84824 1.52974 -2.06304 -0.353863 -0.808851 0.469618
-2.83011 1.45379 -2.11527 -0.333756 -0.567386 0.752782
-2.75839 1.43314 -2.15033 -0.314308 -0.58637 0.746579
-2.8458 1.46893 -2.10779 -0.232319 -0.795085 0.560239
-2.93768 1.52476 -2.06339 -0.218414 -0.721472 0.657094
-2.88368 1.47348 -2.13377 -0.250847 -0.650571 0.716822
-2.91179 1.50908 -2.101 -0.185474 -0.840007 0.509891
-2.77321 1.46922 -2.09066 -0.225498 -0.746287 0.626264
-2.93615 1.46821 -2.14959 -0.185474 -0.840007 0.509891
-2.86554 1.43502 -2.18667 -0.186369 -0.827586 0.529498
-2.69748 1.51031 -2.02841 -0.333756 -0.567386 0.752782
-2.75924 1.52382 -1.97304 -0.374613 -0.734818 0.565426
-2.58036 1.52629 -1.97221 -0.32061 -0.641419 0.696987
-2.72337 1.54099 -1.99106 -0.378156 -0.595757 0.70857
-2.5445 1.48347 -1.98916 -0.316736 -0.552163 0.771229
-2.6439 1.51062 -2.01026 -0.25407 -0.739516 0.62335
-2.52433 1.47079 -1.9989 -0.232319 -0.795085 0.560239
-2.47237 1.37374 -2.11209 -0.250057 -0.705248 0.663398
-2.45464 1.40437 -2.07676 -0.192431 -0.856635 0.478693
-2.44996 1.34854 -2.12271 -0.250057 -0.705248 0.663398
-2.45423 1.30529 -2.16445 -0.376237 -0.67317 0.636622
-2.35927 1.26797 -2.15214 -0.253647 -0.754618 0.605156
-2.31607 1.34951 -2.06616 -0.260491 -0.688703 0.676633
-2.34196 1.39019 -2.02899 -0.199844 -0.758551 0.620212
-2.43223 1.38917 -2.08756 -0.239518 -0.688923 0.684117
-2.50781 1.30748 -2.18264 0.321629 0.619284 -0.716269
-2.45647 1.30781 -2.16339 -0.250057 -0.705248 0.663398
-2.36522 1.34936 -2.07534 -0.239518 -0.688923 0.684117
-2.37601 1.26788 -2.15781 -0.270882 -0.81144 0.51787
-2.48524 1.26668 -2.22653 -0.376237 -0.67317 0.636622
-2.46158 1.43022 -2.02917 -0.172003 -0.800941 0.573505
-2.13236 1.21556 -2.14338 0.395155 0.434597 -0.809307
-2.19189 1.26914 -2.08424 0.553161 0.388429 -0.736978
-2.0792 1.28996 -2.0371 -0.319323 -0.662859 0.677238
-2.21778 1.30982 -2.04708 -0.285702 -0.674188 0.681062
-2.26479 1.35004 -2.03572 -0.317553 -0.634284 0.704871
-2.07227 1.22911 -2.08406 -0.206999 -0.767386 0.606853
-2.06799 1.26986 -2.04227 -0.292718 -0.649843 0.701441
-2.14164 1.26933 -2.07282 -0.206999 -0.767386 0.606853
-2.23993 1.28903 -2.09154 -0.228775 -0.803291 0.549896
-2.06682 1.19364 -1.82956 0.383289 0.64905 -0.657133
-2.45514 1.2135 -1.9839 0.383271 0.592648 -0.708429
-2.33025 1.28474 -1.91299 -0.297397 -0.684696 0.665392
-2.44737 1.27126 -1.96924 0.323962 0.313787 -0.892517
-2.33676 1.2715 -1.95416 -0.206999 -0.767386 0.606853
-2.36674 1.4309 -1.98958 -0.249952 -0.721252 0.646003
-2.31206 1.41876 -1.96897 -0.273634 -0.726944 0.629823
-2.3032 1.43157 -1.95126 -0.278319 -0.681377 0.676952
-2.26771 1.27247 -1.89905 0.553161 0.388429 -0.736978
-2.18677 1.36842 -1.98535 -0.185146 -0.829988 0.526156
-2.24034 1.37561 -2.00363 -0.277646 -0.74474 0.606857
-2.22263 1.39124 -1.96804 -0.262945 -0.742648 0.615902
-2.20491 1.41188 -1.93254 -0.262945 -0.742648 0.615902
-2.13319 1.37123 -1.96725 -0.29902 -0.68057 0.668888
-2.15133 1.40719 -1.9143 -0.210697 -0.74349 0.634688
-2.27667 1.28255 -1.8948 -0.224673 -0.70254 0.675247
-2.20538 1.29099 -1.84093 0.553161 0.388429 -0.736978
-2.22555 1.31367 -1.83137 0.553161 0.388429 -0.736978
-2.18723 1.26504 -1.89405 0.3875 0.417866 -0.821725
-2.15832 1.23307 -1.86314 0.225668 0.336845 -0.914117
-2.14957 1.27378 -1.82357 0.0399162 0.37833 -0.92481
-2.09775 1.42249 -1.89642 -0.185146 -0.829988 0.526156
-1.93619 1.24276 -2.01766 -0.122347 -0.84876 0.514429
-1.81001 1.22172 -2.21348 -0.228775 -0.803291 0.549896
-1.79005 1.26733 -2.17953 -0.288638 -0.713404 0.638547
-1.84717 1.29433 -1.92869 -0.200442 -0.711754 0.673223
-1.83721 1.31218 -1.90883 -0.25097 -0.610367 0.75131
-1.88261 1.23557 -1.99938 -0.22156 -0.819251 0.528903
-1.97471 1.35218 -1.91134 -0.29902 -0.68057 0.668888
-1.97136 1.3522 -1.9102 -0.227642 -0.725169 0.649853
-1.93661 1.32684 -1.92971 -0.284245 -0.694801 0.660649
-1.84759 1.38341 -1.84082 -0.236303 -0.730734 0.64046
-1.92134 1.39328 -1.84919 -0.229034 -0.705389 0.670798
-1.91557 1.35259 -1.88757 -0.249707 -0.736842 0.62826
-1.82904 1.23838 -1.98127 -0.122347 -0.84876 0.514429
-1.81152 1.3123 -1.902 -0.211017 -0.711947 0.669778
-1.70374 1.21054 -1.99806 0.278999 0.290478 -0.915304
-1.75815 1.3559 -1.83989 -0.211017 -0.711947 0.669778
-1.651 1.35402 -1.80355 -0.221432 -0.679031 0.699917
-1.68603 1.20867 -1.96215 -0.22156 -0.819251 0.528903
-1.70906 1.35375 -1.81949 -0.215 -0.664712 0.715495
-1.651 1.35402 -1.80355 -0.238214 -0.709222 0.663519
-1.6942 1.27248 -1.88953 -0.22156 -0.819251 0.528903
-1.8097 1.39386 -1.8151 -0.211017 -0.711947 0.669778
-1.62068 1.3135 -1.83175 -0.267898 -0.681655 0.680865
-2.4721 1.51195 -1.9334 -0.322476 -0.825383 0.463413
-2.50311 1.47084 -1.99544 -0.25407 -0.739516 0.62335
-2.41739 1.5122 -1.9186 -0.260491 -0.688703 0.676633
-2.46627 1.47106 -1.98296 -0.0528443 -0.737772 0.672978
-2.43063 1.47153 -1.95596 -0.235629 -0.810954 0.535567
-2.38377 1.4769 -1.93458 -0.408205 -0.72302 0.557325
-2.36605 1.50753 -1.89925 -0.363387 -0.651027 0.666419
-2.34792 1.45158 -1.95184 -0.264809 -0.723665 0.637326
-2.40149 1.45877 -1.97012 -0.184787 -0.887449 0.422242
-2.37502 1.51261 -1.89492 -0.284161 -0.678391 0.677523
-2.31247 1.52534 -1.88142 -0.169182 -0.754506 0.634112
-2.29475 1.53847 -1.84578 -0.272091 -0.732574 0.623941
-2.27704 1.53911 -1.80992 -0.220853 -0.758579 0.613011
-2.17192 1.51395 -1.81679 -0.260491 -0.688703 0.676633
-2.13361 1.44282 -1.87907 -0.273634 -0.726944 0.629823
-2.06231 1.46376 -1.82542 -0.22577 -0.730809 0.644163
-2.22346 1.54441 -1.79186 -0.165406 -0.778157 0.605898
-2.18719 1.44001 -1.89717 -0.249952 -0.721252 0.646003
-2.07331 1.43307 -1.86406 -0.277646 -0.74474 0.606857
-2.04459 1.48939 -1.79001 -0.263402 -0.678939 0.685318
-2.05456 1.47403 -1.80991 -0.22577 -0.730809 0.644163
-2.02667 1.47423 -1.79859 -0.242439 -0.72784 0.641462
-1.99108 1.24724 -1.76753 0.2175 0.767352 -0.603212
-1.88615 1.23528 -1.73549 -0.242155 -0.743259 0.62364
-1.61556 1.41778 -1.73295 -0.176003 -0.720512 0.670735
-1.74336 1.27646 -1.66731 -0.242155 -0.743259 0.62364
-1.66514 1.23656 -1.66063 0.209014 0.450064 -0.868191
-2.08045 1.53471 -1.7731 -0.183372 -0.730201 0.658165
-2.01567 1.51492 -1.76013 -0.263402 -0.678939 0.685318
-1.88386 1.48282 -1.73543 -0.183372 -0.730201 0.658165
-1.89494 1.47492 -1.7577 -0.171623 -0.892318 0.41751
-1.81215 1.43717 -1.77004 -0.227642 -0.725169 0.649853
-1.69379 1.43519 -1.73924 -0.228959 -0.721488 0.653477
-1.81684 1.47551 -1.72378 -0.18902 -0.798442 0.571631
-1.71193 1.47615 -1.68638 -0.193122 -0.801162 0.56643
-1.66956 1.47656 -1.6627 -0.192403 -0.814527 0.54729
-1.64699 1.43576 -1.70659 -0.193214 -0.835081 0.515081
-1.79443 1.46531 -1.73468 -0.228959 -0.721488 0.653477
-1.81436 1.4346 -1.77448 -0.207785 -0.80377 0.557476
-1.65184 1.48969 -1.62706 -0.267672 -0.664811 0.697408
-1.4525 0.0940475 -2.36972 -0.588854 -0.454548 0.668309
-1.39894 0.126874 -2.35212 0.139657 0.800496 -0.58284
-1.44255 0.126889 -2.3501 0.139657 0.800496 -0.58284
-1.40118 0.126892 -2.35101 0.139657 0.800496 -0.58284
-1.41047 0.167999 -2.28578 0.0077204 0.441031 -0.897459
-1.32771 0.272799 -2.30057 -0.273563 -0.62353 0.732376
-1.54768 0.383374 -2.38955 -0.25996 -0.801827 0.538046
-1.38089 0.375938 -2.40992 -0.235853 -0.536973 0.809959
-1.50515 0.453275 -2.39507 0.512884 0.683064 -0.519975
-1.49518 0.503624 -2.37579 0.512884 0.683064 -0.519975
-1.41904 0.423144 -2.40082 -0.304098 -0.627461 0.71681
-1.53229 0.384329 -2.33582 -0.25996 -0.801827 0.538046
-1.50893 0.487694 -2.30398 -0.342587 -0.443785 0.828063
-1.41818 0.424082 -2.34827 0.143273 0.805517 -0.574992
-1.41816 0.504069 -2.3497 0.512884 0.683064 -0.519975
-1.38251 0.424455 -2.32686 0.243821 0.401495 -0.88281
-1.36213 0.463566 -2.37666 -0.341632 -0.449044 0.825619
-1.30857 0.411384 -2.35757 -0.113478 -0.56936 0.814218
-1.34444 0.386714 -2.33942 0.143273 0.805517 -0.574992
-1.18475 0.39316 -2.28401 -0.235853 -0.536973 0.809959
-1.23729 0.389833 -2.30316 0.274566 0.599923 -0.751469
-1.2206 0.373447 -2.26596 -0.32971 -0.584 0.741779
-1.14888 0.392875 -2.30171 0.437606 0.573025 -0.692924
-1.36364 0.408065 -2.28514 -0.235853 -0.536973 0.809959
-1.32351 0.408502 -2.26035 -0.32971 -0.584 0.741779
-1.30451 0.465432 -2.2713 -0.304098 -0.627461 0.71681
-1.23833 0.400328 -2.30228 -0.255415 -0.842484 0.474325
-1.22018 0.424424 -2.35628 0.344366 0.838442 -0.422406
-1.24935 0.487147 -2.34295 -0.152011 -0.393769 0.906553
-1.24722 0.487508 -2.3217 -0.344426 -0.788641 0.509329
-1.21956 0.425463 -2.26793 0.274566 0.599923 -0.751469
-1.18477 0.448152 -2.28494 0.437606 0.573025 -0.692924
-1.18477 0.448152 -2.28494 -0.476854 -0.421553 0.7713
-1.13106 0.148526 -2.2617 -0.320421 -0.602394 0.731062
-1.11088 0.128369 -2.27133 -0.379337 -0.722904 0.577506
-1.00777 0.127551 -2.32224 -0.0290195 -0.378029 0.925339
-1.01672 0.0876276 -2.31714 -0.380666 -0.395459 0.835886
-0.952156 0.0961261 -2.25993 0.219333 0.419094 -0.881053
-1.07754 0.273839 -2.24567 -0.38303 -0.666422 0.639663
-1.07706 0.177337 -2.33349 -0.379337 -0.722904 0.577506
-1.04164 0.191066 -2.26198 -0.0185461 -0.329792 0.943871
-0.969914 0.202995 -2.29761 -0.0185461 -0.329792 0.943871
-0.826868 0.138382 -2.27792 0.54574 0.373361 -0.75018
-0.864953 0.0886915 -2.25826 0.54574 0.373361 -0.75018
-0.898158 0.142435 -2.33201 0.0162329 0.847362 -0.530767
-0.737414 0.110933 -2.27701 0.417449 0.746983 -0.517449
-1.07733 0.288079 -2.29064 -0.225222 -0.536676 0.813175
-0.987668 0.299866 -2.33512 -0.225222 -0.536676 0.813175
-1.01258 0.384832 -2.29974 -0.15037 -0.856815 0.49321
-0.916413 0.375802 -2.28238 0.258029 0.864516 -0.431315
-1.02356 0.355143 -2.31835 -0.0840598 0.481779 -0.872252
-0.97329 0.327862 -2.30645 0.282132 0.611082 -0.739582
-1.01458 0.327576 -2.32231 0.314029 0.458988 -0.831093
-0.948919 0.288714 -2.25647 -0.0185461 -0.329792 0.943871
-0.94233 0.408928 -2.24505 0.0549258 0.839272 -0.54093
-1.00588 0.425748 -2.28367 0.301344 0.67158 -0.676884
-1.01362 0.407981 -2.29907 0.0904328 0.834921 -0.542889
-0.844652 0.305243 -2.31662 -0.0840598 0.481779 -0.872252
-0.900923 0.328942 -2.24461 0.0272543 -0.361913 0.931813
-0.862837 0.376133 -2.26423 -0.09956 -0.402879 0.909822
-0.811498 0.368982 -2.24485 0.232503 0.658589 -0.715683
-0.776695 0.328571 -2.26971 -0.121019 0.779601 -0.614473
-0.793601 0.448829 -2.25506 0.0692475 0.843395 -0.532812
-1.41613 0.519845 -2.30636 0.611262 0.342664 -0.7134
-1.27442 0.408869 -2.23999 -0.235853 -0.536973 0.809959
-1.24759 0.329046 -2.22956 -0.32971 -0.584 0.741779
-1.19846 0.48901 -2.23426 0.361922 0.617656 -0.698222
-1.11332 0.079151 -2.22466 -0.181342 -0.815146 0.550138
-1.11341 0.276623 -2.228 -0.273833 -0.44813 0.850996
-1.02397 0.276669 -2.22756 -0.317782 -0.547655 0.774008
-0.950389 0.170113 -2.17284 -0.380666 -0.395459 0.835886
-0.934967 0.280731 -2.13773 -0.225222 -0.536676 0.813175
-0.927835 0.169462 -2.21185 0.219333 0.419094 -0.881053
-0.827067 0.0891469 -2.23236 -0.163857 -0.840575 0.516318
-0.777974 0.0895134 -2.21199 -0.163857 -0.840575 0.516318
-0.737872 0.147443 -2.18817 -0.380666 -0.395459 0.835886
-0.907578 0.169018 -2.23858 0.405192 0.491372 -0.770956
-0.756081 0.275824 -2.13677 -0.225222 -0.536676 0.813175
-0.718416 0.212141 -2.05946 -0.336942 -0.616623 0.71151
-0.689231 0.171821 -2.07876 -0.164755 -0.736703 0.655838
-1.09125 0.369689 -2.19593 -0.09956 -0.402879 0.909822
-1.04216 0.377555 -2.17569 -0.193625 -0.698788 0.688625
-0.97044 0.394484 -2.2114 0.258029 0.864516 -0.431315
-1.02401 0.381654 -2.22934 0.0904328 0.834921 -0.542889
-1.02738 0.489024 -2.23789 0.301344 0.67158 -0.676884
-0.959256 0.449387 -2.21787 0.217776 0.779394 -0.587468
-0.943914 0.490393 -2.15922 -0.109551 0.773714 -0.623991
-0.917994 0.449768 -2.19642 0.19002 0.400412 -0.896416
-0.934589 0.426694 -2.22966 0.0692475 0.843395 -0.532812
-0.988595 0.397883 -2.15788 -0.09956 -0.402879 0.909822
-0.998612 0.426939 -2.18189 -0.264525 -0.44077 0.857758
-0.845527 0.285776 -2.13738 -0.225222 -0.536676 0.813175
-0.845088 0.29176 -2.22693 0.0272543 -0.361913 0.931813
-0.809669 0.30049 -2.15534 -0.225222 -0.536676 0.813175
-0.778317 0.370231 -2.17202 -0.145282 -0.434724 0.888768
-0.813979 0.409752 -2.19971 0.472818 0.665446 -0.577603
-0.829483 0.489108 -2.23803 -0.09956 -0.402879 0.909822
-0.863299 0.422641 -2.17557 -0.254017 -0.692419 0.675301
-0.899153 0.397929 -2.15743 -0.185335 -0.859792 0.475825
-0.863322 0.475134 -2.17646 0.557646 0.491298 -0.669072
-0.794061 0.490338 -2.16631 -0.254017 -0.692419 0.675301
-0.740218 0.449823 -2.19778 -0.109551 0.773714 -0.623991
-0.772788 0.446974 -2.17667 -0.15037 -0.856815 0.49321
-0.822301 0.331578 -2.09107 0.0258276 -0.825538 0.563756
-0.747343 0.291509 -2.09673 0.0881 -0.601784 0.793785
-0.809973 0.49122 -2.11385 -0.254017 -0.692419 0.675301
-0.881466 0.453537 -2.12251 -0.217325 -0.827622 0.517505
-0.702569 0.423634 -2.12111 -0.0606032 -0.434055 0.898846
-0.576665 0.0669318 -2.2218 0.202078 0.847486 -0.490847
-0.46953 0.110088 -2.18621 -0.298258 -0.845167 0.443547
-0.558951 0.0625479 -2.18585 0.458462 0.605193 -0.65081
-0.523088 0.0672628 -2.20365 -0.184174 -0.887963 0.421428
-0.451799 0.0657094 -2.14959 0.063593 -0.66479 0.744318
-0.505433 0.19536 -2.16995 -0.110997 -0.838696 0.533168
-0.469565 0.190076 -2.18757 -0.128638 -0.856816 0.499319
-0.470014 0.206589 -2.0984 -0.110997 -0.838696 0.533168
-0.452296 0.192207 -2.06228 -0.110997 -0.838696 0.533168
-0.552799 0.171778 -2.0848 0.0176186 -0.632229 0.774581
-0.376432 0.115952 -2.1312 0.16603 -0.661077 0.731718
-0.362753 0.101061 -2.13762 0.16603 -0.661077 0.731718
-0.321132 0.156653 -2.14284 -0.550588 -0.603808 0.576428
-0.380159 0.270111 -2.18848 0.0881 -0.601784 0.793785
-0.419618 0.0762159 -2.07258 -0.154179 -0.855705 0.493962
-0.433918 0.0680102 -2.10157 -0.154179 -0.855705 0.493962
-0.33498 0.060732 -2.09606 -0.625414 -0.46829 0.624149
-0.435193 0.147989 -2.10288 -0.181804 -0.880583 0.437631
-0.391706 0.156148 -2.10508 -0.337373 -0.489344 0.80419
-0.441206 0.156677 -2.02477 -0.208301 -0.572467 0.793027
-0.347331 0.1328 -2.02945 -0.298258 -0.845167 0.443547
-0.309221 0.0626027 -2.04149 -0.164755 -0.736703 0.655838
-0.392596 0.276537 -2.08246 0.0666348 -0.416331 0.906768
-0.43418 0.276295 -2.11729 -0.0968752 -0.855193 0.509175
-0.370786 0.276024 -2.08219 -0.0769531 -0.817276 0.571086
-0.364255 0.175005 -2.04938 -0.0363633 -0.563764 0.825135
-0.577208 0.298414 -2.13626 -0.144507 -0.50432 0.851339
-0.498944 0.387133 -2.16307 -0.180263 -0.5689 0.802408
-0.451926 0.355668 -2.15451 -0.283776 -0.695603 0.660006
-0.629758 0.487261 -2.15879 -0.0277326 -0.800428 0.598786
-0.593894 0.486935 -2.1765 0.10997 0.448311 -0.887087
-0.566084 0.490798 -2.14506 -0.109461 -0.585844 0.802997
-0.499056 0.462271 -2.18842 0.196661 0.572834 -0.79573
-0.540315 0.492244 -2.15844 -0.0277326 -0.800428 0.598786
-0.549179 0.46693 -2.17593 0.471146 0.626183 -0.621222
-0.619064 0.332517 -2.04088 0.0881 -0.601784 0.793785
-0.6131 0.36119 -2.11961 0.0881 -0.601784 0.793785
-0.479018 0.291648 -2.09541 -0.0968752 -0.855193 0.509175
-0.241901 0.380199 -2.1596 -0.155258 -0.430148 0.889307
-0.331372 0.381268 -2.15997 0.048944 -0.600089 0.798435
-0.385805 0.426347 -2.20571 -0.106815 -0.353781 0.929209
-0.371413 0.426864 -2.17658 -0.291642 -0.687736 0.664804
-0.403888 0.504859 -2.13612 -0.399597 -0.659766 0.636421
-0.362533 0.468199 -2.15597 -0.0606032 -0.434055 0.898846
-0.285206 0.436621 -2.18417 -0.0297448 -0.330674 0.943276
-0.235053 0.438065 -2.14487 -0.155258 -0.430148 0.889307
-0.313728 0.466518 -2.13512 -0.161093 -0.604776 0.779933
-0.297218 0.477254 -2.13457 -0.155258 -0.430148 0.889307
-0.229697 0.457787 -2.16753 -0.0421872 -0.802905 0.594612
-0.38199 0.288624 -2.07687 -0.0769531 -0.817276 0.571086
-0.370765 0.353512 -2.08357 -0.173474 -0.618429 0.766455
-0.321689 0.288872 -2.06205 -0.0769531 -0.817276 0.571086
-0.317207 0.283832 -2.06417 -0.13664 -0.807945 0.573197
-0.391731 0.436293 -2.10072 0.0366366 -0.695077 0.718001
-0.387321 0.45137 -2.11555 -0.109461 -0.585844 0.802997
-0.380672 0.434103 -2.10181 -0.470092 -0.789245 0.395102
-0.297863 0.437941 -2.09144 -0.0402714 -0.528666 0.847874
-0.270423 0.47783 -2.12553 -0.155258 -0.430148 0.889307
-0.452703 0.111234 -1.97145 -0.298258 -0.845167 0.443547
-0.337442 0.159181 -1.97298 0.212509 0.383458 -0.898777
-0.365997 0.263944 -1.96138 -0.388126 -0.737372 0.552848
-0.391842 0.198751 -1.947 0.212509 0.383458 -0.898777
-0.349277 0.171531 -1.91248 -0.393974 -0.496951 0.773191
-0.291765 0.209758 -2.01129 -0.384295 -0.522034 0.761445
-0.55907 0.290233 -1.98943 -0.13664 -0.807945 0.573197
-0.550092 0.335145 -1.99466 -0.173474 -0.618429 0.766455
-0.460661 0.295135 -1.99351 -0.174153 -0.426939 0.887352
-0.585924 0.455452 -1.97909 -0.262147 -0.563381 0.783505
-0.542309 0.488633 -1.97829 -0.470092 -0.789245 0.395102
-0.496475 0.482931 -1.97915 -0.262147 -0.563381 0.783505
-0.544536 0.410331 -1.9848 -0.483825 -0.580793 0.65467
-0.542278 0.416144 -1.97706 -0.164902 -0.704458 0.690324
-0.443927 0.294015 -1.95662 -0.111284 -0.858587 0.500444
-0.403651 0.333879 -1.96604 0.0700639 0.688138 -0.722189
-0.410407 0.290326 -1.98199 -0.174153 -0.426939 0.887352
-0.423559 0.293192 -2.0057 -0.0968752 -0.855193 0.509175
-0.390257 0.333962 -1.9615 0.0314698 0.681695 -0.730959
-0.395994 0.318702 -1.94786 -0.388126 -0.737372 0.552848
-0.406042 0.318486 -1.95125 0.261794 0.525684 -0.809395
-0.22473 0.376497 -1.94478 -0.468833 -0.7065 0.530144
-0.38496 0.459504 -1.9121 -0.457561 -0.61118 0.645831
-0.274874 0.440364 -1.96615 0.318544 0.856147 -0.406867
-0.281447 0.506745 -1.92167 0.112627 0.380696 -0.917816
-0.361674 0.372061 -1.88481 -0.483825 -0.580793 0.65467
-0.286105 0.421746 -1.87084 -0.457561 -0.61118 0.645831
-0.116135 0.200171 -2.12822 -0.486149 -0.681926 0.546477
-0.112555 0.105944 -2.08305 -0.308188 -0.821735 0.479345
-0.0425844 0.213976 -2.12033 -0.486149 -0.681926 0.546477
0.119975 0.104958 -2.06424 -0.308188 -0.821735 0.479345
0.22548 0.212232 -2.0298 0.436986 0.444112 -0.782182
-0.206715 0.506929 -2.23368 0.382446 0.822353 -0.421273
0.237088 0.327307 -2.03835 0.436986 0.444112 -0.782182
-0.0406502 0.0519433 -1.93876 -0.169552 -0.737572 0.653636
-0.0419647 0.134422 -1.94011 -0.276479 -0.855034 0.438721
-0.105456 0.202452 -1.99962 0.0954729 -0.632402 0.768734
-0.00647637 0.2062 -1.86735 0.436986 0.444112 -0.782182
0.0277843 0.166381 -1.88893 -0.0389104 -0.796787 0.603006
-0.140771 0.442692 -1.95448 0.068915 -0.713868 0.696882
-0.173779 0.402623 -1.926 0.286334 0.760401 -0.582926
-0.0822277 0.411569 -1.92691 -0.122798 0.753978 -0.645319
-0.188996 0.363242 -1.87286 -0.468833 -0.7065 0.530144
0.0209497 0.386163 -1.89926 0.243742 0.801489 -0.546082
0.025694 0.387418 -1.97977 0.223518 0.861262 -0.456364
0.146569 0.386411 -2.00612 -0.0313683 -0.644574 0.763898
0.124982 0.466873 -1.95832 -0.0313683 -0.644574 0.763898
-0.650332 0.629019 -2.0619 -0.0527694 0.666371 -0.743751
-0.641136 0.668133 -2.11176 -0.106815 -0.353781 0.929209
-0.369406 0.518455 -2.14447 -0.0836569 -0.844755 0.528574
-0.250959 0.536877 -2.20357 -0.0916768 -0.41136 0.906851
-0.262996 0.589276 -2.19888 -0.450956 -0.387736 0.803927
-0.417826 0.536555 -2.10596 0.121132 -0.676304 0.726595
-0.455254 0.775947 -2.10994 -0.144775 -0.757606 0.636454
-0.456393 0.775241 -2.10763 -0.100317 -0.715366 0.691511
-0.45127 0.936682 -2.07116 -0.456053 -0.379074 0.805182
-0.525025 0.935356 -2.07919 0.340586 0.624355 -0.70298
-0.556514 0.935822 -2.01891 -0.435677 -0.796013 0.420177
-0.428522 0.776889 -2.07857 -0.144775 -0.757606 0.636454
-0.395278 0.777778 -2.01239 -0.100317 -0.715366 0.691511
-0.397654 0.789087 -2.0557 0.108397 -0.637559 0.762737
-0.260785 0.778462 -2.10133 0.0271712 -0.746235 0.665127
-0.405427 0.857321 -2.03162 0.490908 0.708797 -0.506573
-0.416047 0.896821 -2.05243 0.503613 0.502511 -0.70275
-0.334973 0.859317 -2.0237 0.0643442 -0.815055 0.5758
-0.359624 0.858183 -2.02363 0.490908 0.708797 -0.506573
-0.390517 0.619391 -1.95961 -0.317815 -0.864461 0.389487
-0.322286 0.541225 -1.91341 0.112627 0.380696 -0.917816
-0.267167 0.581003 -1.93711 0.0975001 -0.722778 0.684168
-0.257119 0.581218 -1.93372 -0.0916768 -0.41136 0.906851
-0.421374 0.669869 -2.01119 -0.419982 -0.766578 0.48577
-0.431592 0.737454 -1.99621 -0.100317 -0.715366 0.691511
-0.425883 0.659142 -1.94024 -0.0484501 -0.801126 0.596532
-0.364434 0.660323 -1.92888 -0.0484501 -0.801126 0.596532
-0.274074 0.661075 -1.92726 0.0728299 0.482414 -0.872911
-0.335051 0.62065 -1.89329 0.0609315 0.354876 -0.932926
-0.33616 0.620596 -1.89553 -0.332457 -0.686734 0.646428
-0.293221 0.821336 -1.94021 0.00746506 -0.783875 0.620873
-0.412184 0.858459 -1.99932 0.0643442 -0.815055 0.5758
-0.337584 0.939213 -1.98349 -0.270835 -0.772896 0.573829
-0.36004 0.949597 -1.98274 -0.137493 -0.365185 0.920725
-0.376434 0.918775 -1.97213 -0.270835 -0.772896 0.573829
-0.322291 0.899958 -1.99748 -0.137493 -0.365185 0.920725
-0.329605 0.939621 -2.01156 -0.435677 -0.796013 0.420177
-0.305243 0.940061 -1.96325 -0.270835 -0.772896 0.573829
-0.267564 0.747551 -1.88974 0.00746506 -0.783875 0.620873
-0.243095 0.742267 -1.88598 0.534833 0.486659 -0.690736
-0.200807 0.538322 -2.16426 0.161829 -0.606782 0.77822
-0.201377 0.582752 -1.89439 -0.332457 -0.686734 0.646428
-1.39955 1.20016 -2.01427 -0.239518 -0.688923 0.684117
-1.45269 1.21076 -2.12207 -0.236395 -0.68198 0.692113
-1.32826 1.19861 -1.96022 -0.239518 -0.688923 0.684117
-1.17426 1.1921 -1.90232 -0.338336 -0.813768 0.472558
-1.59659 1.20616 -1.96167 -0.239518 -0.688923 0.684117
-1.40063 1.27415 -1.79195 -0.260881 -0.633007 0.728864
-1.55036 1.31391 -1.80793 -0.25431 -0.618002 0.743909
-1.39267 1.23363 -1.82026 -0.236395 -0.68198 0.692113
-1.27512 1.20302 -1.85269 -0.264109 -0.640374 0.721227
-1.34685 1.21117 -1.8174 -0.182114 -0.89199 0.413749
-0.690352 1.02852 -2.09383 -0.291327 -0.404416 0.866935
-0.855972 1.14921 -2.05878 -0.535289 -0.515733 0.668943
-0.844776 1.10662 -2.06356 -0.167747 -0.890171 0.423623
-0.791198 1.10943 -2.04545 -0.267419 -0.607624 0.74785
-0.73762 1.11474 -2.02739 -0.267419 -0.607624 0.74785
-0.936859 1.1809 -1.79147 -0.184244 -0.709195 0.680512
-0.999051 1.19325 -1.83551 -0.216822 -0.839256 0.498636
-1.04419 1.18608 -1.82767 -0.171014 -0.810404 0.560357
-0.936378 1.16696 -1.8807 -0.455381 -0.317054 0.831929
-1.02653 1.19445 -1.79197 -0.171014 -0.810404 0.560357
-0.755748 1.19819 -1.9753 -0.231971 -0.679134 0.696395
-0.680572 1.13424 -1.99567 -0.309644 -0.692279 0.65182
-0.680722 1.11017 -2.00243 -0.302288 -0.495359 0.814396
-0.881503 1.16263 -1.86793 -0.302288 -0.495359 0.814396
-0.881507 1.14763 -1.86766 -0.302288 -0.495359 0.814396
-0.988208 1.20291 -1.99441 -0.249849 -0.672104 0.69703
-0.989085 1.2036 -1.81551 -0.167749 -0.872931 0.458095
-1.45884 1.31447 -1.77507 -0.252878 -0.72763 0.637657
-1.39973 1.31498 -1.74571 -0.298446 -0.64687 0.701776
-1.50372 1.35507 -1.74246 -0.171819 -0.717478 0.675058
-1.56198 1.40809 -1.71462 -0.253046 -0.711838 0.655174
-1.49027 1.34495 -1.74893 -0.377408 -0.506157 0.775479
-1.45441 1.32213 -1.76624 -0.299412 -0.624862 0.721041
-1.43558 1.3553 -1.72872 -0.194096 -0.698024 0.689268
-1.38422 1.35553 -1.71505 -0.21195 -0.740011 0.638327
-1.44117 1.3553 -1.72874 -0.271866 -0.650368 0.709302
-1.38311 1.35807 -1.71285 -0.252878 -0.72763 0.637657
-1.47755 1.24825 -1.56949 -0.249154 -0.655876 0.712565
-1.45532 1.20534 -1.58524 -0.2288 -0.672066 0.704257
-1.40351 1.23208 -1.56117 0.162307 0.382678 -0.909513
-1.39935 1.24979 -1.5525 0.388063 0.33109 -0.860108
-1.41499 1.24949 -1.5559 0.295929 0.320143 -0.899964
-1.44851 1.24885 -1.56158 0.128543 0.261752 -0.956537
-1.40603 1.40309 -1.6534 -0.210004 -0.662363 0.719148
-1.3605 1.27458 -1.76716 -0.264109 -0.640374 0.721227
-1.27331 1.23459 -1.7649 -0.298446 -0.64687 0.701776
-1.36498 1.27962 -1.76504 -0.377408 -0.506157 0.775479
-1.27429 1.28918 -1.716 -0.199384 -0.66197 0.722525
-1.3683 1.2745 -1.77167 -0.366241 -0.690333 0.623946
-1.30808 1.27505 -1.74008 -0.298446 -0.64687 0.701776
-1.26065 1.2768 -1.72247 -0.223601 -0.652668 0.723897
-1.1684 1.23523 -1.7275 -0.268687 -0.643113 0.717086
-1.22426 1.2421 -1.73968 -0.213036 -0.652359 0.727354
-1.24011 1.31587 -1.69351 -0.240285 -0.65055 0.72045
-1.24011 1.31587 -1.69351 -0.264109 -0.640374 0.721227
-1.20425 1.26805 -1.71037 -0.2288 -0.672066 0.704257
-1.22886 1.24956 -1.73758 -0.194886 -0.641453 0.741995
-1.18612 1.21709 -1.76305 -0.167749 -0.872931 0.458095
-1.14587 1.292 -1.67092 -0.211679 -0.707234 0.674546
-1.35844 1.36849 -1.67617 -0.259407 -0.638464 0.724619
-1.33349 1.34869 -1.68807 -0.256273 -0.631006 0.732226
-1.35027 1.40927 -1.63655 -0.156683 -0.641955 0.750562
-1.27638 1.42527 -1.58829 -0.221454 -0.727988 0.648839
-1.26255 1.37822 -1.63466 -0.244756 -0.687099 0.684098
-1.35362 1.4092 -1.63768 -0.246672 -0.741728 0.623693
-1.33871 1.39675 -1.64623 -0.194096 -0.698024 0.689268
-1.30484 1.36965 -1.65813 -0.247724 -0.6603 0.708968
-1.15109 1.36244 -1.60444 -0.252878 -0.72763 0.637657
-1.24052 1.39995 -1.60555 -0.242439 -0.72784 0.641462
-1.24274 1.39737 -1.60999 -0.298446 -0.64687 0.701776
-1.15971 1.373 -1.59623 -0.122137 -0.81101 0.57214
-1.18948 1.41285 -1.57684 -0.215274 -0.741869 0.635049
-1.2102 1.35693 -1.63371 -0.250057 -0.705248 0.663398
-1.22239 1.339 -1.65805 -0.236303 -0.730734 0.64046
-1.21105 1.37177 -1.62097 -0.191931 -0.668881 0.718165
-1.1957 1.35705 -1.62693 -0.174938 -0.781475 0.598911
-1.17247 1.33968 -1.63375 -0.286391 -0.68648 0.668376
-1.20887 1.37438 -1.61654 -0.215274 -0.741869 0.635049
-1.25426 1.4115 -1.59491 -0.244756 -0.687099 0.684098
-1.20467 1.36713 -1.62268 -0.275004 -0.657526 0.701451
-1.36811 1.25059 -1.53452 0.162307 0.382678 -0.909513
-0.972931 1.19561 -1.77393 -0.188321 -0.818544 0.542697
-0.971811 1.20084 -1.69014 -0.338336 -0.813768 0.472558
-0.821631 1.19447 -1.76421 -0.157239 -0.890331 0.427301
-0.8676 1.17542 -1.73638 -0.197116 -0.747883 0.63389
-0.908941 1.19487 -1.7434 -0.0307404 -0.863288 0.503775
-0.792499 1.16421 -1.77806 -0.0307404 -0.863288 0.503775
-1.04352 1.26898 -1.65592 -0.268687 -0.643113 0.717086
-1.0971 1.26617 -1.67403 -0.211001 -0.695577 0.686769
-1.09731 1.31696 -1.63021 -0.282315 -0.650146 0.705414
-1.13986 1.21079 -1.7501 -0.181881 -0.821147 0.54096
-1.05473 1.27658 -1.65052 -0.268687 -0.643113 0.717086
-1.02598 1.21344 -1.70059 -0.259571 -0.79824 0.54354
-0.97519 1.30347 -1.59677 -0.259407 -0.638464 0.724619
-1.01266 1.33561 -1.58175 -0.241756 -0.680101 0.69211
-0.973331 1.20455 -1.68462 -0.188321 -0.818544 0.542697
-1.13764 1.35732 -1.611 -0.192403 -0.814527 0.54729
-1.06124 1.23835 -1.69125 -0.268687 -0.643113 0.717086
-1.03756 1.29437 -1.6326 -0.256273 -0.631006 0.732226
-1.01215 1.2362 -1.67084 -0.271113 -0.762558 0.587369
-0.95572 1.33694 -1.557 -0.246672 -0.741728 0.623693
-1.10531 1.33345 -1.62226 -0.245755 -0.630895 0.735919
-0.729736 1.26065 -1.55283 -0.224893 -0.648161 0.727537
-0.714436 1.22028 -1.59014 -0.238618 -0.65577 0.71626
-0.856667 1.29839 -1.56613 -0.244392 -0.635565 0.732345
-0.821642 1.21796 -1.62622 -0.308563 -0.647735 0.696583
-0.885314 1.27743 -1.59607 -0.276079 -0.670046 0.689071
-0.937019 1.18068 -1.34196 0.124975 -0.450012 0.884234
-1.12049 1.42477 -1.52762 -0.270112 -0.655844 0.704917
-1.00416 1.41716 -1.49583 -0.225207 -0.757079 0.61328
-1.12514 1.21588 -1.45046 -0.259571 -0.79824 0.54354
-0.989975 1.37674 -1.53538 -0.255247 -0.670253 0.696857
-1.08442 1.41006 -1.54516 -0.122137 -0.81101 0.57214
-0.735362 1.38226 -1.4497 -0.231126 -0.696756 0.679052
-0.751701 1.30069 -1.52894 -0.188891 -0.838948 0.510379
-0.743572 1.34398 -1.48936 -0.205677 -0.676566 0.707075
-0.698098 1.30185 -1.5109 -0.197116 -0.747883 0.63389
-0.891754 1.221 -1.36819 -0.427834 -0.811084 0.398875
-0.798831 1.42924 -1.41935 -0.167173 -0.711231 0.682791
-1.49986 1.47741 -1.61268 -0.221454 -0.727988 0.648839
-1.40167 1.47811 -1.57195 -0.253046 -0.711838 0.655174
-1.52654 1.46685 -1.64393 -0.207395 -0.752494 0.625092
-1.42506 1.46365 -1.60076 -0.261177 -0.66744 0.697359
-1.55547 1.43632 -1.67372 -0.207395 -0.752494 0.625092
-1.51547 1.47725 -1.6217 -0.24648 -0.745945 0.61872
-1.49111 1.49812 -1.57275 -0.228959 -0.721488 0.653477
-1.45379 1.4477 -1.63078 -0.216002 -0.710147 0.670101
-1.38878 1.43645 -1.6181 -0.247507 -0.710304 0.658945
-1.4088 1.48946 -1.56758 -0.247507 -0.710304 0.658945
-1.49068 1.43653 -1.66111 -0.161914 -0.78665 0.595789
-1.3533 1.44996 -1.59137 -0.246672 -0.741728 0.623693
-1.26845 1.45192 -1.55536 -0.23828 -0.788363 0.567191
-1.29207 1.43791 -1.58076 -0.263466 -0.711591 0.651325
-1.24073 1.43824 -1.56151 -0.242439 -0.72784 0.641462
-1.25866 1.4459 -1.55279 -0.24648 -0.745945 0.61872
-1.34809 1.47842 -1.55381 -0.2679 -0.714258 0.646579
-1.32442 1.43766 -1.59545 -0.253046 -0.711838 0.655174
-1.39012 1.50288 -1.52972 -0.234258 -0.670128 0.704309
-1.14337 1.45457 -1.51699 -0.22805 -0.655581 0.719866
-1.35857 1.49064 -1.54508 -0.23828 -0.788363 0.567191
-0.998216 1.45784 -1.46068 -0.123369 -0.782871 0.609831
-1.10544 1.45561 -1.49117 -0.261041 -0.700656 0.664032
-0.710531 1.48462 -1.33051 -0.14274 -0.835706 0.530303
-0.779362 1.46271 -1.37957 -0.216185 -0.693691 0.687063
-1.13079 1.49576 -1.45724 -0.296723 -0.669509 0.680965
-0.611617 1.02714 -2.03845 -0.198993 -0.626679 0.753442
-0.612265 1.06713 -2.0391 -0.144211 -0.605578 0.78261
-0.672836 1.10995 -2.01469 -0.167747 -0.890171 0.423623
-0.648701 1.10432 -2.02192 -0.144211 -0.605578 0.78261
-0.487454 1.08565 -1.97197 -0.321221 -0.505837 0.800591
-0.571145 1.13667 -1.95511 -0.521616 -0.717959 0.460925
-0.454044 1.11114 -1.94431 -0.140656 -0.678397 0.721105
-0.315812 0.980317 -1.9831 -0.137493 -0.365185 0.920725
-0.543466 1.18096 -1.71869 -0.197116 -0.747883 0.63389
-0.310174 1.19865 -1.74386 0.0143813 -0.810912 0.584991
-0.244493 1.18687 -1.61147 -0.0904969 -0.84269 0.530739
-0.598153 1.21518 -1.55839 -0.213142 -0.669671 0.711415
-0.479209 1.30654 -1.44097 -0.213142 -0.669671 0.711415
-0.494626 1.41284 -1.34657 -0.238387 -0.638244 0.731995
-0.54835 1.41918 -1.36473 -0.333708 -0.682791 0.64995
-0.54649 1.32026 -1.45258 -0.277195 -0.630994 0.724576
-0.510054 1.28306 -1.46976 -0.245755 -0.630895 0.735919
-0.450902 1.22605 -1.49773 -0.238618 -0.65577 0.71626
-0.530572 1.30539 -1.46012 -0.328162 -0.552771 0.765999
-0.492888 1.32142 -1.43454 -0.22805 -0.655581 0.719866
-0.636407 1.3488 -1.45332 -0.220156 -0.627521 0.746826
-0.532454 1.34596 -1.42388 -0.190738 -0.69005 0.698176
-0.393608 1.26797 -1.43784 -0.288637 -0.608256 0.7394
-0.398124 1.38963 -1.33248 -0.298725 -0.724454 0.621233
-0.401778 1.22718 -1.47746 -0.224893 -0.648161 0.727537
-0.372792 1.34957 -1.36082 -0.272349 -0.728414 0.628681
-0.299051 1.22947 -1.43916 -0.265492 -0.703371 0.659381
-0.131649 1.18194 -1.56398 -0.189415 -0.695478 0.693132
0.0113593 1.20555 -1.63538 -0.294544 -0.662337 0.688878
-0.0968297 1.18863 -1.53851 -0.250367 -0.716883 0.650688
-0.186341 1.19217 -1.53885 -0.247717 -0.69399 0.676028
-0.1209 1.23295 -1.36127 -0.251345 -0.700577 0.667845
-0.104793 1.23395 -1.357 -0.228596 -0.748152 0.622907
-0.0437487 1.20623 -1.43128 -0.188321 -0.818544 0.542697
-0.0618044 1.23687 -1.33203 -0.169194 -0.81556 0.553386
-0.584583 1.44388 -1.34735 -0.361296 -0.741797 0.564979
0.419977 0.34843 -1.99549 0.398876 0.806793 -0.435871
0.251939 0.489598 -1.91571 -0.288699 -0.589937 0.754074
0.424776 0.494198 -1.80329 0.103481 -0.673499 0.731909
0.573548 0.295478 -1.86656 -0.00350477 -0.424694 0.90533
0.384567 0.26006 -1.70793 0.067302 -0.822248 0.565135
0.581165 0.284824 -1.76124 -0.00350477 -0.424694 0.90533
0.587621 0.297648 -1.74801 -0.00350477 -0.424694 0.90533
-0.833146 1.18284 -1.3126 -0.211008 -0.739019 0.639786
-0.746561 1.49683 -1.31293 -0.154898 -0.773199 0.614955
-0.582226 1.28287 -1.25529 -0.269861 -0.638455 0.720799
-0.642714 1.22634 -1.28811 0.291204 0.42374 -0.857697
-0.414534 1.42994 -1.2974 -0.318935 -0.680966 0.659216
-0.316205 1.4272 -1.25679 -0.318935 -0.680966 0.659216
-0.277588 1.39261 -1.26953 -0.277514 -0.648499 0.708826
-0.326694 1.39139 -1.29538 -0.190738 -0.69005 0.698176
-0.322927 1.27361 -1.1604 0.415028 0.354861 -0.83775
-0.369889 1.43103 -1.27491 -0.200759 -0.765811 0.610925
0.00386338 1.277 -1.27797 -0.22797 -0.763087 0.604754
-0.0633369 1.28573 -1.2895 -0.296723 -0.669509 0.680965
-0.162606 1.39531 -1.21778 -0.323474 -0.649851 0.687792
-0.149563 1.35501 -1.2484 -0.293721 -0.695788 0.655444
-0.0098773 1.32197 -1.22587 -0.423934 -0.749997 0.507724
-0.00307731 1.31702 -1.22912 -0.338351 -0.616848 0.710645
-0.0285576 1.33495 -1.21863 -0.38034 -0.77916 0.498249
-0.046197 1.35168 -1.20861 -0.338351 -0.616848 0.710645
-0.208629 1.39097 -1.13064 -0.344743 -0.735087 0.583781
-0.21095 1.39595 -1.12961 -0.353936 -0.664775 0.657878
-0.0470161 1.36052 -1.16542 -0.344743 -0.735087 0.583781
-0.0989876 1.39687 -1.18518 -0.397114 -0.73608 0.548166
0.0441116 1.27306 -1.25318 -0.38034 -0.77916 0.498249
0.0387581 1.23635 -1.30926 -0.294544 -0.662337 0.688878
0.0628418 1.25754 -1.26032 -0.359107 -0.785148 0.504564
-0.131326 1.28024 -0.942987 0.415028 0.354861 -0.83775
-0.634999 1.50668 -1.2792 -0.25555 -0.857181 0.447142
-0.496242 1.49677 -1.25848 -0.200759 -0.765811 0.610925
-0.525554 1.50903 -1.24423 -0.300567 -0.720726 0.624671
-0.585713 1.49781 -1.25877 -0.333447 -0.809002 0.484076
-0.568284 1.46719 -1.31413 -0.0941396 -0.811627 0.576541
-0.65709 1.49578 -1.31263 -0.353936 -0.664775 0.657878
-0.51357 1.46841 -1.29385 -0.207067 -0.763102 0.612209
-0.639518 1.50915 -1.27701 -0.297407 -0.730022 0.615318
-0.406081 1.45323 -1.25749 -0.272349 -0.728414 0.628681
-0.227255 1.44259 -1.16731 -0.296723 -0.669509 0.680965
-0.388834 1.48659 -1.2222 -0.271401 -0.700452 0.660082
-0.334988 1.47276 -1.20391 -0.271401 -0.700452 0.660082
-0.343157 1.43197 -1.24354 -0.353936 -0.664775 0.657878
-0.173572 1.43875 -1.14919 -0.302151 -0.843574 0.443947
