ply
format ascii 1.0
comment PCL generated
element vertex 872
property float x
property float y
property float z
element camera 1
property float view_px
property float view_py
property float view_pz
property float x_axisx
property float x_axisy
property float x_axisz
property float y_axisx
property float y_axisy
property float y_axisz
property float z_axisx
property float z_axisy
property float z_axisz
property float focal
property float scalex
property float scaley
property float centerx
property float centery
property int viewportx
property int viewporty
property float k1
property float k2
end_header
-4.2449608 -0.8196615 0.96183342
-4.238749 -0.77937531 0.9487614
-4.236105 -0.77954233 0.94399434
-4.2216272 -0.81864977 0.919653
-6.9757857 -1.4069161 5.9200325
-6.9730697 -1.4368091 5.9165044
-6.9304776 -1.4159853 5.8386354
-6.8845339 -1.5261676 5.7607479
-6.8738627 -1.5482007 5.7424932
-6.8470101 -1.5505927 5.6941142
-6.8260384 -1.5468369 5.6560717
-6.8553219 -1.5270454 5.7080383
-6.8821964 -1.4346108 5.7523108
-6.904438 -1.3669809 5.7893581
-6.910224 -1.2471817 5.7942886
-6.8954124 -1.1675725 5.763876
-6.9283791 -1.0468043 5.817843
-6.8968263 -0.92751902 5.755374
-6.8946915 -0.88740396 5.7496719
-6.8957829 -0.84746766 5.7498031
-6.8975334 -0.80749232 5.7511225
-6.9003201 -0.72737336 5.7524652
-6.9025507 -0.68731713 5.7546487
-6.9020977 -0.6075995 5.7501588
-6.8988447 -0.52741492 5.7405915
-6.9087963 -0.44782156 5.7548966
-6.912219 -0.413295 5.7594867
-6.9085903 -0.36777344 5.7508383
-6.9105191 -0.32784033 5.7524815
-6.9324179 -0.17306975 5.7848964
-6.9342728 -0.093108505 5.7845635
-6.9410257 0.066683054 5.7893991
-6.9488802 0.18640679 5.7980685
-6.955183 0.18662119 5.8094392
-6.9967513 0.22728139 5.882628
-6.9545326 0.38626623 5.7990699
-6.9563007 0.50625157 5.7967372
-6.9584742 0.55618382 5.7983627
-7.0052834 0.70673573 5.8759537
-6.9835129 0.78619576 5.832983
-6.987484 0.82604551 5.8383174
-7.0059142 0.94628537 5.8660603
-7.0025225 0.98614824 5.8580995
-6.9970198 1.1057788 5.8426538
-6.996933 1.1458031 5.8406534
-7.0109978 1.2661093 5.8605108
-6.9706745 1.3270245 5.7848916
-6.981308 1.3300393 5.8039541
-6.9974227 1.3243438 5.8333154
-7.0186896 1.3303735 5.8714404
-7.0335822 1.3293523 5.8983793
-7.0442963 1.3089032 5.9186673
-7.0592632 1.2670679 5.9476209
-7.0593495 1.2270436 5.9496207
-7.0462027 1.1712587 5.9284496
-7.0448904 1.1466535 5.9272132
-7.0457764 1.1087457 5.9305592
-7.0595484 1.0290627 5.9590969
-7.0419912 0.98884296 5.9292464
-7.0469446 0.86739278 5.9437838
-7.0450897 0.78743136 5.9441166
-7.0304508 0.70918071 5.9212866
-7.0295277 0.66919935 5.9214611
-7.0275888 0.62925959 5.9197993
-7.0256495 0.58931959 5.9181371
-7.0247269 0.54933822 5.9183121
-7.019906 0.50740004 5.9115386
-7.0218649 0.46941674 5.9168248
-7.0209417 0.42943525 5.9169993
-7.0190029 0.38949543 5.9153376
-7.0180798 0.34951395 5.9155116
-7.0181723 0.30949074 5.9175229
-7.0808029 0.18778485 6.0362215
-7.1135988 0.22737968 6.0936198
-7.1209602 0.17079598 6.1095176
-7.1233068 0.14786333 6.1148119
-7.1125255 0.026084363 6.1009521
-7.1066999 -0.093726635 6.0959501
-7.1049318 -0.21371204 6.0982833
-7.1051054 -0.29376048 6.1022835
-7.0819387 -0.36788446 6.0638642
-7.0724983 -0.39215624 6.0479355
-7.0643883 -0.40821102 6.03403
-7.0529099 -0.43229276 6.0144119
-7.0427871 -0.47172442 5.9979491
-7.0377979 -0.4881523 5.9896975
-7.0142555 -0.56823003 5.9508739
-7.0212584 -0.67099589 5.9682512
-7.0196762 -0.71100789 5.9672375
-7.0185566 -0.73102915 5.9661374
-7.0214911 -0.80682647 5.9749269
-7.0576878 -0.87175226 6.0432792
-7.0660081 -0.88742411 6.0590253
-7.0649924 -0.88737863 6.057189
-7.013422 -0.95342624 5.9671082
-7.0160141 -1.0466979 5.9760842
-7.0128355 -1.1109784 5.9733052
-7.0098805 -1.1508765 5.9698067
-7.0031404 -1.3106775 5.9649954
-5.6506443 1.4456347 3.3958013
-5.6311684 1.448656 3.3604939
-5.6015558 1.4301465 3.307874
-5.5905695 1.4121888 3.288862
-5.5577087 1.3960326 3.230268
-5.5470119 1.3905691 3.2112045
-5.5688276 1.3862686 3.2507963
-5.5958676 1.396062 3.2991724
-5.6662331 1.4174794 3.4252472
-5.6932154 1.4247739 3.4736338
-5.6713409 1.4265754 3.4340518
-4.6037488 1.3844782 1.5081993
-4.5656857 1.3897563 1.4392242
-4.5928278 1.4047123 1.4875474
-4.6090598 1.4040085 1.5168903
-4.6415238 1.4026009 1.5755763
-4.6428881 1.4029516 1.5780237
-4.6592121 1.4072654 1.6073022
-4.6740985 1.4061904 1.6342328
-4.7021813 1.4039085 1.6850482
-4.7218943 1.3999946 1.7208244
-4.7397242 1.4092408 1.7525945
-4.7610002 1.4127581 1.7908516
-4.7339511 1.4029373 1.7424608
-4.7232265 1.3974305 1.7233487
-4.7070756 1.4006131 1.6940372
-4.6906939 1.3938003 1.6647698
-4.6640487 1.4014711 1.6163025
-4.6319904 1.3899481 1.5589442
-5.6214924 -0.80006492 3.4465854
-5.6706123 -0.78197658 3.534451
-5.6869497 -0.77761304 3.5637503
-5.7137618 -0.77763528 3.6121669
-5.7348218 -0.78140944 3.6503699
-5.7568016 -0.77829146 3.6899159
-5.7885008 -0.77895522 3.7471874
-5.8696928 -0.77962625 3.8938296
-5.8745804 -0.78026766 3.9026845
-5.8294601 -0.87456477 3.8255517
-5.821311 -0.94491267 3.8140771
-5.7990513 -1.0260586 3.7776182
-5.7703052 -1.1268964 3.7303545
-5.7694836 -1.1643779 3.7305977
-5.7219577 -1.265377 3.6494298
-5.6949425 -1.3856468 3.6061857
-5.7220306 -1.4657091 3.6587877
-5.7572589 -1.498572 3.7239141
-5.8010106 -1.4667442 3.8014522
-5.8044958 -1.4658551 3.8077044
-5.8155646 -1.465903 3.8276942
-5.8363791 -1.4660754 3.8652875
-5.8549633 -1.4517961 3.8981888
-5.8819399 -1.4443219 3.946557
-5.892415 -1.4487078 3.9656744
-5.9086428 -1.4493418 3.9950061
-5.9295931 -1.4581136 4.0332413
-5.9457111 -1.4637449 4.0626054
-5.9502873 -1.465976 4.0709715
-5.9744534 -1.4661512 4.1146173
-6.0000534 -1.4649582 4.1607895
-6.0212603 -1.4631703 4.1990013
-6.0268488 -1.4650651 4.2091799
-6.0403357 -1.4670591 4.2336254
-6.0791149 -1.4736533 4.3039536
-6.0859213 -1.4766219 4.3163815
-6.1008983 -1.4915223 4.3441124
-6.1598568 -1.5080764 4.4513378
-6.213448 -1.5082901 4.5481195
-6.2400155 -1.5183915 4.5965586
-6.2189865 -1.5171345 4.5585279
-6.2084436 -1.5177554 4.5395184
-5.5186357 -1.0627433 3.2729516
-5.5582848 -1.1041145 3.3464522
-5.5815244 -1.1767159 3.3917606
-5.5844531 -1.2239633 3.3992255
-5.5907402 -1.2385736 3.4112508
-5.6217713 -1.3048096 3.4703355
-5.6294518 -1.344099 3.4860134
-5.590414 -1.5121855 3.4232635
-5.6112556 -1.5259547 3.4615312
-5.6277018 -1.5165936 3.490798
-5.6603208 -1.5103651 3.5494127
-5.6812167 -1.5216357 3.5876641
-5.6968136 -1.5047386 3.6150494
-5.7511234 -1.5198153 3.7138135
-5.7836881 -1.5160857 3.7724445
-5.8047476 -1.5198599 3.810647
-5.8338733 -1.5047747 3.8625453
-5.8441467 -1.5057529 3.8811417
-5.8878088 -1.5470885 3.9618871
-5.9025378 -1.5470233 3.9884813
-5.9568911 -1.4691211 4.0830412
-5.9723587 -1.4712635 4.1110706
-5.9942293 -1.4686072 4.1504407
-6.0419464 -1.5163906 4.2388053
-6.0450077 -1.5159024 4.2443113
-6.0900702 -1.5046364 4.3251629
-6.11169 -1.5217046 4.3649893
-6.1158671 -1.5168892 4.3723102
-5.5286903 -1.0627517 3.2911077
-5.6048465 -1.0646374 3.4287126
-5.6292272 -1.0248706 3.4709063
-5.6101408 -0.83565944 3.427727
-5.5889163 -0.83938158 3.3895729
-5.5673199 -0.82500815 3.3499136
-5.5405078 -0.82498598 3.3014967
-5.5190644 -0.83870316 3.2634075
-5.52005 -0.79372525 3.2631156
-5.5737844 -0.78877223 3.3599172
-3.7817569 -0.76194823 0.12275118
-3.8085656 -0.76198405 0.17116237
-3.8142207 -0.76335585 0.18143696
-3.8409181 -0.76838899 0.22987747
-3.8196533 -0.77472222 0.1917702
-2.1756294 1.3947712 -2.8768208
-2.2183945 1.4264675 -2.8010578
-2.2240772 1.424976 -2.7907279
-2.2345803 1.4231943 -2.7716799
-2.2434165 1.392728 -2.7543209
-2.2283311 1.3997006 -2.7818823
-2.1633186 1.3616223 -2.8975244
-2.1306641 1.3556763 -2.9562154
-1.8601332 -0.79793561 -3.3455396
-1.8464701 -0.76936328 -3.3715272
-1.8342779 -0.7584244 -3.3940473
-1.8302801 -0.75573796 -3.4013901
-1.8199179 -0.75696009 -3.4200449
-1.8084724 -0.75846761 -3.4406433
-1.8009977 -0.75894094 -3.4541183
-1.769429 -0.79675114 -3.5093822
-1.7821035 -0.83766621 -3.484611
-1.783643 -0.91738427 -3.4781594
-1.7874272 -0.9595257 -3.4693851
-1.7877877 -1.0043969 -3.4666681
-1.7964733 -1.0705445 -3.4479375
-1.7932739 -1.1187192 -3.4514961
-1.7999263 -1.1949996 -3.4359703
-1.7987232 -1.2375228 -3.4361844
-1.7905445 -1.2780132 -3.4490881
-1.7891369 -1.3195627 -3.4497166
-1.7907584 -1.3578247 -3.4450264
-1.7878826 -1.3979409 -3.4483719
-1.7766845 -1.521578 -3.4628987
-1.7657578 -1.5373778 -3.4819016
-1.7376845 -1.5567453 -3.531703
-1.7234042 -1.5583515 -3.5574155
-1.7441189 -1.5589834 -3.5199809
-1.2574155 -0.4288511 -4.4508872
-1.2567501 -0.45883304 -4.4507084
-1.2586303 -0.43375456 -4.4484682
-1.4196925 -1.0729725 -4.1281929
-1.4170306 -1.1929004 -4.1274762
-1.4044483 -1.233109 -4.148345
-1.399359 -1.3132945 -4.1538415
-1.3997977 -1.3531771 -4.1512132
-1.3969216 -1.3932931 -4.1545587
-1.3960345 -1.4332693 -4.1543198
-1.4180386 -1.5130838 -4.1109099
-1.4582808 -1.5537065 -4.0363727
-1.4315174 -1.5512043 -4.0848155
-1.3886516 -1.542953 -4.1625996
-1.3620546 -1.5329552 -4.2110872
-1.3521836 -1.4749727 -4.2315822
-1.3510442 -1.4349029 -4.2354851
-1.3509185 -1.3948798 -4.237555
-1.3505404 -1.274811 -4.2437677
-1.3523149 -1.1948593 -4.2442455
-1.3559904 -1.0749784 -4.2431297
-1.3596656 -0.95509768 -4.2420144
-1.3752122 -0.91456151 -4.2158084
-1.3927848 -0.8741194 -4.1859393
-1.410358 -0.83367729 -4.1560693
-1.4055431 -0.91348803 -4.161088
-1.4053566 -0.95365149 -4.159575
-1.4055705 -1.033463 -4.1555133
-2.6969318 0.54513657 -1.8963554
-2.6958585 0.58497846 -1.9001291
-2.7385838 0.664657 -1.8266478
-2.7612162 0.7048173 -1.7876294
-2.7787728 0.74521947 -1.7577872
-2.7939997 0.74449325 -1.730258
-2.8037095 0.74445927 -1.7127233
-2.8060303 0.7446059 -1.708539
-2.810925 0.70410752 -1.6978357
-2.8178201 0.66369975 -1.6835234
-2.8114696 0.54356492 -1.6894584
-2.7967334 0.46457708 -1.71243
-2.8101563 0.38377756 -1.6844707
-2.7997613 0.34445506 -1.7014306
-2.8065312 0.2238732 -1.6836524
-2.80335 0.18377197 -1.6875501
-2.802206 0.10386121 -1.685935
-2.8019998 0.023992807 -1.6826293
-2.7949076 -0.056317747 -1.6917374
-2.7956138 -0.13675806 -1.6867573
-2.7900338 -0.21646395 -1.6931624
-2.7898631 -0.25654846 -1.6916246
-2.7963233 -0.33010381 -1.6765718
-2.7863374 -0.37621599 -1.6924801
-2.8144083 -0.49032062 -1.6365364
-2.8049688 -0.56225616 -1.6502688
-2.802711 -0.60210466 -1.6525104
-2.8148339 -0.69032681 -1.6265566
-2.8061285 -0.72230339 -1.6408038
-2.8063776 -0.80234778 -1.636667
-2.7720761 -0.6872288 -1.7039084
-2.6855721 -0.64841437 -1.8618994
-2.6851797 -0.80845082 -1.8552377
-2.7575195 -0.91936433 -1.7195032
-2.8014297 -0.84215003 -1.6437685
-4.0561209 -0.77208734 0.61864769
-4.0877404 -0.77508068 0.67588174
-4.1269526 -0.81771314 0.74865198
-4.0851955 -0.93503761 0.6786533
-4.0882235 -1.008826 0.68751884
-4.0900855 -1.0164099 0.69123071
-4.0855694 -1.0551043 0.68485832
-4.0771465 -1.0958827 0.67152619
-4.0767145 -1.0969903 0.67079723
-4.061039 -1.135201 0.64425159
-4.0524783 -1.1548381 0.62969732
-4.0294075 -1.2149897 0.59080744
-4.0240569 -1.2272627 0.58171117
-3.9988608 -1.1547663 0.532875
-3.9771376 -1.1360693 0.49278748
-3.970468 -1.1346536 0.48067886
-3.9509768 -1.1343716 0.44546968
-3.9813197 -1.0942621 0.49841356
-3.9910913 -1.0566406 0.51432586
-3.9928708 -0.97668415 0.51385707
-4.0337577 -0.93731362 0.58587492
-4.0501723 -0.85686517 0.61181003
-4.0295906 -0.75955832 0.57016331
-1.3838863 0.21300381 -4.2520747
-1.3627033 0.22837269 -4.2910337
-1.3148675 0.25124091 -4.3784661
-1.357955 0.25298357 -4.3007412
-1.4419248 0.30620497 -4.1515646
-1.4450254 0.38625032 -4.1496525
-1.4399574 0.54554605 -4.1661406
-1.4869773 0.66481149 -4.0867276
-1.4633398 0.82208002 -4.1366534
-1.4637077 0.82471907 -4.1361108
-1.4503837 1.0152631 -4.1689458
-1.4198096 1.0249804 -4.2246022
-1.4242353 1.1051193 -4.2203012
-1.4368021 1.2259828 -4.2031751
-1.4414804 1.226076 -4.1947317
-1.5027628 1.3442147 -4.0895128
-1.5282207 1.3742868 -4.0449276
-1.5579128 1.384464 -3.9917803
-1.5982931 1.3835212 -3.9188204
-1.6032913 1.3857697 -3.9098983
-1.6462123 1.3800168 -3.8321295
-1.6846902 1.3970004 -3.7634311
-1.7121894 1.3819586 -3.7130814
-1.6888564 1.3617715 -3.7542853
-1.6677005 1.3627735 -3.7925334
-1.6406596 1.3527834 -3.8409019
-1.6140072 1.3602828 -3.8893747
-1.5705183 1.3460326 -3.967248
-1.5598757 1.1864579 -3.9791164
-1.5487449 1.1063199 -3.9955249
-1.5416675 1.0259941 -4.0046058
-1.5407803 0.98601806 -4.0043669
-1.5411582 0.86594915 -3.9981546
-1.5402708 0.82597339 -3.9979157
-1.5393836 0.78599739 -3.9976768
-1.5345879 0.70606935 -4.0026555
-1.5586705 0.58375645 -3.9535356
-1.521024 0.57301819 -4.0210204
-1.4880431 0.5495373 -4.0794945
-1.4664872 0.46676171 -4.1146059
-1.4647126 0.38680977 -4.1141281
-2.9793212 -0.28216431 -1.3483334
-2.9831133 -0.13648814 -1.3481951
-2.9985099 -0.057457089 -1.3240323
-3.0003145 0.022496909 -1.3244562
-3.0012167 0.062473893 -1.3246682
-3.0021186 0.10245091 -1.3248804
-3.010879 0.14169604 -1.3108687
-3.0257587 0.060454905 -1.2802589
-4.372314 1.3888805 1.0900862
-4.3301468 1.4403439 1.0115733
-4.3059826 1.4405469 0.96792918
-4.3052297 1.4409316 0.96655226
-4.296361 1.4416683 0.95050395
-4.2638974 1.4430758 0.89181799
-4.26016 1.4417592 0.88513035
-4.2589755 1.441036 0.88302445
-4.2129631 1.4565587 0.79922366
-4.1909652 1.453637 0.75963557
-4.1742163 1.4425989 0.7299
-4.1526899 1.4130267 0.69239044
-4.1688104 1.4073256 0.72176254
-4.1852093 1.4141178 0.75106162
-4.233561 1.4329083 0.83750665
-4.2604809 1.4378697 0.88588858
-4.313375 1.4053156 0.98290133
-4.3398504 1.390288 1.0314003
-4.4152431 1.3831435 1.1678696
-4.4313083 1.3749436 1.1972563
-4.4419966 1.3806089 1.2162952
-5.0192032 1.4177147 2.2568703
-5.022069 1.421537 2.2618685
-5.0445137 1.4168419 2.3026147
-5.0242295 1.4176768 2.2659483
-6.3637609 1.360098 4.6874428
-6.3427839 1.3665621 4.6492653
-6.3264952 1.3647612 4.619935
-6.310091 1.3579627 4.5906267
-6.3368969 1.3577811 4.6390395
-6.6596727 1.3511838 5.2221913
-6.686286 1.3599705 5.2698431
-6.6966872 1.3529902 5.2889466
-6.5791769 1.365695 5.0761685
-6.6165009 1.3635306 5.1436653
-6.6487875 1.3546386 5.2023773
-6.6220398 1.3573191 5.1539536
-6.5951176 1.3525032 5.1055613
-6.5803328 1.3541098 5.0787897
-6.5567117 1.3426189 5.0366654
-6.53585 1.3540807 4.998467
-6.4888477 1.3547668 4.9135609
-6.4437742 1.3420612 4.8327551
-6.4068556 1.3617171 4.7651854
-6.4497766 1.35584 4.8429604
-6.5524864 1.3708744 5.0277348
-6.5304852 1.3677887 4.9881477
-6.5255642 1.3660586 4.9793415
-5.7405457 1.3980157 3.5603328
-5.7727098 1.3841857 3.6190498
-5.745986 1.4059944 3.5697889
-5.720139 1.4295695 3.5220304
-3.5823731 1.376086 -0.33575034
-3.5690179 1.369162 -0.3595475
-3.5659745 1.3692939 -0.36504936
-3.5768294 1.3824551 -0.34605432
-3.6040831 1.4024084 -0.29776025
-3.2785149 0.1399622 -0.8275094
-3.2747936 0.020078093 -0.82870781
-3.2574153 -0.02381435 -0.85806668
-3.2550669 -0.02513662 -0.86224675
-3.2223577 -0.052919805 -0.92003083
-3.2402568 -0.22514187 -0.8797785
-3.2009981 -0.37906185 -0.94358063
-3.1992965 -0.404571 -0.94547844
-3.1754065 -0.36464491 -0.99045634
-3.1636906 -0.32524663 -1.0134265
-3.1645803 -0.28526843 -1.0136611
-3.2007198 -0.18028399 -0.95323801
-3.1760249 -0.10013935 -1.0015213
-3.1792951 -0.00024372339 -1.0002172
-3.1726432 0.020072818 -1.013164
-3.1756043 0.099309206 -1.0114663
-3.1774087 0.17926323 -1.0118904
-3.1796322 0.21932679 -1.0097206
-3.1973357 0.25904441 -0.97958207
-3.2012167 0.33868116 -0.97624135
-3.1931381 0.46051234 -0.99644017
-3.1940403 0.50048935 -0.99665213
-3.1949425 0.54046643 -0.99686408
-3.1970015 0.57972586 -0.99495435
-3.197649 0.66039729 -0.99750018
-3.1994534 0.74035132 -0.99792409
-3.2109809 0.81867552 -0.98071599
-3.2153511 0.85967302 -0.97471261
-3.2049789 0.94018936 -0.99714971
-3.2231312 0.97936976 -0.96617651
-3.253206 0.89912415 -0.90817332
-3.2630439 0.86733532 -0.88894475
-3.2698617 0.85402882 -0.87602067
-3.2692432 0.84905338 -0.87690842
-3.2732468 0.77932346 -0.86646771
-3.2891159 0.69973397 -0.8341465
-3.2832527 0.5749464 -0.83898723
-3.2778852 0.53467286 -0.84682453
-3.2813194 0.46005577 -0.83718681
-3.2805462 0.45501536 -0.83835113
-3.2840405 0.33980036 -0.82673502
-3.2702098 0.25376123 -0.84774673
-3.271781 0.21480286 -0.84311545
-3.0008783 -0.80324733 -1.2854085
-3.0011072 -0.76331079 -1.2868347
-3.0006747 -0.72341609 -1.2894528
-3.0043921 -0.68412375 -1.28455
-3.0103216 -0.60476971 -1.2774975
-2.9967921 -0.52372694 -1.3056605
-2.9871125 -0.6027776 -1.3194988
-2.987977 -0.682567 -1.3142629
-2.9909952 -0.80246675 -1.3032908
-2.9611177 -0.92206663 -1.3517334
-2.960228 -0.96204489 -1.3514991
-2.9766634 -1.04258 -1.3181121
-3.002811 -1.0426576 -1.2708926
-2.9863756 -0.96212244 -1.3042798
-2.9856715 -0.90477896 -1.308192
-3.0019717 -0.84310031 -1.2815988
-3.0124121 0.82164717 -1.3394158
-3.0135901 0.98196268 -1.3446717
-3.0008016 0.82270002 -1.3604295
-3.0052452 0.70221746 -1.3468568
-3.0242 0.74077034 -1.314405
-3.6786757 -0.83063996 -0.060223222
-3.7174516 -0.76754177 0.0068900585
-3.6872263 -0.77271199 -0.047450662
-3.6822324 -0.77129841 -0.056533575
-3.6666615 -0.77055287 -0.08468473
-3.631691 -0.76995182 -0.14785981
-3.6180706 -0.7704879 -0.17242992
-3.5634389 -0.77037215 -0.2710861
-3.5614097 -0.77028418 -0.27475417
-3.5287793 -0.77637249 -0.33339584
-3.4912825 -0.78200185 -0.400846
-3.4426425 -0.77739179 -0.48888934
-3.3945687 -0.78368914 -0.57540774
-3.3889694 -0.77981877 -0.58569694
-3.3676488 -0.78865063 -0.62378955
-3.3221345 -0.80781209 -0.70509434
-3.3136144 -0.80731869 -0.72050202
-3.3022208 -0.80832309 -0.74102938
-3.2858882 -0.84851044 -0.76867127
-3.2032795 -0.84605533 -0.91795397
-3.1798375 -0.80664134 -0.96209908
-3.167798 -0.80675316 -0.98383379
-3.1630995 -0.92659998 -0.98679852
-3.1016154 -1.0062208 -1.0941558
-3.0699837 -1.0860095 -1.1475999
-3.069468 -1.2460544 -1.1411602
-3.0424504 -1.3649333 -1.1844716
-3.0279539 -1.4504671 -1.2067096
-3.0213532 -1.4915721 -1.2167354
-3.0849915 -1.5159624 -1.1006982
-3.1332979 -1.5355643 -1.012567
-3.1578155 -1.529124 -0.96859145
-3.1682811 -1.5334532 -0.94949365
-3.1738806 -1.5373236 -0.93920445
-3.1788023 -1.5352839 -0.93041086
-3.192626 -1.5345091 -0.9054848
-3.2006893 -1.5373595 -0.8907932
-3.2216759 -1.5435195 -0.85261285
-3.224134 -1.5424998 -0.8482213
-3.2405329 -1.5357077 -0.81892228
-3.230067 -1.5313784 -0.83802009
-3.1886714 -1.4066429 -0.91851437
-3.2239394 -1.3321552 -0.85826015
-3.2241063 -1.3246591 -0.85830414
-3.2374244 -1.2465773 -0.83785081
-3.3210449 -1.2490765 -0.68673944
-3.3463814 -1.3289412 -0.63730991
-3.3155811 -1.4489237 -0.68740141
-3.3015029 -1.4883301 -0.71100819
-3.2814488 -1.5224752 -0.74564779
-3.3354559 -1.5050565 -0.64892793
-3.3674746 -1.5264531 -0.59012496
-3.3840401 -1.5121651 -0.56086993
-3.4374907 -1.5197328 -0.4640038
-3.4967632 -1.5211763 -0.35690665
-3.5565524 -1.4903765 -0.25036168
-3.5618472 -1.4806018 -0.24125063
-3.5827229 -1.4917591 -0.20304084
-3.6371846 -1.490245 -0.10476685
-3.6813667 -1.412375 -0.028571844
-3.6877332 -1.3727582 -0.018900394
-3.748368 -1.3129849 0.087837577
-3.7622628 -1.2522243 0.11012959
-3.7711902 -1.2366898 0.12553471
-3.7789726 -1.2520336 0.14029402
-3.8181062 -1.3187578 0.21403217
-3.8681643 -1.4787424 0.31179208
-3.8468437 -1.4875743 0.27369958
-3.8142688 -1.491164 0.21504295
-3.8056653 -1.4944185 0.19965726
-3.8029475 -1.4956218 0.19480497
-3.7717288 -1.4679365 0.13715708
-3.7391539 -1.4715261 0.078500628
-3.7286325 -1.4696954 0.059417725
-3.7016015 -1.4796542 0.011065125
-3.684797 -1.4931911 -0.018655777
-3.6685259 -1.5057316 -0.047459483
-3.6521828 -1.510025 -0.076773047
-3.6202297 -1.5220234 -0.13391924
-3.5933099 -1.5269849 -0.18230116
-3.5770781 -1.5262811 -0.21164405
-3.5553579 -1.5167096 -0.25130558
-3.5448368 -1.5148789 -0.27038836
-3.6471577 -0.85065615 -0.11621428
-3.6354289 -0.85064048 -0.13739419
-3.6339693 -0.8500843 -0.1400553
-3.5673141 -0.85170048 -0.2603426
-3.5105026 -0.84923708 -0.36304295
-3.4999685 -0.86628771 -0.38127959
-3.4284344 -0.92972577 -0.50752985
-3.4313476 -1.0475789 -0.49684131
-3.4517579 -1.0879409 -0.45812714
-3.5003071 -1.0883327 -0.37044168
-3.477452 -1.1479301 -0.40896714
-3.4668753 -1.1485982 -0.42803526
-3.4341173 -1.1694393 -0.48622787
-3.431689 -1.1690524 -0.49063051
-3.3616564 -1.1674241 -0.61716592
-3.3465052 -1.2640603 -0.64007437
-3.744427 -0.76008165 0.055257201
-3.7710688 -0.76761347 0.10371226
-3.738605 -0.76620585 0.045026422
-2.9790215 -0.37626356 -1.3445408
-3.0151739 -0.37933534 -1.2791178
-3.0161178 -0.28502727 -1.2817564
-3.01722 -0.25944763 -1.2809446
-3.0045638 -0.138143 -1.3093846
-2.6252615 -0.29406235 -1.9871244
-2.6277592 -0.21418101 -1.9862931
-2.6279216 -0.13434079 -1.9896767
-2.6332016 -0.13398245 -1.980159
-2.6839976 -0.05445987 -1.892097
-2.709805 0.10507292 -1.8528433
-2.6898489 0.14551014 -1.8907406
-2.6907554 0.1854862 -1.8909452
-2.6888542 0.30510092 -1.8998866
-2.6915731 0.42502922 -1.9005003
-2.6924796 0.46500528 -1.9007051
-4.8037963 1.4019047 1.8686304
-4.8304992 1.3967324 1.9170866
-4.8420448 1.4093395 1.9373543
-4.8201208 1.4062185 1.8979089
-6.1391211 -0.78147995 4.3804317
-6.1764598 -0.78096604 4.4478316
-6.2625561 -0.78263491 4.6033764
-6.2729282 -0.78951001 4.6224213
-6.2791538 -0.79706633 4.6340113
-6.2962432 -0.9420352 4.6715469
-6.2980351 -0.9971422 4.677321
-6.2951722 -1.0386045 4.6740608
-6.293961 -1.0419817 4.672029
-6.2718477 -1.0881993 4.6342268
-6.2550821 -1.1099595 4.6049542
-6.233387 -1.1170382 4.5661044
-6.2057676 -1.1163483 4.5162001
-6.1785583 -1.1501471 4.4686241
-6.1415625 -1.1356691 4.4011517
-6.1259375 -1.1074561 4.3716378
-6.0751195 -1.0748509 4.2783728
-6.0457788 -1.097141 4.2264175
-6.0657034 -1.0734048 4.2613029
-6.083745 -1.0691417 4.293685
-6.1550183 -1.0362229 4.4208698
-6.1205292 -0.88319743 4.3515444
-6.1004462 1.3561493 4.2121468
-6.1270785 1.348471 4.2605915
-6.1538844 1.3482894 4.3090043
-6.1319828 1.3568006 4.2690639
-6.1205044 1.3613743 4.248126
-6.1110544 1.3658645 4.2308545
-6.0947914 1.3573633 4.2018795
-6.0727415 1.3613722 4.1618791
-6.047708 1.3622299 4.1166353
-6.0471807 1.3616885 4.1157079
-5.99647 1.3637757 4.0240421
-5.9604397 1.35255 3.959497
-5.9389138 1.3693447 3.9198537
-5.956615 1.3627124 3.9521227
-5.9656053 1.3641449 3.9682913
-5.150002 1.4026974 2.4937506
-5.176404 1.3850033 2.5422397
-5.1871004 1.3904668 2.5613031
-5.1977968 1.3959303 2.5803671
-5.2082615 1.3913983 2.5994718
-2.9971929 0.66279209 -1.3595815
-2.9980314 0.58301127 -1.3543932
-3.0056953 0.54212213 -1.3386707
-3.0060329 0.42205048 -1.3325317
-2.9943588 0.30334538 -1.3481452
-3.0037456 0.26222903 -1.3293014
-3.3563631 -1.366504 -0.61755598
-3.4401045 -1.4022968 -0.46469223
-3.4590337 -1.5009063 -0.42596972
-6.5248799 -0.82065368 5.0788145
-6.5257359 -0.78317368 5.0786338
-6.4933386 -0.71932948 5.0171938
-6.4821854 -0.7598058 4.9989166
-6.4469814 -0.80043483 4.9372187
-6.4074969 -0.80585521 4.8661704
-6.4126287 -0.84048724 4.8770323
-6.4284148 -0.84071589 4.9055481
-6.4638104 -0.89655006 4.9720345
-6.4771676 -0.87998104 4.9953909
-1.2736294 0.22777617 -4.4518499
-1.2751796 0.26779896 -4.4508939
-1.2779419 0.27298295 -4.4461451
-1.2884922 0.27123272 -4.4270134
-3.0134485 -0.40496197 -1.2810533
-2.6793137 -0.79818702 -1.8663032
-2.6826391 -0.64328253 -1.8674324
-2.6733217 -0.58412844 -1.8869815
-2.6670969 -0.4488067 -1.904454
-2.6608071 -0.41101491 -1.917552
-2.6214104 -0.33435565 -1.9922225
-1.8290019 1.3802402 -3.50207
-1.8127885 1.3809922 -3.5313816
-1.7806942 1.366255 -3.5886564
-1.791189 1.3620062 -3.5695105
-1.8447158 1.3570017 -3.4726243
-1.8464046 1.3570311 -3.4695764
-1.8666475 1.3597463 -3.4331479
-1.8934662 1.3597425 -3.3847203
-1.9252832 1.3619871 -3.3273702
-1.9480987 1.365786 -3.2863469
-1.9270363 1.366851 -3.324429
-1.9041829 1.3654877 -3.365633
-1.8945518 1.3684006 -3.3831587
-1.8783095 1.3691753 -3.4125237
-1.8676367 1.3634615 -3.4315324
-6.0679855 1.357545 4.1534662
-6.0630646 1.3558151 4.1446605
-6.0573516 1.3545301 4.1344032
-6.0467758 1.3540142 4.1153307
-3.0116711 0.58186471 -1.3297107
-3.0194478 0.50095165 -1.3119416
-3.0174017 0.38106394 -1.3101149
-3.01824 0.30128312 -1.3049266
-3.0186591 0.26139265 -1.3023326
-3.0197864 0.22132194 -1.2984517
-1.730361 1.3835961 -3.6803441
-1.7645366 1.3695055 -3.6179829
-1.7526541 1.382562 -3.6400409
-1.7486558 1.3852485 -3.6473842
-1.7324426 1.3860006 -3.6766958
-6.0636249 -0.77669156 4.2438846
-6.0680184 -0.77667153 4.2518167
-6.0960159 -0.78314418 4.3026714
-6.0468488 -0.77789497 4.2136464
-6.0362639 -0.77850658 4.194562
-6.0200362 -0.77787262 4.1652298
-6.0676231 -0.85299993 4.2546186
-6.093791 -0.88059199 4.3031416
-4.2360945 -1.1770344 0.96228254
-4.2666535 -1.1773736 1.0174799
-4.3054004 -1.1429124 1.0858593
-4.343297 -1.1556864 1.1548783
-4.3606014 -1.0991606 1.1835227
-4.3500538 -1.0711915 1.1631883
-4.3401999 -1.0393772 1.1439296
-4.3249135 -0.99619651 1.1143377
-4.3311405 -0.89892554 1.1211021
-4.3230247 -0.89857364 1.1064308
-4.2626381 -1.1296797 1.008032
-4.2088537 -1.1371038 0.91125357
-4.1951623 -1.2776957 0.89300567
-5.1811757 -1.5399871 2.6855664
-5.150044 -1.5386426 2.6292887
-5.1218538 -1.5411956 2.5785024
-5.1543088 -1.5424635 2.6371658
-4.9140501 -1.4702909 2.1999979
-4.8919063 -1.4698138 2.1599901
-4.8658147 -1.4815351 2.1134148
-4.8811026 -1.4804206 2.1409698
-4.8973846 -1.4785557 2.1702852
-4.9089041 -1.4796879 2.1911387
-4.9136124 -1.4791896 2.1996169
-4.9575529 -1.49597 2.2797356
-4.9720473 -1.5290543 2.3074319
-4.9927349 -1.539227 2.3452566
-5.0043192 -1.5378321 2.3661103
-5.0204821 -1.5409716 2.3954415
-5.0251899 -1.5404949 2.4039202
-5.0366998 -1.5416126 2.4247558
-4.9993086 -1.4979935 2.3552277
-4.9674559 -1.469239 2.296386
-4.9627581 -1.4697145 2.287925
-4.9464312 -1.4740711 2.2586436
-4.9348364 -1.4754674 2.237771
-1.8816853 -1.0397377 -3.295486
-1.8835571 -0.99980724 -3.2939448
-1.8700719 -0.9191817 -3.3220091
-1.8581431 -0.83990502 -3.3472004
-6.5351295 -1.5453722 5.1306996
-6.5034437 -1.5497334 5.0736842
-6.4816527 -1.5401613 5.0338945
-6.4922523 -1.5370418 5.0528917
-2.8120987 -0.88291109 -1.6226261
-2.7973924 -0.96195507 -1.6455414
-2.8030677 -1.0423051 -1.631593
-2.8083105 -1.0827606 -1.6202624
-2.8026652 -1.1297747 -1.6282914
-2.8006959 -1.1598573 -1.6304617
-2.7804818 -1.2175261 -1.6643069
-2.768631 -1.2501438 -1.6842048
-2.7609687 -1.3642421 -1.6927855
-2.7496233 -1.4405785 -1.7097569
-2.7577431 -1.509163 -1.691936
-2.7500975 -1.5115095 -1.7056339
-2.691442 -1.5295309 -1.8107202
-2.6689935 -1.5417585 -1.8506937
-2.6370993 -1.5153342 -1.9095032
-2.6479721 -1.5020329 -1.8904819
-2.6931782 -1.3988184 -1.8136053
-2.6958189 -1.3714213 -1.8100986
-2.6976542 -1.2889662 -1.8105822
-2.6978767 -1.2789717 -1.8106406
-2.7421408 -1.2247412 -1.7332089
-2.7584634 -1.167186 -1.7063851
-2.7621298 -1.0868418 -1.703465
-4.3053083 -1.058084 1.0817858
-5.1066928 -1.5395763 2.5510511
-5.111269 -1.5418074 2.5594172
-5.1161566 -1.5424488 2.5682719
-4.1310515 -1.4936339 0.78718317
-4.0939441 -1.4817728 0.7196306
-4.0830894 -1.494934 0.70063555
-4.1095643 -1.5099616 0.74913454
-4.1488247 -1.4980322 0.81947964
-4.1635709 -1.4925429 0.84585434
-4.2038889 -1.4970399 0.91886485
-4.2054725 -1.4966158 0.92170542
-4.2277651 -1.4919466 0.96174502
-4.2478523 -1.4973972 0.99826765
-4.2655501 -1.5097178 1.0307933
-4.2438302 -1.5001463 0.99113166
-4.2062221 -1.5107729 0.92371094
-4.1660709 -1.4987799 0.85065639
-3.9706442 -1.4734296 0.49659908
-3.9173605 -1.4583662 0.3996889
-3.9111786 -1.4533439 0.38829458
-3.8951399 -1.4712824 0.36015922
-3.9753437 -1.4813844 0.50545132
-3.9220042 -1.4688196 0.40855581
-3.8843405 -1.4819449 0.34114957
-1.8779421 -1.1195983 -3.2985668
-1.8842561 -1.1994257 -3.2834892
-1.8713138 -1.2393445 -3.3050213
-1.8559518 -1.3199692 -3.3290477
-1.8584449 -1.4401202 -3.3190126
-1.9112403 -1.5324943 -3.2194233
-1.8893609 -1.5327442 -3.2589207
-1.8680978 -1.5368606 -3.2971263
-1.8625407 -1.5328332 -3.3073468
-1.8142965 -1.5445342 -3.3939242
-1.807868 -1.542514 -3.4056253
-4.3672414 -1.5034922 1.214134
-4.3403215 -1.5084536 1.1657521
-4.3728409 -1.5073625 1.2244233
-4.2865372 -1.5158778 1.0689737
-4.2971697 -1.5127112 1.0880274
-4.2923031 -1.5122523 1.079219
-4.5802388 -1.5026023 1.5987105
-4.5589299 -1.5088598 1.5605202
-4.5752025 -1.5070019 1.5898185
-4.5953121 -1.503873 1.6259871
-4.6150746 -1.5011022 1.6615461
-4.5908384 -1.5019722 1.6178221
-2.6766796 -0.96812725 -1.8632331
-2.6750033 -0.96813285 -1.8662596
-2.6771142 -0.90062386 -1.8655567
-2.5881848 -1.525667 -1.9973536
-2.583298 -1.5230079 -2.0063007
-2.5776339 -1.5239774 -2.0164838
-5.4875598 -1.5352268 3.2385967
-5.4770298 -1.5333397 3.2194953
-5.4982543 -1.5296174 3.2576497
-2.513335 -1.5274633 -2.1324301
-2.5294967 -1.5306816 -2.1030982
-2.5344911 -1.5283438 -2.0941873
-2.5322015 -1.5279808 -2.0983384
-4.6289468 -1.5020258 1.6866374
-4.6362286 -1.4997662 1.6996825
-4.6199408 -1.5015612 1.6703542
-4.625596 -1.5029329 1.680629
-1.5867119 -1.554724 -3.8044124
-1.6513982 -1.5652275 -3.6871223
-1.6730807 -1.55811 -3.6482973
-1.6923037 -1.5567539 -3.6136484
-1.672776 -1.5562357 -3.6489339
-1.6540637 -1.5566078 -3.6827064
0 0 0 1 0 0 0 1 0 0 0 1 0 0 0 0 0 872 1 0 0
