ply
format ascii 1.0
comment PCL generated
element vertex 527
property float x
property float y
property float z
element camera 1
property float view_px
property float view_py
property float view_pz
property float x_axisx
property float x_axisy
property float x_axisz
property float y_axisx
property float y_axisy
property float y_axisz
property float z_axisx
property float z_axisy
property float z_axisz
property float focal
property float scalex
property float scaley
property float centerx
property float centery
property int viewportx
property int viewporty
property float k1
property float k2
end_header
-9.4748669 1.3669872 3.8114662
-9.5048828 1.3622174 3.7289402
-9.5228033 1.3671303 3.6763268
-9.5471163 1.3778214 3.6032088
-9.5432243 1.3822381 3.6122706
-9.5361042 1.3812957 3.6327405
-9.5186996 1.3789917 3.6827769
-9.5107889 1.3779445 3.7055209
-9.4628267 1.3926966 3.8343172
-9.4501352 1.4011266 3.8664477
-9.4324427 1.4100186 3.9124711
-9.4205418 1.3910068 3.9541979
-9.4015083 1.3797444 4.0126839
-9.3765278 1.3739467 4.0855765
-9.406209 1.3716235 4.0029383
-9.4185324 1.3757457 3.9664354
-9.4268246 1.3830956 3.9399035
-9.4565058 1.3807725 3.8572648
-8.9223137 -0.6116814 6.2210932
-8.920311 -0.53222936 6.1925011
-8.9601231 -0.60744041 6.1127219
-8.9838648 -0.72928739 6.0983257
-8.9823732 -0.74194372 6.1079817
-8.9805164 -0.7695967 6.1251297
-8.9754601 -0.8798908 6.186903
-9.0123672 -0.96298802 6.1187077
-9.0188284 -1.0086027 6.1201577
-9.0268545 -1.0673164 6.122839
-9.0270948 -1.1220922 6.1457653
-9.0308647 -1.161447 6.1521015
-9.0103054 -1.2376447 6.2428684
-8.9965611 -1.154785 6.2458935
-8.9888725 -1.1166204 6.251112
-8.9715652 -0.99822867 6.2488699
-8.9699278 -0.96325302 6.2384129
-8.967309 -0.92766929 6.2304587
-8.9621449 -0.88536131 6.2267818
-8.9617233 -0.80569714 6.1936412
-8.9353619 -0.72519445 6.2332382
-8.9305573 -0.68676364 6.230217
-8.9260254 -0.64868867 6.2265806
-10.473 1.3859406 0.99068069
-10.477365 1.3802663 0.98082232
-10.506379 1.3828365 0.89795804
-10.524405 1.371498 0.8520472
-10.528331 1.384522 0.83537412
-10.548432 1.4668415 0.74326038
-10.550806 1.4671555 0.73643732
-10.549196 1.4681146 0.74056005
-10.531789 1.4771425 0.78572083
-10.260435 0.13853678 2.127162
-10.278658 -0.018467754 2.1434646
-10.271482 0.14117163 2.0948954
-10.257652 0.21787694 2.1008162
-10.830241 0.98838186 0.15532184
-10.82113 1.066884 0.14717102
-10.820309 1.1160079 0.12831616
-10.823473 1.0796988 0.13504624
-10.836622 0.99821413 0.13310361
-10.840715 0.95616627 0.13968897
-10.847953 0.85870934 0.1612885
-10.85242 0.83190095 0.16025257
-10.871214 0.72107816 0.15504479
-10.878909 0.63535464 0.17030025
-10.89124 0.55493391 0.17020583
-10.902123 0.47979239 0.1719141
-10.910529 0.35880151 0.20036387
-10.918414 0.3037754 0.20185423
-10.92076 0.30525813 0.19460511
-10.921549 0.31669459 0.18745542
-10.91465 0.34313133 0.19550443
-10.630703 1.3743349 0.55129266
-10.623414 1.3596452 0.57816195
-10.618713 1.3677661 0.58790779
-10.639782 1.4263797 0.50328398
-10.652699 1.4282849 0.46606469
-10.532773 0.43481085 1.2320826
-10.536538 0.39545497 1.2384324
-10.541884 0.35630861 1.2402337
-10.551978 0.31779048 1.2283885
-10.522956 0.18188158 1.3687332
-10.503586 0.22112569 1.4064031
-10.456173 0.26056489 1.5230147
-10.39501 0.2997472 1.678481
-10.343449 0.26205525 1.8400147
-10.370183 0.066322982 1.8490204
-10.377767 -0.051454157 1.8784002
-10.388243 -0.16845797 1.8992982
-10.398664 -0.24639617 1.9035169
-10.407502 -0.30618137 1.9043704
-10.431672 -0.38386258 1.8697342
-10.448368 -0.40353182 1.8311634
-10.465064 -0.42320418 1.7925935
-10.490707 -0.40417933 1.7121344
-10.514524 -0.40454355 1.6451806
-10.518752 -0.40437448 1.6331927
-10.546797 -0.40456977 1.5542507
-10.560819 -0.40466738 1.5147798
-10.602763 -0.40536729 1.3968878
-10.63093 -0.4051556 1.317425
-10.649754 -0.42532784 1.2730739
-10.68129 -0.46452427 1.2010982
-10.748892 -0.54427159 1.0449681
-10.782283 -0.58361328 0.96782756
-10.815674 -0.62295502 0.89068651
-10.794559 -0.46672383 0.88286591
-10.855995 -0.50626069 0.72678351
-10.922205 -0.54633802 0.5574801
-10.915686 -0.42881069 0.52521014
-10.976849 -0.46799299 0.36974359
-10.998237 -0.62457877 0.37694812
-11.022679 -0.70261455 0.34169555
-11.030263 -0.66214716 0.30288839
-11.009149 -0.50591612 0.29506731
-10.993108 -0.38847682 0.28966379
-10.969211 -0.31115019 0.32368398
-10.966537 -0.29157534 0.32278323
-10.95557 -0.21292789 0.3197968
-10.940294 -0.1790034 0.3482244
-10.88486 -0.099208534 0.47004843
-10.890152 -0.13601762 0.47099781
-10.89417 -0.24992037 0.50875688
-10.830462 -0.21346778 0.67257094
-10.820041 -0.13552956 0.66835237
-10.817423 -0.099929512 0.6603899
-10.80962 -0.057591349 0.66413403
-10.816604 -0.13559385 0.67806602
-10.811912 -0.17528765 0.70839238
-10.827406 -0.2920177 0.71502805
-10.773445 -0.31049269 0.8750453
-10.745783 -0.21217275 0.91062903
-10.740436 -0.1730264 0.90882778
-10.744037 -0.095185697 0.86513853
-10.719321 -0.016795218 0.90100694
-10.669343 0.14069504 0.97397661
-10.663394 0.23094788 0.95185232
-10.666559 0.26809511 0.92692733
-10.680991 0.38331601 0.83661032
-10.675644 0.42246249 0.83480906
-10.66495 0.50075531 0.8312068
-10.619228 0.62051773 0.90844202
-10.580516 0.62438083 1.0158637
-10.542159 0.58765495 1.1397743
-10.537112 0.58854997 1.1536107
-10.50537 0.6354363 1.2228513
-10.50522 0.63160706 1.224925
-9.7629757 -1.2835259 4.1417007
-9.7278395 -1.1271973 4.1733508
-9.7609577 -1.1661843 4.0968266
-9.762022 -1.1664343 4.0939355
-9.7954407 -1.2069446 4.017221
-9.8112907 -1.2060188 3.9721591
-9.8431273 -1.2467384 3.8999932
-9.8765182 -1.2860801 3.8228524
-9.8984518 -1.4433752 3.8288248
-9.9387455 -1.4470288 3.7168548
-9.9870243 -1.487965 3.5984509
-9.9906607 -1.4866538 3.5876386
-10.004628 -1.4844141 3.5473161
-10.040579 -1.4780189 3.443254
-10.045766 -1.4789686 3.4290476
-10.068361 -1.4647933 3.3592672
-10.090942 -1.439777 3.2848577
-10.098392 -1.4047982 3.248796
-10.102346 -1.4042747 3.2374241
-10.105512 -1.4038557 3.2283263
-10.117678 -1.4221722 3.2019346
-10.161873 -1.441329 3.0856545
-10.196383 -1.4740758 3.0025182
-10.208467 -1.4797045 2.9708912
-10.227782 -1.479883 2.9165418
-10.252361 -1.5065202 2.8587584
-10.279425 -1.5191532 2.7879419
-10.264997 -1.5309769 2.8336902
-10.260069 -1.5366608 2.8500259
-10.252339 -1.5326524 2.8700802
-10.230838 -1.5228494 2.9264441
-10.222657 -1.5303292 2.9527192
-10.204738 -1.5352422 3.0053325
-10.192414 -1.5393645 3.0418353
-10.16574 -1.5590613 3.1254871
-10.131045 -1.5200382 3.2064373
-10.125315 -1.5125909 3.2193766
-10.081644 -1.5202757 3.345746
-10.077719 -1.5332996 3.3624196
-10.069528 -1.5617837 3.3977735
-10.056747 -1.5684572 3.4366632
-10.040057 -1.5669054 3.4830244
-10.009374 -1.5572423 3.5653255
-9.9739885 -1.5394584 3.6573725
-9.9480047 -1.5379162 3.7299278
-9.9313145 -1.5363641 3.776289
-9.8889751 -1.5357167 3.895318
-9.8749809 -1.5276057 3.9312577
-9.8196487 -1.5261869 4.0865641
-9.797267 -1.400894 4.0956454
-9.7927113 -1.3616428 4.0915694
-9.0807304 -0.23060083 5.6104884
-9.0987349 -0.26804629 5.5758877
-9.1571579 -0.23016317 5.3949347
-9.2191772 -0.22459242 5.2177715
-9.2227106 -0.14439778 5.1732597
-9.2076931 -0.026046038 5.1645818
-9.2298288 -0.14344308 5.1527905
-9.245882 -0.26087099 5.1581531
-9.2745762 -0.36845025 5.1236534
-9.283637 -0.40788037 5.1151099
-9.3135529 -0.52972943 5.0833149
-9.3474913 -0.5697481 5.0049248
-9.3608685 -0.64924473 5.0014844
-9.3831892 -0.72675663 4.9719858
-9.4157219 -0.84746957 4.9323268
-9.4202538 -0.88554454 4.9359641
-9.4468889 -0.96640301 4.89575
-9.4775085 -1.0846248 4.8604074
-9.4835291 -1.1286601 4.8624182
-9.5051231 -1.1989319 4.8318472
-9.5142431 -1.2590692 4.8320618
-9.5435543 -1.3594992 4.7927418
-9.5700293 -1.446026 4.7554212
-9.5745277 -1.4740045 4.7548008
-9.5652895 -1.5212682 4.8012004
-9.553854 -1.5377408 4.8405209
-9.5371971 -1.510072 4.875536
-9.5098114 -1.4847836 4.9418092
-9.4857559 -1.5219824 5.0256233
-9.4590063 -1.4731487 5.0799575
-9.4502172 -1.3973548 5.0720663
-9.4166222 -1.3131119 5.130434
-9.3885202 -1.2371602 5.1768937
-9.3766098 -1.1527566 5.174088
-9.3627434 -1.0748957 5.1796103
-9.3564129 -1.0023047 5.1661696
-9.3424625 -0.95764244 5.1862364
-9.3214512 -0.9162823 5.2276211
-9.3068085 -0.88371921 5.2548504
-9.2409906 -0.79336202 5.4013839
-9.234477 -0.79737604 5.4214678
-9.197257 -0.67964685 5.4756222
-9.2613039 -0.68126231 5.2958403
-9.2635021 -0.63718188 5.2706532
-9.2520084 -0.55900282 5.2693524
-9.2088804 -0.48506674 5.359024
-9.179204 -0.55620676 5.4733028
-9.1829729 -0.59556144 5.4796391
-8.7296915 0.35681537 6.3465586
-8.7657213 0.46757933 6.1973038
-8.7659502 0.4949092 6.1848822
-8.7643242 0.50725234 6.184145
-8.7597799 0.53511941 6.1849442
-8.7555218 0.57283866 6.1806908
-8.6988745 0.5296669 6.3589182
-8.6781139 0.65523529 6.3633099
-8.67309 0.70059752 6.3579206
-8.6653662 0.73942196 6.3629565
-8.6580162 0.78457689 6.3642125
-8.6554546 0.81781316 6.3571076
-8.6510239 0.85339463 6.3542619
-8.6324244 0.98672664 6.3492212
-8.6096163 1.0258831 6.3966198
-8.6125937 1.013962 6.3933668
-8.6356659 0.86326253 6.3932867
-8.6378746 0.82821274 6.4021654
-8.6663456 0.70597351 6.3746099
-8.6744871 0.66092455 6.3710799
-8.6941214 0.53769648 6.3688502
-8.7030535 0.49275371 6.3630462
-8.7172928 0.42122337 6.353744
-8.7197094 0.4089866 6.3522062
-10.976713 -1.0697317 0.62941027
-10.937191 -1.1309836 0.76717401
-10.881148 -1.1034797 0.91324329
-10.877827 -1.1263374 0.93245173
-10.879185 -1.1834481 0.95323586
-10.864944 -1.1853333 0.9941752
-10.833524 -1.2056583 1.0914729
-10.820866 -1.2073339 1.1278632
-10.810738 -1.1862566 1.1473196
-10.763843 -1.146358 1.2622731
-10.73084 -1.1668925 1.3641202
-10.679163 -1.145063 1.500331
-10.657721 -1.1443845 1.5604619
-10.636824 -1.1444155 1.6193601
-10.627821 -1.1256799 1.6366547
-10.630119 -1.0481582 1.5967747
-10.624438 -1.006565 1.5948611
-10.68402 -1.0275928 1.4360294
-10.692804 -1.0299468 1.4122888
-10.725159 -1.1252993 1.3622065
-10.75484 -1.1276225 1.2795677
-10.789351 -1.0296708 1.140115
-10.779637 -0.98485017 1.1481726
-10.77078 -0.93498456 1.1516454
-10.747428 -0.85836709 1.1844332
-10.741747 -0.81677413 1.1825194
-10.774101 -0.91212678 1.1324372
-10.821788 -0.95192087 1.0152094
-10.847296 -0.83523369 0.89305139
-10.826424 -0.96498191 1.0077736
-10.862164 -1.0325367 0.93617296
-10.917213 -1.0225141 0.77673006
-9.6061125 -0.96709096 4.4473724
-9.5788469 -0.9278934 4.5073142
-9.5767164 -0.92739272 4.5131016
-9.543602 -0.88842344 4.5896225
-9.541441 -0.93415213 4.615416
-9.5444841 -0.96626651 4.6206799
-9.5560064 -1.0456195 4.6224046
-9.581275 -1.1246985 4.5852742
-9.5906115 -1.2012044 4.5919323
-9.6120501 -1.2771871 4.5642595
-9.6127186 -1.2820799 4.5644855
-9.6183968 -1.3236694 4.5664043
-9.6422253 -1.3988882 4.5316715
-9.6459217 -1.4358959 4.5372024
-9.6513691 -1.4973234 4.5483203
-9.6590014 -1.5113066 4.5328374
-9.6830568 -1.4741077 4.4490232
-9.6855516 -1.4707729 4.4405584
-9.7467136 -1.5099553 4.2850924
-9.6815681 -1.4333993 4.4356771
-9.6784048 -1.3970902 4.4289465
-9.6715126 -1.362552 4.433486
-9.668973 -1.3431586 4.4322844
-9.6593647 -1.284657 4.4341516
-9.6582708 -1.2648735 4.4287095
-9.6384764 -1.1645683 4.441267
-9.6288643 -1.1254499 4.4514961
-9.6226997 -1.0852396 4.4515429
-9.6165333 -1.045029 4.451591
-9.612278 -1.0073012 4.4473252
-10.292325 -0.13622114 2.1556911
-10.30381 -0.21440932 2.1570191
-10.305012 -0.22050244 2.1562581
-10.313712 -0.29280695 2.1628962
-10.317177 -0.31227696 2.1615229
-10.325197 -0.3709951 2.1642237
-10.334009 -0.42961156 2.1646516
-10.339791 -0.46479273 2.1635165
-10.34623 -0.50535768 2.1628532
-10.359106 -0.58648771 2.1615262
-10.371164 -0.66655374 2.1620481
-10.380549 -0.70868254 2.1537547
-10.389061 -0.74741006 2.1464586
-10.398172 -0.82591236 2.1546097
-10.398336 -0.74813598 2.1206338
-10.393263 -0.70934427 2.1182165
-10.42903 -0.60145837 1.9709394
-10.362546 -0.47623873 2.1043291
-10.356926 -0.43673775 2.1031437
-10.354523 -0.42455107 2.1046641
-10.346502 -0.36582989 2.1019619
-10.344102 -0.34661284 2.1004455
-10.341702 -0.32739261 2.0989285
-10.338756 -0.30746639 2.0986447
-10.336082 -0.28789154 2.0977435
-10.330735 -0.24874517 2.0959423
-10.320042 -0.17045222 2.09234
-10.314694 -0.13130587 2.0905387
-10.30962 -0.092514023 2.0881219
-10.304546 -0.053722292 2.0857043
-10.076988 1.3860267 2.1065574
-10.052675 1.3753356 2.1796753
-10.069698 1.3713368 2.1334267
-10.087684 1.3811908 2.0785022
-10.08998 1.3852556 2.0702796
-10.083652 1.3844182 2.0884733
-8.776228 0.068982422 6.3394499
-8.762146 0.089514911 6.370285
-8.7688704 0.12280345 6.3369923
-8.9799347 -0.35035518 5.9461207
-8.9785967 -0.3313905 5.9417191
-8.9883299 -0.31093892 5.9054785
-8.9941101 -0.30937842 5.8885174
-9.014185 -0.30825618 5.8314676
-9.0174065 -0.32854015 5.8311272
-9.0448332 -0.41847157 5.7925944
-9.0871124 -0.32441309 5.6329284
-9.0834332 -0.29750264 5.6316991
-8.5789156 1.304713 6.3629827
-8.5654125 1.3327969 6.3889341
-8.597106 1.3071527 6.3106742
-10.398744 -1.5295877 2.4562106
-10.413073 -1.5401455 2.4203835
-10.405676 -1.5385836 2.4405508
-9.1027136 -1.0369396 5.8959894
-9.1323776 -1.1539158 5.8628044
-9.1069698 -1.0379388 5.8844256
-10.288668 1.5035703 1.4594212
-10.349583 1.5116339 1.2842934
-10.359622 1.5029993 1.2597253
-10.404342 1.390577 1.1821523
-10.418002 1.3849126 1.1461
-10.434358 1.3858072 1.0996261
-10.415079 1.3645486 1.1631107
-10.385397 1.3668716 1.2457497
-10.358304 1.3920053 1.3112648
-10.331318 1.4008875 1.3834827
-10.317074 1.3690614 1.4373338
-10.2744 1.3721555 1.5562505
-10.253344 1.3793815 1.6124698
-10.265333 1.3859504 1.5758544
-10.279882 1.5059243 1.4831616
-9.7169876 1.3846281 3.1215987
-9.7366171 1.3812666 3.0677333
-9.7481833 1.3843607 3.0338075
-9.7556286 1.3847615 3.0126534
-9.7423029 1.3879793 3.0488183
-9.736372 1.3896351 3.0648162
-9.7308254 1.3908061 3.0799434
-9.7148037 1.3874646 3.1265299
-9.6971111 1.3963566 3.1725535
-9.6939468 1.3959377 3.1816511
-9.6778326 1.375098 3.2360384
-9.6665115 1.3636359 3.2728786
-9.6358271 1.373299 3.3551798
-9.6204739 1.3650641 3.4019911
-9.6125164 1.3552678 3.4286354
-9.6190662 1.3467572 3.413846
-9.6443825 1.3501083 3.3410656
-9.6592226 1.3489461 3.2997482
-9.6727276 1.3575716 3.2579765
-9.680685 1.3673681 3.2313323
-9.6960382 1.3756027 3.1845205
-9.7028141 1.3808959 3.1631453
-10.835861 0.94888079 0.15650702
-10.842792 0.8251555 0.19029093
-10.846679 0.79997981 0.19018412
-10.848684 0.7852999 0.19085979
-10.853212 0.74721742 0.19450951
-10.858831 0.70771635 0.19569445
-10.870071 0.62871408 0.19806433
-10.877001 0.58977711 0.19531631
-10.886658 0.51056564 0.20223546
-10.891078 0.46582577 0.20905685
-9.0124731 1.1269683 5.2178597
-9.0171757 1.1369307 5.2003164
-9.0034704 1.1456909 5.2351604
-8.7603903 1.3313353 5.8401384
-8.7563524 1.3345832 5.8501167
-8.7416916 1.3475643 5.8858347
-8.7300415 1.3385279 5.9225588
-8.71873 1.308942 5.9671822
-8.6950893 1.3114184 6.0327301
-8.6766558 1.2989808 6.0900345
-8.6733074 1.2586713 6.1168394
-8.6823683 1.2192413 6.1082964
-8.6937304 1.1722692 6.0965176
-8.7100964 1.1369592 6.0656166
-8.7127132 1.1380953 6.0577526
-8.73841 1.1364388 5.9860554
-8.753891 1.1223902 5.9484873
-8.7653284 1.1388718 5.9091539
-8.777216 1.1665722 5.8637209
-8.7673092 1.2176805 5.8696146
-8.7629051 1.2979881 5.8474207
-10.366032 -1.5313771 2.5491586
-10.350011 -1.5347184 2.5957448
-10.336016 -1.5266074 2.6316848
-10.323359 -1.5282829 2.6680748
-10.339742 -1.5193748 2.6180699
-10.447879 0.10630226 1.6128582
-10.40412 0.026272148 1.7706475
-10.468174 -0.048864931 1.6225274
-9.1413746 -0.91806102 5.7358227
-9.1698093 -1.0334357 5.7054124
-9.2197189 -0.99355423 5.5475874
-9.2138214 -0.95369971 5.5470333
-9.1785154 -0.87518191 5.6126885
-9.1665621 -0.7998122 5.6138945
-9.1466446 -0.75987566 5.652812
-9.1288242 -0.68254519 5.6697063
-9.0988388 -0.60527623 5.7209072
-9.0684338 -0.48506275 5.7547846
-9.1037169 -0.38695917 5.6130896
-9.1364069 -0.48497409 5.5632067
-9.161129 -0.5633415 5.5273094
-8.9896011 -0.42956424 5.953011
-8.9916344 -0.52855098 5.9899359
-8.9924345 -0.52883619 5.9878035
-9.0156336 -0.52572453 5.9210901
-9.061945 -0.63790053 5.8389254
-9.0676937 -0.64460337 5.8256145
-9.1064959 -0.76212025 5.7669115
-9.1255941 -0.80098915 5.7298441
-9.7768621 1.3893777 2.9508309
-9.7903671 1.3980032 2.9090595
-9.7981462 1.3959562 2.8880217
-9.7999954 1.3955663 2.8829777
-9.8205853 1.3876927 2.8283517
-9.8278275 1.3936332 2.8053827
-9.8323727 1.3998023 2.7899177
-9.8583565 1.3982602 2.7173626
-9.871027 1.3912442 2.6846833
-9.8880386 1.3959372 2.6347237
-9.8956394 1.3820479 2.6192887
-9.8937902 1.3824378 2.6243324
-9.8807983 1.383209 2.6606102
-9.8551483 1.3823044 2.7332778
-9.8533001 1.3826953 2.7383177
-9.8409767 1.3785731 2.7748206
-9.8174763 1.384937 2.8382995
-9.8103008 1.3863313 2.857919
-9.7976341 1.3865607 2.8935118
-9.776474 1.3849801 2.9538217
-9.9398565 1.3890234 2.4916871
-9.9540014 1.3847417 2.4536734
-9.9667816 1.3914154 2.4147837
-9.987381 1.3816377 2.3609509
-9.9962177 1.3882782 2.3331869
-9.973052 1.3921955 2.3967783
-9.9693537 1.3929764 2.406862
-9.9654446 1.3920199 2.4182904
-9.9427013 1.3994118 2.4791918
-10.294127 -1.5144717 2.7444928
-10.309363 -1.5201719 2.7040148
-10.316064 -1.5248538 2.6871533
-10.304359 -1.5221047 2.7189496
-10.298766 -1.5205005 2.7340181
-10.590728 -0.85410166 1.624159
-10.5806 -0.83302426 1.6436154
-10.585047 -0.81250846 1.6222453
-10.030266 1.380281 2.2406895
-10.020607 1.3860362 2.2654269
-10.033918 1.3936595 2.2246327
-10.015953 1.4029061 2.2712719
-10.007129 1.3967561 2.29879
0 0 0 1 0 0 0 1 0 0 0 1 0 0 0 0 0 527 1 0 0
