ply
format ascii 1.0
comment PCL generated
element vertex 838
property float x
property float y
property float z
element camera 1
property float view_px
property float view_py
property float view_pz
property float x_axisx
property float x_axisy
property float x_axisz
property float y_axisx
property float y_axisy
property float y_axisz
property float z_axisx
property float z_axisy
property float z_axisz
property float focal
property float scalex
property float scaley
property float centerx
property float centery
property int viewportx
property int viewporty
property float k1
property float k2
end_header
-2.7503574 1.3968581 -4.6471734
-2.7421021 1.3746194 -4.6812062
-2.7720251 1.3202039 -4.6708894
-2.8159807 1.2424617 -4.6538982
-2.8471277 1.1989202 -4.6321917
-2.8526578 1.2237804 -4.6010523
-2.839849 1.2579812 -4.5963364
-2.8345768 1.362642 -4.518559
-2.8204539 1.3741959 -4.5352573
-2.7922082 1.3973035 -4.5686541
-2.7779701 1.3923864 -4.5993567
-9.2093573 -1.5787107 4.9223523
-9.1796951 -1.582713 4.863615
-9.205245 -1.5641742 4.9268441
-9.2209263 -1.538939 4.9772515
-9.2550144 -1.542763 5.0377007
-9.2600193 -1.4609152 5.1155691
-9.2522383 -1.3437772 5.1991096
-9.2551842 -1.3289938 5.2169862
-9.2551126 -1.2882208 5.250988
-9.2047386 -1.1442516 5.2774572
-9.2102871 -1.0859402 5.336637
-9.1959648 -1.0359631 5.3517332
-9.1907673 -1.0219477 5.3537626
-9.176466 -0.96700168 5.3730597
-9.1441364 -0.89997667 5.3688054
-9.1198692 -0.77827597 5.4253798
-9.1009007 -0.69941151 5.4559855
-9.1016273 -0.69542003 5.4606843
-9.1005917 -0.65154397 5.4954839
-9.1181297 -0.62316608 5.5519881
-9.103425 -0.54326224 5.5914268
-9.0843811 -0.44282797 5.6399503
-9.0781975 -0.39925358 5.6648846
-9.0515919 -0.28479755 5.7110281
-9.0529737 -0.23604152 5.7544265
-9.0502663 -0.19920519 5.7802095
-9.0593529 -0.14384592 5.8435235
-9.0382042 -0.076955914 5.8600349
-9.0245352 -0.040927887 5.8646731
-9.0208464 0.0051620305 5.8963728
-9.0044527 0.084177047 5.9319119
-9.0024538 0.13115576 5.9675107
-8.9958591 0.16127977 5.9804173
-8.9774132 0.21163914 5.9881334
-8.9652357 0.25446764 6.0012517
-8.9677391 0.29539141 6.0401869
-8.9448223 0.36375758 6.0546308
-8.9174824 0.43581364 6.0639071
-8.9102573 0.48485568 6.0914726
-8.9046497 0.57555926 6.156939
-8.8607597 0.67981708 6.1622705
-8.8554516 0.73578799 6.1992178
-8.8175011 0.81669986 6.1960921
-8.7889156 0.86172676 6.1804118
-8.7308989 0.95133615 6.1471014
-8.6927824 0.99856913 6.1154714
-8.6455841 1.1118191 6.1221514
-8.623702 1.1363091 6.1017952
-8.5436964 1.2447699 6.0432076
-8.5123091 1.2602657 5.9975715
-8.4857645 1.2763358 5.9614601
-8.4597139 1.3226956 5.9516296
-8.4460449 1.3587238 5.9562678
-8.366806 1.4265356 5.8650799
-8.3316813 1.4236059 5.79704
-8.3187943 1.3975781 5.7511854
-8.3270397 1.3179826 5.6999454
-8.3284264 1.3110598 5.6967392
-8.3135605 1.3096904 5.6678338
-8.3092966 1.3086507 5.6590023
-8.2894888 1.331392 5.6410532
-8.2508545 1.3595355 5.5924745
-8.2371445 1.3613725 5.5684123
-8.2282543 1.3669001 5.5564408
-8.2065001 1.3747085 5.5223565
-8.2245941 1.38562 5.5652776
-8.2350254 1.3846095 5.5839095
-8.2641897 1.4493743 5.6925883
-8.2659187 1.4490806 5.6955719
-8.2988701 1.466411 5.7716103
-8.3110981 1.5468111 5.8617525
-8.3105564 1.5541785 5.8669095
-8.367774 1.4578928 5.8931403
-8.3819237 1.4460849 5.9096766
-8.4238558 1.4463371 5.9881849
-8.4394016 1.4933035 6.0565343
-8.4680185 1.4401107 6.0654359
-8.4769974 1.4230329 6.0679054
-8.5208635 1.3452314 6.0846791
-8.5701208 1.3071303 6.1447563
-8.6182365 1.1970094 6.1424074
-8.6705513 1.1236519 6.178679
-8.6974468 1.0777364 6.1904593
-8.7229385 1.0095209 6.1809483
-8.77215 0.92610908 6.2030072
-8.8064451 0.85169625 6.2047472
-8.9028606 0.83512473 6.3709073
-8.9185352 0.79052639 6.3628392
-8.9304361 0.75597453 6.3561339
-8.9117775 0.6452899 6.2286282
-8.9224396 0.62211692 6.2291355
-8.9453564 0.55375123 6.2146916
-8.9709959 0.49394074 6.2124949
-8.9840927 0.46141246 6.2097158
-8.9807186 0.39587155 6.1485462
-9.0574665 0.2344918 6.1567473
-9.0666199 0.17924437 6.1275849
-9.0146971 0.17003158 6.0229187
-9.0547495 0.036660105 5.9860482
-9.047925 0.010114819 5.9510813
-9.061182 -0.074737012 5.904799
-9.0648003 -0.088138521 5.9003348
-9.0805206 -0.13088432 5.8939028
-9.0909948 -0.21604496 5.8421636
-9.1249352 -0.27981654 5.8521495
-9.1240501 -0.33779353 5.8019581
-9.1278496 -0.36712378 5.7844982
-9.1308155 -0.39800191 5.7641845
-9.128252 -0.44271228 5.7219653
-9.1386356 -0.51632214 5.6797285
-9.1470375 -0.54910469 5.6679726
-9.1755934 -0.67288208 5.6176662
-9.1876135 -0.78586411 5.5455232
-9.1974392 -0.91275465 5.4576364
-9.2108316 -0.94050598 5.4594116
-9.2299585 -1.0240998 5.4251404
-9.2337971 -1.1133277 5.3576074
-9.2492352 -1.1508319 5.3550367
-9.266202 -1.2019218 5.3439445
-9.273037 -1.2199357 5.3416257
-9.2768755 -1.3091635 5.2740917
-9.2889271 -1.3868536 5.2315531
-9.2865753 -1.4709154 5.1567855
-9.3145638 -1.5326668 5.1573491
-9.3205137 -1.5499427 5.153996
-9.2727261 -1.545383 5.0685811
-9.2546329 -1.5562944 5.0256605
-4.3631554 1.3768191 -1.652426
-4.4328361 1.3891088 -1.5120246
-4.3610687 1.3998247 -1.6370621
-4.3484497 1.4071144 -1.6545219
-4.3356776 1.397891 -1.6860929
-4.3011599 1.3701934 -1.7737358
-7.2654581 -0.84484822 1.9069645
-7.2068996 -0.80479753 1.8311505
-7.1206269 -0.68128902 1.7734578
-7.2069421 -0.84212029 1.7999835
-7.1866336 -0.92064404 1.6963217
-7.1829267 -0.96115804 1.6554813
-7.2227111 -1.0422884 1.6618476
-7.2360129 -1.0785549 1.656323
-7.27982 -1.0874099 1.7307088
-7.3415666 -1.1349667 1.8061918
-7.354331 -1.1256765 1.8378043
-7.37605 -1.1194346 1.8835851
-7.3897176 -1.1168084 1.9113047
-7.3851757 -1.046964 1.9612978
-7.3858733 -1.0287267 1.9778683
-7.361836 -0.96295911 1.9880452
-7.3214183 -0.92431521 1.944927
-6.7992477 1.3622192 2.8841851
-6.8410349 1.3779025 2.975343
-6.8833313 1.3656927 3.0440991
-6.9105735 1.3567631 3.0874918
-6.9218249 1.3703815 3.1199024
-6.8559375 1.3471473 2.9774218
-6.8698497 1.358552 3.0129473
-4.4460416 -1.1517749 -3.6145978
-4.407095 -1.1774324 -3.7088017
-4.3624072 -1.1528727 -3.7716842
-4.3317299 -1.1424257 -3.8202209
-4.297936 -1.1318367 -3.8744578
-4.2264247 -1.0170071 -3.9118528
-4.197835 -0.97334576 -3.9286842
-4.1208801 -0.84955025 -3.9687376
-4.0892944 -0.74917901 -3.9436855
-4.0576968 -0.73684967 -3.9923644
-4.0363526 -0.75578749 -4.0480747
-4.0303373 -0.75540799 -4.058989
-3.9603355 -0.69496757 -4.1391006
-3.8971801 -0.60842836 -4.1845779
-3.8316061 -0.49165216 -4.2092566
-3.7826779 -0.38970003 -4.2152643
-3.7775383 -0.37193573 -4.2099891
-3.7723987 -0.35417134 -4.2047138
-3.7351882 -0.27288795 -4.2061453
-3.6728938 -0.18580505 -4.2495594
-3.6617718 -0.1507189 -4.240953
-3.6514926 -0.11519018 -4.2304025
-3.5797625 0.0078640878 -4.2613206
-3.5947907 -0.088053465 -4.313561
-3.6302719 -0.13287613 -4.2848339
-3.6622534 -0.25294152 -4.325635
-3.7081358 -0.37063104 -4.3384895
-3.7487621 -0.45011082 -4.3291702
-3.8102326 -0.53753865 -4.2875829
-3.8542292 -0.61524135 -4.2704821
-3.8862283 -0.65828872 -4.2467709
-3.9470432 -0.71691728 -4.1822972
-3.9662366 -0.73594236 -4.1623859
-3.9763122 -0.74444538 -4.150691
-4.0552921 -0.82776374 -4.0729685
-4.1012459 -0.91272002 -4.0582867
-4.1049652 -0.92141145 -4.0586171
-4.1260099 -0.97023451 -4.0601954
-4.1596169 -1.0100672 -4.0307908
-4.1994781 -1.0923176 -4.0252194
-4.230207 -1.1350261 -4.0035958
-4.2518086 -1.1681879 -3.9910231
-4.2958484 -1.2160832 -3.9488873
-4.3495865 -1.337916 -3.9505429
-4.3663616 -1.3777362 -3.9525566
-4.4377556 -1.4209684 -3.8554392
-4.459486 -1.4376854 -3.8288574
-4.4720888 -1.4448557 -3.8113275
-4.5130634 -1.4714574 -3.7570877
-4.5506678 -1.4464234 -3.6659131
-4.564538 -1.4509466 -3.6437998
-4.5748825 -1.4525942 -3.625864
-4.6101441 -1.4503791 -3.558166
-4.6261387 -1.4468743 -3.5253654
-4.6787968 -1.452058 -3.4313788
-4.7183642 -1.445011 -3.3515964
-4.6481814 -1.346809 -3.4004312
-4.6399331 -1.3229836 -3.3958864
-4.6203575 -1.2883654 -3.4034562
-4.596601 -1.2731048 -3.43504
-4.5286679 -1.1814007 -3.4851146
-4.4891005 -1.1884474 -3.5648971
-4.4608946 -1.1654431 -3.5983062
-3.7461326 1.3263332 -2.846839
-3.7085593 1.3308088 -2.9132514
-3.6917706 1.3498 -2.9287009
-3.7186551 1.3474051 -2.8805058
-3.7322173 1.3431619 -2.8587337
-3.7488642 1.3328674 -2.8362679
-6.3820229 1.3743201 2.1152461
-6.4190993 1.3480633 2.1624949
-6.4542212 1.373914 2.2497194
-6.3981314 1.3854055 2.1546052
-6.3809581 1.3797953 2.1178417
-6.3401575 1.3907936 2.0508637
-6.3009229 1.4068493 1.9910436
-6.2605443 1.4190042 1.9258223
-6.2271895 1.4319707 1.8743954
-6.2246614 1.4306318 1.8685544
-6.2086082 1.4250475 1.8339032
-6.1973467 1.4114467 1.8014889
-6.1647177 1.3944868 1.7263622
-6.1534662 1.3808684 1.6939516
-6.1339068 1.3688271 1.6473479
-6.1615291 1.3642892 1.695127
-6.1884899 1.356352 1.7388253
-6.20432 1.3677018 1.7778863
-6.2193208 1.3873137 1.8223157
-6.2298288 1.403091 1.8551458
-6.2694969 1.4098841 1.9349037
-6.2844501 1.4021312 1.9563348
-6.3023734 1.3901041 1.9797332
-6.3277841 1.3751261 2.0146422
-8.3259363 -1.5794588 3.2721441
-8.2982807 -1.5748011 3.2244017
-8.2556248 -1.5729547 3.1462994
-8.2845421 -1.4657935 3.2900105
-8.3087416 -1.4698689 3.3317845
-8.3323135 -1.4127184 3.4236462
-8.3082371 -1.3284234 3.449261
-8.360343 -1.4330785 3.4589396
-8.4351788 -1.5770109 3.4781785
-8.4238567 -1.5702237 3.4627192
-8.3919792 -1.5677942 3.4052284
-8.3523169 -1.5462786 3.3491817
-8.970376 -1.5336996 4.5137935
-8.9321632 -1.5447494 4.4331894
-8.9171448 -1.5587854 4.3933959
-8.8789444 -1.5585899 4.3222289
-8.8610878 -1.5473106 4.2983294
-8.7850418 -1.4201412 4.2627969
-8.7915211 -1.5429661 4.1720667
-8.8646822 -1.5635403 4.2914519
-8.8922548 -1.596285 4.3155236
-8.8944702 -1.5914754 4.3236871
-8.9320374 -1.5727334 4.4095263
-8.9595871 -1.5941504 4.4430385
-9.003027 -1.5870308 4.5301123
-9.0562449 -1.5731902 4.6410728
-9.0676441 -1.5428431 4.6877651
-9.0974331 -1.5707784 4.7200003
-4.5941429 1.3747393 -1.2228522
-4.6629238 1.3726799 -1.096144
-4.7123666 1.397388 -0.9831354
-4.734025 1.4101422 -0.93201584
-4.7236457 1.4109393 -0.95072907
-4.6878753 1.4098032 -1.0184734
-4.6341062 1.414593 -1.1148641
-4.6048288 1.4069679 -1.1759171
-4.5920563 1.3977445 -1.2074881
-4.5666652 1.3958111 -1.2565191
-4.5523996 1.3909163 -1.2872546
-4.5121498 1.4027652 -1.3524921
-4.5403738 1.3795291 -1.319243
-4.5537395 1.370075 -1.3022008
-6.64887 -0.78684294 0.80419195
-6.6205239 -0.73409265 0.79542542
-6.6070528 -0.74126112 0.76426959
-6.5908518 -0.75698692 0.72085238
-6.5390854 -0.74155962 0.63710618
-6.4979925 -0.74421239 0.55815369
-6.4845209 -0.75138068 0.52699769
-6.4576464 -0.74902642 0.47878674
-6.4150591 -0.74735636 0.40066296
-6.3910599 -0.74095678 0.3612082
-6.3573012 -0.71663249 0.31853592
-6.32547 -0.71435696 0.26100332
-6.3059983 -0.75030756 0.19454712
-6.2798028 -0.76680577 0.13182074
-6.2261219 -0.74540603 0.04949975
-6.1879277 -0.69794029 0.017919064
-6.1825285 -0.72437185 -0.014290392
-6.0864859 -0.6660862 -0.14483172
-6.0592036 -0.67099684 -0.19988579
-6.0022864 -0.65073395 -0.28920144
-5.9814005 -0.64263409 -0.32141989
-5.9303665 -0.63136262 -0.40727669
-5.9133577 -0.63560998 -0.44259292
-5.898941 -0.6327312 -0.46710223
-5.897028 -0.65870988 -0.49242431
-5.8712502 -0.76643491 -0.63074571
-5.8493433 -0.76171637 -0.66770118
-5.8464231 -0.76240641 -0.67373139
-5.8008175 -0.75199836 -0.75017577
-5.7712464 -0.73255825 -0.78911823
-5.7568274 -0.7293399 -0.81334764
-5.6678572 -0.71501338 -0.96748501
-5.6513696 -0.71346426 -0.99697453
-5.6196709 -0.71176642 -1.0547426
-5.6214528 -0.73943233 -1.0745771
-5.6329203 -0.79613113 -1.1006327
-5.6426544 -0.84144449 -1.1203928
-5.6700215 -0.86398971 -1.088166
-5.6826382 -0.85615861 -1.0580516
-5.7229471 -0.86220318 -0.98784465
-5.7813067 -0.85429311 -0.87224919
-5.8254304 -0.86444485 -0.79835743
-5.8581486 -0.9056778 -0.77178401
-5.9204535 -0.99191511 -0.72764248
-5.9251299 -1.0026361 -0.72788554
-5.9530811 -1.0287056 -0.69751877
-6.0124431 -1.1054229 -0.65090185
-6.0615869 -1.2000575 -0.63836592
-6.0748367 -1.2310764 -0.6395933
-6.1152968 -1.2709043 -0.59738761
-6.1789179 -1.3705733 -0.56203312
-6.1835318 -1.5044613 -0.66550952
-6.1661758 -1.5173256 -0.70868784
-6.142117 -1.5129415 -0.74994165
-6.1287136 -1.5034187 -0.76699656
-6.0854225 -1.5267944 -0.86740273
-6.0601611 -1.512175 -0.90233344
-6.0445418 -1.4962121 -0.91813415
-6.0222969 -1.520527 -0.98002797
-5.9906659 -1.5080503 -1.0286458
-5.963789 -1.5056812 -1.076849
-5.9239163 -1.545732 -1.1848323
-5.9689388 -1.5898861 -1.1377289
-5.9830637 -1.6015221 -1.1210959
-6.0242429 -1.6263335 -1.064976
-6.0527501 -1.6315933 -1.016149
-6.1085291 -1.6308444 -0.91136724
-6.1437807 -1.5279356 -0.75938803
-6.1868095 -1.554478 -0.70126301
-6.2038383 -1.5402987 -0.65759474
-6.2190728 -1.4925063 -0.58913571
-6.2592902 -1.4950665 -0.51618284
-6.2981343 -1.5119379 -0.45777482
-6.3279977 -1.5229377 -0.41122144
-6.3414688 -1.5157691 -0.38006562
-6.2584152 -1.3859125 -0.42643255
-6.1989021 -1.3126209 -0.47620004
-6.1558485 -1.2408063 -0.49646944
-6.1354713 -1.1505498 -0.45895618
-6.1378188 -1.1313878 -0.43852979
-6.1449156 -1.1020657 -0.40072972
-6.1951036 -1.0536305 -0.26646501
-6.210259 -1.045566 -0.23141474
-6.2550774 -0.95522821 -0.072096169
-6.2842612 -0.94737554 -0.011027575
-6.2968726 -0.92535502 0.030956805
-6.3040824 -0.90872371 0.058342993
-6.3211694 -0.88281912 0.11193609
-6.4187241 -1.0179111 0.18099791
-6.4207759 -1.0296141 0.17503119
-6.4847722 -1.1158739 0.22231227
-6.5298438 -1.1469729 0.28043753
-6.5693245 -1.1886799 0.31924152
-6.5875573 -1.0982929 0.42895842
-6.616725 -1.1105051 0.4731988
-6.6144996 -1.0839559 0.4912701
-6.5961494 -1.0623844 0.47506532
-6.5652905 -1.0270544 0.44702163
-6.5142465 -0.91729116 0.44360301
-6.5109019 -0.8730101 0.47442964
-6.5920339 -0.86226135 0.63492358
-6.5949616 -0.86158985 0.64095259
-6.6048717 -0.8012774 0.7099511
-6.6428089 -0.80630815 0.77657855
-6.6555939 -0.80629528 0.80046213
-5.5958691 1.3901433 0.6605345
-5.6376772 1.3797839 0.7299282
-5.60849 1.3979834 0.69066435
-5.5578527 1.4307891 0.62357616
-5.5428553 1.4280022 0.59323925
-5.5011139 1.4441903 0.52884895
-5.4889746 1.4161527 0.48270875
-5.4665828 1.4055508 0.43202096
-5.4275541 1.4252139 0.3756066
-5.406054 1.3837233 0.30072421
-5.3643126 1.3999112 0.23633397
-5.3508096 1.392799 0.20516586
-5.3245511 1.3764116 0.14241457
-5.2529454 1.4036256 0.031491816
-5.2146783 1.3758004 -0.063258469
-5.1519618 1.4065042 -0.1546616
-5.1330547 1.4148053 -0.18301636
-5.1161976 1.4053897 -0.22237605
-5.0790119 1.4207735 -0.27893203
-5.0552211 1.4261485 -0.31885606
-5.0297165 1.4076147 -0.38199657
-4.964704 1.39876 -0.51080567
-4.9055986 1.4020644 -0.61840409
-4.8730798 1.4016954 -0.6794346
-4.8338628 1.4126786 -0.74346823
-4.8114681 1.4020684 -0.79416806
-4.8035526 1.4059187 -0.80572528
-4.7603159 1.4264241 -0.86929184
-4.7698402 1.434814 -0.84448344
-4.7929821 1.4432608 -0.79419965
-4.8001261 1.4497654 -0.77541476
-4.8288765 1.4609745 -0.7123453
-4.8374104 1.4680215 -0.69051045
-4.9057055 1.4539037 -0.57480496
-4.9152212 1.4517601 -0.55883199
-4.9484596 1.4334625 -0.51208526
-4.9610901 1.4261527 -0.49462014
-7.2305121 -1.5511825 1.2503673
-7.256381 -1.5573097 1.2935421
-7.3271675 -1.5623795 1.4214747
-7.3421736 -1.5542097 1.4563345
-7.3541861 -1.5481182 1.4838648
-7.3931322 -1.5581588 1.5481818
-7.4179635 -1.5619148 1.5914038
-7.4342251 -1.5555059 1.6271343
-7.4484434 -1.5504988 1.6578758
-7.4668984 -1.5554364 1.6882024
-7.5187974 -1.5904738 1.7557783
-7.5888009 -1.5897026 1.8871388
-7.6039462 -1.6046829 1.9028779
-7.6060858 -1.5926136 1.9169776
-7.646759 -1.5375228 2.0390477
-7.7155814 -1.5397077 2.1657276
-7.6408162 -1.5141833 2.0474901
-7.6184649 -1.5139461 2.0059531
-7.593679 -1.5054414 1.9667909
-7.5795317 -1.4936531 1.9502435
-7.5593224 -1.5105919 1.8983258
-7.5503879 -1.5139211 1.8788558
-7.5428877 -1.5153266 1.8636742
-7.5327559 -1.5206747 1.8402779
-7.5075326 -1.5137076 1.7990127
-7.5008345 -1.5175024 1.7833285
-7.4940624 -1.5208786 1.7678561
-7.4575005 -1.513671 1.7056192
-7.4329004 -1.5156147 1.6580572
-7.4059887 -1.5131167 1.6098971
-7.3924794 -1.5202475 1.5787024
-7.3790498 -1.5297834 1.545642
-7.3669505 -1.538828 1.5154773
-7.1796412 -1.5206103 1.1809729
-7.2416205 -1.5260575 1.2921441
-7.251554 -1.515968 1.31914
-7.309588 -1.5257592 1.4193075
-7.7965488 -0.79796398 2.9379039
-7.7837367 -0.78685731 2.9232793
-7.7983317 -0.83786631 2.9078271
-7.8038435 -0.84516799 2.9120059
-7.8379879 -0.8793658 2.9471321
-7.8981962 -0.85801721 3.07743
-7.9162188 -0.85499644 3.1136122
-7.936276 -0.86366498 3.1438074
-8.015419 -0.94208932 3.2259309
-8.0576181 -1.0207583 3.2388659
-8.0757475 -1.0232236 3.2706544
-8.0521145 -0.89741343 3.3318543
-8.0020123 -0.87397033 3.2579269
-7.9558458 -0.79856205 3.234853
-7.9414072 -0.82492697 3.1858196
-7.9059925 -0.81955051 3.1241922
-7.8855362 -0.82130313 3.0845282
-7.4809289 1.3514268 4.1480303
-7.4547625 1.3517652 4.0994534
-7.4212551 1.3904593 4.0692811
-7.4835548 1.3924826 4.187305
-7.5380363 1.3684875 4.2689481
-7.5658174 1.3805479 4.3309197
-7.6084929 1.3786407 4.409009
-7.5957179 1.3693713 4.3773947
-7.5760245 1.3656631 4.3375177
-7.5475168 1.355721 4.2759628
-7.5252614 1.359218 4.2373333
-7.1966009 1.340077 3.6076119
-7.1843657 1.3355267 3.5809562
-7.1709175 1.3451747 3.5639215
-7.1576672 1.3600336 3.5516198
-7.1171589 1.396194 3.5062532
-7.0558653 1.4227995 3.4140763
-7.0686035 1.4320995 3.4456477
-7.0813413 1.4413997 3.4772189
-7.1219139 1.4121356 3.5284786
-7.1822009 1.3755822 3.6104486
-7.2308578 1.3856819 3.709759
-7.2372184 1.4079914 3.7403133
-7.2481575 1.4280324 3.7775176
-7.2832637 1.401775 3.8210881
-7.2978654 1.3997998 3.8466997
-7.3251619 1.4020905 3.8995874
-7.3550653 1.3909471 3.9460955
-7.3692899 1.3959291 3.9768274
-5.3768692 -1.5847359 -2.2389693
-5.4367228 -1.5811522 -2.1242063
-5.4680648 -1.5300456 -2.0228961
-5.5122981 -1.5195506 -1.9315143
-5.5466456 -1.543552 -1.8874724
-5.564641 -1.5444465 -1.8546193
-5.5854063 -1.5510678 -1.8213878
-5.6107893 -1.5491108 -1.7723522
-5.6220479 -1.5355173 -1.7399495
-5.6071758 -1.521718 -1.7561665
-5.5937982 -1.5122451 -1.7732155
-5.5796733 -1.5006087 -1.7898486
-5.5295324 -1.523263 -1.9024408
-4.18295 1.3827664 -1.9839382
-4.1958761 1.4085022 -1.9382565
-4.1793709 1.4101 -1.9677384
-4.1465135 1.4298083 -2.0125918
-4.1338944 1.4370979 -2.0300519
-4.122448 1.371812 -2.1060834
-4.1296272 1.3649712 -2.0984049
-4.1447868 1.3716097 -2.0645401
-5.2737842 -1.3109049 -2.2022049
-5.357605 -1.3903674 -2.1122155
-5.3468361 -1.5247426 -2.244823
-5.3247833 -1.5217054 -2.2834587
-5.3184648 -1.5180467 -2.2921941
-5.3064594 -1.5294769 -2.3241806
-5.2452345 -1.5031062 -2.4164259
-5.2268662 -1.5076593 -2.4545364
-5.1939383 -1.487661 -2.4992788
-5.1895247 -1.4840249 -2.5044768
-5.1699305 -1.4994823 -2.5540049
-5.1166348 -1.4956772 -2.6503365
-5.1112843 -1.4971114 -2.6615286
-5.0777521 -1.504738 -2.7305264
-5.1545959 -1.5470715 -2.6224806
-5.1915269 -1.5639155 -2.5676222
-5.2350078 -1.5824145 -2.5019195
-5.2756038 -1.5494449 -2.3985131
-5.2935853 -1.5553204 -2.3698559
-5.3282752 -1.5656749 -2.3137493
-5.3530064 -1.5679985 -2.269515
-5.7235327 1.3575191 0.87160355
-5.7511554 1.3529813 0.91938269
-5.7910471 1.3930807 1.0274432
-5.8475246 1.3464801 1.0938878
-5.8889112 1.3822539 1.2011172
-5.8583002 1.395443 1.1550002
-5.2549257 1.363938 0.0019627213
-5.2152948 1.3570378 -0.077815235
-5.1540728 1.3834161 -0.17004913
-5.1357999 1.3729991 -0.21289068
-5.1144419 1.3765157 -0.24982733
-5.0867491 1.39039 -0.2899223
-5.065845 1.3955697 -0.32461923
-5.0382228 1.4001074 -0.37239832
-7.0041676 -1.169943 1.1468959
-7.0164728 -1.1909148 1.1523151
-7.018496 -1.1994449 1.148952
-7.0146275 -1.2002023 1.141094
-6.9877529 -1.197848 1.0928829
-6.9735346 -1.2028551 1.0621414
-6.9436712 -1.1918553 1.0155882
-6.8907371 -1.1726167 0.93285257
-6.8527336 -1.159045 0.87325191
-6.8473577 -1.1394033 0.8796581
-6.8296933 -1.0787251 0.8974731
-6.8115191 -0.98958421 0.93816632
-6.8743238 -1.0789934 0.98058569
-6.8914628 -1.099323 0.99556875
-6.9505095 -1.1024702 1.1031907
-6.9741945 -1.1244344 1.129028
-7.1793156 -1.5592115 1.1480478
-7.174264 -1.5618997 1.1363642
-7.1601133 -1.5502156 1.1197238
-7.1190205 -1.5528682 1.0407711
-7.102344 -1.5425282 1.0182889
-7.038681 -1.5379771 0.9032234
-7.0907197 -1.5295 1.00749
-7.1175942 -1.5318543 1.0557009
-7.1310654 -1.524686 1.086857
-8.1868649 -1.0054901 3.4929876
-8.2792807 -1.0192904 3.6539991
-8.2908955 -1.0324159 3.6646976
-8.2950716 -1.0390356 3.6669536
-8.3720808 -1.0064863 3.8380013
-8.3520336 -0.92214239 3.871181
-8.2580452 -0.80979919 3.7897317
-8.2117729 -0.78039527 3.7279475
-8.1691179 -0.77854884 3.6498451
-8.142951 -0.7782104 3.6012676
-8.0921068 -0.78185308 3.5032778
-8.0757256 -0.76358569 3.487983
-8.1168909 -0.76111281 3.5669205
-8.129549 -0.76858163 3.5843027
-8.2678556 -1.0877526 3.5753484
-8.2717781 -1.0933404 3.5779955
-8.3065825 -1.1274103 3.6144605
-8.3404827 -1.1768367 3.6363816
-8.3667917 -1.2049973 3.6619303
-8.3658133 -1.1857125 3.6762486
-8.3751984 -1.1489598 3.7245431
-8.4136772 -1.1441861 3.8003891
-8.4019156 -1.1132693 3.804312
-8.3935843 -1.0575677 3.8353884
-8.375864 -0.99125117 3.8578198
-8.3645945 -0.95033902 3.8710277
-8.3836708 -0.8548637 3.9865806
-8.425581 -0.85455042 4.0651007
-8.5290318 -0.97178149 4.1601243
-8.5429544 -1.014904 4.1500192
-8.5425978 -1.0891212 4.0872192
-8.5271015 -1.1049591 4.045023
-8.529726 -1.1151708 4.0413761
-8.5341949 -1.1281289 4.0388713
-8.5390158 -1.1395137 4.0383425
-8.5639801 -1.1852698 4.0466504
-8.5885134 -1.1927425 4.0862036
-8.5931263 -1.1942468 4.0935578
-8.6044006 -1.1806372 4.1260052
-8.6337605 -1.1560955 4.2013731
-8.6187191 -1.0951109 4.2243443
-8.594245 -1.0323601 4.2311783
-8.5823298 -0.99780548 4.2378588
-8.5705662 -0.92652071 4.2755737
-8.5573807 -0.86206961 4.3049111
-8.5585527 -0.84156519 4.3242664
-8.5766659 -0.80880523 4.3855152
-8.5764971 -0.79084766 4.4002328
-8.5559893 -0.77455968 4.375576
-8.5344248 -0.79252148 4.320272
-8.4901457 -0.78101337 4.2472258
-8.466958 -0.78931379 4.1969781
-8.4271278 -0.79246831 4.1199636
-8.3966465 -0.78280962 4.0711336
-8.356226 -0.78744209 3.9917789
-8.3287544 -0.80588186 3.9250453
-8.3000622 -0.79272664 3.8824818
-8.2851696 -0.77877855 3.8663521
-8.228261 -0.78190327 3.757472
-8.2126245 -0.76579553 3.7417598
-7.2674184 1.3383173 3.7383735
-7.3093162 1.3386329 3.8168726
-7.3440304 1.3536367 3.8942537
-7.3689213 1.3911362 3.9721265
-6.9907541 1.4141952 3.2852926
-7.043838 1.394551 3.3679688
-7.0296788 1.4231473 3.3654704
-5.4772034 -1.4933858 -1.9751401
-5.3663502 -1.3731563 -2.081476
-5.3595386 -1.3382236 -2.0649502
-5.3494911 -1.2835401 -2.0379295
-5.353281 -1.2392633 -1.9937847
-5.3547573 -1.1771345 -1.9390132
-5.3130088 -1.1609659 -2.0034335
-5.2933135 -1.1387829 -2.0216377
-5.2784414 -1.1249834 -2.0378547
-5.2493234 -1.1161245 -2.0848093
-5.243011 -1.1124734 -2.0935392
-5.2216992 -1.1115921 -2.1325967
-5.2089467 -1.1208588 -2.1641669
-5.1813226 -1.1163263 -2.2119541
-5.1563616 -1.1492383 -2.2861168
-5.1436911 -1.1628671 -2.3211858
-5.1536746 -1.2082388 -2.3405294
-5.2169805 -1.3369647 -2.3300898
-5.221199 -1.3347448 -2.3203542
-4.5361633 -1.353171 -3.6149254
-4.5892467 -1.2810961 -3.4554629
-3.5016263 1.3213542 -3.3075662
-3.5329905 1.3059745 -3.2618766
-3.5055127 1.3270464 -3.2955437
-3.4906538 1.3408285 -3.3117509
-3.4406474 1.4015689 -3.3542743
-3.391515 1.3953357 -3.4512358
-3.3767865 1.3994584 -3.4752865
-3.2975106 1.3747524 -3.6439991
-3.2884219 1.3842642 -3.653007
-3.2593994 1.363481 -3.7245998
-3.2287951 1.3766135 -3.7707515
-3.1608276 1.3763094 -3.8979197
-3.121968 1.3672034 -3.9781046
-3.0760448 1.3638766 -4.0666404
-3.0554957 1.3625687 -4.1061058
-3.000031 1.4109356 -4.1691804
-3.0003979 1.3983392 -4.1790409
-2.9642873 1.3372738 -4.2975936
-2.9417562 1.3364278 -4.340373
-2.9296384 1.3395458 -4.3603902
-2.9454474 1.3288773 -4.3398018
-2.986217 1.3177809 -4.272964
-3.0064378 1.3053762 -4.2455921
-3.0418622 1.2929596 -4.1898403
-3.0485067 1.3030578 -4.1689792
-3.0709994 1.3302135 -4.1042442
-3.1545861 1.3146334 -3.9612093
-3.1794572 1.3367367 -3.8962636
-3.2167797 1.3243215 -3.8369665
-3.2490556 1.3341535 -3.7684674
-3.261528 1.3405147 -3.7398524
-3.2696683 1.3462825 -3.7198234
-3.2746441 1.3486793 -3.7085257
-3.2950377 1.3483065 -3.6707578
-3.3838785 1.3314328 -3.5189948
-3.3854692 1.3297104 -3.5174665
-3.4423058 1.3329076 -3.4086609
-3.468308 1.3162955 -3.3740153
-5.6960411 1.3786565 0.83796561
-5.7349248 1.3877195 0.91815925
-5.3640509 1.3667121 0.20805144
-6.4729676 -1.4100577 -0.046020746
-6.4924622 -1.328034 0.059051216
-6.4904866 -1.3127445 0.068162978
-6.5021977 -1.3100587 0.092279255
-6.5099502 -1.3046758 0.11126161
-6.5305667 -1.3167356 0.13966125
-6.5685802 -1.3682019 0.16755503
-6.6160836 -1.4540018 0.18442506
-6.626739 -1.4639432 0.19599819
-6.6477761 -1.4757793 0.22537166
-6.660584 -1.4868766 0.2399959
-6.6919026 -1.5111539 0.27815169
-6.7441578 -1.5115399 0.37540257
-6.8008952 -1.5248939 0.47016674
-6.8128724 -1.5134026 0.50215149
-6.8711042 -1.5310798 0.59608698
-6.8949904 -1.5247884 0.64595568
-6.9092088 -1.5197814 0.67669702
-6.9234271 -1.5147744 0.70743871
-6.9391398 -1.5140899 0.73735118
-6.965199 -1.530974 0.77187574
-7.0026245 -1.5008234 0.8670013
-6.3863654 -1.5072321 -0.28908426
-6.4252172 -1.4980953 -0.20888847
-6.4746599 -1.4222664 -0.05308181
-6.6559033 -1.5623187 0.16809642
-6.6014071 -1.5554488 0.072088897
-6.5800853 -1.5514408 0.035630465
-6.5363832 -1.5350105 -0.032217562
-6.5102558 -1.5348176 -0.080843031
-6.484128 -1.5346247 -0.1294685
-6.4721513 -1.5461158 -0.16145319
-6.4318051 -1.5509299 -0.24082011
-6.401195 -1.5377687 -0.28695899
-6.370585 -1.5246075 -0.33309776
-7.9908686 -1.5484465 2.672446
-7.9378967 -1.5288507 2.5899389
-7.8973694 -1.5502428 2.4963539
-7.8606176 -1.5594307 2.4200366
-7.8965178 -1.5648425 2.4825413
-7.9674163 -1.6425126 2.5499024
-7.9947538 -1.6377109 2.6049688
-8.0087881 -1.6206752 2.6454372
-8.0554686 -1.5528597 2.7893772
-8.0711851 -1.5602094 2.8125706
-8.1419144 -1.5624447 2.9427705
-8.1561689 -1.5574738 2.9735477
-8.1696777 -1.5503432 3.0047426
-8.1159611 -1.5285879 2.9226532
-8.0597973 -1.5338721 2.8133559
-8.0207853 -1.5182135 2.7536206
-7.2347889 1.342911 3.6812916
-7.2524505 1.3354945 3.7080612
-6.9795027 1.4005768 3.2528822
-6.9562387 1.3692859 3.1832449
-6.9796019 1.4031823 3.255249
-5.4947982 -1.5096903 -1.955936
-5.9149084 1.365442 1.2355862
-5.9561644 1.384616 1.3286744
-6.0105314 1.3611038 1.410507
-5.99927 1.3475028 1.3780924
-5.985898 1.3569902 1.3610659
-5.6810441 1.3758699 0.80762875
-5.5434718 1.4092399 0.57868242
-5.5322108 1.3956389 0.54626799
-5.4895911 1.3973905 0.46815196
-5.4626627 1.3537223 0.38131016
-6.7067323 -1.5416907 0.28027701
-6.6820307 -1.5625116 0.21672177
-8.228076 -1.5515378 3.1127875
-8.1988239 -1.5593201 3.05165
-8.2152052 -1.5775875 3.0669448
-8.6963196 -1.5739617 3.9683502
-8.711956 -1.5900691 3.9840622
-8.7397194 -1.5779675 4.0460343
-8.7659931 -1.5615467 4.1088419
-8.7233381 -1.5597005 4.0307398
-8.7375917 -1.5547295 4.0615172
-8.7511005 -1.5475986 4.0927119
-6.3728943 -1.5144006 -0.3202402
-7.0369024 -1.5414826 0.89696705
-7.0244527 -1.5479501 0.86830574
-6.8072782 -1.5458291 0.46455866
-6.827702 -1.5439395 0.50427681
-6.8695421 -1.5434481 0.58281481
-6.8979111 -1.5501252 0.63019705
-6.9455819 -1.5624127 0.70892477
-6.7351689 -1.5316765 0.34176004
-6.7692561 -1.5384417 0.39974576
-6.2436566 -0.93498683 -0.076475441
-6.1981421 -1.0302845 -0.24124652
-6.1619735 -1.0267142 -0.30579394
-6.0775156 -0.94413733 -0.39436537
-6.0393233 -0.83574069 -0.37493128
-6.0534401 -0.7950061 -0.3144682
-6.0944033 -0.76777649 -0.21518224
-6.1431208 -0.76524127 -0.12209183
-6.155777 -0.77260268 -0.10462242
-8.1968126 1.3735597 5.5033059
-8.1856375 1.3767296 5.4850931
0 0 0 1 0 0 0 1 0 0 0 1 0 0 0 0 0 838 1 0 0
