ply
format ascii 1.0
comment PCL generated
element vertex 960
property float x
property float y
property float z
element camera 1
property float view_px
property float view_py
property float view_pz
property float x_axisx
property float x_axisy
property float x_axisz
property float y_axisx
property float y_axisy
property float y_axisz
property float z_axisx
property float z_axisy
property float z_axisz
property float focal
property float scalex
property float scaley
property float centerx
property float centery
property int viewportx
property int viewporty
property float k1
property float k2
end_header
-1.303978 -1.0295079 -5.4193168
-1.2728996 -0.90824914 -5.4498463
-1.2928448 -0.84287107 -5.4437761
-1.2800012 -0.74935782 -5.4604917
-1.3003149 -0.82933247 -5.4404693
-1.2910695 -0.88259387 -5.4411149
-1.29462 -1.0695988 -5.4212756
-1.2946916 -1.1087497 -5.4175344
-1.2988553 -1.0594839 -5.4196305
-6.8165097 -0.69665384 -2.0666776
-6.8091798 -0.72778881 -2.0682368
-6.8239417 -0.77076268 -2.0551167
-6.8564615 -0.84218717 -2.0284078
-6.8459902 -0.92809236 -2.0267236
-6.7947249 -1.0073888 -2.0507064
-6.771091 -1.0283012 -2.0632401
-6.7056022 -1.110499 -2.0956805
-6.6879907 -1.1237004 -2.1052454
-6.6292868 -1.1400913 -2.1397347
-6.5970531 -1.1563319 -2.1579893
-6.6129994 -1.1519362 -2.1486151
-6.6576509 -1.153538 -2.1210525
-6.7343097 -1.1438652 -2.0749063
-6.7807827 -1.1331065 -2.0473931
-6.8125625 -1.1267983 -2.0284796
-6.9054646 -1.2439294 -1.9603868
-6.9148664 -1.3678564 -1.9429121
-6.9134955 -1.2473323 -1.9551355
-6.9149733 -1.2150521 -1.9572766
-6.918952 -1.1281441 -1.9630413
-6.8666859 -1.0040711 -2.0068438
-6.9308405 -0.88995874 -1.9782364
-6.9562273 -0.80926132 -1.9702724
-6.9424405 -0.76647836 -1.9827763
-6.9422126 -0.7646023 -1.9830933
-6.9207392 -0.74517834 -1.9981099
-6.8903236 -0.7216894 -2.0189996
-6.8811245 -1.4815099 -1.9528928
-6.9332252 -1.5042313 -1.9187633
-6.9066758 -1.410002 -1.9439601
-6.8949327 -1.4464159 -1.9477303
-6.8881135 -1.4578242 -1.9508392
-7.5007815 1.0571809 -1.8122361
-7.4892292 1.097236 -1.8231105
-7.4850588 1.1782355 -1.8333199
-7.4860735 1.1854684 -1.8333803
-7.4653897 1.2613815 -1.8532467
-7.4653144 1.3010176 -1.8570358
-7.4713888 1.3371102 -1.8567154
-7.4524508 1.3049643 -1.8653053
-7.4535608 1.2646583 -1.8608177
-7.4825797 1.1829094 -1.8352834
-7.4727936 1.1070029 -1.8341225
-7.4852409 1.0206437 -1.8183259
-10.838626 1.3692219 0.2073561
-10.792938 1.3759406 0.17867434
-10.762197 1.3647624 0.1608578
-10.716269 1.3665137 0.13249815
-10.67058 1.3732324 0.10381615
-10.654316 1.3638086 0.094721675
-10.618798 1.3560501 0.073650479
-10.585599 1.3553681 0.053334355
-10.534226 1.3787045 0.019593358
-10.487579 1.3655539 -0.0078005791
-10.457558 1.3692778 -0.026582479
-10.41091 1.3561269 -0.053976774
-10.341454 1.352841 -0.096304536
-10.304338 1.3529079 -0.1190958
-10.226351 1.3161603 -0.16350126
-10.190094 1.3135564 -0.18551302
-10.15088 1.3315705 -0.21128702
-10.114883 1.3138772 -0.23171413
-10.073851 1.3146927 -0.25698006
-10.054843 1.2747055 -0.26487267
-10.055963 1.2569454 -0.26250815
-10.147264 1.1542927 -0.19676566
-10.053166 0.99428654 -0.23942053
-10.015071 0.99454045 -0.26283062
-9.9761248 0.83475459 -0.27164996
-9.9542542 0.7549907 -0.27754343
-9.9332876 0.71537805 -0.28667355
-9.9265547 0.59634829 -0.27956605
-9.8142681 0.55662239 -0.34474587
-9.7390976 0.51682985 -0.38713408
-9.6612291 0.48256662 -0.43170118
-9.6229744 0.39762655 -0.44716346
-9.620079 0.35807422 -0.4452064
-9.5801458 0.23836246 -0.45841563
-9.5450277 0.19794211 -0.47615695
-9.5030556 0.15883139 -0.49822938
-9.4260273 0.019129783 -0.53232324
-9.3836184 -0.070029467 -0.54993808
-9.3774643 -0.080197394 -0.55275583
-9.3842382 -0.20049091 -0.53723752
-9.3813419 -0.24004325 -0.53528047
-9.3423481 -0.31982881 -0.55168366
-9.1925297 -0.27700037 -0.64769936
-9.1844568 -0.23403352 -0.65671301
-9.196393 -0.15786107 -0.6565789
-9.1883202 -0.11489421 -0.66559255
-9.1883459 -0.075232923 -0.66932166
-9.1940737 0.0043227673 -0.67331862
-9.1979103 0.083800793 -0.67846906
-9.2074203 0.16351193 -0.6801585
-9.2074471 0.20317319 -0.6838876
-9.2031822 0.28595683 -0.69432294
-9.2132006 0.32239023 -0.69161355
-9.2051277 0.36535707 -0.70062721
-9.1951628 0.40824619 -0.71079493
-9.1970806 0.4479852 -0.71336997
-9.2227907 0.52108514 -0.70449042
-9.2109346 0.56389666 -0.71581137
-9.2166624 0.64345241 -0.71980822
-9.2223902 0.72300804 -0.72380507
-9.2261992 0.76282477 -0.72522676
-9.2319269 0.84238052 -0.72922361
-9.2357626 0.92185855 -0.7343744
-9.2395725 0.96167517 -0.73579574
-9.2335901 1.0033637 -0.74340487
-9.2452183 1.1214576 -0.74741852
-9.2448978 1.2431538 -0.75910771
-9.2460375 1.2817237 -0.76205075
-9.185811 1.363345 -0.8067311
-9.1277561 1.3634611 -0.84238112
-9.092598 1.3631535 -0.86393487
-9.0105743 1.3246711 -0.91065443
-8.9367428 1.2921424 -0.95290697
-8.9012251 1.2843839 -0.9739778
-8.8954716 1.1651667 -0.96625185
-8.7803278 1.0457758 -1.0256622
-8.7451706 1.0454683 -1.0472158
-8.7403946 0.92606413 -1.0388714
-8.6671829 0.88589716 -1.0800221
-8.704339 0.84571707 -1.0534182
-8.699604 0.68619955 -1.0412607
-8.625412 0.64621985 -1.0830305
-8.5347767 0.53167903 -1.1278539
-8.5073318 0.52739036 -1.1442969
-8.4663391 0.48809245 -1.1657503
-8.3852539 0.48953626 -1.2156639
-8.3139601 0.48910835 -1.2593901
-8.276885 0.44906184 -1.2783682
-8.2769241 0.40894851 -1.2745558
-8.2769651 0.36883512 -1.2707429
-8.2367153 0.21786389 -1.2811944
-8.1604986 0.17871049 -1.3242854
-8.1266537 0.17595556 -1.3448021
-8.1088972 0.18022874 -1.3561063
-8.061574 0.20191237 -1.3872051
-8.0155268 0.20118001 -1.4154037
-7.9853845 0.20242032 -1.4340248
-7.955122 0.20117691 -1.4524851
-7.8929296 0.19350454 -1.4899397
-7.8630271 0.19971219 -1.5088828
-7.8472414 0.20022318 -1.5186214
-7.8169794 0.19897977 -1.5370817
-7.8005948 0.18707237 -1.5460155
-7.7212276 0.18317446 -1.5943696
-7.6791964 0.2042338 -1.6221609
-7.5968833 0.18363371 -1.6707466
-7.5499978 0.18550411 -1.6997057
-7.5388718 0.18306562 -1.7063056
-7.4378295 0.30107269 -1.7794781
-7.4433279 0.21702185 -1.7681653
-7.4381289 0.1425283 -1.764322
-7.4282684 0.10625792 -1.7669501
-7.4307799 0.023264438 -1.7575706
-7.4355793 -0.023814201 -1.7501787
-7.4370785 -0.059551239 -1.7458835
-7.4243684 -0.10361977 -1.7495242
-7.4277611 -0.13926792 -1.7440751
-7.4179754 -0.21517438 -1.7429142
-7.3978543 -0.28482735 -1.7486886
-7.3953533 -0.33945525 -1.7450652
-7.3898745 -0.37505218 -1.7450669
-7.3773227 -0.44435608 -1.7462274
-7.3652248 -0.49352056 -1.7490114
-7.3256607 -0.54089612 -1.7688253
-7.3232737 -0.59304094 -1.7653664
-7.3308105 -0.64850134 -1.755502
-7.3127012 -0.82396805 -1.7500488
-7.308866 -0.84326017 -1.7505815
-7.3061857 -0.88373673 -1.7484044
-7.3081541 -0.92329144 -1.7434607
-7.3039536 -0.96301281 -1.742288
-7.3054919 -1.0029411 -1.7375731
-7.3107009 -1.131542 -1.7222309
-7.2996655 -1.2049747 -1.7220707
-7.3071947 -1.2511119 -1.7130916
-7.3026209 -1.2916757 -1.7120688
-7.2911048 -1.3231235 -1.7161685
-7.2901955 -1.342988 -1.7148508
-7.2886028 -1.364067 -1.713838
-7.2678828 -1.4864366 -1.7150016
-7.2041016 -1.5587569 -1.7473265
-7.2504611 -1.5504814 -1.7196486
-7.2627859 -1.5310318 -1.7139192
-7.2954206 -1.4902353 -1.6977379
-7.3086014 -1.4499822 -1.6934476
-7.3059669 -1.4439723 -1.6956325
-7.2979684 -1.4096477 -1.703784
-7.2924156 -1.368018 -1.7111243
-7.2970147 -1.3315798 -1.7117419
-7.3044004 -1.2906504 -1.7110732
-7.3096647 -1.2479323 -1.7118754
-7.3112578 -1.2268536 -1.7128882
-7.3140993 -1.1647764 -1.7170061
-4.9260101 1.3625485 -3.4216928
-4.9718914 1.3609185 -3.3933728
-5.0264378 1.3775986 -3.3614628
-5.0789857 1.3746476 -3.3289256
-5.1092038 1.3736378 -3.3102798
-5.1441555 1.3813862 -3.2895551
-5.1711931 1.3813183 -3.2729506
-5.2154098 1.3675053 -3.2445021
-5.24474 1.3466341 -3.2245257
-5.2925181 1.3349115 -3.1940885
-5.2993097 1.3303705 -3.1894903
-5.3448725 1.3213351 -3.1606665
-5.3845506 1.3502651 -3.1390407
-5.4150581 1.3703945 -3.1222134
-5.3916993 1.3671775 -3.1362495
-5.3512444 1.3502986 -3.1594901
-5.2925 1.3486538 -3.1953974
-5.2737937 1.3527306 -3.2072659
-5.2330484 1.3706373 -3.2339697
-5.2101593 1.3785632 -3.2487698
-5.1673889 1.3870959 -3.2758317
-5.1004381 1.4188999 -3.3199353
-5.0495443 1.4180933 -3.3511024
-4.9879436 1.3815165 -3.3854637
-4.9439573 1.3832384 -3.4126291
-4.8954592 1.3561103 -3.4398398
-4.911345 1.3604556 -3.4304979
-2.9586205 -0.91681087 -4.4141955
-2.921319 -0.87681556 -4.4408712
-2.8038883 -0.78953362 -4.521203
-2.7587285 -0.79682338 -4.5482378
-2.6681852 -0.76625407 -4.6067076
-2.6140265 -0.75546718 -4.640974
-2.5395656 -0.75377822 -4.6868439
-2.4541416 -0.83358288 -4.7317481
-2.4408488 -0.83398724 -4.7398705
-2.3155484 -0.82873905 -4.8172865
-2.2581358 -0.737149 -4.8611803
-2.1981988 -0.71142864 -4.900404
-2.0926576 -0.66534317 -4.9695463
-2.0862417 -0.66782486 -4.9732509
-2.0897927 -0.58837926 -4.9785733
-2.0777645 -0.55342591 -4.9892583
-2.0872579 -0.44760403 -4.9934235
-2.092473 -0.33091819 -5.0012412
-2.0919647 -0.31250533 -5.0032921
-2.0943594 -0.28871268 -5.0040689
-2.1003513 -0.15464139 -5.013052
-2.1023493 -0.10995319 -5.0160456
-2.0879521 -0.05119741 -5.0304322
-2.1027303 0.030240268 -5.0290508
-2.0806751 0.082222849 -5.0474992
-2.0968294 0.14741677 -5.0437388
-2.0803065 0.22757557 -5.0614519
-2.1484346 0.24405977 -5.0211859
-2.1788745 0.2480152 -5.0028725
-2.2482605 0.34909549 -4.9698229
-2.2575212 0.39014634 -4.9680147
-2.2583246 0.43006316 -4.9712911
-2.1551671 0.54830384 -5.045784
-2.1473064 0.56991053 -5.05265
-2.1404176 0.59132338 -5.0589013
-2.2321811 0.58806348 -5.0022607
-2.2774544 0.55400109 -4.9712515
-2.4279056 0.50647962 -4.874404
-2.4818583 0.58668494 -4.8488569
-2.5044131 0.66657126 -4.842555
-2.4966621 0.70631373 -4.8510666
-2.5077953 0.78612757 -4.8517694
-2.5457315 0.82615972 -4.8322611
-2.6216049 0.90622389 -4.7932444
-2.6605134 0.94606221 -4.7731214
-2.7775769 0.98535526 -4.704968
-2.8710384 0.90724492 -4.6402168
-2.9735513 0.98763764 -4.5848775
-2.975327 1.0273603 -4.5875382
-2.9779053 1.107 -4.5934763
-2.979681 1.1467229 -4.5961375
-2.9307604 1.2654278 -4.6373792
-2.9714446 1.3449887 -4.6199174
-2.9896412 1.3476259 -4.6089954
-3.0247192 1.3456463 -4.5872746
-3.0418231 1.3459952 -4.576808
-3.0814552 1.3581362 -4.5536246
-3.1302865 1.3471558 -4.5226111
-3.2101908 1.3481426 -4.4736519
-3.2491565 1.3610406 -4.4509497
-3.2953711 1.3668587 -4.4231281
-3.3559179 1.3673215 -4.386003
-3.4019105 1.3681743 -4.3578491
-3.4622352 1.3636719 -4.3203917
-3.4780099 1.3655344 -4.3108835
-3.5075619 1.3496286 -4.2912397
-3.5436118 1.347455 -4.2689042
-3.6303203 1.3627375 -4.2171183
-3.6764238 1.3660728 -4.1891308
-3.7066414 1.365063 -4.170485
-3.7828522 1.364906 -4.1236854
-3.8590627 1.3647487 -4.0768862
-3.9050553 1.3656014 -4.0487323
-3.9656019 1.3660643 -4.0116072
-3.9798229 1.3582265 -4.0021367
-3.9222348 1.3518562 -4.0368876
-3.8661463 1.3508203 -4.0712223
-3.8184891 1.3127275 -4.0968809
-3.6654334 1.2330143 -4.1833119
-3.6266937 1.1530654 -4.199544
-3.5672944 0.99332225 -4.2209229
-3.5122492 0.95294178 -4.2509012
-3.4743843 0.87375855 -4.2666683
-3.4696212 0.87376857 -4.2695932
-3.3536987 0.79417074 -4.3332396
-3.2808623 0.67389393 -4.3665943
-3.2058411 0.63326657 -4.4088125
-3.1309397 0.55300844 -4.4472141
-3.079998 0.39439943 -4.4635081
-3.0289075 0.31409273 -4.487288
-3.0271323 0.27436987 -4.4846268
-2.9874206 0.19461492 -4.5014739
-2.8745828 0.074324697 -4.5593839
-2.7990475 -0.085960865 -4.5906172
-2.7603073 -0.16590975 -4.6068492
-2.7548966 -0.26502967 -4.6008105
-2.7540088 -0.28488433 -4.5994802
-2.7312012 -0.30461133 -4.611619
-2.7150159 -0.30467394 -4.6215487
-2.6371145 -0.36428815 -4.6637416
-2.6019254 -0.36479136 -4.6852961
-2.5597191 -0.54424798 -4.6942592
-2.5317607 -0.73405474 -4.6934981
-2.5931959 -0.73878747 -4.6553369
-2.6380782 -0.73770446 -4.6278863
-2.6994019 -0.74491984 -4.5895591
-2.7301745 -0.73351634 -4.5717449
-2.7761669 -0.73266363 -4.5435915
-2.790832 -0.73057067 -4.5347862
-2.8837061 -0.73406088 -4.4774427
-2.9255271 -0.74660951 -4.4505839
-2.9436975 -0.74601138 -4.439486
-2.9898014 -0.7426759 -4.4114985
-3.0201304 -0.74120319 -4.3930187
-3.0656788 -0.7502811 -4.3642001
-3.1513028 -0.74990678 -4.3116722
-3.1591895 -0.74895942 -4.3069201
-3.1829562 -0.7436347 -4.2928324
-3.2002151 -0.74953705 -4.2816801
-3.2286289 -0.75013721 -4.2641807
-3.2733302 -0.75644785 -4.2361431
-3.3199394 -0.73808867 -4.2092643
-3.3656123 -0.74459118 -4.1806121
-3.396049 -0.74057496 -4.1623068
-3.4113929 -0.74861109 -4.1521282
-3.5029175 -0.73159707 -4.0975494
-3.5798151 -0.74175829 -4.0493832
-3.6412249 -0.7213124 -4.0136156
-3.6715541 -0.71977895 -3.9951415
-3.7017765 -0.72072816 -3.9764986
-3.7636518 -0.71540517 -3.9390168
-3.8048625 -0.70849985 -3.9143703
-3.8400836 -0.71044344 -3.892565
-3.9007423 -0.70737648 -3.855617
-3.9310718 -0.70584297 -3.8371429
-3.9466302 -0.70891368 -3.827302
-3.9900141 -0.71167463 -3.8004084
-3.9869246 -0.79447842 -3.7944851
-4.0016017 -0.83742917 -3.7814193
-4.0023794 -0.91019487 -3.7740698
-4.0713806 -0.98639429 -3.724515
-4.1217394 -0.99789727 -3.6925139
-4.1166449 -1.070436 -3.6887915
-4.13973 -1.1197537 -3.6699624
-4.1718473 -1.1514316 -3.6472545
-4.1814642 -1.1558334 -3.6409352
-4.183507 -1.1571766 -3.639554
-4.2288942 -1.2578297 -3.6021864
-4.2888021 -1.2721415 -3.5640583
-4.3695259 -1.1678722 -3.5243497
-4.385191 -1.1684601 -3.5146775
-4.4614086 -1.1684638 -3.4678884
-4.4916306 -1.169413 -3.4492455
-4.5527182 -1.1564152 -3.412972
-4.6280708 -1.1537442 -3.3669665
-4.6821194 -1.1512525 -3.334022
-4.6895943 -1.1533518 -3.3292348
-4.7657042 -1.1558381 -3.2822771
-4.8115921 -1.1573753 -3.253962
-4.8434443 -1.1565384 -3.2344875
-4.873744 -1.1551414 -3.2160189
-4.8878093 -1.157379 -3.2071731
-4.9197621 -1.1543149 -3.1878469
-4.9689989 -1.1520448 -3.1578357
-4.9940844 -1.1507878 -3.1425543
-5.0405655 -1.1499382 -3.1141005
-5.0710025 -1.1459221 -3.0957952
-5.1183023 -1.1515248 -3.0662293
-5.2251577 -1.0352112 -3.0116162
-5.2257915 -1.032588 -3.0114748
-5.2398844 -0.99983895 -3.0059161
-5.2474585 -0.99948978 -3.0012991
-5.2785139 -1.1604133 -2.9670382
-5.3460045 -1.1721685 -2.9244962
-5.3913465 -1.1725569 -2.8966246
-5.3620653 -1.1652899 -2.9152863
-10.93272 -0.95381057 0.48449624
-11.006094 -1.074097 0.5408982
-10.959267 -1.1523852 0.51954544
-10.918315 -1.2317965 0.50190485
-10.911999 -1.1878479 0.49387705
-10.887503 -1.1331619 0.47367465
-10.848568 -1.1038569 0.44700611
-10.845818 -1.0630704 0.4414655
-5.72332 -1.0757076 -2.7019763
-5.7677121 -1.0415617 -2.6779492
-5.8092585 -1.0284394 -2.6536837
-5.8247504 -1.0339762 -2.6436505
-5.8854628 -1.0286992 -2.6068783
-5.9311399 -1.035322 -2.5782123
-5.9710789 -1.0383167 -2.5534115
-5.9654903 -1.1173937 -2.5493743
-5.9859433 -1.1865344 -2.5302892
-6.0976167 -1.2014408 -2.4603269
-6.1230869 -1.1765509 -2.4470415
-6.1660175 -1.2001736 -2.4184558
-6.2451954 -1.1784673 -2.3718996
-6.2881265 -1.2020901 -2.3433142
-6.3359818 -1.2041284 -2.3137436
-6.3821115 -1.17345 -2.2883224
-6.4436216 -1.1781603 -2.2501171
-6.4743757 -1.1668309 -2.2323077
-6.550807 -1.1621244 -2.1858318
-5.6516242 -1.169511 -2.7371311
-5.7362719 -1.3292588 -2.6700811
-5.6065092 -1.3982576 -2.7432246
-5.5938549 -1.3947705 -2.7513225
-5.5197392 -1.3811401 -2.7981086
-5.4561853 -1.4484943 -2.8307629
-5.3496819 -1.4496317 -2.8960364
-5.2498846 -1.4409027 -2.9581246
-5.1993523 -1.3622906 -2.9965699
-5.177916 -1.2802148 -3.0174804
-5.2694597 -1.1793581 -2.9708071
-5.2997589 -1.1779612 -2.9523387
-5.3307476 -1.1753509 -2.9335616
-6.7017527 1.4906551 -2.3436852
-6.7630229 1.5083966 -2.3077476
-6.8087049 1.5017543 -2.2790766
-6.8245482 1.5036209 -2.269527
-6.868639 1.4622192 -2.2385504
-6.9422007 1.4323431 -2.1905704
-7.0194554 1.4269512 -2.1426356
-6.9292455 1.4241863 -2.1977534
-6.9128442 1.4233003 -2.2077382
-6.8355041 1.3987267 -2.2528956
-6.7159767 1.4852451 -2.3344424
-6.6232758 1.4412532 -2.3871958
-6.611702 1.4220128 -2.3924837
-6.5757747 1.4081705 -2.4132318
-6.5614376 1.4110976 -2.4223096
-6.6012983 1.4291886 -2.3995481
-6.6338797 1.4665258 -2.3830729
-6.6561837 1.4997802 -2.3725209
-5.9804831 1.4072784 -2.7785897
-5.9504161 1.4108217 -2.7973819
-5.9194398 1.3945024 -2.8148565
-5.9349422 1.3889207 -2.8048129
-5.9506712 1.3883045 -2.7950988
-6.0272164 1.3954985 -2.7487881
-9.1875439 0.32861277 -0.70795178
-9.0289822 0.37267324 -0.80945158
-8.98909 0.21284816 -0.81884778
-9.0643806 0.13230073 -0.76502085
-9.1798716 0.16965678 -0.69765043
-9.1974545 0.20640102 -0.69032633
-10.905045 1.350529 0.24989498
-10.898551 1.3592902 0.24508083
-10.882647 1.3573174 0.23550355
-3.2725847 -1.1594237 -4.1985455
-3.2422552 -1.1609571 -4.2170196
-3.2248597 -1.15502 -4.2282591
-3.2076697 -1.116735 -4.2424273
-3.1593862 -0.95181942 -4.287642
-3.1138203 -0.94283426 -4.3164625
-3.0724664 -0.94951534 -4.3412185
-3.0356352 -0.96246529 -4.3626056
-2.9968104 -0.93694472 -4.3888497
-4.5382633 1.3828276 -3.6616409
-4.4999628 1.3848257 -3.6853414
-4.4923811 1.3844576 -3.689961
-4.4235306 1.3800175 -3.7318082
-4.4984565 1.3808945 -3.685895
-4.5456233 1.3782303 -3.6566885
-11.026066 -0.12488748 0.46352017
-11.01689 -0.20685887 0.46562803
-10.991183 -0.23654586 0.45265067
-10.95987 -0.31335661 0.44068158
-10.955102 -0.37304109 0.44339073
-10.945085 -0.40947455 0.44068158
-10.944098 -0.46900707 0.44569814
-10.934053 -0.54510188 0.44671762
-10.938344 -0.58822411 0.4534241
-10.940062 -0.54712892 0.45059764
-10.948389 -0.51212937 0.45240438
-10.911058 -1.3505065 0.50866067
-10.908685 -1.390378 0.5109688
-10.907234 -1.4332815 0.51412952
-10.892076 -1.4735645 0.50862873
-10.882593 -1.5136143 0.50658929
-10.861227 -1.550514 0.49695718
-10.837931 -1.5638651 0.48391688
-10.807789 -1.5626247 0.46529567
-10.745955 -1.5628461 0.42735803
-10.792243 -1.5571463 0.45523512
-10.881551 -1.4667201 0.50152075
-10.887825 -1.4540687 0.50417745
-10.90241 -1.3865427 0.50675404
-9.9049492 -0.39513475 -0.19919789
-9.8849831 -0.45499164 -0.20580232
-9.832736 -0.45554632 -0.23782396
-9.7589045 -0.48807502 -0.2800765
-9.7879887 -0.65454888 -0.24650121
-9.7205706 -0.61561215 -0.29156494
-9.6112814 -0.71606946 -0.34916949
-9.6096039 -0.75084102 -0.34691584
-9.5494509 -0.85560179 -0.37394953
-9.6710472 -0.93401885 -0.29189777
-9.6701488 -1.0140582 -0.28489089
-9.631155 -1.0938439 -0.30129409
-9.5241938 -1.1740346 -0.35938299
-9.5212955 -1.2135864 -0.357427
-9.5179768 -1.2534966 -0.35569572
-9.5163116 -1.2684379 -0.35530686
-9.5169783 -1.3328584 -0.34881437
-9.5093594 -1.4124917 -0.34597123
-9.5570049 -1.5424081 -0.30445313
-9.4815254 -1.5565841 -0.34945083
-9.4124584 -1.54289 -0.39314306
-9.3744831 -1.540152 -0.41671395
-9.3520546 -1.5428931 -0.43022394
-9.3296251 -1.5456334 -0.44373441
-9.2912903 -1.5503473 -0.4668225
-9.2598391 -1.5468416 -0.4864608
-9.2299366 -1.5406339 -0.50540388
-9.1609802 -1.5540414 -0.54646897
-9.1309576 -1.5503174 -0.56525123
-9.1230049 -1.5513041 -0.57004011
-9.1010551 -1.5441096 -0.58419418
-9.0775566 -1.539618 -0.59904373
-8.9810057 -1.4900987 -0.66299164
-8.9551716 -1.4891138 -0.67894399
-8.9350777 -1.4883475 -0.69135165
-8.8357191 -1.4854258 -0.75262249
-8.8037786 -1.5214409 -0.76882911
-8.7885838 -1.5380973 -0.77658451
-8.7422962 -1.5437971 -0.8044616
-8.7110844 -1.535324 -0.82442188
-8.6167955 -1.6507424 -0.87140524
-8.5998278 -1.6649929 -0.88047576
-8.5538998 -1.6632416 -0.90883565
-8.5335741 -1.6541617 -0.92217076
-8.4712458 -1.6444432 -0.96135092
-8.4419632 -1.6458737 -0.97919214
-8.3706589 -1.6758876 -1.0201309
-8.3371315 -1.6909781 -1.0392876
-8.2554941 -1.6523981 -1.0930469
-8.2382717 -1.6517415 -1.1036818
-8.2226057 -1.6487467 -1.1135814
-8.1958599 -1.6480265 -1.1300685
-8.1646185 -1.6490827 -1.1491477
-8.1069012 -1.604972 -1.1887448
-8.0902567 -1.6017902 -1.1992635
-8.0689068 -1.5821778 -1.2142222
-7.9659309 -1.5108863 -1.28417
-7.859479 -1.5116217 -1.3494501
-7.8167081 -1.4854078 -1.3781819
-7.7815504 -1.4857155 -1.3997358
-7.7036362 -1.4959397 -1.4466009
-7.6741195 -1.4862638 -1.4656346
-7.6027851 -1.4465783 -1.5131736
-7.6037235 -1.4066521 -1.5163677
-7.7039518 -1.2955751 -1.4653287
-7.7056389 -1.2157346 -1.4718328
-7.7587194 -1.0873227 -1.4513738
-7.7602577 -1.0349782 -1.4553727
-7.8377261 -0.96805215 -1.4141362
-7.8725839 -0.91254199 -1.3979795
-7.9147348 -0.80829388 -1.3819485
-7.9547472 -0.76880884 -1.3611139
-7.9918633 -0.76887566 -1.3383229
-8.0648155 -0.71361947 -1.2987564
-8.0698509 -0.60930455 -1.3055162
-8.1059875 -0.60918421 -1.283344
-8.1811581 -0.56939161 -1.2409554
-8.1869125 -0.4501746 -1.2486813
-8.1916466 -0.2906571 -1.2608392
-8.305831 -0.19113395 -1.2001414
-8.3079376 -0.05667153 -1.2115457
-8.2546463 -0.026637226 -1.247097
-8.2108774 -0.026616424 -1.2739685
-8.15448 -0.07800886 -1.3037367
-8.0781698 -0.079984635 -1.3503957
-8.0476685 -0.086195409 -1.3685341
-7.9720778 -0.073269039 -1.4161587
-7.9290557 -0.065121651 -1.4433389
-7.8798628 -0.07721746 -1.4723954
-7.8034334 -0.081676885 -1.5188935
-7.7731714 -0.082920283 -1.5373534
-7.6793981 -0.11915664 -1.5914977
-7.6433611 -0.096736684 -1.6157377
-7.6007452 -0.097733885 -1.6418047
-7.573945 -0.096597075 -1.6583644
-7.5671711 -0.096228749 -1.6625576
-7.5538597 -0.095863491 -1.6707639
-7.4302731 -0.22226137 -1.7346956
-7.4163857 -0.28845355 -1.7369699
-7.4191375 -0.34170303 -1.7302519
-7.4211054 -0.3812502 -1.7253091
-7.4036832 -0.50142646 -1.7246555
-7.4177709 -0.56520092 -1.7099848
-7.4192591 -0.56961286 -1.7086544
-7.4202704 -0.64814985 -1.7006171
-7.4223137 -0.72734672 -1.6918836
-7.4143577 -0.76358593 -1.6933454
-7.4122477 -0.80875266 -1.6903756
-7.4054952 -0.84705877 -1.6909032
-7.3961015 -0.88713741 -1.6928852
-7.3812366 -0.89018083 -1.7017229
-7.3148971 -1.009818 -1.7311502
-7.3134594 -1.0136573 -1.7316701
-10.938876 -0.40609127 0.43655074
-10.951744 -0.3497124 0.4391259
-10.950811 -0.32991886 0.43668425
-10.945561 -0.3066678 0.43126595
-10.948439 -0.24705757 0.42740309
-10.956366 -0.20934567 0.42870772
-10.952275 -0.16757955 0.42225254
-10.947985 -0.12445727 0.41554654
-10.965648 0.031270862 0.4116832
-11.019796 -0.094126016 0.45676625
-10.125699 0.12269655 -0.11258435
-10.20083 0.20260248 -0.074008703
-10.204732 0.2816284 -0.079075813
-10.202868 0.32121202 -0.083958626
-10.202894 0.36087325 -0.087687731
-10.254309 0.48014715 -0.067388535
-10.329479 0.51993978 -0.025000334
-10.365616 0.52006018 -0.0028276443
-10.399795 0.5205549 0.018107414
-10.404556 0.52052307 0.021033645
-10.435932 0.5206753 0.040279984
-10.478802 0.63982546 0.055345178
-10.505441 0.67967057 0.067936063
-10.592885 0.83963025 0.10651124
-10.59762 0.99914777 0.094353795
-10.67271 1.1191671 0.12911665
-10.787893 1.1984445 0.1923393
-10.865143 1.1175228 0.24740374
-10.8691 1.0766609 0.25369132
-10.86914 1.0365475 0.25750434
-10.864784 0.98724806 0.25948608
-10.871419 0.91447699 0.2704314
-10.871366 0.83515441 0.27788913
-10.865464 0.79661608 0.27790606
-10.865639 0.75559878 0.28188646
-10.869501 0.67552745 0.29181921
-10.990609 0.5875392 0.37447512
-10.970573 0.5146724 0.36905658
-10.987014 0.46659169 0.38368952
-10.972919 0.39214972 0.38206732
-10.982239 0.34718749 0.39203441
-11.005527 0.2708706 0.41353786
-10.977584 0.1074433 0.41181719
-11.028917 0.24704394 0.43014634
-11.055572 0.26701441 0.44462359
-11.078495 0.30625203 0.45499074
-11.081236 0.35330167 0.45222986
-11.066666 0.38872483 0.43994081
-11.068889 0.44946602 0.43556893
-11.070501 0.4682028 0.43478978
-11.072845 0.53142774 0.43025744
-11.076256 0.58741975 0.42706382
-11.046538 0.61214602 0.40648544
-11.071434 0.80039525 0.40399158
-11.087765 0.82585382 0.41161191
-10.999771 0.94849575 0.34601271
-11.001717 1.027896 0.33970821
-11.003006 1.0320421 0.34010851
-11.004925 1.0717813 0.33753335
-11.013697 1.1102101 0.33928931
-10.953978 1.1485535 0.2990073
-10.920808 1.2337878 0.27059615
-10.920835 1.2734491 0.26686704
-10.912898 1.3289748 0.25675118
-6.5664124 -1.1651781 -2.1759634
-6.529294 -1.3292447 -2.1832564
-6.5067191 -1.4095765 -2.1895285
-6.4879317 -1.4897339 -2.1934922
-6.4897318 -1.5264277 -2.1889219
-6.457324 -1.5392941 -2.2076015
-6.3421769 -1.6061937 -2.2719712
-6.3255963 -1.6029491 -2.2824564
-6.2296214 -1.5186503 -2.349335
-6.2152691 -1.5156516 -2.358429
-6.1537585 -1.5109413 -2.3966341
-6.124712 -1.5123932 -2.4143283
-6.0481672 -1.5195827 -2.460639
-6.0021486 -1.5204091 -2.4888113
-5.940866 -1.5107327 -2.5273459
-5.9262857 -1.5127002 -2.5361104
-5.8804951 -1.5085604 -2.5646122
-5.8203511 -1.501422 -2.6022077
-5.8045182 -1.5033346 -2.6117465
-5.6973333 -1.5193703 -2.6760318
-5.6522241 -1.5003321 -2.7055216
-5.5456071 -1.5039524 -2.7706304
-5.5113406 -1.4845304 -2.7935004
-5.4679632 -1.4801632 -2.8205419
-5.4498305 -1.4798203 -2.8317056
-5.4111519 -1.4827826 -2.85517
-5.3625517 -1.498594 -2.883512
-5.3476357 -1.4943271 -2.8930717
-5.2522945 -1.5543044 -2.9459364
-5.2369237 -1.5599698 -2.9548373
-5.2217674 -1.5606674 -2.9640756
-5.2182078 -1.5558759 -2.9667134
-5.1787071 -1.5243025 -2.9939437
-5.1179929 -1.5022106 -3.0333018
-5.0715199 -1.5129694 -3.0608153
-5.0570536 -1.5124538 -3.0697446
-4.9655848 -1.5016911 -3.1269121
-4.904191 -1.5218667 -3.1626959
-4.8428154 -1.5240949 -3.2001629
-4.8279867 -1.521607 -3.2095013
-4.8111887 -1.5216166 -3.2198124
-4.7968259 -1.5203301 -3.2287512
-4.7648683 -1.5187421 -3.2485194
-4.7386408 -1.5194755 -3.2645509
-4.7186713 -1.5196887 -3.2767897
-4.6964302 -1.5202737 -3.2903879
-4.6905956 -1.5191222 -3.2940784
-4.6603737 -1.518173 -3.3127208
-4.6456208 -1.5150353 -3.3220739
-4.5085764 -1.4807334 -3.4094429
-4.4647341 -1.4545612 -3.4388289
-4.4194903 -1.4381279 -3.4681554
-4.34338 -1.4356416 -3.5151131
-4.3279295 -1.4300882 -3.5251226
-4.2671871 -1.4318789 -3.5622425
-4.2362609 -1.4245311 -3.5819216
-4.2060385 -1.4235821 -3.600564
-4.1461315 -1.4092702 -3.6386921
-4.0862236 -1.3949583 -3.6768203
-4.1183767 -1.3512191 -3.6612124
-4.1732421 -1.3200979 -3.6304703
-4.1563959 -1.1458781 -3.6572642
-4.1207623 -1.1113106 -3.6824038
-4.0831122 -1.1038955 -3.7062168
-4.0540409 -1.0731192 -3.7269697
-3.9334681 -1.0393382 -3.804178
-3.8882639 -1.1581217 -3.8207109
-3.8943262 -1.19938 -3.8130932
-3.8178811 -1.1592696 -3.8638096
-3.7369871 -1.1508234 -3.9142671
-3.6901269 -1.1490943 -3.9431973
-3.6607699 -1.1508197 -3.9610562
-3.56937 -1.1892914 -4.0135322
-3.5003781 -1.1792961 -4.0568295
-3.4250193 -1.159431 -4.1049671
-3.3787022 -1.1678246 -4.1326079
-3.3181508 -1.1684089 -4.1697245
-3.302592 -1.1653382 -4.1795659
-6.0573964 1.394438 -2.7301607
-6.0874634 1.3908948 -2.7113686
-6.165031 1.4204341 -2.6665404
-6.2264423 1.4131756 -2.628155
-6.2666583 1.4249737 -2.6045814
-6.2574186 1.4294949 -2.6106806
-6.1958933 1.4342705 -2.648901
-6.1843057 1.4287715 -2.6554952
-6.1337996 1.4266322 -2.6862984
-7.4607191 0.45687357 -1.7801397
-7.4514446 0.41584048 -1.7819582
-7.4434085 0.50504148 -1.7953151
-7.44591 0.54695404 -1.7977376
-7.4514403 0.62649286 -1.8018539
-7.4569707 0.7060318 -1.8059702
-7.4630446 0.74212444 -1.8056499
-7.4596515 0.77777255 -1.8110993
-7.4636788 0.86179137 -1.8165615
-7.4642448 0.86493182 -1.8165106
-7.4932637 0.78318286 -1.790976
-7.4982772 0.74210203 -1.7840189
-7.4935308 0.70295811 -1.7832361
-7.4851475 0.58436418 -1.7771832
-7.4839439 0.57959235 -1.7774712
-7.4395728 0.38043371 -1.7859023
-7.44769 0.33734301 -1.77685
-7.2466745 1.4238771 -2.0028584
-7.2170625 1.4373517 -2.0223093
-7.202384 1.4328303 -2.0308933
-7.2170763 1.4236102 -2.021003
-4.6669388 1.3590646 -3.5804043
-4.742816 1.3765165 -3.5354726
-4.757925 1.363483 -3.5249665
-2.7532735 0.23156157 -4.6487026
-2.7047672 0.23089394 -4.6784167
-2.6676335 0.2307786 -4.7012019
-2.6618981 0.23098227 -4.704742
-2.7373772 0.15175754 -4.6509247
-2.7441564 0.11220899 -4.6430283
-2.7320509 0.032589048 -4.642941
-2.7312474 -0.0073277056 -4.6396642
-2.5811086 -0.087622628 -4.7242503
-2.5559602 0.031512767 -4.7509389
-2.5572062 0.23023859 -4.7689409
-2.4789081 0.3090854 -4.8244529
-2.5289497 0.42873743 -4.8050323
-2.6374331 0.42966524 -4.7385235
-2.7136436 0.42950812 -4.6917238
-2.7507768 0.42962345 -4.6689396
-2.8248749 0.46996483 -4.6272612
-2.8862071 0.31246772 -4.5747371
-5.1148114 -1.4341601 -3.0416813
-4.9968233 -1.4618082 -3.1115017
-4.9062347 -1.4498024 -3.1682467
-4.8612394 -1.4282808 -3.1979012
-4.9141684 -1.2477051 -3.1824613
-4.9916468 -1.2489319 -3.1347828
-5.0485768 -1.2709192 -3.0977576
-10.22976 0.63823414 -0.097387552
-10.160384 0.67754507 -0.14368927
-10.189974 0.83626473 -0.14051282
-10.309666 0.8375442 -0.067156672
-10.304342 0.67879844 -0.055433631
-9.943944 -0.31534922 -0.18279457
-9.9872723 -0.1662076 -0.17027974
-9.9887314 -0.15646003 -0.17030501
-10.006001 -0.091074556 -0.1658783
-10.084747 0.04328531 -0.13022506
-9.8158932 -1.5353256 -0.14619422
-9.8765364 -1.5512694 -0.10746014
-9.8007603 -1.5568614 -0.15344977
-9.7402363 -1.5593481 -0.19036984
-9.6943092 -1.5575968 -0.21872962
-9.7095051 -1.5409404 -0.21097422
-9.7854548 -1.5464156 -0.16383231
-9.8919621 -1.5592315 -0.09723866
-9.923173 -1.5677047 -0.077278376
-9.9842319 -1.5688339 -0.039688349
-9.9988279 -1.5645959 -0.031128287
-10.028676 -1.5572526 -0.013498545
-9.9832821 -1.5591176 -0.041188955
-9.952487 -1.5567447 -0.060318232
-9.937355 -1.5573663 -0.069548368
-9.907093 -1.5586096 -0.088008642
-8.278532 -1.3620057 -1.1063278
-8.283308 -1.2426014 -1.1146722
-8.3642721 -1.1237051 -1.0761969
-8.4355669 -1.1232772 -1.0324707
-8.4669685 -1.0834638 -1.0169536
-8.5621786 -0.92454946 -0.97351241
-8.6307764 -0.96502948 -0.92757833
-8.6699705 -1.0858107 -0.89211142
-8.6633034 -1.2052926 -0.88492072
-8.6681728 -1.2458898 -0.87809765
-8.6761856 -1.3050733 -0.86758983
-8.6634789 -1.4455205 -0.86212742
-8.5888481 -1.5355484 -0.89944041
-8.5127773 -1.5325568 -0.94642138
-8.4711256 -1.5241032 -0.97278929
-8.3968935 -1.5239695 -1.0183718
-8.3161478 -1.4950181 -1.0706747
-7.0277491 -1.5283087 -1.8584625
-7.0422649 -1.5302335 -1.8493695
-7.0678678 -1.5488758 -1.831892
-7.0365429 -1.5452517 -1.8514642
-7.0084062 -1.5268389 -1.8704758
-7.1433897 -1.5640341 -1.7840986
-7.1134315 -1.5579817 -1.803061
-7.1119514 -1.5628928 -1.8035059
-5.5753064 -1.1717343 -2.7837715
-5.6206403 -1.1584375 -2.7571976
-9.1040602 -0.96113706 -0.63740301
-9.1047201 -1.1317123 -0.62088954
-9.0941105 -1.1672831 -0.62404346
-9.0716009 -1.2126209 -0.63358033
-8.9256306 -1.2163445 -0.72283804
-8.8733425 -1.1767861 -0.75867248
-8.8312511 -1.0955567 -0.79218268
-8.8566313 -0.97394156 -0.78808725
-8.9152908 -0.93187118 -0.75604963
-8.9855289 -0.91395319 -0.71462369
-9.026371 -0.9302634 -0.68801081
-3.2226226 1.0306889 -4.4360414
-3.2955794 1.1113348 -4.39887
-3.3327127 1.1114502 -4.3760853
-3.3959894 0.95356524 -4.3223305
-3.3230326 0.87291932 -4.3595018
-3.25071 0.87230074 -4.403841
-8.4509506 -0.84547853 -1.0492606
-8.3541698 -0.72774571 -1.1197915
-8.3662968 -0.92532098 -1.0936885
-5.4706955 -1.1590998 -2.849184
-5.4981904 -1.1639705 -2.8318453
-5.4689169 -1.1703885 -2.84921
-5.3925991 -1.172612 -2.8958502
-5.4441838 -1.1603223 -2.8653438
-5.843009 1.3897913 -2.8613315
-5.7473998 1.3964022 -2.9206495
-5.7122259 1.3959483 -2.9421992
-5.6623735 1.3909731 -2.9723332
-5.7004752 1.390846 -2.948931
-5.7361708 1.3811749 -2.9261048
-9.169591 -0.4491387 -0.64552522
-9.1914387 -0.49517798 -0.62776554
-9.1976204 -0.53822261 -0.61990607
-9.1813669 -0.61093402 -0.62301672
-9.1780663 -0.69402844 -0.61719644
-9.1761208 -0.77342868 -0.61089242
-9.0575724 -0.88909376 -0.67274463
-8.9783649 -0.80779767 -0.72904611
-8.98314 -0.68839347 -0.737391
-8.9869766 -0.60891557 -0.74254143
-8.9819603 -0.48763967 -0.75707364
-8.9867754 -0.40834883 -0.76160562
-8.985775 -0.38810331 -0.76413119
-8.9877148 -0.36842263 -0.76479959
-8.9373455 -0.2891252 -0.80320895
-8.9300261 -0.27118593 -0.80939615
-8.9243717 -0.24503887 -0.81533682
-8.9161987 -0.14822553 -0.82949662
-9.02355 -0.067450523 -0.77122307
-9.0883904 -0.068424731 -0.73132598
-9.1456404 -0.10937107 -0.69231439
-9.1369152 -0.251019 -0.68429375
-9.1400137 -0.28921181 -0.6787852
-9.1715355 -0.36973843 -0.65182984
-9.1705761 -0.38960624 -0.65054238
-2.4567623 0.10982686 -4.819231
-5.5223513 1.3889421 -3.058099
-5.4833241 1.3866061 -3.0818367
-5.4527826 1.3801298 -3.0999742
-5.5308094 1.3533 -3.049541
-5.5517645 1.3430191 -3.035706
-5.566556 1.3500232 -3.027287
-5.6039095 1.3550555 -3.0048318
-5.6084375 1.3569446 -3.0022302
-5.6495299 1.3870169 -2.9798441
-5.5292144 1.3850183 -3.0535154
-5.6178298 1.3970252 -3.0002494
-6.3910551 1.4277005 -2.5284734
-6.362524 1.4283518 -2.5460496
-6.347846 1.4238305 -2.5546334
-2.5705237 0.2304031 -4.7607808
0 0 0 1 0 0 0 1 0 0 0 1 0 0 0 0 0 960 1 0 0
