ply
format ascii 1.0
comment PCL generated
element vertex 688
property float x
property float y
property float z
element camera 1
property float view_px
property float view_py
property float view_pz
property float x_axisx
property float x_axisy
property float x_axisz
property float y_axisx
property float y_axisy
property float y_axisz
property float z_axisx
property float z_axisy
property float z_axisz
property float focal
property float scalex
property float scaley
property float centerx
property float centery
property int viewportx
property int viewporty
property float k1
property float k2
end_header
0.10652399 1.3959402 -1.0888736
0.10146427 1.3958361 -1.0885314
0.13494825 1.3809913 -1.0910724
0.14140129 1.3808879 -1.0915132
0.30096722 1.3581375 -1.1027701
0.33445168 1.3633597 -1.104955
0.26168489 1.3790951 -1.0997262
0.2147584 1.3784376 -1.0965462
0.18158674 1.3787737 -1.0942839
0.22116709 1.3632642 -1.0972514
0.20948458 -1.523428 -1.1477191
0.16957331 -1.5259002 -1.1450484
0.13322449 -1.526421 -1.1425854
0.17313766 -1.5239854 -1.1452569
0.21305132 -1.5215497 -1.1479284
0.28304386 -1.4641742 -1.15167
0.33342981 -1.3838227 -1.1536702
0.32932329 -1.3364983 -1.1525505
0.35149956 -1.2634282 -1.1527612
0.33181763 -1.3364999 -1.1527202
0.35883331 -1.4229554 -1.1560929
0.33930588 -1.4560311 -1.1553521
0.33314419 -1.4887993 -1.155515
0.33307695 -1.5137937 -1.1559542
0.25353527 -1.5182158 -1.1506226
0.24940062 -1.5184561 -1.1503457
0.52402067 -0.084404498 -1.1435581
0.48859739 -0.037333012 -1.1403129
0.48660803 -0.084344685 -1.1410124
0.49665594 -0.084248334 -1.1416941
-5.4601812 -0.72386849 -0.74789447
-5.5396399 -0.77016318 -0.74331212
-5.6345444 -0.80486441 -0.73747337
-5.63451 -0.81986058 -0.73774201
-5.6196122 -0.83116376 -0.73895603
-5.5944352 -0.83166158 -0.7406773
-5.4600282 -0.92132211 -0.75141132
-5.4598894 -0.93076754 -0.75158846
-5.4331598 -1.0060614 -0.75474358
-5.4199305 -1.0157311 -0.75581509
-5.3400259 -0.98009276 -0.76061696
-5.1948352 -0.99968374 -0.77084011
-5.2603412 -0.8500905 -0.7637282
-5.2603216 -0.83747065 -0.7635054
-5.300231 -0.83504903 -0.76074797
-5.4152484 -0.7712698 -0.75179237
-5.4351549 -0.73919368 -0.74986881
-9.6088829 0.76338696 -0.43930703
-9.5958462 0.64339125 -0.44232461
-9.5561457 0.68341446 -0.44431415
-9.4769154 0.803689 -0.44756714
-9.3973284 0.843678 -0.45227021
-9.357439 0.84367728 -0.45498329
-9.3424664 0.84387004 -0.4559983
-9.3576279 0.88370109 -0.45425972
-9.3183107 1.0036685 -0.45480353
-9.398674 1.1234999 -0.44720957
-9.39886 1.1635578 -0.44648558
-9.3994331 1.2835255 -0.44431621
-9.4395084 1.3235832 -0.44087911
-9.5193529 1.3360121 -0.43522769
-9.5592766 1.343545 -0.43237853
-9.5990973 1.3249546 -0.43000022
-9.6436005 1.2430637 -0.42842752
-9.6383495 1.1881083 -0.42976055
-9.5981426 1.1232281 -0.43364745
-9.5979462 1.0833073 -0.43436974
-9.5977554 1.043318 -0.43509281
-9.5963173 1.0046543 -0.4358772
-9.5871992 0.92347848 -0.4379389
-9.6044674 0.88338459 -0.43747637
-9.5955648 0.84719658 -0.43872455
-9.5965786 0.79845226 -0.43952116
-7.7495785 -1.5607332 -0.60704076
-7.7895384 -1.5590204 -0.60429251
-7.8294334 -1.561759 -0.60162759
-7.7895069 -1.5612466 -0.60433412
-9.0289755 -1.094745 -0.5117467
-8.9883089 -1.2545315 -0.5173502
-8.8286037 -1.2525822 -0.52817798
-8.7884283 -1.3125664 -0.53197575
-8.7485332 -1.309828 -0.53464067
-8.7087154 -1.2921627 -0.53703523
-8.683939 -1.2516818 -0.53800148
-8.6691437 -1.2113286 -0.53829122
-8.6299458 -1.0716743 -0.5384773
-8.5701799 -1.051321 -0.5421809
-8.5502663 -1.0517153 -0.54354233
-8.5502272 -1.0512021 -0.54353583
-8.5828419 -1.0114064 -0.54061085
-8.5903606 -1.0039533 -0.53996706
-8.6302605 -1.0014201 -0.53720826
-8.670187 -1.0019323 -0.53450179
-8.7101631 -0.99244845 -0.5316143
-8.7500715 -0.99268746 -0.5289042
-8.7899265 -0.99487853 -0.52623236
-8.8297091 -1.0120654 -0.52383173
-8.8696012 -1.0120996 -0.521119
-8.9093342 -1.0525668 -0.51913512
-9.0692444 -1.014732 -0.5075869
-9.0690536 -1.0547212 -0.50831002
-9.1833849 -0.61537516 -0.49273175
-9.1914234 -0.49521285 -0.49005118
-9.181942 -0.39541763 -0.48892391
-9.1820374 -0.37542471 -0.48856232
-9.1747456 -0.33539069 -0.48834732
-9.1773357 -0.31540924 -0.48781639
-9.1828966 -0.19547139 -0.48530826
-9.230649 -0.1155035 -0.48064026
-9.2258511 -0.075484395 -0.48025593
-9.2210541 -0.035465226 -0.47987154
-9.2732258 -0.075563058 -0.47703511
-9.312933 -0.11565427 -0.4750464
-9.3125629 -0.195804 -0.47649482
-9.3122807 -0.25318575 -0.47753304
-9.3120718 -0.29560703 -0.47830057
-9.3120804 -0.2957103 -0.47830179
-9.2717047 -0.39290988 -0.48277408
-9.2716007 -0.41545567 -0.48318151
-9.2714176 -0.45556444 -0.48390618
-9.2710266 -0.53540665 -0.4853507
-9.2182827 -0.61531013 -0.49035701
-0.18604898 -1.5334085 -1.1209939
-0.1062355 -1.5335363 -1.1264247
-0.066322327 -1.5311006 -1.1290962
0.013490677 -1.5312283 -1.134527
0.053403854 -1.5287926 -1.1371984
0.09388113 -1.5279583 -1.1399367
0.049851894 -1.5258188 -1.136904
0.0099449158 -1.5257916 -1.1341892
-0.065460205 -1.5272537 -1.1290865
-0.10978556 -1.5307091 -1.126133
-0.18959951 -1.5306548 -1.1207035
-0.22950697 -1.5306276 -1.1179886
-0.28278637 -1.5295674 -1.114346
-0.30576229 -1.5307177 -1.1128037
-0.29033566 -1.5323471 -1.1138818
-0.28261566 -1.5315908 -1.1143935
-0.22595596 -1.5333447 -1.1182784
-3.8829339 -1.6473387 -0.87157106
-3.9629683 -1.6484457 -0.8661471
-4.0428238 -1.5309142 -0.85862851
-4.0826817 -1.5282471 -0.85587025
-4.1226392 -1.5310699 -0.85320264
-4.1475835 -1.5286191 -0.85146248
-4.1224747 -1.5253346 -0.85311198
-4.0825667 -1.5252566 -0.85582495
-4.0427094 -1.5279239 -0.85858321
-4.0253143 -1.5281352 -0.85977012
-4.0027285 -1.5275084 -0.86129522
-3.9729354 -1.528033 -0.8633309
-3.9627261 -1.5270319 -0.86400753
-3.9304695 -1.5277051 -0.86621344
-3.9229577 -1.5275677 -0.86672187
-3.9155681 -1.5279212 -0.86723077
-3.8432355 -1.5277799 -0.87214804
-3.838131 -1.5272795 -0.87248635
-3.8033299 -1.5252028 -0.87481648
-3.8033819 -1.5254483 -0.87481725
-3.8031769 -1.6474286 -0.87699735
-3.8430843 -1.6475064 -0.87428439
-3.8337009 -0.80743897 -0.8600046
-3.8436911 -0.78996253 -0.85901475
-3.8835211 -0.80729091 -0.85661346
-3.843523 -0.84317839 -0.85997123
-8.7069874 -1.6572697 -0.54363632
-8.8272085 -1.5396972 -0.53337157
-8.7473392 -1.5464438 -0.53892374
-8.6675806 -1.5520588 -0.54444826
-8.6276283 -1.5565442 -0.54724526
-8.5477495 -1.5605172 -0.5527488
-8.5078831 -1.5608253 -0.55546588
-8.4679632 -1.5630856 -0.55822116
-8.4280081 -1.5595267 -0.56087554
-8.3482294 -1.5648675 -0.56639659
-8.3083096 -1.5671278 -0.56915188
-8.2284832 -1.5691489 -0.57461727
-8.1885872 -1.5664103 -0.57728213
-8.2285042 -1.5694231 -0.57462066
0.65065336 -0.50362289 -1.1596156
0.65086985 -0.4236407 -1.15821
0.65594864 -0.40359035 -1.1581994
0.65846109 -0.38366157 -1.1580164
0.65352774 -0.36365139 -1.1573255
0.55641747 -0.30351579 -1.1496526
0.53593445 -0.28937885 -1.1480083
0.50826454 -0.31683716 -1.1466141
0.5082283 -0.33683968 -1.1469667
0.51328373 -0.36432624 -1.1477988
0.51322937 -0.38432842 -1.1481502
0.50808287 -0.41682196 -1.1483772
0.35102606 -0.49624994 -1.1391053
0.52025843 -0.4572691 -1.1499236
0.53570461 -0.47889411 -1.1513581
0.58320236 -0.54350626 -1.1557362
0.59002781 -0.61683381 -1.1575027
0.5951705 -0.62395751 -1.1579789
0.66518402 -0.66361117 -1.163445
0.65627766 -0.62405533 -1.1621368
0.65524626 -0.58389384 -1.1613535
0.66800356 -0.54364192 -1.1615064
0.65561438 -0.5136286 -1.1601307
-4.7410927 -1.5292859 -0.81110644
-4.7212553 -1.5297378 -0.8124637
-4.6812954 -1.5294144 -0.81517583
-4.6536264 -1.5283792 -0.81703943
-4.6012497 -1.5257777 -0.82055563
-4.5613422 -1.5256999 -0.82326859
-4.521667 -1.5266037 -0.82598317
-4.4817591 -1.526526 -0.82869613
-4.4416213 -1.522967 -0.83136296
-4.4818096 -1.529271 -0.82874149
-7.229146 -1.5551718 -0.64233959
-7.3085308 -1.6520844 -0.63866115
-7.3089552 -1.5579464 -0.63696063
-7.2951736 -1.5542634 -0.63783252
-7.2689095 -1.5572507 -0.63967198
-7.2290077 -1.5546137 -0.64233911
-7.1892443 -1.5525351 -0.64500672
-7.1356497 -1.5669399 -0.64890778
-7.0955172 -1.5558828 -0.65144104
-7.0695105 -1.5571212 -0.65323192
-7.1094351 -1.5497607 -0.65038574
-7.149209 -1.5468407 -0.64762855
-3.2871861 -1.166289 -0.90354866
-3.2897115 -1.1263033 -0.90266687
-3.2847149 -1.166407 -0.90371883
-2.927526 1.4188114 -0.88210464
-2.8875022 1.4193803 -0.88481683
-2.8477032 1.4089695 -0.88770866
-2.8877091 1.4134917 -0.88490731
-2.9297178 1.409698 -0.88211745
-2.9670999 1.2171038 -0.88299495
-3.0095332 1.4095905 -0.87669063
-3.0471435 1.4140087 -0.87405407
-3.0320473 1.4145901 -0.87507057
-2.99475 1.4141723 -0.87761474
-2.9697273 1.4191974 -0.87922746
-2.9299197 1.4188067 -0.88194191
-8.6471491 -1.6519125 -0.54761112
-8.5100088 -1.6516378 -0.55693394
-8.4280558 -1.5628464 -0.56093127
-8.3482389 -1.5676411 -0.56644523
-5.1898355 -1.0046651 -0.77126861
-5.1603222 -1.0093662 -0.77335948
-4.7611103 -1.5295702 -0.80974996
-4.7212515 -1.6099645 -0.81388867
-4.6987453 -1.6096753 -0.81541431
-4.6413088 -1.6318126 -0.81971401
-4.6188779 -1.6092741 -0.82083941
-6.3116269 -1.3970487 -0.70193726
-6.3724809 -1.3325154 -0.69665223
-6.3915935 -1.3298298 -0.69530463
-6.4713979 -1.2897085 -0.68916416
-6.5507965 -1.4497325 -0.68660551
-6.630568 -1.5381126 -0.68274933
-6.6567774 -1.5410119 -0.68101811
-6.6304235 -1.540054 -0.68279356
-6.5906663 -1.5354759 -0.68541646
-6.537055 -1.5407784 -0.68915701
-6.4709325 -1.5400618 -0.69364166
-6.4571233 -1.5401319 -0.6945821
-6.390996 -1.5317305 -0.69893062
-6.3774304 -1.5329689 -0.6998753
-6.3374062 -1.5324001 -0.70258743
-6.3113141 -1.534513 -0.70439965
-6.2974949 -1.5373212 -0.70538944
-6.2714067 -1.5343755 -0.70711154
-6.3115468 -1.4093363 -0.70216089
-7.8833876 1.377213 -0.54576731
-7.9232831 1.3744745 -0.54310238
-8.0030975 1.3739963 -0.53768229
-8.043005 1.3737571 -0.53497219
-8.067935 1.3711083 -0.53332359
-8.0828886 1.3685193 -0.53235251
-8.1227837 1.3657808 -0.52968764
-8.1627159 1.3705404 -0.52688712
-8.1850615 1.3717746 -0.52534533
-8.2424335 1.3633856 -0.52159208
-8.3221588 1.3534573 -0.5163458
-8.3620186 1.3432209 -0.51381648
-8.4020987 1.369927 -0.51061618
-8.4819651 1.3674119 -0.5052287
-8.4969387 1.3685377 -0.50419027
-8.5617867 1.3681837 -0.49978587
-8.6016884 1.3680125 -0.49707499
-8.6216497 1.3677905 -0.49572125
-8.6615162 1.3680986 -0.4930042
-8.6815109 1.3674318 -0.49165615
-8.7213411 1.360242 -0.48907468
-8.761281 1.3622288 -0.48632288
-8.8011074 1.3630844 -0.48359886
-8.8410034 1.360346 -0.48093396
-8.8809872 1.3670574 -0.47809526
-8.9208775 1.3723643 -0.47528788
-8.9608412 1.3793492 -0.47244564
-8.8811016 1.4000961 -0.47750077
-8.8013229 1.4080719 -0.48278534
-8.7192049 1.4485549 -0.48765174
-8.6417055 1.4115282 -0.49358046
-8.5620642 1.4495643 -0.49832183
-8.523468 1.4489408 -0.50095809
-8.4427299 1.5301924 -0.50500667
-8.4425774 1.4896895 -0.50573629
-8.4022007 1.4004663 -0.51006693
-8.3323212 1.3695241 -0.5153693
-8.3223419 1.3696181 -0.51604635
-8.3123674 1.3696436 -0.51672435
-8.2823477 1.3736911 -0.51869428
-8.2424603 1.3736562 -0.52140784
-8.2025642 1.3763947 -0.52407277
-8.1627111 1.3785858 -0.52674454
-8.1227188 1.3746476 -0.52953458
-8.0828104 1.3748868 -0.53224468
-8.0429363 1.3773512 -0.53491306
-8.0030203 1.3803637 -0.53757441
-7.9232054 1.3808419 -0.54299462
-7.8832979 1.3810811 -0.54570466
-7.8434396 1.3779994 -0.54847038
-7.8034954 1.3840586 -0.55107963
-7.7636571 1.3807037 -0.55384886
-7.7237415 1.3837155 -0.55651027
-7.7636776 1.3804297 -0.55385232
-7.8035727 1.3776911 -0.55118746
-8.0289583 -1.5654539 -0.58812243
-8.0688782 -1.5631936 -0.58536714
-8.1087666 -1.5631596 -0.58265352
-8.1486807 -1.5661713 -0.57999218
-8.1087332 -1.5653847 -0.58269525
-8.0688868 -1.5659672 -0.58541578
-7.0295858 -1.5644816 -0.6560781
-6.9158573 -1.6530098 -0.66538554
-6.8960781 -1.653707 -0.66674322
-6.8734555 -1.6529268 -0.66826802
-6.790031 -1.5506015 -0.6721251
-6.7502794 -1.5435241 -0.67470318
-6.7901869 -1.5436616 -0.67199129
-6.8699899 -1.5489353 -0.66665709
-6.9358926 -1.5480732 -0.66215932
-6.9498048 -1.5492104 -0.66123331
-6.9897122 -1.549348 -0.65852141
-7.0294642 -1.5564253 -0.65594333
-7.0558424 -1.5567867 -0.65415561
-7.6280756 -1.5584886 -0.61526501
-7.6282034 -1.5640453 -0.61535501
-7.669816 -1.5583029 -0.6124227
-3.0853219 -1.1666315 -0.91728467
-3.0453401 -1.2063602 -0.92070961
-3.0852509 -1.1913801 -0.91772902
-2.9260743 -0.32538241 -0.91317701
-2.930347 -0.14276126 -0.90964341
-2.9295971 -0.14057195 -0.90965551
-2.9162195 -0.14531043 -0.91064954
-1.8462803 -1.5264279 -1.0079482
-1.838814 -1.5260768 -1.0084498
-1.8067975 -1.5273799 -1.0106505
-1.7590134 -1.5312058 -1.0139686
-1.7989068 -1.5261419 -1.0111653
-1.8389916 -1.5265528 -1.0084462
-1.6870902 -1.5325737 -1.0188848
-1.6795607 -1.5347874 -1.0194361
-1.6392779 -1.5264022 -1.0220271
-1.6791849 -1.5263373 -1.0193117
-1.7192767 -1.5292474 -1.0166365
-2.4776845 -1.5259873 -0.96499503
-2.4453173 -1.5288404 -0.96724713
-2.4775143 -1.5280107 -0.96504253
-2.5172441 -1.5274696 -0.9623307
-2.5650177 -1.5211473 -0.958969
-2.5970447 -1.5223407 -0.9568119
-2.5571444 -1.5249052 -0.95957124
-2.5249193 -1.528267 -0.96182281
-2.4850054 -1.5258324 -0.96449435
-2.2380917 -1.5358995 -0.98146713
-2.1980069 -1.5354887 -0.98418617
-2.1580927 -1.5330544 -0.98685777
-2.1260679 -1.5318594 -0.98901474
-2.1582632 -1.5310309 -0.98681021
-2.1657627 -1.5313509 -0.98630583
-2.1905174 -1.5330014 -0.98465145
-2.2021182 -1.5328352 -0.98385942
-2.2379141 -1.5354236 -0.9814707
-2.2778213 -1.5353584 -0.97875524
0.12966633 -1.5258731 -1.1423336
0.12922049 -1.526768 -1.1423192
-1.0007477 -1.522445 -1.0653869
-0.92884254 -1.5288086 -1.0703906
-0.88872337 -1.52843 -1.0731126
-0.88139486 -1.5285909 -1.0736139
-0.84902143 -1.526439 -1.0757775
-0.88850403 -1.5254869 -1.0730753
-0.92093992 -1.5250746 -1.0708618
-4.4023957 -0.86128116 -0.82228065
-4.4421024 -0.90311265 -0.82032281
-4.4421501 -0.88826954 -0.82005596
-4.4423227 -0.83636487 -0.81912249
-5.793282 -1.0742279 -0.73146009
-5.8737054 -1.0911078 -0.72628987
-5.9129024 -1.1271966 -0.72426468
-5.8729715 -1.1294886 -0.72702134
-5.8586287 -1.1307318 -0.72801894
-5.8331041 -1.1269913 -0.72968858
-5.778821 -1.1306069 -0.73344487
-5.743278 -1.1265422 -0.73579019
-5.7834153 -1.0872483 -0.73236245
-4.4019442 -1.5263702 -0.83412206
-4.3692846 -1.5278246 -0.83636922
-4.3618455 -1.5279942 -0.83687824
-4.3221288 -1.5262146 -0.83954799
-4.2819905 -1.5226556 -0.84221482
-4.2423115 -1.5285584 -0.84501845
-4.2298408 -1.5285341 -0.8458662
-4.2022882 -1.5279896 -0.84773058
-4.1624966 -1.5284027 -0.85044432
-4.2023358 -1.5332341 -0.8478204
-4.3618002 -1.5303094 -0.83692247
-4.3219447 -1.5304773 -0.83963621
-4.3094754 -1.5279535 -0.8404395
-4.2820425 -1.5229012 -0.84221566
-4.2423639 -1.5288038 -0.84501922
-4.760932 -1.5263345 -0.80970466
-5.3397374 -1.5305465 -0.77041161
-5.3535352 -1.5312119 -0.769485
-5.3933039 -1.5307913 -0.76677263
-5.4196491 -1.5286016 -0.76494181
-5.4732804 -1.5216273 -0.76117021
-5.4993525 -1.5232676 -0.75942606
-5.4593325 -1.5177001 -0.76204914
-5.433373 -1.5214897 -0.7638821
-5.3931828 -1.5227351 -0.7666378
-5.3496928 -1.5304739 -0.76973319
-5.2737145 -1.5334362 -0.77495354
-5.2597842 -1.529808 -0.77583653
-5.2996922 -1.5298858 -0.77312356
-5.3136277 -1.5310744 -0.77219689
-6.4177876 -0.80272734 -0.68416262
-6.3529072 -0.79484344 -0.68843555
-6.3354135 -0.80977941 -0.68989062
-6.3528328 -0.827335 -0.68901753
-6.4450207 -0.80959952 -0.68243241
-6.4576874 -0.81280279 -0.68162775
-6.4725695 -0.81014752 -0.6805684
-6.4750957 -0.80776155 -0.68035418
-2.8054552 -1.5275197 -0.9427287
-2.9251454 -1.5025136 -0.93414384
-2.8050513 -1.5145091 -0.94252515
-2.7643411 -1.5203791 -0.94539827
-2.756844 -1.5200567 -0.94590247
-2.7255611 -1.5244966 -0.94810903
-2.7182233 -1.5250955 -0.94861877
-2.7006996 -1.524816 -0.94980568
-2.6857364 -1.5222874 -0.95077848
-2.6770296 -1.520187 -0.9513334
-2.6444147 -1.5226297 -0.9535951
-2.6858487 -1.5277772 -0.95086837
-2.7246668 -1.528386 -0.94823897
-2.7566876 -1.5270791 -0.94603783
-2.7967722 -1.52749 -0.94331872
-2.9071114 0.45993742 -0.90052098
-2.9465611 0.5349623 -0.89650548
-2.909632 0.6198988 -0.89750892
-2.8772206 0.69992495 -0.8982923
-2.8772273 0.73991609 -0.8975817
-2.8743837 0.7350564 -0.89786136
-2.8743527 0.69506574 -0.89857364
-2.8497708 0.6199795 -0.90157902
-2.8742285 0.53510344 -0.90142274
-2.8647094 0.45999452 -0.903404
-2.8696911 0.41999659 -0.90377539
-2.8896401 0.38997635 -0.90295172
-2.899622 0.41995636 -0.90174037
0.33169556 -1.103881 -1.148581
0.35499716 -1.0561296 -1.1493179
0.33424282 -1.1038007 -1.1487528
-1.0086427 -1.5236799 -1.0648718
-1.0406554 -1.5223798 -1.0626714
-1.1204765 -1.5247492 -1.0572844
-1.0485563 -1.5261143 -1.0622003
-1.2402055 -1.5270531 -1.0491819
-1.2079794 -1.5279105 -1.051389
-1.2004755 -1.5275943 -1.0518937
-1.1682773 -1.5259196 -1.054054
-1.1603839 -1.524684 -1.0545689
-1.1680655 -1.5254759 -1.0540605
-1.2006462 -1.5255709 -1.0518461
-4.087038 1.3956424 -0.80365115
-4.084713 1.3945506 -0.80382866
-4.1269455 1.3955885 -0.80093777
-5.5018759 1.3764211 -0.70776141
-5.4640803 1.3752909 -0.71035212
-5.3822856 1.4161689 -0.71518958
-5.3441377 1.4114447 -0.71786809
-5.3024621 1.4088488 -0.72074878
-5.3423748 1.4137585 -0.71794689
-5.361598 1.41642 -0.71659219
-5.3841476 1.4234436 -0.71493369
-5.4220195 1.424597 -0.71233737
-5.4389195 1.4163158 -0.71133494
-5.464406 1.4095061 -0.7097224
-5.5037651 1.3937335 -0.70732546
-5.5437732 1.3907357 -0.70465755
-5.58358 1.3886272 -0.70198745
-5.623487 1.3860739 -0.69931853
-5.663394 1.3835207 -0.69664955
-5.70151 1.3804655 -0.69411135
-5.7414126 1.3753778 -0.69148767
-5.7812219 1.3683001 -0.68890572
-5.7413197 1.3733878 -0.69152933
-5.7134781 1.375066 -0.69339317
-5.7035074 1.3738021 -0.69409382
-5.6616025 1.3805547 -0.69682407
-2.9447448 1.179284 -0.88518709
-2.9696527 1.2142677 -0.88287169
-5.9388013 -0.77380896 -0.71622765
-5.9536467 -0.76749778 -0.71510589
-5.9535952 -0.77485633 -0.71524006
-5.9785619 -0.85100043 -0.71489412
-6.1004739 1.407865 -0.66648895
-6.0605435 1.4080815 -0.66920102
-5.9826632 1.4255816 -0.67418736
-6.0226727 1.4375803 -0.67125297
-6.0624785 1.4279735 -0.66871613
-6.1005511 1.4325726 -0.66604495
-6.1821957 1.39282 -0.66119778
-6.2221022 1.3852677 -0.65861762
-6.2600336 1.3777394 -0.65617138
-6.301918 1.3876599 -0.65314639
-6.2620101 1.3852141 -0.65590423
-7.524188 1.3904572 -0.56996328
-7.6838627 1.3809079 -0.55927247
-7.5242081 1.3901838 -0.56996679
-7.4991493 1.393546 -0.57161146
-7.4573674 1.3870574 -0.57456851
-7.4194355 1.4007072 -0.57690609
-7.3900414 1.4047034 -0.57883435
-7.3377457 1.3968124 -0.58253145
-7.2998133 1.4054227 -0.58495855
-7.2579384 1.4044887 -0.58782327
-7.2200241 1.4129175 -0.59025234
-7.2100224 1.4130419 -0.5909304
-7.1742907 1.4051845 -0.59350026
-7.1381059 1.3877693 -0.59627062
-7.1001711 1.3836411 -0.5989241
-7.0583735 1.3799396 -0.60183275
-7.018466 1.3800285 -0.60454547
-6.9785552 1.3776182 -0.60730284
-6.9405403 1.3863554 -0.60973328
-6.8987455 1.382795 -0.61263925
-6.8588381 1.3828839 -0.61535197
-6.8986549 1.3833044 -0.61263633
-6.9007325 1.3834652 -0.61249214
-6.9404407 1.3867999 -0.60973215
-6.9803481 1.3867463 -0.60701877
-7.020256 1.3841932 -0.60434979
-7.0582857 1.3829484 -0.6017853
-7.100071 1.3840855 -0.59892303
-7.1399813 1.4015281 -0.59589875
-7.1549487 1.414005 -0.59465915
-7.2600145 1.5325594 -0.58540773
-7.3396282 1.4132842 -0.58211088
-7.379529 1.4107589 -0.57944179
-7.4175682 1.4041327 -0.57697225
-7.4592428 1.4010981 -0.57419157
-2.1295767 1.3792806 -0.93707967
-2.1520197 1.3917609 -0.93533158
-2.1462591 1.3908535 -0.93573952
-2.1244466 1.3801225 -0.93741369
-2.0665083 1.3706434 -0.94152272
-2.0323102 1.359359 -0.94404912
-2.0664444 1.3634517 -0.9416548
-2.0722158 1.3643275 -0.94124663
-2.1088459 1.3709012 -0.93863851
-2.1112375 1.3713889 -0.9384672
-1.479656 -1.529162 -1.032933
-1.5197263 -1.5245742 -1.0301261
-1.5272291 -1.5248915 -1.0296214
-1.5673621 -1.530269 -1.0269872
-1.607269 -1.5302041 -1.0242717
-1.4075148 -1.5275857 -1.0378116
-1.447634 -1.5279644 -1.0350897
-1.4397488 -1.5292273 -1.0356483
-1.4800105 -1.5301139 -1.0329257
-1.4875479 -1.5303988 -1.0324181
-1.519556 -1.5265975 -1.0301735
-0.60168934 -1.5280946 -1.0926294
-0.56212997 -1.5266123 -1.0952938
-0.52934742 -1.5285708 -1.0975583
-0.5218749 -1.5282248 -1.0980604
-0.52955961 -1.5290145 -1.0975517
-0.56178236 -1.5281597 -1.0953449
-0.56967878 -1.5293931 -1.0948297
-4.1928053 -0.80789411 -0.83558798
-4.2028828 -0.82839966 -0.83526671
-4.2577715 -0.80851138 -0.83118021
-4.2479205 -0.72875607 -0.83043396
-4.2030339 -0.71617138 -0.83326346
-4.1829758 -0.7683748 -0.83555478
-3.0894485 1.4090385 -0.87126493
-3.08828 1.4140052 -0.87125623
-3.6060758 1.4219964 -0.83589613
-3.5882959 1.4183645 -0.83716989
-3.6059518 1.4124895 -0.8360734
-3.6481559 1.4082861 -0.83327746
-3.6879625 1.4036781 -0.83065182
-3.7278702 1.4036243 -0.82793844
-3.8877001 1.3950219 -0.81722027
-3.7255583 1.412747 -0.82793367
-3.6857886 1.4122419 -0.83064759
-3.6459832 1.4219186 -0.83318317
-6.1802311 1.3904144 -0.66137409
-0.37014341 -1.5297177 -1.108407
-0.34566164 -1.5281544 -1.1100444
-0.32233858 -1.5285503 -1.1116377
-0.40216017 -1.5309197 -1.1062508
-0.385005 -1.5296917 -1.1073958
-0.3895812 -1.5314142 -1.107115
-0.36225319 -1.5309845 -1.1089661
-0.34922791 -1.5305463 -1.1098443
-0.34538364 -1.5302047 -1.1100998
-0.33023596 -1.5297828 -1.1111225
-0.30932093 -1.5305735 -1.1125591
-1.5993707 -1.5264673 -1.0247426
-1.3676147 -1.5301502 -1.040571
-1.3599341 -1.5293573 -1.0410794
-1.36782 -1.5280943 -1.0405205
-0.48196793 -1.5282899 -1.1007758
-0.44996405 -1.5320873 -1.1030201
-0.48215199 -1.5312654 -1.1008161
-0.48986435 -1.5295229 -1.1002606
-4.2844858 1.3956791 -0.79022098
-4.3243914 1.393102 -0.78755254
-4.3663917 1.3952662 -0.78465742
-4.3242774 1.3960923 -0.78750718
-4.7255664 1.4297749 -0.75961512
-4.9230561 1.4569193 -0.74570066
-4.9629431 1.4494046 -0.74312121
-5.0028653 1.4492654 -0.7404083
-5.0427575 1.4291923 -0.73805147
-5.0824399 1.4159081 -0.73558837
-5.1246409 1.4142407 -0.73274767
-5.1383619 1.4167212 -0.73177034
-5.1445999 1.4167122 -0.73134625
-5.1621222 1.4179343 -0.73013276
-5.1795144 1.4166663 -0.72897232
-5.1845078 1.4166584 -0.72863287
-5.2021441 1.4148661 -0.72746515
-5.2225614 1.4145349 -0.72608232
-5.2369866 1.4161433 -0.72507262
-5.2543464 1.4165643 -0.7238844
-5.2695122 1.4156551 -0.72286904
-4.9228044 1.432907 -0.74614424
-4.9650121 1.426953 -0.74337918
-5.0448265 1.4193472 -0.73808563
-5.0799232 1.4101057 -0.73586261
-5.1029181 1.4042948 -0.73440176
-5.1225533 1.4040426 -0.73307073
-5.1624627 1.4064641 -0.7303133
-5.187407 1.4089148 -0.72857314
-5.2023726 1.4088856 -0.72755575
-5.2244148 1.4116058 -0.7260083
-5.2622881 1.4154649 -0.72336376
-5.5130372 -1.5262052 -0.75854743
-5.5530949 -1.5219022 -0.75574642
-6.7365932 -1.5411676 -0.67559218
-6.7364745 -1.5431762 -0.67563593
-4.4861155 1.4001039 -0.7764284
-4.5239315 1.3952123 -0.77394319
-4.4837971 1.4037701 -0.77652097
-4.446208 1.4001575 -0.77914178
-4.4064999 1.3968227 -0.78190178
-6.7790222 1.3830618 -0.62077749
-6.7391148 1.3831508 -0.62349033
-6.7789316 1.3835713 -0.62077463
-4.4042063 1.3929464 -0.78212661
-4.4441142 1.3928684 -0.77941364
-5.5817842 1.3782331 -0.70229417
-5.5418687 1.3708239 -0.70514065
-5.5239167 1.3753214 -0.70628178
-4.5637245 1.3981247 -0.77118492
-4.6037464 1.3950565 -0.76851732
-4.6436639 1.4074758 -0.76558173
-4.6586313 1.409946 -0.76451987
-4.6684918 1.4104174 -0.76384079
-4.6835756 1.4123968 -0.76277977
-4.7231441 1.4262886 -0.7598418
-4.5659313 1.4024959 -0.77095723
-4.6457477 1.4098867 -0.76539719
-4.6856575 1.4223301 -0.76246172
0 0 0 1 0 0 0 1 0 0 0 1 0 0 0 0 0 688 1 0 0
