ply
format ascii 1.0
comment PCL generated
element vertex 715
property float x
property float y
property float z
element camera 1
property float view_px
property float view_py
property float view_pz
property float x_axisx
property float x_axisy
property float x_axisz
property float y_axisx
property float y_axisy
property float y_axisz
property float z_axisx
property float z_axisy
property float z_axisz
property float focal
property float scalex
property float scaley
property float centerx
property float centery
property int viewportx
property int viewporty
property float k1
property float k2
end_header
-10.827757 1.350122 0.75721407
-10.832042 1.3340275 0.75900221
-10.836443 1.3101475 0.7610265
-10.843613 1.2720358 0.7643038
-10.847614 1.2315102 0.7666254
-10.767513 1.3223608 0.73856986
-10.730714 1.3348589 0.72642815
-10.711645 1.3502119 0.71990991
-10.657324 1.3748453 0.70182896
-10.703343 1.3687365 0.71676934
-10.777359 1.3737197 0.74041998
-10.814157 1.3612216 0.75256169
-0.58995485 1.3803735 -2.5325637
-0.61789942 1.3868041 -2.5237503
-0.62589931 1.3907206 -2.5212803
-0.69077969 1.5120947 -2.5035391
-0.6930666 1.5096095 -2.5027409
-0.71200657 1.4695168 -2.4956315
-0.72815228 1.4325252 -2.4894991
-0.68292475 1.4034276 -2.5032852
-0.57178211 1.3828411 -2.5384645
-0.49781752 1.3824399 -2.5622165
-0.46685839 1.3796406 -2.5720909
-0.42380381 1.3770423 -2.585856
-0.46078634 1.3772433 -2.5739803
-0.49490833 1.3786008 -2.5630529
-0.50387526 1.3798926 -2.5602052
-5.0676608 -0.72942734 -1.0401284
-5.1092148 -0.67232621 -1.0282382
-5.1462069 -0.67217481 -1.0163579
-5.1646848 -0.67459834 -1.0103598
-5.2296762 -0.66813672 -0.9896456
-5.2755556 -0.68413675 -0.97449738
-5.3091035 -0.68854582 -0.96360719
-5.3263674 -0.68892491 -0.95805126
-5.3583221 -0.70997816 -0.94724739
-5.4322534 -0.71467161 -0.9233762
-5.5411806 -0.68924499 -0.88903201
-5.5434928 -0.68923557 -0.88828945
-5.5766721 -0.72861922 -0.87662363
-5.6163721 -0.79385644 -0.86220211
-5.6741233 -0.81138217 -0.84320104
-5.7171497 -0.82951719 -0.82891488
-5.9020572 -0.83375645 -0.76940286
-5.975872 -0.81337041 -0.7462101
-6.0783391 -0.81015694 -0.71337366
-6.1154447 -0.81894141 -0.70122862
-6.1881895 -0.83118725 -0.67754561
-6.3183618 -0.83067113 -0.63573945
-6.3361316 -0.83307976 -0.62996918
-6.3640785 -0.83176589 -0.62102455
-6.3731232 -0.8329283 -0.61808908
-6.4101152 -0.8327769 -0.6062088
-6.4471073 -0.83262545 -0.59432852
-6.5583906 -0.83231676 -0.55858564
-6.6233587 -0.83103991 -0.53774655
-6.6323833 -0.8321352 -0.53481925
-6.6693797 -0.83204436 -0.52293605
-6.6698122 -0.79456967 -0.52375495
-6.595819 -0.79475129 -0.54752135
-6.5127435 -0.79883426 -0.57410598
-6.4022727 -0.75413704 -0.61073828
-6.3365521 -0.79310882 -0.63085562
-6.2022457 -0.81364322 -0.67347825
-6.1708302 -0.80992991 -0.68366563
-6.1247573 -0.79505348 -0.69884729
-6.0491886 -0.76802176 -0.72381544
-6.0228939 -0.75702083 -0.73254418
-5.9961214 -0.75815904 -0.74111593
-5.9401011 -0.73367763 -0.7597388
-5.8569932 -0.7403127 -0.78626859
-9.6815434 1.4402089 0.38667834
-9.6515388 1.4427128 0.37697482
-9.61339 1.4403591 0.36477959
-9.5060492 1.4413445 0.33026981
-9.4921837 1.4413471 0.32581544
-9.4382591 1.4016743 0.30950558
-9.3919277 1.3852985 0.29503953
-9.4497786 1.399174 0.31327021
-9.4803257 1.3985476 0.32309973
-9.5122051 1.4016609 0.33326185
-9.586359 1.4166374 0.35670185
-9.641449 1.3980355 0.37487531
-9.6598883 1.3866444 0.3810904
-9.7058735 1.3780375 0.39608335
-9.8719969 1.3757997 0.44950962
-9.9274902 1.3782885 0.46727407
-9.881403 1.3794007 0.45243943
-9.8722515 1.3780081 0.44953525
-5.3496981 -1.5293825 -0.92907494
-5.2755299 -1.5471725 -0.95244765
-5.2385383 -1.5473239 -0.96432775
-5.2200336 -1.5473986 -0.97027057
-5.1645536 -1.5476267 -0.98808831
-5.1276932 -1.5352874 -1.0002455
-5.1001701 -1.5317013 -1.0091792
-5.0541334 -1.5306904 -1.0239949
-5.0860639 -1.5273869 -1.0138214
-5.1096559 -1.5279663 -1.0062274
-5.1188955 -1.5279274 -1.00326
-5.1466479 -1.5278149 -0.9943471
-5.174181 -1.5289004 -0.98547411
-5.1926851 -1.5288258 -0.97953135
-5.2106209 -1.5274272 -0.97380507
-5.2666688 -1.528523 -0.95577097
-5.3407059 -1.5232236 -0.93212122
-5.3793416 -1.5282865 -0.91957974
-5.3655272 -1.5314167 -0.9239378
-8.2724142 1.4093211 -0.06523037
-8.2943001 1.4956541 -0.06040591
-8.367898 1.4706578 -0.036122739
-8.3957901 1.4742551 -0.027253985
-8.4141254 1.4795389 -0.021498561
-8.5245934 1.447041 0.014821112
-8.5973225 1.359587 0.040421188
-8.5746975 1.3653612 0.033005118
-8.5325966 1.3659897 0.019463539
-8.5235853 1.3745899 0.01634872
-8.4502649 1.4195731 -0.0083557963
-8.3599691 1.4070976 -0.037045419
-8.3348064 1.4093099 -0.045185924
-8.3249283 1.4088287 -0.048346817
-8.2371149 1.3554685 -0.07519418
-4.6813674 1.4019847 -1.2187054
-4.7461319 1.3885572 -1.1975559
-4.8013163 1.3938105 -1.1799616
-4.7274408 1.4034505 -1.2039411
-4.3951406 1.3918869 -1.3104007
-4.4412141 1.3933525 -1.2956365
-4.4503245 1.3971403 -1.2928065
-10.894247 -1.1921079 0.84355092
-10.908661 -1.1318207 0.84664059
-10.909251 -1.0893495 0.84574485
-10.905527 -1.0288374 0.84300196
-10.910364 -1.0094037 0.84405899
-10.893811 -0.85421503 0.83477485
-10.889566 -0.83117747 0.83282232
-10.800766 -0.70924175 0.80117774
-10.799549 -0.6696136 0.79977393
-10.796555 -0.71068984 0.79986191
-10.713758 -0.82776523 0.77625465
-10.658121 -0.86945289 0.75944614
-10.652456 -0.94440114 0.75954211
-10.644897 -0.98936939 0.75826311
-10.675158 -1.0678029 0.76998901
-10.732924 -1.1481733 0.79060125
-10.757231 -1.2281235 0.80045342
-10.749046 -1.3180614 0.80012298
-10.681784 -1.4940348 0.78301179
-10.597784 -1.56037 0.75772142
-10.514479 -1.5767393 0.73137701
-10.440672 -1.5667329 0.70741022
-10.403665 -1.5692244 0.69558465
-10.292538 -1.5841942 0.66026652
-10.237298 -1.5844748 0.64252734
-10.181723 -1.5766792 0.62447381
-10.200197 -1.585572 0.63063633
-10.263256 -1.6877234 0.65350544
-10.375528 -1.5903099 0.68708467
-10.449615 -1.5803299 0.71063042
-10.827976 0.70945042 0.77365935
-10.865759 0.75162441 0.78471971
-10.843138 0.78660482 0.77655828
-3.8069935 -1.5348938 -1.4245446
-3.8933883 -1.6462545 -1.3939432
-3.9920063 -1.5291402 -1.3652543
-4.0290246 -1.5264907 -1.3534296
-4.0470357 -1.53631 -1.3473923
-3.908977 -1.5282807 -1.3919504
-3.145828 -0.76099628 -1.656731
-3.1723192 -0.64217961 -1.6512573
-3.1834884 -0.5626452 -1.6497018
-3.1871564 -0.48306659 -1.6505573
-3.1896937 -0.40334263 -1.6517799
-3.193887 -0.37735197 -1.6510969
-3.1913829 -0.32350972 -1.6532776
-3.193217 -0.2837204 -1.6537054
-3.1892781 -0.17757538 -1.6576836
-3.1900954 -0.097636431 -1.6594641
-3.1768212 -0.056480348 -1.6647806
-3.1477728 0.024568081 -1.6761842
-3.1481817 0.064537555 -1.6770744
-3.1704347 0.22326195 -1.6739821
-3.1427703 0.26474059 -1.6839298
-3.1651342 0.38310689 -1.6797705
-3.1632309 0.4230653 -1.6814032
-3.1617365 0.50299329 -1.6839261
-3.1484623 0.54414934 -1.6892426
-3.1517019 0.58374107 -1.6892138
-3.1492796 0.62408835 -1.6910231
-3.1641886 0.74281031 -1.6892679
-3.1622856 0.78276867 -1.6909004
-3.160459 0.83022135 -1.6927
-3.0838723 0.78364688 -1.716114
-2.9946241 0.74434954 -1.7437816
-2.9819324 0.74444562 -1.7478614
-2.9543953 0.70458168 -1.7556891
-2.9098248 0.66667062 -1.7690389
-2.9931469 0.54442662 -1.7391465
-3.0321493 0.46428615 -1.7245681
-3.1060328 0.34457898 -1.6977727
-3.0670943 0.26461488 -1.7082384
-3.0658684 0.14470643 -1.7055675
-3.1026058 0.064868152 -1.6917245
-3.0638249 -0.055140972 -1.7011161
-3.1480415 -0.17526832 -1.6709903
-3.1395648 -0.21511976 -1.672695
-3.0966201 -0.28111726 -1.6848047
-3.096765 -0.32116085 -1.6837347
-3.1003752 -0.37509835 -1.6811962
-3.1353214 -0.44128552 -1.6682777
-3.1354661 -0.48132911 -1.6672077
-3.1359508 -0.60115981 -1.6639893
-0.65678263 -1.5180686 -2.4370141
-0.77673721 -1.5258653 -2.398278
-0.76782179 -1.5146954 -2.4014277
-4.9555969 1.4587102 -1.1320559
-4.9150705 1.4580479 -1.1450586
-4.8384581 1.4089751 -1.168417
-4.8755488 1.4191437 -1.1567611
-4.8961673 1.4179902 -1.1501076
-4.9861059 1.3797028 -1.1202353
-5.0414014 1.3787143 -1.1024458
-5.115191 1.3778141 -1.078717
-5.1429381 1.3766675 -1.0697737
-5.2264891 1.4108179 -1.0438049
-5.2540474 1.4096961 -1.0349228
-5.3001723 1.416158 -1.0202698
-5.2355995 1.4146054 -1.0409749
-5.1506567 1.4204528 -1.0684131
-5.14358 1.4241645 -1.0707815
-5.134201 1.4278629 -1.073889
-5.0491543 1.4586864 -1.1019992
-5.0330992 1.4710999 -1.1074742
-5.0052466 1.4772093 -1.1165783
-7.1600285 -1.5575655 -0.34676641
-7.1032214 -1.634887 -0.36304009
-7.0211253 -1.5540276 -0.39148104
-6.1936221 -1.2395719 -0.66536248
-6.1475143 -1.2460625 -0.68000913
-6.1544223 -1.2485437 -0.67772657
-6.1677651 -1.2522464 -0.67334539
-6.1933341 -1.264555 -0.6648165
-6.3671646 -1.2102845 -0.6103586
-6.3857188 -1.2099595 -0.60440612
-6.4700999 -1.2885947 -0.57528806
-6.525342 -1.2920749 -0.55745202
-6.5156889 -1.3270738 -0.55965853
-6.5154123 -1.3719304 -0.5586009
-6.5506401 -1.5043633 -0.54389882
-6.5872908 -1.5342524 -0.53136051
-6.5528593 -1.5307212 -0.54251218
-6.4790907 -1.5297849 -0.56623507
-6.4581938 -1.5373309 -0.57275569
-6.4397984 -1.5271206 -0.57892632
-6.4028854 -1.5197773 -0.59097266
-6.3564887 -1.5162137 -0.60596919
-6.3197513 -1.5289106 -0.61744702
-6.2551904 -1.5330961 -0.63808089
-6.2919879 -1.5127373 -0.62677962
-6.3105826 -1.5052161 -0.62099814
-6.3476658 -1.4976304 -0.60927868
-6.4275565 -1.3722901 -0.58681637
-6.4235024 -1.3375566 -0.58900654
-6.4236465 -1.3250651 -0.58927959
-10.754618 -1.5739939 0.80845404
-10.723147 -1.6297097 0.79976797
-10.685036 -1.629565 0.78752017
-10.65911 -1.6289394 0.77917552
-7.558938 -1.5563359 -0.21864384
-7.494143 -1.55493 -0.23949593
-7.5570688 -1.5599432 -0.21915215
-7.5850401 -1.5587573 -0.2101965
-7.4280577 -1.555527 -0.26071125
-7.3170686 -1.5557992 -0.29636085
-7.2891545 -1.5519888 -0.30542588
-7.2801299 -1.5508935 -0.30835319
-7.3321304 -1.653194 -0.28903264
-7.4084358 -1.6530066 -0.26452351
-7.4849925 -1.5563226 -0.24240005
-3.9660168 1.423574 -1.4490712
-3.9245069 1.4333682 -1.4626571
-3.9425492 1.4234567 -1.4566076
-3.9476197 1.4202788 -1.4548973
-3.9794354 1.4136403 -1.4445064
-3.9982543 1.4112375 -1.4383993
-2.8016775 -0.44615477 -1.77534
-2.8077106 -0.46694922 -1.7728703
-2.8222942 -0.56037557 -1.7657974
-2.8235695 -0.60056448 -1.7643604
-2.8261199 -0.68094224 -1.7614868
-2.8273954 -0.72113109 -1.7600498
-2.8280189 -0.67995995 -1.7609018
-2.8392 -0.60596275 -1.759201
-2.8254831 -0.56672776 -1.7646105
-2.8400774 -0.48605359 -1.7619839
-2.8520684 -0.43922156 -1.7593286
-2.8563607 -0.37320948 -1.7596369
-2.8426635 -0.2863521 -1.7662572
-2.8387508 -0.25297803 -1.7683672
-2.8008502 -0.17301022 -1.7825871
-2.8027711 -0.093227267 -1.784009
-2.6197388 -0.13450781 -1.841755
-2.6183734 -0.28780812 -1.8382756
-2.8019838 -0.29290342 -1.7791586
-2.8045328 -0.28649664 -1.7785034
-10.888807 -1.2139708 0.84236193
-10.786645 -1.2730985 0.81105268
-10.783037 -1.350255 0.81186569
-10.782053 -1.4290967 0.81356442
-10.767759 -1.4679632 0.80996573
-10.765123 -1.4751673 0.80930305
-10.757832 -1.5090384 0.80782652
-10.35253 1.3834991 0.60368896
-10.361575 1.3773968 0.6067512
-10.435521 1.3773835 0.63050759
-0.2296834 -1.4933665 -2.5748556
-0.20692396 -1.4485586 -2.5833125
-0.20957184 -1.4085739 -2.5834837
-0.2215786 -1.3247142 -2.5817697
-0.23139763 -1.2885249 -2.5795403
-0.26763105 -1.248153 -2.5689318
-0.27566433 -1.2869563 -2.5653594
-0.2873106 -1.313087 -2.5609498
-0.2891078 -1.3658481 -2.5590239
-0.29314327 -1.4454374 -2.5556934
-0.37975597 -1.5177555 -2.5260198
-0.40557194 -1.5208774 -2.5176463
-0.471838 -1.5070369 -2.4967113
-0.49753904 -1.5177901 -2.4881797
-0.52771139 -1.526581 -2.4782619
-0.49969196 -1.5280504 -2.487226
-0.48851061 -1.526576 -2.4908557
-0.43468428 -1.5273132 -2.5081291
-0.39771366 -1.522609 -2.5201266
-0.370749 -1.5190761 -2.5288796
-0.33162165 -1.511389 -2.5416462
-0.30357122 -1.510349 -2.5506842
-3.6409349 -1.5331748 -1.4779366
-3.695991 -1.5378463 -1.46013
-3.6499276 -1.5393336 -1.4748902
-3.5389514 -1.5397878 -1.5105309
-0.60617018 -0.84901327 -2.4703739
-0.61515856 -0.85019094 -2.4674563
-0.69024849 -0.77216309 -2.445327
-0.67125416 -0.7698139 -2.4514892
-0.61643505 -0.74526739 -2.4697278
-0.53495359 -0.76737702 -2.4953394
-0.53214502 -0.76700902 -2.4962513
-0.45492029 -0.72780645 -2.5220623
-0.43267441 -0.64937341 -2.5312138
-0.4244051 -0.60809177 -2.5349255
-0.42252398 -0.565323 -2.536623
-0.43414593 -0.52938151 -2.5338078
-0.42779875 -0.48785132 -2.5369084
-0.41160393 -0.48796156 -2.5421085
-0.3962574 -0.49221075 -2.5469301
-0.32202911 -0.51724255 -2.570137
-0.29397869 -0.51620269 -2.579175
-0.22031021 -0.60678786 -2.6005266
-0.21808434 -0.73903477 -2.5978618
-0.21746492 -0.84648949 -2.5953143
-0.24402857 -0.92485636 -2.5847774
-0.24425268 -0.96490085 -2.5836818
-0.2442112 -0.96989703 -2.5835676
-0.26412392 -1.007267 -2.5762153
-0.2684164 -1.0472046 -2.5738153
-0.28940058 -1.0632801 -2.5666633
-0.29587078 -1.048285 -2.5649679
-0.3471365 -0.9282732 -2.5515654
-0.41968155 -0.90506053 -2.5288529
-0.50297451 -0.86829197 -2.5030339
-0.53262901 -0.85458994 -2.4938574
-0.54672718 -0.84893572 -2.4894724
-5.2818923 -0.94261217 -0.96585536
-5.3097868 -0.94629467 -0.95679981
-5.3418751 -0.92800212 -0.94695866
-5.4211578 -0.90836763 -0.9219901
-5.4393263 -0.90319788 -0.9162854
-5.4947429 -0.89168006 -0.89877659
-5.5018821 -0.89045143 -0.89651448
-5.5385628 -0.88872701 -0.88477457
-5.5459118 -0.88967144 -0.88238943
-5.6194749 -0.92933959 -0.85774261
-5.6178455 -1.5144958 -0.84331018
-5.6917768 -1.5191894 -0.81943899
-5.7468328 -1.5238607 -0.80163229
-5.8022938 -1.5255957 -0.7837705
-5.7654705 -1.5106964 -0.79598117
-5.7285028 -1.5082891 -0.80791897
-5.6663933 -1.3307139 -0.83241093
-5.6277184 -1.4907489 -0.84074533
-5.5528536 -1.5209572 -0.86402446
-5.5347638 -1.5186327 -0.86989546
-5.515862 -1.5211089 -0.87590456
-5.7501059 -1.0514863 -0.81265402
-5.7491202 -1.0913844 -0.81195104
-5.7149677 -1.0368664 -0.82431626
-10.82634 0.30868626 0.78337669
-10.825497 0.19090617 0.78611612
-10.838718 0.31082267 0.78729904
-10.845068 0.35093254 0.78831339
-10.84618 0.43087822 0.78662729
-10.847748 0.46960908 0.7861414
-10.839301 0.55183321 0.78132617
-10.831184 0.59173876 0.77769864
-10.762247 0.46962452 0.75867295
-10.828404 0.39187437 0.78191376
-7.565547 1.379636 -0.29156017
-7.5905867 1.3752813 -0.28340477
-7.6116295 1.3811319 -0.27679408
-7.5844488 1.3870611 -0.28567755
-7.5195723 1.388133 -0.30654728
-7.4546423 1.3842084 -0.32730639
-7.5166407 1.3752947 -0.30716103
-8.9108486 -0.64713657 0.19243395
-8.8925829 -0.64742386 0.18657339
-8.8277178 -0.65101433 0.16582644
-8.7815943 -0.65240037 0.15104413
-8.7701645 -0.65351683 0.14740086
-8.7353439 -0.65489042 0.1362493
-8.7464685 -0.69376147 0.14081693
-8.7716093 -0.71375251 0.14940453
-8.795639 -0.81368929 0.15967846
-8.8175068 -0.89474303 0.16877544
-8.81464 -0.93471551 0.16887617
-8.8024025 -0.97579014 0.16599452
-8.8065958 -1.0146599 0.1683352
-8.8118458 -1.0945379 0.17206347
-8.8095493 -1.1345794 0.17234898
-8.821559 -1.1757963 0.17726064
-8.8250046 -1.2562948 0.18042505
-8.8188906 -1.2855836 0.17920947
-8.8177786 -1.3655293 0.18089545
-8.8153286 -1.3755221 0.18036377
-8.8165283 -1.4554684 0.18279231
-8.7412615 -1.5503905 0.16103828
-8.7767334 -1.5351999 0.17204583
-8.7876282 -1.5315161 0.17545164
-8.8824291 -1.5354261 0.20600736
-8.890501 -1.5355656 0.20860422
-8.9631338 -1.5479321 0.23225451
-9.0273838 -1.556252 0.25310802
-9.0645313 -1.5437672 0.26472282
-9.0927429 -1.5377061 0.27363133
-9.1231632 -1.5369184 0.28338408
-9.138546 -1.538784 0.28837383
-9.1663332 -1.5426817 0.29740024
-9.1845303 -1.5473909 0.30336654
-9.2401056 -1.5551865 0.32142007
-9.1529675 -1.4988136 0.29198503
-9.1425076 -1.4591837 0.28761172
-9.1470509 -1.4196944 0.2880621
-9.1685934 -1.3802919 0.29397571
-9.1655464 -1.2589781 0.28989625
-9.1684132 -1.2190056 0.28979576
-9.159853 -1.1779273 0.28599584
-9.1649036 -1.1390591 0.28662479
-9.1691017 -1.097569 0.28691304
-9.1775703 -1.0591154 0.28865075
-9.1758156 -1.019142 0.28706539
-9.1717491 -0.97916842 0.28473759
-9.1751614 -0.90811241 0.28401744
-9.1804142 -0.85869908 0.28444207
-9.1767254 -0.79568875 0.28164649
-9.2207508 -0.69895244 0.29331768
-9.222414 -0.65939379 0.29284108
-9.206563 -0.65218663 0.28756452
-9.1787052 -0.65328544 0.27864301
-9.1695547 -0.65467823 0.27573895
-9.0126514 -0.64605105 0.22511172
-8.9665976 -0.64244056 0.21022403
-2.6483867 0.30575991 -1.8438044
-2.6287179 0.18575382 -1.8470559
-2.621134 0.065412223 -1.8464165
-2.6433272 0.025967211 -1.8382785
-2.6203487 -0.014524937 -1.8446257
-3.8044815 1.4340482 -1.5012339
-3.8415213 1.4392204 -1.4894667
-3.8225746 1.4291329 -1.4952956
-3.7730527 1.4231243 -1.5110515
-2.4821262 0.30614078 -1.897227
-2.4673929 0.22548634 -1.8998988
-2.4584818 0.18667454 -1.9017696
-2.4435732 0.14606571 -1.9055213
-2.4610832 0.046244651 -1.8973447
-2.4654298 0.025643408 -1.8954217
-2.4507945 -0.074925244 -1.8975531
-2.4466474 -0.091871679 -1.8984523
-2.4687214 -0.13227975 -1.8903279
-2.4774148 -0.17348221 -1.886482
-2.4702473 -0.21220437 -1.887795
-2.4675436 -0.25218549 -1.8876417
-2.4293833 -0.37229192 -1.8968313
-2.4779253 -0.40710095 -1.8803471
-2.5327849 -0.48691541 -1.8606828
-2.5763872 -0.50749177 -1.8461492
-2.5810275 -0.4880957 -1.8451543
-2.6232214 -0.37380642 -1.8345201
-2.7971835 -0.37262177 -1.7786632
-8.8323679 1.3654525 0.11578214
-8.911314 1.3637137 0.14118898
-8.9854574 1.3698008 0.16485262
-8.9114418 1.3648174 0.14120185
-10.81155 -0.1310828 0.78986514
-10.810994 -0.17105566 0.7907083
-10.816427 -0.12887594 0.79137552
-10.816792 -0.090558857 0.7905134
-10.805624 -0.39090773 0.79460239
-10.809048 -0.31096241 0.79365885
-10.809326 -0.29097426 0.79323745
-10.813924 -0.30875558 0.79516888
-6.5099049 1.3806841 -0.63072348
-6.4853015 1.3861129 -0.63876641
-6.4294939 1.3860412 -0.6566934
-6.4203982 1.3846865 -0.65958083
-6.389905 1.3838623 -0.66935605
-6.3834119 1.3845451 -0.67145944
-6.352942 1.3861842 -0.68129015
-6.346426 1.3844039 -0.68333793
-6.3159022 1.381012 -0.69305742
-6.2584062 1.3757477 -0.71139401
-6.2263184 1.3776288 -0.72175062
-6.1553822 1.4471579 -0.74631673
-6.1041636 1.4212282 -0.76210856
-6.0762343 1.4198434 -0.77104568
-6.0392966 1.4246633 -0.78303552
-6.0211525 1.4245825 -0.78886253
-5.9948454 1.4154768 -0.79708123
-6.056932 1.4174154 -0.77718478
-6.0879402 1.4070776 -0.76695883
-6.1130695 1.405031 -0.75883335
-6.1525059 1.3923357 -0.7458396
-6.4943438 1.3824711 -0.63576841
-6.448235 1.3784769 -0.6504792
-6.3742094 1.3731978 -0.67412573
-6.3372502 1.3755546 -0.68605953
-6.3346953 1.376111 -0.68689466
-6.2722936 1.3691318 -0.70676339
-6.2632246 1.3702755 -0.70970613
-5.9962726 -1.5287352 -0.72137254
-6.0147696 -1.5289595 -0.71542442
-6.0332689 -1.5286443 -0.70948935
-6.060833 -1.5274725 -0.7006641
-6.0054417 -1.517339 -0.71871817
-5.9499092 -1.5229304 -0.73641557
-5.9129696 -1.5180852 -0.74840659
-5.8853698 -1.5215125 -0.75718588
-5.8487377 -1.5247424 -0.76887178
-5.8762584 -1.5279124 -0.75994939
-5.9132547 -1.5278215 -0.74806619
-5.9502511 -1.5277307 -0.73618299
-5.9687586 -1.5254505 -0.7302956
-6.6208963 1.3837109 -0.59514368
-6.6053019 1.382895 -0.6001327
-6.6118369 1.3849192 -0.59808505
-6.6423149 1.3855345 -0.58830935
-6.9933276 1.3845191 -0.47551674
-6.9835753 1.383445 -0.47862232
-6.9745064 1.384589 -0.48156503
-7.3347483 1.3974192 -0.36616141
-7.2887998 1.4084144 -0.38120383
-7.2451806 1.4056082 -0.3951453
-7.2058649 1.4192684 -0.40812492
-7.2797575 1.4120564 -0.38420188
-7.31669 1.4072013 -0.37221277
-7.346848 1.4057021 -0.36248595
-7.4086671 1.3927054 -0.34229374
-7.3716278 1.3875675 -0.3540616
-7.7529192 -1.5574749 -0.15629619
-7.7711849 -1.5571876 -0.15043551
-7.7620349 -1.5585804 -0.15333945
-7.7437687 -1.5588677 -0.15920037
-2.5067306 0.46549857 -1.8933957
-2.4807591 0.38734949 -1.8997418
-5.0714073 -0.74992132 -1.0384009
-5.0470181 -0.88871396 -1.0426888
-5.0604696 -0.92862815 -1.0373472
-5.0679631 -0.96961623 -1.0338923
-5.1245112 -0.97702998 -1.0155362
-5.170815 -0.98813027 -1.0003768
-5.2358031 -0.94659752 -0.98056018
-8.717288 1.3534648 0.079117894
-8.7913027 1.358448 0.10276854
-8.7265081 1.3598542 0.081916571
-8.735693 1.3637455 0.084767699
-8.8005228 1.3648374 0.10556734
-9.2255964 1.3725462 0.24192965
-9.2165852 1.3811467 0.23881495
-9.2809391 1.3803217 0.2595104
-9.3455601 1.3664241 0.28062594
-9.2625694 1.3725395 0.2538079
-10.454264 1.3795879 0.63647223
-10.48161 1.3762712 0.64534247
-10.491236 1.3795815 0.64835036
-10.26049 1.3957167 0.57380843
-10.269537 1.3896146 0.57687044
-10.232599 1.3921194 0.56493998
-10.195452 1.3796346 0.55332518
-10.186337 1.3807402 0.55036843
-10.149502 1.3907399 0.53827941
-3.3298404 -1.5224319 -1.5781537
-3.3045175 -1.4809921 -1.5873482
-3.3639269 -1.5294118 -1.5670247
-3.3359802 -1.5307257 -1.5759693
-2.9680545 -1.1998861 -1.7026253
-2.9683304 -1.1198716 -1.7045817
-2.8893108 -1.0069571 -1.7328534
-2.9272232 -0.91936916 -1.7229123
-2.8286483 -0.83983421 -1.7566135
-2.8277693 -0.8864491 -1.7557044
-2.8202472 -0.96097571 -1.756216
-2.8171017 -0.99998325 -1.7562296
-2.817297 -1.0397267 -1.7551512
-2.8196604 -1.0463827 -1.7542218
-2.8213885 -1.1263039 -1.751624
-2.8138936 -1.1675789 -1.7529768
-2.7650003 -1.2466507 -1.7666633
-2.7646527 -1.2941148 -1.7655618
-2.8126945 -1.366177 -1.748286
-2.8484278 -1.3768396 -1.7365339
-2.9680676 -1.3599879 -1.698529
-3.0053356 -1.2798219 -1.6886052
-0.78894281 -1.087376 -2.4055641
-0.84510803 -1.0669506 -2.3880424
-0.85913229 -1.0468563 -2.3840504
-0.90079403 -1.0078089 -2.371664
-0.93826866 -0.9088434 -2.3621545
-0.95896769 -0.88994503 -2.3559878
-0.98457479 -0.86726147 -2.348341
-1.0219655 -0.81450945 -2.337677
-1.0138688 -0.76843947 -2.3414557
-0.95823145 -0.77879286 -2.3590651
-0.85628986 -0.76835513 -2.3920817
-0.81926441 -0.77114505 -2.4039054
-0.76426268 -0.77157962 -2.4215641
-0.7662077 -0.96687371 -2.4159479
-0.73478174 -0.97289759 -2.4258897
-0.72778463 -1.0069878 -2.4272664
-0.71775007 -1.0879383 -2.428421
-0.78429842 -1.0899105 -2.4069915
-6.8428283 1.3847678 -0.52387261
-6.8174396 1.3801708 -0.53191155
-6.8058395 1.3845916 -0.5357511
-8.4811192 -1.6541686 0.080117106
-8.4747238 -1.6545124 0.078071356
-8.4603214 -1.6541648 0.073435545
-8.4488945 -1.653059 0.069736481
-8.3901348 -1.5581126 0.04843235
-8.4640799 -1.558126 0.072188497
-8.5288754 -1.5595322 0.093040705
-8.5750341 -1.5556476 0.10777032
-4.2102227 1.3935041 -1.369849
-4.2192564 1.3897974 -1.3668519
-4.275115 1.3925669 -1.3489776
-10.001436 1.3782754 0.49103045
-9.9920654 1.3771725 0.48804808
-9.9644642 1.3782818 0.4791522
-9.973835 1.3793833 0.48213458
-9.9460125 1.3807828 0.47316051
-10.810097 -0.40978944 0.79652154
-10.809945 -0.42867374 0.79695559
-10.805347 -0.41089246 0.79502416
-1.8388102 -1.5312281 -2.0569384
-1.9037817 -1.5369613 -2.0359192
-1.9217582 -1.5393167 -2.0300839
-1.9127333 -1.5431352 -2.0328856
-0.73629904 -0.76555467 -2.4307017
-0.74526882 -0.76923037 -2.4277263
-6.7318621 1.3842392 -0.5595082
-6.706481 1.3797467 -0.56754732
-6.688343 1.3820341 -0.5734328
-10.043491 -1.5708444 0.57991672
-9.9604301 -1.5697255 0.55320358
-9.9416533 -1.5744283 0.54729152
-9.9139814 -1.5783157 0.53850102
-9.9552517 -1.5855274 0.55194378
-9.9668369 -1.5852537 0.55565894
-10.052504 -1.5794449 0.58303154
-10.089511 -1.5769532 0.59485686
-8.942811 -1.4976718 0.22444093
-9.083643 -1.498801 0.26971352
-9.1055059 -1.3790932 0.27367771
-9.0286713 -1.2586085 0.24591422
-8.9871407 -1.258049 0.23255765
-8.9112148 -1.2978358 0.20918262
-8.9002151 -1.4116176 0.20855701
-8.9202585 -1.4576948 0.21617401
-2.4986048 0.50662392 -1.8970572
-2.4844813 0.54595232 -1.9025996
-2.5363722 0.58676177 -1.8869722
-2.6237907 0.62535805 -1.8598745
-2.6602938 0.66548246 -1.8491731
-2.6680999 0.66556495 -1.8466673
-2.7078021 0.66441697 -1.8338833
-2.6991222 0.54455072 -1.8336082
-2.6941066 0.50455701 -1.8341973
-2.6453342 0.46560913 -1.8488705
-2.6487794 0.34572846 -1.8446996
-5.7156982 1.3769181 -0.88577473
-5.6240234 1.4202013 -0.91633242
-5.5680246 1.4036922 -0.93390071
-5.54988 1.4036114 -0.93972784
-5.5220275 1.4097209 -0.94883192
-5.5679312 1.3774657 -0.93326044
-5.5883121 1.3785799 -0.9267413
-5.595861 1.3788507 -0.9243232
-5.613843 1.380177 -0.91858017
-5.6877437 1.373035 -0.89465618
-5.4480247 1.4068704 -0.97253329
-5.4571099 1.40816 -0.96964753
-5.4299054 1.4092875 -0.97841603
-9.3323183 -1.5549126 0.35103738
-9.3413992 -1.5585163 0.3540467
-9.2861948 -1.5562987 0.33625507
0 0 0 1 0 0 0 1 0 0 0 1 0 0 0 0 0 715 1 0 0
