ply
format ascii 1.0
comment PCL generated
element vertex 762
property float x
property float y
property float z
element camera 1
property float view_px
property float view_py
property float view_pz
property float x_axisx
property float x_axisy
property float x_axisz
property float y_axisx
property float y_axisy
property float y_axisz
property float z_axisx
property float z_axisy
property float z_axisz
property float focal
property float scalex
property float scaley
property float centerx
property float centery
property int viewportx
property int viewporty
property float k1
property float k2
end_header
-1.2960548 -1.5142483 -4.2733431
-1.1816363 -1.4767542 -4.3289108
-1.184011 -1.3169928 -4.3373342
-1.3015442 -1.1973597 -4.2896876
-1.2979484 -1.2768129 -4.286624
-1.2612548 -1.3571771 -4.298933
-1.2602596 -1.3970463 -4.297019
-1.2600675 -1.4370579 -4.2947216
-6.6070647 1.5114233 -1.9783399
-6.5264039 1.5122685 -2.0159869
-6.5113235 1.5019878 -2.0224028
-6.4300241 1.4082391 -2.0547042
-6.442874 1.4034704 -2.0484307
-6.4640279 1.4139389 -2.0391951
-6.490118 1.4193527 -2.0273571
-6.5385575 1.4266915 -2.0052171
-6.5644927 1.4208652 -1.9927809
-6.6849217 1.403427 -1.935608
-6.7370496 1.3846639 -1.9101918
-6.7520161 1.37994 -1.902934
-6.7649956 1.3801548 -1.896897
-6.7991948 1.3933303 -1.8817425
-6.8538303 1.3895633 -1.8560517
-6.8685198 1.3848929 -1.8489263
-6.9135981 1.3882173 -1.8281133
-6.934361 1.3837346 -1.8181682
-6.9577689 1.3796076 -1.8070115
-6.9605942 1.3791096 -1.805665
-7.0021353 1.3784736 -1.7862644
-7.0630488 1.4286745 -1.7608669
-7.0501995 1.4334432 -1.7671406
-7.0141606 1.4201695 -1.7831466
-6.9692774 1.4243207 -1.8043146
-6.9241042 1.4255972 -1.8254461
-6.9203725 1.425837 -1.8271999
-6.8799858 1.397469 -1.8443321
-6.774148 1.4277869 -1.8954723
-6.7205305 1.5014689 -1.924859
-6.6810074 1.5017493 -1.9432979
-6.6576133 1.5025299 -1.9542484
-6.6362305 1.5046277 -1.9643403
-10.618529 -0.22940658 -0.0047274828
-10.732962 -0.20491441 0.047149301
-10.734648 -0.17514107 0.046158791
-10.727643 -0.12542623 0.039928317
-10.692861 -0.0015251487 0.016324878
-10.836381 0.070689812 0.078912854
-10.844868 0.1230635 0.079744458
-10.846034 0.16294241 0.077909112
-10.853011 0.2344079 0.076898098
-10.848877 0.26014724 0.073435903
-10.851647 0.35485959 0.069077015
-10.861276 0.39487225 0.071177959
-10.864417 0.51301682 0.065594554
-10.892385 0.55480582 0.0761379
-10.891684 0.59480387 0.073424697
-10.944075 0.67238015 0.093217015
-10.941789 0.67777246 0.091829896
-10.901567 0.7935192 0.066177726
-10.926044 0.87422168 0.072772622
-10.963449 0.9122951 0.087936163
-10.955026 0.99113965 0.079306483
-10.97118 1.0319986 0.084398746
-10.942454 1.0737833 0.06851685
-10.92458 1.1133612 0.057824612
-10.915169 1.1530728 0.05106926
-10.911155 1.2327303 0.044446468
-10.960231 1.3083575 0.062809706
-10.958683 1.3111216 0.061923265
-10.910561 1.3125905 0.039405584
-10.797661 1.2681923 -0.010569096
-10.718089 1.3066818 -0.049953938
-10.70773 1.3139919 -0.055218458
-10.682838 1.3138957 -0.066815138
-10.597446 1.3146268 -0.10666025
-10.569292 1.3141074 -0.11975229
-10.485047 1.3152281 -0.15908575
-10.457861 1.3143524 -0.17170513
-10.374619 1.3108783 -0.21029782
-10.259084 1.2765521 -0.26210165
-10.174623 1.1979486 -0.29678035
-10.288924 1.1400036 -0.24004745
-10.285934 1.0378138 -0.23534477
-10.324291 0.99751925 -0.21506321
-10.362154 0.88467252 -0.19068313
-10.360769 0.83731627 -0.1885041
-10.409701 0.8357116 -0.16560078
-10.463539 0.79670221 -0.1381793
-10.519768 0.75535238 -0.10950458
-10.516269 0.63571572 -0.10399878
-10.548295 0.57394004 -0.085385919
-10.659966 0.47616732 -0.027502775
-10.623275 0.37842739 -0.03877461
-10.620359 0.27873018 -0.034186244
-10.565754 0.11266366 -0.049731612
-10.65369 -0.18400772 0.0089529753
-10.660302 -0.12500437 0.008515358
-10.656096 -0.1017575 0.0051679611
-2.0303259 1.3489397 -4.1018925
-2.0108833 1.3335565 -4.1100368
-2.0417624 1.3430943 -4.0962129
-2.1052456 1.3654202 -4.067955
-2.0730772 1.3856188 -4.0841532
-2.0585623 1.369423 -4.0899529
-5.7755852 1.367368 -2.3573041
-5.7286015 1.3614532 -2.3788505
-5.7801285 1.3899379 -2.3565328
-5.8011012 1.3895842 -2.3467364
-5.8118849 1.390609 -2.3417711
-5.8694868 1.3767054 -2.3140931
-5.8433967 1.3712915 -2.3259308
-4.7486668 1.3661824 -2.835886
-4.688899 1.3675283 -2.8638244
-4.6548953 1.3618287 -2.8793337
-4.7014875 1.352792 -2.8570776
-4.7486129 -1.516593 -2.6639457
-4.7017021 -1.5200369 -2.6856055
-4.6890621 -1.5078374 -2.692225
-6.2460504 -1.5384164 -1.9646794
-6.3139372 -1.5320507 -1.9334168
-6.3837233 -1.4434483 -1.9061744
-6.3775496 -1.3663645 -1.9136503
-6.3656335 -1.3466849 -1.9203783
-6.3588347 -1.3279854 -1.9246627
-6.3539114 -1.2995964 -1.928651
-6.3985214 -1.1680803 -1.9157035
-6.4042969 -1.1640723 -1.9132504
-6.3653936 -1.1648554 -1.9313369
-6.2331343 -1.2049135 -1.9905939
-6.2321253 -1.2055575 -1.9910262
-6.2238188 -1.2441758 -1.992594
-6.2275229 -1.2573334 -1.9900825
-6.2905397 -1.3656446 -1.9542489
-6.2881851 -1.4024268 -1.9531524
-6.2148638 -1.5230099 -1.9801347
-6.131515 -1.5382578 -2.0180745
-6.2072783 -1.5342153 -1.9830019
-8.1884584 -1.6878836 -1.0503957
-8.1546087 -1.6884187 -1.0661409
-8.0871305 -1.6482872 -1.0999871
-8.0241327 -1.5374017 -1.1359653
-8.104434 -1.5509669 -1.0977273
-8.1958809 -1.6290162 -1.0504477
-8.2297297 -1.628481 -1.0347023
-8.3119268 -1.6494901 -0.99513626
-8.2284908 -1.6708523 -1.0327523
-11.003022 -1.1916463 0.23188722
-10.971964 -1.2296195 0.21967566
-10.966349 -1.3492897 0.22419751
-10.974236 -1.4303724 0.23271072
-10.978298 -1.458604 0.23628783
-10.97042 -1.5110453 0.23574424
-10.950214 -1.5512253 0.22872293
-10.933647 -1.5500008 0.22092807
-10.860941 -1.5552409 0.1873517
-10.813459 -1.5484819 0.16481733
-10.78724 -1.545534 0.15242028
-10.733532 -1.5500071 0.12765348
-10.695704 -1.5473707 0.10986388
-10.675442 -1.543975 0.10021722
-10.626638 -1.5545272 0.078099608
-10.59279 -1.5550624 0.062354326
-10.551028 -1.5604792 0.043212175
-10.511979 -1.5589441 0.02491951
-10.436295 -1.5673885 -0.0098536015
-10.363616 -1.5589112 -0.044235229
-10.355848 -1.5588081 -0.047861814
-10.296064 -1.5549967 -0.075955153
-10.28295 -1.5578083 -0.081899881
-10.24148 -1.5532553 -0.10150111
-10.181478 -1.556921 -0.12925005
-10.147555 -1.5599486 -0.14488053
-10.134661 -1.5552828 -0.1511693
-10.06689 -1.5588454 -0.18254519
-10.020292 -1.5497301 -0.20480847
-10.003294 -1.5524898 -0.21256649
-9.9862976 -1.55525 -0.22032404
-9.935524 -1.5560524 -0.24394202
-9.8549309 -1.552457 -0.28172135
-9.8210821 -1.552992 -0.29746664
-9.7744112 -1.546369 -0.31961524
-9.7389402 -1.5418341 -0.33641899
-9.7067871 -1.5449468 -0.35122013
-9.6261215 -1.5438437 -0.38888478
-9.5181446 -1.6133032 -0.4350698
-9.4842958 -1.6138383 -0.45081508
-9.5062904 -1.5023106 -0.44721651
-9.5108433 -1.4579902 -0.44773781
-9.5934868 -1.4193498 -0.41152251
-9.6304779 -1.3391926 -0.39906204
-9.6504068 -1.2195936 -0.39690757
-9.7117558 -1.180101 -0.37066817
-9.716876 -1.0607361 -0.37540221
-9.7958221 -0.98140216 -0.34333754
-9.835146 -0.82148737 -0.33454776
-9.8382893 -0.7418654 -0.33783245
-9.9156132 -0.66225988 -0.30653965
-9.9373016 -0.58264232 -0.30117989
-9.9925823 -0.62266904 -0.27302575
-10.028506 -0.66255617 -0.25390196
-10.028152 -0.70257092 -0.25168049
-10.043909 -0.74218255 -0.24197268
-10.192371 -0.82238066 -0.16798937
-10.302013 -0.94216102 -0.10973942
-10.340478 -0.94259351 -0.091785312
-10.41197 -1.0623825 -0.051316381
-10.524508 -1.1026934 0.0035427809
-10.555668 -1.221931 0.025179625
-10.629495 -1.2619621 0.061978221
-10.71781 -1.224273 0.10089445
-10.72473 -1.1044334 0.096970677
-10.806738 -1.0263889 0.13053989
-10.858992 -0.9476257 0.15019739
-10.860159 -0.90774679 0.14836228
-10.927399 -0.78948075 0.17264831
-10.998652 -0.75087214 0.20355701
-10.990922 -0.87057579 0.20709443
-10.979317 -0.95033145 0.20644307
-11.075385 -1.0310607 0.25603664
-11.004189 -1.1517675 0.23005176
-2.321497 1.3677509 -3.9672978
-2.402144 1.3670083 -3.9296634
-2.4700089 1.3710369 -3.8982716
-2.5505314 1.3653105 -3.8603978
-2.5845566 1.3710626 -3.8448818
-2.589376 1.370932 -3.8426275
-2.6315508 1.379519 -3.8234818
-2.6850982 1.4243555 -3.8011978
-2.7924209 1.4256634 -3.7512519
-2.8273058 1.4012285 -3.7335343
-2.8417645 1.3866137 -3.7259231
-2.8605857 1.3770787 -3.7165818
-2.9241629 1.3709676 -3.6865835
-2.9411077 1.3713523 -3.6787083
-2.9748845 1.367137 -3.6627133
-3.0136671 1.3702667 -3.6448233
-3.0985503 1.3771707 -3.6056705
-3.1867247 1.3543447 -3.5632102
-3.1973958 1.3419747 -3.5574985
-3.259409 1.3582426 -3.5295644
-3.1997557 1.3595411 -3.5574465
-3.1662283 1.3737236 -3.5739198
-3.0900674 1.3845295 -3.6100633
-3.0858297 1.3844335 -3.6120329
-3.0180898 1.3853886 -3.6436639
-3.0011339 1.385005 -3.6515443
-2.9874239 1.3849348 -3.6579304
-2.9022217 1.4252598 -3.7000492
-2.892127 1.444954 -3.705929
-2.7744627 1.4821346 -3.762991
-2.7448812 1.460577 -3.7754934
-2.6591063 1.4497151 -3.8148255
-2.5775833 1.3830361 -3.8488462
-2.4945278 1.3842061 -3.8876288
-2.4622941 1.3856447 -3.9027386
-2.4410439 1.3826725 -3.9124665
-2.4154239 1.3821719 -3.9243782
-2.3816471 1.3863872 -3.9403732
-2.3137827 1.3823588 -3.9717648
-2.2339387 1.3829589 -4.009016
-1.1728845 -0.30887061 -4.4026575
-1.1719575 -0.31371182 -4.4028006
-1.1882181 -0.37326699 -4.3916693
-1.1781187 -0.43070227 -4.3929501
-1.2046714 -0.39282423 -4.3828335
-1.2083802 -0.37345266 -4.3822603
-1.2619324 -0.29607996 -4.3619146
-1.2624302 -0.27615222 -4.3628712
-1.2621245 -0.25606841 -4.364212
-7.4908061 -1.0068208 -1.4162027
-7.4879017 -1.0864279 -1.4128076
-7.3731241 -1.126282 -1.4639287
-7.333117 -1.2060221 -1.4778196
-7.3328743 -1.2460347 -1.4755458
-7.3019795 -1.2872962 -1.4874846
-7.2856002 -1.3310674 -1.4925082
-7.2829385 -1.3706619 -1.4913869
-7.3023205 -1.4471644 -1.4777892
-7.4104638 -1.4866817 -1.4250257
-7.4491801 -1.4868276 -1.4069711
-7.5407238 -1.5108438 -1.3628694
-7.5875406 -1.5124819 -1.34095
-7.6084232 -1.5056924 -1.3316214
-7.6423006 -1.5050014 -1.3158722
-7.6675458 -1.5222406 -1.3030771
-7.7145123 -1.5326701 -1.2805635
-7.7952504 -1.5312809 -1.2430139
-7.8244553 -1.5224534 -1.2299279
-7.861546 -1.5224618 -1.2126393
-7.9381585 -1.5228857 -1.1769042
-4.1626415 -1.5285212 -2.9363589
-4.0947552 -1.5348868 -2.9676213
-4.0818529 -1.5326558 -2.9737682
-4.0481062 -1.5283624 -2.9897537
-4.0015888 -1.5168539 -3.0121226
-3.9757748 -1.5189393 -3.0240302
-3.8742166 -1.5119721 -3.0717826
-3.8529136 -1.5273542 -3.0807943
-3.8271091 -1.5228922 -3.0930882
-4.0567045 -1.5032729 -2.9872427
-4.1372962 -1.5066144 -2.9494791
-4.1796446 -1.5157173 -2.9291973
-4.2305279 -1.5221554 -2.9050963
-1.5224538 -1.3960841 -4.1748657
-1.5242858 -1.5165461 -4.1668262
-1.6458244 -1.4308857 -4.1152864
-1.7288685 -1.4971278 -4.0726271
-1.8358269 -1.4775106 -4.0239439
-1.8335795 -1.3978683 -4.0297422
-1.8381901 -1.3828213 -4.028491
-1.8412204 -1.3583305 -4.0285392
-1.8292127 -1.3182741 -4.0365257
-1.8248463 -1.2386799 -4.0433087
-1.7994494 -1.1574739 -4.0599904
-1.7895608 -1.1173695 -4.0669918
-1.7613082 -1.0373528 -4.0849342
-1.6948195 -0.91771352 -4.1230617
-1.780828 -0.95818114 -4.0805588
-7.417891 -0.92720085 -1.4549383
-7.3423147 -0.88717526 -1.4925525
-7.3135176 -0.84869003 -1.5082707
-7.2860122 -0.73031878 -1.5281525
-7.3211813 -0.64974195 -1.5165664
-7.2910142 -0.57096505 -1.5353267
-7.2923059 -0.49107906 -1.5394901
-7.2075639 -0.61469418 -1.571615
-7.2257218 -0.72889811 -1.5563388
-7.2034993 -0.76920313 -1.5642924
-7.22681 -0.84843159 -1.5487012
-7.2075748 -0.9260335 -1.5530375
-7.1864209 -1.0061686 -1.5581172
-7.189805 -1.0484457 -1.5540179
-7.1902695 -1.0873528 -1.5514805
-7.2111964 -1.1302075 -1.53917
-7.1782084 -1.2479415 -1.5475228
-7.1630011 -1.3295143 -1.549745
-7.1232362 -1.3692418 -1.5659097
-7.1122675 -1.4474545 -1.5663565
-7.0295124 -1.5263516 -1.6002228
-7.0010171 -1.5379869 -1.6128106
-7.0220585 -1.5325729 -1.6033262
-7.095036 -1.5236228 -1.5698447
-7.1117826 -1.5274799 -1.5618089
-7.1422744 -1.5077186 -1.5487754
-7.1638412 -1.4923344 -1.5396405
-7.2491393 -1.4915302 -1.4999306
-7.2870488 -1.4915366 -1.4822603
-7.3454094 -1.5085579 -1.4540428
-7.3706894 -1.5329566 -1.4408042
-7.3917961 -1.5250506 -1.431438
-7.4598136 -1.5137006 -1.4004117
-7.506331 -1.5252092 -1.3780431
-7.5191026 -1.5324244 -1.3716599
-7.5657511 -1.5389488 -1.3495274
-7.5965343 -1.5327162 -1.335551
-7.6335721 -1.5350752 -1.3181467
-7.6802864 -1.5391074 -1.2961324
-7.7273345 -1.5398283 -1.2741601
-9.1057072 -0.14975345 -0.71461427
-9.1052532 -0.10960289 -0.71722108
-9.1023264 -0.10950051 -0.71859115
-8.3412571 0.13472462 -1.0878987
-8.3340607 0.094304472 -1.0888419
-8.3083181 0.05388841 -1.0984297
-8.2393179 -0.02439636 -1.1259211
-8.1803226 -0.18373032 -1.1439146
-8.1380129 -0.22292185 -1.1612976
-8.0300627 -0.14252919 -1.2164094
-7.9105067 -0.1418923 -1.2721732
-7.7963481 -0.10130962 -1.3278041
-7.8151102 -0.021589383 -1.3238143
-7.7647328 0.058078349 -1.3520479
-7.6864991 0.058773905 -1.3885547
-7.6709547 0.058733463 -1.3957975
-7.5688419 -0.020280078 -1.4386797
-7.5700083 0.019598827 -1.4405149
-7.5711741 0.059477702 -1.4423503
-7.5731511 0.099220783 -1.4437996
-7.5570297 0.17849979 -1.4560431
-7.489718 0.21788153 -1.4897666
-7.4149437 0.257743 -1.5269974
-7.3724279 0.29860505 -1.5492518
-7.2374783 0.26227933 -1.6099856
-7.2267494 0.22411674 -1.61271
-7.1952662 0.061508656 -1.6176842
-7.1960659 -0.057540983 -1.6102098
-7.1575861 -0.017390504 -1.6305406
-7.105094 0.02230449 -1.6573756
-7.0822406 0.06262587 -1.6704329
-7.1775675 0.21941185 -1.6353531
-7.0677781 0.33886713 -1.6936526
-7.0698647 0.41860771 -1.6974367
-7.0998149 0.53766972 -1.6905789
-7.0750809 0.61795896 -1.7068971
-7.1071792 0.65737003 -1.6942869
-7.1727781 0.73845285 -1.6685479
-7.1725354 0.82069403 -1.6735669
-7.1805387 0.85975516 -1.6721666
-7.1783533 0.90019476 -1.6755975
-7.176168 0.94063425 -1.6790285
-7.0758281 1.0183692 -1.7304347
-7.1533594 1.1390744 -1.7014971
-7.1755738 1.1793921 -1.693548
-7.1847472 1.2220044 -1.6918142
-7.174469 1.2989134 -1.7011926
-7.1750641 1.3013165 -1.7010586
-7.1433835 1.4153699 -1.7226287
-7.1644073 1.4208546 -1.7131567
-7.1889324 1.3664629 -1.6984807
-7.3279796 1.3812168 -1.6345501
-7.3501554 1.382323 -1.6242799
-7.361815 1.3427212 -1.616483
-7.3492727 1.3040422 -1.6200216
-7.3496079 1.2238747 -1.6150832
-7.3513207 1.1034101 -1.6070988
-7.3543134 1.0628283 -1.603283
-7.3640537 1.0239829 -1.5964258
-7.3503761 0.94335985 -1.5979915
-7.34829 0.86361945 -1.5942073
-7.345396 0.7840212 -1.5908078
-7.3070149 0.70399171 -1.6039236
-7.4228334 0.5592618 -1.5413064
-7.5036898 0.56589246 -1.5040141
-7.5434737 0.57557982 -1.4860486
-7.6008263 0.65562361 -1.4640911
-7.6019926 0.69550252 -1.4659264
-7.6035142 0.77539611 -1.4699829
-7.6022491 0.81568247 -1.4729757
-7.6021504 0.89584768 -1.4778038
-7.6052938 0.97546971 -1.4810884
-7.6813135 1.054906 -1.4503939
-7.6837845 1.0949543 -1.4516309
-7.7592311 1.0546513 -1.4140607
-7.8788652 1.1734484 -1.3653851
-7.9522362 1.1735678 -1.3311936
-8.0340424 1.2950013 -1.3003072
-8.0702496 1.2926365 -1.2832897
-8.1891718 1.3314042 -1.2301718
-8.2278843 1.3311242 -1.2121112
-8.3451204 1.3401185 -1.1580031
-8.3819199 1.3301406 -1.1402555
-8.4577227 1.3298526 -1.1049062
-8.5454063 1.3684235 -1.0663372
-8.6472273 1.3676549 -1.0188322
-8.6889553 1.3483843 -0.99823308
-8.7561426 1.3320075 -0.96593964
-8.8513069 1.3810722 -0.92450988
-8.8790445 1.3676035 -0.91077745
-8.7911835 1.2897639 -0.94708687
-8.7858372 1.190474 -0.94365603
-8.7857084 1.1303841 -0.94013143
-8.6672401 1.0514659 -0.99064225
-8.6645517 0.93169343 -0.98475075
-8.5868721 0.81207317 -1.0138222
-8.5869694 0.7319079 -1.0089943
-8.5863485 0.59926569 -1.0013713
-8.5852547 0.56187928 -0.9996509
-8.545351 0.5712136 -1.0188069
-8.4750853 0.57173783 -1.05159
-8.3819065 0.53486365 -1.0928214
-8.2751236 0.5491637 -1.1434463
-8.2177887 0.49746257 -1.1670866
-8.2631817 0.33576548 -1.1362829
-8.3683443 0.25428829 -1.0824058
-8.3823023 0.21420255 -1.0735085
-6.8375449 -1.5259012 -1.6897268
-6.8657031 -1.5332738 -1.6761625
-6.8823113 -1.525456 -1.6688875
-6.8275471 -1.4440631 -1.6992688
-6.8253016 -1.3697052 -1.704751
-6.8237743 -1.3473195 -1.7067983
-6.8178816 -1.3300047 -1.710578
-6.8121819 -1.2852806 -1.7159024
-6.8197813 -1.2477678 -1.7145982
-6.8316145 -1.2101688 -1.7113253
-6.8347616 -1.090549 -1.7169942
-6.8128653 -1.2077452 -1.7202091
-6.7812724 -1.2435647 -1.732798
-6.7986274 -1.3279029 -1.7196778
-6.8102822 -1.3675172 -1.7118822
-6.8208885 -1.4470048 -1.7021968
-6.8261919 -1.4867485 -1.6973543
-7.299242 -0.41216916 -1.5409644
-7.3022819 -0.38332504 -1.5412682
-7.3029528 -0.33270144 -1.5439754
-7.248045 -0.29256624 -1.5719624
-7.2533479 -0.33231002 -1.5671197
-7.2623816 -0.37228948 -1.5605242
-7.2643728 -0.38332939 -1.5589375
-7.2819614 -0.4512822 -1.5466857
-4.9236202 1.3896261 -2.7557378
-4.9913664 1.391058 -2.7242463
-4.999373 1.387143 -2.7202809
-5.0119343 1.3790994 -2.7139463
-5.0453501 1.362372 -2.6973729
-5.1386652 1.3492825 -2.6530976
-5.1986938 1.3579041 -2.6256323
-5.125946 1.3590351 -2.6596079
-5.024457 1.3618711 -2.7070813
-3.0965247 -1.3609729 -3.4432766
-3.0887842 -1.3600416 -3.4469402
-3.0867572 -1.3992976 -3.4455433
-3.1657662 -1.5139439 -3.4018779
-3.1950035 -1.5149065 -3.3881927
-3.1678805 -1.5175658 -3.4006763
-3.1211295 -1.5161479 -3.4225516
-3.0745535 -1.5072542 -3.4447918
-2.9808187 -1.5143858 -3.4880567
-2.933629 -1.5131196 -3.5101273
-2.9804997 -1.5096468 -3.488488
-2.5900469 -1.5107051 -3.6704171
-2.5227423 -1.4923071 -3.7028856
-2.497613 -1.4653223 -3.7162085
-2.5124531 -1.3553271 -3.715853
-2.5160823 -1.4360625 -3.7093451
-2.6030784 -1.5055088 -3.6646531
-2.6496997 -1.5120033 -3.6425352
-5.5793557 -1.5519873 -2.2746201
-5.6171799 -1.5244414 -2.2586331
-5.5754023 -1.3635473 -2.287704
-5.5879436 -1.2255247 -2.2900918
-5.5900416 -1.1457782 -2.2938709
-5.5772047 -1.141055 -2.3001359
-5.5095153 -1.1399446 -2.3317528
-5.4499645 -1.131189 -2.3600321
-5.4288578 -1.1390951 -2.3693984
-5.3560772 -1.140569 -2.403234
-5.3053837 -1.13662 -2.4270978
-5.2718344 -1.1248505 -2.4434376
-5.2379565 -1.1255412 -2.459187
-5.2209597 -1.1283796 -2.4669402
-5.2039475 -1.1312163 -2.4747005
-5.1692181 -1.164304 -2.4889143
-5.1681032 -1.2066693 -2.4869065
-5.2017841 -1.2134548 -2.4708028
-5.2476525 -1.2399187 -2.4478447
-5.2982287 -1.3187461 -2.4195685
-5.2959437 -1.4954796 -2.4100909
-5.3249397 -1.5297632 -2.3945305
-5.4050074 -1.5530413 -2.3558221
-5.4510007 -1.5844866 -2.3325086
-5.5108795 -1.5807818 -2.3048196
-5.5472679 -1.5650952 -2.2887945
-5.8591619 -1.212522 -2.1644509
-5.7639909 -1.1198111 -2.2143412
-5.8271856 -1.1409426 -2.1836252
-5.9161887 -1.1632625 -2.1408088
-5.9403448 -1.2034011 -2.1271551
-5.8719988 -1.2172452 -2.158186
-9.1454268 -0.31049973 -0.68651164
-9.1575375 -0.33024019 -0.67968923
-9.1455736 -0.30551654 -0.68674058
-9.1846657 -1.4506607 -0.60020846
-9.1035461 -1.4768558 -0.63645619
-9.0643969 -1.4915307 -0.65382862
-9.1244812 -1.4117516 -0.63058197
-9.125864 -1.2921485 -0.63707179
-9.1949463 -1.1714749 -0.61207104
-9.1961117 -1.1315961 -0.61390644
-9.2574615 -1.0921035 -0.58766705
-9.3007793 -1.2133784 -0.56024194
-9.2972803 -1.3330151 -0.5547362
-9.3287964 -1.4122379 -0.53532052
-9.2902822 -1.5722884 -0.5437246
-9.2639484 -1.5713669 -0.55605412
-4.094945 1.3527218 -3.1397867
-4.068594 1.3373406 -3.1511517
-4.0140018 1.3399991 -3.1767559
-3.9541905 1.3424535 -3.2047806
-3.9332306 1.3357581 -3.2141509
-3.873399 1.3383147 -3.2421913
-3.8186207 1.3332405 -3.267421
-3.7914562 1.3400162 -3.2804866
-3.7378414 1.3329592 -3.3050561
-3.6491148 1.329399 -3.3461995
-3.6361568 1.3283195 -3.3521748
-3.6025445 1.3375711 -3.3683937
-3.5689652 1.3500762 -3.3847911
-3.6197002 1.338694 -3.3604643
-3.6808825 1.345221 -3.3323362
-3.6954901 1.3447491 -3.3254993
-3.7317996 1.34509 -3.3085957
-3.7767479 1.3536462 -3.2881553
-3.7851508 1.3513334 -3.2841008
-3.8626485 1.3535494 -3.2481108
-3.878957 1.3593522 -3.2408555
-3.9000108 1.3636636 -3.2312994
-3.9336884 1.356904 -3.2151988
-3.9650745 1.3555548 -3.200489
-4.0015926 1.3597211 -3.1837163
-4.0482225 1.3567747 -3.1618061
-1.568996 -0.081050016 -4.2316179
-1.560595 -0.094576448 -4.2347269
-1.682549 -0.1208934 -4.1763134
-1.7267056 -0.096916288 -4.1571617
-1.8669057 -0.21649152 -4.0846806
-1.8677721 -0.096932158 -4.0914092
-1.7288876 0.022833526 -4.1632881
-1.6928043 -0.097684614 -4.1729174
-7.295774 -0.4516241 -1.5402273
-5.9163394 1.3776363 -2.2923102
-5.9374285 1.3856128 -2.2829566
-5.9928465 1.4117486 -2.2586846
-5.9507995 1.4007791 -2.2776287
-5.3466439 1.3410476 -2.555666
-5.3635197 1.3389126 -2.5476727
-5.3340721 1.345763 -2.5618072
-5.3337946 1.3458164 -2.5619397
-5.3130322 1.3502992 -2.5718846
-5.3266139 1.3462417 -2.5653119
-5.2366581 1.3637458 -2.608285
-5.2236786 1.3635308 -2.6143222
-5.2704659 1.3619698 -2.5924211
-5.2833157 1.357201 -2.5861473
-5.2664394 1.3593359 -2.5941408
-5.2495079 1.358977 -2.6020112
-5.1252441 -1.5487752 -2.4864759
-5.1126699 -1.5340837 -2.4932132
-5.0449147 -1.5354654 -2.5247118
-4.9987249 -1.5114964 -2.5476711
-4.9776182 -1.5194025 -2.5570374
-4.4179144 1.361801 -2.9897904
-4.5064888 1.3612419 -2.948472
-4.5534067 1.3646648 -2.9268074
-4.4981184 1.3435128 -2.9513159
-6.8346572 -0.93363428 -1.7264032
-6.8326249 -1.0108888 -1.7227422
-6.659719 -0.95711708 -1.8065423
-6.5938778 -1.0088981 -1.8341422
-6.5756521 -1.0858558 -1.8380466
-6.5620971 -1.1284784 -1.8418221
-6.5595937 -1.1633929 -1.8409064
-6.4930935 -1.1572766 -1.8722671
-6.8195243 -1.0061677 -1.7291299
-6.7405729 -0.95049042 -1.7692511
-6.7067609 -0.94868904 -1.7851186
-3.7594848 -1.5192896 -3.1248231
-3.7061393 -1.4655845 -3.1528916
-3.6247609 -1.4921478 -3.1892378
-3.5855298 -1.5053914 -3.2067337
-3.5666072 -1.5079558 -3.2154007
-3.5328226 -1.5038012 -3.2313957
-3.5783515 -1.516753 -3.2094018
-3.6113343 -1.5098535 -3.1944399
-3.6406484 -1.5117431 -3.1806636
-3.6581142 -1.5113938 -3.1725435
-3.6790898 -1.5084718 -3.162941
-3.7257385 -1.5149963 -3.1408086
-3.9761119 -1.4999313 -3.0250068
-1.9447112 -0.83235693 -4.0116773
-1.9427214 -0.91209525 -4.0078478
-1.9490809 -0.83482832 -4.0094929
-1.9777522 -0.79690218 -3.9983916
-1.9668636 -0.75280434 -4.0060978
-1.9303732 -0.72808462 -4.0245805
-1.883008 -0.67436904 -4.0498619
-1.8573213 -0.59268773 -4.0667071
-1.8538303 -0.56288189 -4.0701122
-1.8519602 -0.5529626 -4.0715756
-1.8433561 -0.47346449 -4.0803285
-1.8645473 -0.39586139 -4.0750804
-1.8655419 -0.35599226 -4.0769949
-1.8702774 -0.33595484 -4.075983
-1.8569379 -0.27649412 -4.0857477
-1.8799281 0.74526215 -4.1359825
-1.9138951 0.7447468 -4.1201196
-2.0103059 0.86261606 -4.0822129
-1.9542832 0.70453042 -4.0988951
-1.8717103 0.5856896 -4.1302938
-1.8705869 0.62551069 -4.133193
-1.8462653 0.68488914 -4.1480713
-1.8268256 0.74662894 -4.1608152
-1.8309317 0.74929237 -4.1590605
-1.8483305 -0.27411884 -4.089901
-1.843596 -0.29414266 -4.0909138
-1.8542371 -0.35271427 -4.0824594
-1.8553452 -0.37292695 -4.0807376
-1.8443508 -0.43359536 -4.082243
-6.1073809 1.4116194 -2.2052917
-6.1670184 1.4052896 -2.1771169
-6.2347641 1.4067215 -2.1456256
-6.1801939 1.4129803 -2.1714346
-4.4051952 1.3715535 -2.9963007
-4.3585377 1.3780984 -3.0184383
-4.3118153 1.3821512 -3.0404577
-4.3373189 1.3651379 -3.0275555
-4.3792353 1.3711236 -3.0083749
-3.322516 -1.5082569 -3.329155
-3.3564596 -1.505074 -3.3135238
-3.429306 -1.5011081 -3.2798061
-3.464962 -1.5079514 -3.2627783
-3.4180956 -1.5115172 -3.2844105
-3.3971024 -1.5121014 -3.2941604
-3.3631434 -1.5154223 -3.3097911
-3.2568502 -1.5078477 -3.3597867
-3.2176418 -1.512886 -3.3777614
-3.2675972 -1.5143616 -3.3543887
-6.7009387 -0.67731333 -1.8040205
-6.6922073 -0.68745434 -1.8074853
-6.6848063 -0.72745723 -1.8085487
-6.6687379 -0.76514256 -1.8137903
-6.6669693 -0.76790655 -1.8144497
-6.6762266 -0.82228386 -1.8068912
-6.6729918 -0.84475964 -1.8070581
-6.6591349 -0.88692057 -1.8110018
-6.6395297 -0.93013412 -1.8175621
-6.6070318 -0.96456909 -1.8306556
-6.5782089 -0.98866481 -1.8426527
-6.5692806 -1.006282 -1.8457633
-6.5212579 -1.0720239 -1.8642253
-6.5111222 -1.0877953 -1.8680087
-6.4697447 -1.1272438 -1.8849419
-6.7472582 -0.68633187 -1.7818927
-6.8262129 -0.76194173 -1.7405812
-6.8970461 -0.76423347 -1.7074288
-6.9470024 -0.77069217 -1.6837585
-6.959825 -0.85138154 -1.6729684
-4.8840585 -1.5163218 -2.6008298
-4.8502464 -1.5145206 -2.6166973
-4.8670492 -1.522433 -2.6083934
-4.9095349 -1.5332444 -2.5879455
-4.9436746 -1.5225853 -2.5726688
-7.922368 -1.5464842 -1.1828567
-7.8418484 -1.5403963 -1.2207505
-2.1740265 -1.1786275 -3.884136
-2.2287359 -1.1847788 -3.8582687
-2.2753572 -1.1912735 -3.8361509
-2.3352585 -1.1826044 -3.8087475
-2.3822532 -1.1741481 -3.7873476
-2.4969254 -1.1691387 -3.7341969
-2.5421786 -1.2304533 -3.7094467
-2.5208654 -1.2767285 -3.7166204
-2.1143746 -1.1773293 -3.9120176
-2.195394 -1.1631209 -3.8751016
-2.267518 -1.1816493 -3.8403788
-2.3095069 -1.1805379 -3.8208737
-2.3565016 -1.1720815 -3.799474
-1.804122 -0.55083394 -4.0940003
-1.8066492 -0.57881373 -4.0911531
-1.7640247 -0.67063987 -4.1055431
-1.8107705 -0.67215073 -4.0836649
-1.8924751 -0.71143073 -4.0432386
-1.6514101 -1.2716941 -4.122179
-1.6554356 -1.2073339 -4.1241417
-1.6904564 -1.1617129 -4.1105399
-1.7197976 -1.1168623 -4.0995393
-1.9571843 -1.011384 -3.9951839
-1.9623065 -1.0323155 -3.9915478
-2.0000296 -1.0722711 -3.9715815
-1.9713297 -0.99387097 -3.9896355
-1.9659023 -0.95286226 -3.9946115
-7.8616867 0.97595561 -1.361611
-7.8294592 0.97514892 -1.3765845
-7.7529449 0.89540732 -1.4074913
-7.767674 0.81473023 -1.3958135
-7.8355746 0.73868704 -1.3596283
-7.9088001 0.73382163 -1.3252072
-7.9870725 0.84582877 -1.2954057
-7.9884572 0.8931849 -1.2975851
-7.9435363 0.95962632 -1.3224866
-7.9028301 0.97526813 -1.3423929
-7.8760014 0.97588468 -1.3549348
0 0 0 1 0 0 0 1 0 0 0 1 0 0 0 0 0 762 1 0 0
