ply
format ascii 1.0
comment PCL generated
element vertex 600
property float x
property float y
property float z
element camera 1
property float view_px
property float view_py
property float view_pz
property float x_axisx
property float x_axisy
property float x_axisz
property float y_axisx
property float y_axisy
property float y_axisz
property float z_axisx
property float z_axisy
property float z_axisz
property float focal
property float scalex
property float scaley
property float centerx
property float centery
property int viewportx
property int viewporty
property float k1
property float k2
end_header
-9.0522966 -1.1166298 4.1799803
-8.9617929 -0.99602097 4.1570654
-8.8234062 -1.1126606 4.1115608
-8.7777185 -1.1532229 4.0964665
-8.6712332 -1.1522551 4.0646052
-8.5738306 -1.1128747 4.0368004
-8.6205406 -1.108546 4.0509415
-8.6827173 -0.94583547 4.0752211
-8.5943737 -0.79100263 4.054143
-8.5616188 -0.77555215 4.0448694
-8.5055943 -0.78973728 4.0275955
-8.4842691 -0.78982621 4.0212049
-8.4396706 -0.79131192 4.0077953
-8.4284477 -0.79178047 4.0044174
-8.4244184 -0.85228604 4.0011072
-8.4841843 -0.83190268 4.0197172
-8.5170317 -0.83095658 4.0295882
-8.5758076 -0.83069432 4.0472021
-8.8797407 -1.1520056 4.1270666
-8.8328991 -1.160244 4.1127501
-9.7814331 1.1377746 4.4767447
-9.7862043 1.0977467 4.4767828
-9.7746296 1.0579637 4.4719324
-9.7732716 1.0202364 4.4702144
-9.7724962 0.97808313 4.4685168
-9.7670937 0.93946958 4.4655561
-9.7564564 0.89812326 4.4609327
-9.7425423 0.81870604 4.4540043
-9.7311287 0.77861536 4.449192
-9.7319021 0.73769069 4.4480009
-9.7264986 0.69907725 4.4450397
-9.7297688 0.65780997 4.4445848
-9.7345409 0.61778224 4.4446225
-9.7206306 0.57803404 4.4390745
-9.7152271 0.53942072 4.4361134
-9.716486 0.49857795 4.435071
-9.7185984 0.45819569 4.4342995
-9.7139969 0.4307946 4.4319687
-9.7140541 0.40831828 4.4312048
-9.7188005 0.37828004 4.431582
-9.7213383 0.29832959 4.4295626
-9.7159348 0.25971603 4.4266019
-9.7051926 0.21865845 4.421957
-9.7021255 0.18001008 4.4196949
-9.713501 0.14082205 4.4217396
-9.7079334 0.058792293 4.4172201
-9.7338219 -0.021507561 4.422183
-9.712698 -0.060205281 4.4145107
-9.7013311 -0.10093409 4.4096899
-9.6990967 -0.14085692 4.4076328
-9.6968632 -0.18077981 4.4055762
-9.70397 -0.22084242 4.406312
-9.6994009 -0.26073036 4.4035568
-9.6925488 -0.32056412 4.3994246
-9.6865673 -0.38074201 4.3955407
-9.6819563 -0.40065446 4.3934674
-9.6841183 -0.4410345 4.3927112
-9.6890278 -0.42073211 4.3948874
-9.6885414 -0.14144319 4.4044514
-9.6798983 -0.18049634 4.4005046
-9.6887417 -0.22136 4.4017324
-9.6861954 -0.26086694 4.3995967
-9.6816463 -0.30075848 4.3968472
-9.6841068 -0.34074986 4.396194
1.2102046 -1.4781463 1.0935717
1.18713 -1.5098912 1.0993795
1.1747546 -1.5158246 1.10288
1.1460814 -1.5190395 1.1113565
1.2123785 -1.4408964 1.0942156
1.2146902 -1.438702 1.0935993
1.2127361 -1.4581505 1.0935087
1.210494 -1.4778721 1.0934947
-7.019309 -1.5893023 3.5546248
-7.0361781 -1.5901175 3.559649
-7.0590482 -1.5897546 3.5665116
-7.1605949 -1.5372212 3.5987535
-7.1980243 -1.5426416 3.609776
-7.2087593 -1.5429957 3.6129789
-7.3654122 -1.4642156 3.6626387
-7.2253871 -1.4658003 3.6206429
-7.2169495 -1.4644399 3.6181631
-7.1748085 -1.4677752 3.6054249
-7.1312242 -1.4807003 3.5919211
-7.0562811 -1.4548745 3.5703721
-6.9275279 -1.4783773 3.5309906
-6.8105931 -1.467057 3.4963596
-6.7336912 -1.4671944 3.473321
-6.6369405 -1.3452111 3.4485826
-6.6328297 -1.2664979 3.4500878
-6.6270022 -1.2402124 3.4492562
-6.6170168 -1.226595 3.4467387
-6.5723233 -1.1346998 3.4365468
-6.5752959 -1.1067963 3.4384072
-6.5721135 -1.0972382 3.4377861
-6.5263181 -1.0879743 3.4243915
-6.4514737 -1.0796304 3.4022641
-6.3683472 -1.0824279 3.3772688
-6.2350688 -1.0159861 3.3396587
-6.1971354 -0.92065781 3.3316109
-6.2338648 -0.80120647 3.3467646
-6.2336826 -0.76873982 3.3478389
-6.1441488 -0.74492908 3.3218493
-6.1083107 -0.74428743 3.3111374
-6.1069717 -0.78446239 3.3093395
-6.1157866 -0.82358432 3.3106198
-6.1199265 -0.86265314 3.3105016
-6.1092219 -0.90342253 3.3058779
-6.0781803 -1.0241849 3.2923822
-6.0784039 -1.0641439 3.29106
-6.0986538 -1.1030846 3.2957716
-6.1432915 -1.143549 3.307735
-6.1801419 -1.1454486 3.3187063
-6.2358942 -1.163335 3.3347836
-6.2521453 -1.1435418 3.3403392
-6.4146047 -1.1741073 3.3879366
-6.4268103 -1.2666454 3.3883755
-6.5483642 -1.2680291 3.4247353
-6.6176891 -1.346472 3.4427726
-6.6173916 -1.386503 3.441292
-6.566155 -1.522954 3.4212017
-6.6493092 -1.5251515 3.446032
-6.6867247 -1.5280746 3.4571371
-6.6950622 -1.5269232 3.4596744
-6.7699351 -1.5402619 3.4816368
-6.8447514 -1.5436106 3.5039294
-6.8821387 -1.541539 3.5151997
-6.956913 -1.5373955 3.5377402
-8.9357853 -0.8957594 4.152761
-9.0678539 -0.83645016 4.1943803
1.1146049 1.3752598 1.2214022
1.1445637 1.3764259 1.2124693
1.151968 1.3730921 1.2101357
1.06882 1.3784937 1.2352282
1.0884666 1.3810817 1.2294334
1.1071339 1.3761996 1.2236725
1.106184 1.376326 1.2239616
-9.6886635 -1.4579928 4.3587189
-9.6810036 -1.4783006 4.3557186
-9.671339 -1.499303 4.3520937
-9.6627197 -1.5176651 4.3488741
-9.6527634 -1.5364969 4.3452373
-9.6341038 -1.5462205 4.3393102
-9.6238518 -1.5473142 4.3362017
-9.5322685 -1.5610094 4.3082938
-9.5238533 -1.5671411 4.3055601
-9.502037 -1.5626118 4.2991834
-9.4646645 -1.5645554 4.2879219
-9.4948883 -1.5604765 4.2971163
-9.5230503 -1.5579287 4.3056397
-9.5767269 -1.5362482 4.3224711
-9.5966616 -1.5257086 4.3288083
-9.6865921 -1.4383287 4.3587818
-9.6906071 -1.3993555 4.3613396
-9.6896915 -1.3656154 4.3622384
-9.6896725 -1.3581233 4.362493
-9.69907 -1.3186374 4.3666806
-9.6968632 -1.2773926 4.3674536
-9.6920681 -1.2373676 4.3674088
-9.7012196 -1.1982489 4.3715096
-9.6995258 -1.1592677 4.3723574
-9.6893606 -1.11746 4.3707662
-9.6956339 -1.0798391 4.3739529
-9.6867771 -1.0375108 4.3727713
-9.6913261 -0.99761903 4.3755207
-9.6912022 -0.95766097 4.376873
-9.6946001 -0.92241579 4.3791161
-9.693327 -0.87994266 4.3802109
-9.6814861 -0.83765376 4.3781347
-9.6871939 -0.79885548 4.3811932
-9.6834507 -0.71781266 4.3828893
-9.7352962 -0.79815537 4.3956251
-9.6956625 -0.87997723 4.3809094
-9.6987734 -0.91875529 4.3804932
-9.702673 -0.95875466 4.3802705
-9.7015858 -0.99902266 4.3785453
-9.7013741 -1.0399098 4.3770599
-9.7076473 -1.0786979 4.3775907
-9.7052088 -1.1202004 4.3754177
-9.7064304 -1.1583631 4.3744569
-9.7101288 -1.2001833 4.3741107
-9.7183266 -1.2799014 4.373795
-9.7090778 -1.3212943 4.369586
-9.7069893 -1.4011773 4.3661828
-9.6912584 -1.4401622 4.360116
-6.9382267 -0.82671392 3.5568495
-7.030941 -0.86647928 3.5832372
-7.0616379 -0.92176884 3.5905094
-7.0829368 -1.0268925 3.5932343
-7.0748649 -1.0754952 3.5891268
-7.0833988 -1.1093079 3.5905075
-7.1678057 -1.148823 3.6144156
-7.2042627 -1.1668746 3.6247077
-7.226337 -1.183639 3.6307366
-7.3736596 -1.0633554 3.6790445
-7.255681 -0.98050433 3.6465876
-7.2114663 -0.96343076 3.6339378
-7.0880117 -0.90872121 3.5988624
-7.2232699 -0.78151768 3.6437974
-7.2316923 -0.77788335 3.6464462
-7.2063556 -0.76630992 3.6392598
-7.1346998 -0.67037088 3.6211326
-7.133687 -0.66911298 3.620873
-7.1022863 -0.66750914 3.6115236
-7.0991745 -0.66724002 3.6106009
-7.0775852 -0.66847438 3.6040916
-7.0120158 -0.78806478 3.5802946
-9.7665062 1.1717243 4.4734545
-9.7026529 1.1794862 4.4545984
-9.6942883 1.1790673 4.4520788
-9.566102 1.260443 4.4165134
-9.5572014 1.2830621 4.4146338
-9.5538177 1.3010193 4.4142442
-9.5510464 1.3018709 4.4134436
-9.5535049 1.2618796 4.4127903
-9.5503769 1.2232248 4.4105091
-9.5471087 1.1812479 4.408071
-9.5575562 1.1681825 4.4107461
-9.6073685 1.1603917 4.4253955
-9.6374321 1.158645 4.434339
-9.6715622 1.154055 4.4444022
-9.7479153 1.0992839 4.4653678
-9.7611418 1.0603962 4.4679775
-9.7635632 1.0328916 4.4677463
-9.7636013 1.0204047 4.4673238
-9.7636318 1.0104152 4.4669857
-9.7382298 0.94366074 4.4570565
-9.7312641 0.90099669 4.4534869
-9.7093525 0.82062781 4.4441299
-9.7083302 0.80800128 4.4433846
-9.7037258 0.780599 4.4410534
-9.708395 0.74149704 4.4410925
-9.708498 0.7405715 4.4410911
-9.7085972 0.70061302 4.4397316
-9.6970158 0.66082776 4.4348798
-9.6970844 0.62178862 4.4335427
-9.7018805 0.58176458 4.433588
-9.6958857 0.53973246 4.4303312
-9.6960335 0.50067759 4.429018
-9.6975784 0.4619565 4.4281344
-9.7008572 0.41978812 4.4276505
-9.6989956 0.38202369 4.4257803
-9.6986198 0.37986422 4.4255929
-9.7010078 0.35985053 4.425612
-9.6910343 0.3122139 4.4209685
-9.6863918 0.30229092 4.4192333
-9.6865158 0.2623328 4.4178815
-9.6898899 0.22107065 4.4174576
-9.687748 0.18185258 4.4154525
-9.6876774 0.18114591 4.4154067
-9.6845493 0.14249152 4.413126
-9.6870098 0.10249978 4.4124727
-9.6901531 0.058627903 4.4118891
-9.687685 0.02166307 4.4098644
-9.6824551 -0.018561125 4.4069004
-9.6826935 -0.058677673 4.4055767
-9.6867065 -0.10068345 4.4053187
-8.6397524 -1.1113002 4.0566001
0.95003033 -1.5321693 1.1696216
0.87924814 -1.535639 1.1907017
0.83773994 -1.5328486 1.2032313
0.87517023 -1.5326221 1.192028
0.991611 -1.5274668 1.1573308
1.0249386 -1.5267211 1.1473743
0.98748398 -1.5294452 1.158498
-8.2131443 -1.3070444 3.9220169
-8.2216644 -1.3076372 3.9245481
-8.247859 -1.4678359 3.9268246
-8.3602266 -1.5418584 3.9579077
-8.2855186 -1.5582745 3.9349604
-8.2259779 -1.5507367 3.9173889
-8.1733599 -1.5516814 3.9015956
-8.1480312 -1.5426053 3.8943248
-8.1275024 -1.5373013 3.8883603
-8.0901136 -1.534271 3.8772669
-7.9901233 -1.5565954 3.8465416
-7.9163914 -1.5478956 3.8247597
-7.8779182 -1.535018 3.813684
-7.7574224 -1.5595305 3.7767406
-7.6452866 -1.5604296 3.7431223
-7.607852 -1.5424151 3.7325358
-7.4957085 -1.5408168 3.6990023
-7.4788485 -1.5430906 3.6938732
-7.449851 -1.5264366 3.6857667
-7.4208612 -1.5122801 3.6775761
-7.4114852 -1.5021574 3.6751194
-9.2079916 -1.5801371 4.2105012
-9.2538109 -1.5820303 4.2241592
-9.3285332 -1.5706089 4.2469373
-9.2934513 -1.5576224 4.2368808
-8.0813589 -1.4305179 3.8782516
-8.0524387 -1.4388379 3.8693004
-7.9692545 -1.4414066 3.8442953
-7.8949904 -1.3067526 3.8267329
-7.8857069 -1.3265984 3.8232622
-7.7739267 -1.4423771 3.7857568
-7.728116 -1.4429812 3.7720144
-7.6616211 -1.3883338 3.7539976
-7.5701771 -1.4469819 3.7245693
-7.5038528 -1.4472767 3.7046933
-7.4517655 -1.4637179 3.6885207
-7.4201798 -1.4624035 3.6791058
-7.3832951 -1.4518101 3.668426
-7.3748732 -1.4554443 3.6657772
-2.4839067 -0.49146271 2.2343392
-2.4697883 -0.47632578 2.2306366
-2.4667645 -0.49174014 2.2291951
-2.4583008 -0.51801586 2.2257466
-2.4890764 -0.5581789 2.2335682
-2.4980628 -0.51827747 2.2376471
0.86514235 1.3889664 1.2965982
0.91094542 1.3882302 1.2828535
0.87354469 1.3854026 1.2939575
0.84524345 1.3871034 1.3024935
0.1212182 1.389459 1.5194365
0.11279726 1.3905247 1.5219959
0.037977219 1.382372 1.5441227
0.083762169 1.3791386 1.5302968
0.092183113 1.3780726 1.5277374
0.16140604 1.3850356 1.5072457
0.17752981 1.3848931 1.5024112
0.19598198 1.390119 1.4970661
0.15858126 1.3872913 1.5081701
-7.782402 -0.86688519 3.8083019
-7.9297943 -0.76907814 3.8558493
-7.8092294 -0.77111417 3.8196664
-7.703331 -0.7436893 3.7889011
-7.6586981 -0.78410953 3.7741272
-7.5476542 -0.79735339 3.740407
-7.4849682 -0.79523665 3.7217047
-7.4476023 -0.79969865 3.7103577
-7.5226116 -0.88068038 3.7300093
-7.5389194 -0.86592913 3.7354069
-7.6188059 -0.82389009 3.7607958
-7.6935682 -0.8249557 3.7831516
0.58662605 1.3887886 1.3800136
0.60350561 1.391652 1.3750572
0.62071085 1.3907405 1.3698722
0.75463057 -1.5372562 1.2279712
0.77976036 -1.5354679 1.2205063
0.76283216 -1.5382969 1.2254784
0.74640512 -1.5387133 1.2303841
0.72537804 -1.5410209 1.2366021
0.70487642 -1.5384184 1.2428333
-2.8352087 -1.1133932 2.3179407
-2.7755728 -1.1314631 2.2994504
-2.8354342 -1.1508551 2.3167059
-2.8540182 -1.1310782 2.3229599
-2.8956859 -1.4936122 2.3228371
-2.7237208 -1.4505543 2.2728267
-2.7166767 -1.4454832 2.2708931
-2.6330147 -1.3559086 2.2489486
-2.6083927 -1.4087287 2.2397375
-2.5549238 -1.4765959 2.2213631
-2.4507928 -1.4770218 2.1901586
-2.4029188 -1.4352902 2.1772702
-2.3644962 -1.3826585 2.1675916
-2.2742648 -1.3559786 2.1414928
-2.2600925 -1.3409001 2.1377721
-2.2063391 -1.3577535 2.1210859
-2.1651683 -1.3979988 2.1073551
-2.0868979 -1.4729655 2.0813053
-1.9995551 -1.5184577 2.0535626
-1.9274735 -1.478231 2.0333712
-1.9018092 -1.3564445 2.0299182
-1.9271479 -1.2757199 2.0403137
-1.9263399 -1.1883007 2.0431108
-1.9259012 -1.1408446 2.0446291
-1.9183073 -1.0783561 2.0445271
-1.892164 -1.0375986 2.0381136
-1.7483172 -1.0383881 1.9950008
-1.8288646 -1.1156454 2.0164409
-1.8312328 -1.2603793 2.0121183
-1.8173378 -1.2752731 2.0074387
-1.7301326 -1.3182707 1.9798242
-1.5855901 -1.2781923 1.9379239
-1.5454957 -1.2356082 1.9273952
-1.5443842 -1.2418447 1.9268456
-1.4893112 -1.3563693 1.9063686
-1.3436298 -1.4374151 1.8599164
-1.3420863 -1.4376132 1.8594472
-1.260005 -1.4905632 1.8330213
-1.268332 -1.4994972 1.8352048
-1.3596468 -1.4978762 1.862612
-1.3971624 -1.5081129 1.8734928
-1.4637508 -1.5071645 1.8934704
-1.5092921 -1.4938655 1.9075735
-1.546762 -1.499107 1.9186141
-1.6135347 -1.5181401 1.9379524
-1.6311245 -1.5171448 1.9432555
-1.5759499 -1.50041 1.9273113
-1.5044208 -1.3569547 1.9108739
-1.5740571 -1.2955992 1.9338645
-2.7190232 -1.4901512 2.2700431
-2.6796887 -1.5150063 2.2573977
-2.634006 -1.520741 2.243515
-2.5401843 -1.5203438 2.2154274
-2.5244353 -1.5291555 2.2104039
-2.5218475 -1.5307622 2.2095728
-2.4677482 -1.5189114 2.1937809
-2.4404271 -1.5005424 2.1862364
-2.3200622 -1.5158467 2.1496525
-2.2807894 -1.5558248 2.1364994
-2.2667098 -1.5551071 2.1323073
-2.2410276 -1.5555631 2.124599
-2.1621592 -1.5184163 2.1022677
-2.1246901 -1.5131748 2.0912271
-2.0582635 -1.5316072 2.0706902
-2.0290747 -1.5303042 2.0619926
-2.0208404 -1.5313611 2.0594897
-1.9724712 -1.5175157 2.0454834
-1.9437976 -1.5161467 2.0369425
-1.9294837 -1.5157748 2.0326681
-1.8919408 -1.5152521 2.0214415
-1.8627064 -1.5089538 2.0129042
-1.7960722 -1.5049069 1.9930863
-1.6909535 -1.5183022 1.9611353
1.2219429 -0.49902415 1.1240942
1.2223268 -0.45906052 1.1253686
1.2181554 -0.46603224 1.1263757
1.2110448 -0.48074359 1.1279941
-9.3659306 -1.5761364 4.257946
-9.3827744 -1.5688679 4.2632442
-7.5564308 1.3564273 3.8179102
-7.5325699 1.351756 3.8106008
-7.5035958 1.3609179 3.8022408
-7.5409918 1.3553904 3.8132498
-8.4443274 1.350058 4.0836329
-8.4139395 1.3554858 4.0747199
-8.3138647 1.3606328 4.0449243
-8.4064407 1.3480839 4.072216
-8.4513435 1.3474609 4.0856442
-8.47188 1.3396593 4.0915241
-8.4887562 1.3369387 4.0964842
-8.5213566 1.3482531 4.1066418
-8.5550117 1.3597099 4.1171207
-8.5176611 1.3502532 4.1056046
-7.6764984 1.353459 3.8537698
-7.6242385 1.3379802 3.8375785
-7.6616116 1.3399445 3.848841
-7.7363272 1.3538634 3.8717039
-7.1536002 1.3783959 3.6980174
-7.1011224 1.3569633 3.6815538
-7.0704727 1.3709298 3.6728592
-7.0537567 1.3861765 3.6683824
-6.758256 1.3612701 3.5790079
-6.7441816 1.3593844 3.5747266
-6.7275662 1.3599497 3.5697696
-6.6714439 1.3707966 3.5533369
-6.717186 1.3713423 3.5670567
-6.7752972 1.372959 3.5845184
-2.6073823 -0.8089807 2.2602844
-2.6839969 -0.8495369 2.2818224
-2.8048725 -0.90705019 2.3160279
-2.8422661 -0.90495861 2.3273008
-2.8796897 -0.90786183 2.3384089
-2.9545071 -0.90867347 2.3607903
-3.0188189 -0.89065439 2.3806794
-2.958035 -0.89069009 2.3624721
-2.8824582 -0.84999073 2.3412499
-2.8041513 -0.78717226 2.3199792
-2.6463032 -0.80167937 2.2721958
-0.23547649 -1.1150225 1.5392082
-0.20779228 -1.0360301 1.5336622
-0.21214628 -1.0010931 1.536181
-0.20294285 -0.89724684 1.5370344
-0.13391447 -0.84124094 1.518306
-0.11725521 -0.79714078 1.5148493
-0.17738485 -0.77568096 1.5336055
-0.20181179 -0.77486002 1.5409503
-0.21828032 -0.77274644 1.5459566
-0.25572634 -0.7754904 1.5570771
-0.29841423 -0.95510805 1.5636187
-0.33723593 -0.9951852 1.5738535
-0.337605 -1.0351483 1.5725746
-0.30092096 -1.1148282 1.5588169
-0.30601406 -1.1554472 1.5589304
-0.29703903 -1.1965977 1.5548116
-0.26305199 -1.3150072 1.5405153
-0.25406551 -1.3549087 1.5364366
-0.187644 -1.5068216 1.5112609
-0.15520573 -1.5087451 1.5014778
-0.12544823 -1.5022527 1.4927907
-0.042216778 -1.4403098 1.4700145
-0.019947529 -1.360934 1.4661038
-0.018796444 -1.2410431 1.469927
0.018887997 -1.1608245 1.4614283
0.019271374 -1.1208609 1.4627028
0.023147106 -1.0913435 1.4625679
0.13538933 -1.0956596 1.428799
0.20375729 -1.0379604 1.4103271
0.21003389 -1.1176864 1.4056756
0.21898174 -1.201347 1.4000872
0.16245508 -1.2003944 1.4170512
0.08711195 -1.3170781 1.4355618
0.056525707 -1.5132326 1.4379039
0.010917664 -1.5099206 1.4516795
-0.038304806 -1.5202087 1.4660652
-0.095861435 -1.5135041 1.4835376
-0.16310263 -1.5274758 1.5031921
-0.18042898 -1.5205233 1.5086234
-0.24609041 -1.5169206 1.5284157
-0.32905531 -1.5038679 1.5537193
-0.39466095 -1.5167871 1.5729204
-0.40556097 -1.5166504 1.5761899
-0.45790863 -1.5149813 1.5919273
-0.39943552 -1.5145967 1.5744267
-0.33719778 -1.4928203 1.5565422
-2.3388004 -0.75574374 2.1816893
-2.3357127 -0.75613999 2.1807506
-2.2217546 -0.79562879 2.1452448
-2.1426299 -0.77818084 2.1221519
-2.1037815 -0.75655836 2.1112676
-2.058857 -0.70381451 2.0996454
-1.9844499 -0.75077826 2.075726
-1.9528718 -0.7566765 2.0660629
-1.9845653 -0.76326674 2.0753264
-2.0983086 -0.7563141 2.1096368
-2.1412477 -0.79586291 2.1211233
-2.1674266 -0.91758341 2.124733
-2.2189069 -0.93353015 2.1395979
-2.2748666 -1.0351865 2.1528251
-2.2786689 -1.0859975 2.1521976
-2.3000193 -1.118606 2.1574588
-2.324811 -1.1376386 2.1642227
-2.4001648 -1.1930801 2.1848655
-2.4396033 -1.1583741 2.1978848
-2.4652245 -1.0993385 2.2076111
-2.4667366 -1.0916313 2.2083321
-2.4651046 -1.0793588 2.2082698
-2.4015975 -0.95783478 2.1934729
-2.4057446 -0.90478879 2.196559
-2.375356 -0.77360588 2.1920173
-7.8816366 1.351164 3.9151332
-7.9050479 1.3539728 3.9222431
-7.8886938 1.3542062 3.9173527
-6.2890863 1.3778933 3.4390593
-6.280756 1.371781 3.4363518
-6.3555584 1.3706378 3.4587169
-6.3846197 1.3689486 3.4673626
-6.4387064 1.3681144 3.4835336
-6.4761024 1.3700403 3.4948015
-6.5218339 1.3755807 3.5086918
-6.5425696 1.3652819 3.5145445
-6.430356 1.3719918 3.4811673
0.1231122 -1.5192323 1.4177512
0.093883514 -1.5204993 1.4264617
0.28154612 -1.5194323 1.3702898
0.27635479 -1.5193956 1.371846
0.19792414 -1.5237749 1.3951854
0.15253258 -1.4979836 1.4096777
0.31843996 -1.5216386 1.3591626
0.40557909 -1.5252433 1.3329372
0.33067131 -1.5306916 1.3551843
0.2932415 -1.530918 1.3663875
-0.2436018 -1.2349579 1.5374724
-0.26225662 -1.3147936 1.5402846
-1.6604092 -0.7569744 1.9784535
-1.6054924 -0.75550216 1.9620559
-1.5774672 -0.77252489 1.95307
-1.6357074 -0.79510611 1.9697292
-1.6853852 -0.79598844 1.9845781
-1.7018037 -0.79672128 1.9894704
-1.7095265 -0.75729752 1.993154
-0.63681173 -1.5197667 1.6453463
-0.61583471 -1.5149093 1.639232
-0.60605669 -1.5161641 1.6362597
-0.56187344 -1.5092835 1.623265
-0.53263903 -1.5029852 1.6147276
-0.4788394 -1.5148433 1.5982013
-0.5022521 -1.5174948 1.6051216
-0.5183444 -1.517323 1.6099476
-0.55368519 -1.5153357 1.6206021
-0.59941244 -1.5220182 1.634066
-1.0752616 -0.85386175 1.799821
-0.96076536 -0.87780827 1.7646945
-0.94576216 -0.7728129 1.7638507
-0.99141979 -0.77200234 1.7775544
-1.007935 -0.77488416 1.7824008
-1.1119227 -0.77168417 1.8136586
-1.1954651 -0.82107365 1.8369645
-1.2780838 -0.77055538 1.8634667
-1.3154831 -0.76830393 1.8747469
-1.3903298 -0.76879621 1.8971479
-1.473433 -0.7707296 1.9219719
-1.4246278 -0.87697154 1.9036603
-1.4206953 -0.8974815 1.9017694
-1.4001107 -0.93508488 1.8942966
-1.2623768 -0.8550927 1.8558233
-1.2249765 -0.85734421 1.8445429
-1.1126842 -0.85410798 1.8110214
-0.99827528 -1.5138168 1.7538192
-1.0259967 -1.476536 1.7634183
-1.0312352 -1.477126 1.7649668
-1.109169 -1.477222 1.7883064
-1.0064874 -1.5102623 1.7564024
-1.1021943 -1.5031236 1.7853169
-1.69643 -1.4975941 1.9634956
-1.6673808 -1.5112773 1.954319
-1.9096272 -0.75278354 2.0532455
-1.9096961 -0.76027668 2.0530057
0 0 0 1 0 0 0 1 0 0 0 1 0 0 0 0 0 600 1 0 0
