ply
format ascii 1.0
comment PCL generated
element vertex 737
property float x
property float y
property float z
element camera 1
property float view_px
property float view_py
property float view_pz
property float x_axisx
property float x_axisy
property float x_axisz
property float y_axisx
property float y_axisy
property float y_axisz
property float z_axisx
property float z_axisy
property float z_axisz
property float focal
property float scalex
property float scaley
property float centerx
property float centery
property int viewportx
property int viewporty
property float k1
property float k2
end_header
-9.2711086 -1.1631298 5.2142882
-9.2804375 -1.2544918 5.1827192
-9.2849455 -1.297811 5.1678653
-9.2943945 -1.2400426 5.2083139
-1.4467773 -0.26078326 -4.7960439
-1.4153781 -0.15223131 -4.7856545
-1.4408083 -0.045969665 -4.7005053
-1.4459767 -0.043859959 -4.6925888
-1.5319729 -0.17090151 -4.6390023
-1.5519009 -0.16760463 -4.6108112
-1.5770984 -0.17723078 -4.5818114
-1.6034131 -0.24514267 -4.5794058
-1.6115441 -0.25920951 -4.5753293
-1.5896463 -0.28856286 -4.6187053
-1.5254569 -0.27933079 -4.6999474
-1.4566669 -0.27442366 -4.7894139
-9.3128319 -1.5379845 5.089366
-9.3512335 -1.5538616 5.1329799
-9.3096561 -1.4394653 5.1325965
-9.2373409 -1.5791564 4.9687505
-9.2833071 -1.4725354 5.0814877
-9.2886791 -1.41364 5.1170373
-9.124959 -0.15128744 5.5067377
-9.1223125 -0.27817097 5.4420662
-9.1430454 -0.33946133 5.4402118
-9.1338348 -0.41358811 5.3921986
-9.1288881 -0.45884126 5.3637896
-9.1488771 -0.53419453 5.3541651
-9.1666679 -0.60850811 5.3421073
-9.1761131 -0.64592481 5.3366876
-9.1844597 -0.68282169 5.3300505
-9.1917763 -0.77597797 5.2949314
-9.2022476 -0.85232055 5.2721238
-9.2332258 -0.93287241 5.2746658
-9.2304039 -1.0175712 5.2300868
-9.2489214 -1.0867367 5.2214794
-2.6394503 -1.4859302 -3.7942119
-2.5928826 -1.4603176 -3.8440366
-2.5911179 -1.4272964 -3.8304815
-2.5747702 -1.3506349 -3.8153658
-2.568387 -1.2692463 -3.7846699
-2.4515212 -1.175958 -3.89573
-2.5357978 -1.1694934 -3.7801094
-2.5896301 -1.1779025 -3.7122979
-2.5978067 -1.1878519 -3.7061763
-2.6029282 -1.2913171 -3.7491941
-2.608254 -1.3295476 -3.7605052
-2.6781783 -1.4930832 -3.7459588
-2.70824 -1.4908372 -3.7047453
-2.6751585 -1.5043393 -3.7554135
-8.2275391 -0.75009942 4.0201888
-8.1778393 -0.76005059 3.9490466
-8.1468124 -0.77240849 3.9016719
-8.106329 -0.80341041 3.8326898
-8.1901398 -0.79903185 3.9466834
-8.2183809 -0.83066714 3.9691415
-8.2344818 -0.86069202 3.9761677
-8.2717457 -0.85585427 4.0282445
-8.3178225 -0.84991348 4.0926175
-8.3327484 -0.8571825 4.1090393
-8.4176569 -0.85332227 4.2242494
-8.4666948 -1.0146744 4.2119656
-8.4427299 -1.1562128 4.1117749
-8.4939346 -1.2362101 4.1415839
-8.5074596 -1.2706623 4.1430378
-8.5314627 -1.3417897 4.1408086
-8.5460453 -1.3761306 4.1437278
-8.5554104 -1.428143 4.1311679
-8.5137138 -1.5276817 4.0275435
-8.4629688 -1.5330206 3.9572287
-8.3972549 -1.5415936 3.8653722
-8.3806725 -1.5484114 3.8399515
-8.3278809 -1.5340234 3.7764091
-8.2694426 -1.5357325 3.6975732
-8.2300053 -1.571347 3.6277652
-8.1382256 -1.469227 3.5544496
-8.1121702 -1.3992667 3.5533776
-8.0985518 -1.324193 3.5713711
-8.0995636 -1.1736546 3.6452584
-8.1976109 -1.2858226 3.7220993
-8.1178942 -1.1246402 3.693346
-8.0950394 -1.1037848 3.6728854
-8.059803 -1.0825789 3.6360641
-8.0556479 -1.0792449 3.6321239
-7.9449096 -1.0677147 3.4898491
-7.8911452 -1.0890212 3.4078097
-7.7966356 -0.98126072 3.3335676
-7.8235054 -0.89418066 3.411397
-7.8407087 -0.79520929 3.4820514
-7.9267702 -0.78777397 3.600522
-7.9754171 -0.80386639 3.6577096
-7.9813786 -0.80267578 3.6662416
-8.0282354 -0.79767519 3.7312026
-5.5231094 1.3595912 1.4264444
-5.4537787 1.3669229 1.3374239
-5.4020205 1.3661039 1.2679338
-5.3786964 1.389564 1.2481017
-5.3269053 1.398828 1.1834267
-5.2575746 1.4061594 1.0944064
-5.2260647 1.3959749 1.0474342
-5.2132254 1.3833489 1.0242109
-5.1273274 1.3838875 0.90980041
-5.0801206 1.4023018 0.8556543
-5.063035 1.3978295 0.83069086
-5.0580435 1.3953264 0.8228212
-5.0475264 1.386431 0.8044951
-5.0160141 1.3762419 0.75751853
-4.9902439 1.3916249 0.73052853
-4.9291015 1.3917053 0.64894515
-4.8282266 1.3785441 0.50793958
-4.7935915 1.3925073 0.46843162
-4.7765055 1.3880351 0.44346797
-4.7583685 1.38818 0.41932577
-4.6911392 1.3862724 0.32865819
-4.6580501 1.3830099 0.28291392
-4.6228585 1.3889823 0.23881236
-4.5829353 1.4157336 0.19840717
-4.5115004 1.4322958 0.11102521
-4.4748955 1.3947811 0.044082463
-4.4211702 1.3832591 -0.033190191
-4.3694181 1.3824503 -0.10266608
-4.3166771 1.406858 -0.16131222
-4.3833809 1.4110746 -0.070234001
-4.4340506 1.4062014 -0.004940927
-4.4587288 1.446404 0.047375023
-4.4949718 1.4358141 0.090655148
-4.5280914 1.4493761 0.14140368
-4.5689354 1.458338 0.20024604
-4.5805116 1.4602032 0.21659869
-4.5984755 1.4374313 0.22960693
-4.6328731 1.4029233 0.25889897
-4.6901188 1.4011893 0.33448389
-4.757905 1.411088 0.4297449
-4.7909937 1.4143505 0.47548923
-4.8096256 1.4015973 0.4942165
-4.8266802 1.3957698 0.51417589
-5.4227819 1.4143581 1.3189007
-5.3600402 1.4124141 1.2342067
-5.3238444 1.4333317 1.1959661
-5.2741895 1.4232788 1.124835
-5.257143 1.429121 1.1048942
-5.2085395 1.4144514 1.0329423
-5.1832099 1.4168968 1.0003065
-5.1292748 1.4249539 0.93218803
-5.1061215 1.4185233 0.89818084
-5.0670166 1.420119 0.84674656
-5.040998 1.4073875 0.80587775
-5.0139737 1.4060762 0.76916981
-4.9953108 1.4085302 0.74543822
-9.1765537 -0.12626883 5.5876698
-9.1966248 -0.25577566 5.5520616
-9.1861553 -0.36008227 5.4878244
-9.217803 -0.44026476 5.4914384
-9.217288 -0.44299573 5.4894347
-9.2101765 -0.51102066 5.4471631
-9.2202826 -0.63752985 5.3996968
-9.2297277 -0.67494643 5.3942761
-9.2347765 -0.71028382 5.3839898
-9.2292786 -0.80286956 5.3320379
-9.2481689 -0.87770325 5.321197
-9.2670593 -0.95253658 5.3103561
-9.2687054 -1.0009089 5.2892466
-9.2593632 -1.0440829 5.2559714
-9.2584505 -1.046397 5.2536378
-4.9341269 -0.75632459 -0.37936604
-4.9309893 -0.74866253 -0.37986267
-4.9102077 -0.73078299 -0.39899027
-4.8771496 -0.72374612 -0.43973053
-4.8747516 -0.80316329 -0.48119843
-4.8696413 -0.81525671 -0.49384761
-4.9167776 -0.83914965 -0.44243598
-5.024385 -0.97572666 -0.36459374
-4.981174 -1.0424662 -0.45443666
-4.9666858 -1.0687817 -0.48645806
-4.974669 -1.1336613 -0.50706267
-4.9996252 -1.1791613 -0.49567127
-5.0110755 -1.1946647 -0.48785567
-5.0768514 -1.1880803 -0.39687562
-5.1935883 -1.2896943 -0.28999937
-5.2399449 -1.2408509 -0.20458031
-5.1951108 -1.1429399 -0.21725374
-5.1692767 -1.1482613 -0.25430524
-5.0971193 -1.0879829 -0.32158685
-5.0830383 -1.0545214 -0.32426107
-5.0810061 -1.0474843 -0.32358336
-5.0289226 -0.9654336 -0.3535769
-5.0342126 -0.84213603 -0.28710401
-5.1037488 -0.75021517 -0.14998507
-5.1390004 -0.75415438 -0.10482353
-5.173141 -0.75550926 -0.059900522
-5.1897011 -0.74872822 -0.034526289
-5.2237659 -0.76242214 0.0043506026
-5.2910056 -0.77090782 0.090023816
-5.3064904 -0.75944555 0.11621815
-5.3411398 -0.7526719 0.16573721
-5.371057 -0.72513264 0.21894515
-5.4606524 -0.76223588 0.32067284
-5.4948235 -0.77903891 0.35819322
-5.5346761 -0.78021038 0.41083047
-5.5698662 -0.78616476 0.45493829
-5.6040044 -0.78750455 0.49986565
-5.6877656 -0.77872181 0.61591494
-5.6938157 -0.74656987 0.63948393
-5.7127228 -0.761352 0.65760124
-5.7560568 -0.79182208 0.70076841
-5.805665 -0.77127886 0.77689165
-5.8669119 -0.76037508 0.86390764
-5.9416924 -0.77433074 0.95701152
-5.9913445 -0.78504962 1.0181301
-6.0414786 -0.76681364 1.0938435
-6.1014795 -0.76770669 1.173512
-6.1092439 -0.77760661 1.1791068
-6.113976 -0.79837215 1.1754179
-6.1013007 -0.87179649 1.1231178
-6.0662732 -0.91122508 1.057359
-6.0505371 -1.029269 0.97947294
-6.0589833 -1.051662 0.9799583
-6.0549774 -1.0746517 0.96353328
-6.0696893 -1.1517277 0.94603413
-6.0468535 -1.118416 0.93160081
-6.0048141 -1.0720462 0.89782286
-5.9714537 -1.0050609 0.88556474
-5.9920511 -0.976331 0.92690539
-6.0029082 -0.94110769 0.95837122
-6.0042367 -0.91068447 0.97480398
-5.926208 -0.78579301 0.93081731
-5.8920841 -0.79487395 0.88088828
-5.8760958 -0.94224185 0.78853577
-5.8403769 -0.93935847 0.74224216
-5.8288827 -0.94739723 0.72302419
-5.7980447 -0.94759262 0.68176287
-5.7413869 -0.88627255 0.63567394
-5.7072482 -0.88493276 0.59074634
-5.709908 -1.0372033 0.52092588
-5.6303225 -0.92371017 0.46936879
-5.5961843 -0.92237043 0.4244414
-5.5750456 -0.93837231 0.38851199
-5.5565214 -0.95548987 0.35553494
-5.4959116 -0.97091591 0.26719096
-5.4474378 -0.97744733 0.19933319
-5.3834677 -0.87972248 0.16102445
-5.3322678 -0.88292313 0.091132462
-5.2945933 -0.90577281 0.029828846
-5.2456536 -0.87573946 -0.021031678
-5.1900458 -0.87168276 -0.093311191
-5.1630411 -0.88093096 -0.13381702
-5.1175747 -0.83845788 -0.17404765
-3.3247948 1.4023604 -1.4875971
-3.3428299 1.3817027 -1.4734751
-3.3749335 1.399792 -1.4219018
-3.3578899 1.4055984 -1.4418563
-1.5543532 0.27791989 -4.3928628
-1.5398016 0.29218292 -4.405416
-1.5748482 0.27391148 -4.367434
-1.6060753 0.26857233 -4.3283205
-1.6293421 0.26536471 -4.2988062
-1.6800108 0.26063758 -4.2334433
-1.6969285 0.13304317 -4.2723398
-1.7030511 0.060444593 -4.2991476
-1.7101161 0.02768302 -4.3055019
-1.7231636 -0.052559078 -4.3267488
-1.7456353 -0.10651898 -4.3227501
-1.773823 -0.21443933 -4.337122
-1.8019066 -0.26263851 -4.3228564
-1.806119 -0.28111452 -4.3261356
-1.8526576 -0.36862722 -4.3061767
-1.863101 -0.42307436 -4.31847
-1.8649316 -0.45702052 -4.3323832
-1.8813686 -0.57818717 -4.368824
-1.8908951 -0.61565489 -4.3741603
-1.9578917 -0.69200116 -4.3215103
-1.9660683 -0.70195055 -4.3153887
-2.0317147 -0.75077844 -4.2512813
-2.0908279 -0.85025287 -4.2202992
-2.0672097 -0.84755766 -4.2505298
-2.0418735 -0.85028398 -4.285666
-2.0385754 -0.84877479 -4.2893419
-2.0020268 -0.74737501 -4.2892733
-1.9253335 -0.71799338 -4.3774981
-1.8875151 -0.70052296 -4.4195657
-1.8683577 -0.68096268 -4.4357152
-1.8566649 -0.64295125 -4.4330087
-1.8497546 -0.55925232 -4.4019036
-1.8223236 -0.4330548 -4.3777151
-1.8051438 -0.39812779 -4.3838201
-1.7825146 -0.34638175 -4.3890953
-1.7115424 -0.2593233 -4.4418912
-1.708127 -0.17990884 -4.408185
-1.6875858 -0.089807481 -4.3921914
-1.6843624 -0.022280574 -4.3639569
-1.6658182 0.060477138 -4.3488364
-1.6642594 0.067455411 -4.3475547
-1.6723728 0.11117113 -4.3156595
-1.6738405 0.14360791 -4.2980704
-1.6159649 0.25493193 -4.3216906
-2.7967238 -1.5232146 -3.6022243
-2.8313818 -1.5268233 -3.5576963
-2.8451164 -1.5327275 -3.5422063
-2.8996444 -1.5294201 -3.4678202
-2.9343028 -1.5330286 -3.4232917
-2.9526196 -1.5342524 -3.3994293
-2.9737942 -1.5230434 -3.3657608
-3.007396 -1.5117947 -3.315484
-3.0574772 -1.5242236 -3.2546172
-3.0950367 -1.4895785 -3.1877832
-3.1008215 -1.3559605 -3.1156774
-3.0768676 -1.2999542 -3.1206684
-3.0009201 -1.2099004 -3.1786628
-2.9818115 -1.2099622 -3.2042012
-2.9572611 -1.2087867 -3.2364087
-2.9391563 -1.1984818 -3.2556124
-2.9045153 -1.1949565 -3.300158
-2.8959503 -1.1991165 -3.3135962
-2.8874605 -1.1943514 -3.3226337
-2.8466709 -1.187171 -3.3736262
-2.8506496 -1.145143 -3.3480635
-2.8731802 -1.1268839 -3.3091884
-2.8891873 -1.1177933 -3.2834392
-2.8972969 -1.1150818 -3.271307
-2.9143515 -1.120909 -3.2513475
-2.9484611 -1.1325634 -3.2114286
-2.9579213 -1.1326855 -3.1988583
-3.0002439 -1.1214552 -3.1369486
-3.0519335 -1.1412454 -3.0774808
-3.1016138 -1.1209023 -3.001358
-3.1357541 -1.1222572 -2.9564347
-3.2389627 -1.2092921 -2.8605938
-3.2586765 -1.2163637 -2.8376837
-3.3064561 -1.1290315 -2.7318201
-3.3229852 -1.13255 -2.7114496
-3.3405654 -1.1406859 -2.6919007
-3.3886373 -1.1237159 -2.6195502
-3.4403582 -1.1332068 -2.5550785
-3.4766994 -1.1740448 -2.5262423
-3.4603341 -1.2209399 -2.5706854
-3.4632239 -1.3131452 -2.6112561
-3.4588804 -1.3545102 -2.6369863
-3.5000217 -1.4747586 -2.6400061
-3.5446754 -1.5222888 -2.6032972
-3.5617301 -1.528116 -2.5833378
-3.5375736 -1.5231194 -2.6131783
-3.5078757 -1.5196896 -2.6511707
-3.4603293 -1.5389683 -2.7239323
-3.4283226 -1.5365491 -2.7654943
-3.3776221 -1.5419753 -2.8357916
-3.3088155 -1.5369567 -2.9252272
-3.2741494 -1.533293 -2.9697394
-3.2554867 -1.5308391 -2.9934707
-3.2326841 -1.5300803 -3.0235457
-3.202189 -1.5144219 -3.0567102
-3.1824749 -1.5073504 -3.0796204
-3.1291771 -1.4909334 -3.1428599
-2.7951469 -1.506104 -3.5960846
-2.812741 -1.5039735 -3.5715709
-2.854393 -1.5238688 -3.5255542
-2.8714583 -1.5193999 -3.5006194
-2.8843896 -1.5166259 -3.4820199
-2.9040096 -1.4984515 -3.4470706
-2.9215961 -1.5013716 -3.4250007
-2.9340341 -1.5038166 -3.4095745
-2.9754987 -1.5002856 -3.35252
-2.9948008 -1.4917158 -3.3226233
-3.0139067 -1.4995116 -3.3008742
-3.027776 -1.5017858 -3.2834549
-8.3907108 -0.82870734 4.2001381
-8.4248295 -0.80499452 4.2571111
-8.4424562 -0.80278885 4.2817044
-8.5056009 -0.81566566 4.3597946
-8.4829645 -0.86719584 4.3047471
-8.4757214 -0.88026881 4.2887783
-8.4876709 -1.0158619 4.2393956
-8.4946423 -1.0544041 4.2301302
-8.5631533 -1.1581287 4.2716107
-8.5726995 -1.2752135 4.2279377
-8.5841732 -1.3108329 4.2260904
-8.6678066 -1.4612808 4.265245
-8.6791096 -1.4633662 4.2793298
-8.7004681 -1.4643166 4.3073835
-8.7070608 -1.4674358 4.3146825
-8.7678757 -1.5242977 4.3684688
-8.8407888 -1.5398448 4.458313
-8.8093138 -1.5685647 4.4024568
-8.7711143 -1.5489886 4.3608942
-8.7263117 -1.563262 4.2942076
-8.6876268 -1.5594153 4.2444181
-8.6165781 -1.5531142 4.1526074
-8.5690765 -1.5641029 4.0839
-8.5535841 -1.5650302 4.0627723
-8.5198984 -1.57636 4.0123444
-7.0470676 -1.5385036 2.0644231
-7.0806785 -1.5375296 2.1097612
-7.1163931 -1.5457846 2.153461
-7.1660132 -1.5356528 2.2245841
-7.1313362 -1.5215925 2.1850665
-7.0977254 -1.5225666 2.1397281
-7.0289259 -1.5175929 2.0502806
-6.9611921 -1.5276535 1.9550117
-6.9209042 -1.5495826 1.8906621
-6.9027758 -1.5390878 1.871519
-6.8587961 -1.5340734 1.8152238
-6.7843509 -1.5442235 1.7109522
-6.7310328 -1.5277743 1.6477011
-6.7625275 -1.5071568 1.6996794
-6.7873526 -1.5071435 1.7328261
-6.8297524 -1.5052218 1.7903541
-6.8478661 -1.505296 1.814499
-6.8649426 -1.5111763 1.8344619
-6.8918667 -1.5203724 1.8659737
-6.2158036 -1.4938338 0.97624773
-6.1512074 -1.5073051 0.88352364
-6.1186466 -1.5128872 0.83736652
-6.0968585 -1.5045617 0.81229234
-6.0669203 -1.5137806 0.76788425
-6.0508957 -1.5125151 0.7471016
-6.0306792 -1.5032117 0.72459626
-5.9986439 -1.511101 0.67802924
-8.9241886 1.0827124 5.8333168
-9.0010147 0.96171075 5.8775716
-9.0041761 0.92269021 5.8629899
-9.0133114 0.88999659 5.8594317
-9.0160561 0.84110445 5.8395381
-9.0369568 0.79209083 5.8438225
-9.0459061 0.73820573 5.8298054
-9.0490685 0.69918495 5.8152242
-9.0290031 0.64094692 5.760376
-9.0340528 0.6056096 5.7500901
-9.0451441 0.51982051 5.7235599
-9.0784264 0.4528237 5.7357073
-9.0867176 0.3610369 5.7025499
-9.0909166 0.32244074 5.6895571
-9.0841255 0.28904319 5.6643991
-9.0835743 0.2417106 5.6408563
-9.0921583 0.16168457 5.6137547
-9.1036148 0.12606198 5.6118846
-9.1265278 0.05481714 5.6081433
-9.1325521 0.020849228 5.5998182
-9.1328516 -0.023224652 5.5789814
-9.1380873 -0.061395884 5.5675778
-9.004015 1.0994103 5.947927
-9.0014668 1.1848192 5.9856787
-8.9991665 1.2664497 6.0219412
-8.982028 1.3075054 6.0188456
-8.9224482 1.3519347 5.9607167
-8.8851452 1.3672917 5.9183187
-8.8090773 1.3243334 5.7960725
-8.7681227 1.3558331 5.7565784
-8.7018633 1.3496506 5.6651459
-8.7888355 1.3336792 5.7735543
-8.8221493 1.214726 5.7607093
-8.8172026 1.1694725 5.7323003
-8.8100576 1.1252589 5.7014585
-8.8222198 1.0870149 5.699266
-8.8869362 1.0824866 5.7834773
-5.7330904 1.3649805 1.7093558
-5.7485318 1.372319 1.7335056
-5.7159204 1.3669019 1.6873608
-7.5174651 1.3647718 4.0913143
-7.5144863 1.3412378 4.0759983
-7.5324798 1.342814 4.1007781
-7.5398588 1.3439074 4.111156
-7.55372 1.3540685 4.1345553
-7.6044211 1.3489051 4.1997514
-7.6412578 1.3593991 4.253983
-7.6717038 1.3505595 4.2903676
-7.7229719 1.3535924 4.36027
-7.7395091 1.3499079 4.3805709
-7.7038212 1.3688078 4.3420358
-7.6867614 1.3747983 4.3221483
-7.6418295 1.3675954 4.2586956
-7.6055698 1.3783405 4.2154679
-6.415494 1.3501141 2.6131706
-6.3460431 1.3536346 2.5221529
-6.3113475 1.3574405 2.4776697
-6.2931952 1.3680651 2.4585567
-6.258975 1.3800914 2.4186692
-6.2372084 1.3867056 2.3927984
-6.190105 1.3853974 2.3292875
-6.2419105 1.3755784 2.3937144
-6.3609776 1.3778965 2.5537806
-6.3764791 1.3893266 2.5799818
-6.4629803 1.3757017 2.6888919
-6.480566 1.3779087 2.7134314
-6.4893813 1.3737495 2.7231956
-6.3085909 1.3859298 2.4877176
-6.275043 1.3786898 2.4394438
-3.7325797 1.4357529 -0.92713296
-3.6542292 1.4519005 -1.0239464
-3.6226511 1.4315016 -1.075931
-3.5248826 1.4046271 -1.2193971
-3.4415901 1.3937261 -1.3358411
-3.4084949 1.3904879 -1.3815817
-3.4540243 1.4291697 -1.3021637
-3.4706013 1.4359047 -1.2767888
-3.5031128 1.4312198 -1.2356448
-3.5135603 1.4355814 -1.2195964
-3.5259485 1.4253604 -1.2079834
-8.3088722 -0.77544159 4.1165533
-8.2637949 -0.76080269 4.0634308
-7.5302482 -0.78506684 3.0724878
-7.5184212 -0.82250345 3.0386605
-7.5408311 -0.90172553 3.0304041
-7.5849419 -0.97105449 3.0558839
-7.6011229 -1.0134714 3.0570469
-7.6063781 -1.0516473 3.0456667
-7.6488709 -1.1055648 3.0764132
-7.6982884 -1.1746523 3.1090937
-7.7125745 -1.1813937 3.1249166
-7.719595 -1.1517558 3.1485701
-7.7788229 -1.1318843 3.2372112
-7.8364544 -1.1712136 3.2951951
-7.8737974 -1.3453476 3.2611408
-7.8678398 -1.3910451 3.2311692
-7.8709674 -1.3998433 3.2311049
-7.8824949 -1.4656926 3.2147646
-7.8490171 -1.5215155 3.1431746
-7.8770571 -1.5262829 3.1783094
-7.8842268 -1.5276066 3.187243
-7.9447517 -1.5518203 3.2563739
-8.0366926 -1.5576842 3.3762856
-8.0741978 -1.5502162 3.4299512
-8.1098862 -1.5691161 3.4684868
-8.1425257 -1.553174 3.5197406
-8.1621723 -1.5555803 3.5448084
-7.3421736 -1.5562069 2.449846
-7.3739901 -1.5574956 2.4916983
-7.3905249 -1.5506451 2.5170729
-7.4049568 -1.5345653 2.5440865
-7.3708568 -1.5433178 2.4943473
-7.3211994 -1.5433643 2.4280348
-7.3070087 -1.5396132 2.4108977
-7.3204365 -1.5445762 2.4264321
-6.1714535 -1.5374498 0.8960259
-6.1538658 -1.5396831 0.87147123
-6.101059 -1.5151204 0.81281185
-6.0658836 -1.5195868 0.76370269
-6.2034736 -1.5191398 0.94759423
-6.2360349 -1.5135578 0.99375153
-6.2712393 -1.529933 1.0328579
-6.3048372 -1.5185446 1.0831966
-6.2536221 -1.5113244 1.018306
-1.6632719 0.85895568 -3.9674916
-1.6502752 0.86221772 -3.9832697
-1.6275158 0.86815721 -4.0107903
-1.6969805 0.71109706 -3.9937372
-1.6913776 0.67697221 -4.0176592
-1.6712217 0.5618102 -4.1000571
-1.7452955 0.47601777 -4.042511
-1.7740211 0.43781966 -4.0225692
-1.8193197 0.37592787 -3.99192
-1.8321447 0.33695084 -3.9935799
-1.8508298 0.22907531 -4.0206156
-1.8581576 0.19261378 -4.0284023
-1.8687835 0.15464294 -4.0325131
-1.878624 0.036494851 -4.0763059
-1.9784513 0.00066590309 -3.9603052
-2.0211666 -0.077937305 -3.9411569
-2.0264575 -0.054409981 -3.9227571
-2.0198355 -0.012901306 -3.9115963
-2.0074537 0.034822941 -3.9051299
-1.9998631 0.07498467 -3.8959107
-1.9945538 0.097992778 -3.8919125
-1.9904025 0.11152738 -3.8909326
-1.9799731 0.14672315 -3.8878965
-1.9606028 0.23612374 -3.8706775
-1.8957593 0.36338174 -3.8959217
-1.8817718 0.45652694 -3.8697128
-1.8863153 0.52871972 -3.8288617
-1.8082776 0.64853972 -3.8753037
-1.7395442 0.77215701 -3.907495
-1.6978626 0.85118204 -3.9250603
-9.0471439 0.87033242 5.8951221
-9.0389385 0.96505243 5.9298091
-9.0175962 1.0243423 5.9298863
-9.0123615 1.0625138 5.9412904
-9.0565891 0.83291548 5.8897018
-9.0448189 0.77807611 5.8475642
-9.0453529 0.76569635 5.8423123
-9.0561409 0.70499235 5.8274636
-9.0728321 0.63119859 5.8141894
-9.0900726 0.50955242 5.7785892
-9.1136684 0.42791641 5.7707529
-9.1157932 0.38847065 5.7545834
-9.1251774 0.35199845 5.7495356
-9.1360931 0.30839407 5.7430978
-9.1688347 0.23341507 5.7506781
-9.1606941 0.10913086 5.6799235
-9.1743011 0.013915122 5.6522093
-9.1691427 -0.0083566308 5.6345916
-4.0410461 -1.5105577 -1.9350125
-4.0189924 -1.5147963 -1.9664959
-3.9858723 -1.5283585 -2.0172443
-4.0029268 -1.5341856 -1.997285
-4.0370674 -1.5355406 -1.9523619
-4.0955534 -1.5141156 -1.8639625
-8.5292292 -0.77924991 4.4088845
-8.5270319 -0.77821028 4.4064517
-7.7951112 1.3683088 4.4636631
-7.8147807 1.3507669 4.4814687
-7.7779994 1.3638179 4.4386563
-8.3133907 -1.550066 3.7493353
-8.3661385 -1.5749564 3.8077579
-8.3976889 -1.5649047 3.8547196
-2.2587471 1.4200842 -2.9021821
-2.3118804 1.3913186 -2.8451118
-2.2805061 1.3909843 -2.887156
-2.2505541 1.3764164 -2.9341602
-6.171998 1.3854961 2.3051634
-6.1570182 1.3717599 2.2785468
-5.5557184 1.3754859 1.4776347
-5.5707083 1.389204 1.5042553
-5.5888062 1.3787453 1.5233757
-6.6520052 1.3575761 2.932498
-6.6966186 1.3490908 2.9879656
-6.76056 1.34817 3.0728807
-6.7876163 1.3667128 3.1179347
-6.7705059 1.372726 3.097991
-6.7197881 1.3674076 3.0277219
-6.6669402 1.3818381 2.9641256
-6.6338534 1.3682008 2.9133849
-6.6162839 1.3559182 2.8840127
-6.6205559 1.3557305 2.8896251
-3.8839641 1.3929312 -0.74567521
-3.842298 1.3787665 -0.8081224
-3.8071065 1.3847392 -0.85222399
-3.7815862 1.4073071 -0.87541795
-3.7687917 1.4148633 -0.88885725
-3.7858462 1.4090364 -0.86889768
-3.8205435 1.4156721 -0.819381
-3.8365779 1.424762 -0.79359615
-3.8451509 1.4253304 -0.78187752
-3.8645082 1.4208641 -0.75818837
-3.8898754 1.4083447 -0.73035645
-3.9410706 1.4011629 -0.66547394
-3.8898444 1.3980455 -0.73536062
-3.6593635 1.4083407 -1.0380815
-3.7256124 1.4250486 -0.94159162
-3.7608082 1.4190483 -0.89749813
-4.2318363 1.402787 -0.27653265
-4.2824745 1.387614 -0.21624357
-4.2974577 1.4013214 -0.18963718
-5.3889308 -1.5390128 -0.14935911
-5.3488979 -1.6259642 -0.24469835
-5.3296952 -1.6252105 -0.26997006
-5.2508001 -1.5267317 -0.32783961
-5.2182393 -1.5323138 -0.37399673
-5.1846266 -1.5332813 -0.41933405
-5.1518378 -1.5365827 -0.46469641
-5.1358037 -1.5456728 -0.49048138
-5.1174016 -1.5352163 -0.51000881
-5.0765362 -1.5341372 -0.56404197
-5.0938401 -1.4890873 -0.51923537
-5.1424379 -1.474426 -0.44729519
-5.2076135 -1.4784074 -0.36220682
-5.2373495 -1.4832458 -0.32484221
-5.2434244 -1.484009 -0.31709993
-5.3132787 -1.4936105 -0.22847438
-8.2968092 -1.5568838 3.7239146
-8.2652149 -1.5774381 3.671833
-7.5715828 -0.70252371 3.1674404
-7.5685196 -0.72899377 3.1505966
-6.4397984 -1.506561 1.2691377
-6.4083037 -1.5271785 1.2171595
-6.3570886 -1.5199585 1.1522689
-6.3736248 -1.5131108 1.1776433
-6.3901758 -1.5166838 1.1980163
-6.6467457 -1.5342498 1.5320617
-6.6286178 -1.523755 1.5129185
-6.6632819 -1.5274019 1.5574362
-6.6808844 -1.5355895 1.5769894
-5.9159493 -1.5349193 0.55615902
-5.8828626 -1.5381939 0.51041162
-5.8327136 -1.5460093 0.43969983
-5.7948804 -1.5180976 0.40264311
-5.7132373 -1.5465302 0.27995285
-5.6572905 -1.5185447 0.21875131
-5.6102962 -1.5402037 0.14558017
-5.5377598 -1.5039382 0.066221118
-5.5170569 -1.4970347 0.04191041
-5.4663677 -1.4921218 -0.023390055
-5.5180936 -1.4912285 0.046092212
-5.5661392 -1.474184 0.11844337
-5.5963807 -1.3988621 0.19510788
-5.6104159 -1.4017558 0.21245027
-5.6685538 -1.4782034 0.25322595
-5.703218 -1.4818504 0.29774347
-5.7175536 -1.4739792 0.32067382
-5.7197542 -1.4750028 0.32311797
-5.7395568 -1.4842136 0.34511521
-5.7681942 -1.4829949 0.38393235
-5.7875051 -1.4753749 0.41338286
-5.8216434 -1.4767147 0.45831025
-5.842926 -1.5010533 0.47499427
-4.888042 -1.5269703 -0.81221998
-4.9206367 -1.5110993 -0.7610606
-4.9387426 -1.5215441 -0.74192274
-4.9475327 -1.5256121 -0.73214829
-4.9816618 -1.5321172 -0.68972218
-5.0339079 -1.5439169 -0.62566113
-4.9914837 -1.5459518 -0.68327653
-4.9573431 -1.5445969 -0.7281996
-4.9490671 -1.5479882 -0.74088156
-4.9149265 -1.5466332 -0.78580463
-4.879766 -1.5303614 -0.82490194
-4.8544273 -1.5279242 -0.8575536
-4.8378673 -1.5347052 -0.88292813
-4.8251767 -1.5412116 -0.90300441
-4.8446054 -1.5140895 -0.86399961
-4.8663254 -1.5205302 -0.83810735
-4.5155897 -1.5465181 -1.3188459
-4.5492043 -1.5455642 -1.2735122
-4.58285 -1.5343108 -1.2231742
-4.5476584 -1.5283384 -1.2672759
-4.4799032 -1.5279374 -1.3575326
-4.4628487 -1.5221102 -1.3774923
-4.4814491 -1.5451632 -1.3637692
-2.348629 -1.1078526 -4.0002699
-2.3025708 -1.0267677 -4.0226851
-2.3413012 -1.0713911 -3.9924836
-2.417393 -1.1644797 -3.9357591
-8.0293064 -0.78170806 3.7403269
-7.9749465 -0.76040179 3.6780243
-7.9381242 -0.75789487 3.6300764
-7.9065742 -0.76794654 3.5831151
-7.8734999 -0.76057726 3.5425129
-7.8195734 -0.76258236 3.4695578
-7.7600298 -0.70771253 3.4165087
-7.6824112 -0.72874308 3.3027577
-7.6077919 -0.68803543 3.2227592
-7.5772376 -0.69283551 3.1796575
-3.3102322 -1.3434973 -2.8301182
-3.3096569 -1.5043118 -2.9083743
-3.207943 -1.3911036 -2.9896088
-3.2268696 -1.3152049 -2.9277711
-2.4334004 -1.1757782 -3.9198337
-2.4189696 -1.1815906 -3.9418988
-2.4024322 -1.1781616 -3.9623232
-2.3655889 -1.1451418 -3.9955969
0 0 0 1 0 0 0 1 0 0 0 1 0 0 0 0 0 737 1 0 0
