ply
format ascii 1.0
comment PCL generated
element vertex 511
property float x
property float y
property float z
element camera 1
property float view_px
property float view_py
property float view_pz
property float x_axisx
property float x_axisy
property float x_axisz
property float y_axisx
property float y_axisy
property float y_axisz
property float z_axisx
property float z_axisy
property float z_axisz
property float focal
property float scalex
property float scaley
property float centerx
property float centery
property int viewportx
property int viewporty
property float k1
property float k2
end_header
0.7829423 -1.5153916 0.56764412
0.70377922 -1.5261871 0.5739457
0.78354025 -1.5138953 0.56739426
0.67701674 1.3555548 0.16362244
0.58852196 1.338906 0.17132163
0.55653 1.371114 0.16864061
0.597085 1.3677411 0.16668504
0.6363759 1.3711669 0.16383362
-2.1799266 1.371464 0.33307606
-2.1769414 1.3632154 0.33407569
-2.2166567 1.3626552 0.33654302
-10.762613 0.63245583 0.95460987
-10.764258 0.74891138 0.93806195
-10.764857 0.78844881 0.93244624
-10.773716 0.86998677 0.9213233
-10.757195 0.78598607 0.93233764
-10.682863 0.65182757 0.94704705
-10.721273 0.51951993 0.96826863
-10.707121 0.43370438 0.97968489
-10.749538 0.43340182 0.98227787
-10.762992 0.47824228 0.9766767
-10.766634 0.55658042 0.96569759
0.71822119 1.3463352 0.16246361
0.79676914 1.3580818 0.15606302
0.71685171 1.3517821 0.1617673
-10.79388 1.351536 0.85370004
-10.812519 1.2705218 0.86640102
-10.811754 1.2305573 0.87206775
-10.811718 1.2281085 0.87241566
-10.802311 1.2673577 0.86623973
-10.734257 1.3479199 0.85063297
-10.69436 1.3718369 0.84481609
-10.733951 1.370698 0.84735864
-10.813641 1.1889127 0.87813401
-10.825947 1.1553972 0.88366467
-10.809525 1.0728345 0.89447957
-10.805613 0.9596318 0.9104262
-10.810356 1.1350608 0.88563454
0.98106623 -1.1645693 0.50558662
0.98167086 -1.3168432 0.52731717
0.97430658 -1.3179443 0.52791727
0.94220495 -1.2842827 0.52503502
0.90153694 -1.259245 0.52390051
0.86154556 -1.2494801 0.52490854
0.82039165 -1.2476037 0.52711403
0.66063309 -1.2654643 0.53927004
0.54149389 -1.2413963 0.54299092
0.39015818 -1.2791654 0.55748653
0.38263845 -1.2742746 0.55723941
0.26088905 -1.1647477 0.5489012
0.25237846 -1.1050539 0.54087985
0.26042843 -1.0986571 0.53948152
0.30091572 -1.0922388 0.53613043
0.33952332 -1.0780705 0.53178453
0.37948036 -1.0829396 0.53007877
0.461411 -1.1200106 0.53045309
0.54060745 -1.1141107 0.5248493
0.61988974 -1.1204498 0.52098989
0.69980431 -1.1301883 0.51757836
0.77966738 -1.1325834 0.51312029
0.85290241 -0.98716223 0.48793089
0.85779047 -0.97247213 0.48553723
0.86982393 -0.90882111 0.47571528
0.92704391 -0.79713595 0.45631093
0.93388033 -0.79128391 0.45506349
0.93517876 -0.80297804 0.45665708
0.98340607 -0.92044109 0.47054902
0.97959852 -1.0412278 0.48804379
0.98014402 -1.1195573 0.49920782
-10.57917 -1.5059953 1.2492652
-10.706999 -1.4677246 1.2514782
-10.731293 -1.3641883 1.2381384
-10.733953 -1.2041738 1.215425
-10.73405 -1.1853712 1.212743
-10.735136 -1.1233691 1.2039454
-10.657499 -0.98280126 1.1791852
-10.636158 -0.87373412 1.1623118
-10.622704 -0.91857451 1.1679128
-10.635011 -0.95209014 1.1734434
-10.628874 -1.0304105 1.1842701
-10.575874 -1.0928471 1.1900094
-10.535026 -1.1135002 1.1905062
-10.53495 -1.1145785 1.1906559
-10.593908 -1.1592158 1.2005805
-10.613152 -1.2316034 1.2120848
-10.597178 -1.2767854 1.2175831
-10.534458 -1.343194 1.2233059
-10.531891 -1.3480735 1.2238491
-10.490345 -1.4600661 1.2373607
-10.408743 -1.5562069 1.2461985
-10.288059 -1.5742016 1.2415166
-10.248575 -1.565717 1.2379304
-10.089214 -1.5637244 1.2280666
-10.00926 -1.5705011 1.2242293
-9.9292612 -1.558543 1.2177113
-9.889267 -1.5631554 1.2159666
-9.80968 -1.5666294 1.2116793
-9.7095032 -1.5692203 1.2060282
-9.7888756 -1.580438 1.2124026
-9.8092766 -1.5723807 1.2124772
-9.868866 -1.5712129 1.2158921
-9.9087524 -1.5739461 1.2186804
-9.9684582 -1.5866164 1.2240803
-10.066645 -1.6763325 1.2428067
-10.105284 -1.6593453 1.2427011
-10.167179 -1.649255 1.2449791
-10.530785 -1.5505866 1.2527308
-10.525793 -1.5505511 1.2524258
-10.488033 -1.5511383 1.2502401
-10.407001 -1.6643734 1.2615557
-10.367077 -1.6640887 1.2591152
-10.65484 1.3778727 0.84157777
-10.614182 1.3715518 0.84003735
-10.454488 1.3726904 0.8302756
-10.415005 1.3811748 0.82668954
-10.374642 1.3732595 0.82539481
-10.466639 1.4771695 0.81607115
-10.614585 1.3773034 0.83923948
-10.766973 0.9426446 0.91053188
-8.072834 -1.5355814 1.1028411
-8.0323601 -1.5605694 1.1039803
-7.9928055 -1.556982 1.10109
-9.236805 -1.1299498 1.1148231
-9.1984158 -1.0302825 1.0982685
-9.1585808 -1.0403761 1.0973169
-9.1186571 -1.0400915 1.0948765
-9.078805 -1.0349095 1.0917404
-8.9993992 -1.0261405 1.0857137
-8.854413 -0.89445972 1.0581757
-8.8822899 -0.86527193 1.0556791
-8.8979788 -0.81640625 1.049637
-8.8885708 -0.77715713 1.043461
-8.8945389 -0.73226333 1.0374023
-8.9655504 -0.65440542 1.0305413
-8.8943367 -0.57553357 1.0149864
-8.8869267 -0.57440186 1.0143793
-8.8062229 -0.58605415 1.0111939
-8.6582699 -0.52891439 0.99413264
-8.6100855 -0.41102466 0.97438455
-8.7311287 -0.28136015 0.96312535
-8.5732908 -0.21889251 0.94470847
-8.4927444 -0.22248006 0.94037974
-8.4530048 -0.23218048 0.93937767
-8.4349346 -0.27263799 0.94407469
-8.4116096 -0.30033517 0.94663185
-8.4115353 -0.31495932 0.94871783
-8.4299116 -0.40165678 0.96221542
-8.4321194 -0.42126435 0.96515089
-8.4487267 -0.48015586 0.97456741
-8.4876003 -0.530267 0.98406726
-8.5263052 -0.61380482 0.99833512
-8.5655117 -0.66306192 1.0077329
-8.5712767 -0.7806493 1.024888
-8.5726242 -0.85902303 1.0361722
-8.5214214 -0.92563421 1.0426161
-8.4887333 -0.94254327 1.0430684
-8.5060291 -0.97609448 1.0489041
-8.4998922 -1.054415 1.0597306
-8.478837 -1.0853642 1.0628891
-8.5012398 -1.1327887 1.0710149
-8.5177212 -1.1566589 1.0754176
-8.5372887 -1.1837361 1.0804644
-8.6755495 -1.2851259 1.1032684
-8.6749763 -1.3243039 1.1088343
-8.5926208 -1.4951384 1.1283039
-8.552743 -1.5135887 1.1285443
-8.6424894 -1.4979427 1.1317023
-8.712328 -1.522073 1.1393496
-8.7913675 -1.5341448 1.1458261
-8.8321705 -1.5180296 1.1459751
-8.8717966 -1.5167196 1.1481698
-8.9512758 -1.5205915 1.1535007
-9.0496111 -1.4950908 1.1557662
-9.1156006 -1.5462519 1.1670461
-9.1508102 -1.5425467 1.168633
-9.2703028 -1.5473547 1.1765027
-9.1530609 -1.4174643 1.1508882
-9.1139526 -1.3396778 1.1374182
-9.1063957 -1.3445216 1.1376563
-9.0567245 -1.3718412 1.1385759
-8.8839188 -1.3486898 1.1248794
-8.8750935 -1.2914462 1.1161661
-8.8378086 -1.1082337 1.0877355
-8.9581852 -1.1140063 1.0957965
-8.9976692 -1.1224909 1.0993826
-9.1174393 -1.1233448 1.106704
-9.1571827 -1.1358724 1.1108837
-5.00384 -1.1260819 0.85983127
-4.997366 -1.1191142 0.85844612
-4.8851805 -1.1292839 0.85315645
-4.9337659 -1.145425 0.85838419
-4.9965372 -1.1876793 0.86819738
-5.0141225 -1.177972 0.86786675
-5.3623242 -0.76087159 0.82917416
-5.4434867 -0.68819129 0.82366347
-5.5623541 -0.76347989 0.84157062
-5.604743 -0.76614177 0.84449905
-5.5990863 -0.9204812 0.86622119
-5.5591922 -0.9178319 0.86344445
-5.5202427 -0.90859896 0.85978347
-5.4151788 -0.89422309 0.85141319
-5.3601556 -0.9291808 0.85310286
-5.378252 -0.88829452 0.84834611
-5.2828903 -0.7620762 0.82457173
-5.3223419 -0.76556855 0.82744229
-6.2007456 -0.76263398 0.87982273
-6.1215186 -0.74669731 0.87278241
-6.080533 -0.76287544 0.87263137
-6.001689 -0.75099325 0.86619365
-5.9440918 -0.76784629 0.86514062
-5.9609976 -0.77857208 0.86769003
-6.0022283 -0.77388138 0.86949784
-6.078609 -0.92204446 0.8952682
-6.0382996 -0.98956603 0.90249717
-6.1176772 -1.0940229 0.92220008
-6.1973767 -1.048062 0.92042089
-6.1973715 -1.0417919 0.91952425
-6.2780499 -0.90185142 0.90436989
-6.3229342 -0.90452576 0.90745014
-6.3983517 -0.89426368 0.9105165
-6.3985777 -0.86213386 0.90593725
-6.3595004 -0.85224611 0.90217495
-6.2411995 -0.75464517 0.8811124
-7.7993784 1.3769245 0.67007458
-7.7190924 1.3692939 0.66633946
-7.6795726 1.3753297 0.6631012
-7.7195315 1.3774936 0.66519374
-7.639246 1.369863 0.66145861
-7.4399977 1.374589 0.64880645
-7.4109659 1.3597789 0.64917845
-7.2916994 1.3709004 0.64041972
-7.4114466 1.3680158 0.64802992
-7.4404364 1.3827887 0.64766073
-7.6396852 1.378063 0.66031289
-10.591835 -0.051482797 1.0421104
-10.612101 -0.047311604 1.0427324
-10.631533 -0.10536683 1.0521991
-10.631142 -0.12257469 1.0546354
-10.616346 -0.11995184 1.0533712
-10.550762 -0.10246259 1.046929
-10.550835 -0.097565293 1.0462333
-4.4047084 -1.1443156 0.82642454
-4.4051294 -1.1093155 0.82144678
-4.4051814 -1.1044192 0.82074994
-4.3253584 -1.101694 0.81556231
-4.2851243 -1.1309335 0.81732357
-4.2847857 -1.1457146 0.81941611
-4.3646045 -1.1463547 0.82430542
-5.2722425 -1.5000749 0.92942524
-5.2330279 -1.4769924 0.92376858
-5.2029672 -1.4866371 0.92334032
-5.15203 -1.5003163 0.92223388
-5.1928978 -1.4939332 0.923778
-4.9927788 -1.4986711 0.91242635
-5.0403228 -1.4925349 0.91440701
-5.0798445 -1.4911352 0.91658252
-4.9595141 -1.5038708 0.91117013
-4.960474 -1.4922577 0.90956771
-4.9922476 -1.5068604 0.91356504
-4.999413 -1.5064574 0.91393811
-5.0720248 -1.4996192 0.91732526
-5.0793648 -1.4969418 0.91738373
-3.7662635 -1.114444 0.78377831
-3.7263286 -1.155014 0.78717715
-3.6483145 -1.1776894 0.78572917
-3.6458538 -1.1794032 0.78582621
-3.603374 -1.1799818 0.78335553
-3.6224923 -1.02336 0.76211631
-3.64328 -0.94508803 0.75217724
-3.6890874 -0.90026665 0.74852365
-3.7296977 -0.87501335 0.74735487
-3.7291613 -0.89859062 0.75069284
-3.7281933 -1.0128362 0.76696557
-5.9511461 -1.5222309 0.97340047
-5.8304915 -1.5233154 0.96630311
-5.8715658 -1.4997909 0.96540928
-5.9110761 -1.4983859 0.96758342
-5.9504094 -1.5116732 0.97184706
-6.03123 -1.503042 0.97547126
-6.1105747 -1.5091835 0.9811185
-6.1100736 -1.514924 0.98190898
-6.030345 -1.5047281 0.97565907
-6.5097494 -1.5160863 1.0060992
-6.549614 -1.5211844 1.0092242
-6.5101624 -1.517692 1.0063535
-6.429903 -1.5156852 1.0012424
-0.36642981 -1.1107984 0.57889688
-0.40662432 -1.0716482 0.57571661
-0.48645639 -1.0741235 0.58086902
-0.56608486 -1.1059718 0.59020793
-0.48559237 -1.1215879 0.5876019
-0.44621038 -1.1206169 0.58509594
-0.34872627 -1.1450608 0.58273041
-0.32613325 -1.1646351 0.5841704
-7.9586315 1.3675861 0.68098199
-8.0389891 1.3801141 0.68402141
-8.0785446 1.3765268 0.68691182
-8.1190147 1.391788 0.68716294
-8.0393934 1.3858654 0.68322355
-7.9590712 1.3757861 0.67983627
-7.2518015 1.3734939 0.63765073
-7.2114496 1.3702993 0.63568187
-7.171926 1.3713365 0.63315791
-7.0921564 1.3789721 0.62727159
-7.1724329 1.3820214 0.631661
-7.2123575 1.381876 0.6340816
-8.47931 1.4129725 0.70579165
-8.3597918 1.4309666 0.69603539
-8.2794695 1.4208872 0.69264811
-8.2399502 1.426923 0.68940985
-8.1588211 1.4053411 0.68761832
-8.3584375 1.403918 0.69982046
-8.4378185 1.3715167 0.70922357
-8.5180321 1.3742502 0.7136544
-8.5585833 1.373225 0.71623844
-4.6353979 1.4011195 0.47643265
-4.6752963 1.3985326 0.47920066
-4.634789 1.3830721 0.47897583
-4.5549664 1.385797 0.47378823
-4.5158057 1.4186718 0.46673504
-4.5562692 1.4101062 0.47039169
-4.5963302 1.4030781 0.47380432
-4.441659 1.4467716 0.45826146
-4.436759 1.4478776 0.45780879
-4.3961616 1.4313281 0.4577342
-4.4361892 1.4409823 0.45876017
-4.47649 1.4368579 0.4617722
-3.9166827 1.3962677 0.43392497
-3.8372622 1.397455 0.42898136
-3.8766294 1.3841653 0.43324739
-3.6016076 -1.5049684 0.8297047
-3.7210708 -1.5347619 0.84114432
-3.72228 -1.4944966 0.83546132
-3.7223401 -1.4937708 0.83536118
-3.6829729 -1.4804813 0.83109516
-3.6425948 -1.4837012 0.82912832
-2.6786511 -1.5237764 0.77691531
-2.6375749 -1.535468 0.7761175
-2.6780753 -1.529629 0.77771729
-2.7234168 -1.527941 0.78020144
-2.9313505 -0.81929398 0.6914022
-2.9711356 -0.87238187 0.70138234
-3.0096152 -1.0096174 0.7233125
-3.0166881 -1.0488141 0.72934061
-3.0137801 -1.087976 0.73476386
-3.0467558 -1.2143188 0.75480616
-3.0462232 -1.2549411 0.7605809
-3.0357764 -1.3288928 0.77052402
-3.0445721 -1.4116235 0.78287864
-3.0442493 -1.4497054 0.7883029
-3.0433867 -1.4943197 0.79462844
-3.0429919 -1.5119119 0.79711944
-3.1224382 -1.5106509 0.80171466
-3.2027152 -1.5100176 0.80644947
-3.2423403 -1.4988256 0.80723143
-3.1639051 -1.483577 0.80033708
-3.0841665 -1.4157541 0.78584909
-3.0603166 -1.36815 0.77761072
-3.0607293 -1.3289794 0.77203625
-3.0681479 -1.2956412 0.76771665
-3.0859759 -1.2614275 0.7638976
-3.2073457 -1.1698956 0.75810891
-3.2868574 -1.1400748 0.75862551
-3.2478662 -1.0538876 0.74396175
-3.3291595 -0.91706753 0.72929037
-3.2122707 -0.76213527 0.70011747
-3.1714125 -0.77116174 0.69895178
-3.0118234 -0.83978403 0.69916832
-2.9717391 -0.77536553 0.68755054
-2.9321232 -0.7757684 0.68522692
-1.0462933 -1.0219564 0.60706317
-1.046258 -1.0223223 0.60711336
-1.1654539 -1.0282162 0.61512059
-1.2043705 -1.0384723 0.61892587
-1.2092528 -1.0395713 0.61937648
-1.2836375 -1.1081342 0.6336484
-1.3241057 -1.1117204 0.63659352
-1.3633456 -1.1186843 0.63994765
-1.4236095 -1.1512847 0.64823014
-1.5253572 -1.1569897 0.65516156
-1.5633631 -1.1147295 0.65140516
-1.6033864 -1.0568416 0.64553612
-1.5639591 -0.99943233 0.63495982
-1.6053162 -0.85516912 0.61682391
-1.7055159 -0.79890537 0.61480421
-1.6856258 -0.79816687 0.61350304
-1.6058235 -0.78173673 0.60635757
-1.5265515 -0.77585649 0.60075212
-1.4467199 -0.77338111 0.59559965
-1.4073038 -0.77730572 0.59379143
-1.3663125 -0.77675855 0.59124923
-1.2875991 -0.7674734 0.58519059
-1.2476749 -0.76745957 0.58278883
-1.1672668 -0.77083695 0.5784384
-1.1284442 -0.76646101 0.57547927
-1.0879774 -0.7674045 0.57318169
-1.0486126 -0.76398575 0.57032686
-1.0086551 -0.76886749 0.56862283
-1.046648 -0.89318305 0.58867693
-6.8769279 -0.97418714 0.95070785
-6.7553539 -1.0870714 0.95953643
-6.7554545 -1.0943549 0.96058369
-6.754981 -1.133535 0.96615583
-6.7540531 -1.1589283 0.9697299
-6.8338842 -1.1784979 0.97732586
-6.9547319 -1.1435523 0.97959459
-6.994154 -1.1494935 0.98281348
-7.0407362 -1.1824085 0.99031848
-7.1134529 -1.1533868 0.99054086
-7.153317 -1.1584848 0.99366581
-7.1931672 -1.1468632 0.99439991
-7.1541438 -1.125808 0.98904449
-7.0744748 -1.1107144 0.98209816
-6.995307 -1.0898802 0.9743613
-6.8824196 -0.96847165 0.95022094
-0.21511889 -1.5184989 0.62808067
-0.25505924 -1.5160775 0.6301353
-0.28267097 -1.5214591 0.63256431
-0.25440979 -1.5219245 0.63093209
-0.21383762 -1.5277452 0.62932539
-0.16177988 -1.5282277 0.62626523
-0.13525534 -1.5208939 0.62362254
-0.16289854 -1.5214179 0.625359
-8.3186216 1.4115486 0.69633639
-8.2390709 1.4105232 0.69170129
-8.1993008 1.3994188 0.69089806
-8.1588898 1.4005115 0.68831283
-8.7708721 -0.29388788 0.96730506
-8.8105431 -0.31131363 0.9721806
-8.8512745 -0.30009562 0.97302532
-8.8526058 -0.29502752 0.97238094
-8.8463554 -0.2951628 0.97202456
-8.7709789 -0.28654203 0.96626145
-9.8555679 1.3720624 0.79436493
-9.8356056 1.3722038 0.79314482
-9.8559713 1.3778136 0.79356706
-9.8955269 1.3742263 0.79645753
-4.0501842 -0.77746898 0.75267541
-4.0152574 -0.81143773 0.75543165
-4.0102158 -0.81631666 0.75582606
-3.9743736 -0.82291228 0.75461441
-3.930212 -0.83072865 0.75307727
-3.8907261 -0.78897142 0.74473476
-3.9703014 -0.7754696 0.74758792
-4.0097976 -0.77651834 0.75011194
-2.5982096 -1.5320493 0.77326262
-2.5632138 -1.5356417 0.77167261
-2.5641732 -1.5240287 0.77007025
-1.3607101 -1.5095924 0.69566774
-1.4000583 -1.5154588 0.69887149
-1.3614306 -1.5022767 0.69466531
-1.3207521 -1.5144742 0.69396377
-1.3457389 -1.5095873 0.69476712
-1.8802001 -1.5186054 0.72818214
-2.039304 -1.526961 0.73894006
-2.1995773 -1.5211633 0.74774516
-2.0398633 -1.523556 0.73848695
-6.5995493 -0.78011215 0.9062928
-6.5606165 -0.75380069 0.90019149
-6.5600858 -0.76199007 0.90133023
-6.5748792 -0.77675772 0.90433037
-5.8938346 1.3653033 0.55719566
-5.8538837 1.3630004 0.55512345
-5.8144393 1.3713825 0.55155432
-5.8543377 1.3687887 0.55432332
-3.9219687 -1.5285532 0.85233259
-3.9620047 -1.5230695 0.85395527
-4.006321 -1.5005641 0.85340202
-4.0815301 -1.5072582 0.85887963
-4.2413049 -1.5004677 0.86751282
-4.0808496 -1.5048158 0.85848957
-4.0430832 -1.409144 0.84254366
-3.9618859 -1.4946017 0.84987879
-0.44185972 -1.517576 0.64157784
-0.40300322 -1.5180956 0.63931656
-0.44128275 -1.5234287 0.64237982
-0.52167416 -1.5224991 0.64707917
-6.0939379 1.3728132 0.56815016
-6.1333551 1.3619828 0.57206762
-6.1737871 1.3725226 0.57299131
-5.6157856 1.4118967 0.53382212
-5.6557388 1.412113 0.53619272
-5.6953321 1.3971937 0.54070532
-5.7347231 1.3839149 0.54497123
-5.6948247 1.3865087 0.54220217
-5.6646132 1.3979676 0.53874815
-10.13521 1.3823133 0.80970865
-9.9755535 1.3859003 0.79959911
-10.135946 1.3889186 0.80880862
-10.175977 1.3959796 0.81020552
-9.2363539 1.3707218 0.75733632
-9.2769928 1.396137 0.75614607
-9.3176975 1.4069955 0.75704062
-9.397213 1.4055722 0.76202363
-9.4774265 1.4083054 0.76645452
-9.5170631 1.388432 0.77167785
-9.4166985 1.3947814 0.76473743
-9.3966656 1.3900263 0.76421297
-9.3167648 1.3936954 0.75888574
-9.2373133 1.3708355 0.75737774
-9.1844749 1.363009 0.75532043
-9.1965485 1.3571687 0.756881
-9.6363926 1.3793783 0.78014481
-9.5959949 1.3690143 0.77919799
-9.556179 1.3766448 0.77571404
-9.5968733 1.3854141 0.77690655
-1.5209837 -1.5037948 0.7044729
-1.5603316 -1.5096614 0.70767665
-1.600256 -1.509675 0.71007842
-1.5597894 -1.5106184 0.7077809
-1.5204241 -1.5071998 0.70492601
0 0 0 1 0 0 0 1 0 0 0 1 0 0 0 0 0 511 1 0 0
