ply
format ascii 1.0
comment PCL generated
element vertex 403
property float x
property float y
property float z
element camera 1
property float view_px
property float view_py
property float view_pz
property float x_axisx
property float x_axisy
property float x_axisz
property float y_axisx
property float y_axisy
property float y_axisz
property float z_axisx
property float z_axisy
property float z_axisz
property float focal
property float scalex
property float scaley
property float centerx
property float centery
property int viewportx
property int viewporty
property float k1
property float k2
end_header
-7.9191189 1.401692 4.4237976
-8.0005684 1.4048208 4.4593425
-8.0100203 1.391524 4.4650822
-7.9775915 1.3845993 4.451602
-7.891284 1.393191 4.4125295
-7.8620443 1.3876859 4.4002876
-7.841301 1.3940605 4.3903866
-7.859107 1.3912071 4.3985758
-9.1314487 -1.5659062 5.3092833
-9.1434479 -1.5750504 5.3156557
-9.0842228 -1.5727804 5.2892723
1.042886 -1.5201198 0.81756353
1.0863011 -1.4457084 0.78962088
1.081135 -1.4750608 0.79536963
1.0765755 -1.5018514 0.80054808
-8.9242268 -1.5804918 5.219635
-9.0053005 -1.584774 5.2558899
-8.9685497 -1.5721642 5.2381945
-8.9344521 -1.5659485 5.2224236
-7.8327494 1.3957642 4.386415
-7.7677174 1.376408 4.3600283
-5.319109 1.3762387 3.2803504
-5.3064437 1.3705631 3.2754369
-5.3660264 1.3781372 3.3008139
-5.3538671 1.3823436 3.294955
-5.7655191 -1.5363657 3.8216057
-5.6844521 -1.5323386 3.7853835
-5.6602521 -1.5215225 3.7734339
-5.5686355 -1.5345604 3.7345777
-5.4878039 -1.5255926 3.697875
-5.5327492 -1.5096896 3.7158129
-5.6296239 -1.498322 3.757185
-5.6558771 -1.4999334 3.7689517
-5.7081041 -1.499683 3.7919514
-6.485096 -1.5055443 4.1352539
-6.5753222 -1.5781031 4.1836185
-6.5811343 -1.6027293 4.1890931
-6.7370415 -1.5351007 4.2498426
-6.8170433 -1.4726634 4.2777357
-6.8690348 -1.4556768 4.2986522
-6.92872 -1.4480591 4.324069
-7.0481415 -1.4714681 4.3794956
-6.9380679 -1.5216551 4.336894
-6.9304943 -1.5240178 4.3338337
-6.8664074 -1.5100119 4.3039188
-6.8519106 -1.5075998 4.2972412
-6.806612 -1.5093167 4.2774701
-6.5194588 -1.5066878 4.1505408
-6.5664225 -1.5046856 4.1710129
-6.6133871 -1.5026834 4.1914845
-6.6237326 -1.5063845 4.1964841
-5.738688 1.4455971 3.4571595
-5.7510996 1.4463316 3.4625456
-5.7847195 1.4302024 3.4792774
-5.8515797 1.3905324 3.5134497
-5.7966261 1.4059693 3.4873929
-4.8921938 -1.5451076 3.4375525
-4.9267192 -1.5437846 3.4526198
-4.9024644 -1.5354241 3.4409361
-4.8720093 -1.5291241 3.4267623
-4.8029828 -1.5317403 3.3966348
-4.8150234 -1.5383836 3.4027295
-4.8334141 -1.5380701 3.4108019
-4.8799496 -1.5433978 3.4319513
-6.3451915 -1.5129042 4.0744343
-6.3812914 -1.5169326 4.0908289
-6.4160123 -1.5106667 4.1053972
-6.3802948 -1.499244 4.0882974
-6.3553867 -1.5032504 4.0777884
-6.3239136 -1.5056016 4.0641885
-6.2893009 -1.5011213 4.0483961
-6.2547879 -1.5024295 4.0333328
-6.2642422 -1.5064067 4.0379715
-6.2769485 -1.510857 4.0441008
-6.2980475 -1.5199211 4.0544758
-6.4643269 -1.0256591 4.0693493
-6.3181839 -1.1101086 4.014895
-6.1762791 -1.2263228 3.9660652
-6.3059492 -1.0957766 4.0078053
-6.3565583 -0.96129346 4.0142183
-0.86828971 -1.3197536 1.6365907
-0.87174535 -1.310944 1.6370727
-0.82341337 -1.2676848 1.6106457
-0.77546906 -1.2744105 1.5903003
-0.75387239 -1.2753298 1.5808861
-0.77059865 -1.276113 1.588354
0.85846448 -1.5268571 0.89967966
0.75357985 -1.5441601 0.94797397
0.73082089 -1.533447 0.95674264
0.74295783 -1.5316274 0.95117581
0.041450977 -1.094211 1.2087762
0.12283015 -1.0978318 1.1733209
0.22696757 -1.1121659 1.1290971
0.27268481 -1.0896088 1.106271
0.25580096 -1.1625727 1.1223439
0.23594975 -1.2011521 1.1356591
0.20762563 -1.2269214 1.1511955
0.17295003 -1.2229664 1.1660179
0.09260416 -1.2022016 1.1989905
-0.045161247 -1.2479721 1.2651495
-0.063139915 -1.3246167 1.2821403
-0.090725422 -1.4034977 1.3036315
-0.02709651 -1.5174469 1.2890491
0.007689476 -1.5238711 1.2744703
0.013813972 -1.524194 1.2718079
-0.022266388 -1.5370606 1.2892388
-0.074197769 -1.5249107 1.3107009
-0.10814691 -1.5212336 1.3252356
-0.15359187 -1.5268966 1.3459439
-0.16075158 -1.5261793 1.3490162
-0.18813634 -1.5254011 1.3609993
-0.21336031 -1.5311288 1.3727989
-0.25700641 -1.5273486 1.3915973
-0.19531822 -1.5246936 1.3640823
-0.1893065 -1.5225511 1.3611783
-0.12377405 -1.4481474 1.3234839
-0.13070726 -1.3627682 1.3164451
-0.12726545 -1.3432016 1.3126137
-0.13022399 -1.276533 1.3060347
-0.17999339 -1.1525942 1.3133245
-0.26588988 -1.1150349 1.3467586
-0.27541471 -1.112522 1.3506614
-0.3220613 -1.0409503 1.3627665
-0.23776817 -0.93817484 1.313445
-0.21691895 -0.9003005 1.299773
-0.2050879 -0.89766592 1.2942446
-0.10846043 -0.79142225 1.2390741
-0.2035501 -0.90133864 1.2940009
-0.18740511 -1.0193341 1.3008348
-0.17884684 -1.0356028 1.2989848
-0.12340569 -1.0792722 1.2797022
-0.10927987 -1.08268 1.2738765
-0.10184407 -1.0858749 1.2709756
-0.058188677 -1.0920864 1.2524605
-0.04594326 -1.0927361 1.2471378
-0.011376619 -1.0942218 1.2320715
-2.7427747 -1.2863823 2.4591863
-2.7953823 -1.2671056 2.4801037
-2.8090062 -1.3697191 2.4982452
-2.8794358 -1.4679769 2.5409195
-2.9363418 -1.5145398 2.5715179
-2.890275 -1.4993309 2.5494065
-2.8329453 -1.498485 2.5240273
-2.7866998 -1.5032998 2.5042052
-2.7058735 -1.4943545 2.4675076
-2.6706457 -1.5104995 2.4538832
-2.617403 -1.4977448 2.4288981
-2.5551777 -1.5053477 2.402359
-2.528486 -1.5175977 2.3920383
-2.4833338 -1.5138924 2.3716905
-2.4365463 -1.5174694 2.3514829
-2.4124322 -1.5251471 2.3417578
-2.3778772 -1.526618 2.326695
-2.3309331 -1.5312257 2.30654
-2.2622645 -1.5242897 2.2754409
-2.250978 -1.5027328 2.267915
-2.2393608 -1.4885836 2.2611194
-2.2463913 -1.475961 2.2627268
-2.2675931 -1.4356232 2.2673059
-2.3067613 -1.472494 2.2889366
-2.3765883 -1.5049248 2.3235612
-2.4229808 -1.5126641 2.344933
-2.4616385 -1.5045737 2.3610222
-2.521255 -1.4409297 2.3797839
-2.5343189 -1.4253472 2.3837018
-2.5636001 -1.4046416 2.3941646
-2.6940615 -1.3697691 2.447567
-5.6259661 -1.0006371 3.6967211
-5.5232525 -0.98726845 3.6498494
-5.5013323 -0.97723466 3.6389976
-5.4613295 -0.94306064 3.6173174
-5.5674419 -0.78338575 3.6452255
-5.5088472 -0.77140725 3.6179721
-5.4173479 -0.78197497 3.5788758
-5.3586354 -0.77246684 3.5518625
-5.2299519 -0.78533834 3.4966426
-5.1950846 -0.79405773 3.4822991
-5.1730418 -0.82635427 3.4763985
-5.1705403 -0.86156011 3.4794583
-5.1917377 -0.91905349 3.4956038
-5.247973 -1.0225277 3.5326362
-5.254982 -1.037488 3.5374959
-5.2628031 -1.0677923 3.544528
-5.2262554 -1.1763717 3.5412519
-5.2233853 -1.1879413 3.5413547
-5.2755475 -1.2262884 3.5688896
-5.3103199 -1.3214406 3.595474
-5.3545141 -1.3761842 3.6214347
-5.406383 -1.5289767 3.6623733
-5.3820648 -1.5206308 3.6506636
-5.3255515 -1.5200089 3.6256707
-5.2666025 -1.5154415 3.5991375
-5.1751041 -1.5260092 3.5600414
-5.2325616 -1.506868 3.5831137
-7.4554644 1.3698169 4.2231216
-7.4103489 1.3612429 4.2042422
-7.3980989 1.365446 4.1983433
-6.9421787 1.3845712 3.9950471
-6.9641457 1.3825301 4.0049744
-6.9375229 1.3985797 3.9913373
-6.9186192 1.4078068 3.9819112
-7.035624 -0.85762554 4.3013897
-7.0815134 -0.87785137 4.3240161
-7.1276417 -0.89313763 4.3461633
-7.1739922 -0.88741702 4.3659248
-7.1964865 -0.89295483 4.3764982
-7.3484955 -0.839441 4.4371977
-7.2104726 -0.84508669 4.3770051
-7.1793842 -0.78118801 4.355741
-7.1754155 -0.77528131 4.3532925
-7.1546335 -0.77772236 4.3444176
-7.1409025 -0.77658939 4.3382287
-7.0739279 -0.7772665 4.3087769
-7.0719938 -0.77673525 4.3078613
-7.0374808 -0.77804327 4.2927976
-6.9684544 -0.78065956 4.2626705
-6.9216642 -0.78026521 4.241992
-6.9458752 -0.77518773 4.2520671
-6.9562955 -0.77648664 4.2568154
-6.5897808 -1.1137158 4.1350803
-6.5829563 -1.1213723 4.1329765
-6.5377002 -1.0888623 4.1091766
-1.1338508 -0.82986218 1.6957587
-1.1359463 -0.78294349 1.6911346
-1.1015015 -0.78194499 1.6758283
-0.9840138 -0.82159662 1.6287117
-0.94681191 -0.88233316 1.6194899
-1.0124109 -0.83801228 1.6431744
-1.0945354 -0.84139448 1.6797866
-1.1011157 -0.84201151 1.6827611
-3.1232209 -1.0583071 2.5999718
-3.110075 -1.1800747 2.6085742
-3.0572481 -1.1449608 2.5811284
-3.0223889 -1.0876895 2.558985
-2.912173 -1.0373776 2.5044367
-2.8934031 -1.0108219 2.4930201
-2.889441 -0.99690259 2.4896269
-2.8632128 -0.92668462 2.4697587
-2.8057194 -0.886531 2.4396591
-2.7313018 -0.9049018 2.4090176
-2.6622515 -0.90754783 2.3788831
-2.6276093 -0.91134113 2.3640566
-2.5930843 -0.91266418 2.3489895
-2.5767584 -0.89356291 2.3395319
-2.4987087 -0.86354244 2.3015666
-2.4176507 -0.85974342 2.2653751
-2.3832061 -0.85874486 2.2500691
-2.3085995 -1.0000889 2.2338858
-2.2316413 -1.0822355 2.2096651
-2.2495246 -1.0381514 2.2123377
-2.216495 -0.91975617 2.1837735
-2.2185538 -0.90794301 2.1832843
-2.1898437 -0.77853554 2.1553226
-2.3001447 -0.80327219 2.2068841
-2.3732431 -0.80755484 2.2396226
-2.4202976 -0.80047774 2.2595344
-2.4633808 -0.80110854 2.2786059
-2.4828856 -0.79634696 2.2866435
-2.4894075 -0.79753602 2.28966
-2.5230985 -0.79826754 2.3046021
-2.5586276 -0.79212487 2.3195424
-2.5862269 -0.79731864 2.3323259
-2.6332302 -0.7927649 2.3525133
-2.7026315 -0.78270781 2.3819263
-2.7147591 -0.78688818 2.387768
-2.7835751 -0.78918278 2.4183834
-2.7960534 -0.78595209 2.4235036
-2.8526251 -0.78653681 2.4485176
-2.8648696 -0.78824681 2.454119
-2.9348567 -0.76583809 2.4823294
-2.9575386 -0.77454561 2.4933605
-3.013526 -0.77152926 2.5176911
-3.0839128 -0.78942966 2.5508447
-3.1769834 -0.80008507 2.5931435
-3.1893451 -0.79932463 2.5985043
-3.212322 -0.81410658 2.6103837
-3.1903243 -0.85991907 2.6061013
-3.1493161 -0.91675353 2.5947397
-3.153146 -1.0177068 2.608366
-5.7027283 -0.94781238 3.7243223
-5.6708679 -1.0405581 3.721241
-5.6805487 -1.09661 3.7321377
-5.5597758 -1.2025895 3.6914158
-5.6369066 -1.3007699 3.737036
-5.6088648 -1.3018328 3.7247968
-5.4864259 -1.2623845 3.6661434
-5.4802003 -1.2643583 3.6636314
-5.462698 -1.263284 3.655787
-5.3626375 -1.3413529 3.6208978
-8.0604992 -0.78579473 4.7448077
-8.0925179 -0.78191411 4.7584667
-8.0705948 -0.7900728 4.7497649
-6.5339665 -1.0700046 4.1053009
-6.6229973 -1.046451 4.1417732
-0.98757935 -1.5140278 1.7121634
-1.0567994 -1.5086167 1.7420458
-1.0587847 -1.4641675 1.7376651
-1.0477655 -1.4695659 1.7334446
-2.9578028 -1.5287992 2.5826671
-2.9702814 -1.5255685 2.5877874
-6.1243401 -1.2367156 3.944392
-6.1121054 -1.2223837 3.9373026
-6.1208563 -1.1802799 3.9361825
-6.1679201 -1.2234538 3.9620402
-7.0810986 -1.1439112 4.3552942
-7.0793066 -1.1809578 4.3588848
-7.1761713 -1.335562 4.4198785
-7.1948771 -1.1837124 4.4101706
-7.2086725 -1.155869 4.412961
-7.1639776 -1.1109453 4.3879409
-7.1294956 -1.1122718 4.3728933
-7.4174738 -1.1493301 4.5042577
-7.4154501 -1.0730886 4.4943495
-7.4765472 -1.0642332 4.5202427
-7.483633 -1.0704346 4.5241003
-7.5231037 -1.0935745 4.544241
-7.5773926 -1.1037475 4.5693827
-7.6241169 -1.1067551 4.5903411
-7.6972303 -1.0530097 4.6162243
-7.6705308 -0.90103817 4.5864811
-7.5910873 -0.86464018 4.5471468
-7.5567389 -0.86336541 4.5318503
-7.5097637 -0.86529875 4.5113659
-7.4721203 -0.86537129 4.4947758
-7.4454093 -0.86926633 4.483458
-7.4289484 -0.8636182 4.4755316
-7.3603687 -0.85105562 4.4438066
-7.74508 -1.5162253 4.6920981
-7.641582 -1.5299835 4.6480885
-7.5488858 -1.5091457 4.6047506
-7.5026627 -1.4962564 4.5828447
-7.4559393 -1.4932487 4.5618868
-7.4217281 -1.504589 4.5481424
-7.3530178 -1.4869541 4.5157599
-7.1908789 -1.5238655 4.4486303
-7.1666412 -1.5233154 4.4378781
-7.1439147 -1.5258676 4.4281588
-7.0613527 -1.4727355 4.3854709
-7.1597834 -1.4128833 4.4217954
-7.174541 -1.3676777 4.4229574
-7.6744652 -1.314597 4.6371188
-7.712286 -1.4930059 4.6748924
-7.7338834 -1.4999591 4.6852379
-7.84021 -1.4978253 4.7318692
-7.9232368 -1.5146744 4.770472
-7.9887257 -1.5293616 4.8010859
-7.9173765 -1.5204179 4.7685671
-7.8138285 -1.5264754 4.7236242
-7.7913527 -1.5368153 4.7149367
-7.7667274 -1.5308791 4.7033763
-1.7544127 -1.4850132 2.0468626
-1.8405151 -1.4394481 2.0794408
-1.9466352 -1.5221748 2.1360161
-1.971595 -1.5298474 2.1479294
-1.9249818 -1.5270469 2.1270444
-1.8905371 -1.5260484 2.1117382
-1.8620026 -1.5221888 2.0986996
0.19856381 -1.5248643 1.1904229
0.12910199 -1.5144852 1.2198244
0.09848547 -1.5128629 1.2331326
0.051864386 -1.5231183 1.2549026
0.18041229 -1.5288303 1.1988957
0.13983393 -1.5294871 1.2168661
0.10972595 -1.5232042 1.2293991
0.064685822 -1.528662 1.2499046
-7.6543255 -0.78785598 4.5659518
-7.7577486 -0.78426886 4.6111312
-7.8356876 -0.85031223 4.653307
-7.8700361 -0.851587 4.6686039
-7.8274164 -0.87742209 4.6528664
-7.7905273 -1.0313247 4.6547985
-7.8011732 -1.0978144 4.6673555
-7.9618149 -1.1360244 4.7427077
-7.9617424 -1.1988362 4.750103
-7.9543715 -1.1979349 4.7467461
-7.7974114 -1.1719276 4.6744604
-7.7272091 -1.1990234 4.6467094
-7.69168 -1.2720764 4.6396813
-7.5378504 -1.1434195 4.5566378
-7.5723238 -1.1422237 4.5716972
-7.6593599 -1.2731974 4.6255627
-7.6735134 -1.3121639 4.6364112
-7.6083431 -1.4482013 4.6237612
-7.4898057 -1.3812521 4.5635762
-7.3667727 -1.4615121 4.5188165
-7.2075052 -1.4722723 4.449861
-7.1883469 -1.3499362 4.4269471
-7.4380174 -1.1683463 4.5155649
-7.3859797 -0.77895468 4.4465737
-7.4450793 -0.7836951 4.4731936
-7.4916778 -0.78917313 4.4943886
-7.5390425 -0.79491389 4.5159531
-8.6807566 -1.5725856 5.1113434
-8.6460323 -1.5787222 5.0967574
-8.5680075 -1.5604054 5.0601873
-8.5878096 -1.5566887 5.0684791
-8.6219082 -1.5629044 5.0842495
-0.29155064 -1.5258532 1.4066526
-0.35224271 -1.5145389 1.4320765
-0.38582349 -1.5177399 1.4472622
-0.39953518 -1.5174552 1.4532746
-0.3740778 -1.5236131 1.4427775
-0.3272438 -1.5257514 1.4223793
0 0 0 1 0 0 0 1 0 0 0 1 0 0 0 0 0 403 1 0 0
