ply
format ascii 1.0
comment PCL generated
element vertex 407
property float x
property float y
property float z
element camera 1
property float view_px
property float view_py
property float view_pz
property float x_axisx
property float x_axisy
property float x_axisz
property float y_axisx
property float y_axisy
property float y_axisz
property float z_axisx
property float z_axisy
property float z_axisz
property float focal
property float scalex
property float scaley
property float centerx
property float centery
property int viewportx
property int viewporty
property float k1
property float k2
end_header
-6.787528 1.3462667 4.7614131
-6.705142 1.3757896 4.7292819
-6.6009226 1.3547037 4.6835632
-6.5891471 1.3519037 4.6783614
-6.6242704 1.3431959 4.6923962
-6.6591516 1.3444271 4.7071919
-6.7174029 1.3587124 4.7329626
0.43694663 -1.1569041 1.5018018
0.44663811 -1.0790957 1.5044746
0.40585423 -1.0769404 1.5218364
0.39820218 -1.0771486 1.5250407
0.38773298 -1.0786144 1.5293223
0.37594748 -1.0808282 1.5340931
0.35478139 -1.0850544 1.5426396
0.31691599 -1.0824354 1.5588126
0.270473 -1.1010829 1.5767516
0.22385764 -1.0992785 1.5965387
0.17739344 -1.0925033 1.6166936
0.14180684 -1.1133385 1.629871
0.072398186 -1.1165308 1.6588228
0.093300343 -1.1736679 1.6450609
0.17410207 -1.3247204 1.5979222
0.1461978 -1.4022563 1.6029426
0.14444113 -1.4118531 1.6028494
0.060272455 -1.4955032 1.6310328
-0.021627426 -1.5045925 1.6647329
-0.079761267 -1.5124183 1.6885346
-0.10330009 -1.5062258 1.6989847
-0.14999151 -1.5069066 1.718588
-0.28032589 -1.4006789 1.7826946
-0.39355636 -1.4795818 1.8235283
-0.50282121 -1.358819 1.8800241
-0.55356526 -1.3989947 1.8979057
-0.59009695 -1.4242296 1.9110991
-0.60140038 -1.4369602 1.914754
-0.63808131 -1.4671655 1.927579
-0.69710946 -1.4967377 1.9498696
-0.74382091 -1.4974242 1.9694809
-0.70959806 -1.5213032 1.9529963
-0.67425156 -1.5079033 1.9392745
-0.61602545 -1.5149596 1.9141423
-0.52262473 -1.5042958 1.8757356
-0.51103497 -1.5095534 1.8703986
-0.46388745 -1.5218846 1.8494737
-0.3712976 -1.5106295 1.8114598
-0.3480432 -1.5186594 1.8009701
-0.31239724 -1.4953184 1.7879852
-4.3638859 -1.540257 3.490222
-4.4353466 -1.5385284 3.5204651
-4.486197 -1.545446 3.5412786
-4.4294252 -1.5423864 3.5176368
1.0209358 -1.5296491 1.2235203
1.0559928 -1.5262114 1.2090555
1.0618083 -1.5275908 1.2064868
1.0676272 -1.5289683 1.203917
0.13282847 1.3803952 1.8501178
0.12180352 1.3812296 1.854833
0.074978352 1.3804567 1.8744847
0.11588407 1.3826184 1.8574463
0.14580774 1.3819621 1.8447881
0.18072295 1.3830276 1.8301773
0.1447382 1.3801026 1.845077
-4.5372772 -1.5426502 3.5630319
-4.6073222 -1.5498908 3.5919001
-4.6421404 -1.5460572 3.6068954
-4.5958233 -1.5430363 3.5876527
-3.3713682 -1.5371735 3.0725267
-3.4063907 -1.5407939 3.086961
-3.4376121 -1.5403384 3.1001482
-3.397584 -1.5380253 3.0834928
0.75155425 1.3840964 1.5898852
0.727947 1.3921373 1.6005245
0.7627914 1.3907175 1.5857277
0.77470183 1.390425 1.5806869
-1.840203 -1.5143592 2.4297123
-1.8753996 -1.5227886 2.4438024
-1.9102216 -1.5187918 2.4588134
-1.956858 -1.516993 2.4786088
-1.9332293 -1.5125967 2.4690402
-1.8619581 -1.3578972 2.4524553
-1.8016362 -1.394093 2.4239111
-1.8018609 -1.401549 2.4233584
-3.125777 -1.379029 2.9828324
-3.184597 -1.5244161 2.9949822
-3.1259832 -1.5215452 2.9705484
-3.0909607 -1.517925 2.9561143
-1.7013792 -0.77608854 2.4353366
-1.6294882 -0.70952457 2.4108405
-1.5933928 -0.67127204 2.3989606
-1.5452585 -0.62336552 2.382849
-1.4962255 -0.54563594 2.3689477
-1.4780765 -0.51813644 2.363692
-1.4809425 -0.63760221 2.3545289
-1.4529942 -0.67790985 2.3392606
-1.3482678 -0.7637471 2.2877078
-1.2472475 -0.79011887 2.2428775
-1.176255 -0.75337803 2.216171
-1.2222154 -0.76352841 2.2346444
-1.2583876 -0.76994973 2.2493196
-1.2698057 -0.76901221 2.2542093
-2.9311762 -0.78290784 2.9526291
-2.9896538 -0.78080946 2.977437
-3.0127447 -0.77983528 2.9872456
-3.0245404 -0.77946049 2.9922454
-3.0363362 -0.77908581 2.9972453
-3.1409957 -0.77503896 3.0416701
-3.1527913 -0.77466428 3.04667
-3.2227678 -0.7794202 3.0757251
-3.270129 -0.80254257 3.0936625
-3.2725856 -0.81255198 3.0938282
-3.2245338 -0.84402001 3.0708613
-3.1905303 -0.8776688 3.0536211
-3.1890666 -1.0130886 3.0412498
-3.1956239 -1.0640143 3.0395906
-3.1868279 -1.0942752 3.0332596
-3.1857297 -1.133958 3.0293527
-3.17698 -1.2131106 3.0187972
-3.1638606 -1.2921212 3.0064139
-2.8482282 -1.1493325 2.8858914
-2.8471415 -1.1095788 2.8888845
-2.9263082 -1.0367124 2.9285479
-2.9561355 -0.977346 2.9462619
-2.967581 -0.93151873 2.9550598
-2.2144113 -0.77736926 2.6512704
-2.2959447 -0.77405894 2.6858926
-2.3309913 -0.7775178 2.700351
-2.4299259 -0.78206611 2.7416189
-2.4359069 -0.78043872 2.7442787
-2.4648125 -0.78071719 2.756427
-2.4942827 -0.77835298 2.7690427
-2.4826183 -0.78112531 2.76389
-2.391742 -0.86425096 2.718405
-2.3736567 -0.84388208 2.7125573
-2.3321147 -0.81479681 2.697588
-2.2621713 -0.81284952 2.6683028
-2.2389169 -0.8208794 2.6578131
-2.2156096 -0.81713343 2.6483233
-2.10987 -0.78687465 2.6064215
0.44781017 1.3855567 1.7179228
0.48501587 1.3885863 1.7025179
0.49463511 1.3863294 1.6982712
-1.6933796 -0.80302042 2.42963
-1.6557912 -0.81268096 2.4129624
-1.597737 -0.81541711 2.3882775
-1.5277932 -0.81346989 2.3589923
-1.5170541 -0.80198282 2.3554671
-1.4797337 -0.76804864 2.3426967
-1.7166923 -0.80444372 2.4393239
-1.7369502 -0.79694426 2.4485056
-1.8415133 -0.77814817 2.4941702
-1.9230247 -0.78412849 2.5279768
-1.9582431 -0.78326732 2.5428824
-1.9111573 -0.77015442 2.5241923
-1.841553 -0.76199496 2.4955893
-1.8173602 -0.75635505 2.4858909
-1.7480155 -0.77428985 2.455132
-6.3667498 -0.77692693 4.3999157
-6.3080664 -0.77881855 4.3750391
-6.2614884 -0.91382921 4.3437052
-6.1393547 -1.0285037 4.2823186
-6.1480751 -1.0764742 4.281827
-6.188592 -1.1592412 4.2917047
-6.1897964 -1.1660528 4.2916203
-6.2286205 -1.1939734 4.3055463
-6.272788 -1.2152995 4.3222947
-6.3408494 -1.1945329 4.3527589
-6.3999858 -1.1660223 4.380137
-6.4268656 -1.0718898 4.3996277
-6.4044857 -0.88493794 4.4064312
-6.4732623 -0.84749222 4.4386444
-6.5203562 -0.85830724 4.4575377
-6.666091 -0.80174333 4.523818
-6.7394581 -0.77799314 4.5567756
-6.7861576 -0.7738983 4.5767975
-6.890439 -0.75997436 4.6219201
-6.9627976 -0.80170214 4.6487694
-6.9525876 -0.80175871 4.6444645
-6.8917518 -0.80967396 4.6181588
-6.8402796 -0.8023814 4.597116
-6.8272672 -0.8007654 4.5917768
-6.7998409 -0.79669696 4.5805802
-6.7403765 -0.81278276 4.554143
-6.6480274 -0.86073196 4.5110912
-3.1525695 -1.2524409 3.0051036
-3.0071528 -1.2140737 2.9471972
-2.9955394 -1.2120761 2.9424798
-2.9105918 -1.2534901 2.9031124
-2.9083927 -1.2540262 2.9021397
-2.4816077 -1.5272775 2.6986954
-2.4385731 -1.5303075 2.68031
-2.4267094 -1.5281978 2.6754971
-2.450233 -1.5249636 2.685684
-2.5040579 -1.5169355 2.7090473
-2.5091586 -1.5168839 2.7111998
-2.5399089 -1.5227064 2.7236435
-2.528244 -1.5254786 2.7184908
-2.5165794 -1.5282509 2.7133379
-5.3279657 -0.84716272 3.9563727
-5.37006 -0.86658484 3.9724133
-5.4444904 -0.84528476 4.0056057
-5.470891 -0.84700012 4.0165749
-5.5057387 -0.84567213 4.0313649
-5.5496569 -0.83900523 4.0504379
-5.5728416 -0.84302676 4.0598526
-5.6559715 -0.78217793 4.1001415
-5.6205587 -0.77928191 4.0854797
-5.6086416 -0.77956367 4.0804372
-5.5856457 -0.77812487 4.070878
-5.5737281 -0.77840674 4.065835
-5.5388803 -0.77973473 4.0510445
-5.5362225 -0.77975607 4.0499239
-5.4690523 -0.77742076 4.0218401
-5.4428825 -0.78565562 4.0101051
-5.3846865 -0.77799249 3.9862628
-5.2446427 -0.78559953 3.9266281
-6.2088461 -1.4745516 4.2728639
-6.176115 -1.4734669 4.2591743
-6.1271672 -1.4750044 4.2384281
-6.1161909 -1.4721577 4.2340531
-6.102129 -1.4671795 4.2285638
-6.1144915 -1.486676 4.2320771
-6.1400404 -1.5059013 4.2411671
-6.2333088 -1.4927417 4.2815866
-7.7123756 -0.95165169 4.9514103
-7.7298336 -0.9522962 4.9587064
-7.7295561 -1.0317184 4.9516954
-7.6968231 -1.0305098 4.9380159
-7.5987606 -1.1178161 4.889142
-7.592926 -1.1541889 4.8835278
-7.5537176 -1.1914035 4.8637857
-7.4843626 -1.208701 4.8330784
-7.4144716 -1.2036384 4.8040857
-7.3678207 -1.2101455 4.7838755
-7.3205748 -1.191808 4.7655711
-7.3467522 -1.1497934 4.780242
-7.3772936 -1.1079398 4.7967367
-7.4604607 -1.1073374 4.8318119
-7.5367479 -1.068397 4.8673177
-7.5571699 -1.0683348 4.8759227
-1.2408478 -0.3603515 2.2774882
-1.2298808 -0.29380471 2.2786462
-1.2724385 -0.32033885 2.2942648
-1.3038598 -0.3496899 2.3049488
-1.3130757 -0.41185778 2.3034334
-1.2773709 -0.41099453 2.2884727
-1.2547815 -0.40934306 2.2791033
-1.2472284 -0.39964604 2.2767642
-1.2471535 -0.39716071 2.2769485
-0.83612037 -1.4615185 2.011466
-0.85616636 -1.4744924 2.0187817
-0.8485868 -1.4953746 2.0137773
-0.77856803 -1.4909421 1.984676
-1.1638048 -1.5097581 2.1452711
-1.2336733 -1.5092201 2.1747406
-1.3146077 -1.4860277 2.2108364
-1.2880249 -1.3979563 2.2072868
-1.2484233 -1.4363909 2.1872737
-1.1432343 -1.4793874 2.139245
-1.1228306 -1.4801743 2.1305845
-1.1104481 -1.4784746 2.1255176
-1.1405723 -1.5084975 2.1355972
-2.3417952 -1.5258682 2.6399407
-2.3068981 -1.5273798 2.625114
-2.3495898 -1.5165064 2.6440358
-2.7480032 -1.4934038 2.8138187
-2.7065055 -1.5250847 2.7935934
-2.7647796 -1.5155325 2.8189626
-2.8346884 -1.5178038 2.8482049
-2.756742 -1.4936876 2.8174739
0.32169366 -1.330045 1.5353072
0.34733295 -1.5186679 1.5081369
0.46712446 -1.537044 1.4560959
0.33913827 -1.5269313 1.5108705
0.3044591 -1.5179422 1.5262547
0.25776792 -1.5186231 1.5458578
0.22278619 -1.5195755 1.5605063
0.20307827 -1.5174086 1.5689938
0.18632483 -1.5169042 1.5760927
0.16461229 -1.5125289 1.5856159
0.082864046 -1.5166475 1.6196837
0.04742837 -1.5325119 1.6332291
0.023832321 -1.5182546 1.6444033
-0.33746409 -0.77776492 1.8608277
-0.39576507 -0.7731939 1.8857758
-0.32061291 -0.91515899 1.8418051
-0.35497046 -0.96884286 1.8516135
-0.3871305 -0.99395603 1.8629767
-0.3992548 -1.0351858 1.8645034
-0.3385191 -1.0751613 1.8354567
-0.30764937 -1.1184847 1.8186965
-0.30281067 -1.1772052 1.8115616
-0.30176139 -1.2423525 1.8054646
-0.293468 -1.2570205 1.800699
-0.28448629 -1.3213331 1.7913342
-0.26195145 -1.2001584 1.7923628
-0.26054668 -1.0791847 1.8022722
-0.26664138 -1.0365266 1.8085417
-0.26229668 -0.99232233 1.8105493
-0.2535634 -0.92180926 1.8129923
-0.26695538 -0.87451506 1.8227372
-0.27918506 -0.77304536 1.8366952
-0.3257246 -0.77805197 1.855859
-4.8946609 -0.82271868 3.7760239
-4.9018588 -0.79033309 3.7818663
-4.9883404 -0.78284937 3.8189344
-5.058229 -0.7851634 3.8481646
-5.0699883 -0.78229892 3.8533654
-5.0671582 -0.90786481 3.8412738
-5.1594133 -1.0235635 3.8700805
-5.1951561 -1.1009276 3.878417
-5.1465015 -1.1455417 3.8540552
-5.1382341 -1.1626443 3.8490891
-5.127748 -1.2127151 3.8403268
-5.0936079 -1.2413727 3.8234622
-5.0855818 -1.1864957 3.824846
-5.0681448 -1.1528765 3.8204215
-5.0375738 -1.1054716 3.8116622
-4.9960451 -1.0685724 3.7973771
-4.9131246 -1.0219165 3.7665081
-4.9129906 -1.0169473 3.7668829
-4.9061375 -0.94686329 3.7700806
-4.9042149 -0.93839127 3.7700064
-4.8984847 -0.91794538 3.7693682
-6.4829955 -0.79271388 4.4474983
-6.47719 -0.79232401 4.445087
-6.436708 -0.7842108 4.4287438
-6.7349215 -1.5091403 4.4913988
-6.68855 -1.5256598 4.470437
-6.6062145 -1.5012629 4.4378824
-6.6443067 -1.4816754 4.4556236
-6.7000079 -1.5079832 4.4767966
0.40797973 -1.1768048 1.5122727
0.37138152 -1.2765428 1.5190271
-0.068096638 -1.5151906 1.6833818
-0.11524081 -1.520148 1.7028046
-5.7832088 -0.78534853 4.1534476
-5.7482958 -0.78419161 4.1388454
-5.7133818 -0.78303456 4.1242433
-5.6784687 -0.78187764 4.1096411
-4.782187 -1.5408862 3.6663198
-4.7868156 -1.5388558 3.6684453
-4.8103342 -1.5331267 3.6788464
-4.8452115 -1.5317993 3.6936491
-4.9100304 -1.5211823 3.7218668
-4.8868465 -1.5368392 3.7107446
-4.8636875 -1.5353289 3.7011232
-4.8401642 -1.538563 3.6909366
-5.9208093 -0.77776372 4.2120514
-5.9557538 -0.77892077 4.2266665
-6.0055132 -0.79249114 4.2464428
-6.0162334 -0.82941169 4.2477527
-6.0067606 -0.83970571 4.2428699
-5.9603233 -0.85374039 4.2220964
-5.9135571 -0.85535026 4.2022629
-5.8759818 -0.8490386 4.1869869
-5.8609829 -0.82900631 4.1824098
-6.7649679 -1.2414008 4.5272927
-6.6451845 -1.1220088 4.4872141
-6.7589383 -1.0977908 4.5372195
-6.8649778 -1.1166543 4.5802369
-6.9173484 -1.1183897 4.6021399
-6.9362869 -1.1186223 4.610095
-6.9803982 -1.1576366 4.6252847
-6.9014015 -1.1749656 4.5905137
-6.8182397 -1.240599 4.5497956
-6.8098392 -1.2527347 4.5452046
-7.4046946 -1.5108066 4.7733049
-7.3625164 -1.4862633 4.7576733
-7.397788 -1.502459 4.771121
-1.0129635 -0.75254285 2.1474791
-1.0711679 -0.75477719 2.1717958
-1.0065563 -0.75733089 2.1443653
-5.5636616 -1.3804491 4.009336
-5.5616574 -1.3884399 4.0077987
-5.4609723 -1.4564836 3.9594922
-5.3754702 -1.3484554 3.9328635
-5.3634109 -1.3058565 3.9314828
-5.3649521 -1.3630011 3.9271715
-5.2855153 -1.4455417 3.8865547
-5.2059441 -1.5231133 3.8463125
-5.2644072 -1.5185412 3.8713291
-5.3108425 -1.5068955 3.8918946
-5.3578143 -1.5151262 3.9109604
-5.4032464 -1.4883856 3.9324138
-5.449749 -1.4792244 3.9527919
-5.5203748 -1.5088686 3.97996
-5.5442948 -1.5180467 3.9892366
-5.6258755 -1.5150118 4.0238547
-5.69803 -1.5224011 4.0535984
-5.7348375 -1.5106144 4.0701218
-5.8008671 -1.4538076 4.1028585
-5.7755365 -1.4472079 4.0927644
-5.7171168 -1.3037809 4.0806131
-5.7023649 -1.3231511 4.0727196
-5.8509879 -0.77793419 4.1826339
-5.8160439 -0.77677715 4.1680188
-5.7949953 -0.78009683 4.1588669
-5.7462888 -0.77943218 4.1384134
-5.702107 -0.77385908 4.1202917
-5.6993847 -0.77368605 4.1191602
-5.6876249 -0.77655059 4.1139598
-6.5014734 -1.497792 4.3940759
-6.5367813 -1.5138588 4.4075499
-6.5834808 -1.5097642 4.4275713
-5.847764 -1.4571677 4.1223159
-5.8807707 -1.4655864 4.1354847
-5.8709564 -1.4660614 4.1313109
0 0 0 1 0 0 0 1 0 0 0 1 0 0 0 0 0 407 1 0 0
