ply
format ascii 1.0
comment PCL generated
element vertex 567
property float x
property float y
property float z
element camera 1
property float view_px
property float view_py
property float view_pz
property float x_axisx
property float x_axisy
property float x_axisz
property float y_axisx
property float y_axisy
property float y_axisz
property float z_axisx
property float z_axisy
property float z_axisz
property float focal
property float scalex
property float scaley
property float centerx
property float centery
property int viewportx
property int viewporty
property float k1
property float k2
end_header
0.27971506 1.4021605 -0.82503748
0.20744038 1.4214615 -0.76745081
0.16464281 1.4225496 -0.73156619
0.10581827 1.4019905 -0.67843747
0.044429302 1.4108933 -0.62823129
0.070987225 1.3906125 -0.64711595
0.087157249 1.3928124 -0.66112447
0.1388464 1.3864297 -0.70358968
0.15701056 1.3835255 -0.71839857
0.19916725 1.3898028 -0.75501394
0.2603426 1.383355 -0.80546355
0.30271292 1.3871771 -0.8418355
-8.2191877 1.3249768 6.3516731
-8.298192 1.3032938 6.4220047
-8.301239 1.2623414 6.4316401
-8.2951717 1.1834387 6.4401436
-8.2539616 1.0640507 6.4260149
-8.2619324 1.0252426 6.4394302
-8.1729183 0.86513531 6.3920374
-8.1341915 0.78533518 6.3731675
-8.0954638 0.70553505 6.3542976
-8.0428448 0.78100598 6.2969217
-8.0593872 0.92516148 6.2859859
-8.1916885 1.0213039 6.3809042
-8.0781708 1.0938888 6.2726974
-8.1521053 1.3286425 6.2944984
-8.1031017 1.3468543 6.2500525
-7.9989057 1.3255965 6.1658988
-7.9918966 1.3208803 6.1608047
-8.089201 1.2519675 6.2547126
-8.0466156 1.0927187 6.2463036
-8.3619671 0.58186448 6.6002669
-8.360321 0.50187004 6.6126862
-8.3485632 0.47210968 6.6079116
-8.3262854 0.46111202 6.591033
-8.2784443 0.34336126 6.5710306
-8.3295689 0.1839388 6.6416364
-8.3133087 0.15778774 6.6324449
-8.2397461 0.28867865 6.5478516
-8.113512 0.17231721 6.4615369
-8.0105553 0.17701292 6.3739471
-7.9994397 0.25119829 6.3517756
-8.0357475 0.34164572 6.3667679
-8.0379658 0.33216798 6.3702736
-8.0272293 0.24827266 6.3757038
-8.3187571 0.57461226 6.5650988
-8.2860966 0.57371509 6.5377254
-8.2714252 0.57285714 6.5255075
-8.2578602 0.57172644 6.5142689
-8.2440529 0.49473357 6.5159197
-8.2237911 0.38415873 6.5179253
-8.2275448 0.34080672 6.5285707
-8.2344589 0.30505919 6.5405679
0.51873302 -1.5213596 -0.52193594
0.56800079 -1.517728 -0.56408858
0.57392263 -1.4590625 -0.5792048
0.57023191 -1.3395414 -0.59672165
0.54696369 -1.2651587 -0.58994722
0.53822851 -1.2548348 -0.58436656
0.55084181 -1.3996894 -0.56999779
0.54969406 -1.4250777 -0.56464887
0.54856825 -1.4625568 -0.55723166
-7.4478865 -1.3482802 6.1629419
-7.4487219 -1.3886867 6.17062
-7.4094286 -1.3879468 6.137373
-7.3314075 -1.4670069 6.0852566
-7.2965364 -1.4673585 6.0559258
-7.24299 -1.4268337 6.0037994
-7.1301298 -1.359436 5.8970423
-7.1359272 -1.3206668 5.8952379
-7.1401978 -1.2971258 5.8947744
-7.2712598 -1.2780355 6.0019464
-7.3066711 -1.1974168 6.01788
-7.3049707 -1.0808755 5.9963331
-7.3926888 -0.99972928 6.056263
-7.4839745 -0.91778398 6.1190605
-7.5025215 -0.7989617 6.1141863
-7.4941196 -0.72208631 6.0938368
-7.5190792 -0.64224744 6.1010957
-7.6245036 -0.52079195 6.168992
-7.6542883 -0.44438371 6.1809092
-7.6596689 -0.38541025 6.1752663
-7.6599045 -0.36592916 6.1721025
-7.6663709 -0.34574431 6.1740694
-7.686152 -0.32604843 6.1873426
-7.7195001 -0.30521986 6.2118559
-7.7593336 -0.22569257 6.2317047
-7.7772284 -0.10614902 6.2261558
-7.7983317 -0.10575885 6.2438755
-7.8979578 -0.0230726 6.3135757
-7.9319935 0.017685473 6.3352289
-4.7683411 -0.81473607 3.812376
-4.8040137 -0.78491116 3.8372958
-4.8289938 -0.7819925 3.8578467
-4.8470545 -0.78141892 3.8729706
-4.8648973 -0.78330225 3.8883345
-4.8992448 -0.77928895 3.9165919
-4.9418492 -0.7807104 3.9527469
-4.9927101 -0.78756654 3.9967988
-5.0252643 -0.77493209 4.0220571
-5.0494523 -0.78313166 4.0438595
-5.0993228 -0.77725708 4.0848789
-5.145503 -0.78891218 4.125814
-5.1704826 -0.78599352 4.1463652
-5.0835037 -0.91973877 4.0961366
-5.1428871 -0.9966113 4.1594553
-5.2303371 -1.0754875 4.2467766
-5.276773 -1.1202698 4.2936444
-5.3049655 -1.1210167 4.3175359
-5.288619 -1.1771985 4.3134542
-5.1770039 -1.3134184 4.2428875
-5.2435732 -1.4773375 4.3272867
-5.2979116 -1.44186 4.3669634
-5.3067245 -1.4343129 4.3730888
-5.3331075 -1.43242 4.3949995
-5.3985586 -1.4291904 4.4496078
-5.4101191 -1.4286423 4.4592571
-5.4887514 -1.3935148 4.5194707
-5.5528197 -1.3535938 4.5665817
-5.5668454 -1.3519415 4.5781183
-5.6457191 -1.3102765 4.6374073
-5.6332636 -1.4956555 4.6589026
-5.6568747 -1.5074553 4.68084
-5.6257882 -1.5054754 4.6542969
-5.5902066 -1.499079 4.6232023
-5.5228767 -1.4980712 4.5662789
-5.4564295 -1.4872385 4.5084038
-5.4147019 -1.5135975 4.4777822
-5.4129453 -1.512584 4.4761267
-5.3191223 -1.5146968 4.3974113
-5.3157845 -1.5175203 4.3950858
-5.2749615 -1.5304012 4.3629007
-5.231091 -1.520988 4.3242993
-5.2078528 -1.5269371 4.3057394
-5.0865989 -1.5224752 4.2027693
-5.0544095 -1.532776 4.1774158
-5.0115733 -1.5337431 4.1414781
-4.9802976 -1.5351887 4.1153665
-5.0124149 -1.527468 4.1411042
-5.0556746 -1.5215187 4.1765394
-5.1252575 -1.3940251 4.2131844
-5.127326 -1.390527 4.2143245
-5.1536274 -1.3161721 4.22366
-5.0896912 -1.2134786 4.1520472
-5.0470757 -1.2119896 4.1158714
-5.012598 -1.1933124 4.0835876
-5.0029368 -1.1917861 4.0751815
-4.9907527 -1.1618632 4.0597477
-4.9556589 -1.1289587 4.0244899
-4.9452963 -1.1186144 4.0139699
-4.9239044 -1.0809686 3.9894423
-4.8569655 -1.0625396 3.9298415
-4.8587217 -1.0554402 3.9300969
-4.8809252 -0.88111484 3.9187248
-4.8696904 -0.87314093 3.9078796
-4.7860231 -0.85939032 3.8349867
-5.6678324 -0.78188664 4.5648527
-5.7283487 -0.78534573 4.6164565
-5.838294 -0.78784263 4.7095556
-5.8736548 -0.79669505 4.7408876
-5.8983693 -0.79621404 4.7616358
-5.9296761 -0.79573786 4.787941
-6.0073977 -0.83199561 4.8597064
-5.9672155 -0.85371876 4.8295879
-5.9462786 -1.013365 4.8394938
-5.9650893 -1.0395297 4.8598642
-5.9434099 -1.0452952 4.8425865
-5.8597918 -1.1101723 4.7833052
-5.8359046 -1.1162405 4.7642193
-5.7544384 -1.1719677 4.7051716
-5.7204828 -1.2019179 4.6817217
0.68939352 -1.1103277 -0.73671746
0.70541477 -1.1341649 -0.7461071
0.70506191 -1.066777 -0.75744009
-0.78527975 -1.5184557 0.57666373
-0.81755686 -1.5102401 0.60245109
-0.85312033 -1.5142527 0.63311839
-0.80284762 -1.522917 0.59224081
-7.7045755 -0.8754825 6.2976961
-7.7981339 -0.87169921 6.3758998
-7.777339 -0.7549243 6.3382187
-7.8727446 -0.67231619 6.4043751
-7.8769646 -0.67223811 6.4079189
-7.8803434 -0.62282145 6.4022379
-7.9238586 -0.43309236 6.4061708
-7.960238 -0.4353528 6.4372234
-7.9701462 -0.41517767 6.4420929
-8.0603352 -0.31370252 6.500596
-8.0703344 -0.31337094 6.5089669
-8.0721283 -0.29371253 6.5070858
-8.0735035 -0.25385177 6.5013666
-8.007618 -0.17510623 6.4322433
-8.0100994 -0.13551843 6.4275022
-7.9904103 -0.019016325 6.3908005
-7.9666634 0.019206583 6.3641882
-7.6813536 -1.0556772 6.3092227
-7.6800089 -1.0704203 6.3106337
-7.5753622 -1.189555 6.2429919
-7.5727611 -1.2366508 6.2489281
-7.4514732 -1.3089652 6.1591797
-5.5152717 -0.77790082 4.4355774
-5.6181831 -0.78530502 4.5235949
-5.6431179 -0.78236783 4.5441046
-5.6109285 -0.79266864 4.5187511
-5.6620946 -0.84574711 4.5710378
-5.6756358 -1.0240705 4.6132274
-5.6736102 -1.0319637 4.6128826
-5.7014251 -1.0849987 4.6454797
-5.7091632 -1.1120502 4.6566706
-5.6947899 -1.2008657 4.659884
0.79577398 -0.6173892 -0.91145587
0.81044626 -0.69692159 -0.91009641
0.79419231 -0.75365013 -0.88660598
0.70959997 -0.83417553 -0.80140901
0.69707441 -0.78714347 -0.79896855
0.71309137 -0.70808804 -0.82611275
0.70590162 -0.66502744 -0.82748437
0.70248127 -0.62574476 -0.83138108
0.66109705 -0.49853498 -0.81845474
0.64621496 -0.4699809 -0.81083894
0.51591539 -0.46051669 -0.70264816
0.50509882 -0.50342429 -0.68612623
0.51492023 -0.58359987 -0.68056679
0.51834059 -0.62288249 -0.67667031
0.53144693 -0.70222151 -0.67402434
0.52752399 -0.72050601 -0.66756201
0.51890612 -0.79164374 -0.64802098
0.52589989 -0.86898577 -0.64056754
0.52753162 -0.92629111 -0.63205266
0.5263052 -0.98934335 -0.62013698
0.55225325 -1.0222982 -0.63631988
0.54726601 -0.98282212 -0.63892961
0.54465294 -0.90436471 -0.65026808
0.54170847 -0.82006955 -0.6623342
0.76414251 -0.36088461 -0.92906404
0.76756287 -0.40016732 -0.92516732
0.78494453 -0.52861637 -0.91764951
0.78799057 -0.53787935 -0.91861796
0.79250622 -0.5768832 -0.91569257
-3.8126097 -1.5348319 3.1311069
-3.7945733 -1.5353963 3.1160021
-3.7623968 -1.5431554 3.0902209
-3.8047776 -1.5470276 3.1266103
-2.0097551 -0.84040761 1.4917039
-2.0076971 -0.79973334 1.4829493
-2.0655973 -0.75539804 1.5240993
-2.0995355 -0.67720753 1.5392098
-2.1734653 -0.72018111 1.6089389
-2.2047372 -0.74479705 1.6395453
-2.1900935 -0.79586554 1.6360166
-2.1708953 -0.91440833 1.640294
-2.1711357 -0.92450744 1.6422395
-2.2017994 -1.0019506 1.6814505
-2.2187228 -1.038734 1.7020627
-2.1695766 -1.0770425 1.6672509
-2.1595666 -1.0815737 1.6595958
-2.1317484 -1.0920975 1.6379653
-2.0966229 -1.1116784 1.6117388
-2.0401623 -1.2000642 1.5794046
-1.9807165 -1.3148936 1.549118
-1.9727305 -1.3146381 1.5423429
-2.007175 -1.1785469 1.5478872
-2.0020936 -1.1596934 1.5403506
-1.9299145 -1.084973 1.4666178
-1.8864677 -1.0934318 1.4314582
-1.8376167 -1.1067351 1.3925796
-1.823976 -1.1146358 1.3824458
-1.7985034 -1.1226265 1.3623552
-1.713361 -1.1136009 1.2890342
-1.7042758 -1.1130676 1.2812848
-1.5970335 -1.1325177 1.1942512
-1.5796795 -1.1256013 1.1784304
-1.5353947 -1.0655223 1.1307358
-1.5188959 -1.0487853 1.113941
-1.5181971 -1.0310419 1.1102898
-1.5400603 -0.98698235 1.1211133
-1.5719333 -0.90531397 1.1338829
-1.5753553 -0.866032 1.1299876
-1.5074987 -0.76734453 1.0557621
-1.6025865 -0.78454036 1.1388755
-1.6774611 -0.77768153 1.2008005
-1.7119555 -0.79396957 1.2326856
-1.7427356 -0.80293989 1.260177
-1.8377838 -0.7956084 1.3390241
-1.832166 -0.83433259 1.3409724
-1.8558419 -0.91118598 1.3741918
-1.9224675 -0.95879531 1.4385645
-3.5672221 -1.5379694 2.9248209
-3.6422153 -1.5291693 2.9865108
-3.7197981 -1.5417397 3.0540719
-3.6522019 -1.5432575 2.9973595
-1.7179899 -1.4992958 1.3595015
-1.7640378 -1.5179417 1.4015316
-1.7878532 -1.5242701 1.4226968
-1.8194697 -1.5212014 1.4488155
-1.8327076 -1.5158689 1.4590528
-1.8427913 -1.5159125 1.4675596
-1.8742633 -1.5175868 1.4943749
-1.9119122 -1.5188038 1.5263177
-1.8618531 -1.5250131 1.4851967
-1.8372514 -1.5232074 1.4641491
-1.8171048 -1.5263586 1.4477124
-1.812222 -1.5263121 1.4435887
-0.99876022 -0.77311265 0.62796187
-0.95552111 -0.77912128 0.59255433
-0.92272544 -0.82512063 0.57285094
-0.91875291 -0.83889431 0.57187986
-0.93816447 -0.87451386 0.59438872
-0.98167491 -0.89115894 0.6339345
-0.99987292 -0.91318762 0.65307474
-1.0039241 -0.91997087 0.65766001
-1.0343554 -0.95440835 0.68925285
-1.0424583 -0.96797478 0.69842386
-1.0886676 -1.0059577 0.74392724
-1.1026001 -1.0236583 0.75872517
-1.1229663 -1.0252823 0.77617121
-1.1171191 -0.96357113 0.76059246
-1.042419 -0.94344747 0.6941576
-1.0668149 -0.7664544 0.68417335
-3.9999523 -1.5522137 3.2920105
-3.9607854 -1.5375149 3.2564614
-3.9952857 -1.5414845 3.2862253
-4.0251679 -1.5468235 3.3123331
-6.2971201 -0.838548 5.1050334
-6.3063297 -0.83339506 5.1119065
-6.2942104 -0.81944942 5.0992846
-5.9799619 1.3608168 4.4581323
-6.0118127 1.3659576 4.4840908
-6.0642529 1.347838 4.5314178
-6.0223312 1.3567845 4.4945397
0.66244745 -0.24499655 -0.86334991
0.65490866 -0.23744059 -0.85829997
0.63082266 -0.29320207 -0.82837534
0.49710321 -0.24445528 -0.72408152
0.49689293 -0.34489939 -0.70656896
0.48778629 -0.40744156 -0.68809938
0.48258066 -0.48908091 -0.66962218
0.48115826 -0.50833535 -0.66509986
0.50679541 -0.58922172 -0.67274857
0.51833582 -0.66836733 -0.66881609
-1.2261775 -1.5168905 0.94800901
-1.1717157 -1.5100117 0.90091801
-1.1587644 -1.5161834 0.89106703
-1.3438635 -1.5089335 1.0458283
-1.3792207 -1.3140572 1.0419967
-1.3833807 -1.5069985 1.0788021
-1.4042428 -1.5122962 1.0973003
-1.3917279 -1.5138485 1.0870197
-1.3729558 -1.5161771 1.0715995
-2.4811544 -1.5121417 2.0049598
-2.531033 -1.4948058 2.0440087
-2.5803375 -1.5167425 2.0893514
-2.6163471 -1.5091064 2.1183844
-2.6522026 -1.510434 2.1488347
-2.6772001 -1.5075006 2.1693978
-2.7191234 -1.4911757 2.2019157
-2.746103 -1.4912426 2.2246675
-2.805253 -1.3059468 2.2425432
-2.8019414 -1.2925761 2.2374444
-2.7570839 -1.1390374 2.1731369
-2.8718634 -1.0998995 2.2631254
-2.9626591 -1.052325 2.3314428
-3.0425069 -0.97600782 2.3855722
-3.0598345 -0.92003614 2.3905168
-3.0953748 -0.89962351 2.4169495
-3.132004 -0.86692715 2.4421799
-3.1796117 -0.81183797 2.4727988
-3.189677 -0.82038158 2.4827571
-3.2635229 -0.81813055 2.5446103
-3.2791462 -0.81629723 2.5574622
-3.2439525 -0.85972673 2.5352941
-3.2428524 -0.85945493 2.5343199
-3.1456947 -1.0200367 2.4801438
-3.1406479 -1.0595276 2.4827056
-3.0932472 -1.2279785 2.4718258
-3.1076019 -1.2578993 2.4890888
-3.0880206 -1.2869401 2.4775965
-3.0743775 -1.2553837 2.4606512
-2.9787278 -1.1501176 2.3618641
-2.9304748 -1.1363305 2.3188143
-2.8863516 -1.1521119 2.2843482
-2.8118424 -1.2950222 2.2462115
-3.0427694 -1.5183493 2.4793942
-3.0677669 -1.5154159 2.4999573
-3.1344922 -1.5237252 2.5576315
-3.0581574 -1.4906797 2.4875889
-3.0125761 -1.4531465 2.4426923
-2.9690483 -1.4558232 2.4064665
-2.924983 -1.4773393 2.3730392
-2.8999858 -1.4802725 2.3524759
-2.8393502 -1.4794215 2.3012218
-3.0182073 -1.5163691 2.4583502
-2.9769154 -1.5002131 2.4207582
-2.9343166 -1.4987974 2.3846092
-2.8919356 -1.4949251 2.3482196
-2.8499904 -1.4861393 2.3113494
-2.7619619 -1.5152456 2.242177
-2.713491 -1.5039151 2.1993673
-2.68329 -1.5149589 2.175818
-3.3046691 -1.5318444 2.7024682
-3.3370633 -1.5216289 2.728009
-3.3540111 -1.5333478 2.7443161
-3.389431 -1.5395892 2.7752473
-3.3466144 -1.5406303 2.7393386
-2.672112 -0.35735747 1.9666102
-2.71136 -0.40413487 2.0077639
-2.7401114 -0.44286704 2.038682
-2.7282417 -0.48636588 2.0361848
-2.7183495 -0.53604698 2.0364213
-2.7143321 -0.55607098 2.0364909
-2.6876674 -0.57774442 2.0177569
-2.6666408 -0.76428235 2.0322285
-2.6503706 -0.80669391 2.0258346
-2.6261773 -0.85284156 2.0134077
-2.6163621 -0.92356563 2.0173407
-2.61184 -0.96257401 2.0202615
-2.6087255 -0.97359031 2.0195377
-2.6001387 -1.0070823 2.0180805
-2.5924501 -1.1635797 2.0386095
-2.5535026 -1.1653436 2.0060866
-2.5106299 -1.1565564 1.9684342
-2.4849906 -1.1264665 1.941631
-2.4667592 -1.1123612 1.9238298
-2.455569 -1.0911893 1.9107441
-2.4817305 -0.99392575 1.9160081
-2.4846277 -0.96570224 1.9135792
-2.4882765 -0.9501307 1.9139671
-2.496407 -0.9143914 1.9146519
-2.5143943 -0.88360989 1.9245001
-2.5315676 -0.81662583 1.9274144
-2.5282679 -0.78727829 1.9195682
-2.5002327 -0.72165978 1.8846138
-2.5003538 -0.70638132 1.8820789
-2.4923513 -0.64398402 1.8645649
-2.4931169 -0.62954187 1.8627176
-2.5005231 -0.60412633 1.8645735
-2.5090642 -0.58871585 1.869113
-2.520663 -0.58000231 1.8773854
-2.5871892 -0.54445386 1.9273225
-2.6222048 -0.42851099 1.9368255
-2.6146648 -0.35545811 1.9178624
-2.647193 -0.32103822 1.9393386
-1.7443812 -1.5305152 1.3871337
-1.7096727 -1.5166823 1.3554921
-1.6848571 -1.5173318 1.3346881
-1.6645031 -1.5228956 1.3184927
-1.6178718 -1.5117145 1.2772592
-1.643115 -1.5061545 1.2975763
-1.6501489 -1.5034988 1.3030465
-0.57394052 -1.0804691 0.32294369
-0.53027415 -1.091388 0.28802347
-0.50460291 -1.101858 0.26819324
-0.48419738 -1.1042044 0.25139928
-0.44269776 -1.1031265 0.21623468
-0.3774519 -1.0904225 0.15904903
-0.35274863 -0.94806314 0.11365843
-0.36031175 -1.081051 0.14298487
-0.35547233 -1.1010801 0.14236259
-0.36648965 -1.1452113 0.15926528
-0.36684966 -1.1518072 0.160707
-0.41384721 -1.1629777 0.20224738
-0.43162942 -1.164984 0.21758127
-0.46655154 -1.1763617 0.24897957
-0.53396463 -1.1770689 0.30592132
-0.58402348 -1.1708596 0.34704232
-0.64803839 -1.1324855 0.39437509
-0.68530178 -1.1132919 0.42247033
-0.69277453 -1.109291 0.42807841
-0.67734528 -1.0802784 0.4100666
-0.63453388 -1.0813769 0.37417197
-0.28038049 -1.5353122 0.1540134
-0.23779678 -1.5339453 0.11788511
-0.21509218 -1.5331364 0.098608971
-0.19752431 -1.5286751 0.083031654
-0.22759891 -1.5243831 0.10763955
-0.26536536 -1.524472 0.13948679
-0.27039695 -1.5232947 0.14352441
-0.3060832 -1.524852 0.17387176
-0.3334198 -1.5178139 0.19569802
-0.38526845 -1.5410182 0.24340391
-0.32339239 -1.5317686 0.18965483
-4.6351562 -1.5401644 3.8253191
-4.5937438 -1.5506623 3.7922258
-4.5407224 -1.5400721 3.7457089
-4.6013579 -1.5409231 3.7969627
-4.6789412 -1.5534935 3.8645241
-4.7369862 -1.5329744 3.9099066
-4.7494335 -1.5261981 3.9192283
-4.8058891 -1.5167162 3.9651763
-4.8478346 -1.5255021 4.0020466
-4.8654351 -1.529851 4.0176325
-4.9086618 -1.5263391 4.0534601
-4.9687371 -1.5347104 4.1055403
-4.8981204 -1.5395522 4.0468554
-4.8779478 -1.5362245 4.0292783
-4.852994 -1.5390735 4.0087376
-4.8323879 -1.547437 3.9928131
-4.80826 -1.5454566 3.9721346
-4.8020878 -1.5416756 3.96628
-4.7846818 -1.5348785 3.9504361
-4.6865554 -1.5437543 3.869261
-6.7490001 1.3364295 5.1105332
-6.7969136 1.3199703 5.153758
-6.8962002 1.3469552 5.2327857
-6.9097505 1.3491274 5.2438316
-7.0061264 1.3441731 5.3259182
-6.9543581 1.3696636 5.2778854
-6.9048777 1.3689245 5.2363081
-6.8796902 1.3636414 5.2159901
-6.8616133 1.3631297 5.2008419
-6.8116856 1.3574773 5.1597357
-6.768868 1.3565961 5.1237984
-6.7037597 1.3483282 5.0703483
-6.6894493 1.3497776 5.0580363
-6.7059593 1.3330916 5.074832
-7.7979612 0.4973371 6.1394768
-7.6983347 0.41465092 6.0697765
-7.6582317 0.29498994 6.0566273
-7.689786 0.29616022 6.0830212
-7.75315 0.32607532 6.1312652
-7.7858253 0.33953142 6.1564837
-7.8599644 0.49995017 6.1912861
-7.8026533 0.53637934 6.136694
-7.3281159 -0.47910455 5.9119835
-7.2907639 -0.51904392 5.887394
-7.2976665 -0.48054758 5.8865681
0.75744534 -0.30177394 -0.93362117
-2.478457 -1.5242293 2.0047727
-2.5157032 -1.5282099 2.0368528
-2.5390222 -1.5251238 2.055975
-2.5828638 -1.5316057 2.0940459
-2.6011181 -1.5285845 2.1089103
-2.626987 -1.5158241 2.1285119
-2.4707308 -1.513721 1.9964466
-6.5364819 1.3492216 4.9292021
-6.5519247 1.3579293 4.9407158
-6.5797472 1.3550166 4.9646683
-7.3223286 1.4253925 5.5784154
-7.3387318 1.3348268 5.6078711
-7.3520136 1.3441111 5.6174636
-7.3787327 1.4229559 5.6263766
-7.4722118 1.4596802 5.6988287
-7.4460526 1.4996184 5.6698866
-7.4405403 1.5135416 5.6628375
-7.3961949 1.580567 5.6138935
-7.3832626 1.5401992 5.6099601
-7.2912111 1.480811 5.542623
-7.1829386 1.3352712 5.4764829
-7.1791964 1.3344363 5.4734726
-7.1229401 1.343706 5.4244566
-7.0906415 1.3336514 5.3989687
-7.0538511 1.350376 5.3650732
-7.084866 1.3638359 5.3888912
-7.1265793 1.3524486 5.4260149
-7.1640015 1.3500508 5.4579701
-1.0380056 -1.5094577 0.78812361
-0.96641445 -1.50518 0.72704387
-0.87851024 -1.5177438 0.65512109
-0.97116661 -1.5128911 0.73238015
-0.86739445 -1.5178773 0.64577532
-0.31743693 -0.77737278 0.054436684
-0.34615827 -0.75316346 0.074466467
-0.34621334 -0.82358581 0.086666822
-0.35046649 -0.90984225 0.1051383
-0.3271482 -0.86480808 0.077712059
-0.31487131 -0.80683476 0.05735898
-0.30810857 -0.79552591 0.049707174
0 0 0 1 0 0 0 1 0 0 0 1 0 0 0 0 0 567 1 0 0
