ply
format ascii 1.0
comment PCL generated
element vertex 570
property float x
property float y
property float z
element camera 1
property float view_px
property float view_py
property float view_pz
property float x_axisx
property float x_axisy
property float x_axisz
property float y_axisx
property float y_axisy
property float y_axisz
property float z_axisx
property float z_axisy
property float z_axisz
property float focal
property float scalex
property float scaley
property float centerx
property float centery
property int viewportx
property int viewporty
property float k1
property float k2
end_header
-0.86035252 -0.27879074 -4.2601533
-0.87319326 -0.28073028 -4.2441654
-0.87797451 -0.32119691 -4.24646
-0.88095665 -0.34111178 -4.2467852
-0.88586283 -0.38072187 -4.2487426
-0.89096594 -0.40111613 -4.2464604
-0.90183735 -0.48056936 -4.2490702
-0.9125843 -0.56087911 -4.252017
-0.91699219 -0.5826382 -4.250906
-0.91867495 -0.59986567 -4.2523327
-0.92252111 -0.63924283 -4.2555943
-0.92175436 -0.67274392 -4.2635245
-0.94239473 -0.7959702 -4.2627482
-0.94460297 -0.8823579 -4.2778549
-0.95393372 -0.91410148 -4.272532
-0.95541143 -0.95472574 -4.2790756
-0.9665947 -1.0320375 -4.2808433
-0.97185659 -1.1124673 -4.2908163
-0.98534608 -1.1889602 -4.2894702
-0.991436 -1.2279468 -4.2897863
-0.98830175 -1.2702086 -4.302557
-0.9902792 -1.3149202 -4.3093104
-0.99811387 -1.3494287 -4.3064709
-1.0002155 -1.3932838 -4.3128881
-1.0068665 -1.428416 -4.3116889
-1.0778794 -1.5332875 -4.2428055
-1.0245769 -1.5141892 -4.306881
-0.95220137 -1.4283292 -4.3814483
-0.9494772 -1.3887568 -4.3767142
-0.94466972 -1.269454 -4.3580942
-0.93365479 -1.2267327 -4.3632898
-0.92800188 -1.1922619 -4.3633528
-0.92527676 -1.1526896 -4.3586192
-0.91534042 -1.0743258 -4.3550415
-0.91261625 -1.0347536 -4.3503079
-0.90764761 -0.99557161 -4.3485193
-0.91694403 -0.93888956 -4.3248911
-0.91902781 -0.91349781 -4.3169627
-0.9168191 -0.82711011 -4.3018556
-0.91185141 -0.78792834 -4.3000669
-0.90143394 -0.66960168 -4.2888107
-0.88989449 -0.55147028 -4.279027
-0.88781166 -0.47173977 -4.265141
-0.86473131 -0.37563354 -4.2746596
-0.85784101 -0.31676987 -4.2712407
-0.85399437 -0.27739275 -4.2679791
-4.0595231 1.3727918 0.1661486
-4.0236969 1.3616159 0.11809915
-4.026053 1.3586788 0.12049711
-9.0322971 -1.3695054 5.9446187
-9.0241928 -1.4759781 5.9121804
-9.0192728 -1.4843528 5.9041629
-9.010602 -1.4058619 5.9093823
-9.0013218 -1.237448 5.9324832
-1.3074281 -1.5559349 -3.9544971
-1.3415778 -1.5658522 -3.9129646
-1.3760028 -1.5615337 -3.8681266
-1.342334 -1.5565386 -3.9100668
-3.2548227 -1.4862247 -1.4542747
-3.2060785 -1.4391441 -1.5067246
-3.1715713 -1.4000828 -1.542666
-3.1160409 -1.2407789 -1.5804915
-3.1483054 -1.4020555 -1.5727732
-3.1457887 -1.439991 -1.5838575
-3.2199154 -1.4855757 -1.4986975
-3.0795474 -0.44087255 -1.4610891
-3.0748982 -0.376295 -1.4536233
-3.0631571 -0.28317127 -1.4492867
-3.0644886 -0.25841683 -1.4424503
-3.0460258 -0.10021934 -1.4331903
-3.046335 0.01036793 -1.4098482
-3.0566077 -0.095443472 -1.4186919
-3.0708399 -0.2526933 -1.4331553
-3.0737889 -0.27790231 -1.4346223
-3.0804982 -0.34151652 -1.4392586
-3.0844226 -0.37128222 -1.4404256
-0.64633274 1.0205443 -4.263721
-0.63785553 1.0224082 -4.2741551
-0.64064217 0.98326415 -4.2787209
-0.633955 0.93913168 -4.2964139
-0.65906906 0.8636182 -4.2800269
-0.69910622 0.83283454 -4.2353086
-0.68043518 0.90717489 -4.2437153
-0.67409563 0.94444841 -4.2440734
-0.66700697 0.99160987 -4.2433352
-2.949688 1.3365018 -1.2580338
-2.9617362 1.3794646 -1.2337401
-2.9692421 1.3874121 -1.2225099
-3.0217664 1.4115286 -1.1504607
-2.9736171 1.3069186 -1.2336283
-2.9618049 1.1797259 -1.2750993
-2.951395 1.2976038 -1.2639265
-1.6392896 -1.5557828 -3.5308597
-1.6210985 -1.5564461 -3.5542176
-1.6048648 -1.560101 -3.5756977
-1.5881505 -1.5588343 -3.5967696
-1.604109 -1.5694146 -3.5785949
-6.0125351 1.4266152 2.6702454
-5.9943371 1.4258721 2.6468623
-5.9352069 1.4129386 2.5687015
-5.8581715 1.3922222 2.4660707
-5.802515 1.3686142 2.3901291
-5.8406191 1.3670537 2.4384429
-5.8901372 1.3688469 2.5020225
-5.9178867 1.363682 2.5363717
-5.9754267 1.4029627 2.6179702
-5.9799175 1.4037631 2.6238682
-6.0146532 1.4016023 2.6677585
-6.0302019 1.4152277 2.690433
-6.0479288 1.4208889 2.7142355
-6.1002235 1.3941033 2.7754288
-6.1203032 1.3751748 2.797132
-6.1549916 1.3768253 2.8417523
-6.109766 1.4163592 2.792228
-6.063714 1.4291728 2.7361033
-7.1027293 -1.0735376 3.5430315
-7.1305704 -1.130506 3.5667484
-7.2051783 -1.1420923 3.6595776
-7.2236729 -1.165704 3.6782856
-7.2477112 -1.1770377 3.7066171
-7.2370701 -1.1157345 3.7057557
-7.2518673 -1.0330915 3.7417922
-7.2493248 -1.0222158 3.7408032
-7.2137551 -0.98295492 3.703547
-7.2059593 -0.96674687 3.696959
-7.1900897 -0.94457698 3.681303
-7.0823851 -0.91269052 3.5504398
-7.0844722 -0.95668662 3.5439744
-7.0691137 -1.0276213 3.5096507
-7.0664158 -1.0318155 3.505337
-7.365623 1.3613596 4.3838573
-7.4198804 1.3684754 4.4545908
-7.4539394 1.3580191 4.4958959
-7.4377346 1.3546405 4.4745102
-7.4010134 1.3556347 4.4278431
-8.7676325 1.3114915 6.1631088
-8.7868185 1.3023877 6.1857095
-8.7842655 1.2212782 6.1656199
-8.7783194 1.1828341 6.150053
-8.7397957 1.2168944 6.1079459
-8.6202707 1.2158234 5.9551568
-8.6018372 1.2595663 5.9407039
-8.5765982 1.3146071 5.9199085
-8.5485992 1.3402147 5.8894825
-8.443779 1.4000912 5.7681098
-8.3755083 1.4039772 5.6817722
-8.3261194 1.3647065 5.6105804
-8.2895508 1.3827271 5.5676408
-8.3276844 1.4200029 5.6240525
-8.3365822 1.4465885 5.6409259
-8.3711433 1.4602859 5.6878839
-8.4057121 1.4523516 5.7303629
-8.4129124 1.4541347 5.7399244
-8.5240345 1.5072846 5.8927946
-8.5509624 1.4095914 5.9068956
-8.5932741 1.3130674 5.9408751
-8.6187496 1.2555676 5.9614615
-8.732852 1.2569895 6.1074028
-8.7422428 1.2964811 6.1275845
-8.7500963 1.3033819 6.1390419
-4.5734644 -0.92560154 0.34524179
-4.5483999 -0.97289091 0.30343568
-4.5014515 -1.0080323 0.23621601
-4.5305533 -1.0539906 0.26382637
-4.5577221 -1.1217811 0.28443915
-4.5764966 -1.1327779 0.30612218
-4.6170144 -1.0894263 0.36683667
-4.6234641 -1.0812531 0.37676549
-4.6279974 -1.0533973 0.38833219
-4.648705 -1.0003073 0.42578131
-4.6541967 -0.98229277 0.43652898
-4.6568179 -0.9720642 0.44199741
-4.7055669 -0.90378439 0.51839161
-4.7134309 -0.90240002 0.52871692
-4.7149339 -0.77700877 0.55665457
-4.6444006 -0.7683295 0.46842331
-4.6277914 -0.750157 0.45099312
-4.5926442 -0.74704754 0.406775
-4.5751486 -0.75513268 0.38276505
-4.5223508 -0.74082863 0.31833881
-1.2179835 1.3804209 -3.4593594
-1.1822951 1.3882549 -3.5032885
-1.1538455 1.3757946 -3.5421884
-1.1027064 1.3727434 -3.6080983
-1.0678008 1.373347 -3.6525285
-1.0321395 1.3646374 -3.6998556
-0.99743962 1.3460832 -3.747999
-0.98048472 1.3498113 -3.7688673
-0.96157217 1.3565311 -3.7916138
-0.92622042 1.3787537 -3.8321273
-0.8736043 1.3737719 -3.9003232
-0.85713005 1.3725779 -3.9215991
-0.82102251 1.3854868 -3.9650104
-0.80454922 1.3842926 -3.9862859
-0.83917952 1.3694534 -3.9451611
-1.2408869 1.3850949 -3.4291546
-1.2734821 1.4032905 -3.3837726
-1.3038564 1.4016235 -3.3453472
-1.3231862 1.3734579 -3.3265183
-1.2874236 1.3648181 -3.3739603
-1.2755175 1.3702557 -3.3880293
-1.2345145 1.3624089 -3.4419959
-1.1882362 1.3634164 -3.500859
-1.1535709 1.3615592 -3.5454934
-1.0997524 1.3688829 -3.6126702
-1.0837593 1.3627665 -3.6343539
-1.9179595 1.3662901 -2.5688055
-1.89972 1.3656616 -2.5922179
-1.8652894 1.3614199 -2.6370471
-1.8637185 1.3594828 -2.6394541
-1.8991046 1.3538802 -2.5954478
-1.9515359 1.3612113 -2.5270004
-1.9854889 1.3703749 -2.4817595
-2.005538 1.3704801 -2.4561462
-2.0076821 1.3891959 -2.4495258
-2.0020568 1.3882306 -2.4569063
-1.9893401 1.3839629 -2.4740243
-5.6847301 1.38397 2.2429683
-5.7356739 1.3889868 2.3090365
-5.7741399 1.3692713 2.3540456
-5.7268667 1.3678784 2.2934151
-5.6829619 1.3670859 2.2372081
-5.6301365 1.3817408 2.1728199
-5.56076 1.3784401 2.0835788
-5.5430326 1.3727791 2.0597763
-5.578548 1.4011495 2.1109967
-5.6137066 1.397882 2.1551974
-5.6486306 1.3970735 2.1996078
-8.7368202 -1.5954802 5.5205665
-8.6838951 -1.5978649 5.4525142
-8.6500711 -1.5898676 5.4109998
-8.6853781 -1.5761073 5.4589229
-1.6975651 -1.5552232 -3.4563577
-1.6631544 -1.5596328 -3.5011966
-1.691906 -1.550801 -3.4626639
-1.7083797 -1.5496068 -3.4413884
-1.7260907 -1.5440216 -3.4176219
-1.7428048 -1.5452886 -3.3965499
-1.7317333 -1.5483527 -3.4113181
-4.6431003 -1.4706938 0.32101935
-4.6955752 -1.499357 0.38205332
-4.6265631 -1.4886203 0.29619044
-4.5950866 -1.498363 0.25399047
-4.6075468 -1.4987626 0.26981217
-8.9837132 0.2586925 6.2204638
-8.944313 0.4218213 6.2040215
-8.9800625 0.25629663 6.2153072
-8.9419584 0.21521348 6.1581435
-8.98843 0.090728372 6.1916313
-9.0000801 0.052779466 6.1986284
-9.017519 -0.018473178 6.2061024
-9.0090542 0.061365873 6.2118645
-8.9998608 0.10106182 6.2083654
-8.9932346 0.17860365 6.2159991
-8.9945431 0.18883878 6.2197924
-9.0306292 -0.44023117 6.1353197
-9.0303555 -0.44202876 6.1345973
-9.0236015 -0.39020002 6.1367307
-9.0130758 -0.35205153 6.1312113
-9.0131588 -0.30896235 6.1402593
-9.0170212 -0.2738255 6.1524796
-9.0167561 -0.26437584 6.1541018
-9.0186405 -0.23102388 6.1634283
-9.0050421 -0.10639662 6.1719313
-9.0181513 -0.064059317 6.1974497
-9.0133991 -0.10185464 6.1835418
-9.0321159 -0.22163957 6.1825757
-9.0274324 -0.25898552 6.1688485
-9.0329084 -0.3015269 6.1670108
-9.0238752 -0.3884024 6.1374531
-2.8038189 -1.5241301 -2.0378251
-2.7691512 -1.5259416 -2.0824525
-2.7511766 -1.5291061 -2.1060531
-2.7425516 -1.5342598 -2.1181321
-2.7681093 -1.5329196 -2.0852308
-3.0892038 -0.64277238 -1.4906583
-3.082396 -0.58348542 -1.4870458
-3.1018872 -0.63841629 -1.4735649
-3.1106114 -0.71738613 -1.4788156
-3.0993867 -0.68356824 -1.4861257
-2.9329226 -1.0430883 -1.7732117
-2.8918076 -0.92553377 -1.8012998
-2.8890331 -0.88640642 -1.7967222
-2.8553298 -0.80822766 -1.8235204
-2.8452642 -0.76464778 -1.8273256
-2.8453131 -0.72986162 -1.820045
-2.8358171 -0.69146746 -1.8241992
-2.8330524 -0.65189004 -1.8195155
-2.8297668 -0.57234073 -1.8072026
-2.8281243 -0.53256607 -1.8010457
-2.8206708 -0.52448773 -1.8088834
-2.8255622 -0.5640918 -1.810858
-3.9025831 -0.9757514 -0.52151304
-3.9117355 -0.96412998 -0.50741881
-3.9051597 -1.0949948 -0.54296762
-3.9117279 -1.1518213 -0.54637545
-3.8447301 -1.1325096 -0.62788767
-3.8710527 -1.0175209 -0.57042712
-3.8804216 -1.0003862 -0.55491287
-0.96356487 1.3702359 -3.7862265
-0.94345045 1.3892612 -3.8079541
-0.90758276 1.3997092 -3.8515689
-0.90586567 1.4002399 -3.8536508
-0.87961435 1.3823268 -3.8908761
-1.6200767 1.3568621 -2.9509952
-1.6384542 1.3741941 -2.9239407
-1.6733625 1.3735137 -2.879523
-4.8111973 1.3910434 1.1294125
-4.8974357 1.4052906 1.2424484
-4.9051967 1.403543 1.251992
-4.9326959 1.4045625 1.2873051
-4.9574924 1.4021332 1.3184526
-4.977006 1.4080842 1.3445959
-5.0022707 1.4057245 1.3763554
-5.0261407 1.3994091 1.4055139
-5.0430346 1.403604 1.4279487
-5.054913 1.4107003 1.4445833
-5.0858059 1.4043393 1.4826965
-5.090539 1.4026701 1.488392
-5.0826831 1.3963056 1.4770433
-5.0552278 1.3964555 1.4420291
-5.040616 1.3938715 1.4228415
-5.0330052 1.3950438 1.4133705
-5.0094137 1.3908906 1.3823948
-4.9924808 1.3947041 1.3615724
-4.9599814 1.3950629 1.320163
-4.9519567 1.3943644 1.3097745
-4.9417582 1.3943429 1.2967521
-4.9263787 1.3915598 1.2765435
-4.887496 1.3160992 1.2112532
-4.8670049 1.2749991 1.1765685
-4.8472977 1.3179402 1.1603236
-4.8265319 1.3611193 1.1427771
-4.7765293 1.3892322 1.0847851
-1.6562443 -1.5595109 -3.5099914
-1.6462078 -1.555964 -3.5220668
-4.9067798 -1.5036545 0.65075409
-4.9565578 -1.5117867 0.71260571
-4.9747562 -1.5110135 0.73599583
-5.0099807 -1.507659 0.78165406
-5.0271425 -1.5034997 0.80442351
-5.0435247 -1.5060456 0.82480651
-5.0446482 -1.5058477 0.82628155
-5.0621438 -1.4977627 0.85029143
-5.0279126 -1.4939363 0.80739105
-5.0106735 -1.5045481 0.78318429
-4.9591823 -1.4962184 0.7191866
-5.8460898 -1.539602 1.8422798
-5.826684 -1.5423894 1.8169308
-5.8191152 -1.5445449 1.8068223
-5.7994685 -1.5448675 1.7816771
-5.8164167 -1.5487382 1.8025079
-7.1523285 -0.77426124 3.6684439
-7.2092266 -0.78055787 3.7397654
-8.0666561 -0.7893135 4.8324175
-8.0343151 -0.77229261 4.7946672
-8.0021038 -0.78894907 4.7500944
-7.9656563 -0.782974 4.7048111
-7.9291706 -0.78443891 4.6579347
-7.9895582 -0.84125936 4.7232261
-8.0018692 -0.87557709 4.7318192
-8.0231457 -0.84679741 4.7649498
-8.0460415 -0.83779073 4.7960439
-8.058217 -0.83057797 4.8130827
-2.8821697 -1.5196433 -1.936883
-2.9017117 -1.5197268 -1.9119558
-2.9260364 -1.5179925 -1.8805468
-2.9454694 -1.4766541 -1.8471634
-2.9859381 -1.4409547 -1.7880995
-3.011858 -1.443186 -1.7554767
-2.9635863 -1.3580141 -1.7994196
-2.8975606 -1.2014382 -1.8512082
-2.8853002 -1.1234665 -1.8506784
-2.8775074 -1.076323 -1.8508427
-2.8765891 -1.0394168 -1.844357
-2.8747623 -1.0051286 -1.8395736
-2.851609 -0.923693 -1.8522296
-2.8500228 -0.88393164 -1.8460035
-2.8439431 -0.84496146 -1.8456774
-2.8640857 -1.5153098 -1.9590671
-2.8904102 -1.5099623 -1.9243555
-2.9390545 -1.4756601 -1.8551455
-2.9459929 -1.3943574 -1.8294182
-2.8647056 -1.5277214 -1.9608514
-2.8558984 -1.5310533 -1.9727848
-2.8469982 -1.5333381 -1.9846194
-2.829809 -1.5272081 -2.0052888
-2.8215539 -1.5185056 -2.0140202
-2.7800107 0.70902938 -1.6048229
-2.758734 0.74411827 -1.6247003
-2.7647717 0.7049163 -1.6251283
-2.7763588 0.54824764 -1.6428473
-5.7877331 1.3646603 2.3704398
-5.7792521 1.3666656 2.3600307
-5.2928376 1.3850493 1.7429599
-5.3151188 1.3963947 1.7737556
-5.3509836 1.3857503 1.8173261
-5.3010483 1.3763802 1.751642
-5.2917757 1.3780429 1.7401509
-5.2641149 1.3743296 1.7040724
-5.2863326 1.3807909 1.7337731
-7.1133766 -1.5922279 3.4489913
-7.1308298 -1.5925434 3.4712038
-7.1739531 -1.5547795 3.5340848
-7.1924276 -1.5564849 3.5573137
-7.1886373 -1.517139 3.5606394
-7.1874523 -1.5048435 3.5616786
-7.1675386 -1.5092959 3.5353358
-7.1144838 -1.4924996 3.4710989
-7.0790973 -1.4869492 3.4270813
-7.0303135 -1.5313685 3.3555937
-7.0646896 -1.5440214 3.396848
-7.6160803 -0.78947127 4.2572451
-7.650527 -0.7853601 4.3020682
-7.6808882 -0.78482294 4.3409338
-7.6975651 -0.78634119 4.3619061
-7.7185621 -0.78678691 4.3886156
-7.7723475 -0.77475321 4.4597673
-7.7908268 -0.77647984 4.4829965
-7.7513399 -0.91903174 4.4030137
-7.6819739 -0.9223358 4.3137856
-7.6673632 -0.90181208 4.2993941
-7.624568 -0.87799793 4.2497101
-7.6078925 -0.87645841 4.2287436
-7.584198 -0.86613923 4.2006397
-7.5944309 -0.78381145 4.2307849
-7.6115551 -0.78924072 4.2515173
-2.8391252 -0.71342164 -1.8245323
-2.8348207 -0.69081169 -1.8253348
-2.4982433 -1.5473366 -2.4326935
-2.4812968 -1.543668 -2.4535635
-2.5157077 -1.5392585 -2.4087248
-3.1017671 -1.0835545 -1.5660865
-3.1057262 -1.0002284 -1.5437424
-3.0980601 -0.92149699 -1.5371904
-3.1115437 -0.84031618 -1.503134
-3.1486862 -0.90644151 -1.4694448
-3.1953645 -0.95757151 -1.4204719
-3.1787155 -1.0022416 -1.4509928
-3.1763988 -1.0209712 -1.4578362
-3.1927218 -1.1181989 -1.457176
-3.1694441 -1.1373121 -1.4908552
-2.9367554 -1.0824542 -1.7764878
-2.9471962 -1.200313 -1.787617
-5.4046965 1.3737545 1.8833988
-5.4380269 1.3776636 1.9267547
-5.3869085 1.3921542 1.8645115
-5.368711 1.3914113 1.8411288
-6.3827305 1.3727171 3.131598
-6.4178896 1.3694496 3.1757987
-6.4360871 1.3701928 3.1991813
-6.418891 1.3766623 3.1785736
-7.0814552 -0.79704285 3.5732503
-7.066103 -0.83293533 3.5462062
-7.0693083 -0.84236962 3.5483396
-5.5016603 -1.5311754 1.4043806
-5.4479041 -1.5421035 1.3334956
-5.4314785 -1.5318816 1.3146501
-5.3788524 -1.536936 1.2464267
-5.362144 -1.5355248 1.2253917
-5.3272367 -1.5348868 1.1809669
-5.2942991 -1.536984 1.1384883
-5.2726917 -1.5202639 1.1143771
-5.2237654 -1.5283289 1.050251
-5.2112627 -1.4919248 1.041846
-5.19981 -1.4700701 1.0317625
-5.1797433 -1.4342237 1.0135865
-5.2137313 -1.4466763 1.0543865
-5.2646174 -1.3281951 1.1439257
-5.2071333 -1.187847 1.0996729
-5.1721492 -1.1747086 1.0577437
-5.1388087 -1.1843867 1.0131779
-5.1039019 -1.1837487 0.96875304
-5.076407 -1.1711781 0.93626595
-5.0572138 -1.1677115 0.91248578
-5.0613189 -1.1044016 0.93086308
-5.0806961 -1.107317 0.95499241
-5.1158433 -1.1104264 0.9992106
-5.148612 -1.0975255 1.0437158
-5.2004681 -1.1020342 1.1089715
-5.2528539 -1.0945201 1.177399
-5.2695627 -1.0959313 1.1984341
-5.2892003 -1.1099162 1.2205987
-5.2947168 -1.1664884 1.2159015
-5.2831302 -1.328756 1.1674402
-5.3023033 -1.3679457 1.1837813
-5.3910456 -1.4889789 1.271942
-5.4116011 -1.5154371 1.2926898
-5.4457288 -1.5399458 1.3311667
-5.675745 -1.5300694 1.626821
-5.6392336 -1.5327997 1.5796491
-5.6638498 -1.536588 1.6102843
-5.6865778 -1.5349457 1.6396365
-5.7207141 -1.5451391 1.6810946
-5.7281642 -1.5457759 1.6904724
-5.7298937 -1.5460513 1.6926229
-5.7466025 -1.5474622 1.7136581
-5.7725687 -1.5496368 1.7463515
-5.5071683 1.3834233 2.0162058
-5.4914441 1.3921876 1.9979532
-5.4609504 1.3767483 1.9558257
-5.4734206 1.3719373 1.9707451
-5.495995 1.3689272 1.9989355
-6.6003399 1.3661976 3.4080129
-6.5578189 1.3637564 3.3532307
-6.5421534 1.3650575 3.333504
-6.5226603 1.3670239 3.3090298
-6.5583496 1.3758869 3.3564255
-6.5937438 1.3701606 3.4004161
-7.790822 -1.5076571 4.3312674
-7.8561525 -1.5136411 4.4134173
-7.8755741 -1.5252039 4.4358087
-7.8184347 -1.5261672 4.3626723
-7.8046412 -1.5307801 4.3441091
-7.7690153 -1.5225959 4.3003321
-7.7650442 -1.5236974 4.2950349
-7.7127409 -1.5140374 4.2302771
-7.6958275 -1.5100601 4.2095127
-7.6793876 -1.5110011 4.1883326
-7.6617622 -1.4996464 4.1681914
-7.6984673 -1.504348 4.2140675
-7.7503395 -1.5109701 4.2789059
-7.7541699 -1.511138 4.2837605
-7.7770796 -1.5044253 4.3143964
-8.6320648 -1.5930593 5.3873525
-8.6146812 -1.5841427 5.3670139
-5.7655716 -1.5371261 1.7400156
-5.739923 -1.5372605 1.7072486
-5.7297673 -1.5423946 1.6932204
-5.7827597 -1.5434566 1.7606422
-7.9633188 -1.0328455 4.6499772
-7.9640331 -1.0353425 4.6503716
-7.9876289 -1.0385935 4.6798158
-7.9827995 -0.9989984 4.6818671
-7.9684811 -1.0220497 4.6588073
-7.2256284 1.3865323 4.2103844
-7.2378354 1.3932519 4.2273602
-7.2729874 1.3900282 4.2715611
-7.2427759 1.3800747 4.2309322
-7.2207212 1.3728192 4.2012749
-7.2085643 1.3735044 4.1858993
-7.1852531 1.3688586 4.1551795
-7.2089472 1.3826318 4.1882815
-7.0104742 1.3850474 3.935442
-6.9922767 1.3843043 3.9120591
-6.9737296 1.422576 3.8963263
-6.9968276 1.4021533 3.9215722
-7.0376067 1.3883202 3.9707544
-7.0466347 1.3889925 3.9824176
-7.0289073 1.3833315 3.9586148
-7.4004793 -0.78589809 3.9827826
-7.4184809 -0.78268516 4.0064268
-7.4356318 -0.78912157 4.0269837
-7.5844717 -1.5112553 4.0671248
-7.5465512 -1.4731913 4.0266194
-7.4853888 -1.4956374 3.9438903
-7.5026608 -1.5069091 3.9635987
-7.5397267 -1.5079434 4.0106969
-7.5604677 -1.5107296 4.0365939
-7.4333229 -1.4884367 3.8789248
-7.4052782 -1.5589862 3.8284879
-8.2773008 -1.5454569 4.9443913
-8.3146458 -1.5343428 4.9943671
-8.3484697 -1.5423398 5.0358815
-8.3119841 -1.5438046 4.9890051
-7.9453287 -1.5073326 4.5285554
-7.9811907 -1.5179758 4.5721235
-7.9978666 -1.5195153 4.5930896
-7.9796238 -1.5202477 4.5696516
-7.944788 -1.5389261 4.5213099
0 0 0 1 0 0 0 1 0 0 0 1 0 0 0 0 0 570 1 0 0
