ply
format ascii 1.0
comment PCL generated
element vertex 670
property float x
property float y
property float z
element camera 1
property float view_px
property float view_py
property float view_pz
property float x_axisx
property float x_axisy
property float x_axisz
property float y_axisx
property float y_axisy
property float y_axisz
property float z_axisx
property float z_axisy
property float z_axisz
property float focal
property float scalex
property float scaley
property float centerx
property float centery
property int viewportx
property int viewporty
property float k1
property float k2
end_header
-5.617362 1.3408313 5.1787462
-5.6272297 1.3432757 5.1821904
-5.6735678 1.3454459 5.1983232
-5.736639 1.342454 5.2202568
-5.6636734 1.3380018 5.1948485
-8.7778997 -1.5244176 6.2662344
-8.7357626 -1.541599 6.2514987
-8.6660738 -1.5235016 6.2273273
-8.6277637 -1.5231935 6.2139983
-8.5800076 -1.5453602 6.1972866
-8.5181923 -1.5622826 6.175705
-8.4705076 -1.5719496 6.1590714
-8.4357691 -1.5615475 6.147028
-8.508297 -1.4822065 6.1726041
-8.5151548 -1.4422772 6.1751609
-8.5189238 -1.3622372 6.176815
-8.5723953 -1.2826387 6.1957607
-8.572855 -1.2026417 6.1962628
-8.5681152 -1.1626302 6.1947846
-8.5677242 -1.1226301 6.1948195
-8.5752449 -1.0026524 6.1979494
-8.5742321 -0.96265066 6.1977682
-8.6065598 -0.92290497 6.2091866
-8.6144743 -0.84296656 6.2122822
-8.6180391 -0.7629776 6.2138648
-8.5784674 -0.65766859 6.2005458
-8.5831099 -0.64270711 6.2022252
-8.5792427 -0.52267361 6.2013927
-8.5807152 -0.48267841 6.202076
-8.5800753 -0.37767905 6.202302
-8.5808973 -0.34268099 6.2027378
-8.5791492 -0.32267785 6.2022152
-8.5757666 -0.26266924 6.2012949
-8.5747547 -0.22266746 6.2011137
-8.581152 -0.19018504 6.2034788
-8.5822754 -0.10268992 6.2042437
-8.5783873 -0.022681475 6.2032328
-8.5709534 0.017401963 6.2008171
-8.5802956 0.057324648 6.2042389
-8.5803185 0.097310781 6.2044177
-8.5761995 0.13735959 6.2031555
-8.5720825 0.17733073 6.2018938
-8.5733957 0.18982697 6.2024045
-8.577281 0.21731609 6.2038736
-8.5737839 0.2573244 6.2028279
-8.5738516 0.3773216 6.2033644
-8.5745163 0.38481963 6.2036281
-8.5751619 0.49731553 6.2043333
-8.5781288 0.61729205 6.2058792
-8.5798111 0.65722203 6.206635
-8.5763111 0.69730806 6.2055883
-8.5763531 0.70480764 6.2056351
-8.5790472 0.77728605 6.2068825
-8.5852852 0.81717813 6.2092237
-8.5863409 0.85722625 6.2097621
-8.5880222 0.89715624 6.2105179
-8.5882521 0.93715465 6.2107687
-8.6599169 0.83167052 6.2352543
-8.7031107 0.81634986 6.2502184
-8.7747622 0.8157469 6.2751479
-8.8223886 0.81541419 6.2917185
-8.851861 0.79013002 6.3018656
-8.8965082 0.77470207 6.3173351
-8.9344349 0.74449921 6.3304024
-8.9337559 0.73450136 6.3301239
-8.9342337 0.70950067 6.330183
-8.9325495 0.61451358 6.3291912
-8.931365 0.53451204 6.3284369
-8.9321489 0.4545117 6.3283672
-8.9306765 0.41451645 6.3276844
-8.9252481 0.33453256 6.3254538
-8.9217987 0.27454293 6.3239965
-8.92974 0.21441978 6.3265028
-8.9201689 0.13449857 6.3228307
-8.9153833 0.094537973 6.3209949
-8.9174318 0.054520518 6.3215365
-8.9116106 0.014575571 6.3193402
-8.9151077 -0.025432736 6.3203859
-8.9557533 -0.1057452 6.3341856
-8.9104624 -0.18541697 6.3180857
-8.9158239 -0.22546904 6.3197803
-8.9100037 -0.265414 6.317584
-8.9103937 -0.30541411 6.3175488
-8.9115219 -0.32541767 6.3178558
-8.9127426 -0.36544588 6.3181095
-8.9129257 -0.40541959 6.3180017
-8.9080381 -0.44540584 6.3161306
-8.9435425 -0.555704 6.3280129
-8.9434137 -0.5782032 6.3278718
-8.903244 -0.68538785 6.3134365
-8.9086037 -0.72540104 6.3151302
-8.9059477 -0.75539339 6.3140774
-8.9058905 -0.76539302 6.3140149
-8.9153681 -0.84541625 6.3169708
-8.9376917 -0.92568046 6.3243952
-8.9044838 -1.0103838 6.3124781
-8.9117355 -1.0454023 6.3148518
-8.9138041 -1.1179061 6.3152614
-8.9011097 -1.1653717 6.3106413
-8.9000282 -1.2453671 6.3099232
-8.9072523 -1.2853851 6.3122654
-8.905159 -1.3253787 6.3113661
-8.9040785 -1.4053741 6.3106484
-8.902173 -1.4128689 6.3099532
-8.8551645 -1.4850363 6.2932873
1.7527926 -1.4776093 2.6021833
1.7162495 -1.5075916 2.6147707
1.6563618 -1.4901712 2.6356835
1.5970051 -1.5151428 2.6562304
1.5257161 -1.4902171 2.6811428
1.405338 -1.5301528 2.7228587
1.3585379 -1.5102456 2.7392282
1.3165903 -1.4902867 2.7539096
1.2764404 -1.4903079 2.76788
1.1297619 -1.5177449 2.8188009
1.05163 -1.4903162 2.8461049
0.96919274 -1.4903311 2.8747897
0.91413856 -1.4903588 2.8939462
0.81826067 -1.5253129 2.9271584
0.7812109 -1.4904039 2.9401994
0.73015738 -1.4504406 2.9581347
0.57980156 -1.512916 3.0101852
0.49467397 -1.4905107 3.039902
0.38753057 -1.5254325 3.0770342
0.30481291 -1.5180012 3.1058483
0.2682972 -1.5229838 3.1185331
0.22210073 -1.5055702 3.1346819
0.17954111 -1.4906175 3.149555
0.13999796 -1.4906325 3.1633143
0.076039791 -1.5230006 3.1854308
0.041296721 -1.5114248 3.1975694
0.0047931671 -1.5139261 3.2102604
-0.0066776276 -1.5155694 3.2142448
-0.054685831 -1.4906752 3.2310562
-0.16523075 -1.4866064 3.2695386
-0.23368704 -1.5066088 3.2932732
-0.34320366 -1.5216132 3.3313162
-0.38944113 -1.5192015 3.3474154
-0.46244657 -1.5217044 3.3728075
-0.49893892 -1.5092062 3.3855588
-0.59141183 -1.501883 3.417767
-0.60736978 -1.4868838 3.4233837
-0.59745586 -1.4469378 3.420105
-0.59681666 -1.4069328 3.4200535
-0.6010406 -1.3594714 3.4217262
-0.60099268 -1.296972 3.4219768
-0.71468937 -1.2070158 3.4619231
-0.79206026 -1.247067 3.4886739
-0.82790744 -1.2870518 3.5009763
-0.9185909 -1.3272117 3.5323586
-0.95503151 -1.2472142 3.5453806
-1.0065612 -1.2072492 3.5634818
-1.0327051 -1.0872517 3.5730917
-1.0716566 -1.0072865 3.5869873
-1.113605 -0.96733737 3.6017542
-1.1123574 -0.92732692 3.6014912
-1.1141527 -0.8873437 3.6022868
-1.1985018 -0.80734801 3.631979
-1.2229846 -0.80726254 3.6404984
-1.2436664 -0.80720389 3.6476951
-1.2520301 -0.80717725 3.6506054
-1.289875 -0.76729274 3.6639442
-1.4425902 -0.78485817 3.7170079
-1.4790919 -0.78485966 3.7297089
-1.569276 -0.76753652 3.7611635
-1.6542964 -0.76512647 3.7907574
-1.6675829 -0.76707274 3.7953722
-1.7175834 -0.79254222 3.8126614
-1.7768855 -0.78783327 3.8333163
-1.8270984 -0.8050465 3.8507147
-1.8497905 -0.79334056 3.8586607
-1.9030229 -0.77107108 3.8772786
-1.9274602 -0.76779425 3.8857958
-1.995633 -0.79685533 3.9093928
-2.0776744 -0.97234356 3.9371898
-2.0367143 -1.0120947 3.9227672
-1.9945958 -1.0343484 3.9080167
-1.9642303 -1.0515854 3.897377
-1.8735709 -1.1101314 3.865581
-1.8553333 -1.1276305 3.8591602
-1.8025625 -1.1705124 3.8406148
-1.7489251 -1.2074901 3.8217931
-1.6716957 -1.2524486 3.794728
-1.5956454 -1.2474185 3.7682872
-1.5585961 -1.3274107 3.7550535
-1.5209079 -1.3673979 3.7417686
-1.4814547 -1.4873677 3.7275276
-1.5161651 -1.5323526 3.739413
-1.5526688 -1.5348539 3.7521043
-1.6702063 -1.4875321 3.7932048
-1.6852646 -1.4875653 3.7984443
-1.7211578 -1.4875613 3.8109336
-1.7545993 -1.4650359 3.8226664
-1.846422 -1.4076267 3.8548622
-1.8512944 -1.4077513 3.8565571
-1.8561596 -1.4077138 3.8582501
-1.8695382 -1.4075899 3.862906
-1.9047244 -1.3710474 3.8753057
-2.0413396 -1.2919254 3.9231803
-2.0596368 -1.2770528 3.9296105
-2.1005316 -1.252301 3.9439461
-2.1668413 -1.2128192 3.9671879
-2.1792772 -1.1928022 3.9716008
-2.2161772 -1.0930588 3.9848669
-2.3612764 -1.0932345 4.0353546
-2.2182043 -1.0530573 3.9857433
-2.2030277 -0.97296715 3.9808049
-2.2162201 -0.89305621 3.9857368
-2.2156992 -0.85322082 3.9857261
-2.226516 -0.81313038 3.9896612
-2.1810572 -0.78531396 3.9739623
-2.1032453 -0.77231401 3.9469426
-2.0606074 -0.77206916 3.9321074
-1.9890249 -0.74656069 3.9073086
-1.9061646 -0.75856698 3.8784254
-1.856252 -0.72780812 3.8611891
-1.7735337 -0.75771785 3.8322787
-1.7370224 -0.74521655 3.8196278
-1.700511 -0.73271525 3.8069768
-1.585704 -0.72900295 3.7670445
-1.5836986 -0.72764564 3.7663524
-1.5584329 -0.71131325 3.7576308
-1.4277093 -0.60753262 3.7125881
-1.3868878 -0.5275346 3.6987259
-1.3842716 -0.48753226 3.6979866
-1.3877624 -0.41896605 3.6994944
-1.3265032 -0.3274453 3.67857
-1.2520608 -0.21866997 3.6531322
-1.2680724 -0.14869998 3.6590028
-1.2544605 -0.018676579 3.6548221
-1.2195303 0.061445683 3.6430104
-1.2265494 0.10142055 3.6456237
-1.2357227 0.18140286 3.6491575
-1.2380279 0.22139823 3.6501307
-1.2334886 0.26140606 3.6487222
-1.2335122 0.30140555 3.6489015
-1.2196958 0.34144223 3.6442652
-1.2172871 0.38145804 3.6435981
-1.2173107 0.42145759 3.6437774
-1.2197667 0.4614408 3.6448028
-1.1796615 0.54153091 3.6311903
-1.1419652 0.58160532 3.6182449
-1.1042688 0.6216796 3.6052995
-1.0642909 0.66175807 3.5915601
-0.98689926 0.70193172 3.5648026
-0.9473784 0.74201822 3.5512223
-0.90965843 0.74209321 3.5380979
-0.82876885 0.7822789 3.5101233
-0.75272059 0.78243279 3.4836621
-0.67489541 0.8625977 3.4569249
-0.63595903 0.86268067 3.443377
-0.51489329 0.86295831 3.4012523
-0.47541988 0.98304391 3.3880305
-0.43835521 1.0631137 3.3754759
-0.40129066 1.1431834 3.3629212
-0.40009809 1.1831912 3.3626773
-0.32105649 1.2633643 3.3355169
-0.28214383 1.3034468 3.3221483
-0.23228335 1.3411027 3.3049598
-0.19334865 1.3436856 3.2914233
-0.14955473 1.3563012 3.2762387
-0.076544285 1.3514346 3.2508132
-0.025042057 1.3540958 3.232904
0.039660931 1.3441795 3.2103474
0.045287371 1.3442276 3.2083898
0.094235897 1.3544111 3.1914015
0.1615777 1.3370273 3.1678948
0.24995637 1.3648057 3.1372614
0.32286906 1.3574649 3.1118593
0.35933113 1.3475446 3.0991297
0.44214201 1.36278 3.07038
0.52496243 1.3680156 3.0415843
0.56141973 1.3630952 3.0288777
0.59786987 1.3656747 3.0162053
0.71715522 1.3584901 2.9746683
0.83642793 1.3638052 2.9331889
0.94581723 1.3315443 2.8949881
1.0286205 1.3542796 2.8662729
1.0650802 1.3468593 2.8535547
1.147891 1.3620948 2.8248053
1.2162614 1.3397443 2.8009195
1.3036239 1.3599896 2.7706075
1.4228945 1.3678046 2.7291396
1.4593616 1.3528844 2.7163868
1.4970663 1.3404738 2.7032142
1.5335572 1.3005539 2.6903462
1.6127009 1.2607614 2.6626372
1.6931612 1.1409794 2.6341281
1.7209044 1.1410674 2.624475
1.7358139 1.1411068 2.6192873
1.752877 1.0611382 2.613008
1.7723815 1.0211881 2.6060505
1.7699399 0.98116934 2.606729
1.7712951 0.86118066 2.6057444
1.757664 0.82115138 2.6103163
1.7623742 0.66116345 2.6079936
1.7562807 0.5810414 2.6097713
1.7670457 0.54117501 2.605855
1.7648826 0.42117161 2.6060946
1.7760959 0.38122052 2.6020219
1.7743509 0.26120776 2.6021161
1.7885246 0.21861589 2.597002
1.7871656 0.10116905 2.5969727
1.7630653 -0.058826894 2.6046748
1.7772152 -0.1387677 2.5994093
1.7609789 -0.25882918 2.6045456
1.7792289 -0.29875121 2.5980246
1.7610941 -0.3788276 2.6039925
1.7563443 -0.45009661 2.6053405
1.7575135 -0.49008316 2.6047626
1.7856894 -0.61013544 2.5944452
1.7458134 -0.65020376 2.6081491
1.745682 -0.77020216 2.6076818
1.7831883 -0.81013179 2.5944605
1.7917664 -0.89011472 2.5911336
1.7853389 -0.93013138 2.5931993
1.7852952 -0.97013086 2.5930433
1.7898152 -1.0101324 2.5912995
1.7836185 -1.1301956 2.5929425
1.7895525 -1.2501293 2.5903649
1.7940724 -1.2901311 2.5886211
1.7779675 -1.4101219 2.5937119
-3.5612006 -1.5316709 4.451005
-3.5413992 -1.5416988 4.4440718
-3.624227 -1.5371922 4.4729118
-7.3255301 1.5722121 5.7741079
-7.3617039 1.5244108 5.7864909
-7.3740253 1.5068789 5.7907033
-7.3880129 1.4891353 5.7954946
-7.4189377 1.4665543 5.806159
-7.4901886 1.3959539 5.8306494
-7.5067034 1.3857033 5.8363519
-7.5468502 1.345482 5.8501492
-7.4915838 1.3858857 5.8310914
-7.4802361 1.3934801 5.8271756
-7.453784 1.4037567 5.8180151
-7.3809042 1.406863 5.7926693
-7.2612801 1.3478007 5.7507925
-7.2413626 1.3403534 5.7438302
-7.2148237 1.3356305 5.7345757
-7.1845541 1.3292624 5.7240157
-7.1579514 1.3319805 5.7147708
-7.1220694 1.3387891 5.7023144
-7.1419439 1.3387368 5.7092295
-7.2419796 1.4478494 5.7445045
-7.1937962 1.5467116 5.7281613
-7.1949272 1.5481782 5.7285614
-7.1967907 1.5481734 5.7292094
-7.3165045 1.5872874 5.7710323
-3.8362026 -1.5334187 4.5466871
-3.8825667 -1.5286584 4.56284
-4.0283985 -1.534673 4.6135578
-3.8893275 -1.543954 4.5651274
-3.8528862 -1.5387003 4.5524693
1.4506822 0.060325354 2.7138805
1.5655186 -0.059367776 2.6734104
1.6899734 -0.059037894 2.6301069
1.6800864 0.10093534 2.6342311
1.569845 0.18063897 2.6729312
1.4901581 0.14042777 2.7004871
-8.523634 1.3326399 6.1899757
-8.4248047 1.4335194 6.1560183
-8.399065 1.4586773 6.1471691
-8.2956734 1.4494808 6.1111541
-8.259141 1.4347844 6.0983791
-8.2226505 1.4275877 6.0856514
-8.1763086 1.4354168 6.0695596
-8.1380596 1.4224004 6.0561948
-8.039854 1.3316071 6.0216351
-8.0763016 1.331304 6.0343161
-8.1027975 1.3285271 6.0435238
-8.1392012 1.3207244 6.0561576
-8.2689199 1.4072592 6.1016645
-8.3319349 1.4166787 6.123631
-8.3979349 1.3712987 6.1464024
-8.4182501 1.3386294 6.1533318
-8.4340811 1.3184974 6.1587543
-8.4605618 1.3132207 6.1679459
-8.5679054 1.2173835 6.2048874
-8.5722322 1.1773471 6.2062216
-8.5786352 1.1022929 6.2081289
-8.5792284 1.0972915 6.2083139
-8.5856705 1.1372348 6.2107258
-8.5896301 1.1771457 6.2122746
-8.5712214 1.21731 6.2060409
-8.5689611 1.2574315 6.2054257
-8.5515938 1.2974634 6.199554
-8.533514 1.3226141 6.1933703
-3.3226516 -1.5326768 4.3679953
-3.2663975 -1.5399511 4.3483901
-3.2299562 -1.5346977 4.3357325
-3.1471505 -1.5342044 4.3069215
-3.0841136 -1.5311828 4.2850003
-3.1304777 -1.5264225 4.3011532
-3.178175 -1.4991611 4.3178668
-3.2560413 -1.4996616 4.3449588
-0.28435171 -0.92674738 3.3133814
-0.35084784 -0.96679288 3.3363483
-0.44134414 -0.96685058 3.367837
-0.49968708 -0.88688636 3.3884799
-0.46990716 -0.72688699 3.3788018
-0.34385085 -0.76679492 3.3347688
0.22936273 0.61721438 3.1412311
0.31854248 0.6974355 3.110543
0.39641738 0.68763292 3.0834038
0.51273918 0.53792638 3.0422885
0.39659977 0.4976356 3.0825281
0.28042173 0.49734432 3.122952
0.24132037 0.027247161 3.1345477
0.24063349 0.097241431 3.1350861
0.16331124 0.17704773 3.1623323
0.03856945 0.10418257 3.2054257
0.037985086 0.064179003 3.2054582
0.038616896 0.024183571 3.2050672
0.038640499 -0.015815943 3.2048879
0.12216759 -0.1030663 3.175451
0.24136853 -0.022752166 3.1343174
0.24071002 0.017242491 3.1347175
-2.7623336 -1.4565268 4.1733532
-2.6367519 -1.3357356 4.1301723
-2.6290455 -1.2956715 4.1276622
-2.6310725 -1.2556701 4.1285381
-2.6293015 -1.0956782 4.1286063
-2.6730809 -0.97592568 4.1443515
-2.6321208 -1.015677 4.1299291
-2.5157642 -1.0549245 4.0892739
-2.4365757 -1.0744252 4.0616364
-2.390168 -1.0891854 4.0454249
-7.3340826 -1.5554491 5.7637124
-7.4434385 -1.5538586 5.8017707
-7.4885817 -1.5541846 5.8174767
-7.4367743 -1.5586338 5.7994313
0.79480648 -1.0505234 2.9373493
0.68078446 -1.0105711 2.9771953
0.52434349 -1.0906106 3.0312881
0.56319237 -1.1706011 3.0174282
0.6032548 -1.2505786 3.0031462
0.68351078 -1.2905352 2.9750495
0.73973441 -1.3304939 2.9553151
0.84289694 -1.2904624 2.91959
0.88070798 -1.2104679 2.9067752
0.87958264 -1.1304817 2.9075089
0.74491143 -0.77050328 2.9559078
0.68208528 -0.93055922 2.9770846
0.56843948 -0.81055403 3.0171418
0.57104087 -0.65053028 3.0169208
0.6896708 -0.6504854 2.9756427
0.72795677 -0.69048274 2.9621496
0.40827155 -0.97063124 3.0721893
0.33104849 -0.93064237 3.0992308
0.32554746 -0.81062776 3.1016579
0.45632434 -0.69058335 3.0566661
0.53015327 -0.77055663 3.0306349
-7.0955591 1.339066 5.6930914
-7.0653028 1.3326397 5.6825356
-7.0856218 1.3390923 5.6896334
-5.9655232 1.3807533 5.3000631
-5.9023986 1.3737458 5.2780681
-5.8658371 1.3565203 5.2652726
-5.8188963 1.3568534 5.2489405
-5.78299 1.3471241 5.2364049
-5.8096313 1.3519056 5.2456956
-5.8756256 1.3439651 5.2686248
-5.9486437 1.3584167 5.2940941
-5.9851007 1.3556429 5.3067679
-6.0313988 1.3503134 5.3228545
-6.0564981 1.3551251 5.3316088
-6.0696507 1.3550273 5.336185
-6.0945759 1.3673207 5.3449106
-6.0483694 1.3901495 5.3289304
1.03369 -0.020748466 2.8586302
0.86880827 0.018836349 2.9161716
0.84845734 -0.14120626 2.9225688
1.015579 -0.14078665 2.864419
1.2518768 0.49979728 2.7849357
1.3722794 0.62012047 2.7435551
1.2930977 0.69991243 2.7714481
1.2146125 0.69971025 2.7987571
1.1739733 0.53959936 2.8122132
1.1823554 0.21962816 2.8079286
1.01793 0.21920413 2.86514
1.0585692 0.37931496 2.8516836
1.174747 0.37960631 2.8112597
-2.6533904 -1.5259343 4.1351485
-2.6070483 -1.5256948 4.1190243
-2.5242643 -1.5202017 4.0902424
-2.4232006 -1.5245826 4.0550575
-2.3685317 -1.519201 4.0360579
-2.3502958 -1.5190754 4.0297132
-2.3320684 -1.5189474 4.0233717
-2.2911518 -1.4936638 4.0092421
-2.3004422 -1.4537284 4.0126457
-2.3325162 -1.4164503 4.0239654
-2.371635 -1.3742017 4.0377579
-2.4073794 -1.3218067 4.0504193
-2.4143364 -1.2943549 4.0529575
-2.4329224 -1.2144829 4.0597663
-2.4308178 -1.1744683 4.0592051
-2.8455863 -1.5271889 4.2020197
-2.9184911 -1.5326962 4.2273641
-2.9648445 -1.5304358 4.2435026
-3.0476611 -1.5284292 4.2723279
-2.9747672 -1.5204221 4.2469983
-2.8657045 -1.4446629 4.2093725
-7.2711115 -1.5573688 5.7417927
-7.2876549 -1.5626194 5.7475266
-7.3038568 -1.5525846 5.7532072
-4.0382881 -1.5321589 4.6170096
-4.0747404 -1.5349126 4.6296821
0.90229559 0.29891652 2.9057169
0.9022572 0.33891594 2.9059012
0.82307506 0.41870797 2.9337945
0.70689726 0.41841668 2.9742184
0.59017634 0.33812165 3.0144892
0.59149313 0.25813228 3.013689
0.51304626 0.21793067 3.0408134
0.43525767 0.13773435 3.0675378
0.55279088 0.018036842 3.0261292
0.67017007 0.058337152 2.9854584
0.70712757 0.17841989 2.9731121
0.82388711 0.21871549 2.932657
0.7488091 -0.10145852 2.9574122
0.66737747 -0.26168245 2.9850621
0.7568028 -0.33051443 2.9536514
0.86448216 -0.22117038 2.9166508
-2.799233 -1.5294492 4.1858807
-2.736218 -1.5214279 4.1639886
-8.0133095 -1.5607597 6.0000329
-7.9669256 -1.5604304 5.9838943
-7.9768476 -1.5629565 5.9873362
-5.8592882 -1.5203128 5.2506943
-5.7924266 -1.5124594 5.2274628
-5.7559862 -1.5097889 5.2147942
-5.7394114 -1.5072927 5.2090378
-5.6731315 -1.5168605 5.1859341
-5.6366906 -1.5141901 5.1732655
-5.6002884 -1.4990199 5.1606636
-5.500875 -1.4985955 5.1260738
-5.4279771 -1.4982544 5.1007099
-5.3981929 -1.4929931 5.0903687
-5.3427248 -1.4778049 5.0711327
-5.3185129 -1.4775925 5.0627089
-5.2425108 -1.4772242 5.0362649
-5.1794224 -1.5169694 5.014143
-5.1442156 -1.5168099 5.001893
-5.1262112 -1.5166519 4.9956288
-5.1003165 -1.5165739 4.986619
-5.0323853 -1.5162765 4.9629831
-5.1365118 -1.3967694 4.9997253
-5.0713167 -1.3164674 4.9773836
-4.9782333 -1.2184486 4.9454136
-4.9274893 -1.1556709 4.9280252
-4.8844543 -1.07547 4.9133935
-4.8825479 -0.95546174 4.9132433
-4.8500047 -0.90026921 4.9021559
-4.8501053 -0.86776984 4.9023294
-4.9877105 -0.83595443 4.9503465
-5.0258942 -0.80621469 4.9637599
-5.0358429 -0.80130196 4.9672427
-5.0623589 -0.80138528 4.976469
-5.1087484 -0.79914302 4.9926205
-5.2162399 -0.79713821 5.0300317
-5.1428466 -0.95679396 5.0038109
-5.1446934 -0.96181023 5.0044322
-5.2255316 -1.0372261 5.032238
-5.3409843 -1.0377866 5.0724087
-5.3823237 -0.99796236 5.0869632
-5.4098229 -0.94559133 5.096756
-5.3274488 -0.79766607 5.0687256
-5.4301538 -0.79576874 5.1044707
-5.5660009 -0.80136353 5.1517158
-5.622324 -0.7992084 5.1713233
-5.731616 -0.81721961 5.2092752
-5.7581244 -0.81980288 5.2184882
-5.8044748 -0.83006036 5.2345724
-5.8087897 -0.84009832 5.2360311
-5.7990665 -0.83999431 5.2326484
-5.7961531 -0.84006202 5.2316341
-5.7580309 -0.84980226 5.2183275
-5.6999178 -0.95948905 5.1976376
-5.660264 -1.1193942 5.183156
-5.656415 -1.1593608 5.1816459
-5.6575956 -1.279372 5.1815434
-5.6571608 -1.3193684 5.181221
-5.6569133 -1.3993669 5.1807928
-5.765996 -1.4848765 5.2183838
-5.8024836 -1.4725473 5.2311325
-5.8969631 -1.5205781 5.2638025
-5.88516 -1.5229745 5.259685
1.1800637 1.2996417 2.8133435
1.258549 1.2998439 2.7860346
1.2951553 1.1399256 2.7726135
1.1450198 1.1395361 2.8248529
0.47338414 0.97782171 3.0578632
0.35670137 0.85752726 3.0979497
0.27688026 0.95731425 3.1261508
0.31319857 1.0973918 3.1141124
0.39164543 1.1375936 3.086988
0.86228204 0.77880657 2.9216917
0.86815548 0.69882715 2.919306
1.0352774 0.69924688 2.8611562
1.0306056 0.81923521 2.8632948
0.48735785 -0.97060126 3.0446706
-5.9867115 -0.83341289 5.2979689
-6.1024809 -0.76153636 5.3385592
-6.1161571 -0.75910032 5.3433285
-6.189085 -0.7494415 5.3687458
-6.2256498 -0.71211278 5.3816285
-6.235568 -0.71719992 5.3850579
-6.2669106 -0.76232588 5.395771
-6.2618818 -0.78228188 5.3939357
-6.2390394 -0.80217493 5.3859024
-6.1522875 -0.86176872 5.3554616
-6.0794134 -0.85392785 5.3301377
-5.9866724 -0.84591269 5.2979021
-4.8215909 -1.5126734 4.8896503
-4.8636198 -1.5153929 4.9042635
-4.9143629 -1.5106889 4.9219398
-4.8778911 -1.5180181 4.9092178
-4.8170052 -1.5246627 4.8880033
-4.7607837 -1.5244374 4.8684416
-4.807148 -1.5196772 4.8845949
-5.2810593 -0.7999084 5.0525742
-5.2854128 -0.79744661 5.0540996
-5.3108897 -0.79017007 5.0629954
-7.1574106 -1.559211 5.7022219
-7.1872263 -1.5544727 5.7126164
-7.1673594 -1.5542984 5.7057042
-7.1507845 -1.5518022 5.6999474
-7.1408443 -1.554215 5.6964784
-7.1209698 -1.5565405 5.6895533
-7.0826931 -1.5508368 5.6762586
-7.058013 -1.5537868 5.6676583
-7.0590487 -1.5582744 5.6679997
-7.0690002 -1.5558007 5.671473
1.2149251 1.0197107 2.8000164
1.334203 1.0200258 2.7585139
1.4115636 0.90022016 2.7310834
1.2929823 0.81991076 2.7720013
1.1748295 0.93960345 2.8136253
-6.3423738 -1.5376948 5.418714
-6.3158426 -1.5426114 5.409461
-6.3522987 -1.5402818 5.4221563
-0.26172078 -0.056482881 3.3092275
-0.24342155 -0.13644855 3.3025184
-0.40109479 -0.21680392 3.3570387
-0.43947029 -0.13688383 3.3707335
-0.31847548 -0.016607761 3.3291464
-4.722147 -1.5222489 4.8550072
-4.6923161 -1.5319871 4.8445854
-4.6612401 -1.531162 4.833776
-4.7022724 -1.5245744 4.8480816
-0.23730886 0.58357531 3.3034697
-0.15880466 0.54374588 3.2759833
-0.073768139 0.57642633 3.2465339
-0.075161695 0.73641467 3.2477026
-0.23737967 0.70357382 3.3040075
-0.39408112 0.26323915 3.3566506
-0.39536822 0.38322949 3.3576114
-0.44740891 0.42312509 3.37589
-0.55286682 0.2628867 3.4119
-5.2908792 -1.437499 5.0532651
-5.3313007 -1.3577037 5.0676713
-5.1901541 -1.2595618 5.0189776
-5.1788492 -1.4369266 5.0142856
-0.51163995 0.50298315 3.3985813
-0.51173437 0.66298103 3.3992982
-0.47403812 0.7030555 3.3863528
-0.35662115 0.70330858 3.3454976
-0.354702 0.54332274 3.3441458
0 0 0 1 0 0 0 1 0 0 0 1 0 0 0 0 0 670 1 0 0
