ply
format ascii 1.0
comment PCL generated
element vertex 785
property float x
property float y
property float z
element camera 1
property float view_px
property float view_py
property float view_pz
property float x_axisx
property float x_axisy
property float x_axisz
property float y_axisx
property float y_axisy
property float y_axisz
property float z_axisx
property float z_axisy
property float z_axisz
property float focal
property float scalex
property float scaley
property float centerx
property float centery
property int viewportx
property int viewporty
property float k1
property float k2
end_header
-7.4198632 -0.94251364 1.6292374
-7.4212551 -0.93742591 1.6068013
-7.4269686 -1.0285838 1.4875995
-7.4289994 -1.0628402 1.4447888
-7.4262414 -1.0931666 1.4843669
-7.4218464 -1.1013473 1.557137
-7.4212661 -1.1015203 1.5669613
-7.4205241 -1.1014359 1.5795963
-7.4139557 -1.1343635 1.6833563
-7.4162822 -1.0626216 1.6611229
-7.4182868 -0.98273605 1.6463313
-7.3911738 1.3610878 2.673769
-7.3887205 1.3534014 2.7136352
-7.3857408 1.3522828 2.7640483
-7.3839664 1.3508954 2.7938855
-7.3809447 1.3471918 2.844377
-7.3786988 1.3545023 2.8843451
-7.3802624 1.3593342 2.8589163
-7.3817711 1.363554 2.8342812
-7.386765 1.386712 2.7549405
-7.7001996 0.26794636 -2.8459406
-7.7013783 0.26436591 -2.8668537
-7.7001181 0.18436688 -2.8647513
-7.6988273 0.14432046 -2.8524704
-7.6979957 0.10801128 -2.8471007
-7.6976767 0.095496982 -2.8446984
-7.6971297 0.064228773 -2.8429575
-7.6967783 0.039293736 -2.8430042
-7.6972189 -0.055567503 -2.8734179
-7.6962214 -0.095593065 -2.8661275
-7.6940994 -0.15317877 -2.8439503
-7.69379 -0.17573689 -2.8441372
-7.693964 -0.21561763 -2.8567357
-7.6941419 -0.25555974 -2.8694096
-7.6920466 -0.30065936 -2.8446755
-7.6915441 -0.31567806 -2.8397584
-7.6894951 -0.31594685 -2.8049726
-7.6871519 -0.31623653 -2.7651968
-7.683763 -0.29658031 -2.7028112
-7.6803975 -0.30878443 -2.6485219
-7.6762362 -0.25707796 -2.5652595
-7.6755066 -0.25721192 -2.5528831
-7.6740937 -0.25444743 -2.5281854
-7.6719623 -0.25713497 -2.4925847
-7.6717248 -0.25427026 -2.4878502
-7.6612043 -0.33501607 -2.328445
-7.660728 -0.35780078 -2.32585
-7.6604476 -0.37775537 -2.3258977
-7.6587038 -0.39791992 -2.3011165
-7.6558895 -0.55793875 -2.2919211
-7.6531606 -0.63804197 -2.2648635
-7.6528444 -0.76534981 -2.2902441
-7.6517138 -0.8381651 -2.2886105
-7.6512055 -0.88581413 -2.291481
-7.6465144 -0.88650674 -2.2118678
-7.6459279 -0.88659322 -2.2019162
-7.6449947 -0.82677311 -2.1715932
-7.6436992 -0.68710852 -2.1158128
-7.6427889 -0.64737833 -2.0907273
-7.6467605 -0.48711872 -2.1195464
-7.6480141 -0.40711999 -2.1215386
-7.6486969 -0.38958132 -2.1289148
-7.6495643 -0.32715416 -2.128582
-7.6472726 -0.15486309 -2.0479765
-7.641901 -0.20590551 -1.9689597
-7.6406631 -0.17859717 -1.9413055
-7.6377974 -0.16094418 -1.8883046
-7.6327991 -0.099644996 -1.7884883
-7.6277733 -0.10045427 -1.7032102
-7.6320996 0.020059749 -1.7476686
-7.6305375 0.099844456 -1.7018217
-7.6378212 0.18065649 -1.8061658
-7.6406102 0.21991047 -1.8441111
-7.6429615 0.22005692 -1.8840648
-7.6441245 0.22034496 -1.9037756
-7.6452899 0.22059205 -1.9235367
-7.6459827 0.2223269 -1.934903
-7.6477046 0.22140267 -1.9644042
-7.6499972 0.22080311 -2.0035458
-7.6524482 0.22310284 -2.0446739
-7.6611953 0.3428663 -2.1644955
-7.6628461 0.46287364 -2.1635742
-7.6635599 0.51856005 -2.1622539
-7.6634321 0.54102546 -2.1546569
-7.6644883 0.58310485 -2.1624489
-7.6653342 0.64604181 -2.1616273
-7.6651411 0.66322947 -2.1541929
-7.6666837 0.74326366 -2.1610842
-7.6652107 0.80585194 -2.1209126
-7.6655354 0.86081278 -2.1131554
-7.6676459 0.98082697 -2.1200519
-7.6667337 1.0207169 -2.0949001
-7.6684656 1.0607946 -2.1146679
-7.6685939 1.222496 -2.0777774
-7.669137 1.2626795 -2.0773053
-7.6696839 1.3027673 -2.0769205
-7.6749353 1.343364 -2.1564188
-7.6772828 1.3437304 -2.1962585
-7.6796632 1.3427556 -2.2369766
-7.6819925 1.3441117 -2.2762589
-7.6843901 1.3418964 -2.3175697
-7.689764 1.2247708 -2.4372678
-7.6897812 1.2222303 -2.4381738
-7.6893773 1.182144 -2.4409924
-7.6886649 1.1447233 -2.437921
-7.6881003 1.1024314 -2.4385352
-7.6878543 1.0621717 -2.444078
-7.6868877 0.98219347 -2.4469666
-7.6861844 0.94218874 -2.4446678
-7.6856275 0.90219462 -2.4448643
-7.6843677 0.82219553 -2.4427619
-7.6838107 0.78220123 -2.4429588
-7.6825504 0.70220226 -2.440856
-7.6822724 0.68220508 -2.4409547
-7.6814375 0.62221372 -2.4412498
-7.6807337 0.58220899 -2.438951
-7.680264 0.54466999 -2.4400325
-7.6775756 0.46244913 -2.4141798
-7.6777301 0.42459321 -2.425952
-7.6723733 0.30496275 -2.363759
-7.6712685 0.22507516 -2.3642664
-7.670579 0.18253607 -2.3628201
-7.6701493 0.14553934 -2.3644533
-7.6789317 0.062669307 -2.5338416
-7.6737266 -0.096820883 -2.4838548
-7.6689124 0.062491864 -2.3634858
-7.1684041 -0.21306111 6.0820432
-7.1702175 -0.093066327 6.0802002
-7.179739 -0.054564863 5.927567
-7.1808066 0.065446258 5.9384122
-7.1806383 -0.054734513 5.9122291
-7.179491 -0.092634179 5.922586
-7.1790667 -0.13442795 5.9197073
-7.1790113 -0.21465573 5.901258
-7.1778464 -0.25436884 5.9114795
-7.1779013 -0.32855773 5.8926167
-7.1769447 -0.4085277 5.8895664
-7.1768861 -0.46593958 5.8766904
-7.1765637 -0.48813361 5.876811
-7.1764765 -0.51277459 5.8723407
-7.1747832 -0.47222805 5.9109325
-7.1765976 -0.36818904 5.9052181
-7.1668849 -0.35581237 6.0733852
-7.167068 -0.33207744 6.0760093
-7.1674752 -0.31331936 6.0736156
-7.1684551 -0.25331512 6.0714469
-7.1613293 -1.0728602 5.994616
-7.1612654 -1.1530735 5.976316
-7.1601577 -1.20855 5.9817491
-7.1603336 -1.272998 5.9631853
-7.1601 -1.2888658 5.963325
-7.158391 -1.3684744 5.9731541
-7.1583161 -1.4483511 5.9551311
-7.1571927 -1.4324327 5.9780807
-7.1567197 -1.3925203 5.9957671
-7.1582808 -1.3126497 5.9885182
-7.1588292 -1.2725405 5.988884
-7.1593966 -1.2327375 5.9888535
-7.1605048 -1.1527106 5.9893389
-7.1608696 -1.0725889 6.0024986
-7.2068052 1.3352624 5.8030782
-7.2160053 1.493916 5.6849418
-7.2051458 1.3881805 5.8440847
-7.1995802 1.3222013 5.9227953
-7.1969953 1.3074373 5.9631877
-7.1959038 1.2271421 5.9623556
-7.19344 1.1475459 5.9850245
-7.194243 1.1070632 5.9615793
-7.1945801 1.1451737 5.9650536
-7.1968112 1.2267909 5.9468374
-7.2035365 1.3257473 5.8563666
-7.2059221 1.3284652 5.8164549
-7.1734533 0.26674217 6.1121049
-7.1726041 0.22672439 6.116878
-7.1819139 0.14543411 5.9389071
-7.1837544 0.18609968 5.9174275
-7.184731 0.30525494 5.9296103
-7.1848664 0.34724504 5.9374571
-7.1865482 0.42512465 5.9276748
-7.1869516 0.46514684 5.9304781
-7.1876945 0.5069629 5.9279485
-7.188004 0.58536756 5.941628
-7.1873035 0.54536003 5.9438758
-7.1853232 0.46768993 5.9587913
-7.1857896 0.42539179 5.9406381
-7.1846824 0.34540385 5.9401436
-7.2445726 1.350973 5.1645632
-7.2444973 1.3460696 5.1646595
-7.2422857 1.3558807 5.2046423
-7.3300834 1.362709 3.7131257
-7.3253136 1.3573759 3.7929587
-7.3293753 1.3530445 3.7228317
-7.3305855 1.3556384 3.7028813
-7.3317604 1.3557327 3.6829181
-7.4284039 1.3834563 2.0460081
-7.4308143 1.3858593 2.0055931
-7.4314027 1.3870562 1.9958813
-7.4331646 1.3860478 1.9656658
-7.4355755 1.3884506 1.9252508
-7.4361219 1.3870628 1.9156185
-7.4372973 1.3871466 1.8956516
-7.4396629 1.3901405 1.8561411
-7.4426103 1.392086 1.8064852
-7.4431686 1.3907177 1.7966568
-7.4443789 1.3933012 1.7767022
-7.4467173 1.3874869 1.7355318
-7.4490571 1.3932146 1.697121
-7.4478817 1.3931117 1.7170849
-7.4467177 1.392741 1.736792
-7.4444795 1.3998256 1.7765636
-7.4423881 1.4049884 1.813385
-7.4417267 1.4049412 1.8246164
-7.4410753 1.4047304 1.8356447
-7.4404335 1.4043959 1.8464806
-7.4399929 1.4043607 1.853967
-7.4379792 1.3967085 1.8863671
-7.4362226 1.3977159 1.9164792
-7.433857 1.394722 1.9559897
-7.4292068 1.3997148 2.0362771
-7.4267216 1.3863951 2.0753326
-7.588654 1.383242 -0.67940605
-7.5933042 1.3782492 -0.75969338
-7.5956888 1.3809156 -0.79960954
-7.5980253 1.3877255 -0.83770239
-7.6027975 1.3932654 -0.91751957
-7.6051145 1.3910364 -0.95746553
-7.6074519 1.3882958 -0.99787748
-7.6098175 1.3915775 -1.0373198
-7.6122093 1.3908248 -1.0781797
-7.6097889 1.3855551 -1.0382894
-7.6074743 1.3842498 -0.99923956
-7.6051745 1.3894097 -0.95888078
-7.6027832 1.3902543 -0.91800439
-7.5910053 1.3894134 -0.7179023
-7.5932879 1.3846848 -0.75786662
-7.5956597 1.3844438 -0.79826009
-7.5793567 1.3920363 -0.5191617
-7.5757842 1.3893152 -0.45906341
-7.5793962 1.3894187 -0.52046669
-7.5569644 1.3846949 -0.14011264
-7.5545592 1.3824664 -0.099743009
-7.5568919 1.3784887 -0.14038181
-7.5592809 1.378001 -0.18112183
-7.5592604 1.3828775 -0.17959857
-7.4972258 -1.5487274 0.16706067
-7.4948759 -1.5488849 0.20698816
-7.4925022 -1.5486152 0.24741983
-7.490427 -1.5464121 0.2832489
-7.4880767 -1.546579 0.32317746
-7.4878607 -1.5468577 0.32678187
-7.4855695 -1.5449426 0.36621654
-7.4833622 -1.5424707 0.40435517
-7.4809384 -1.5371182 0.44686258
-7.4800458 -1.5369636 0.46208757
-7.4786005 -1.5374892 0.48653787
-7.4762797 -1.5381806 0.52583492
-7.4740453 -1.5425813 0.56277299
-7.4716954 -1.5427482 0.60270149
-7.4714575 -1.5425336 0.60680133
-7.4690962 -1.5456178 0.64621282
-7.4667573 -1.5428486 0.68665612
-7.4691072 -1.5426911 0.64672875
-7.4693451 -1.5429151 0.64262998
-7.4715157 -1.5404612 0.60630858
-7.4738421 -1.5398766 0.56688547
-7.4744644 -1.5373377 0.55691522
-7.4771571 -1.5298743 0.51292378
-7.4787984 -1.5254184 0.48609143
-7.4812508 -1.529255 0.44345468
-7.4817104 -1.529551 0.43556237
-7.4834623 -1.5333449 0.40485173
-7.4857616 -1.5442464 0.36311823
-7.4878721 -1.5439309 0.32729781
-7.490304 -1.5421282 0.28637332
-7.4927773 -1.5462452 0.24332047
-7.4951272 -1.5460783 0.20339197
-7.580873 -1.5424863 -1.254012
-7.5907764 -1.5039967 -1.4131361
-7.5911727 -1.4903632 -1.416582
-7.5255051 -1.5564067 -0.31573987
-7.5276361 -1.5566785 -0.35204196
-7.5301709 -1.5585726 -0.39560914
-7.5278206 -1.5587395 -0.35568058
-7.5254321 -1.5582517 -0.31494057
-7.5160031 -1.553321 -0.15339041
-7.5135713 -1.5551238 -0.11246598
-7.5114393 -1.5549086 -0.076156616
-7.513824 -1.5522419 -0.11607289
-7.3740745 -1.538787 2.2638927
-7.371911 -1.5298057 2.3028569
-7.3693395 -1.5415956 2.3437362
-7.3718176 -1.5343735 2.3033385
-7.274291 -0.78117359 4.1439638
-7.2743807 -0.78382105 4.1417947
-7.2721038 -0.78214294 4.1809244
-7.2713346 -0.78224069 4.193984
-7.2696495 -0.77941418 4.2233257
-7.2713313 -0.77912796 4.1947899
-7.2719755 -0.7788285 4.1839032
-7.244123 -0.78690958 4.655643
-7.2527046 -0.77124333 4.5134802
-7.2570305 -0.78148985 4.4374299
-7.2572665 -0.78086674 4.4335685
-7.2594337 -0.77918082 4.3971186
-7.2617331 -0.78099251 4.357574
-7.2640843 -0.78074384 4.317646
-7.2648911 -0.78179145 4.3036737
-7.2664533 -0.78093433 4.277317
-7.2589097 -0.90557939 4.3754911
-7.2578931 -0.90585303 4.3927121
-7.2510123 -1.0638211 4.4715638
-7.2483497 -1.0865054 4.5113707
-7.2435789 -1.0918798 4.5911999
-7.2410831 -1.0881171 4.6345558
-7.2406187 -1.1201997 4.634707
-7.2427893 -1.1464508 4.5914459
-7.2448883 -1.1666818 4.5508633
-7.2518482 -1.1595803 4.4342127
-7.2530985 -1.1460514 4.4162135
-7.2507639 -0.79962385 4.5396247
-7.2519488 -0.80948216 4.5170956
-7.2554607 -0.8652885 4.4438806
-7.2567062 -0.90575528 4.4129243
-7.3037987 1.3709688 4.1621408
-7.3067594 1.3703839 4.111649
-7.3091445 1.3730505 4.0717325
-7.311564 1.3782166 4.0318289
-7.3113346 1.3937576 4.0394845
-7.3111815 1.3938172 4.0421052
-7.310894 1.3937222 4.0469713
-7.3062787 1.378371 4.1217532
-7.2968173 1.3754028 4.28195
-7.29497 1.370204 4.3121028
-7.291822 1.369206 4.3654065
-7.2934213 1.3740429 4.3393764
-7.2944665 1.3752143 4.3218775
-7.2958651 1.3789251 4.2989936
-7.2968774 1.3776171 4.2814622
-7.298192 1.3794791 4.259553
-7.2992625 1.3803053 4.2415485
-7.300601 1.3818618 4.2191548
-7.3021288 1.3750492 4.1915302
-7.3504848 1.349456 3.3629575
-7.3487492 1.3508914 3.3928251
-7.3481436 1.3520526 3.4033995
-7.3457932 1.351864 3.443327
-7.3434081 1.3491758 3.4832406
-7.3411274 1.3539869 3.5231953
-7.339345 1.3533782 3.5533628
-7.3387423 1.3512988 3.5631089
-7.3377833 1.3562155 3.5806041
-7.3370881 1.3578013 3.5928087
-7.3348708 1.3556948 3.630012
-7.3370628 1.3582308 3.5933414
-7.3376517 1.3582522 3.583334
-7.3386168 1.3559951 3.5663781
-7.3404427 1.3584504 3.5359187
-7.3417993 1.3610439 3.5134716
-7.3431249 1.3579835 3.4901881
-7.3447404 1.3580983 3.4627371
-7.3464298 1.3563784 3.4335899
-7.3487992 1.356218 3.3932552
-7.3251133 -1.0202751 3.2218542
-7.3322372 -1.0179293 3.1012697
-7.3321328 -1.0254283 3.1012325
-7.3248696 -1.060576 3.2162604
-7.324224 -1.0675912 3.2255449
-7.3193531 -1.0853789 3.3040881
-7.314321 -1.1209285 3.3810763
-7.3127208 -1.1410196 3.4034381
-7.3090835 -1.1615839 3.4603314
-7.3048768 -1.1891525 3.5252137
-7.3012547 -1.2068715 3.58253
-7.2985735 -1.2291989 3.6227331
-7.295939 -1.2492422 3.6626959
-7.2923779 -1.1699957 3.7424102
-7.2880378 -1.1423779 3.8228946
-7.2885776 -1.1184198 3.8195028
-7.2889061 -1.093096 3.8200316
-7.2889218 -1.0902691 3.8204498
-7.2890863 -1.0705907 3.8224049
-7.2934055 -1.0228558 3.7604828
-7.2972455 -0.99003267 3.7031126
-7.2997842 -0.97764981 3.6629272
-7.3026018 -0.78214544 3.6622472
-7.3048396 -0.77916551 3.624907
-7.3024898 -0.77932 3.6648345
-7.3002419 -0.78214866 3.7023787
-7.3001051 -0.78197408 3.704751
-7.2979183 -0.78276563 3.7417488
-7.3002901 -0.78296697 3.701364
-7.6288919 1.1378936 -1.4230126
-7.6291547 1.1778672 -1.4178249
-7.6286635 1.2181258 -1.3997411
-7.6292233 1.258069 -1.3996078
-7.6302371 1.2978082 -1.4072527
-7.630425 1.3378071 -1.4007794
-7.6304231 1.3427703 -1.3995448
-7.6290007 1.3776299 -1.3669308
-7.6285405 1.3779258 -1.3590387
-7.6261749 1.3859726 -1.3168658
-7.6215754 1.3929302 -1.236956
-7.6210127 0.6980812 -1.3952786
-7.6208978 0.77895284 -1.3737875
-7.6230483 0.85854304 -1.3911275
-7.6235991 0.89853477 -1.3908297
-7.6272221 1.0179108 -1.4236025
-7.6283355 1.0978993 -1.4232093
-7.6254878 1.0589799 -1.3841828
-7.6260381 1.0989715 -1.3838855
-7.6262951 1.1389296 -1.3785971
-7.6265516 1.1788874 -1.3733088
-7.6275063 1.258854 -1.3702186
-7.6279101 1.2988288 -1.3674258
-7.6262255 1.3802586 -1.3190979
-7.6216259 1.390578 -1.2383803
-7.6247897 1.0189712 -1.3819851
-7.6242394 0.97897923 -1.3822824
-7.6235414 0.93897057 -1.3800844
-7.4503427 -1.5414512 0.96615964
-7.447958 -1.5441084 1.0060755
-7.4455967 -1.5471926 1.045487
-7.4481592 -1.5469168 1.0019741
-7.4502964 -1.5468776 0.96563214
-7.4505091 -1.5467499 0.96204561
-7.4527283 -1.5450748 0.92470765
-7.4549727 -1.5461355 0.88628167
-7.4575596 -1.5462493 0.84226012
-7.4573812 -1.5439056 0.84586155
-7.4317932 -1.6123483 1.2644968
-7.433126 -1.6124384 1.2418088
-7.4385467 -1.547665 1.1652693
-7.4364085 -1.5477513 1.2016165
-7.4361734 -1.5473952 1.205701
-7.4341278 -1.5429189 1.2415696
-7.4315901 -1.5435654 1.2845703
-7.4292164 -1.5432956 1.3250021
-7.4270773 -1.5434197 1.3613551
-7.4245515 -1.5411111 1.4048685
-7.4222016 -1.5412686 1.444796
-7.4198442 -1.5412925 1.4848809
-7.4174085 -1.5461555 1.5251319
-7.4197931 -1.5434985 1.485216
-7.422143 -1.5433409 1.4452887
-7.4244933 -1.5431833 1.4053613
-7.4268084 -1.5455256 1.3654222
-7.5348363 -1.5607386 -0.47547841
-7.5323358 -1.5563637 -0.43189692
-7.5346746 -1.5591329 -0.47234023
-7.5981231 -1.049937 -1.4283661
-7.5990562 -1.1216702 -1.4615723
-7.5988221 -1.130728 -1.4597789
-7.5983529 -1.161675 -1.4592732
-7.5972395 -1.2416636 -1.4596664
-7.5965357 -1.2816682 -1.4573678
-7.5957613 -1.3307177 -1.4560457
-7.5957823 -1.2813932 -1.4444841
-7.595356 -1.2498988 -1.4296235
-7.5964069 -1.1294905 -1.4184049
-7.5968132 -1.0895121 -1.4156579
-7.4997578 -1.5507438 0.12351048
-7.5018911 -1.550912 0.087194324
-7.504241 -1.5507545 0.047266841
-7.5020733 -1.5530765 0.083569586
-7.3966608 -1.5324367 1.8812985
-7.3990111 -1.5322698 1.84137
-7.4011216 -1.5376866 1.8041658
-7.4025111 -1.5346831 1.7812638
-7.402523 -1.5348877 1.7810102
-7.402451 -1.5398461 1.7810364
-7.4002047 -1.6144478 1.8012134
-7.3988719 -1.6143577 1.8239014
-7.3929086 -1.5350516 1.9444845
-7.3954859 -1.5325204 1.9012644
-7.3835325 -1.5361009 2.1036897
-7.3871293 -1.583313 2.031105
-7.3875747 -1.5833648 2.023524
-7.2064867 -1.5535173 5.1104879
-7.2089643 -1.550647 5.0690417
-7.2112579 -1.548021 5.0306668
-7.2090559 -1.549067 5.0678668
-7.2066708 -1.5517544 5.1077814
-7.2041178 -1.553327 5.1508169
-7.2017841 -1.5540147 5.1903439
-7.1994152 -1.5538243 5.2306733
-7.1970639 -1.5540729 5.2706013
-7.1996503 -1.5497601 5.2276549
-7.2020044 -1.54963 5.1876521
-7.1805706 -1.5583133 5.5500803
-7.1829391 -1.5585036 5.5097508
-7.1853905 -1.5575225 5.4682994
-7.1900101 -1.5548189 5.3903856
-7.1853247 -1.5557555 5.4698405
-7.1829219 -1.5580645 5.5101519
-7.1806893 -1.5578977 5.5481567
-7.2643332 -1.5846155 4.1191769
-7.2606006 -1.5452986 4.1921601
-7.2570548 -1.5276976 4.2567134
-7.2545424 -1.5241685 4.3002944
-7.2514806 -1.5322721 4.3504109
-7.2491994 -1.5274605 4.3903666
-7.2469282 -1.5188487 4.4310727
-7.2445903 -1.5262556 4.4690485
-7.2421727 -1.5198753 4.5116997
-7.2398152 -1.5199593 4.5517783
-7.2333016 -1.4887793 4.6700835
-7.2383342 -1.4662139 4.5899525
-7.243187 -1.4443674 4.5126958
-7.247982 -1.4510787 4.4295282
-7.2497883 -1.4793836 4.3919673
-7.2513318 -1.5057427 4.3593535
-7.254601 -1.5221001 4.2998018
-7.2547359 -1.5222105 4.2974782
-7.2569618 -1.5190148 4.2603898
-7.2589359 -1.5076326 4.2295728
-7.2594504 -1.5119816 4.2197709
-7.2616272 -1.5212054 4.1805234
-7.2639771 -1.521051 4.1405959
-7.2665014 -1.5115452 4.0999575
-7.266664 -1.512032 4.0970731
-7.2688575 -1.5114985 4.0599036
-7.2705784 -1.5106279 4.0308409
-7.2713609 -1.508544 4.0180402
-7.273551 -1.5079352 3.9809432
-7.276155 -1.5036199 3.9377007
-7.2784834 -1.4930601 3.9006519
-7.2786393 -1.4933727 3.8979225
-7.2810435 -1.4910334 3.8576007
-7.2903671 -1.4625738 3.705914
-7.2907205 -1.4572934 3.7011743
-7.2908773 -1.4575431 3.698452
-7.2930121 -1.4592074 3.6617398
-7.295239 -1.4693477 3.6214199
-7.2955637 -1.4698944 3.615767
-7.2985926 -1.4619895 3.566164
-7.3001771 -1.4613429 3.5393729
-7.3045735 -1.4684367 3.4628887
-7.3046312 -1.4685951 3.4618678
-7.3093805 -1.4660562 3.3817091
-7.3094926 -1.4685462 3.3792024
-7.3142238 -1.5407889 3.2812805
-7.3172894 -1.5402426 3.2292805
-7.3177934 -1.5383575 3.2211652
-7.3201656 -1.5323414 3.1822691
-7.3226466 -1.5348676 3.1394658
-7.3247848 -1.5399624 3.1018753
-7.3223763 -1.5421852 3.1422963
-7.3200498 -1.5427709 3.1817188
-7.3176069 -1.5474933 3.2221284
-7.3154259 -1.5510209 3.2583656
-7.3152456 -1.5505787 3.2615399
-7.3131742 -1.5404937 3.2992058
-7.3130116 -1.5403036 3.3020172
-7.3115606 -1.5406494 3.3266058
-7.3093576 -1.5408058 3.3640389
-7.3061295 -1.5441896 3.418117
-7.305264 -1.5414253 3.4335079
-7.3013215 -1.5488681 3.4987607
-7.299005 -1.5366623 3.5411005
-7.2966666 -1.533886 3.5815434
-7.294445 -1.5368706 3.6186075
-7.2919555 -1.5371258 3.6608829
-7.2804675 -1.5307003 3.8578095
-7.2731795 -1.5387928 3.9797978
-7.2668304 -1.5844382 4.0767522
-7.2656455 -1.584358 4.0969195
-7.2153945 1.3343385 5.6567764
-7.2201653 1.3397747 5.5769529
-7.2225161 1.339993 5.5370255
-7.2233086 1.3418814 5.5240026
-7.2270274 1.3479015 5.4622087
-7.2273216 1.3479289 5.4572172
-7.2297068 1.3506471 5.4173055
-7.2281861 1.3516423 5.4434075
-7.2227206 1.46931 5.5647974
-7.2261772 1.5495629 5.525403
-7.227705 1.5876195 5.5086102
-7.228848 1.627647 5.4988456
-7.2268658 1.6686401 5.54246
-7.2208595 1.5595229 5.6182404
-7.2189918 1.5487777 5.6474118
-7.217854 1.4563023 5.644413
-7.3653092 1.3594768 3.1132612
-7.3622112 1.3506836 3.1638222
-7.3645964 1.3533716 3.123909
-7.366972 1.3532748 3.0834799
-7.3692622 1.351249 3.0440407
-7.3716035 1.3486524 3.0035985
-7.3763041 1.3490293 2.9237437
-7.2955899 -0.78330082 3.7812209
-7.2932396 -0.78346771 3.8211498
-7.2908545 -0.7861343 3.8610659
-7.288425 -0.77774721 3.9044108
-7.2907639 -0.7805236 3.8639679
-7.2930551 -0.7824375 3.8245335
-7.2954054 -0.78228301 3.784606
-7.2977786 -0.78255981 3.744174
-7.3226447 -0.86071366 3.3023963
-7.3247814 -0.78057021 3.2854223
-7.3219666 -0.7409386 3.3428636
-7.3197055 -0.72324789 3.3855929
-7.3153296 -0.7077359 3.4637694
-7.3128886 -0.70914501 3.5049391
-7.3098416 -0.75929117 3.5446391
-7.3072481 -0.77694273 3.584487
-7.4888649 1.383734 1.0178205
-7.4912653 1.3831593 0.97685355
-7.5006328 1.3877378 0.81865287
-7.491281 1.3859862 0.97727162
-7.49123 1.3869158 0.97836375
-7.4709144 1.3670596 1.3190733
-7.4695926 1.3669657 1.3415332
-7.4677091 1.3818843 1.37717
-7.470005 1.380067 1.3376842
-7.4722862 1.3752733 1.2977272
-7.4747262 1.3800015 1.2573723
-7.472271 1.3696531 1.2966259
-7.5356498 1.3733238 0.21963501
-7.5380206 1.3730527 0.1792509
-7.5403857 1.3762343 0.13979411
-7.5380058 1.3693272 0.17860347
-7.5356364 1.3694876 0.21893775
-7.5333686 1.3781174 0.25959188
-7.5309834 1.3754122 0.299505
-7.5286527 1.3747301 0.33897632
-7.5262475 1.3725016 0.37934589
-7.5239658 1.3772954 0.4193027
-7.5216699 1.3791127 0.45878863
-7.5193243 1.3783178 0.4984864
-7.5169139 1.3766787 0.53908598
-7.5136385 1.3704225 0.5932796
-7.5100317 1.381995 0.65741336
-7.5076151 1.3833553 0.6988405
-7.5098891 1.3751506 0.65818799
-7.6240973 0.85814977 -1.4090616
-7.6231031 0.81817126 -1.4018146
-7.622261 0.77808172 -1.397179
-7.5309901 1.3713261 0.29840124
-7.5286398 1.3711592 0.33832979
-7.5262775 1.371197 0.37851185
-7.5239859 1.3768188 0.41884631
-7.5216436 1.3728307 0.45772171
-7.5192647 1.3768842 0.49915826
-7.5169144 1.3698951 0.53743958
-7.5144796 1.368498 0.5785135
-7.4526577 -1.5437934 0.92622066
-7.4409204 -1.5479347 1.1248375
-7.4411087 -1.5474175 1.1217595
-7.443223 -1.5469228 1.0859188
-7.440908 -1.5445807 1.1258577
-7.5784879 -1.5451529 -1.214096
-7.5762877 -1.5462732 -1.176942
-7.5786729 -1.5435492 -1.2168537
-7.5737877 -1.5454868 -1.1342388
-7.5713992 -1.544999 -1.0934991
-7.5690179 -1.5508199 -1.0544065
-7.5666485 -1.5506594 -1.0140721
-7.5642829 -1.5536534 -0.97456181
-7.5619326 -1.5538203 -0.93463337
-7.5595827 -1.5539871 -0.89470482
-7.5548282 -1.5564933 -0.81445444
-7.552619 -1.5580286 -0.77724957
-7.5501089 -1.5564997 -0.73419166
-7.5477967 -1.5573214 -0.69507456
-7.5456219 -1.5566897 -0.65793407
-7.5442333 -1.5569166 -0.63436854
-7.5432153 -1.5589265 -0.61754024
-7.5440507 -1.5580759 -0.63154542
-7.5455661 -1.558702 -0.65746748
-7.5479598 -1.5594521 -0.69835937
-7.5501122 -1.5596541 -0.73501539
-7.55264 -1.5585159 -0.77773166
-7.5559182 -1.5642362 -0.83486128
-7.5569539 -1.5741513 -0.85487461
-7.5597062 -1.5548557 -0.89701569
-7.562057 -1.5546314 -0.93694305
-7.5643945 -1.5573937 -0.97736835
-7.5713682 -1.550653 -1.094335
-7.573945 -1.5499717 -1.1379946
-7.388679 -1.5155237 2.0211358
-7.3863425 -1.5035865 2.0637527
-7.385601 -1.5035 2.0763874
-7.3811588 -1.5358241 2.1441216
-7.3813691 -1.5363488 2.1404176
-7.3364062 -1.5462576 2.9027088
-7.3343697 -1.5397484 2.938911
-7.3337789 -1.5397289 2.9489694
-7.331943 -1.5416989 2.9797149
-7.3342581 -1.5440317 2.939774
-7.6953573 0.26719657 -2.7637653
-7.6934657 0.26347527 -2.7325006
-7.6906576 0.26655957 -2.6839986
-7.6891956 0.26619861 -2.6592188
-7.6874318 0.26599574 -2.6292734
-7.6859546 0.26601851 -2.6041441
-7.6836033 0.26574799 -2.5642171
-7.6825037 0.19277591 -2.563149
-7.6823597 0.18285918 -2.5630965
-7.6821904 0.17027912 -2.5632591
-7.1925111 -1.5519603 5.3485413
-7.1947303 -1.5547608 5.3101277
-7.1923614 -1.5545703 5.3504577
-7.3011508 1.36807 4.2064714
-7.2996898 1.3702104 4.2318397
-7.2988701 1.3728815 4.2464271
-7.2136612 -1.5423341 4.9911742
-7.2163849 -1.5285071 4.9481902
-7.2184153 -1.5397764 4.9109344
-7.216085 -1.5450851 4.9492836
-7.2136784 -1.5427732 4.9907727
-7.1889648 0.66534185 5.9446177
-7.1904716 0.70693463 5.9290366
-7.1908259 0.74512541 5.9322395
-7.1914358 0.78691161 5.9319673
-7.1912379 0.82715392 5.9450583
-7.191586 0.86529791 5.94835
-7.1919928 0.90527821 5.9510927
-7.1910396 0.86739612 5.9581499
-7.1903372 0.82739007 5.9604278
-7.1904788 0.78530997 5.9478555
-7.1886616 0.7075603 5.9599729
-7.1804867 0.10750344 5.9540157
-7.3664794 1.359642 3.0933986
-7.3676195 1.3572259 3.073422
-7.4864593 1.3815056 1.0581901
-7.4841456 1.3776592 1.0966145
-7.4817567 1.3781469 1.1373545
-7.4794073 1.3808891 1.1779732
-7.4818473 1.385617 1.1376182
-7.4841781 1.3862993 1.0981469
-7.4865618 1.3859797 1.0575343
-7.4584484 1.3886487 1.5362951
-7.4536247 1.3811435 1.6165209
-7.4514871 1.3928199 1.6556995
-7.4538131 1.3956485 1.6168237
-7.4538717 1.3954865 1.6157831
-7.4562221 1.3956534 1.5758547
-7.4584794 1.3935601 1.5369537
-7.4608765 1.3964688 1.4968921
-7.5091238 -1.5525758 -0.036215901
-7.5067005 -1.5545877 0.0045118332
-7.5067735 -1.5527427 0.0037125349
-7.345818 -1.5490019 2.7419791
-7.3459744 -1.5456969 2.7401195
-7.3458056 -1.5456398 2.7429991
-7.3434906 -1.5432947 2.782938
-7.3411407 -1.5434492 2.8228652
-7.3435378 -1.5441571 2.781929
-7.3411641 -1.5438803 2.822361
-7.6977048 0.26756302 -2.8036051
-7.2672997 -0.77956867 4.2632532
-7.2687869 -0.7802465 4.2377901
-7.2672758 -0.77913743 4.2637577
-7.2862992 1.3683883 4.4591274
-7.2846665 1.3611441 4.4851513
-7.2838449 1.3606709 4.4990091
-7.2839723 1.3678343 4.4985681
-7.284698 1.3667567 4.4859705
-7.2208776 -1.5431297 4.8682518
-7.2232561 -1.5292809 4.8311477
-7.2207494 -1.5390886 4.871407
-7.1922812 0.96737027 5.9611893
-7.1930189 0.98709619 5.9534149
-7.1923995 0.9452585 5.9538355
-7.3763137 1.3518142 2.9242587
-7.371613 1.3514373 3.0041132
-7.3341265 1.3557428 3.6426773
-7.3345513 1.3559564 3.6355042
-7.3323674 1.3547224 3.672349
-7.3341427 1.3555645 3.642364
-7.5475264 1.3803207 0.019344389
-7.5497885 1.3770564 -0.019916773
-7.5474725 1.3793504 0.020025492
-7.5451417 1.3786683 0.05949676
-7.5427713 1.3789394 0.099880934
-7.5404797 1.3766656 0.13830602
-7.5691657 -1.5519457 -1.0571915
-7.3271108 -1.5393767 3.0624528
-7.3273158 -1.5401877 3.0587726
-7.3294258 -1.5417218 3.0225139
-7.3294497 -1.5421531 3.0220094
-7.3045301 -0.97191048 3.5835991
-7.50525 1.3801737 0.73829722
-7.5028791 1.3804448 0.7786814
-7.5053124 1.3819883 0.73767608
0 0 0 1 0 0 0 1 0 0 0 1 0 0 0 0 0 785 1 0 0
