ply
format ascii 1.0
comment PCL generated
element vertex 457
property float x
property float y
property float z
element camera 1
property float view_px
property float view_py
property float view_pz
property float x_axisx
property float x_axisy
property float x_axisz
property float y_axisx
property float y_axisy
property float y_axisz
property float z_axisx
property float z_axisy
property float z_axisz
property float focal
property float scalex
property float scaley
property float centerx
property float centery
property int viewportx
property int viewporty
property float k1
property float k2
end_header
-11.010583 1.037317 0.26287711
-11.016569 0.99326193 0.27128422
-11.004026 0.91889834 0.2747947
-10.997198 0.79554522 0.28720915
-10.965279 0.75329733 0.27750981
-10.923901 0.67403793 0.26804125
-10.922956 0.67184424 0.26787364
-10.949265 0.59786689 0.28965795
-10.980013 0.63730156 0.29916155
-11.005483 0.70728934 0.30230296
-11.005755 0.71222341 0.30180633
-11.006439 0.72455871 0.30056512
-10.999681 0.99255812 0.26340854
-11.000523 0.91505826 0.27362859
-0.85926104 -1.1138276 -4.2521167
-0.86676073 -1.0712419 -4.2539773
-0.86637449 -1.0309489 -4.2592669
-0.86918926 -0.99177694 -4.2629042
-0.90539455 -1.0712929 -4.2357502
-1.1508865 -1.5532657 -4.0588789
-1.117054 -1.5548961 -4.0746284
-1.0916996 -1.5409968 -4.0883484
-0.89781046 -1.5229207 -4.1820831
-0.87678051 -1.5290351 -4.1912265
-0.85395002 -1.4391265 -4.2133899
-0.85383368 -1.4340314 -4.2140903
-0.85173512 -1.399878 -4.219409
-0.71400833 -1.3126087 -4.2954264
-0.85533237 -1.2320824 -4.2389808
-0.89612293 -1.2688344 -4.2150846
-0.89129353 -1.3474585 -4.2073965
-0.89167976 -1.3877515 -4.202107
-0.892066 -1.4280443 -4.1968179
-5.6838465 -1.4990299 -1.92788
-5.7640638 -1.5052825 -1.8892546
-5.7850099 -1.4992902 -1.8801354
-5.8645811 -1.5178742 -1.8402518
-5.9197226 -1.5029258 -1.8161404
-6.0208306 -1.3682402 -1.7855263
-6.0603237 -1.3284693 -1.7719413
-6.1219006 -1.2503581 -1.7528006
-6.1349468 -1.2072496 -1.7521116
-6.1798954 -1.1492728 -1.7382612
-6.1705432 -1.2874827 -1.7251536
-6.1723976 -1.2923179 -1.7236662
-6.1661081 -1.3654752 -1.7173597
-6.215415 -1.4897838 -1.678349
-6.1816072 -1.4913412 -1.6940962
-6.1286917 -1.4912652 -1.7190624
-6.0724616 -1.518459 -1.7421353
-5.979382 -1.5077716 -1.7873889
-5.5901203 -1.5006739 -1.9718754
-5.6365309 -1.508484 -1.948997
-5.6086259 -1.4787754 -1.9659233
-5.6290979 -1.4004649 -1.966194
-5.6164389 -1.3609475 -1.9771734
-5.5726418 -1.3188866 -2.0031605
-5.4262028 -1.3605992 -2.0669382
-5.3934765 -1.3173999 -2.0878487
-5.3371868 -1.216552 -2.1271787
-5.1641006 -1.2295518 -2.2071633
-5.1530771 -1.2056639 -2.2153904
-5.2609763 -1.1338443 -2.1736052
-5.2906051 -1.139966 -2.1588554
-5.354444 -1.1371328 -2.1291063
-5.4685984 -1.1393616 -2.0749855
-5.4865909 -1.1263376 -2.0681505
-5.5629706 -1.125386 -2.032248
-5.6512728 -1.1212115 -1.9911315
-5.7107482 -1.1210386 -1.9631029
-5.7452569 -1.1146348 -1.9476393
-5.8114495 -1.1386491 -1.9133772
-5.8243113 -1.143084 -1.9067491
-5.8504324 -1.1589965 -1.8924127
-5.8846521 -1.2068402 -1.8702095
-5.8799644 -1.224385 -1.8701967
-5.7464848 -1.3410362 -1.9183639
-5.745996 -1.3659763 -1.9154332
-5.7448039 -1.373098 -1.9150926
-5.7450976 -1.4394071 -1.9065495
-5.8392458 -1.5016057 -1.8542627
-10.891598 1.1898699 0.18742406
-10.930165 1.3539275 0.18481934
-10.895765 1.3543369 0.16854322
-1.0141659 0.34317771 -4.3637357
-0.97748995 0.22206968 -4.3656826
-1.0053077 0.1856491 -4.3479466
-1.0431695 0.266184 -4.3402977
-1.0854464 0.38533035 -4.3354607
-1.094573 0.45240995 -4.3396587
-1.0206232 0.5015471 -4.380764
-1.0226097 0.46069369 -4.3746486
-6.6364222 1.4593825 -1.8535991
-6.6678114 1.4618056 -1.839102
-6.7476425 1.3853947 -1.7917663
-6.7605152 1.3809149 -1.7851274
-6.7184086 1.3771996 -1.8045151
-6.6467476 1.3905088 -1.8399994
-6.6003294 1.3983374 -1.862884
-6.4857879 1.3931358 -1.9162456
-6.4266257 1.40791 -1.946021
-6.4802957 1.4670008 -1.9281983
-6.5335069 1.4593275 -1.9021299
-6.561574 1.4587361 -1.8888175
-7.2205029 0.66622186 -1.477596
-7.2588854 0.78672886 -1.4747683
-7.2222672 0.86563587 -1.50204
-7.066741 0.94755101 -1.5857735
-7.0368576 0.86425877 -1.5893098
-6.9960618 0.74459159 -1.5933825
-7.0107527 0.74782097 -1.5868632
-7.3355913 0.66621149 -1.423316
-7.3377562 0.78597534 -1.437475
-7.3418813 0.8648845 -1.4455314
-7.3439436 0.90433919 -1.4495595
-7.321661 0.94392431 -1.4650861
-7.4608459 1.0643873 -1.4147115
-7.5414281 1.1433831 -1.3867192
-7.5508337 1.260627 -1.397144
-7.5583067 1.3408821 -1.4037921
-7.4833298 1.3377697 -1.4387587
-7.4247689 1.3666065 -1.4700328
-7.3439021 1.3605222 -1.5074006
-7.2789059 1.3355021 -1.5348834
-7.1240878 1.3434994 -1.6089137
-7.0792952 1.4227405 -1.6400832
-7.0453625 1.4186914 -1.6555734
-7.0000997 1.3859453 -1.6727701
-6.9422765 1.3818851 -1.6995265
-7.004766 1.3073255 -1.6606042
-7.0313287 1.1817231 -1.6321564
-7.0315332 1.1071463 -1.6226071
-7.0367117 1.0651716 -1.6148446
-7.0367069 1.0024039 -1.6068909
-7.0397253 0.90343332 -1.5929229
-8.6623383 -1.0002435 -0.58635986
-8.6178141 -0.96534014 -0.61178255
-8.5958824 -0.98332214 -0.6198473
-8.5753813 -1.0112514 -0.62597585
-8.5877094 -1.0452049 -0.6158582
-8.6659269 -1.1256237 -0.56877542
-8.7279892 -1.1796205 -0.53266072
-8.7338276 -1.1799915 -0.5298605
-8.8379049 -1.096276 -0.49138522
-8.9287319 -1.1343306 -0.44372559
-8.9425516 -1.1509842 -0.4350965
-8.9646168 -1.132835 -0.42699051
-8.9822226 -1.0133413 -0.43383312
-8.9444189 -0.9983052 -0.4535681
-8.9100981 -1.009581 -0.46832573
-8.8776665 -1.0164696 -0.48274803
-8.772542 -1.0596185 -0.52685881
-6.6669207 -0.80228508 -1.5525471
-6.7452393 -0.76433897 -1.5204194
-6.7410583 -0.80389702 -1.5173773
-6.7427111 -0.84381485 -1.5115383
-6.7138133 -1.0019794 -1.5051198
-6.6510434 -1.0527201 -1.5282923
-6.6169348 -1.1295661 -1.5346386
-6.5912662 -1.1281816 -1.5469202
-6.5570712 -1.1371379 -1.5619124
-6.4629574 -1.1461809 -1.6051528
-6.5818667 -1.0420818 -1.5622666
-6.6590152 -0.97016573 -1.5349965
-6.6716485 -0.93021822 -1.5341016
-10.725645 0.99864662 0.13339365
-10.677771 0.99880171 0.11079514
-10.644268 0.87987423 0.11006844
-10.680705 0.84016788 0.13228619
-10.720137 0.83966088 0.15094721
-10.755839 0.83961296 0.16779196
-10.758497 0.8495692 0.16778314
-10.764268 0.99841321 0.1516391
-3.2142494 1.3482324 -3.453505
-3.1674874 1.3486202 -3.4756083
-3.1010807 1.3700169 -3.5096397
-3.155314 1.3654329 -3.4834809
-5.3151689 -1.5300876 -2.0978222
-5.2990761 -1.5311441 -2.105278
-5.2658882 -1.5397874 -2.1198351
-5.2015967 -1.5280927 -2.151639
-5.1582351 -1.5288335 -2.1719956
-5.13521 -1.5309378 -2.1825881
-5.081491 -1.518757 -2.2094676
-5.0657005 -1.5233558 -2.2163317
-5.0004973 -1.5273021 -2.2465832
-4.9215727 -1.4963866 -2.2877252
-4.8894453 -1.4658823 -2.3067436
-4.8533273 -1.4490669 -2.3259094
-4.7917123 -1.5439816 -2.3429384
-4.8048325 -1.5434839 -2.3368134
-4.8935223 -1.5319103 -2.2964518
-4.9270706 -1.5352857 -2.2802014
-4.9872484 -1.5302663 -2.2524562
-5.0335293 -1.5405426 -2.2293262
-5.0829029 -1.5235059 -2.2081995
-5.3336873 -1.5298638 -2.0891168
-5.2987905 -1.5554941 -2.1023266
-5.2818789 -1.556272 -2.1102037
-5.234262 -1.562184 -2.131912
-5.210618 -1.5572022 -2.1436946
-5.180974 -1.5510792 -2.1584516
-4.8358622 1.3875102 -2.6936846
-4.8166513 1.3916932 -2.7032752
-4.748013 1.3687996 -2.7327452
-4.8252983 1.3870155 -2.6986041
-0.96376228 -0.29180279 -4.3070235
-0.96577644 -0.2523506 -4.3110743
-0.99200726 -0.090796694 -4.31918
-0.96950483 -0.055395186 -4.33428
-1.0290685 -0.0099815726 -4.311944
-1.0250397 -0.088886015 -4.303843
-1.0238256 -0.12861854 -4.2993793
-1.0218115 -0.1680707 -4.2953286
-1.0197964 -0.20752297 -4.2912784
-1.0167747 -0.26670802 -4.285202
-0.97971344 -0.34752309 -4.2924376
-0.97870636 -0.36724246 -4.2904134
-0.97527075 -0.46644023 -4.2794604
-0.96184778 -0.37060535 -4.2979379
-0.96074009 -0.35098791 -4.3009467
-0.96149778 -0.31446549 -4.3052187
-1.870131 -0.2489388 -3.8849869
-1.7502284 -0.24738446 -3.9417336
-1.8697166 -0.28895825 -3.8801098
-1.9228969 -0.37019992 -3.8447313
-1.9546156 -0.36867136 -3.8299656
-1.9521723 -0.33102798 -3.8358891
-1.9551938 -0.2718564 -3.8419642
-1.9625728 -0.17151216 -3.8512025
-1.9666018 -0.092607737 -3.8593037
-1.915637 -0.050607711 -3.8886638
-1.8009186 0.072131157 -3.9583254
-1.79105 0.0027840436 -3.95419
-1.9136224 -0.090059936 -3.8846133
-1.9103484 -0.15416986 -3.8780313
-6.2657948 1.4130028 -2.0225189
-6.3252149 1.4031606 -1.993247
-6.2576084 1.3999941 -2.0247309
-6.1642556 1.4057875 -2.0694931
-6.1304522 1.4042042 -2.0852351
-6.117579 1.4086841 -2.0918741
-9.0079126 -1.5445281 -0.35438859
-9.0803366 -1.5587156 -0.31843317
-9.0547523 -1.5450294 -0.33223403
-7.2315989 1.003826 -1.5151546
-7.2782536 1.1415404 -1.5106063
-7.2473173 1.1791319 -1.5299616
-7.0780048 1.1788263 -1.6097753
-7.0544119 1.0590119 -1.605716
-7.0708656 1.0264603 -1.5938298
-9.8459988 1.3163602 -0.32174289
-9.7738867 1.3351961 -0.35814059
-9.6914968 1.3022182 -0.39281809
-9.6985741 1.2778995 -0.38639772
-9.6856098 1.1198317 -0.37247658
-9.6405811 1.0804163 -0.38871789
-9.6408195 1.0401229 -0.38349795
-9.7520771 1.00077 -0.32603765
-9.7381992 0.88081729 -0.31737876
-9.6449823 0.84246552 -0.35648155
-9.6277065 0.80328512 -0.35966301
-9.58675 0.74650335 -0.37178218
-9.5845642 0.68662119 -0.36522317
-9.6105537 0.56781554 -0.33790672
-9.6187258 0.68568683 -0.34899282
-9.7400122 0.72336543 -0.29656661
-9.7756414 0.68393242 -0.27476478
-9.8166885 0.68287861 -0.25527203
-9.8621063 0.76077044 -0.24372494
-9.9219875 0.84018755 -0.22554922
-9.9426756 0.87981653 -0.22081506
-9.9277353 0.95887983 -0.23788273
-10.029232 1.0772612 -0.205019
-10.032795 1.1564807 -0.21337986
-10.053246 1.2364045 -0.21386528
-10.04964 1.3417892 -0.22892332
-9.969162 1.3433502 -0.26707673
-9.9524117 1.345114 -0.27520001
-3.2782104 1.3427513 -3.4226444
-3.3288026 1.3535714 -3.4001551
-3.3749349 1.3408548 -3.3767862
-3.3957396 1.3371034 -3.3664985
-3.3621938 1.3404521 -3.3827441
-3.2942145 1.3371463 -3.414386
-1.9816999 0.58225834 -3.9377227
-1.899117 0.58337939 -3.9768133
-1.9012032 0.50317562 -3.9656634
-1.9394236 0.46311191 -3.9425597
-1.9860291 0.54311168 -3.9307189
-4.0822124 1.3535171 -3.0448186
-4.0946984 1.3416394 -3.0374243
-4.047893 1.3420701 -3.0595536
-4.0354071 1.3539478 -3.0669479
-4.0789943 1.3546369 -3.0464783
-2.9040949 -1.5080904 -3.2377417
-2.9340174 -1.5068716 -3.223784
-2.9584997 -1.5185657 -3.2107551
-2.9441502 -1.5161002 -3.2178352
-2.917026 -1.5100765 -3.2313914
-2.7713273 -1.199707 -3.3394465
-2.8007219 -1.1616405 -3.3304081
-2.7817907 -1.2019079 -3.3342328
-2.7712052 -1.2021729 -3.3391914
-2.0537879 -1.0825815 -3.6927042
-2.0428014 -1.1231037 -3.6927497
-1.9986956 -1.2432947 -3.6983168
-1.9731052 -1.2000719 -3.7158647
-1.9772346 -1.1605177 -3.7189307
-1.9785063 -1.1233329 -3.7230439
-1.981735 -1.0441482 -3.7315578
-1.978148 -1.0027343 -3.7384989
-2.799886 -1.5084981 -3.2868381
-2.8363044 -1.513938 -3.2689724
-2.845273 -1.5109597 -3.26512
-2.8703825 -1.5073154 -3.2537396
-2.8469424 -1.5084009 -3.264657
-2.8675516 -1.5052372 -3.2553382
-4.3579712 1.3610234 -2.9157145
-4.3920326 1.3675383 -2.900476
-4.4398513 1.3550187 -2.8763363
-4.5529919 1.3649114 -2.8242297
-4.4443717 1.3476064 -2.8732648
-4.4047766 1.3605927 -2.8935852
-4.3115525 1.3688518 -2.9385991
-4.2778778 1.3697346 -2.9545927
-4.3244252 1.3643721 -2.9319601
-7.6496301 -1.5643213 -0.99248457
-7.6239567 -1.5467855 -1.0068157
-7.6366892 -1.5536866 -0.99993598
-7.7099447 -1.5593305 -0.96467113
-8.0862026 -1.5633171 -0.78671193
-8.166544 -1.567345 -0.74831021
-8.1835575 -1.5740122 -0.73944104
-8.1242218 -1.648798 -0.75794625
-8.0833321 -1.6815904 -0.77307451
-8.0115604 -1.6845813 -0.80654466
-7.9481521 -1.6807733 -0.83693278
-7.8823438 -1.6407549 -0.87304211
-7.8706675 -1.6400129 -0.87864292
-7.8112683 -1.5551078 -0.91741931
-7.8322506 -1.5468572 -0.9085691
-7.9127283 -1.5484182 -0.87041569
-7.9719505 -1.5631636 -0.84061575
-7.9848795 -1.5675397 -0.83396363
-8.0524273 -1.5647247 -0.8024627
-8.7519627 -1.5502843 -0.47437251
-8.7857361 -1.5488768 -0.45862222
-8.7584257 -1.5524719 -0.47104692
-8.7114496 -1.5544378 -0.49295282
-8.8535585 -1.5411276 -0.42761743
-8.9067259 -1.5462835 -0.40188861
-8.8873329 -1.5397199 -0.41186666
-7.837563 0.77838051 -1.2007892
-7.8347292 0.77179992 -1.2012918
-7.7932839 0.78052843 -1.2219448
-2.1314623 1.3818606 -3.9684405
-2.0631671 1.3662708 -3.9986749
-2.0290821 1.3597089 -4.0139184
-1.9692938 1.2215444 -4.0246038
-2.0378036 1.3390857 -4.0071912
-2.0759702 1.3617868 -3.9920678
-2.110055 1.3683491 -3.9768243
-2.1779723 1.3765414 -3.9458308
-2.9060585 1.3659011 -3.6010962
-2.8892624 1.3675519 -3.6092267
-2.8097112 1.4186507 -3.6532221
-2.6852143 1.4418927 -3.7148845
-2.6159117 1.406577 -3.7430935
-2.5671356 1.3675126 -3.7611461
-2.6058683 1.4577469 -3.7543159
-2.7010233 1.4623322 -3.7100191
-2.7342422 1.485889 -3.6973381
-2.7634892 1.461517 -3.6804552
-2.8935072 1.3753165 -3.6082091
-2.9737241 1.3691621 -3.5695963
-2.9866531 1.3671439 -3.5632429
-3.0035641 1.3679594 -3.5553706
-3.0415158 1.3748885 -3.5383496
-3.0075572 1.3707924 -3.5538464
-3.232851 -1.1910639 -3.1228743
-3.1578722 -1.1941504 -3.157845
-3.111074 -1.1937393 -3.1799688
-2.9987292 -1.1569824 -3.2376127
-2.9993756 -1.1446509 -3.2388709
-3.0470788 -1.127798 -3.2185087
-3.1468711 -1.1464169 -3.1690841
-3.1946528 -1.1358682 -3.1478858
-3.2282019 -1.1392435 -3.1316352
-3.309195 -1.1306982 -3.0945196
-3.3224447 -1.1277342 -3.0886464
-3.4030504 -1.1265877 -3.0507758
-3.4497194 -1.1294652 -3.0284007
-3.5256715 -1.2171055 -2.9814711
-3.5634818 -1.2797 -2.9557047
-3.5606573 -1.2820297 -2.9567416
-3.4800165 -1.397871 -2.9800911
-3.5307176 -1.5144676 -2.9414001
-3.4420278 -1.526041 -2.9817619
-3.4075739 -1.5399299 -2.9962509
-3.3614221 -1.5271873 -3.0196326
-3.3034425 -1.4902797 -3.0516555
-3.3367331 -1.4985874 -3.0349016
-3.4474733 -1.3596905 -3.0002789
-3.4440317 -1.2379822 -3.0173285
-3.3310406 -1.2135566 -3.0737143
-3.2958758 -1.2410103 -3.0868192
-5.2046304 1.3600146 -2.5162778
-5.2215366 1.3608053 -2.5084047
-5.24754 1.3567774 -2.4956303
-5.2993836 1.3495302 -2.4702606
-5.3438859 1.3365293 -2.4476242
-5.3267307 1.3308049 -2.4549894
-5.313858 1.3352847 -2.4616287
-5.2803121 1.3386333 -2.4778743
-5.2344093 1.3563254 -2.5017657
-7.8684664 1.3811636 -1.2626175
-7.8551278 1.3781383 -1.2685249
-7.8936143 1.3754379 -1.2500314
-2.3050771 1.3724649 -3.8853681
-2.2713702 1.3733001 -3.901371
-2.292274 1.3769486 -3.8919747
-2.3389099 1.3740953 -3.8696184
-1.9946668 -1.3221991 -3.6902158
-2.0074823 -1.2806324 -3.6894403
-4.1152568 -1.5127826 -2.6659284
-4.0940523 -1.5237075 -2.6745443
-4.1617966 -1.5181262 -2.6433017
-4.1724906 -1.5151733 -2.6386323
-3.6243143 -1.5152898 -2.8971531
-3.5771282 -1.5222776 -2.9185219
-3.6370463 -1.5221909 -2.8902736
-6.9850521 -1.5486212 -1.3079085
-6.9301696 -1.5586371 -1.3325231
-6.8842764 -1.540962 -1.3564081
-6.9382539 -1.5482103 -1.330032
-7.0251932 -1.4262154 -1.3044918
-7.0683622 -1.5275609 -1.2712865
-7.045229 -1.543602 -1.2801635
-9.1584673 1.3710158 -0.65293002
-9.1257858 1.3893448 -0.67066693
-9.1629524 1.3662881 -0.65021527
-7.3953891 -1.5472604 -1.1145544
-7.3533683 -1.561711 -1.1325411
-7.3405066 -1.5572761 -1.1391691
-9.1816921 1.086481 -0.60591149
-9.2119293 1.0440588 -0.58627391
-9.2083664 0.96483958 -0.57791317
-9.2031641 0.85601544 -0.56657302
-9.2019138 0.84611785 -0.56590819
-9.1612406 0.76688766 -0.57504845
-9.1642838 0.81008244 -0.57908809
-9.1629486 0.88694751 -0.58946049
-9.1708403 0.92850125 -0.59100568
-9.1728363 1.0122629 -0.60068095
-9.1839523 1.165339 -0.61484075
-9.1751709 1.1305059 -0.61456716
0 0 0 1 0 0 0 1 0 0 0 1 0 0 0 0 0 457 1 0 0
