ply
format ascii 1.0
comment PCL generated
element vertex 597
property float x
property float y
property float z
element camera 1
property float view_px
property float view_py
property float view_pz
property float x_axisx
property float x_axisy
property float x_axisz
property float y_axisx
property float y_axisy
property float y_axisz
property float z_axisx
property float z_axisy
property float z_axisz
property float focal
property float scalex
property float scaley
property float centerx
property float centery
property int viewportx
property int viewporty
property float k1
property float k2
end_header
-6.7989807 1.5966918 -2.8609154
-6.7824883 1.6130245 -2.8540161
-6.7723904 1.5946062 -2.8415673
-6.7450666 1.5512648 -2.8097632
-6.7353921 1.5092268 -2.7907777
-6.6413212 1.453558 -2.7083545
-6.5745192 1.4543476 -2.6614931
-6.6012859 1.443902 -2.6773384
-6.6493845 1.4288278 -2.7068813
-6.6941977 1.4373946 -2.7409506
-6.7148728 1.4374945 -2.7555537
-6.8085976 1.4809666 -2.834203
-6.8776445 1.5399158 -2.8999355
-6.8772964 1.5464623 -2.9015851
-6.8345289 1.5695808 -2.8781276
-7.2867117 0.85634261 -2.9904671
-7.3102522 0.77496189 -2.9835095
-7.3137817 0.63252193 -2.9447751
-7.3340731 0.5849331 -2.9453061
-7.3498693 0.53760928 -2.9427459
-7.3506718 0.53599554 -2.9428446
-7.3600321 0.48724788 -2.9353349
-7.3242941 0.55687004 -2.9302917
-7.2950559 0.64093643 -2.9340098
-7.2846518 0.68393725 -2.9391203
-7.2593298 0.76237935 -2.9439719
-7.230896 0.84805173 -2.9487224
-7.2248349 0.88427168 -2.9549317
-7.2015758 1.0068786 -2.9740188
-7.2010145 1.0743005 -2.993135
-7.1774817 1.1221607 -2.990397
-7.1603794 1.1637385 -2.9903741
-7.1494155 1.2066216 -2.9950562
-7.1425362 1.2424335 -3.000571
-7.1059141 1.3238029 -2.9983039
-7.0126181 1.4284341 -2.9628181
-7.0460062 1.4385467 -2.9892807
-7.0727725 1.4281008 -3.0051258
-7.0954189 1.4140158 -3.0170131
-7.116879 1.4058745 -3.0297847
-7.155272 1.37556 -3.0480757
-7.1691809 1.3426626 -3.0483599
-7.1691422 1.3408806 -3.0478168
-7.1586819 1.2744176 -3.0212085
-7.2170267 1.1765053 -3.0340006
-7.2148123 1.1054957 -3.0118897
-7.2433195 1.0230861 -3.0081353
-7.2486362 0.98524612 -3.0009322
-7.2489796 0.98181969 -3.0001824
-7.2605333 0.9230513 -2.9913194
-7.2657852 0.90815645 -2.9907107
-3.6125512 1.4059768 -0.55954456
-3.6210392 1.4515741 -0.57872385
-3.6748796 1.4282656 -0.60993135
-3.7026148 1.4107001 -0.62439907
0.75682783 -0.30912048 3.0168712
0.77421856 -0.19526213 2.9961793
0.78272152 -0.17965147 2.9976556
0.81050301 -0.15066931 3.0088518
0.79023504 -0.26157591 3.0266609
1.019556 0.54608399 2.9545748
1.0122161 0.5035668 2.9617052
1.0176702 0.5418027 2.9544847
-3.4377007 -1.5711591 0.42530274
-3.3015003 -1.5749207 0.52240169
-3.2887125 -1.5572138 0.52629167
-3.1657686 -1.5164452 0.60115874
-3.1390114 -1.505973 0.61698973
-3.08778 -1.5015798 0.65183234
-3.1580651 -1.4940981 0.6001218
-3.2830977 -1.4802841 0.50798589
-3.2943957 -1.4483976 0.49079376
-3.2935195 -1.2988039 0.44811863
-3.2639117 -1.2006258 0.44057661
-3.1514938 -1.1693487 0.51077062
-3.105685 -1.147825 0.53683311
-3.0468199 -1.1692824 0.5845381
-2.9909573 -1.2831436 0.65686846
-2.9938574 -1.3416762 0.67176366
-3.0121593 -1.3795153 0.66981298
-3.0356154 -1.460912 0.67683482
-3.4618378 -1.5700114 0.40795583
-3.4750934 -1.5408483 0.39017195
-3.515033 -1.5083489 0.35261226
-3.5353923 -1.4944687 0.33424371
-3.5751297 -1.4825412 0.30278003
-3.6060033 -1.4893517 0.28298759
-3.6496544 -1.5057971 0.2569766
-3.6738024 -1.497354 0.23751058
-3.698277 -1.4912751 0.21849884
-3.7112575 -1.4688754 0.20286603
-3.6987927 -1.3691231 0.1827841
-3.6968486 -1.3706555 0.18459792
-3.6157229 -1.4433079 0.26281095
-3.6114805 -1.4469597 0.2668584
-3.5979736 -1.4646403 0.28149635
-3.528667 -1.4792151 0.33456999
-3.4487329 -1.3240682 0.34601712
-3.4288292 -1.305933 0.35479933
-3.3895571 -1.1712136 0.34349483
-3.3996429 -1.0943172 0.31413102
-3.3742299 -1.0639068 0.32324439
-3.297097 -1.0179143 0.36430657
-3.3182464 -0.87121463 0.30694246
-3.3655648 -0.84723485 0.26664704
-3.4046502 -0.83057851 0.23427455
-3.4571862 -0.84442949 0.20124947
-3.5352342 -0.77671754 0.12663583
-3.5857375 -0.79696333 0.096894294
-3.6023812 -0.77999103 0.080249995
-3.5852873 -0.77166295 0.089889556
-3.5394766 -0.77306563 0.12258838
-3.4833505 -0.76759541 0.16056974
-3.4165297 -0.76668632 0.20740999
-3.3588395 -0.83198118 0.26697338
-3.2590656 -0.77567589 0.32101107
-3.2606869 -0.89066648 0.35314691
-3.2518747 -0.90706921 0.3641057
-3.2433858 -0.96022576 0.38547343
-3.0942783 -0.98482805 0.497702
-3.0677872 -0.94805759 0.50573486
-3.0493917 -0.77317894 0.46809161
-3.0426667 -0.75792515 0.46841788
-2.9523497 -0.77018821 0.53563315
-2.9262447 -0.76444489 0.55237281
-2.8567765 -0.76064277 0.60024196
-2.83216 -0.76814353 0.61976534
-2.8316832 -0.80328631 0.63027191
-2.8461132 -0.82942384 0.62766427
-2.8485229 -0.83452129 0.62744075
-2.8604658 -0.88760579 0.63438481
-2.9144258 -0.97970319 0.6230005
-2.9168308 -1.0421166 0.63936782
-2.9184306 -1.0453389 0.63917273
-2.9400644 -1.1435567 0.65234709
-2.9470406 -1.170293 0.65516692
-2.9585488 -1.2598248 0.67296535
-2.9752879 -1.3530619 0.68814874
-2.9806509 -1.4107013 0.70104915
-2.9818058 -1.446203 0.71050942
-2.8851576 -1.5167007 0.79904097
-2.8005877 -1.5371242 0.86456668
-2.7680836 -1.5184915 0.88208711
-2.8587265 -1.508593 0.81532627
-7.4991636 -1.4469177 -2.4736588
-7.5151243 -1.4166167 -2.4936788
-7.512877 -1.3628129 -2.5076654
-7.487855 -1.2524042 -2.5219796
-7.446147 -1.1576636 -2.5199969
-7.4304943 -1.0441711 -2.5418079
-7.4123778 -0.93157208 -2.5616238
-7.3674383 -0.83324993 -2.5584002
-7.3795052 -0.90927052 -2.5449054
-7.4105468 -1.0361948 -2.5300553
-7.4249687 -1.1501338 -2.5072472
-7.4387436 -1.1905649 -2.5052567
-7.4423304 -1.2280366 -2.4969404
-7.4771118 -1.3205361 -2.4946887
-7.4712315 -1.3926082 -2.469686
1.0766916 1.3702414 2.7563376
1.1043949 1.3877263 2.7708058
1.06777 1.4210114 2.7353554
1.0486264 1.4994094 2.699172
0.94853878 1.4867547 2.6322806
0.87136126 1.4447069 2.5900455
0.83332109 1.4226339 2.5696182
0.77524042 1.4285924 2.5269516
0.71355629 1.394213 2.4934185
0.64260006 1.3741584 2.449204
0.61679602 1.3708315 2.431977
0.58452177 1.3546443 2.4139109
0.65611792 1.3564935 2.4638453
0.70838165 1.3678761 2.4973929
0.74138308 1.3888226 2.5145943
0.82323837 1.3837624 2.57376
0.91909122 1.4115469 2.6332879
0.92875099 1.4136219 2.6394968
0.96743202 1.4174891 2.6656444
1.0116529 1.4042177 2.7006576
0.29076147 1.3754096 2.200824
0.33688259 1.3762965 2.233079
0.31722212 1.3834658 2.217145
-5.0370836 -0.69048357 -0.95700395
-5.083427 -0.6938023 -0.98871166
-5.2286863 -0.73487729 -1.0792208
-5.2508769 -0.7237106 -1.0980951
-5.2758007 -0.75439537 -1.1067839
-5.2867045 -0.76782006 -1.1105853
-5.332902 -0.80134845 -1.1334474
-5.3023076 -0.85681754 -1.0958279
-5.2890377 -0.93156922 -1.0648402
-5.2815309 -0.94596648 -1.0553823
-5.2450109 -0.91901183 -1.0374392
-5.1371131 -0.95782554 -0.95014709
-5.0785823 -0.95872319 -0.90862787
-5.0452938 -0.93534982 -0.89192629
-5.0229101 -0.86391956 -0.89681995
-5.0104485 -0.84857714 -0.89247555
-4.9863701 -0.78251469 -0.89462078
-4.9739084 -0.76717228 -0.89027643
-4.9707088 -0.76072764 -0.88988614
-4.9738584 -0.74267745 -0.89732993
-4.9800482 -0.73758096 -0.9031682
-4.9948592 -0.72935814 -0.91598862
-5.0255356 -0.69942439 -0.94627607
-5.6787095 1.3953104 -2.0129335
-5.5928755 1.3841798 -1.949206
-5.5409846 1.3932507 -1.9152523
-5.5874405 1.389997 -1.9470583
-5.6255045 1.4138377 -1.9807901
-2.6686261 1.3535171 0.12102897
-2.6747093 1.3430228 0.11977793
-2.7014713 1.3325832 0.103934
-2.731164 1.3263166 0.084816605
-2.7410169 1.3298895 0.076837048
-2.7824078 1.3445857 0.043406844
-2.7572811 1.3432357 0.061509743
-2.7315025 1.3466144 0.078703851
-2.7111444 1.3441973 0.093754157
-2.9586947 1.3725007 -0.088940032
-2.9542317 1.3756354 -0.08670114
-2.8991559 1.3487411 -0.040093757
-2.9497352 1.3490765 -0.075845182
-1.6434035 -0.96947855 1.5160102
-1.5388172 -0.88713777 1.5659056
-1.4886911 -0.85788792 1.5927755
-1.4250009 -0.82842362 1.6291449
-1.3597615 -0.77481365 1.6596186
-1.3538601 -0.76437497 1.6607577
-1.3802147 -0.77239311 1.6445001
-1.4458168 -0.76374424 1.5957528
-1.5957212 -0.78485793 1.4961927
-1.5998163 -0.7718305 1.4895358
-1.6261885 -0.77982211 1.4732584
-1.6719894 -0.77827156 1.4405236
-1.6817765 -0.77378857 1.432327
-1.7388861 -0.77900445 1.393579
-1.7546074 -0.78503919 1.3842431
-1.7655914 -0.7893613 1.3777512
-1.8845655 -0.80134714 1.2973527
-1.7666562 -0.79224277 1.3778346
-1.7356389 -0.84509468 1.4149947
-1.7259095 -0.90802771 1.4400661
-1.7271874 -0.92547482 1.4442146
-1.7336805 -0.96392834 1.450766
-1.7376299 -0.98083824 1.4528757
-1.7515576 -1.0293634 1.4571011
-1.7403836 -1.0750864 1.4782102
-1.7314768 -1.0964358 1.4906675
-1.7192478 -1.1258514 1.5078009
-1.6794078 -1.1699233 1.5486394
-1.657568 -1.0883508 1.5404276
-4.913444 -1.52894 -0.62719607
-4.8425064 -1.5316925 -0.57639432
-4.9026022 -1.5173478 -0.62290829
-5.2593107 -1.5349715 -0.86925882
-5.2148046 -1.5458319 -0.83474255
-5.1807356 -1.5406463 -0.81222725
-5.1674843 -1.5239568 -0.80771619
-5.1809959 -1.5177417 -0.81903964
-5.2401791 -1.5215728 -0.85965008
-5.294879 -1.5405042 -0.89273047
-4.3634777 -0.89445478 -0.42313576
-4.3245316 -0.76209968 -0.43398577
-4.2392259 -0.7598182 -0.37451243
-4.2468567 -0.7722609 -0.37629059
-4.2862015 -0.91688472 -0.3621712
-4.3038306 -0.94556296 -0.36629862
-4.2345877 -1.0771146 -0.27941647
-4.2161865 -1.0937182 -0.26163995
-4.2391481 -1.1675322 -0.25646406
-4.2489362 -1.181149 -0.2594232
-4.3044071 -1.21628 -0.28835869
-4.3942041 -1.1305188 -0.37647808
-4.4302254 -1.1269624 -0.40289944
-4.4661651 -1.1017745 -0.43552321
-4.4318733 -0.94391066 -0.45703667
-4.7384129 -1.5110837 -0.50898105
-4.6886888 -1.4841135 -0.48173481
-4.7116785 -1.486021 -0.49738854
-4.7712779 -1.4948279 -0.53685266
-4.7921305 -1.4999933 -0.55005711
-5.4768105 1.3751276 -1.8647698
-5.4503717 1.3832092 -1.8484716
-5.3526826 1.3908052 -1.7818067
-5.4636412 1.4033105 -1.8636428
-5.5148745 1.3989682 -1.8985015
-6.3598299 1.3773263 -2.487864
-6.2961555 1.4256523 -2.4569643
-6.3275619 1.418056 -2.4769049
-3.9991415 1.4120755 -0.83382457
-3.9624724 1.4213533 -0.81066084
-3.9326468 1.41062 -0.7865299
-3.9511747 1.3870671 -0.79277432
-3.9772844 1.3813496 -0.80952501
-4.0584025 1.3829708 -0.86717594
-4.0424438 1.3923805 -0.85864949
-4.0252461 1.4063323 -0.85056424
-2.6344008 -1.5390933 0.98228478
-2.5434656 -1.5469248 1.0486532
-2.5199764 -1.5373797 1.062449
-2.5396824 -1.5302339 1.0464898
-2.556951 -1.5269439 1.0333645
-2.5790937 -1.5159419 1.0145718
-2.6249046 -1.5145391 0.98187292
-2.6735919 -1.5223739 0.94981968
-2.6936874 -1.5175619 0.93426132
-6.9170976 -0.75265682 -2.2642698
-6.9197083 -0.74864578 -2.267271
-6.9425526 -0.7307449 -2.2885547
-6.9609537 -0.71414125 -2.3063314
-7.0154462 -0.74217886 -2.3366299
-7.0996904 -0.71939093 -2.4026103
-7.199667 -0.7436614 -2.4660621
-7.1855054 -0.79100257 -2.4423783
-7.185504 -0.8024658 -2.43906
-7.1853023 -0.82303739 -2.4329641
-7.1295648 -0.94837135 -2.3574016
-7.1137681 -1.0297432 -2.3227172
-7.0763111 -1.0811479 -2.2814364
-7.0732441 -1.1286374 -2.2655303
-7.0873928 -1.2303175 -2.2460778
-7.0707326 -1.3158047 -2.2095935
-7.0784454 -1.3498788 -2.205169
-7.0642796 -1.4316094 -2.1715305
-7.1109357 -1.5175323 -2.1795528
-7.2067966 -1.5454645 -2.2390435
-7.2583542 -1.5522225 -2.2734315
-7.2202473 -1.5759721 -2.239696
-7.147027 -1.5621736 -2.192075
-7.0918827 -1.5294075 -2.1626852
-7.0400715 -1.5340931 -2.1248066
-7.0053558 -1.5356443 -2.0998857
-6.9295268 -1.5029306 -2.0558999
-6.9433274 -1.4904778 -2.0692322
-6.9290152 -1.3377273 -2.1033494
-6.9346991 -1.2174479 -2.1421657
-6.8943667 -1.1649953 -2.1289144
-6.8456211 -1.1451182 -2.1003051
-6.8779345 -1.0582275 -2.1482298
-6.9346471 -0.97437632 -2.2124743
-6.9212346 -0.8722266 -2.2325821
-6.922061 -0.81339443 -2.250191
-7.5407286 -0.41045696 -2.8029134
-7.5422459 -0.38255167 -2.8120584
-7.5286617 -0.33443645 -2.8164077
-7.5268373 -0.30582768 -2.8234012
-7.50945 -0.22219944 -2.8353462
-7.4538069 -0.1201286 -2.8256621
-7.4525361 -0.093241155 -2.8325479
-7.4656725 -0.024205565 -2.8617868
-7.4379978 0.020686328 -2.8552704
-7.4287162 0.09678781 -2.8707514
-7.410296 -0.00057584047 -2.8295894
-7.4147496 -0.036788195 -2.8222489
-7.4406314 -0.16182709 -2.8043067
-7.33881 -0.25332093 -2.7060525
-7.3321075 -0.29469484 -2.6893539
-7.3261681 -0.3266409 -2.6759217
-7.3296337 -0.33616489 -2.6756086
-7.3374753 -0.34705073 -2.6779859
-7.3667669 -0.45622751 -2.6670377
-7.3996944 -0.56060374 -2.6600423
-7.3700686 -0.61143893 -2.6244469
-7.3756628 -0.67612904 -2.6096687
-7.3775673 -0.68874699 -2.6073596
-7.3789968 -0.70967758 -2.6023097
-7.5459471 -0.44828779 -2.7956433
-7.5495329 -0.48575962 -2.7873266
-7.5615997 -0.5617801 -2.7738321
-7.5602913 -0.59817505 -2.762377
-7.554739 -0.64968514 -2.743556
-7.5195446 -0.70930523 -2.7014925
-7.4960709 -0.7078867 -2.6853561
-7.4680071 -0.7108832 -2.6647065
-7.3934879 -0.74911088 -2.6011128
-6.1580896 -1.192975 -1.6018006
-6.1774402 -1.1519384 -1.6273174
-6.2256079 -1.1694318 -1.6562089
-6.2630916 -1.2951828 -1.6462394
-6.2474217 -1.365101 -1.6149589
-6.1995564 -1.2725935 -1.6079894
-4.7896447 -1.5154772 -0.54382372
-5.2183433 1.3697591 -1.6810176
-5.2357435 1.3635228 -1.6914786
-5.2629113 1.3707843 -1.7127312
-5.2678337 1.3725824 -1.7167213
-5.3136325 1.3740568 -1.7494327
-5.3197856 1.3763044 -1.7544205
-3.7897403 -0.77071863 -0.05450663
-3.830071 -0.84609741 -0.06112165
-3.8497765 -0.83895141 -0.077080652
-3.8955872 -0.83754873 -0.10977943
-2.9117365 1.1304433 0.01421389
-2.8899095 1.1214712 0.032196626
-2.8884416 1.1263797 0.031810954
-2.9078212 1.13589 0.015397549
-4.037353 -1.4648528 -0.028169431
-3.9473786 -1.2960696 -0.013590962
-3.9509053 -1.2895117 -0.017974824
-3.9983435 -1.2155211 -0.072828032
-3.9400012 -1.2760872 -0.014173478
-3.8955328 -1.3341045 0.033963546
-3.8594675 -1.3592829 0.066673428
-3.8411512 -1.3631285 0.080697984
-3.8999212 -1.4690609 0.069926947
-3.926352 -1.4771686 0.053641662
-4.0122266 -1.4662027 -0.010066524
-4.0427737 -1.4706488 -0.030313261
-4.084794 -1.4752722 -0.058596186
-1.9505847 -0.98989016 1.3053794
-1.9329009 -1.0342064 1.3306702
-1.9398618 -1.0724005 1.3368169
-1.9393547 -1.1938081 1.3723102
-1.9474524 -1.1840924 1.36379
-1.9779768 -1.1058791 1.3196377
-1.9919544 -1.0240721 1.2861093
-1.9932479 -1.0207744 1.2842432
-1.981346 -0.94553792 1.2708595
-1.9824641 -0.91195142 1.2603513
-1.9888341 -0.88812184 1.2489645
-1.9920106 -0.86587691 1.2402877
-2.0080667 -0.82120907 1.2160423
-1.9892628 -0.74376589 1.2068853
-1.9461286 -0.7642377 1.243216
-1.926033 -0.76904964 1.2587745
-1.9009942 -0.7705186 1.2768499
-2.936389 -1.5210941 0.7641983
-2.9867694 -1.5069406 0.72458822
-3.0669696 -1.5016227 0.6665144
-6.4109383 -1.1207014 -1.8009548
-6.4455299 -1.0962145 -1.8324261
-6.5656624 -1.1501026 -1.9015139
-6.4675794 -1.1381862 -1.8358221
-6.3911052 -1.1393011 -1.7815914
-6.3578224 -1.127393 -1.7615757
-7.4003329 0.18498063 -2.876267
-7.4032354 0.15773576 -2.8704278
-7.4222288 0.13416427 -2.8769953
-4.2052932 1.3958149 -0.9744392
-4.23206 1.3853693 -0.99028444
-4.2985334 1.3869438 -1.0375986
-4.3827252 1.4098947 -1.1035894
-4.2914562 1.4045815 -1.0377141
-4.2714386 1.3997533 -1.0222061
-0.99392438 -0.79152787 1.9223413
-0.93531346 -0.76505297 1.9559956
-0.89639783 -0.78408515 1.9889359
-0.9032948 -0.80161947 1.9891486
-0.94844365 -0.79539108 1.9555199
-1.0670834 -0.932827 1.9116628
0.21230745 -1.522948 2.9843132
0.21978283 -1.5281999 2.9911027
0.16063476 -1.5318658 2.950469
0.13001227 -1.5333517 2.9293127
0.14015818 -1.5294349 2.9353311
-1.9739351 -0.94822937 1.2768624
-1.1088488 -1.515852 2.0509505
-1.0643637 -1.5268109 2.0854805
-1.037677 -1.5164275 2.1012874
-0.9457202 -1.5170583 2.1662922
-0.85177231 -1.5034976 2.2285933
-0.8069551 -1.5120913 2.2626731
-0.80204892 -1.5087485 2.2651639
-0.77469873 -1.4936346 2.2800696
-0.74834418 -1.4856164 2.2963271
-0.70286322 -1.4894797 2.3295054
-0.64448977 -1.518028 2.378916
-0.61979413 -1.5218359 2.3974266
-0.59377122 -1.5161829 2.4141347
-0.54829025 -1.5200462 2.4473131
-0.61450291 -1.3900094 2.3630056
-0.56460238 -1.2943649 2.3705015
-0.42723656 -1.2800491 2.4631903
-0.40394044 -1.2799978 2.4795973
-0.32937813 -1.270241 2.5293343
-0.30933475 -1.2708964 2.5436528
-0.16263318 -1.2114475 2.6298611
-0.16057706 -1.1743106 2.6205628
-0.1611712 -1.166568 2.6179032
-0.15179014 -1.0904341 2.602483
-0.12673306 -1.0546107 2.6097789
-0.12045836 -1.0469377 2.6119814
-0.11143875 -1.010435 2.6077754
-0.092343569 -0.95769221 2.6059721
-0.087076187 -0.88631058 2.5890272
-0.072994947 -0.8534475 2.5894425
-0.071510553 -0.84081888 2.5868342
-0.054088116 -0.77282625 2.5794382
-0.059565783 -0.75567108 2.5706124
-0.087901115 -0.74433291 2.5473568
-0.11037636 -0.75609314 2.5349171
-0.15872478 -0.7726568 2.5056288
-0.20779014 -0.77186543 2.4708128
-0.2939167 -0.91014218 2.4501181
-0.31739783 -0.91953671 2.4362845
-0.45294309 -0.93526971 2.3452892
-0.46962714 -0.75776803 2.2821589
-0.54799509 -0.76561928 2.2291877
-0.55379009 -0.76258433 2.2242246
-0.59156299 -0.76399142 2.1980047
-0.64131188 -0.78592217 2.1692827
-0.68712473 -0.78442419 2.1365547
-0.73917055 -0.79572999 2.1031387
-0.68952608 -0.85328507 2.1547906
-0.63871694 -0.84153235 2.1872056
-0.60014462 -0.82053316 2.2083189
-0.5148356 -0.8260715 2.2700577
-0.46392345 -0.94869769 2.341435
-0.48329711 -1.0513332 2.3574812
-0.49721527 -1.0710096 2.3533645
-0.50237775 -1.085443 2.3539023
-0.51553559 -1.1116796 2.3522201
-0.57451701 -1.1611822 2.3249691
-0.58822441 -1.1802118 2.3208137
-3.273927 -1.0334508 0.38513583
-3.1192019 -1.0155129 0.48901325
-3.1226592 -1.0873644 0.50737029
-3.2664099 -1.1624796 0.42777604
-5.1901617 1.3850064 -1.6655644
-5.1437025 1.388262 -1.6337566
-5.1075344 1.3674231 -1.6022302
-5.0658169 1.3777258 -1.5758042
-5.0193605 1.3809793 -1.543998
-4.973455 1.3680246 -1.5078889
-4.8819642 1.3765557 -1.4458642
-4.8358369 1.377445 -1.4136056
-4.7897091 1.3783345 -1.3813468
-4.8510661 1.3948252 -1.4293708
-4.9371934 1.4126401 -1.4952394
-4.9892254 1.4249723 -1.5354867
-5.0331364 1.4307256 -1.5681056
-5.0787854 1.4665732 -1.6106589
-5.1415849 1.4368179 -1.6463161
-5.161931 1.4392815 -1.6613716
-5.1883693 1.4312 -1.6776694
-5.1973 1.4247038 -1.6820849
-5.2741365 1.384999 -1.7247577
-5.2867708 1.38713 -1.7342805
-5.3146229 1.3960619 -1.7564988
-1.6931787 -1.5328896 1.6439756
-1.6503639 -1.5132778 1.6684808
-1.599555 -1.501525 1.7008958
-1.6206796 -1.5240042 1.6925101
-2.702893 -1.5294046 0.93119943
-6.1535358 -1.4975133 -1.5104566
-6.0425348 -1.5098289 -1.4286456
-6.0298805 -1.5345931 -1.4125583
-6.0492601 -1.5250826 -1.4289718
-6.1669865 -1.5280206 -1.5111091
-6.2499256 -1.495775 -1.5789067
-6.3018098 -1.5048971 -1.6128407
-6.4075928 -1.4547505 -1.7019219
-6.4310884 -1.4530418 -1.7189789
-6.4389229 -1.4180825 -1.7346188
-6.4445992 -1.3895085 -1.7468894
-6.4361238 -1.4124435 -1.7342774
-6.4000888 -1.4462216 -1.6991003
-0.94716263 -1.4669544 2.1507752
-0.920614 -1.4661965 2.1692705
-0.88412285 -1.4692965 2.1958909
-0.85716367 -1.4703038 2.2151864
-0.76307392 -1.4532487 2.2765765
-0.71154213 -1.3622335 2.2865622
-0.029477119 -1.5433195 2.8197701
-0.046011448 -1.5483499 2.8095706
-0.075623751 -1.5441647 2.7874849
-0.095434427 -1.5370033 2.7714477
-0.15775776 -1.5405684 2.7285464
-0.089575291 -1.5265658 2.7725573
-0.034208059 -1.5274727 2.8118491
-0.013755083 -1.5298932 2.8269672
0.0063662529 -1.5346789 2.8425362
0.045945406 -1.5489807 2.8745754
-0.0034742355 -1.537678 2.8364675
-1.988839 -1.5238464 1.4329416
-1.8316116 -1.5354912 1.5471443
-1.9822741 -1.5086774 1.4331795
-2.0194917 -1.5161098 1.4090949
-2.0913315 -1.5201857 1.3596333
-2.1691146 -1.5347002 1.309003
-2.0989413 -1.54245 1.3607122
-2.0880249 -1.5431151 1.3686
-2.0610065 -1.5303667 1.3839563
-2.0349836 -1.5247135 1.4006644
-0.33553243 -1.2307405 2.5135643
-0.20428014 -1.1311097 2.5772533
-0.14399838 -1.0744293 2.6033437
-0.2184689 -0.93740505 2.5111928
-0.22869539 -0.93619478 2.5036335
-0.26180792 -0.93680096 2.4804673
-0.34168959 -0.98745966 2.438818
-0.35376644 -1.0122671 2.437484
-0.37859249 -1.0543503 2.4321625
-0.45699716 -1.5254073 2.5132189
-0.49591279 -1.5063751 2.4802785
-0.48235655 -1.52633 2.4956098
0 0 0 1 0 0 0 1 0 0 0 1 0 0 0 0 0 597 1 0 0
