ply
format ascii 1.0
comment PCL generated
element vertex 607
property float x
property float y
property float z
element camera 1
property float view_px
property float view_py
property float view_pz
property float x_axisx
property float x_axisy
property float x_axisz
property float y_axisx
property float y_axisy
property float y_axisz
property float z_axisx
property float z_axisy
property float z_axisz
property float focal
property float scalex
property float scaley
property float centerx
property float centery
property int viewportx
property int viewporty
property float k1
property float k2
end_header
-1.1201679 -0.54823214 -5.0921454
-1.1291687 -0.42807233 -5.1150513
-1.0981272 -0.36860663 -5.0344419
-1.0830345 -0.36887205 -4.9953485
-1.0533972 -0.38940322 -4.9186492
-1.0397542 -0.50965095 -4.8837194
-1.0840728 -0.58886492 -4.9987869
-0.75581872 1.3853282 -4.1417933
-0.7844342 1.380841 -4.2159309
-0.81621802 1.3613904 -4.2983265
-0.81881869 1.3464376 -4.3051138
-0.82230926 1.3065012 -4.314291
-0.8215847 1.1864882 -4.3128233
-0.81670403 1.026428 -4.3007259
-0.81588829 0.98641312 -4.298749
-0.82099664 0.94647789 -4.3121166
-0.82108772 0.86647952 -4.3126254
-0.81611598 0.7864176 -4.3000193
-0.81616163 0.74641842 -4.3002739
-0.81201994 0.66634864 -4.2898183
-0.81704354 0.63640648 -4.3029327
-0.81036079 0.54631335 -4.2859297
-0.81551468 0.46637893 -4.299552
-0.81649506 0.42640209 -4.302227
-0.8181895 0.38642764 -4.3067522
-0.81063402 0.30631864 -4.2874541
-0.81514704 0.22638847 -4.2994165
-0.82535267 0.14655818 -4.3261237
-0.81217813 0.066355959 -4.2922707
-0.81353664 0.026371881 -4.2959261
-0.82045865 -0.093530372 -4.3142638
-0.81621885 -0.25359482 -4.3038268
-0.81729209 -0.27358916 -4.306675
-0.8178401 -0.29357588 -4.3081622
-0.80535698 -0.35378298 -4.2760324
-0.80451858 -0.37379134 -4.2739286
-0.79787171 -0.39390305 -4.2567801
-0.80041742 -0.55387241 -4.2639189
-0.80107927 -0.67386371 -4.2660418
-0.80270052 -0.71384478 -4.2703772
-0.79126275 -0.83403832 -4.2411594
-0.80275881 -0.91377288 -4.2712088
-0.83265388 -0.97081429 -4.3488398
-0.83057868 -0.99333787 -4.3435411
-0.83281624 -1.1133111 -4.3497458
-0.83343244 -1.1933033 -4.351614
-0.83307517 -1.340806 -4.3511906
-0.83318055 -1.4333041 -4.3517785
-0.83336031 -1.4758016 -4.3523889
-0.81550741 -1.4735986 -4.3061371
-0.80243087 -1.4738064 -4.2722659
-0.79595041 -1.4739151 -4.2554803
-0.76551676 -1.4869487 -4.1766925
-0.73371863 -1.4549983 -4.0942173
-0.71474874 -1.4353429 -4.0450134
-0.68790066 -1.395859 -3.9753344
-0.65075517 -1.4365038 -3.8792553
-0.6280781 -1.436833 -3.8205163
-0.5934692 -1.4859153 -3.7310362
-0.59044975 -1.476323 -3.7231822
-0.5599364 -1.4380993 -3.6440136
-0.55649149 -1.4381618 -3.6350906
-0.51556402 -1.5201851 -3.529356
-0.50609207 -1.5264928 -3.5048425
-0.48564154 -1.5404805 -3.4519172
-0.4717651 -1.5359644 -3.4159579
-0.44000077 -1.5290282 -3.3336554
-0.42621392 -1.526775 -3.297936
-0.40448409 -1.4842502 -3.2415047
-0.39030606 -1.4824243 -3.2047732
-0.34338516 -1.4207581 -3.0830245
-0.31374967 -1.4437863 -3.0063386
-0.30001235 -1.4840322 -2.970892
-0.2849198 -1.4843007 -2.9317989
-0.27035075 -1.4845608 -2.8940616
-0.25490308 -1.4048356 -2.8537765
-0.26676172 -1.3246213 -2.8842206
-0.252361 -1.2448786 -2.846647
-0.25336134 -1.204862 -2.849102
-0.25198859 -1.1498851 -2.8453588
-0.25173527 -1.0448896 -2.8443456
-0.23987836 -1.0050973 -2.8134971
-0.2319119 -0.92524499 -2.7925899
-0.20378464 -0.88574106 -2.7195976
-0.19001132 -0.88598061 -2.6839216
-0.13734037 -0.8869285 -2.5474918
-0.11504966 -0.87732267 -2.4897199
-0.10337117 -0.8875342 -2.4595039
-0.08754006 -0.92781514 -2.4186339
-0.055743873 -0.96837938 -2.3364105
-0.028222561 -0.93387228 -2.2650051
-0.010250956 -0.9341892 -2.2184544
-0.0084755123 -0.88922107 -2.2137024
0.021638691 -0.81975543 -2.1354616
0.053664684 -0.81282365 -2.0524814
0.07501635 -0.85071099 -1.9973035
0.1090236 -0.93130517 -1.9094892
0.11773071 -1.0114597 -1.8872081
0.097015709 -1.0910996 -1.9411371
0.057413459 -1.1703954 -2.0439882
0.023073465 -1.1697853 -2.1329367
0.0032182634 -1.2044299 -2.1844854
-0.0038130581 -1.2492959 -2.2028513
-0.033614099 -1.2887653 -2.280179
-0.04887569 -1.2884934 -2.3197098
-0.065844148 -1.3256932 -2.3637898
-0.10955435 -1.3274133 -2.4770176
-0.12520534 -1.3571353 -2.5176592
-0.14920849 -1.3667173 -2.5798671
-0.11702269 -1.4472879 -2.4967709
-0.070229977 -1.4956193 -2.3757288
-0.057298809 -1.4883509 -2.3422086
-0.055575848 -1.4883817 -2.3377457
-0.039250851 -1.48867 -2.2954602
-0.010112643 -1.4891899 -2.2199857
0.016646653 -1.5096698 -2.1507411
0.056178957 -1.4903728 -2.0482755
0.067378402 -1.4905733 -2.0192661
0.091427118 -1.4509989 -1.9568384
0.10779551 -1.451292 -1.9144406
0.13778144 -1.491824 -1.8369063
0.16707228 -1.4923483 -1.7610364
0.19725743 -1.4928857 -1.68285
0.21260299 -1.5006586 -1.643127
0.22901297 -1.4934494 -1.600596
0.24350579 -1.4937071 -1.5630562
0.25945985 -1.4939911 -1.5217316
0.28991258 -1.4895331 -1.4428351
0.32084742 -1.4550821 -1.3625876
0.3492243 -1.5005901 -1.2892382
0.37367958 -1.5031898 -1.2259009
0.39422184 -1.5035866 -1.1726918
0.40854183 -1.5066471 -1.1356094
0.41931593 -1.5040466 -1.1076925
0.43803552 -1.5043973 -1.0592046
0.46198916 -1.5048152 -0.99715912
0.49581921 -1.5054642 -0.90953171
0.50856811 -1.5056829 -0.87650913
0.53169608 -1.5061258 -0.81660247
0.54030889 -1.5112789 -0.79431045
0.57076025 -1.506842 -0.71541762
0.59886187 -1.5073456 -0.64262795
0.61341476 -1.5226104 -0.60498363
0.64516491 -1.5207065 -0.52273524
0.67274272 -1.5236969 -0.45131099
0.71828014 -1.524538 -0.33335876
0.75003338 -1.5201343 -0.25109375
0.78178656 -1.5157305 -0.16882879
0.81353974 -1.5113268 -0.086563826
0.82863212 -1.511605 -0.047471166
0.85489243 -1.5270619 0.020497918
0.88664258 -1.5251582 0.10274637
0.9048751 -1.5130159 0.15001523
0.95975155 -1.5339897 0.2920897
0.97955567 -1.5143872 0.34345484
1.0094707 -1.522437 0.42091596
1.0232611 -1.5226821 0.45663631
1.0370547 -1.5204272 0.49237323
1.0677664 -1.5159972 0.57194042
1.0963857 -1.5190138 0.64606249
1.0981126 -1.5165446 0.65054405
1.100583 -1.4941201 0.65701938
1.1033338 -1.4766376 0.66420436
1.1051573 -1.3966701 0.66919982
1.1696565 -1.3978486 0.83626747
1.2151878 -1.4036896 0.95418668
1.2633171 -1.3995769 1.0788696
1.2965854 -1.4477317 1.1648803
1.3200593 -1.4006176 1.2258449
1.3439211 -1.3610669 1.2877882
1.3741058 -1.3616234 1.3659735
1.4180125 -1.4174237 1.4795144
1.4566734 -1.4031428 1.579706
1.4945345 -1.4038416 1.6777747
1.5098872 -1.4041264 1.7175417
1.5408686 -1.392203 1.7978332
1.5707774 -1.4052526 1.8752611
1.5856093 -1.4055241 1.9136791
1.6297952 -1.4463314 2.0279942
1.661592 -1.4069285 2.1104913
1.6774966 -1.3822272 2.1517727
1.7082207 -1.3677973 2.2314065
1.7527165 -1.3686121 2.3466606
1.7818598 -1.3691422 2.422148
1.8030663 -1.3695232 2.4770777
1.811003 -1.3696722 2.4976356
1.8111523 -1.249675 2.498431
1.8113018 -1.1296779 2.4992268
1.8110912 -1.0896723 2.4988174
1.8116617 -1.0496866 2.5004313
1.8104967 -0.9396562 2.4977884
1.8096473 -0.92964107 2.4956222
1.8054373 -0.8495664 2.4849899
1.8115734 -0.76717567 2.5011644
1.8102374 -0.72964811 2.4978316
1.8101263 -0.60964429 2.4979525
1.8023382 -0.56951189 2.4779155
1.7905099 -0.40294075 2.447844
1.8099045 -0.36963701 2.4981947
1.8291613 -0.37127092 2.54807
1.8231794 -0.32991466 2.5327158
1.8112984 -0.21827069 2.5023208
1.815557 -0.17837425 2.5134876
1.8148609 -0.058327883 2.5120933
1.8225762 -0.023392648 2.5321968
1.82258 -0.018392727 2.5322237
1.8470166 0.10117675 2.5959289
1.8640094 0.15595068 2.6401312
1.8619047 0.18095513 2.6347649
1.8571756 0.2210585 2.6226516
1.8204631 0.34160656 2.527966
1.8229128 0.42159975 2.5345838
1.8229222 0.4340995 2.5346508
1.8153051 0.54161525 2.5152864
1.8050812 0.66182315 2.4892128
1.8157219 0.74161118 2.5170467
1.8169048 0.90160596 2.5206554
1.817997 0.94160295 2.5236206
1.8259718 0.98149097 2.5444138
1.8223047 1.0215919 2.5350516
1.8062407 1.1418132 2.4938502
1.8054576 1.1593146 2.4918814
1.7909428 1.2220333 2.4544971
1.7870517 1.3420404 2.4448266
1.7722241 1.3422607 2.4064198
1.7462571 1.3051933 2.3390315
1.7131793 1.3431412 2.25348
1.6827393 1.3585833 2.1746838
1.6647338 1.3688107 2.1280794
1.6371911 1.3542466 2.0566862
1.6054218 1.3671919 1.9744384
1.5598736 1.3628552 1.8564408
1.5461004 1.3530732 1.8207309
1.486775 1.3339547 1.6669962
1.4687847 1.3641819 1.6204989
1.4550134 1.3568997 1.5848024
1.4094689 1.357563 1.4668314
1.3956975 1.350281 1.4311347
1.3678685 1.3082181 1.3589065
1.3363703 1.3286626 1.2773867
1.3234822 1.3493222 1.2440729
1.3046087 1.3516076 1.1951928
1.2917507 1.3624179 1.1619236
1.2352591 1.3409323 1.015521
1.1899819 1.341767 0.89824295
1.1751499 1.3420386 0.85982513
1.1592952 1.3573363 0.81880856
1.1467879 1.3425487 0.78636074
1.099961 1.3534229 0.6651026
1.0820045 1.3537738 0.61859119
1.0723832 1.3564131 0.59367847
1.0544236 1.3542641 0.54715037
1.036464 1.352115 0.50062239
1.0278717 1.3447284 0.4783411
1.0122586 1.3450198 0.43789959
0.99924308 1.3402452 0.40416932
0.97713286 1.3507017 0.34693301
0.96750236 1.3458412 0.3219707
0.91780496 1.3517882 0.19326043
0.86029357 1.3478284 0.044275761
0.85847712 1.3528746 0.039587855
0.81293654 1.351216 -0.078381062
0.79914302 1.3489611 -0.11411798
0.76740223 1.3545573 -0.19631666
0.73981822 1.3525475 -0.26777399
0.71051037 1.3505688 -0.34369648
0.69011468 1.3534946 -0.39651734
0.66409296 1.3514454 -0.46392804
0.66253066 1.3514851 -0.46797472
0.63667357 1.3519448 -0.53495049
0.61699945 1.3573261 -0.58589387
0.58940923 1.3503169 -0.65738434
0.57145888 1.3556676 -0.70386267
0.53870344 1.35375 -0.78871512
0.49781668 1.3545125 -0.89462113
0.49418065 1.3621049 -0.90401363
0.46659356 1.3575953 -0.97548753
0.44863698 1.3579462 -1.021999
0.42519733 1.3383313 -1.0827812
0.40309644 1.3562876 -1.1399678
0.39390957 1.3586121 -1.1637565
0.37966299 1.3416725 -1.200717
0.35254911 1.3518527 -1.270915
0.32079357 1.3524163 -1.3531691
0.27942142 1.3356569 -1.460392
0.24767753 1.3462205 -1.5425818
0.22783983 1.3265755 -1.5940341
0.21851601 1.3267407 -1.6181849
0.20473208 1.3269875 -1.6538885
0.18417519 1.3548476 -1.7070417
0.15658697 1.3378415 -1.7785611
0.12900743 1.3283353 -1.8500326
0.097269386 1.3438987 -1.9321902
0.079309464 1.3542154 -1.9786766
0.033767015 1.3525258 -2.0966504
-0.0076109171 1.3307666 -2.2039051
-0.025565028 1.3460833 -2.2503593
-0.056596309 1.3316387 -2.3307886
-0.071107388 1.3443936 -2.3683329
-0.084882617 1.3521403 -2.4039884
-0.11245042 1.352634 -2.4753952
-0.13041037 1.3629506 -2.5218816
-0.14419729 1.3606974 -2.5576012
-0.17594695 1.366261 -2.639823
-0.19821733 1.3741548 -2.6974831
-0.22147769 1.3745712 -2.7577324
-0.25323898 1.3701351 -2.8400187
-0.28081262 1.3656287 -2.9114575
-0.30840385 1.3461227 -2.9829931
-0.32222563 1.3138702 -3.0189054
-0.37189448 1.3647497 -3.1473889
-0.3214609 1.2963575 -3.016984
-0.33616984 1.17662 -3.0554924
-0.33621645 1.136621 -3.0557492
-0.28809249 1.1357642 -2.931097
-0.29164869 0.97582722 -2.9408531
-0.32271224 0.89637947 -3.0215874
-0.31931293 0.85631883 -3.0129185
-0.32342225 0.73639202 -3.0239711
-0.32351547 0.65639377 -3.0244851
-0.32391709 0.53640085 -3.0259337
-0.33879453 0.49666607 -3.0646057
-0.3567037 0.45698404 -3.1111307
-0.36990482 0.37721926 -3.145597
-0.35870641 0.21702032 -3.1171355
-0.37018448 0.13722472 -3.1471386
-0.3853237 0.097494319 -3.1864886
-0.4002012 0.057759538 -3.2251611
-0.45078558 0.1977217 -3.3557127
-0.45083475 0.23771398 -3.3557038
-0.46594137 0.35799837 -3.3944249
-0.46589088 0.39799732 -3.3941579
-0.46062875 0.45883405 -3.3803203
-0.45113534 0.53866488 -3.3554578
-0.45516336 0.55780041 -3.3658266
-0.45357996 0.65870833 -3.3613815
-0.45525634 0.6987384 -3.3655875
-0.41361898 0.79703999 -3.2574003
-0.41039187 0.85793972 -3.2488337
-0.41376203 0.92299998 -3.2573419
-0.41374463 0.93799961 -3.2572458
-0.41260439 1.0179803 -3.25402
-0.41229612 1.0579749 -3.2530851
-0.42698699 1.1782366 -3.2907293
-0.41153949 1.2579618 -3.2504447
-0.051540792 0.69155204 -2.3198724
-0.020645678 0.85100222 -2.2393022
-0.0357382 0.85127103 -2.2783954
0.0093243718 0.89046836 -2.1615367
-0.02015081 1.0509934 -2.2373395
-0.064334989 1.0917811 -2.3516505
-0.093198776 0.97229469 -2.4268227
-0.11120111 0.8526144 -2.4738612
-0.11160272 0.73262155 -2.4753103
0.023968697 0.73020768 -2.1241493
0.008689642 0.57048005 -2.1642704
-0.021280408 0.53101391 -2.2420359
-0.0061877966 0.53074521 -2.2029424
0.024072558 0.37020707 -2.1251059
-0.036606133 0.33128715 -2.2824137
-0.051820517 0.45155746 -2.321414
-1.0733292 -0.94907725 -4.9721842
-1.08873 -0.98880792 -5.0122118
-1.1028179 -1.0285537 -5.0488396
-1.1179562 -1.0682874 -5.0881872
-1.1474904 -1.1877629 -5.1650958
-1.1485864 -1.2277501 -5.1680708
-1.1631993 -1.2674897 -5.206058
-1.1931819 -1.3194607 -5.2838984
-1.2077806 -1.3467008 -5.321806
-1.1920717 -1.266974 -5.2808437
-1.192814 -1.2269658 -5.2826304
-1.191718 -1.1869787 -5.2796555
-1.2075075 -1.1067061 -5.3202815
-1.2323154 -0.98627847 -5.384131
-1.2313632 -0.9062959 -5.381392
-1.2304562 -0.86631244 -5.3789072
-1.2389041 -0.78616434 -5.4005165
-1.2388585 -0.74616528 -5.4002619
-1.2389845 -0.62616491 -5.4001799
-1.2394642 -0.58615977 -5.4012861
-1.2256947 -0.46639958 -5.3652115
-1.2256491 -0.42640048 -5.3649573
-1.226442 -0.36637932 -5.366807
-1.2264192 -0.34638661 -5.3666797
-1.2255353 -0.32639584 -5.3643222
-1.2388144 -0.24616353 -5.3984456
-1.2244918 -0.16641507 -5.3610749
-1.22703 -0.12636903 -5.3675132
-1.2149862 -0.046559751 -5.3360443
-1.2268476 0.033627436 -5.3664961
-1.2250341 0.11359434 -5.361526
-1.2309262 0.23370121 -5.376379
-1.2265289 0.31362122 -5.364717
-1.2473098 0.47401965 -5.4179997
-1.2756571 0.47452939 -5.491425
-1.2756115 0.51452857 -5.4911714
-1.2246375 0.55361468 -5.3590007
-1.1748363 0.51273811 -5.2301402
-1.1577586 0.51243842 -5.185905
-1.1302024 0.47195542 -5.1146646
-1.1273561 0.47190547 -5.1072922
-1.1062379 0.4315483 -5.0527272
-1.079235 0.43107706 -4.9827833
-1.0641879 0.39081252 -4.943944
-1.0504535 0.35056311 -4.9085054
-1.0367196 0.31031358 -4.8730674
-1.0367793 0.25781482 -4.8734007
-1.0309321 0.19023688 -4.8584847
-1.0300741 0.15023898 -4.8563986
-1.0293008 0.1102073 -4.8545318
-1.0328254 0.040271476 -4.8638992
-1.0294374 -0.0097899884 -4.8552942
-1.0260836 -0.089850798 -4.846879
-1.0268857 -0.12986439 -4.8490934
-1.0260701 -0.16987914 -4.8471169
-1.0261841 -0.26988375 -4.8477526
-1.0236402 -0.30492309 -4.8412828
-1.0236686 -0.32992935 -4.8414412
-1.0242167 -0.3499229 -4.8429289
-1.0242394 -0.36991563 -4.8430557
-1.0240452 -0.42992413 -4.8427572
-1.0243534 -0.46992022 -4.8436918
-1.0243988 -0.50991935 -4.8439455
-1.0257573 -0.54990339 -4.8476005
-1.025803 -0.58990252 -4.8478551
-1.0282376 -0.65237403 -4.8543739
-1.0300255 -0.70984149 -4.8592005
-1.0432242 -0.78960866 -4.8936605
-1.0432699 -0.82960773 -4.8939152
-1.0578828 -0.86934745 -4.9319019
0.60576403 0.27249873 -0.61868995
0.57577854 0.43305129 -0.69581449
0.54539466 0.27361161 -0.77506036
-0.46953744 0.078087583 -3.4046926
-0.46987945 -0.020998627 -3.405916
-0.41443336 -0.10198572 -3.2625704
-0.61594093 1.3828642 -3.7794778
-0.60213441 1.3826426 -3.7437158
-0.56816834 1.3461674 -3.655858
-0.54230863 1.3857458 -3.5887392
-0.52681106 1.385493 -3.5485969
-0.5130353 1.3852684 -3.5129144
-0.49961245 1.3760493 -3.4781768
-0.49472028 1.3744341 -3.4655101
-0.46297044 1.3688706 -3.3832879
-0.45407498 1.3702091 -3.3602414
-0.4201948 1.3571366 -3.2725265
-0.39742297 1.3567165 -3.2135425
-0.1123668 -0.14736298 -2.4802852
-0.13392001 -0.066979364 -2.5358405
-0.12775546 0.04791005 -2.5194817
-0.09699443 0.092362925 -2.4396503
-0.051763326 0.051557735 -2.3226275
-0.021531582 0.091019467 -2.2441845
-0.0064389408 0.090750799 -2.205091
0.038745522 0.0099465251 -2.0883253
-0.0064103901 -0.1092491 -2.205698
0.053913265 -0.15032294 -2.049582
0.024088532 -0.28979805 -2.1273117
0.0092577338 -0.28953373 -2.1657267
-0.0063350797 -0.26924989 -2.2060475
0.12926283 0.80833161 -1.8511412
0.14349389 0.80807829 -1.8142796
0.17441761 0.76752871 -1.7343163
0.1888935 0.68727058 -1.6970928
0.18884686 0.64727151 -1.6973498
0.15909193 0.56780189 -1.7746942
0.11402929 0.52860445 -1.8915528
0.08415252 0.56913662 -1.9688044
0.083768934 0.68914264 -1.9693894
0.098122925 0.72888619 -1.9320731
-0.21822244 0.57451916 -2.7520242
-0.17086679 0.65367603 -2.6290898
-0.1724965 0.7337051 -2.633039
-0.20201826 0.854231 -2.7090986
-0.17412627 0.81373417 -2.6369882
-0.14164805 0.85315633 -2.5527258
-0.17059976 1.0136725 -2.6271727
0.74201643 0.18998341 -0.26603794
0.71074039 0.15056728 -0.34718603
0.65125167 0.23165838 -0.50100291
0.65053177 0.071675494 -0.50341237
-0.051465571 0.5315513 -2.3202224
-0.082267404 0.45209926 -2.4002783
-0.12719017 0.5328992 -2.516366
-0.12688178 0.57289386 -2.5154312
-0.081772536 0.65209037 -2.3983154
-0.74904716 1.1052532 -4.1252069
-0.68957818 1.0042028 -3.9715087
-0.75006294 0.90526652 -4.1285186
-0.77954078 1.0657878 -4.2043285
0.069264472 0.96940064 -2.006006
0.099094629 0.88886952 -1.9290115
0.12677157 0.88837612 -1.8573217
0.17438899 0.96752858 -1.7337096
0.19005167 1.0072502 -1.6930034
0.17566909 1.1675066 -1.729713
0.13039133 1.1683125 -1.8469925
0.11843637 1.1285249 -1.8780949
0.099636108 1.1288598 -1.9267919
0.069404334 1.0893979 -2.0052352
0.3104572 0.7176072 -1.3821045
0.31051254 0.76510614 -1.3817993
0.29603666 0.84536421 -1.4190228
0.2502355 0.84617913 -1.5376583
0.22024852 0.72671247 -1.6157401
0.22278637 0.68666714 -1.6093025
0.22187825 0.64668345 -1.6117909
0.28061771 0.5656392 -1.4599147
0.29501837 0.64538193 -1.4223413
-0.24779093 0.65504593 -2.828341
-0.24769765 0.73504412 -2.827827
1.4034253 -0.80215383 1.4438243
1.4488518 -0.68299139 1.5618975
1.4945998 -0.72383833 1.680259
1.5166485 -0.88424182 1.7368255
1.4684756 -0.92335367 1.6119106
1.4639057 -0.9232704 1.6000736
1.4337211 -0.92271394 1.5218885
1.4035748 -0.68215668 1.4446199
1.343255 -0.6410448 1.2885144
1.3206453 -0.72062749 1.2296777
1.3430061 -0.8410399 1.2871885
0.69646758 0.3908264 -0.38333887
0.66134155 0.5114764 -0.47391456
0.62100577 0.39221758 -0.57880193
0.66566253 0.31139803 -0.46340328
0.66483897 0.55141407 -0.4647193
0.65153909 0.67165428 -0.49876058
0.69691575 0.75081766 -0.38095248
0.74235356 0.66997826 -0.26353055
0.70687902 0.51063514 -0.35596228
0.69661695 0.51082349 -0.38254339
-0.066780686 -0.10817435 -2.3620706
-0.051530212 0.25155324 -2.3213429
-0.11194712 0.21262889 -2.4779725
-0.12483877 0.33285737 -2.5109563
-0.096883148 0.41236007 -2.4382725
-0.41474175 -0.14198042 -3.2635052
-0.4286887 -0.28173739 -3.3001077
-0.48829764 -0.28290343 -3.4545159
-0.4950251 -0.21921735 -3.4717252
-0.47925532 -0.12171825 -3.4305451
0.35733205 0.96427357 -1.2598454
0.34264109 1.0845351 -1.2974898
0.29662481 1.1253535 -1.4165462
0.281084 0.96563017 -1.4573451
0.30548346 0.88519585 -1.3944174
-0.70368183 1.3844302 -4.0067468
-0.67957318 1.3789922 -3.9443169
-0.66579068 1.3812418 -3.9086084
-0.64781773 1.3734435 -3.8620801
1.1398816 -1.2773015 0.75955236
1.1681318 -1.2378218 0.83286309
1.1697447 -1.1178488 0.83744907
1.1396596 -1.0372941 0.75979435
1.1264902 -0.87705058 0.7262274
1.0617479 -0.9558993 0.5582577
1.0616982 -0.99589825 0.55799258
1.0743837 -1.0761553 0.59057868
1.0711286 -1.1160796 0.58201098
1.0658711 -1.1559464 0.56825697
1.0870726 -1.2688805 0.62279046
1.1094365 -1.2767385 0.68069255
0.77200192 0.029430851 -0.1889134
0.80090356 0.10890098 -0.11377919
0.84811503 0.068030015 0.0083729029
0.86266708 -0.092242196 0.045521259
0.83269298 -0.13169137 -0.032254577
0.80060482 -0.13109317 -0.11537015
0.85983014 -0.79221469 0.035789728
0.84909707 -0.7520141 0.0081248283
0.78778577 -0.67087674 -0.15041292
0.78757513 -0.63087106 -0.15082216
0.8027671 -0.55115122 -0.11119926
0.86381811 -0.63228196 0.046664238
0.86402863 -0.6722877 0.047073364
0.77828598 -0.75070173 -0.17529178
0.74183857 -0.79002583 -0.26983511
0.77260518 -0.95059824 -0.19068718
0.78769755 -0.95087647 -0.15159464
0.82185066 -0.95150745 -0.063130379
0.8597306 -0.87221277 0.035259485
-0.71133411 1.379541 -4.0265846
0.067890048 0.52942592 -2.0110641
0.023997337 0.53020787 -2.1247561
0.063302875 0.28950852 -2.0237629
0.068995327 0.28940719 -2.0090182
0.098965317 0.32887334 -1.9312528
0.11419782 0.44860184 -1.8913887
0.72766685 -0.049758956 -0.30402368
0.75349295 -0.010224164 -0.236992
-0.021764636 -0.10897602 -2.2454689
0.42557079 -0.24418958 -1.0872015
0.44035298 -0.28446022 -1.0490485
0.48536962 -0.28528827 -0.93244517
0.48608956 -0.1253054 -0.93003565
0.41613513 -0.15677151 -1.1113449
-0.50507176 -0.64260995 -3.4991903
-0.44447899 -0.68362498 -3.3423772
-0.45969421 -0.8033703 -3.3821967
-0.52132744 -0.72008902 -3.5415611
0.6803565 -0.0088723749 -0.42643189
-0.45999783 -0.84336281 -3.3831193
-0.52137405 -0.76008815 -3.5418179
-0.52755481 -0.89366031 -3.5582826
0 0 0 1 0 0 0 1 0 0 0 1 0 0 0 0 0 607 1 0 0
