ply
format ascii 1.0
comment PCL generated
element vertex 583
property float x
property float y
property float z
element camera 1
property float view_px
property float view_py
property float view_pz
property float x_axisx
property float x_axisy
property float x_axisz
property float y_axisx
property float y_axisy
property float y_axisz
property float z_axisx
property float z_axisy
property float z_axisz
property float focal
property float scalex
property float scaley
property float centerx
property float centery
property int viewportx
property int viewporty
property float k1
property float k2
end_header
-7.2726564 -1.5443754 -1.8779314
-7.2875123 -1.5696352 -1.8903923
-7.3802662 -1.5552145 -1.9540466
-7.4311447 -1.5309272 -1.9876174
-7.4780569 -1.4908012 -2.0171137
-7.4429231 -1.4481349 -1.9890472
-7.4696589 -1.2894657 -1.9946977
-7.5097427 -1.2505603 -2.019521
-7.4534435 -1.1293511 -1.9702047
-7.4666777 -1.0506179 -1.9729856
-7.4668674 -1.0106678 -1.9698359
-7.5737281 -0.9284085 -2.037776
-7.5973644 -0.89034176 -2.0511711
-7.6082959 -0.81017232 -2.0522244
-7.6112471 -0.73050559 -2.0477407
-7.6188664 -0.61080432 -2.0432301
-7.5866489 -0.45070964 -2.0075524
-7.592248 -0.38087088 -2.0057271
-7.5976901 -0.30142954 -2.0030031
-7.5974092 -0.17908406 -1.9927527
-7.5749359 -0.097899318 -1.9703714
-7.5731792 -0.058268785 -1.965887
-7.5852723 0.058596969 -1.9647366
-7.564755 0.10329914 -1.9467205
-7.556612 0.14252162 -1.9378051
-7.562479 0.21924686 -1.9356014
-7.557209 0.3381384 -1.9221469
-7.5401869 0.41908365 -1.9035959
-7.5755672 0.5380252 -1.9185542
-7.570137 0.65010589 -1.9055476
-7.5730658 0.65983683 -1.9067953
-7.5785079 0.73927826 -1.9040715
-7.5634694 0.81858665 -1.8870414
-7.5569229 0.85791105 -1.8792337
-7.5381527 0.89880604 -1.8627516
-7.5326929 0.97872645 -1.8523676
-7.3928719 1.064954 -1.7475399
-7.3845687 1.1439092 -1.7352474
-7.3888392 1.1739891 -1.7357608
-7.3886461 1.1864944 -1.7345979
-7.4021978 1.2227576 -1.7410913
-7.4091139 1.3410561 -1.7362047
-7.4025679 1.3803806 -1.728397
-7.4367743 1.3595595 -1.7540201
-7.4376526 1.3397443 -1.7562624
-7.4494691 1.1815283 -1.7775244
-7.2797775 -1.5240566 -1.8812399
-7.3055468 -1.4834833 -1.8959193
-7.3080244 -1.3633153 -1.8877764
-7.3472595 -1.2050447 -1.9021975
-7.3216667 -1.1240135 -1.8776479
-7.3262138 -1.0442462 -1.8742716
-7.3290453 -0.92484665 -1.8664387
-7.308403 -0.88423222 -1.8486712
-7.3697481 -0.85589945 -1.8892263
-7.3951092 -0.72830814 -1.8964696
-7.3927288 -0.68812472 -1.8915035
-7.3972626 -0.64869165 -1.8914322
-7.4693985 -0.48518568 -1.9284221
-7.3958635 -0.45007777 -1.8741325
-7.383419 -0.44354799 -1.8648967
-7.391201 -0.36456528 -1.8638459
-7.3942723 -0.32463136 -1.8627115
-7.3957481 -0.284798 -1.8604698
-7.4243798 -0.17446363 -1.8714176
-7.4343004 -0.094932139 -1.8718166
-7.4317222 -0.01502347 -1.8634479
-7.4373245 0.024685323 -1.8641012
-7.4676032 0.14310491 -1.8755358
-7.5330048 0.21991098 -1.9149429
-7.468399 0.34186953 -1.8597584
-7.3402157 0.42511791 -1.7633109
-7.3432398 0.54473525 -1.7555953
-7.5041203 0.53973061 -1.8684694
-7.5117826 0.61970562 -1.8672537
-7.3987432 0.74425215 -1.7779988
-7.398263 0.86344963 -1.7678676
-7.372757 0.90469795 -1.7466483
-7.3772264 0.984469 -1.7432171
-5.9312286 1.3829358 -0.69965208
-5.8795028 1.3733995 -0.66427708
-5.8372564 1.3732476 -0.63475734
-5.8038235 1.3673193 -0.61187327
-5.7670183 1.372251 -0.58573961
-5.7055621 1.3828907 -0.54190439
-5.7721128 1.3782241 -0.58880991
-5.8180223 1.3729551 -0.6213358
-5.8553619 1.3830318 -0.64660984
-5.8816252 1.4045813 -0.66319811
-5.8932495 1.4177437 -0.67024267
-5.9249821 1.416636 -0.69251603
-5.9540787 1.4284306 -0.71188688
-5.9888186 1.4294455 -0.7360881
-5.9837246 1.4234726 -0.73301798
-5.9577093 1.4094281 -0.71598643
-0.082065105 -1.5268466 3.1500688
-0.10273886 -1.5286651 3.1354673
-0.13013792 -1.5253191 3.1165891
-0.10320663 -1.5179303 3.1360223
-0.056696892 -1.5261128 3.1678627
-3.6224895 -0.76580173 0.73768699
-3.4843726 -0.76004702 0.83471012
-3.4096007 -0.84604311 0.8799122
-3.3204434 -0.7633698 0.94903111
-3.2947233 -0.76995766 0.96646935
-3.2869973 -0.77817929 0.97119457
-3.2625563 -0.81985474 0.98485506
-3.2952328 -0.9387964 0.95223856
-3.2981491 -0.97657412 0.94709539
-3.2840257 -1.0569447 0.95036352
-3.2668309 -1.1772492 0.9524973
-3.2931581 -1.3343545 0.92118281
-3.264204 -1.4630487 0.93084741
-3.2428091 -1.4835877 0.94411552
-3.2839386 -1.4873222 0.91505718
-3.3351946 -1.4791257 0.87990052
-3.2944434 -1.3344712 0.92027473
-3.3108702 -1.2999226 0.91163069
-3.3191948 -1.1373726 0.91916937
-3.3264332 -1.0975716 0.91738027
-3.4452882 -0.99666309 0.84258729
-3.5488629 -1.1341712 0.75888377
-3.5707479 -1.1739167 0.74031883
-3.5762112 -1.1966054 0.73463535
-3.638092 -1.2582479 0.68631214
-3.6381626 -1.4566617 0.66995752
-3.6422586 -1.2583807 0.68338853
-3.6873164 -1.2438022 0.65308899
-3.7534909 -1.2179582 0.60895377
-3.763731 -1.2179062 0.60179985
-3.8737555 -1.2161143 0.52503473
-3.880182 -1.2166979 0.5204944
-4.0218983 -1.1863787 0.42391956
-4.114099 -1.1868957 0.35942438
-4.1913176 -1.2174571 0.30293372
-4.2098904 -1.2176707 0.289933
-4.2361708 -1.0687935 0.28379604
-4.2638559 -1.0521467 0.26581091
-4.2472172 -0.97094679 0.28411493
-4.219295 -0.96734285 0.30392984
-4.1999588 -0.9735285 0.31693849
-4.1210165 -1.0001768 0.36993292
-4.0841217 -1.0110784 0.39482832
-4.015933 -1.1733472 0.42916059
-3.9123623 -1.095054 0.50799525
-3.9036179 -1.0714461 0.51604801
-3.9058003 -0.9730835 0.52260548
-3.9024882 -0.93355167 0.52816939
-3.8816204 -0.89512599 0.54591483
-3.8650167 -0.85168749 0.56109118
-3.8497059 -0.77158982 0.57837641
-3.8323345 -0.76771665 0.59083802
-3.8067989 -0.76932526 0.60855651
-3.7606061 -0.77155638 0.64066404
-3.7223935 -0.77328473 0.66723442
-3.6839991 -0.77638239 0.69381928
-6.0804348 -1.5300324 -1.0433342
-6.110816 -1.6107619 -1.0712062
-6.1634479 -1.5696826 -1.1046226
-6.2236867 -1.5712247 -1.146859
-6.2625303 -1.5933058 -1.1758274
-6.2793202 -1.5698943 -1.1856403
-6.3620081 -1.5281075 -1.240009
-6.3875437 -1.5264988 -1.2577275
-6.4320483 -1.5268579 -1.2888676
-6.4749584 -1.5255125 -1.3187532
-6.4798369 -1.5245264 -1.3220825
-6.5181332 -1.5265741 -1.3490219
-6.5513811 -1.5256656 -1.3721887
-6.5565224 -1.5261323 -1.375821
-6.6852646 -1.5149796 -1.4649014
-6.714941 -1.5323012 -1.4870703
-6.7882667 -1.526556 -1.5378562
-6.8024473 -1.5288254 -1.5479558
-6.8530579 -1.5380559 -1.5840933
-6.8492861 -1.5091672 -1.5790825
-6.7972994 -1.4099284 -1.5345862
-6.782815 -1.3711007 -1.5212702
-6.7793398 -1.2908504 -1.5122461
-6.7520733 -1.1711725 -1.4833506
-6.7722111 -1.100358 -1.4916089
-6.7773681 -1.0900981 -1.4943707
-6.7978129 -1.0522324 -1.5055507
-6.9019284 -0.90658194 -1.5663632
-6.9239693 -0.86861581 -1.5786506
-6.9261198 -0.85177284 -1.5787698
-6.9592743 -0.73046291 -1.5919777
-6.9371138 -0.72869629 -1.5763412
-6.9163661 -0.73000336 -1.5619451
-6.8833103 -0.72147167 -1.5381364
-6.8727512 -0.7280069 -1.5312921
-6.8305783 -0.76950163 -1.5052214
-6.8223939 -0.85119116 -1.5062129
-6.7069392 -0.92992681 -1.431975
-6.7101593 -0.97194815 -1.4376791
-6.6991076 -1.0123849 -1.4332765
-6.691947 -1.090933 -1.4347259
-6.7172923 -1.1292744 -1.4555943
-6.7180266 -1.2053485 -1.4623591
-6.6706004 -1.2927589 -1.4363891
-6.6812363 -1.4496667 -1.4567183
-4.0350065 1.3953245 0.62691391
-4.0089173 1.3787785 0.64379168
-3.9164398 1.3718264 0.70786655
-3.870616 1.3795538 0.7405346
-3.9010305 1.382149 0.71948671
-3.9476843 1.3968279 0.68807977
-3.0064137 -1.5106671 1.1071416
-3.1079948 -1.4931208 1.0375736
-3.1707118 -1.497386 0.99338102
-3.1799712 -1.499656 0.98672158
-3.1194558 -1.5055826 1.0285378
-3.1400208 -1.5074497 1.0140085
-3.1656487 -1.5033514 0.99643016
-3.1832061 -1.5004406 0.98439598
-4.5751891 -0.76090807 0.072107576
-4.5547166 -0.75655127 0.086776763
-4.5293655 -0.7531808 0.10477546
-4.5805292 -0.74747384 0.069478668
-4.6677589 -0.75146669 0.0081727803
-4.6888771 -0.73839641 -0.0055156127
-4.6936631 -0.73989969 -0.0089851096
-4.734055 -0.7635507 -0.03916429
-4.8059678 -0.75473183 -0.088710092
-4.8109388 -0.75125593 -0.091899388
-4.8314114 -0.75561273 -0.10656858
-4.8724484 -0.76183671 -0.13576695
-4.9744067 -0.7603811 -0.20692092
-5.1024532 -0.7665543 -0.29693887
-5.1381516 -0.76203758 -0.32152233
-5.1538377 -0.76489103 -0.33272225
-5.1768832 -0.83050114 -0.3542237
-5.1344624 -0.86162102 -0.32712689
-5.1206102 -0.83072591 -0.31490481
-4.9705329 -0.86494374 -0.21280569
-4.9290123 -0.85404044 -0.18288472
-4.8535204 -0.85504055 -0.13019449
-4.805944 -0.89461541 -0.10018878
-4.7657189 -0.97089791 -0.078338213
-4.7296906 -1.0554159 -0.060098015
-4.7348595 -1.1304199 -0.06987498
-4.7507563 -1.1723216 -0.08443103
-4.7235618 -1.2169379 -0.069087394
-4.7222066 -1.2965041 -0.074678414
-4.6949196 -1.3759248 -0.062130131
-4.7531314 -1.4932579 -0.11246506
-4.6864662 -1.4911323 -0.065688379
-4.6562362 -1.4887481 -0.044360168
-4.5898476 -1.4791536 0.0028369203
-4.4768057 -1.4842381 0.081440903
-4.6034179 -1.4137205 -0.0012721121
-4.6045904 -1.3373287 0.0041860417
-4.5599079 -1.2145967 0.045506865
-4.5612621 -1.1368356 0.050950553
-4.4349031 -1.0921811 0.1429507
-4.5693059 -1.0916208 0.049042899
-4.5870838 -0.99679637 0.044407897
-4.6007671 -0.97555697 0.036587995
-4.6089396 -0.96380925 0.031840283
-4.6622248 -0.90084189 -0.00023394823
-3.5659733 -1.4729495 0.71908289
-3.5709443 -1.4694736 0.71589357
-3.5521924 -1.4993343 0.72654808
-3.5855236 -1.5022022 0.70301241
-3.6115203 -1.4881455 0.68599463
-3.6747169 -1.497941 0.64101225
-3.7085078 -1.4901657 0.61802983
-3.7556226 -1.4630389 0.58732361
-3.7966599 -1.4692628 0.55812502
-3.8429446 -1.4645422 0.52615774
-3.8509333 -1.4577737 0.52112961
-3.809706 -1.4591849 0.54983354
-6.0853133 -1.5290461 -1.0466635
-6.12991 -1.5269156 -1.0776638
-6.131506 -1.5268149 -1.078771
-6.1776066 -1.5270734 -1.1110187
-6.1932001 -1.5324165 -1.1223586
-6.2490592 -1.5288975 -1.1611174
-6.2725482 -1.5317665 -1.1777731
-6.2854929 -1.5304439 -1.1867135
-6.3109365 -1.5313249 -1.204572
-5.9039679 -0.7578491 -0.85651976
-5.9295959 -0.75375086 -0.87409806
-5.9323549 -0.80822009 -0.88050282
-5.9264517 -0.81234771 -0.87671542
-5.8758497 -0.82916623 -0.84272444
-6.9626932 0.56197935 -1.488158
-6.9549336 0.69613975 -1.4717089
-7.0898085 0.73705417 -1.5626303
-7.0926809 0.81672317 -1.5580915
-7.0809956 0.85650307 -1.5466537
-7.0850019 0.89610976 -1.5461994
-7.0840201 0.97612053 -1.5389384
-7.0819054 1.0961936 -1.5275929
-7.100646 1.1383092 -1.5372325
-7.1027665 1.2181263 -1.5321555
-7.114481 1.25705 -1.5371457
-7.0636063 1.3750505 -1.4918849
-7.089241 1.3791723 -1.5094661
-7.1708632 1.3436646 -1.5694417
-7.1438799 1.2583404 -1.5575912
-7.1600904 1.1818502 -1.5752089
-7.1666369 1.1425257 -1.5830166
-7.1678357 1.136332 -1.5843636
-7.1750917 1.103519 -1.5921323
-7.1743822 1.0970073 -1.5921712
-7.1749401 1.0635705 -1.5953093
-7.1747408 1.0604227 -1.5954288
-7.1633759 1.0207376 -1.5907452
-7.1656418 0.94061297 -1.5989138
-7.1627693 0.86094385 -1.6034526
-7.1725936 0.78404564 -1.6166395
-7.1531692 0.70194739 -1.6098076
-7.114624 0.61764783 -1.5897902
-7.0127954 0.53785735 -1.5251641
-7.0074091 0.38847786 -1.5336744
-7.0104222 0.38370258 -1.5361732
-7.0157676 0.2628563 -1.5498408
-7.0024395 0.38319236 -1.5306348
-6.9734478 0.53854769 -1.4976017
-2.5851562 -1.5192581 1.4009144
-2.5711679 -1.5228589 1.4103969
-2.5350988 -1.5249921 1.4354355
-2.5340521 -1.5248969 1.4361751
-2.5146263 -1.5206354 1.450105
-2.4694471 -1.5231459 1.4814808
-2.494668 -1.5305537 1.4632415
-2.520139 -1.5288186 1.4455788
-2.5454369 -1.5320621 1.4276278
-2.5774493 -1.5286558 1.4055295
-2.6030254 -1.5244123 1.3879993
-2.6491446 -1.5244741 1.3557549
-2.6078892 -1.5208421 1.3848928
-4.2618051 -1.4907782 0.23119888
-4.1745749 -1.4867854 0.29250476
-4.2369146 -1.4749599 0.24989817
-4.2873406 -1.4891695 0.21348038
-5.3432231 -0.75154614 -0.46401492
-5.3084006 -0.86860842 -0.44929227
-5.3544989 -0.86899173 -0.48154858
-5.4179282 -1.0030308 -0.53690362
-5.3971224 -1.0824814 -0.52888823
-5.3653297 -1.1234515 -0.51003045
-5.3635244 -1.1257492 -0.50895762
-5.2065248 -1.1167953 -0.39847162
-5.1653719 -1.1129289 -0.36938593
-5.0667467 -1.2182178 -0.30909461
-5.1853676 -1.1297992 -0.38475031
-5.2189455 -1.1657141 -0.41117412
-5.2264519 -1.1686401 -0.41666183
-5.358882 -1.2065029 -0.51234835
-5.3663735 -1.2184662 -0.51856852
-5.4665165 -1.1385739 -0.58200759
-5.4953899 -1.1262951 -0.6011824
-5.5878491 -1.0871083 -0.66259557
-5.6021557 -1.0852447 -0.67244321
-5.6324625 -1.0834041 -0.69347799
-5.6881318 -1.0832062 -0.73237711
-5.7111549 -1.0882802 -0.74888855
-5.7214694 -1.0843644 -0.75577688
-5.7213597 -1.0504665 -0.75291455
-5.7037835 -0.966223 -0.7337051
-5.7345319 -0.8302381 -0.74402481
-5.7193818 -0.76179427 -0.72780961
-5.7119141 -0.75710207 -0.72220349
-5.6917243 -0.74521065 -0.70711291
-5.6741114 -0.73912948 -0.69430089
-5.5689635 -0.75196683 -0.62185258
-5.542861 -0.76845402 -0.60496062
-5.4509544 -0.7602188 -0.54003686
-5.404953 -0.75734597 -0.5076434
-5.3637996 -0.75347942 -0.47855768
-5.8951106 -1.5538942 -0.91574478
-5.8195181 -1.5313346 -0.86104834
-5.8916154 -1.5175366 -0.91031373
-5.9219375 -1.5174313 -0.93150175
-5.9333067 -1.5323826 -0.940678
-5.9156752 -1.5557615 -0.93027401
-2.1582868 -0.63845122 1.7716984
-2.1885242 -0.67734265 1.747365
-2.1909161 -0.75746071 1.7391093
-2.0943623 -0.79282773 1.8036984
-2.0534029 -0.79318571 1.8323014
-2.0433373 -0.78479946 1.840027
-1.9418862 -0.77929354 1.9113985
-1.8607562 -0.91416377 1.957029
-1.8788605 -0.95347631 1.9411424
-1.8721392 -0.99782538 1.9421965
-1.8624823 -1.0798783 1.9422044
-1.8598061 -1.1195929 1.9408115
-1.8584204 -1.1594225 1.9385071
-1.8241558 -1.237781 1.9560204
-1.8148105 -1.2781528 1.9592353
-1.8131144 -1.3591573 1.9537643
-1.8122456 -1.3975327 1.9512181
-1.8463044 -1.4704757 1.9214151
-1.9209857 -1.5150568 1.8655457
-2.0386143 -1.5160134 1.7832394
-1.915906 -1.5260966 1.8681897
-1.8752928 -1.5164969 1.8973689
-1.8601472 -1.5191504 1.9077383
-1.8493059 -1.5191803 1.9153144
-1.787869 -1.5127232 1.9587924
-1.7556431 -1.5141077 1.9812059
-1.7114594 -1.5039408 2.012928
-1.6858153 -1.5106547 2.0303028
-1.6556108 -1.5134721 2.0511856
-1.6193023 -1.5012491 2.0775714
-1.589184 -1.5015771 2.0985985
-1.5263302 -1.4802649 2.1442878
-1.4812834 -1.4815094 2.1756752
-1.3999627 -1.5022547 2.2308176
-1.3541005 -1.4946856 2.2634993
-1.3572097 -1.4425242 2.2656124
-1.4367368 -1.3616902 2.2166619
-1.5069811 -1.236078 2.1778803
-1.5587857 -1.1568623 2.1481762
-1.5649095 -1.1573235 2.1438575
-1.5783191 -1.2184451 2.1294608
-1.68436 -1.2805532 2.0502293
-1.71504 -1.266046 2.0299747
-1.7649741 -1.152613 2.00439
-1.7865796 -1.1170816 1.9922066
-1.8034534 -1.0786295 1.9835708
-1.7967653 -0.97315884 1.9969136
-1.7937925 -0.79810143 2.0133774
-1.7010758 -0.79610705 2.0783546
-1.6686752 -0.81245524 2.0996609
-1.617733 -0.8159256 2.1349866
-1.5969954 -0.81657863 2.1494296
-1.5763445 -0.81474227 2.1640162
-1.4862969 -0.80100912 2.2280924
-1.3885951 -0.77310103 2.2986839
-1.3372202 -0.78901815 2.3332894
-1.3964996 -0.63521343 2.3044894
-1.3090515 -0.54279697 2.3732142
-1.2586293 -0.53133124 2.409404
-1.1617954 -0.66306418 2.46627
-1.1839755 -0.75592405 2.4431341
-1.2318959 -0.79563785 2.4063721
-1.2636461 -0.79996115 2.3838217
-1.231636 -0.80011481 2.4061856
-1.2063808 -0.80061913 2.4237988
-1.1985073 -0.79867208 2.4294627
-1.0724289 -0.87786365 2.5110896
-1.0722394 -0.95775211 2.5046573
-1.0668867 -1.0371815 2.5018716
-1.0672293 -1.0412121 2.5013011
-1.0628846 -1.0390757 2.5045137
-1.0562665 -1.0030347 2.5121019
-1.0574455 -0.92348421 2.5178149
-1.0486865 -0.84379989 2.5304861
-1.0268397 -0.8019045 2.5492008
-1.0280097 -0.7633059 2.5515549
-1.029516 -0.76218981 2.5505936
-1.1007819 -0.6821214 2.5073552
-1.1065564 -0.64118207 2.5066829
-1.1121521 -0.6291945 2.5037563
-1.1403947 -0.5478003 2.4907022
-1.1875639 -0.48057437 2.463253
-1.2160578 -0.42916712 2.4475591
-1.2340117 -0.40865758 2.4366939
-1.2651763 -0.36828163 2.4182262
-1.266078 -0.36762005 2.4176505
-1.2731338 -0.36775953 2.4127066
-1.3325467 -0.35611475 2.3721311
-1.3761392 -0.29437855 2.3467312
-1.3840969 -0.29385644 2.3412113
-1.3776731 -0.35662657 2.3405437
-1.3812203 -0.37351894 2.3366756
-1.3872578 -0.40067559 2.3302238
-1.3902168 -0.44264153 2.3247066
-1.4367542 -0.51468468 2.2862544
-1.4500036 -0.51986301 2.276567
-1.4597201 -0.55467957 2.2669134
-1.4520528 -0.59595048 2.2688818
-1.4857457 -0.76724249 2.2312524
-1.5223143 -0.77199733 2.2052987
-1.5913296 -0.75614578 2.1583562
-1.6353936 -0.72111136 2.1304326
-1.6365986 -0.72021848 2.1296635
-1.7168756 -0.75281215 2.0708678
-1.7329662 -0.75075197 2.0597887
-1.8095527 -0.74056774 2.0070884
-1.834244 -0.76123667 1.9881293
-1.9309626 -0.75834584 1.920756
-1.9987206 -0.59255981 1.8870138
-2.0256605 -0.56249374 1.8706524
-2.1043093 -0.55799621 1.8160428
-2.1372232 -0.55717289 1.793102
-4.5385523 1.4441926 0.27892789
-4.6649108 1.3995383 0.1869275
-4.679276 1.4022479 0.17710835
-4.731576 1.3974123 0.14015079
-4.6713514 1.4078765 0.18311054
-5.3728876 1.3779545 -0.309755
-5.393249 1.3710885 -0.32455266
-5.5110826 1.3745944 -0.40663594
-5.4035301 1.385524 -0.33055362
-4.3341088 1.4423826 0.42169443
-4.3121624 1.4087112 0.43426916
-4.3690348 1.4378104 0.39690381
-4.4561725 1.4313281 0.33545795
-4.3647094 1.4517617 0.40107393
-4.347724 1.4458101 0.41245869
-6.6823149 1.3813889 -1.2248235
-6.7207022 1.3881583 -1.2511019
-6.7050161 1.3820555 -1.240638
-2.4440413 -1.5224108 1.4993013
-2.4327149 -1.5250447 1.5070024
-2.4391778 -1.5259809 1.5024077
-0.34878922 -1.5207613 2.9641161
-0.42124081 -1.5222096 2.9133501
-0.39204407 -1.4464521 2.9399853
-0.38210344 -1.4563035 2.9461248
-0.3555069 -1.4904001 2.961915
-0.28270149 -1.5268849 3.0098114
-0.22083521 -1.5188866 3.0537162
-0.19045734 -1.5266826 3.074311
-0.21592808 -1.5249474 3.056648
-5.0743847 -1.4885194 -0.33664674
-5.0948591 -1.4839966 -0.35058779
-5.1039076 -1.4848022 -0.35697904
-5.1155376 -1.4923859 -0.36573243
-5.1200962 -1.4988608 -0.3694509
-5.6359076 -1.5259851 -0.73225641
-5.6870179 -1.5046772 -0.76623374
-5.6609287 -1.5212233 -0.74935603
-5.6824903 -1.5139208 -0.76382828
-5.3014297 1.3816268 -0.25950059
-5.2555199 1.3868961 -0.2269747
-5.3113379 1.3861041 -0.26605919
-5.3317924 1.3817279 -0.28071734
-4.5239873 1.4428368 0.28899783
-4.5026422 1.4410279 0.30377063
-4.5115609 1.4466434 0.2979973
-4.5077052 1.4469936 0.30072156
-4.5051346 1.447227 0.30253777
-4.4821692 1.4453847 0.31844008
-6.5992937 1.3760846 -1.167224
-6.5770516 1.3753147 -1.1517388
-6.6026859 1.3794365 -1.1693197
-6.6564956 1.3785636 -1.2070069
-6.4389281 1.380863 -1.0547282
-6.3710465 1.3765893 -1.007627
-6.3006248 1.3814318 -0.95800114
-6.2825484 1.3805361 -0.94543827
-6.2783828 1.3806617 -0.94251585
-6.2296076 1.3974171 -0.90704292
-6.1630402 1.4019179 -0.86013931
-6.1535115 1.4074585 -0.85302299
-6.1413169 1.4179175 -0.84363896
-6.2395458 1.454531 -0.90929681
-6.2528572 1.4702849 -0.91730726
-6.3228297 1.4529941 -0.96764243
-6.3884668 1.3950264 -1.0182893
-0.87826252 -1.4439365 2.6003027
-0.89031196 -1.4325228 2.5928175
-0.84909654 -1.4263606 2.6221354
-0.85890245 -1.442215 2.6139779
-6.407094 -1.5557516 -1.2737979
-6.4861507 -1.5714921 -1.3303559
-5.6263075 -1.525483 -0.72550428
-5.6195226 -1.5249578 -0.72071803
-5.593987 -1.5265663 -0.70299953
-5.6095805 -1.5319095 -0.71433944
-2.2687914 -1.5289658 1.6212704
-2.2485733 -1.5146828 1.6365775
-2.192898 -1.5192353 1.6751231
-2.1971982 -1.5305998 1.6711831
-3.7229145 -1.4579316 0.6106078
-4.8913403 -1.4965229 -0.2093479
-4.8246756 -1.4943974 -0.16257125
-4.8963113 -1.4930472 -0.21253723
-4.9011917 -1.490256 -0.2157194
-5.5430079 -1.5272942 -0.66742259
-5.5310469 -1.523504 -0.65874994
-5.538959 -1.5237226 -0.66429895
-5.5686355 -1.523196 -0.6850009
-0.31936026 -1.5211445 2.9846568
-1.2790487 -0.80033076 2.3730242
-1.3209562 -0.79605699 2.3440802
-1.2842972 -0.80179751 2.3692348
0 0 0 1 0 0 0 1 0 0 0 1 0 0 0 0 0 583 1 0 0
