ply
format ascii 1.0
comment PCL generated
element vertex 551
property float x
property float y
property float z
element camera 1
property float view_px
property float view_py
property float view_pz
property float x_axisx
property float x_axisy
property float x_axisz
property float y_axisx
property float y_axisy
property float y_axisz
property float z_axisx
property float z_axisy
property float z_axisz
property float focal
property float scalex
property float scaley
property float centerx
property float centery
property int viewportx
property int viewporty
property float k1
property float k2
end_header
-8.437294 -1.5306354 6.3640199
-8.4476309 -1.4872953 6.3708382
-8.4509525 -1.4465947 6.3748837
-8.438055 -1.4860615 6.3673882
-8.3911095 -1.5543593 6.3453283
-8.4061117 -1.5574622 6.3506513
1.4120417 0.24116647 2.8510351
1.443038 0.13977861 2.8325703
1.4199653 0.11190814 2.8391566
1.3575897 0.22009891 2.8696759
-8.4527807 -0.027195513 6.473877
-8.4607372 0.054493546 6.4824724
-8.4593487 0.059185386 6.482285
-8.4436951 0.10461515 6.4796534
-8.4266691 0.13474375 6.4754553
-8.4147959 0.17488933 6.4738536
-8.4079494 0.30052775 6.4800291
-8.4171276 0.33362091 6.4857092
-8.4080343 0.38048983 6.485599
-8.4118366 0.41907263 6.4896755
-8.413475 0.45884812 6.4930353
-8.4196177 0.49849999 6.4980493
-8.4190035 0.53833723 6.5005817
-8.4228935 0.57805085 6.5047688
-8.4096003 0.62066376 6.5028133
-8.3647509 0.69910467 6.4916916
-8.3618431 0.69902241 6.4906125
-8.3264656 0.70015359 6.4776316
-8.2557764 0.65967965 6.4487348
-8.2405386 0.61914372 6.4403019
-8.2418089 0.57945049 6.4380217
-8.1801062 0.49486279 6.4093857
-8.1813335 0.41518861 6.4043198
-8.1465282 0.3365016 6.3860216
-7.9736204 0.3830018 6.3254166
-7.9357038 0.46351933 6.3169975
-7.9338202 0.54304945 6.3218112
-7.8152246 0.54370844 6.2780795
-7.7717834 0.55556178 6.2628651
-7.6972427 0.50453031 6.2318144
-7.6292205 0.50461304 6.2067108
-7.6140242 0.50405812 6.2010632
-7.5495238 0.46438611 6.1745062
-7.4960423 0.46487999 6.1547985
-7.4625907 0.42646176 6.1397891
-7.3793297 0.3860085 6.1062527
-7.3439531 0.38713968 6.0932722
-7.2613058 0.30684936 6.0572028
-7.2271986 0.2682873 6.0419416
-7.1697922 0.22617471 6.0178342
-7.1717272 0.18661958 6.0158086
-7.172359 0.14678007 6.0132823
-7.1729918 0.10694051 6.010756
-7.1095581 0.021958292 5.9814539
-6.9871111 -0.029439926 5.9326949
-6.9474654 -0.049259961 5.916687
-6.8925133 -0.092412084 5.8934135
-6.8583717 -0.17099613 5.8753676
-6.8105803 -0.21258432 5.8548455
-6.7901278 -0.2482008 5.8448286
-6.7429867 -0.28964677 5.8245564
-6.691637 -0.36645943 5.8002806
-6.691699 -0.40644315 5.797534
-6.6204138 -0.48456079 5.7658091
-6.60992 -0.48680282 5.7617803
-6.5751996 -0.48566774 5.7490425
-6.553051 -0.48451945 5.7409463
-6.4951758 -0.48065907 5.7198501
-6.4614859 -0.48483807 5.7071242
-6.3872185 -0.44574055 5.6824183
-6.3053389 -0.32810491 5.6603422
-6.3368759 -0.25008962 5.6773872
-6.350152 -0.13001573 5.6906052
-6.3337145 -0.050892055 5.6900187
-6.3437481 -0.010378063 5.6965284
-6.3441048 0.10908091 5.7049351
-6.345726 0.14886093 5.7082887
-6.3342609 0.16160852 5.7049398
-6.3055191 0.26939178 5.7017961
-6.3048868 0.30923134 5.7043223
-6.2957544 0.31693947 5.7014852
-6.2565989 0.3896749 5.69207
-6.2540326 0.4690696 5.6966219
-6.2193155 0.55027008 5.6894312
-6.1767683 0.58978283 5.6764627
-6.138164 0.71011209 5.6705475
-6.1375313 0.74995148 5.6730738
-6.0988903 0.7903173 5.6616058
-6.0892062 0.75043166 5.6552687
-5.9487195 0.71177113 5.6007323
-5.9069099 0.8325038 5.5936618
-5.9043622 0.95188022 5.6009903
-5.8263535 0.87254274 5.5666995
-5.7477131 0.83304489 5.5349345
-5.7482896 0.67326033 5.5240793
-5.5923843 0.75447571 5.4721551
-5.552422 0.75457537 5.4574108
-5.5131111 0.75481737 5.4429169
-5.4751019 0.75534368 5.4289227
-5.4744139 0.67523801 5.42312
-5.4343958 0.55539274 5.4000463
-5.3576708 0.43635786 5.3634796
-5.4781518 0.31625587 5.3996339
-5.3614836 0.23730254 5.3510985
-5.2802949 0.31718105 5.3266621
-8.454051 -0.06688869 6.4715962
-8.4506865 -0.14757031 6.4647655
-8.4527273 -0.19458902 6.4622622
-8.4454012 -0.21978092 6.4578133
-8.4548378 -0.33152908 6.4535556
-8.4549141 -0.3365097 6.4532385
-8.4552975 -0.36140686 6.4516559
-8.4557962 -0.39377552 6.4495978
-8.4523582 -0.42700568 6.4460268
-8.4532795 -0.48676234 6.4422278
-8.4431343 -0.54255164 6.4346185
-8.4432926 -0.6049782 6.4303527
-8.4377632 -0.68446732 6.4228058
-8.4690323 -0.76755488 6.4285927
-8.4678049 -0.68788064 6.4336586
-8.4511423 -0.64711821 6.4303312
-8.4489059 -0.63012117 6.4306831
-8.4521589 -0.92669749 6.4113407
-8.4596128 -0.88675761 6.4168591
-8.4588032 -0.8452962 6.4194322
-8.4371605 -0.88112378 6.4089613
-8.458765 -1.2700046 6.3899989
-8.4477348 -1.2863957 6.3847923
-8.4537039 -1.3260759 6.3842468
-8.4600687 -1.3546584 6.3846169
-8.4603729 -1.3273919 6.3866177
-7.8086276 -1.548762 6.130703
-7.8446221 -1.5472593 6.144094
-7.9167652 -1.5542134 6.1702428
-7.9528751 -1.5601802 6.1831589
-7.9333706 -1.5622362 6.1758165
-7.8984737 -1.5632226 6.1628666
-7.8703127 -1.5605085 6.1526594
-4.7915483 -1.5118396 5.019557
-4.82515 -1.5188725 5.0314736
-4.8902864 -1.4777889 5.0583634
-4.9609942 -1.4772886 5.0844984
-4.9972501 -1.4905946 5.0969601
-5.0775995 -1.440538 5.1300869
-5.1597257 -1.2803776 5.1714964
-5.1972551 -1.2806454 5.1853313
-5.2306638 -1.2820607 5.1975656
-5.38797 -1.3226614 5.25282
-5.3479981 -1.212657 5.2456851
-5.2350087 -1.1211449 5.2103157
-5.1653724 -1.0714203 5.188055
-5.1169195 -0.96572787 5.1774907
-5.1155181 -0.96102762 5.177299
-4.9612222 -0.90478504 5.124239
-5.0776596 -0.78557676 5.175477
-5.16436 -0.75916129 5.209311
-5.2423716 -0.76210004 5.2379041
-5.2822933 -0.75962389 5.2528119
-5.3508711 -0.78707659 5.2762246
-5.4002275 -0.7600866 5.2963133
-5.4692364 -0.77494806 5.3207574
-5.5517492 -0.77192545 5.3514247
-5.5876913 -0.76779985 5.3649778
-5.6367507 -0.76087177 5.3835673
-5.6695032 -0.76242721 5.3955498
-5.7055354 -0.76328206 5.4087911
-5.7520609 -0.76189488 5.4260612
-5.7887487 -0.7626096 5.4395547
-5.8571234 -0.92509502 5.4535389
-5.7779064 -0.96491045 5.4215393
-5.738657 -1.0047399 5.4042921
-5.6628418 -1.1238222 5.3680577
-5.5962582 -1.2036082 5.3379526
-5.5849171 -1.2430879 5.3310318
-5.5858045 -1.2481651 5.3310075
-5.5075617 -1.3633013 5.2941504
-5.3874369 -1.4027689 5.2470746
-5.3475313 -1.4427385 5.2295756
-2.9585671 0.20034367 4.4615431
-2.9578986 0.24017966 4.4640555
-2.9472089 0.27945822 4.4628305
-2.7993007 0.36064094 4.413856
-2.6433783 0.32175845 4.3536067
-2.5477293 0.20233035 4.3100271
-2.5267994 0.20270926 4.3023272
-2.4277453 0.28630441 4.2715535
-2.2888808 0.2874313 4.2203722
-2.1938338 0.2881946 4.1853399
-2.155175 0.28858292 4.1710968
-2.0765316 0.24908477 4.1393309
-2.0391791 0.24976671 4.1255898
-2.0011733 0.2503019 4.111598
-1.8960824 0.21053272 4.0700507
-1.8052275 0.17169386 4.033823
-1.768528 0.17252266 4.0203333
-1.7291965 0.13278282 4.0030622
-1.6138535 0.09411335 3.9578066
-1.5293329 0.053294182 3.92378
-1.5209546 0.013703346 3.9179449
-1.4945526 -0.025399745 3.9054904
-1.3746386 -0.065096557 3.8584764
-1.374619 -0.10507804 3.8556995
-1.3719475 -0.22560951 3.8463645
-1.372561 -0.3054257 3.8410623
-1.3725619 -0.32993633 3.839365
-1.3738277 -0.38509506 3.8360114
-1.4144454 -0.38504314 3.8510084
-1.4582632 -0.3854067 3.8671577
-1.5304744 -0.37057924 3.8948402
-1.5710399 -0.38615644 3.9087353
-1.5285995 -0.57093096 3.8802705
-1.449358 -0.65063888 3.8454986
-1.5525005 -0.73115164 3.8779948
-1.567976 -0.73106247 3.8837135
-1.6849384 -0.75187868 3.9254463
-1.8036489 -0.75980663 3.9687171
-1.8857253 -0.73194391 4.0009441
-1.9584086 -0.76866877 4.0252299
-2.0406106 -0.7482754 4.0569859
-2.0768688 -0.76165831 4.0694432
-2.1127088 -0.75014377 4.0834703
-2.1889036 -0.77439058 4.1099172
-2.2333004 -0.87011039 4.1196752
-2.205766 -0.9739207 4.1023207
-2.1974225 -1.0135231 4.0964975
-2.1189368 -1.121116 4.0600729
-1.9998915 -1.0932701 4.0180583
-1.9160671 -1.134021 3.9842932
-1.8767564 -1.1338193 3.9697962
-1.8007605 -1.1728122 3.9390428
-1.8820572 -1.3325596 3.9579868
-1.9213684 -1.3327613 3.9724836
-1.9572504 -1.3237365 3.9863541
-1.9993215 -1.2933288 4.0039902
-2.0373116 -1.2538412 4.0207491
-2.1916203 -1.157841 4.0843592
-2.2526748 -1.1317964 4.1087003
-2.3200998 -1.123589 4.1341577
-2.3841977 -1.0977478 4.1596084
-2.4011767 -1.0947013 4.1660867
-2.4169014 -1.094435 4.1719098
-2.4447069 -1.0927058 4.1822934
-2.464041 -1.0928788 4.1894183
-2.4945147 -1.0956293 4.2004766
-2.6764381 -1.1393456 4.2646022
-2.6371598 -1.2191088 4.2445784
-2.6404288 -1.3358338 4.2377
-2.6142235 -1.3751743 4.2253017
-2.5317039 -1.4156322 4.1920385
-2.5336773 -1.4551753 4.1900277
-2.6525805 -1.4355695 4.2352772
-2.7708313 -1.4161103 4.2802753
-2.8071313 -1.431983 4.2925749
-2.8902524 -1.4663639 4.3208766
-2.9517457 -1.4606173 4.3439736
-3.0089211 -1.4718021 4.3643041
-3.0696783 -1.4612226 4.3874645
-3.1266031 -1.4574687 4.4087372
-3.1626525 -1.4584031 4.4219799
-3.2615993 -1.4982597 4.4557433
-3.418927 -1.5040461 4.5134172
-3.4575856 -1.5043943 4.5276632
-3.5351534 -1.5200293 4.5552135
-3.5755184 -1.5049996 4.5711546
-3.6309571 -1.5049657 4.5916209
-3.6934512 -1.5056047 4.6146455
-3.760808 -1.5057163 4.6395011
-3.8658745 -1.5058248 4.6782775
-3.9312739 -1.5063758 4.7023802
-4.081718 -1.5312018 4.7561946
-4.1684446 -1.5072932 4.7898641
-4.286377 -1.5078984 4.8333549
-4.3549795 -1.5355434 4.8567634
-4.4374318 -1.5300884 4.8875771
-4.4842367 -1.5086142 4.906342
-4.5920663 -1.5314813 4.9445615
-4.6388712 -1.5100071 4.963326
-4.6898565 -1.5178423 4.9816036
-4.7278557 -1.5182767 4.9956002
-4.7465329 -1.5229152 5.0021734
0.75283623 -0.061917543 3.0733755
0.75363827 -0.022072732 3.0758393
0.62088156 -0.10175663 3.1193247
0.55498075 -0.061932802 3.1464095
0.51567173 -0.061992168 3.1609156
0.4409833 -0.062955737 3.1884189
0.37100601 -0.062272668 3.2142971
0.36105537 -0.062792897 3.2179341
0.32502127 -0.063556254 3.2311826
0.31650591 -0.061725795 3.2344527
0.27916193 -0.062207639 3.2482042
0.20367146 -0.10301602 3.2732434
0.16960287 -0.10420185 3.2857373
0.16153574 -0.10406333 3.2887247
0.045036316 -0.096823275 3.3322301
0.044393063 -0.096681535 3.3324771
-0.067569256 -0.13647693 3.3710496
-0.074336529 -0.13661537 3.373538
-0.19369793 -0.13665694 3.4175954
-0.19610834 -0.13585436 3.4185407
-0.19299412 -0.1415436 3.416997
-0.074509621 -0.17660156 3.3708322
-0.04583168 -0.17585981 3.3602977
0.040656567 -0.21593142 3.3255963
0.036746502 -0.37516746 3.3160095
0.035747528 -0.40592253 3.3142481
-0.036873817 -0.4872449 3.335422
-0.014870167 -0.53094727 3.3242726
-0.017028809 -0.73014677 3.3112712
0.10251236 -0.68558836 3.2702312
-0.0016598701 -0.52641779 3.3197098
-0.011972904 -0.53104585 3.3231962
-5.7871361 1.0726932 5.5660868
-5.751749 1.1137699 5.5558696
-5.7091646 1.0733192 5.5373483
-7.5505199 -1.5570292 6.0348544
-7.5179224 -1.5598693 6.022625
-7.4889116 -1.5502622 6.0125813
-7.4783387 -1.5475852 6.0088639
-7.4166536 -1.5358387 5.986908
-7.3341675 -1.5411466 5.9560919
-7.3237486 -1.548429 5.9517412
-7.2411852 -1.5487573 5.9212418
-7.1478038 -1.5515434 5.8865786
-7.1226668 -1.5530779 5.8771935
-7.0652909 -1.5545659 5.8559113
-7.0401421 -1.555896 5.8465357
-6.9587593 -1.529169 5.818346
-6.9999766 -1.488919 5.8363485
-7.0587568 -1.396922 5.8644185
-7.0541878 -1.3658991 5.864881
-7.0456009 -1.3277371 5.8643546
-7.0565257 -1.3129039 5.8694148
-7.0676036 -1.2875571 5.8752599
-7.0562668 -1.1926129 5.8776517
-7.0556955 -1.1127948 5.8829699
-7.0539236 -1.0832047 5.8843651
-7.0548959 -1.0732765 5.8854117
-7.0378952 -1.0094087 5.8835602
-6.8603582 -1.0045739 5.8183603
-6.8687496 -0.84546661 5.832479
-6.9036117 -0.82140028 5.8470149
-7.0506587 -0.91404116 5.8948774
-7.0512724 -0.95387816 5.892345
-8.035552 -1.5673214 6.2131829
-8.0715857 -1.5683086 6.2264156
-8.0249405 -1.5621548 6.2096238
-8.0144062 -1.5619677 6.2057481
-8.4526463 -1.0864778 6.4004526
-8.4415836 -1.0400405 6.3995857
-8.4396582 -1.0004911 6.4016147
-8.4538927 -0.95379764 6.4101038
-8.4553967 -0.96595889 6.4098163
-8.4552345 -1.0409412 6.404563
0.40050268 -0.88916707 3.1461315
0.40534449 -0.88862646 3.1443818
0.43159389 -0.80894029 3.1402121
0.52974939 -0.77004993 3.1066732
0.54200125 -0.76952624 3.1021872
0.64877939 -0.69034576 3.0682564
0.67447662 -0.65004861 3.0615621
0.68471289 -0.60957825 3.0605869
0.80502605 -0.53015286 3.0216768
0.80887651 -0.53098917 3.0201976
0.80719233 -0.49058357 3.023618
0.77201748 -0.47892362 3.03741
0.70887613 -0.39111906 3.0667996
0.70922661 -0.37368691 3.0678778
0.70860863 -0.33077431 3.0710783
0.71133566 -0.30160904 3.0720918
0.86685085 -0.22346815 3.0200987
0.86700153 -0.21599731 3.0205607
0.80544567 -0.14262426 3.0483654
-5.6207423 -1.4442384 5.3303227
-5.7026443 -1.4438462 5.3605824
-5.7806106 -1.4442947 5.3893313
-5.8946705 -1.4855819 5.428575
-5.9719529 -1.5211738 5.4546371
-6.058413 -1.4448137 5.4918413
-6.167943 -1.5270655 5.5265756
-6.3279009 -1.5321023 5.5852723
-6.405148 -1.486639 5.6169357
-6.5185995 -1.5366248 5.6553521
-6.564991 -1.5277668 5.67309
-6.6023345 -1.5283415 5.6868353
-6.6813288 -1.528036 5.7160153
-6.7676725 -1.487767 5.7506771
-6.826375 -1.4832435 5.7726598
-6.8222604 -1.4741234 5.7717724
-6.8097944 -1.3667955 5.7746053
-6.8640671 -1.2837594 5.8003912
-6.864006 -1.2437756 5.8031378
-6.8643031 -1.2237136 5.8046374
-6.8645391 -1.1636682 5.8088837
-6.8627791 -1.139046 5.8099394
-6.861793 -1.0842609 5.8133702
-6.8630433 -1.043997 5.8166208
-2.9573283 0.0401209 4.4499874
-3.0720158 -0.0011992455 4.48946
-3.1522548 -0.041790068 4.5162673
-3.2659774 -0.042776346 4.5581779
-3.3839431 -0.12334651 4.5961418
-3.4605913 -0.084207058 4.6271462
-3.5405345 -0.12429994 4.6538792
-3.5791931 -0.12464818 4.6681252
-3.6171989 -0.1251429 4.6821198
-3.6565104 -0.12534466 4.6966171
-3.8124328 -0.08646217 4.7568665
-3.8510749 -0.046827912 4.7738762
-4.0089712 -0.047488451 4.8321152
-4.0882778 -0.12771031 4.8558331
-4.1682048 -0.12782079 4.8853288
-4.2210178 -0.08839044 4.9075551
-4.2461743 -0.12837076 4.914072
-4.4027658 -0.1293242 4.9718089
-4.4890623 -0.050289333 5.0091386
-4.4906464 -0.010511756 5.0124784
-4.4893088 0.069160104 5.0175033
-4.4886403 0.10899603 5.0200162
-4.5540071 0.18840998 5.0496459
-4.4374118 0.10934323 5.0011296
-8.2823286 -0.14004371 6.403141
-8.2636986 -0.099712998 6.3990574
-8.2272015 -0.021662831 6.3909917
-8.1934175 0.058093846 6.3840451
-8.0139084 0.06317389 6.3181343
-8.0151358 -0.016500354 6.3130684
-8.0341377 -0.05619365 6.3173337
-8.0064383 -0.17829534 6.2986507
-7.9732747 -0.29603812 6.2782536
-7.8583274 -0.21519104 6.2414227
-7.7453985 -0.31488669 6.192831
-7.8590794 -0.43487179 6.2264833
-7.9363089 -0.51565689 6.2493954
-7.8115253 -0.51579976 6.2033238
-7.7796698 -0.55442351 6.1888895
-7.7800455 -0.66426343 6.1814203
-7.7801991 -0.67422265 6.1807866
-7.6853514 -0.75385493 6.1402593
-7.5816107 -0.84070987 6.0959492
-7.5433254 -0.99260908 6.0712948
-7.5825543 -1.0728387 6.0802183
-7.4733391 -1.0717891 6.0399761
-7.3837595 -1.154156 6.001204
-7.3534584 -1.2329664 5.9845595
-7.3428116 -1.272495 5.9778914
-7.2955856 -1.3533511 5.9548583
-7.3167539 -1.4336525 5.9571095
-7.4560814 -1.5119298 6.003118
-7.4991779 -1.5330206 6.0175653
-7.6194344 -1.5133293 6.0633202
-7.6434255 -1.544439 6.0700212
-8.2840881 -0.18115658 6.4009423
-8.3673468 -0.2990638 6.4235086
-8.4049149 -0.39964479 6.4304094
-8.4271746 -0.4824855 6.432888
-8.4353085 -0.52511895 6.4329371
-8.4329062 -0.56228316 6.4294763
-5.9974527 -0.12483931 5.560771
-6.0361505 -0.045260012 5.5805678
-5.9385548 0.074874878 5.5528636
-5.7983685 0.035728276 5.4984045
-5.6985011 0.11594099 5.4670963
-5.6379437 0.19591182 5.4502821
-5.5606241 0.19668001 5.4217939
-5.5238423 0.037563801 5.3971949
-5.6049933 -0.12227809 5.4160786
-5.6829643 -0.12290409 5.4448171
-5.7622375 -0.12324572 5.4740558
-5.6049747 -0.16225976 5.4133024
-5.4477305 -0.16129211 5.3553252
-5.5207648 -0.32002759 5.3712897
-4.2434993 0.030973077 4.9241219
-4.1635561 0.071065962 4.8973894
-5.9234934 0.31420976 5.5638824
-5.756547 0.23530996 5.4967914
-5.7933283 0.39442611 5.5213904
-5.0533366 -0.1191757 5.2126589
-4.9347897 -0.038628757 5.1744785
-4.9715714 0.12048739 5.1990776
-5.0875702 0.15931684 5.2445865
-5.2055035 0.15859109 5.2880692
-5.2860231 0.038588762 5.3094792
-5.2189441 -0.12052372 5.2736969
-5.2891841 -0.16060883 5.2968483
-5.2049632 -0.31907415 5.2547827
-5.1649961 -0.31906003 5.2400308
-5.1344695 -0.31899929 5.2287664
-5.0546007 -0.19885474 5.2076063
-5.1319585 -0.11965951 5.2416472
-5.0778246 -0.11934468 5.2216864
-3.7859998 0.20161355 4.7670636
-3.7875838 0.24139112 4.7704039
-3.805943 0.22100604 4.7757688
-3.8265553 0.20056254 4.781961
-3.8426192 0.18272561 4.7866554
-3.8632731 0.15979236 4.7926908
-3.8640401 0.1560142 4.7927122
-2.9169316 -0.19758052 4.4186106
-2.8109875 -0.29651052 4.3726501
-2.7910056 -0.29648292 4.3652763
-2.7287042 -0.11698699 4.354712
-2.7679989 -0.077206284 4.3719726
-2.8859315 -0.07781148 4.4154634
0.41060591 -0.33133519 3.1810422
0.32035589 -0.26263955 3.2191148
0.20932531 -0.30218998 3.25736
0.18076801 -0.4103266 3.2604113
0.26151228 -0.4884561 3.225194
0.2969079 -0.490154 3.2120106
0.3440218 -0.48688945 3.1948454
-6.9499702 -0.05091995 5.9174967
-6.9064798 -0.14932778 5.8946266
-6.8924761 -0.17237553 5.8878608
-6.9444957 -0.32375768 5.8965769
-7.0442986 -0.4157885 5.927043
-7.1515675 -0.3101117 5.9739594
-7.133482 -0.25134179 5.9713545
-7.150075 -0.17053691 5.9830766
-7.1494617 -0.13069981 5.9856095
-7.1488318 -0.05824703 5.9903955
-0.20159721 -0.84635848 3.3713517
-0.18581009 -0.84606361 3.3655448
-0.19805431 -0.84659708 3.3700273
-5.8369789 -0.12402546 5.5015912
-5.7235589 -0.16284332 5.4570355
-5.7959433 -0.32110709 5.4727921
-5.8626504 -0.32128853 5.4974031
-5.9207468 -0.20389238 5.5269804
0.28695679 -0.96847004 3.1825519
0.25235319 -0.90187967 3.1999378
0.21292639 -0.84925652 3.2181368
0.099512577 -0.85010099 3.259943
0.096614838 -0.85000241 3.2610192
-0.043608189 -0.81029189 3.315531
-0.055208206 -0.81042629 3.3198037
-5.2790489 0.43684173 5.3344908
-5.2790298 0.39686 5.3317146
-5.2416158 0.27758336 5.3096418
-5.0837579 0.35837227 5.2569671
-5.0824742 0.39806962 5.259243
-4.9664569 0.31925851 5.2109585
-4.7898397 0.26716435 5.1421547
-4.6712708 0.22764063 5.0956492
-4.6081414 0.18815082 5.0696106
-4.6739135 0.14826173 5.091126
-4.6950731 0.081914723 5.0943413
-4.6950545 0.04193294 5.0915651
-4.6963196 -0.037746072 5.0865126
-4.5998058 -0.12022743 5.0451732
-4.52003 -0.090093464 5.0178123
0 0 0 1 0 0 0 1 0 0 0 1 0 0 0 0 0 551 1 0 0
