ply
format ascii 1.0
comment PCL generated
element vertex 483
property float x
property float y
property float z
element camera 1
property float view_px
property float view_py
property float view_pz
property float x_axisx
property float x_axisy
property float x_axisz
property float y_axisx
property float y_axisy
property float y_axisz
property float z_axisx
property float z_axisy
property float z_axisz
property float focal
property float scalex
property float scaley
property float centerx
property float centery
property int viewportx
property int viewporty
property float k1
property float k2
end_header
-8.4699583 -1.5232849 6.2753382
-8.4687157 -1.5244867 6.2748194
-8.4818287 -1.484929 6.2818732
-8.3181047 0.93992317 6.3657408
-8.3235645 0.86005116 6.3630023
-8.2943058 0.82033145 6.3501244
-8.5069828 0.49450952 6.4075341
-8.5247574 0.45790851 6.4117804
-8.5233402 0.41670331 6.4088421
-8.5192509 0.37942198 6.4051733
-8.5288 0.33683127 6.4061036
-8.5202122 0.29716539 6.4006739
-8.4874954 0.21875191 6.3842711
-8.4851055 0.25826931 6.3857384
-8.5170164 0.3769834 6.4042249
-8.5226603 0.41754043 6.4086466
-8.4867964 0.49841183 6.4004927
-8.4812012 0.53732169 6.4007697
-8.4871454 0.57841885 6.4053316
-8.4938488 0.61676157 6.4100046
-8.4875259 0.57704157 6.4053874
1.4199557 0.21925731 2.8158078
1.3764706 0.24496794 2.8329849
1.355689 0.21967733 2.8389804
1.4113741 0.16583133 2.8157518
1.420548 0.099118009 2.8085175
1.4216957 0.16892299 2.812216
-6.8566298 -0.13136822 5.7762375
-6.8456259 -0.32551879 5.7608371
-6.8236513 -0.13088083 5.7643876
-6.7448196 -0.1304169 5.736021
-6.8461156 -0.011508405 5.7795105
-6.8623986 0.028662905 5.7877417
-6.8631854 0.068786457 5.7903886
-6.8221631 0.14866677 5.7803187
-6.8224645 0.22867438 5.78514
-6.822432 0.38856983 5.7945471
-6.8596058 0.46786642 5.8126078
-6.86133 0.58811736 5.820312
-6.8797493 0.66770959 5.831635
-6.8715 0.78751743 5.835721
-6.8202753 0.82789314 5.8196492
-6.8188195 0.94754523 5.8261733
-6.8990741 0.9873246 5.8574228
-6.8386621 1.0673809 5.8403788
-6.8440008 1.1868771 5.8493409
-6.8926497 1.305918 5.8738756
-6.8674579 1.3059583 5.8648043
-6.7711315 1.3134934 5.8305531
-6.7330785 1.3064865 5.8164344
-6.6251616 1.3072143 5.7776074
-6.5383921 1.2681217 5.7440519
-6.4954395 1.2681659 5.7285838
-6.4582882 1.2683461 5.7152128
-6.3941889 1.3082108 5.6944737
-6.3770638 1.3083347 5.688313
-6.259634 1.2941939 5.6451836
-6.1041813 1.2705535 5.5878
-5.9634318 1.3536606 5.5419998
-5.8958178 1.3172185 5.5154996
-5.8589458 1.3179295 5.5022612
-5.8354163 1.3134984 5.493525
-5.8003011 1.2745649 5.4785838
-5.72895 1.2364621 5.4506397
-5.6804805 1.1950136 5.4307404
-5.6045561 1.1660435 5.4016871
-5.5964108 1.1545157 5.3980742
-5.5586305 1.1250741 5.3827324
-5.5227885 1.0934992 5.3679624
-5.4661245 1.0006979 5.3420868
-5.3871417 0.96115792 5.3113093
-5.3054647 0.88113517 5.2771769
-5.2226672 0.8408767 5.2449832
-5.1439857 0.8813445 5.2190275
-5.1150522 0.92161214 5.210978
-5.0653052 0.92181224 5.1930718
-4.9467235 1.0023961 5.1551075
-4.9074583 1.0426316 5.1433349
-4.8232551 1.0834948 5.1154132
-4.7705369 1.1103398 5.0980067
-4.7311201 1.1105313 5.0838208
-4.6149006 1.1514832 5.0443726
-4.5354309 1.151742 5.0157642
-4.4203696 1.1529369 4.9743915
-4.3803163 1.1530044 4.959969
-4.3402629 1.1530716 4.9455462
-4.2613707 1.1936715 4.9195223
-4.181324 1.1535895 4.88833
-4.1431823 1.1540291 4.8746176
-4.1005793 1.1536002 4.8592477
-4.0216312 1.1139781 4.8284779
-3.9841273 1.1145419 4.8150029
-3.9040203 1.1146766 4.7861576
-3.8269842 1.0754268 4.7560987
-3.8017912 1.0754378 4.747025
-3.707345 1.0357478 4.710669
-3.6271222 0.99587762 4.6794257
-3.5746412 0.95649248 4.6582031
-3.4907632 0.87641966 4.6232748
-3.468472 0.87650406 4.6152511
-3.3887701 0.79675275 4.5818458
-3.3498755 0.75706309 4.5654988
-3.3090687 0.71700132 4.5484409
-3.2731018 0.63765347 4.5308123
-3.231163 0.59761715 4.5133481
-3.1934266 0.5181706 4.4950762
-3.1537783 0.43835181 4.4760938
-3.1147676 0.35865715 4.4573483
-3.0511158 0.32201305 4.4322634
-3.0161612 0.32307312 4.4197359
-2.9348958 0.36296487 4.3928156
-2.8980293 0.36365274 4.3795772
-2.8368433 0.32404763 4.355206
-2.974833 0.32289237 4.4048395
-3.0136726 0.22013345 4.412776
-3.0504191 0.08198227 4.4178734
-3.1297727 0.041718274 4.4440832
-3.2101154 0.0011553168 4.4706321
-3.3243036 0.040264502 4.5140643
-3.3624773 0.037332237 4.5276413
-3.4823403 -0.037895083 4.5663824
-3.5970292 0.038303643 4.6121802
-3.6781788 -0.041593224 4.6367021
-3.7603807 -0.0023207366 4.6686234
-3.8923311 0.036805436 4.7184544
-4.0308385 0.11620754 4.7730198
-4.1330671 0.15544632 4.8121519
-4.2661762 0.15481558 4.8600583
-4.3906965 0.19396991 4.9072151
-4.5021515 0.1935477 4.9473343
-4.5221252 0.27297714 4.9592075
-4.6176772 0.3523733 4.9983006
-4.7188096 0.24587117 5.0284529
-4.8159165 0.31165892 5.0673046
-4.8709736 0.32481527 5.0879102
-4.9142499 0.48425514 5.1128893
-5.0723987 0.44344324 5.1674476
-5.1111784 0.44309148 5.1813951
-5.189374 0.4425078 5.2095251
-5.2278199 0.52204394 5.2280579
-5.3462181 0.56135178 5.2730184
-5.38627 0.5612396 5.2874379
-5.4232931 0.60053241 5.3030872
-5.4641314 0.64054382 5.3201537
-5.5435662 0.80009508 5.3581634
-5.6225491 0.83963501 5.3889403
-5.7539887 0.79379314 5.4335823
-5.8099442 0.75478679 5.4514389
-5.8745699 0.65362281 5.4687567
-5.8662386 0.59400439 5.462244
-5.8558855 0.51449597 5.4538317
-5.9231644 0.47523004 5.4757514
-5.9784889 0.39421576 5.4909058
-5.9964561 0.3537966 5.4949965
-6.0347834 0.23343344 5.5017114
-6.0349054 0.22346245 5.5011678
-6.071929 0.15782008 5.5106363
-6.0769267 0.11378886 5.5098429
-6.1228857 -0.0051371157 5.5193911
-6.1219187 -0.13523936 5.5113788
-6.1250319 -0.20508832 5.5083857
-6.1266851 -0.32144183 5.5021272
-6.1179028 -0.36166298 5.4965949
-6.115129 -0.48214966 5.4884982
-6.1563983 -0.52194506 5.5010185
-6.2223344 -0.52275503 5.5247197
-6.3108625 -0.52310693 5.5565853
-6.3480158 -0.52320445 5.5699615
-6.4578547 -0.52333373 5.6095161
-6.4704528 -0.52332699 5.6140542
-6.5473642 -0.52396679 5.6417189
-6.5883484 -0.54381841 5.6553111
-6.6662564 -0.52427894 5.6845231
-6.7433815 -0.53987658 5.7113838
-6.7838664 -0.52482659 5.7268519
-6.8220019 -0.52520537 5.7405653
-6.787631 -0.40983719 5.7349815
-4.9373097 -1.4792974 5.0055299
-5.0923786 -1.4778486 5.0614686
-5.1356406 -1.4772855 5.0770841
-5.096364 -1.3971318 5.0676589
-4.9385557 -1.4765691 5.0061398
-4.9061584 -1.5160515 4.9921451
-7.6836767 1.2630877 6.1562672
-7.6548076 1.3024163 6.1481857
-7.5846834 1.3031323 6.1229701
-7.5371928 1.3033082 6.1058755
-7.4951515 1.3080641 6.091013
-7.4570737 1.3035787 6.0770335
-7.376255 1.3087131 6.0482264
-7.2981167 1.3043628 6.0198264
-7.1302662 1.2647619 5.9570365
-7.3017883 1.2650884 6.0188351
-7.3238583 1.1454964 6.0197396
-7.3054018 1.0659215 6.0084047
-7.3483562 0.98542821 6.0191345
-7.3583422 0.90544814 6.0180202
-7.3043532 0.82590061 5.9938884
-7.4232502 0.8252517 6.0366745
-7.4624939 0.78499138 6.0484381
-7.384881 0.62585557 6.0111094
-7.3457537 0.54622686 5.9923258
-7.3460455 0.46634138 5.9877248
-7.3082004 0.38695577 5.9694176
-7.2703552 0.3075701 5.9511099
-7.1115732 0.34835771 5.8963223
-7.1129723 0.22871178 5.8897781
-7.2636814 0.1878432 5.9416537
-7.3681345 0.067926511 5.9722118
-7.391758 0.14751482 5.9854093
-7.4694881 0.18676168 6.015718
-7.5037389 0.18649144 6.0280385
-7.5478592 0.2261301 6.0462646
-7.6293578 0.38503641 6.08498
-7.5829067 0.54480767 6.0776606
-7.6620932 0.62430108 6.1108646
-7.7012205 0.70392978 6.1296482
-7.6220918 0.78432882 6.1058836
-7.6607523 0.90383947 6.1268482
-7.7002001 1.0110085 6.1473694
-7.779882 1.1030867 6.1814938
-7.7018604 1.1437252 6.1557856
-7.1340284 0.74579024 5.9278212
-7.1356349 0.66614187 5.923708
-7.1270084 0.54775399 5.9136271
-7.1102324 0.62789619 5.9123058
-7.1047735 0.70776814 5.9150443
-7.1178875 0.74732602 5.9220982
-7.1151571 0.78726202 5.9234672
-1.9279277 -0.73703599 3.9653263
-1.8908799 -0.77136827 3.94996
-1.8928084 -0.77224219 3.950603
0.91534901 0.49725461 3.0139341
0.77740431 0.5766443 3.068296
0.76220036 0.57624561 3.0737486
0.75929689 0.57632399 3.0747991
0.75798512 0.49654692 3.0705724
0.75959301 0.45669836 3.0676458
0.60268879 0.37611523 3.1194131
0.60380507 0.33612829 3.1166556
0.60039377 0.2067273 3.1102619
0.60961151 0.21685955 3.1075387
0.65100908 0.25746867 3.0950201
0.67203569 0.29771757 3.0898175
0.75083494 0.33691263 3.0637441
0.87463856 0.45743591 3.0262518
0.91469336 0.45736605 3.0118206
0.91987658 0.49733463 3.0123081
-4.9887481 0.68285215 5.1514211
-4.9531808 0.52390718 5.1292472
-4.8130207 0.6309554 5.0850701
-4.8719234 0.72379136 5.1117544
-5.1095724 0.52273989 5.1855083
-5.0058732 0.68272817 5.1575818
-5.0267086 0.80227232 5.1721282
-5.1831002 0.80110496 5.2283888
-5.2253942 0.72146416 5.2389312
-5.2258797 0.68158007 5.2367568
-5.2257285 0.64157629 5.2343459
-5.1872826 0.56204015 5.2158132
-6.7029123 0.38902619 5.7515254
-6.743299 0.30902615 5.7613592
-6.5866055 0.23018591 5.7002769
-6.5449476 0.30994645 5.689971
-1.577868 -0.17899773 3.8721128
-1.6158834 -0.32727218 3.8770709
-1.6445303 -0.40746725 3.8826652
-1.752522 -0.44816166 3.9191647
-1.7563148 -0.44905031 3.9204783
-1.6716347 -0.52751803 3.8853559
-1.6205306 -0.60901463 3.8621483
-1.6834452 -0.72773165 3.877816
-1.7233963 -0.75761235 3.8904457
-1.6179585 -0.75445199 3.8526549
-1.5010138 -0.72839361 3.8120685
-1.4783683 -0.72861928 3.8038986
-1.4620621 -0.6933682 3.8001018
-1.4597323 -0.68833232 3.7995594
-1.4497013 -0.64785308 3.7983308
-1.4247901 -0.61279416 3.7914233
-1.3652844 -0.56846547 3.7726016
-1.3636448 -0.40866858 3.781424
-1.3671899 -0.37921464 3.7844362
-1.3665192 -0.33932638 3.7865441
-1.3678546 -0.3278268 3.7877026
-1.3651357 -0.21954238 3.7931018
-1.3637946 -0.13976589 3.797318
-1.366019 -0.099796921 3.8004737
-1.4462543 -0.019069552 3.8341284
-1.4837358 0.020559162 3.8499629
-1.5631814 0.020636484 3.8785825
-1.5722485 0.020482138 3.8818393
-1.5646904 -0.069112092 3.8738394
-1.5794642 -0.13914806 3.8750348
-6.7430296 0.069123074 5.7471304
-6.7104082 0.069199264 5.7353854
-6.6635623 0.069467232 5.7185278
-6.6033335 0.029631749 5.694488
-6.5450134 -0.0098444819 5.6711569
-6.5054464 -0.049616337 5.654563
-6.5868545 -0.20949665 5.6744666
-6.6239858 -0.32469803 5.6810546
-6.7422366 -0.32512796 5.7236214
-8.5181131 0.69647133 6.42344
-8.5221348 0.7372039 6.4272876
-8.5200758 0.69587719 6.4241114
-8.5163364 0.65616405 6.4204254
-5.2942514 -0.78031874 5.1752687
-5.2841048 -0.78968108 5.1710625
-5.1753597 -0.78000653 5.1324639
-5.0826764 -0.79976046 5.0979176
-5.0894856 -0.95940208 5.0909662
-5.1679688 -1.0385842 5.1145701
-5.2469029 -1.0790756 5.1406159
-5.4006557 -1.1203604 5.193563
-5.4871097 -1.1592396 5.2224121
-5.560955 -0.99047518 5.2589512
-5.559886 -0.96067715 5.2603211
-5.5591712 -0.86582649 5.2656512
-5.4392452 -0.79321826 5.2267327
-5.5943856 -0.79675531 5.2824035
-5.6407447 -0.7881248 5.2996097
-5.6769934 -0.79134965 5.3124757
-5.7133131 -0.79956055 5.3250737
-5.8423872 -0.79300332 5.3719501
-5.8806291 -0.80086088 5.3852615
-5.841783 -0.84060514 5.3689284
-5.8035774 -0.88023162 5.3528333
-5.7417278 -0.96004021 5.3258553
-5.6851158 -0.99981749 5.3031211
-5.6358647 -1.0796194 5.2806811
-5.6018567 -1.1607747 5.2636514
-5.6040092 -1.1999103 5.2621212
-5.5670152 -1.2793067 5.2441196
-5.5973201 -1.3611085 5.2502165
-5.5985317 -1.4008782 5.2483101
-5.5246844 -1.4796605 5.2170711
-5.4856596 -1.5069398 5.2014079
-5.3689384 -1.478734 5.1610289
-5.3228016 -1.4384482 5.1467838
-5.2923803 -1.3680503 5.1399736
-5.2085595 -1.2886951 5.1144571
-4.0685744 0.19565405 4.7912912
-4.1325464 0.19532737 4.8143139
-4.265655 0.19469661 4.8622198
-4.3040285 0.2742672 4.8807287
-4.2229953 0.39416921 4.8586049
-4.1424832 0.47419018 4.8343196
-4.063767 0.51457828 4.8083463
-4.0249882 0.51489383 4.7943974
-3.984935 0.51496124 4.7799749
-3.8853755 0.39578557 4.7370954
-3.8937321 0.27599022 4.7330484
-3.9897423 0.19603702 4.7629199
-7.0741367 0.06919761 5.866394
-7.073204 0.1489616 5.8707566
-7.1353331 0.029234216 5.8860817
-7.1141386 -0.090830147 5.8713751
-7.273561 -0.13149628 5.9264011
-7.114255 -0.21071914 5.8643551
-7.1141386 -0.31066811 5.8584256
-7.1146631 -0.41049367 5.8527341
-7.1113415 -0.51105022 5.8456144
-7.0719233 -0.51079345 5.8314319
-7.0527711 -0.48462653 5.8260751
-7.0748367 -0.43030041 5.8372226
-7.0747781 -0.37035483 5.8407326
-7.0745449 -0.35041487 5.8418236
-7.0749531 -0.33035135 5.843152
-7.0747204 -0.31041139 5.844243
-7.0744867 -0.29046935 5.8453336
-7.0753031 -0.25034434 5.847991
-7.0617528 -0.21192095 5.8453741
-7.0730295 -0.16583818 5.85215
-7.073904 -0.13069838 5.8545351
-7.0749359 -0.091458052 5.8572183
-7.0729713 -0.050934404 5.8588977
-7.0733204 0.029072583 5.8637366
0.69234276 0.018938005 3.0660815
0.67095709 -0.06171307 3.0690334
0.63472605 -0.10236052 3.0796888
0.63275862 -0.2220262 3.0733485
0.65027714 -0.33067006 3.0606389
0.61240292 -0.3014915 3.0759993
0.51257753 -0.26182348 3.1142914
0.35590029 -0.20218468 3.1742368
0.34264755 -0.1824806 3.180171
0.27744579 -0.062316567 3.2107339
0.3853569 -0.062094331 3.1718793
0.50650644 -0.062027186 3.1282473
0.51585627 -0.062380701 3.1248589
0.62831116 -0.022071511 3.0867288
0.63291931 -0.017005324 3.0853674
1.00172 -0.40309364 2.9297888
0.98293591 -0.42079562 2.9355118
0.98231173 -0.38067025 2.9381003
0.99717236 -0.38066685 2.9327478
1.0169516 -0.14105532 2.9397385
1.023643 -0.10106 2.9396844
1.0243816 -0.14105362 2.9370623
-2.3689342 0.33020368 4.187036
-2.4083509 0.32997239 4.2012196
-2.4471297 0.3296167 4.2151661
-2.3497958 0.2870678 4.1776018
-2.313668 0.33080825 4.1671658
-8.4886036 0.17899142 6.382328
-8.4884281 0.13898788 6.3799086
-8.493248 0.17600736 6.3838253
-5.9110942 -1.5225115 5.353725
-5.9530745 -1.5221838 5.368865
-5.9149032 -1.519312 5.3552852
-5.8785834 -1.5111014 5.3426871
-4.9989343 -0.79806793 5.0678549
-4.9632926 -0.83722353 5.0527105
-4.9796658 -0.87651575 5.0562935
-5.0074368 -0.91786778 5.0638604
-5.0538034 -0.99764216 5.0758615
-5.0598559 -1.0165265 5.0769291
-5.0507441 -1.0981851 5.0688372
-5.0157442 -1.1822141 5.051281
-5.0170999 -1.276947 5.0461888
-4.0238299 0.55465078 4.7963223
-4.0023556 0.7143327 4.7979937
-4.1320415 0.7535097 4.847012
-4.2198677 0.63345551 4.8715734
-4.135169 0.51422346 4.834043
-2.1604187 -0.7739495 4.0468912
-2.193327 -0.77344167 4.058774
-2.2323418 -0.81418538 4.0704265
-2.2398517 -0.869174 4.0698924
-3.4306765 0.55715084 4.5828257
-3.3120232 0.63761151 4.5448284
-3.2329588 0.55798423 4.5116606
-3.2328429 0.51797915 4.5092621
-3.2739387 0.43814957 4.5193615
-3.4120975 0.39753631 4.5667319
-3.2342904 0.35833085 4.5003791
-3.3172357 0.23880109 4.5232139
-3.4016557 0.6768558 4.5794244
-3.4285915 0.71667504 4.5914717
-3.5127058 0.75631976 4.6241035
-3.5475931 0.75622976 4.6366644
-3.6281052 0.67620873 4.6609497
-3.5888622 0.51650381 4.6374073
-3.5100298 0.51688683 4.6090355
-1.7370398 -0.76985776 3.8946383
-1.7733669 -0.77814734 3.9072344
-1.7962425 -0.7761699 3.9155903
-1.7823262 -0.77087271 3.9108901
-1.7573273 -0.7686094 3.902019
-5.092823 -0.790398 5.1021237
-3.6465619 0.47644842 4.6558304
-3.7497702 0.31645679 4.6835794
-3.7502913 0.27657574 4.6814179
-3.6725016 0.19719666 4.6487236
-3.6330857 0.19738816 4.6345382
-3.5537319 0.23765215 4.6083279
-3.5342898 0.31727311 4.6060152
-3.5510097 0.39705223 4.6167369
-2.614856 -0.8883779 4.2038312
-2.7051034 -0.77605391 4.2429533
-2.732043 -0.85667312 4.2479076
-2.7411532 -0.93633926 4.2464962
-2.7336071 -0.97631621 4.2414231
-2.6827042 -1.0568513 4.2183447
-2.5337632 -1.0083826 4.1675539
-2.4374309 -1.0549536 4.1301131
-2.4973059 -0.9901228 4.155498
-2.5766962 -0.93542111 4.1873155
-2.5420096 0.36512792 4.2514319
-2.6076081 0.36462641 4.2750301
-2.6221166 0.36499316 4.2802773
-2.6634445 0.36517388 4.2951736
-2.5610998 0.28593001 4.253643
-2.5063019 0.32605883 4.2362695
-6.7393522 0.94788945 5.7975707
-6.5819902 1.0288248 5.7456589
-6.583931 0.86928874 5.7369604
-3.784611 0.71519983 4.7196169
-3.8890409 0.63491958 4.752502
-3.769455 0.51577759 4.7024107
-3.7072263 0.55593455 4.6823626
-3.7056627 0.67557764 4.6888471
0 0 0 1 0 0 0 1 0 0 0 1 0 0 0 0 0 483 1 0 0
