ply
format ascii 1.0
comment PCL generated
element vertex 617
property float x
property float y
property float z
element camera 1
property float view_px
property float view_py
property float view_pz
property float x_axisx
property float x_axisy
property float x_axisz
property float y_axisx
property float y_axisy
property float y_axisz
property float z_axisx
property float z_axisy
property float z_axisz
property float focal
property float scalex
property float scaley
property float centerx
property float centery
property int viewportx
property int viewporty
property float k1
property float k2
end_header
-0.39306712 -1.5151346 -2.866354
-0.35697246 -1.5236721 -2.9084702
-0.39949894 -1.4558442 -2.868403
-0.42226028 -1.3691728 -2.8552885
-0.42555737 -1.328862 -2.8579788
-0.42774606 -1.2891272 -2.8619108
-0.43901777 -1.1709208 -2.867867
-0.4490099 -1.0924323 -2.8687978
-0.44889545 -1.0523101 -2.8755713
-0.45218778 -1.0127732 -2.8781395
-0.45966387 -0.92769855 -2.8831935
-0.39344144 -0.87061989 -2.9724927
-0.36334634 -0.83667719 -3.0143991
-0.27806282 -0.84953839 -3.1151175
-0.26001692 -0.84947866 -3.1368899
-0.20245409 -0.88574427 -3.2003093
-0.18532515 -0.8793093 -3.2220297
-0.18864775 -0.83977169 -3.2245617
-0.15807962 -0.76076657 -3.2744904
-0.16119814 -0.71504325 -3.2782917
-0.16472578 -0.68169135 -3.2795534
-0.16053295 -0.61771572 -3.2951899
-0.17137098 -0.60261613 -3.2846174
-0.18951941 -0.60576874 -3.2622104
-0.26370859 -0.52305126 -3.1864228
-0.27794313 -0.51800239 -3.1700921
-0.28429556 -0.56943291 -3.1539259
-0.27985096 -0.60916007 -3.1527157
-0.26988316 -0.72777295 -3.1451201
-0.2813859 -0.81000078 -3.1176496
-0.38347411 -0.80045879 -2.9961162
-0.38595104 -0.79837793 -2.9934731
-0.39261651 -0.79741871 -2.9855938
-0.41275692 -0.79933465 -2.960989
-0.43472767 -0.80030489 -2.9343333
-0.45287919 -0.79480064 -2.9133539
-0.47693396 -0.79417813 -2.8844485
-0.49506569 -0.78863227 -2.8635001
-0.53116274 -0.78867841 -2.819962
-0.58566833 -0.77046967 -2.7572432
-0.62276316 -0.77706546 -2.7114186
-0.65972257 -0.77589428 -2.6670418
-0.67744279 -0.77529055 -2.645772
-0.71267748 -0.77655411 -2.6030726
-0.74898028 -0.77412921 -2.5596948
-0.76821947 -0.77356184 -2.5365877
-0.77523947 -0.77226108 -2.528337
-0.7491188 -0.7677747 -2.5605788
-0.71527767 -0.76773137 -2.6013961
-0.70961428 -0.76714331 -2.6083231
-0.65968299 -0.76722741 -2.6685228
-8.2822151 1.4162557 6.1626244
-8.3235798 1.4208322 6.211751
-8.328064 1.4211595 6.217104
-8.3389072 1.3705983 6.2385421
-8.3883314 1.3211424 6.3063231
-8.4447803 1.2113302 6.3925571
-8.4390926 1.13201 6.3988161
-8.4110117 1.0506883 6.3784022
-8.4599609 0.97947592 6.4492083
-8.4622469 0.93895513 6.4586668
-8.4554129 0.89996439 6.4568734
-8.3871078 0.81387514 6.3887396
-8.3658295 0.81204659 6.3633819
-8.3969784 0.6975655 6.419878
-8.3229723 0.61243242 6.3447118
-8.3463192 0.49674112 6.3919997
-8.3966074 0.46256238 6.4582958
-8.4034348 0.54169148 6.4534431
-8.4091225 0.62101167 6.4471841
-8.4474573 0.74075013 6.4736104
-8.4709778 0.8228367 6.4883986
-8.4789448 0.90177459 6.4849529
-8.489193 0.98032969 6.4843197
-8.4983015 1.0590763 6.4822803
-8.5051355 1.098067 6.4840736
-8.4937229 1.1802559 6.456718
-8.5039701 1.2588112 6.4560843
-8.4942036 1.293061 6.4386425
-8.4914246 1.301053 6.4339685
-8.4770117 1.297713 6.4171405
-8.4703245 1.2966757 6.4092479
-8.4415607 1.2946532 6.3748946
-2.5488992 1.4010885 -0.74885404
-2.5488052 1.3900723 -0.74714577
-2.5853109 1.3948867 -0.70391858
-0.62789869 1.374898 -3.0611181
-0.57807255 1.3608229 -3.1188774
-0.62866306 1.3736808 -3.0599952
-0.6830368 1.3814342 -2.9957066
-6.0398207 -0.90334797 3.8420672
-6.1230578 -0.78223926 3.9224162
-6.0690784 -0.78496933 3.8577724
-6.0145864 -0.78425598 3.7919407
-5.9962959 -0.77283412 3.7679949
-5.9061146 -0.78627282 3.6614652
-5.8874068 -0.77979565 3.6378331
-5.8328004 -0.78994292 3.5736599
-5.7609286 -0.795555 3.4879155
-5.7569599 -0.84253043 3.4908981
-5.7245584 -1.0076194 3.4791269
-5.6917663 -1.0230603 3.4421358
-5.6816006 -1.061481 3.4362304
-5.7109342 -1.1006222 3.4780779
-5.7153664 -1.1164045 3.4860332
-5.7425418 -1.1401428 3.5227304
-5.805016 -1.1187713 3.5945354
-5.873271 -1.1001964 3.6737747
-5.8928881 -1.1089658 3.6988821
-5.9245152 -1.1488562 3.743619
-5.9290619 -1.1603174 3.7509971
-5.9466305 -1.1707685 3.7739124
-5.9754558 -1.1916001 3.8121185
-6.0078974 -1.2253944 3.8568301
-6.012444 -1.2368557 3.8642082
-6.0483227 -1.23948 3.9079094
-6.0563993 -1.2257833 3.9153843
-6.0326338 -1.2067775 3.8835816
-5.9862695 -1.1288896 3.8147883
-5.9886818 -1.0908327 3.8114033
-5.9881697 -1.0873895 3.8102164
-6.0001221 -0.94157827 3.8005161
-8.3530426 -0.063428581 6.4927483
-8.315918 -0.14431262 6.4613557
-8.3359728 -0.26125106 6.5048795
-8.3204269 -0.30453819 6.4932909
-8.3200302 -0.37898833 6.5051255
-8.3134098 -0.41550723 6.503181
-8.3103495 -0.43757099 6.503139
-8.3275967 -0.46555007 6.5285649
-8.3407402 -0.55732304 6.5595937
-8.3532686 -0.47915035 6.5617733
-8.3538237 -0.37889946 6.5458632
-8.3532505 -0.35873562 6.5418367
-8.3515377 -0.33837873 6.5364041
-8.3637791 -0.25012356 6.5365715
-8.3853569 -0.17846519 6.5507417
-8.3898602 -0.13836366 6.54954
-8.377696 -0.10158378 6.528789
-8.3893833 0.046610117 6.5183749
-8.3849258 0.17204583 6.4922552
-8.4304886 0.087377369 6.561203
-8.3970776 0.055353701 6.526207
-7.9569292 1.3312037 5.7844181
-7.9917407 1.3268452 5.8271189
-7.9558811 1.3296115 5.7834172
-8.3015833 1.3330922 6.1997347
-8.2700901 1.372395 6.1552558
-8.2336559 1.3953259 6.1075273
-8.1498566 1.3839278 6.0083561
-8.0823593 1.3364427 5.9348116
-8.0469074 1.3333826 5.8925657
-8.028862 1.3281436 5.8716702
-8.0471029 1.3250835 5.8941731
-8.0829811 1.3330889 5.9361157
-8.1175795 1.3262577 5.9789686
-8.1408701 1.3434987 6.0042048
-1.0200768 -0.78376937 -2.2311769
-0.99740124 -0.80821443 -2.2544789
-0.95843935 -0.87822717 -2.2898855
-0.97992587 -0.93436623 -2.2546902
-0.9951539 -0.87086022 -2.246829
-1.0710132 -0.81780666 -2.1641216
-1.0811667 -0.81567872 -2.1522293
-1.0979571 -0.81240886 -2.1325221
-1.0936227 -0.76540828 -2.1455221
-1.0730319 -0.78442925 -2.1672072
-2.6303005 1.406821 -0.65163791
-2.6640205 1.4195988 -0.61308658
-2.6810832 1.4166911 -0.59202969
-2.6947131 1.4178734 -0.57578838
-2.7035193 1.418855 -0.56533086
-2.7217193 1.4157531 -0.54287016
-2.773597 1.3743145 -0.47345603
-2.7825007 1.3738384 -0.46263993
-2.8092647 1.3692083 -0.42959893
-2.7498851 1.3292506 -0.49459827
-2.7404609 1.3133059 -0.50332606
-2.7209466 1.3221443 -0.52832091
-2.7172101 1.3287983 -0.53392732
-2.640022 1.3966 -0.63822377
-2.6220248 1.4021723 -0.66084898
-0.24522305 -0.030933857 -3.290102
-0.26080179 -0.01495409 -3.2739573
-0.25639629 -0.055841029 -3.2725086
-0.27072382 -0.1570794 -3.2384877
-0.2637558 -0.26230627 -3.2294879
-0.25813532 -0.26286751 -3.2361732
-0.25298738 -0.15764147 -3.2597833
-0.24990416 -0.13955563 -3.2664924
-3.9284577 1.3605969 0.92149562
-3.9647532 1.3629062 0.96488357
-4.0024099 1.3910303 1.0056441
-4.0571146 1.3927097 1.0713363
-4.0930605 1.3973987 1.1139091
-4.1292872 1.3923843 1.1584251
-4.1467547 1.3903797 1.1798213
-4.1827354 1.3792329 1.2250552
-4.2182989 1.3826392 1.267379
-4.2723751 1.3769028 1.3335402
-4.3264518 1.3711669 1.3997015
-4.36233 1.3880291 1.4401795
-4.3271852 1.3895664 1.397543
-4.2726898 1.3903589 1.3316944
-4.2177763 1.3862078 1.2661585
-4.1845026 1.4059513 1.2227674
-4.107717 1.4471819 1.1233506
-4.0479941 1.4855053 1.044991
-4.0468369 1.4860766 1.0435009
-4.0037713 1.4168456 1.0030165
-3.9651732 1.3873463 0.96134824
-3.8924768 1.3717439 0.87626177
-0.50195956 -1.5253932 -2.7333407
-0.4929359 -1.5287964 -2.74366
-0.48725748 -1.5278211 -2.750669
-0.46586776 -1.5252738 -2.7768846
-0.45404911 -1.5207517 -2.7918849
-0.41142321 -1.5158162 -2.8441052
-0.51988697 -1.4512974 -2.7239757
-0.51531386 -1.439903 -2.7313747
-0.44902802 -1.3719504 -2.8225489
-0.45185375 -1.293433 -2.8321266
-0.53190398 -1.2224135 -2.7473369
-0.61088943 -1.1409611 -2.6655564
-0.52560043 -1.2012796 -2.7584333
-0.50365639 -1.0394083 -2.811667
-0.53287911 -0.88786387 -2.8014884
-0.56198788 -0.87030584 -2.7692895
-8.2094469 -0.88518453 6.4554844
-8.2037525 -0.92436659 6.4550977
-8.191205 -1.0423133 6.4594722
-8.1855373 -1.0818596 6.4591765
-8.1649265 -1.1572369 6.4467874
-8.194273 -1.2381163 6.495554
-8.1897202 -1.2774894 6.4965739
-8.1851139 -1.3161345 6.4974117
-8.1840315 -1.3568096 6.5028329
-8.1098919 -1.3999836 6.4205661
-8.0820942 -1.4372571 6.393208
-8.0689907 -1.4751959 6.3836799
-8.0105314 -1.5170419 6.3201022
-7.9485054 -1.5332038 6.2479763
-7.9252658 -1.5221708 6.2181263
-7.9625692 -1.3807724 6.2397275
-7.9761801 -1.3249879 6.2469149
-8.00105 -1.286144 6.270483
-8.0224943 -1.206588 6.2831864
-8.0348186 -1.1255021 6.2846379
-8.0416527 -1.0865114 6.2864313
-8.0731592 -1.0459018 6.3177104
-8.128499 -0.96771348 6.3715153
-8.1363707 -0.92745745 6.3743505
-8.1441288 -0.80546832 6.3635311
-8.1486816 -0.7660951 6.3625112
-8.1756477 -0.84513521 6.4081011
-8.203886 -0.86920047 6.446135
-3.5950649 -1.1084334 0.92777604
-3.6259789 -1.0159103 0.94975471
-3.6224756 -1.0027759 0.94335794
-3.6083574 -0.96122253 0.91946018
-3.6132774 -0.89338696 0.91417474
-3.6372335 -0.83826244 0.9339475
-3.6640251 -0.81580901 0.96254283
-3.7268734 -0.84059238 1.0424325
-3.7822075 -0.81200105 1.1044331
-3.7490067 -0.77095681 1.0576072
-3.7141166 -0.773224 1.0159073
-3.6781344 -0.78157377 0.97389609
-3.6590974 -0.78835928 0.95206082
-3.607533 -0.75296164 0.88402355
-3.5157995 -0.77534968 0.77710193
-3.5596814 -0.94233418 0.85763639
-3.5399959 -0.9712407 0.83867753
-3.5045407 -1.022157 0.80434155
-3.4200771 -1.0433533 0.70598966
-3.4034467 -1.0314615 0.68396795
-3.3862936 -1.0160009 0.66072571
-3.3663139 -1.0436578 0.64120531
-0.50589466 1.3783755 -3.2088218
-0.46959543 1.376024 -3.2522073
-0.5019877 1.3749168 -3.2129612
-0.52424765 1.3690374 -3.1851449
-0.56054735 1.3713889 -3.1417589
-0.52404284 1.3752232 -3.1864147
-0.51964736 1.3754354 -3.1917505
-0.99188685 1.4101737 -2.6280069
-0.95029521 1.436228 -2.6824727
-0.92772174 1.4367249 -2.7097769
-0.90415978 1.4347255 -2.7378602
-0.8478961 1.4047313 -2.8007503
-0.80814123 1.3991098 -2.8477621
-0.85049224 1.4454875 -2.8043594
-0.88860083 1.458919 -2.7606249
-0.94087386 1.4419599 -2.6947823
-0.96739268 1.4328718 -2.6612992
-1.0101006 1.4070044 -2.6055183
-1.0613236 1.3776891 -2.5388989
-1.0264244 1.3815939 -2.5816307
-3.2413568 1.3658817 0.092024922
-3.2054801 1.3685162 0.048324227
-3.205584 1.3600037 0.049857497
-3.2227371 1.3445432 0.073099732
-3.2959561 1.3565767 0.15940666
-3.3707459 1.3968973 0.24292994
-3.2971082 1.37992 0.15693557
-2.6752253 -0.81493765 -0.23002625
-2.6701016 -0.8287828 -0.23391497
-2.6526012 -0.89132124 -0.24467659
-2.6469769 -0.93048227 -0.24498272
-2.6242771 -1.0275542 -0.25630355
-2.5981631 -1.1333153 -0.27030432
-2.595067 -1.1428045 -0.27246857
-2.6119707 -1.1796618 -0.24598861
-2.6233351 -1.2035484 -0.22833347
-2.6649737 -1.189029 -0.18052161
-2.6998277 -1.2039385 -0.136024
-2.7778625 -1.2438087 -0.035325885
-2.8219695 -1.2464612 0.018303037
-2.8747945 -1.3060256 0.091856956
-2.8829675 -1.2876209 0.098669171
-2.8997316 -1.245868 0.11198056
-3.0152783 -1.1440048 0.23447609
-3.0434155 -1.1387701 0.26754153
-3.0974865 -1.2438319 0.35012257
-3.0116029 -1.395661 0.27166235
-2.9327302 -1.4939299 0.19279921
-2.8759322 -1.5203272 0.12867045
-2.9120183 -1.5204899 0.17221475
-3.0156713 -1.5753574 0.30628717
-3.0513849 -1.5755813 0.34939218
-3.0551701 -1.5761015 0.35404277
-3.1428628 -1.5605474 0.4572221
-3.1996608 -1.5341501 0.52135098
-3.278018 -1.5298045 0.61512566
-3.3296793 -1.4762225 0.66856408
-3.3672295 -1.4785793 0.71423692
-3.403317 -1.4592452 0.7545585
-3.3672309 -1.4590826 0.71101415
-3.3495538 -1.4595497 0.68977416
-3.313781 -1.4654279 0.64760673
-3.241086 -1.4615335 0.55929732
-3.2203741 -1.4880935 0.53871286
-3.1643081 -1.5155878 0.47564816
-3.1537743 -1.3308589 0.4323945
-3.1032643 -1.257354 0.35932684
-3.0161457 -1.4071015 0.27903283
-3.0331182 -1.4861171 0.31256843
-3.0932865 -1.511416 0.38931108
-3.1108596 -1.5024364 0.40901792
-2.6887574 -0.81499863 -0.2136972
-2.6814642 -0.86854601 -0.21363664
-2.7072937 -0.9771142 -0.1645329
-2.7236032 -1.0297315 -0.13616312
-2.7840166 -1.0893941 -0.053441286
-2.8588433 -1.0844085 0.035969973
-2.875226 -1.082934 0.055482507
-2.9086185 -1.0876526 0.096531987
-2.9143062 -1.0886217 0.10355091
-2.9859967 -1.0537603 0.18423951
-2.9955153 -1.0503676 0.19515717
-3.0507495 -0.93343472 0.24242759
-3.0492358 -0.88706994 0.23293412
-3.0047333 -0.82278603 0.16863596
-2.9848998 -0.80784088 0.14224648
-2.9376893 -0.77165002 0.079328537
-2.9559941 -0.76376742 0.10009944
-2.9689903 -0.76650679 0.11622488
-2.9730432 -0.77071565 0.12180853
-3.0368476 -0.77058721 0.19873106
-3.1366343 -0.76210898 0.31766486
-3.1543112 -0.76164174 0.33890474
-3.190711 -0.76784509 0.38382602
-3.2241552 -0.89031184 0.44441128
-3.2146552 -0.91137201 0.43643785
-3.1633077 -0.96878785 0.38401151
-3.1674812 -1.1397067 0.41731131
-3.1757293 -1.1724751 0.43267727
-3.2192264 -1.2152932 0.49221301
-3.1547747 -1.32841 0.43319595
-4.7875247 -1.531575 2.4357805
-4.8360305 -1.4782647 2.4854586
-4.8540173 -1.4837708 2.50806
-4.8641424 -1.4883595 2.521029
-4.8717952 -1.4917494 2.5308182
-4.8770633 -1.4976423 2.538146
-4.9316716 -1.5346262 2.6101162
-4.9498506 -1.5376689 2.6325419
-4.968029 -1.5407115 2.6549673
-4.9548726 -1.5418978 2.6392975
-4.9218054 -1.5359948 2.5984445
-4.9040132 -1.5392809 2.5775321
-4.8958511 -1.540422 2.567878
-4.8860216 -1.5417588 2.5562449
-4.8666873 -1.5367182 2.5320959
-4.8623486 -1.5353044 2.5266297
-4.8499436 -1.5319825 2.5111206
-4.7966142 -1.5330963 2.4469931
-6.748662 1.3544869 4.3234792
-6.8047457 1.3816924 4.3866134
-6.7487669 1.3653164 4.321815
-6.724988 1.3610575 4.2938437
-6.7073231 1.3607929 4.2725854
-6.6534853 1.3691354 4.2062802
-6.6233091 1.3708684 4.1696038
-6.6176271 1.371938 4.1625743
-6.6411853 1.3736567 4.1907001
-6.6590614 1.3764453 4.2117958
-6.6947083 1.3711927 4.2556524
-6.8412008 -0.90041929 4.8079925
-6.8057094 -0.92036116 4.7684903
-6.7499542 -0.79340672 4.6802573
-6.7429342 -0.77260822 4.6683521
-6.6883745 -0.78269774 4.6042261
-6.6338506 -0.7818256 4.5383296
-6.578269 -0.79331297 4.4732018
-6.5717888 -0.79192752 4.4651575
-6.5434589 -0.77825814 4.4287329
-6.507802 -0.77309096 4.3848791
-6.3937712 -0.7779479 4.2481689
-6.4443293 -0.89796174 4.3289862
-6.3473482 -0.98198473 4.2259297
-6.315793 -1.033264 4.1963568
-6.2749701 -1.1301044 4.1631422
-6.2580657 -1.1817617 4.1513
-6.2553172 -1.2138965 4.1532998
-6.1685467 -1.3523655 4.0715609
-6.1540217 -1.3937249 4.0608845
-6.0855699 -1.4537901 3.9882698
-5.9993281 -1.4668586 3.8864298
-5.9915004 -1.4681195 3.8771987
-5.9368329 -1.5051029 3.8173895
-5.9165483 -1.526793 3.7965145
-5.9710402 -1.5275064 3.8623462
-5.9887233 -1.5270967 3.8836031
-6.0188251 -1.5120578 3.917417
-6.0569782 -1.5085219 3.962842
-6.0636024 -1.509047 3.9709172
-6.096117 -1.5022178 4.0089979
-6.1109581 -1.5057919 4.0274863
-6.1358838 -1.5039511 4.057241
-6.1581774 -1.5160952 4.086134
-6.1758113 -1.5156698 4.1073284
-6.2114687 -1.5089872 4.1492238
-6.2303357 -1.516542 4.1732259
-6.2433109 -1.5142963 4.1885014
-6.2623963 -1.5126343 4.2112427
-6.2669306 -1.5130384 4.2167773
-6.2790947 -1.5085324 4.2307014
-6.3138342 -1.5151305 4.2736859
-6.3385735 -1.5172122 4.3038635
-6.3748636 -1.5149637 4.3472557
-6.3930979 -1.5180843 4.3697605
-6.4283662 -1.5172337 4.4121513
-6.4466 -1.5203544 4.4346557
-6.4646568 -1.5149853 4.4555435
-6.5368147 -1.5154321 4.542635
-6.5722256 -1.5340327 4.5884137
-6.6261501 -1.531359 4.6530013
-6.6081624 -1.5148048 4.6285715
-6.590951 -1.5102863 4.6070685
-6.53685 -1.5044706 4.5408645
-6.4697189 -1.4722791 4.4545851
-6.4663 -1.471694 4.4503655
-6.4309378 -1.4766093 4.4085336
-6.3948584 -1.476386 4.3649874
-6.3591671 -1.4821804 4.3229051
-6.3162489 -1.4296896 4.2624674
-6.3513956 -1.2350583 4.2726636
-6.4238091 -1.1998831 4.3541718
-6.464386 -1.160375 4.3965716
-6.5051088 -1.1231236 4.4395199
-6.5364647 -1.0974579 4.4730883
-6.5415387 -1.0381323 4.4693956
-6.5737948 -0.85618442 4.4782038
-6.6098738 -0.85640788 4.5217495
-6.704988 -0.8347674 4.6328716
-6.7404609 -1.0013555 4.7031999
-6.6965861 -1.0421591 4.6570382
-6.6787405 -1.0450562 4.6359968
-6.6941977 -1.0796478 4.660358
-6.6976652 -1.0809851 4.6647601
-6.7328796 -1.1132405 4.7125611
-6.7652531 -1.1200349 4.7527246
-6.7720175 -1.1200769 4.7608895
-6.8180017 -1.0770307 4.8092241
-6.8260155 -1.0393888 4.8126631
-6.8775158 -0.9549256 4.8608003
-6.8792171 -0.86743402 4.8483829
-0.66316843 -1.0884469 -2.6111965
-0.71152091 -1.0474187 -2.5596714
-0.73402047 -1.0458987 -2.5327902
-0.79236484 -1.0008175 -2.4698863
-0.82277632 -0.96247697 -2.4395528
-0.81815004 -1.0318617 -2.4336572
-0.78373027 -1.122334 -2.4602027
-0.72958446 -1.1222649 -2.5255103
-0.68637633 -1.1015164 -2.5810475
-1.5731001 -1.5308506 -1.4407159
-1.5185869 -1.5214876 -1.5080036
-1.4645634 -1.5245163 -1.572651
-1.5004942 -1.5357003 -1.5274717
-4.4512763 1.372828 1.5499562
-4.4875646 1.3749902 1.5933598
-4.5267315 1.3849177 1.6389508
-4.5993495 1.4111412 1.7221863
-4.5461092 1.4072678 1.6586225
-4.5143561 1.393518 1.6226048
-4.5078254 1.3912249 1.6151084
-4.470902 1.3815002 1.5721892
-4.4351292 1.3756225 1.5300219
-3.3910389 1.4185135 0.26382709
-3.4273343 1.4208229 0.30721509
-0.58150125 -1.5029893 -2.6411238
-0.6344955 -1.5123159 -2.5756741
-0.65287256 -1.5129658 -2.5534053
-0.72424364 -1.5229424 -2.4656868
-0.65229416 -1.5290458 -2.5514431
-0.61640286 -1.5265286 -2.5951424
-0.58071733 -1.5215403 -2.6390014
-7.7035823 1.3341398 5.4784136
-7.7368631 1.2909281 5.5256944
-7.8128686 1.3456228 5.6083064
-7.7587681 1.351449 5.5421014
-7.7053075 1.3646939 5.475441
-7.6726117 1.3830082 5.4329834
-7.6497698 1.4219496 5.3989973
-7.6651497 1.3875093 5.4232402
-7.6876888 1.3644001 5.4542422
-6.3095608 -0.77487111 4.1461077
-6.2738695 -0.78066546 4.1040244
-6.3099489 -0.78088897 4.1475706
-6.3281822 -0.78400952 4.1700754
-6.3581963 -0.78123939 4.205812
-6.3400011 -0.77820551 4.1833677
-6.3274059 -0.77197391 4.1671491
-7.1075692 -1.5496483 5.2365847
-7.093523 -1.543077 5.2185593
-7.0756478 -1.5442934 5.1972036
-7.0802083 -1.5450584 5.2028298
-7.0984488 -1.5481184 5.2253332
-3.5510182 -1.182698 0.88694072
-3.5068479 -1.1399155 0.82659894
-3.4810774 -1.1430076 0.79603291
-1.9703743 -1.5288876 -0.96195471
-2.0060208 -1.5252091 -0.91957605
-1.969835 -1.5192158 -0.96420467
-1.9333272 -1.5240736 -1.0074273
-1.9522426 -1.5344336 -0.98290336
-5.6985826 1.3848588 3.0521331
-5.7380786 1.4240954 3.0932732
-5.7285447 1.4031146 3.0852461
-3.3784082 1.4056213 0.2507273
-5.3548827 1.381001 2.6382923
-5.3192387 1.3862765 2.5944352
-5.3371172 1.3890142 2.6155429
-5.3549957 1.3917518 2.6366506
-5.3722324 1.3870709 2.658211
-8.3486738 1.3363485 6.2559838
-6.9810681 1.349196 4.6046205
-7.0007515 1.347388 4.6286569
-6.9770727 1.3604422 4.5979424
-6.9500027 1.381995 4.5617337
-6.8599129 1.359971 4.4567342
-6.9580793 1.3574796 4.5755281
-6.9651051 1.3526409 4.5848002
-6.9696541 1.3518667 4.5904145
-7.0221415 -1.5546658 5.1343942
-7.0617542 -1.5444713 5.1804781
-7.0215416 -1.5511198 5.1330848
-7.0034847 -1.5564889 5.1121969
-1.8443625 -1.5293529 -1.1138395
-1.8800483 -1.5343411 -1.0699798
-1.897857 -1.5252749 -1.0500034
-1.8799701 -1.5170075 -1.0729409
-1.8437064 -1.5280992 -1.1148382
-1.8253293 -1.5274493 -1.137107
-4.0314221 -1.5071328 1.5199304
-3.9775538 -1.5184215 1.4568355
-4.0134778 -1.5200677 1.5004296
-4.0313878 -1.51717 1.5215485
-4.0495667 -1.5202124 1.5439743
-4.0679259 -1.5218484 1.5663847
-4.0856028 -1.5213811 1.5876249
-4.1035933 -1.5269547 1.6102419
-4.1209102 -1.530391 1.6316929
-4.1029396 -1.5248761 1.6091099
-4.0844922 -1.515893 1.5853778
-4.0667906 -1.5163186 1.5641013
-3.6389339 -1.493566 1.0443724
-3.59797 -1.5101244 0.99771112
-3.5454626 -1.4955981 0.9319886
-3.5841651 -1.4746116 0.97519022
-3.6096725 -1.4945664 1.0092509
-2.3668842 -1.5375376 -0.48236048
-2.3130462 -1.5206578 -0.55007708
-2.2949018 -1.5348984 -0.56960285
-2.096276 -1.5313221 -0.8097235
-2.1133869 -1.5294361 -0.78940094
-2.1319571 -1.536348 -0.7658633
-5.4094758 1.3908279 2.7025025
-5.4270277 1.380342 2.7254028
-5.4443769 1.3864119 2.7453213
-2.8572099 -1.5136566 0.10498941
-2.8398461 -1.5201645 0.085126042
-5.8907127 1.4045339 3.2805746
-5.864388 1.4283168 3.2448955
-5.8819394 1.4178309 3.2677958
-5.9077892 1.4012954 3.301703
-2.7668364 -1.5297264 -0.0013372898
-2.7487421 -1.5156405 -0.025487304
-2.7098799 -1.5240542 -0.070960879
-2.6581593 -1.534182 -0.13165748
-2.6919425 -1.5358238 -0.090645909
-2.7461858 -1.5303655 -0.026135087
-2.6378975 -1.5214151 -0.15820336
-2.6158571 -1.5228565 -0.18454421
-2.6394453 -1.5308385 -0.1547786
0 0 0 1 0 0 0 1 0 0 0 1 0 0 0 0 0 617 1 0 0
