ply
format ascii 1.0
comment PCL generated
element vertex 557
property float x
property float y
property float z
element camera 1
property float view_px
property float view_py
property float view_pz
property float x_axisx
property float x_axisy
property float x_axisz
property float y_axisx
property float y_axisy
property float y_axisz
property float z_axisx
property float z_axisy
property float z_axisz
property float focal
property float scalex
property float scaley
property float centerx
property float centery
property int viewportx
property int viewporty
property float k1
property float k2
end_header
1.3423285 -1.5262556 1.517673
1.3662438 -1.493587 1.5151401
1.3682299 -1.4772549 1.5176408
-3.0643826 -0.79065317 3.3290739
-3.0025833 -0.77957171 3.3079305
-2.9668741 -0.78224188 3.2939069
-2.9311652 -0.78491211 3.2798836
-2.9401736 -0.84439027 3.2714477
-2.9080086 -0.92604131 3.2430415
-2.8058317 -0.97770154 3.1941528
-2.7990799 -0.9772957 3.1916826
-2.7541602 -0.98426348 3.1733239
-2.7698216 -1.0116636 3.1737869
-2.7949686 -1.0637872 3.1729124
-2.7941751 -1.1045767 3.1644931
-2.8218789 -1.2724974 3.1415341
-2.7229548 -1.3488605 3.0889571
-2.6673045 -1.4368951 3.0504069
-2.5122845 -1.4134068 2.9965119
-2.5020814 -1.4296527 2.989423
-2.4461002 -1.4938648 2.9554896
-2.4223783 -1.499805 2.9453444
-2.4108214 -1.5009519 2.9407496
-2.3456664 -1.531074 2.9101362
-2.3051457 -1.5288243 2.8952744
-2.3413215 -1.5332429 2.9080629
-8.8540688 1.3304801 5.9388027
-8.8472576 1.3436227 5.9388452
-8.8447104 1.3068426 5.9305611
-8.8451347 1.2995908 5.9292774
-8.8462868 1.3028476 5.9303617
-9.1141796 -1.5809215 5.4575377
-9.0790472 -1.5930967 5.4418402
-8.9815979 -1.5818121 5.4072676
-9.0639076 -1.5797518 5.4387765
-9.1133213 -1.5514817 5.4630737
-9.1425409 -1.5148429 5.4814072
-9.1582546 -1.4388002 5.502481
-9.1559916 -1.4001243 5.509325
-9.1618156 -1.3160551 5.5282602
-9.1448126 -1.2323555 5.538497
-9.1379166 -1.1677766 5.5487466
-9.1614094 -1.2246833 5.5462947
-7.5191383 1.5153582 5.4712315
-7.465476 1.5174458 5.4513721
-7.4222727 1.4637067 5.4243517
-7.3917284 1.4229987 5.4047079
-7.3389883 1.3405805 5.3683753
-7.3762627 1.3390918 5.3821621
-7.4133139 1.3299315 5.3943377
-7.423522 1.3390658 5.400013
-7.5138335 1.3908544 5.4444437
-7.6251812 1.3915222 5.4866467
-7.6715255 1.3573802 5.4973607
-7.6818142 1.3576376 5.5012994
-7.6400285 1.397948 5.4935355
-7.5865688 1.4274721 5.4792142
-7.5527315 1.4584963 5.4726052
-5.707263 1.356539 4.7550426
-5.6764674 1.3722594 4.7465367
-5.6572118 1.35971 4.736763
0.75272465 1.4248939 2.3278942
0.73151731 1.4297674 2.3368771
0.73014879 1.4293919 2.3373194
0.74311972 1.4146924 2.3294926
0.78793097 1.4149098 2.3126051
0.86390448 1.4190454 2.2847235
0.89554119 1.4163995 2.2722435
0.94138908 1.4045835 2.252569
1.0317068 1.3591843 2.2094073
1.1400824 1.372767 2.171164
1.2118735 1.3745658 2.1443975
1.1198711 1.3933606 2.1828997
1.0838985 1.391252 2.1960714
0.98815632 1.4072788 2.2354355
0.96733236 1.4181986 2.2454772
0.90408802 1.4168539 2.269105
0.87082386 1.4221325 2.2827237
0.80307913 1.4279387 2.3094752
-9.1600895 -1.4086995 5.5091658
-9.1566906 -1.5112669 5.4874649
-8.6723471 -1.5645331 5.2938643
-8.8064852 -1.5902324 5.3394294
-8.687912 -1.58513 5.2956448
-8.6159496 -1.5804732 5.269383
-8.4356241 -1.5615798 5.2050118
-8.362956 -1.5448368 5.1808887
-8.2800798 -1.5372281 5.1510906
-8.3780956 -1.5581819 5.1839523
-8.5553341 1.2985919 5.8195848
-8.5490446 1.3373663 5.8249269
-8.4768629 1.4146423 5.8130369
-8.4032564 1.4551651 5.793293
-8.4343147 1.4603794 5.8060656
-8.4790897 1.4913578 5.8291492
-8.5014486 1.5911767 5.8574667
-8.5557384 1.4674578 5.8533516
-8.5580025 1.4287817 5.846508
-8.6299915 1.3470638 5.8574409
-8.6421289 1.3388917 5.8604002
-8.6317787 1.3321748 5.8551526
-8.6304855 1.3313351 5.854497
-8.5710764 1.2975731 5.8253298
-8.5607872 1.2973158 5.8213911
-5.7791247 1.354387 4.7817655
-5.8047142 1.347827 4.7901282
-5.8507013 1.3570704 4.8093433
-5.9303379 1.437815 4.855505
-5.9824152 1.4331326 4.8742495
-6.1003766 1.4054706 4.913312
-6.1770325 1.4047372 4.9421282
-6.2148008 1.3802035 4.9515147
-6.2405329 1.3712258 4.9594498
-6.2773905 1.3544347 4.9700332
-6.3589516 1.3686469 5.0036783
-6.2698307 1.3469973 4.9656963
-6.2650132 1.3454671 4.9635715
-6.1941185 1.369235 4.9415169
-6.1118445 1.3671117 4.9100089
-6.0329227 1.3872578 4.8842006
-5.9788189 1.3708553 4.8604937
-5.9329753 1.359194 4.8408513
-5.8613987 1.3565104 4.8132734
-4.8965473 -0.90328968 3.998893
-4.8288207 -0.82731652 3.9884274
-4.9209251 -0.78913277 4.0308275
-4.9294748 -0.78242755 4.0353928
-4.9555526 -0.78128403 4.0454731
-4.9757981 -0.77796865 4.0537825
-4.9838037 -0.77562255 4.0572743
-5.0660563 -0.7732448 4.0888247
-5.0110726 -0.85434562 4.0519066
-5.0382557 -0.99281168 4.0346141
-5.069994 -1.0653496 4.0321665
-5.1456304 -1.1011019 4.053627
-5.1845207 -1.1225785 4.0640459
-5.3113079 -1.275589 4.081491
-5.1765208 -1.1299543 4.0595551
-5.1189604 -1.1599963 4.031827
-5.0961466 -1.1636525 4.0224795
-5.0589972 -1.17787 4.0056133
-5.0475545 -1.1652874 4.0037947
-5.0030007 -1.1108773 3.9977918
-4.9599376 -1.0806409 3.9875402
-4.9588947 -1.0637195 3.9905145
-4.8967829 -0.98040229 3.9836323
-4.9011621 -0.94212097 3.992907
-6.8964996 1.3108032 5.1952639
-7.0219083 1.3705239 5.2545342
-7.1237736 1.3775654 5.2944236
-7.1875973 1.3554294 5.3141313
-7.1088448 1.3420851 5.2817202
-7.1044884 1.3399587 5.2796512
-7.1011128 1.340277 5.278439
-7.0142059 1.3429081 5.2461271
-6.9216785 1.3019793 5.2030206
-9.1366367 -0.12866318 5.7551079
-9.1359539 -0.013691127 5.7777362
-9.1285763 0.0091204047 5.7794895
-9.1215038 0.12998319 5.8008766
-9.1129951 0.17213279 5.8060522
-9.0639248 0.26390928 5.8057804
-9.0828362 0.17823946 5.7958727
-9.0729618 0.14773548 5.7860694
-9.0786314 0.13536519 5.7857494
-9.0838041 0.058432817 5.7723894
-9.0899477 0.022275448 5.7675133
-9.08465 -0.036361575 5.7538395
-9.0770683 -0.05995208 5.7462792
-9.0779781 -0.10592723 5.7374706
-9.0811348 -0.15204787 5.7294831
-9.1119518 -0.25759059 5.7201176
-9.1068611 -0.17056936 5.7355161
-9.1239834 -0.14189398 5.7476935
-0.79765463 -1.3972563 2.3518939
-0.83748174 -1.3967547 2.3670416
-0.89177704 -1.4383321 2.3792796
-0.95104718 -1.4874158 2.3919027
-0.9413631 -1.5013418 2.3854718
-0.90550184 -1.5017612 2.371839
-0.86932635 -1.4973426 2.3590503
-0.83283544 -1.4880862 2.3471055
-0.82110739 -1.4802047 2.3442435
-0.64242959 -1.4823387 2.2763095
-0.63416243 -1.5180349 2.2660804
-0.58814502 -1.5251235 2.2472825
-0.55196929 -1.520705 2.234494
-0.50610924 -1.5302124 2.2152743
-0.43028378 -1.4883442 2.1949596
-0.37140465 -1.5034503 2.1697066
-0.33570099 -1.5062885 2.1556518
-0.29983997 -1.5067079 2.142019
-0.2431941 -1.5132089 2.1193228
-0.19764924 -1.5275543 2.0992589
-0.13907599 -1.5287001 2.0769005
-0.10186315 -1.5237198 2.0638318
-0.11230493 -1.5219028 2.0681386
-0.15798187 -1.5099657 2.0877728
-0.2078054 -1.520885 2.104424
-1.497977 -1.520179 2.5920255
-1.5466909 -1.5138421 2.6116924
-1.6439953 -1.446187 2.6619239
-1.7363248 -1.4772177 2.6906314
-1.8140748 -1.4774654 2.7199581
-1.8881581 -1.5129106 2.7408931
-1.8778391 -1.5272534 2.7341392
-1.8521395 -1.510911 2.7276824
-1.7513099 -1.5125439 2.6892612
-1.7344003 -1.5188382 2.6816194
-1.6888554 -1.5331835 2.6615558
-1.5712733 -1.5435296 2.6150708
-1.5606444 -1.5429422 2.6111717
1.4276786 -0.68326646 1.6532302
1.4175515 -0.83809191 1.6262372
1.4191704 -0.83755249 1.6257329
-1.3212912 -0.83310223 2.6620378
-1.4800236 -0.83468133 2.7216969
-1.5535686 -0.78333277 2.7597055
-1.6473353 -0.79576367 2.7926586
-1.7352877 -0.8030566 2.8244376
-1.6278486 -0.71273321 2.8018241
-1.7201746 -0.57084042 2.8649521
-1.7525158 -0.52367544 2.8865602
-1.7828314 -0.5092414 2.9008875
-1.8074863 -0.48409566 2.9152081
-1.7914605 -0.44464311 2.9170067
-1.7765341 -0.41248468 2.9177685
-1.741303 -0.42257968 2.9024477
-1.6906807 -0.42217439 2.8834021
-1.6451356 -0.43651974 2.8633382
-1.5891249 -0.47197309 2.8351185
-1.5659337 -0.48514926 2.8237333
-1.5307024 -0.49524426 2.8084126
-1.4981947 -0.512721 2.7926514
-1.4895654 -0.57731926 2.7765322
-1.476166 -0.60309005 2.7663398
-1.3921072 -0.65054834 2.7251329
-1.2737279 -0.66898489 2.6767364
-1.1999729 -0.73237789 2.6362507
-1.1934872 -0.77058065 2.6261954
-1.1298885 -0.82730442 2.5908749
-0.96140885 -0.76975256 2.5386751
-0.95931482 -0.77204651 2.5374274
-0.80540514 -0.79483181 2.4747405
-0.78304863 -0.78636277 2.4679794
-0.78509498 -0.81780863 2.4624929
-2.2033198 -0.80492526 3.0009005
-2.2837813 -0.7756471 3.0371292
-2.3715239 -0.7949844 3.0664313
-2.422174 -0.78377807 3.0877991
-2.463716 -0.78322619 3.1036046
-2.5100484 -0.78097546 3.1215582
-2.4998918 -0.78764468 3.1163931
-2.453717 -0.79231435 3.0980177
-2.3929963 -0.84920043 3.0637522
-2.3446817 -0.84244955 3.0468414
-2.2290244 -0.81117523 3.0093684
-2.183007 -0.81826383 2.9905708
-2.1540542 -0.81183869 2.9809105
-2.1466737 -0.81142634 2.9782043
-2.0785875 -0.83762258 2.9472647
-2.057158 -0.86430621 2.9338565
-2.0463576 -0.87349212 2.9279473
-2.0286195 -0.81451571 2.9329851
-2.0013406 -0.78407663 2.9287376
-2.0381463 -0.7981708 2.9398382
-2.1428509 -0.79675049 2.979681
1.3196368 1.378474 2.1044598
1.257875 1.3651686 2.1251464
1.2836647 1.3763652 2.117631
-6.0192404 -0.78590661 4.4464426
-5.9934683 -0.77463078 4.4389501
-5.9472933 -0.78150797 4.4201345
-5.9114671 -0.78172696 4.4065552
-5.8452859 -0.78367263 4.3811626
-5.8048768 -0.79689431 4.3632631
-5.7481117 -0.79550332 4.3420925
-5.674778 -0.77942902 4.317585
-5.6181049 -0.790546 4.2939596
-5.5822792 -0.79076511 4.2803798
-5.5464535 -0.79098409 4.2668004
-5.6160364 -0.84466076 4.2824059
-5.6414461 -0.84256876 4.2924228
-5.7045431 -0.8560006 4.3135886
-5.7793007 -0.90634811 4.3318119
-5.7866564 -0.91669697 4.332531
-5.843842 -0.98726636 4.3400898
-5.9264784 -0.98320484 4.3721204
-6.037281 -0.90500325 4.4295516
-6.1214294 -1.0649309 4.4295101
-6.1200252 -1.0859424 4.4247971
-6.1192675 -1.1065376 4.4204111
-6.1216335 -1.1452315 4.4136028
-6.2435122 -1.1200575 4.4646626
-6.3238931 -1.1671662 4.4856553
-6.3977566 -1.1221966 4.5225143
-6.4197917 -1.1234808 4.5305843
-6.4867983 -1.1203494 4.5565248
-6.4664459 -1.0805559 4.556756
-6.4582262 -1.0487952 4.5599728
-6.4550858 -1.0413125 4.5602756
-6.3247757 -0.91776115 4.535635
-6.3668098 -0.84316987 4.5663648
-6.3999739 -0.79942024 4.5876036
-6.3792892 -0.79809272 4.5800529
-6.3382273 -0.78594512 4.5669565
-6.2916079 -0.78556716 4.549418
-6.2812586 -0.79222536 4.5441823
-6.2973466 -0.91602123 4.5256181
-6.3006048 -0.96206057 4.5176845
-6.2467871 -1.0454378 4.4807539
-6.1104116 -0.92874885 4.4524555
-6.1054955 -0.91431713 4.4534707
-6.8189516 -1.5115657 4.6041455
-6.7534037 -1.5606891 4.5696015
-6.7402835 -1.5548744 4.5658016
-6.7051773 -1.5119007 4.5610924
-6.731576 -1.4895475 4.5755157
-6.7695837 -1.4809347 4.5915904
-6.8356175 -1.4765706 4.6174088
-6.8472981 -1.4916775 4.6188145
-6.794168 -1.2089484 4.6550207
-6.8403435 -1.2020713 4.6738358
-6.8748379 -1.180087 4.6912451
-6.8786263 -1.1650822 4.695663
-6.9371829 -1.0748346 4.7357521
-7.0458241 -1.0382396 4.7840838
-7.0891538 -1.0507878 4.7979574
-7.1218734 -0.99978322 4.8204727
-7.0831075 -0.91894788 4.8219166
-7.0426064 -0.91966152 4.8064723
-6.9753761 -0.87517941 4.7899256
-6.9351101 -0.95300579 4.7592201
-6.8956814 -0.99324536 4.7363129
-6.8537951 -1.0702552 4.7051573
-6.7533131 -1.1269431 4.6559086
-6.7526875 -1.1605723 4.6489778
-6.7581944 -1.2067491 4.6418667
-7.4842215 -0.91037846 4.975174
-7.4771061 -0.91499633 4.9715662
-7.4733663 -0.91993243 4.969171
-7.4090242 -0.98811167 4.9312892
-7.3590355 -0.98734754 4.9125543
-7.3568726 -0.99627858 4.9099588
-7.3603964 -1.1176357 4.8871331
-7.392848 -1.1591886 4.8911228
-7.4031372 -1.158931 4.8950615
-7.514698 -1.1170022 4.9455585
-7.5609837 -1.0773128 4.9709473
-7.562324 -1.0314832 4.9805765
-7.5535927 -0.99700511 4.9841404
-7.5564437 -0.96143001 4.9922991
-7.547307 -0.95843065 4.9894443
-9.0580292 0.37249297 5.8251681
-9.0504189 0.38360387 5.8245044
-9.0546227 0.34618717 5.8186445
-9.0504179 0.30331296 5.8085213
0.86840487 -1.5402739 1.6939435
0.80679369 -1.5460415 1.7160736
0.7614336 -1.529266 1.7365514
0.7762599 -1.5284952 1.7311029
0.8122859 -1.5265198 1.7178845
-1.1859813 -0.97502661 2.5826628
-1.1897998 -0.9523406 2.5886216
-1.2561846 -0.83898121 2.6362686
-1.1461442 -0.99571294 2.5634935
-1.1341643 -0.84215266 2.5895348
-0.96691895 -0.85441476 2.5239041
-0.96533442 -0.85041058 2.5241027
-1.1255755 -1.0367506 2.5475531
-1.1467383 -1.0760362 2.547729
-3.2427442 -1.524052 3.250474
-3.3051436 -1.5448034 3.2699194
-3.3618896 -1.5382992 3.2926543
-3.4090014 -1.538723 3.31037
-3.372108 -1.5315473 3.2978592
-3.3257308 -1.5337169 3.2799046
-6.2566833 -1.5040704 4.3931975
-6.1853275 -1.5093452 4.3651876
-6.1729074 -1.4821464 4.3659091
-5.7583027 -1.2810442 4.2492919
-5.8486996 -1.4550972 4.2487993
-5.9459758 -1.4635167 4.2838769
-5.862309 -1.4718984 4.250597
-5.8261595 -1.4672918 4.2378554
-5.7543068 -1.4653311 4.2110977
-5.6672521 -1.53581 4.1641769
-5.5843635 -1.5283961 4.134335
-5.5532689 -1.518031 4.12465
-5.4847794 -1.5118661 4.0999999
-5.4759984 -1.5145431 4.0961494
-5.4047904 -1.5222361 4.0677137
-5.3527737 -1.5160873 4.0492845
-5.3207211 -1.5238736 4.0356245
-5.2775683 -1.5138203 4.0213213
-5.2485704 -1.5170779 4.0097165
-5.1771646 -1.522369 3.9816844
-5.130466 -1.519684 3.9645748
-5.188652 -1.5042034 3.9896407
-5.2640643 -1.3358088 4.0516539
-5.2578955 -1.3222654 4.0520191
-8.0432148 -1.5318576 5.0626659
-7.9715376 -1.5320356 5.0355487
-8.0330067 -1.5409919 5.0569906
-9.0647907 0.33352584 5.8199654
-9.0603065 0.29528636 5.8106599
-0.079480171 1.3571537 2.628839
-0.10450387 1.3580496 2.6384721
-0.12517524 1.3713882 2.6489375
-0.13945222 1.381794 2.6564031
-0.19179392 1.4053054 2.6808593
-0.16668749 1.4019651 2.6707084
-0.15749598 1.395304 2.6659098
-0.13505125 1.3853133 2.6554408
-0.017412186 1.3752964 2.6089997
0.064714193 1.3704264 2.5770006
0.12151098 1.3616154 2.5537875
0.049720049 1.3598161 2.580554
0.0055420399 1.3538611 2.5960603
-0.0047595501 1.3581331 2.6008029
-3.0655336 -0.90565467 3.3066168
-3.0681319 -0.85108984 3.31846
-3.0722303 -0.82069975 3.3260579
-3.0646791 -0.93999499 3.2994583
-3.0657125 -0.98355019 3.2911785
-3.0660362 -1.1066481 3.2667971
-3.0124454 -1.1368973 3.2405276
-2.9518297 -1.1717885 3.21068
-2.8385327 -1.2879493 3.1447506
-2.7520933 -1.3671895 3.0963178
-2.8265083 -1.5185786 3.0942984
-2.8881578 -1.5272427 3.1158667
-2.8419302 -1.5318298 3.0974874
-2.7233849 -1.5272527 3.0536089
-2.6507668 -1.5132532 3.0289588
-2.5691304 -1.5253456 2.9957073
-2.4955516 -1.5345721 2.9660707
-2.4873438 -1.5350205 2.9628801
-2.422255 -1.5112214 2.9430256
-4.787149 -1.5328325 3.8322432
-4.7669449 -1.5511793 3.8209577
-4.8318167 -1.5433702 3.8470223
-4.8675256 -1.5407002 3.8610456
-4.9310036 -1.5391717 3.8853335
-4.8683581 -1.5135334 3.8667679
-4.8224044 -1.5229349 3.8475339
-5.6836405 -1.3091048 4.2154965
-5.5955219 -1.3151095 4.1810079
-5.5839415 -1.3162243 4.1764107
-5.5624681 -1.3607515 4.1594338
-5.5474634 -1.4011173 4.1457295
-5.4941359 -1.490606 4.1077671
-5.4214487 -1.4967415 4.079083
-5.3618441 -1.4536622 4.0651379
-5.3477478 -1.443172 4.0619001
-5.3199935 -1.2747529 4.084939
-5.3539138 -0.78834057 4.1945801
-5.3899145 -0.79052967 4.2077465
-5.3560872 -0.78422725 4.1962199
-5.3076625 -0.79290742 4.1761961
-7.3943739 -1.5295367 4.8179784
-7.4055724 -1.5373232 4.8206592
-7.4162045 -1.5354409 4.8250513
0.50667477 -1.3239875 1.8736686
0.35806036 -1.4008348 1.9145219
0.34674788 -1.4325082 1.9124911
0.20757198 -1.5163734 1.9483813
0.15267992 -1.4880261 1.9747638
0.137393 -1.4816331 1.9818122
0.12631845 -1.4894928 1.984432
0.078109741 -1.5162618 1.9973178
0.18069649 -1.5298574 1.9558516
0.20193577 -1.523893 1.9490139
0.25259066 -1.5283258 1.9289929
0.28877497 -1.5239311 1.9161962
0.32527637 -1.5146983 1.9042429
0.36130238 -1.5127228 1.8910245
0.50619841 -1.4927255 1.8402597
0.52629089 -1.508455 1.829537
0.54867458 -1.5193012 1.8189209
0.55852032 -1.524169 1.8142319
0.59594488 -1.5311298 1.7987063
0.6223464 -1.5249033 1.7899706
0.65837193 -1.5229279 1.7767525
0.59771061 -1.5141809 1.8014129
0.54649591 -1.516266 1.8203481
0.31452274 -0.99290776 2.0121732
0.35166883 -0.87697095 2.0212166
0.36209965 -0.85470474 2.021708
0.37671709 -0.83702993 2.0197034
0.40208149 -0.79225069 2.0190339
0.45270014 -0.76293886 2.0057435
0.4513011 -0.7943728 2.0000148
0.42709208 -0.88004565 1.9921077
0.40429497 -0.96023333 1.984759
0.5441761 -1.0351062 1.917004
0.5721302 -1.0335313 1.9067556
0.58243942 -1.0474288 1.9000943
0.57962799 -1.1247182 1.8857713
0.57608509 -1.1345332 1.8851562
0.57343149 -1.2094033 1.871255
0.59228325 -1.2541475 1.8552257
0.57782412 -1.2694032 1.8576519
-0.29479742 -1.4100258 2.1593592
-0.30707479 -1.3308692 2.1797547
-0.43068981 -1.311517 2.2303121
-0.4147501 -1.129861 2.2604499
-0.33701038 -1.1094282 2.2351451
-0.29783845 -1.0691428 2.228364
-0.34346294 -0.91140258 2.2770019
-0.40018559 -1.0688004 2.2671018
-0.43619919 -1.0808926 2.2783017
-0.47552848 -1.123597 2.2846606
-0.46703815 -1.2880769 2.2487116
-0.47917604 -1.3672327 2.2375407
-0.52185655 -1.4467254 2.237843
-0.60530901 -1.4634066 2.2660527
-0.62860775 -1.4767509 2.2721996
-1.8625014 -0.79324776 2.8744547
-1.7782695 -0.7933867 2.8426023
-1.7676089 -0.79626167 2.838002
-1.7915664 -0.80618101 2.8450792
-3.5625217 -1.5380365 3.3685107
-3.6122811 -1.5260824 3.3896906
-3.6446083 -1.5331967 3.4004884
-3.6807671 -1.5377789 3.4132383
-3.6343896 -1.5399486 3.3952837
1.4464746 -0.31304622 1.7198243
1.4428697 -0.32991788 1.7178279
1.4430757 -0.33486366 1.7167655
1.4428101 -0.35902503 1.7120563
1.4441171 -0.33512926 1.7163192
1.4450226 -0.32780102 1.7174358
-0.48794031 -0.79167366 2.3554225
-0.48505449 -0.79196548 2.354274
-0.53489447 -0.77018374 2.3774409
-1.8932853 -0.77807778 2.8891056
-1.8729727 -0.79141629 2.8787756
0.45299006 -1.1943762 1.9197524
0.31135654 -1.1926788 1.9736031
0.30551434 -1.1952524 1.9752983
0.20707464 -1.2414708 2.0032911
0.2001133 -1.2368954 2.0068321
0.2047019 -1.2272954 2.0070095
0.22732639 -1.1336708 2.0170979
0.24865055 -1.1284457 2.0100813
-0.35528541 -0.85180449 2.2933323
-0.30477834 -0.84809643 2.2749877
-0.32178593 -0.8885076 2.2733693
-2.0791936 -1.5283339 2.8100014
-2.0290833 -1.4725306 2.8021765
-2.1148973 -1.5254958 2.8240561
-0.043419123 -1.5262251 2.0412512
0.04208374 -1.5182372 2.0105362
-0.039935827 -1.5131139 2.0425453
-0.055479765 -1.5183053 2.0473847
-0.34712434 -0.8862977 2.2833827
0 0 0 1 0 0 0 1 0 0 0 1 0 0 0 0 0 557 1 0 0
