ply
format ascii 1.0
comment PCL generated
element vertex 467
property float x
property float y
property float z
element camera 1
property float view_px
property float view_py
property float view_pz
property float x_axisx
property float x_axisy
property float x_axisz
property float y_axisx
property float y_axisy
property float y_axisz
property float z_axisx
property float z_axisy
property float z_axisz
property float focal
property float scalex
property float scaley
property float centerx
property float centery
property int viewportx
property int viewporty
property float k1
property float k2
end_header
-10.616164 -1.2736742 2.4484725
-10.609763 -1.1402016 2.4704051
-10.601321 -1.1150743 2.4895778
-10.595389 -0.95541143 2.5122261
-10.5927 -0.8361851 2.5255218
-10.655624 -0.71556914 2.402503
-10.666849 -0.63531327 2.3843551
-10.665998 -0.55486691 2.3913214
-10.666981 -0.51489139 2.3918614
-10.662907 -0.43569064 2.4054506
-10.668059 -0.34039879 2.4008965
-10.671895 -0.315014 2.3945627
-10.669534 -0.28043383 2.4017062
-10.671498 -0.20048289 2.4027867
-10.663033 -0.13536417 2.4245932
-10.679265 -0.015196078 2.3986139
-10.680248 0.024779402 2.3991542
-10.692676 0.10377656 2.3784242
-10.688813 0.24254629 2.3954206
-10.693059 0.30316183 2.3905108
-10.710821 0.3827512 2.3587275
-10.713669 0.50273561 2.3605607
-10.715534 0.58274448 2.3618536
-10.716718 0.62260413 2.361969
-10.717701 0.66257966 2.3625088
-10.720069 0.74258065 2.3627558
-10.723017 0.8625071 2.3643765
-10.725562 0.98238361 2.3668308
-10.72793 1.0623846 2.3670774
-10.718224 1.1425759 2.3924379
-10.684589 1.1821951 2.46492
-10.657621 1.1822255 2.5209856
-10.621553 1.1722888 2.5953267
-10.590003 1.1828399 2.6615984
-10.586581 1.1828375 2.6687107
-10.566751 1.169751 2.7090917
-10.588215 1.1427643 2.6627257
-10.599756 1.022666 2.6309714
-10.58169 0.9426868 2.6633606
-10.58111 0.90276134 2.6619864
-10.594866 0.7827971 2.6256375
-10.5929 0.70284617 2.624557
-10.590935 0.62289512 2.6234765
-10.590959 0.58290374 2.6208434
-10.62343 0.46287015 2.5455809
-10.621868 0.3829692 2.5436664
-10.606377 0.29362804 2.5700989
-10.527171 0.22306016 2.730197
-10.511983 0.38284066 2.7720976
-10.515333 0.50281715 2.7728844
-10.484447 0.6627605 2.8474283
-10.502134 0.70269811 2.8132405
-10.488178 0.82277822 2.8500142
-10.472256 0.86290741 2.8857076
-10.494299 1.0228058 2.8502135
-10.501248 1.1823785 2.8460798
-10.489651 1.1766607 2.8698192
-10.457514 1.1796664 2.9368238
-10.43491 1.1766214 2.9836178
-10.404445 1.1823256 3.0473206
-10.383512 1.1819791 3.0908127
-10.378279 1.1816107 3.1016695
-10.364315 1.1868296 3.1310368
-10.348093 1.1820865 3.1644545
-10.331993 1.18234 3.1979399
-10.323939 1.1813397 3.2146182
-10.309048 1.1817434 3.2456019
-10.287714 1.1813469 3.2899282
-10.286707 1.1812218 3.2920129
-10.264059 1.168208 3.3382549
-10.247898 1.1659632 3.3717065
-10.215945 1.1764643 3.4388125
-10.199477 1.1617272 3.4720953
-10.177057 1.1661775 3.5189908
-10.144612 1.1566911 3.5858264
-10.106339 1.1713887 3.6663423
-10.083797 1.1708424 3.7131703
-10.044786 1.1555586 3.7932806
-10.022367 1.160009 3.8401763
-9.9412012 1.101414 4.005125
-9.9242964 1.1015676 4.040278
-9.8910675 1.1418004 4.1119585
-9.8645868 1.1606914 4.1682296
-9.8581438 1.1598911 4.181572
-9.8484259 1.1584466 4.2016811
-9.8259449 1.1603985 4.2485428
-9.803525 1.1648488 4.2954383
-9.7715111 1.1728514 4.3625102
-9.7617292 1.1700989 4.3826661
-9.7555504 1.1554102 4.3945627
-9.6912785 1.1613393 4.5285597
-9.671236 1.1580187 4.5700116
-9.6457243 1.1667985 4.6236148
-9.6303358 1.1704738 4.6558442
-9.6346264 1.1402479 4.6449704
-9.6392698 1.059454 4.6300969
-9.6386948 1.0195265 4.6287122
-9.6463451 0.93021679 4.607038
-9.6633101 0.90017462 4.5698271
-9.6758051 0.81977439 4.5386562
-9.675312 0.79978645 4.5383897
-9.6787062 0.77867889 4.5299692
-9.6915379 0.73976219 4.5007792
-9.7567291 0.62054002 4.3575497
-9.6881742 0.6197859 4.5000186
-10.60734 -1.4366748 2.4562845
-10.565736 -1.4921341 2.5391908
-10.531087 -1.4769862 2.6122017
-10.51081 -1.4996688 2.6528878
-10.471861 -1.512454 2.7330327
-10.426053 -1.5176328 2.8279281
-10.414984 -1.5177404 2.8509331
-10.368294 -1.5176246 2.9480052
-10.341324 -1.517876 3.0040545
-10.303488 -1.5180689 3.0827
-10.284849 -1.5231123 3.1211214
-10.268671 -1.5178866 3.1550913
-10.254824 -1.47515 3.186641
-10.213681 -1.4382499 3.2745569
-10.183898 -1.4374428 3.3365242
-10.153353 -1.517845 3.3948286
-10.145482 -1.477561 3.4137952
-10.108628 -1.4377785 3.492981
-10.086467 -1.39772 3.5416408
-10.034968 -1.4379141 3.6461024
-9.9979372 -1.4380069 3.7230802
-9.9984694 -1.3183805 3.7297044
-9.9805336 -1.2785014 3.7695673
-9.9462986 -1.2382528 3.8433406
-9.9156828 -1.1986812 3.9095442
-9.8922901 -1.1187817 3.9633384
-9.8779783 -1.0784526 3.9956961
-9.8799181 -0.95907366 3.9993777
-9.8784628 -0.87912512 4.0075703
-9.7935324 -0.87953413 4.1841054
-9.7863359 -0.95900822 4.1939306
-9.782937 -0.99928379 4.1983938
-9.7843704 -1.0389593 4.1928501
-9.800518 -1.1189138 4.1541147
-9.782856 -1.198561 4.1856856
-9.7684708 -1.0391033 4.2258945
-9.7658072 -0.95930469 4.236589
-9.768755 -0.83937824 4.2382097
-9.7519798 -0.71964824 4.2808208
-9.6697817 -0.67998016 4.4542637
-9.7543478 -0.63964713 4.2810669
-8.8908072 1.2952863 6.2013097
-8.878355 1.2548764 6.2245855
-8.8753929 1.174939 6.2255774
-8.871994 1.1341252 6.2300067
-8.8774624 1.0949286 6.216105
-8.8734951 1.0150057 6.2191892
-8.891037 0.9756341 6.1801767
-8.884079 0.85576427 6.1868949
-8.8992023 0.81582797 6.1528749
-8.9197912 0.73642206 6.1049414
-8.9319201 0.65599346 6.0745306
-8.9476748 0.57600307 6.0366092
-8.9499197 0.53641677 6.0293827
-8.9525681 0.49687913 6.0213223
-8.97999 0.41612002 5.9590979
-8.988759 0.53607261 5.9486184
-9.0024166 0.5760833 5.9228125
-8.9937334 0.6159811 5.9434419
-8.9926701 0.69597685 5.9508209
-8.9881134 0.73603296 5.9628811
-8.9904003 0.77609909 5.9607167
-8.9885321 0.85599744 5.9697647
-8.9757957 0.93594408 6.0014076
-8.9594069 1.0557156 6.0432177
-8.9611902 1.0957891 6.042099
-8.9629745 1.1358625 6.0409803
-8.946414 1.2157553 6.0805702
-8.9575825 1.3095886 6.0634165
-8.9417286 1.3198156 6.0970354
-8.9253855 1.3100547 6.1303797
-8.8965778 1.3162246 6.1906672
-8.7796555 0.81554055 6.4013815
-8.7742157 0.81474674 6.4126396
-8.7723169 0.65481329 6.4062514
-9.5886669 0.37948835 4.6913557
-9.5906658 0.33831611 4.6845403
-9.5907164 0.29947284 4.6819253
-9.5907354 0.25948101 4.6793008
-9.6044645 0.17837372 4.6455178
-9.6038895 0.13844641 4.6441331
-9.6141958 0.019599989 4.6150274
-9.6180916 -0.021447241 4.6042767
-9.6336746 -0.14131613 4.5641356
-9.633503 -0.18119475 4.5619164
-9.6325245 -0.22117078 4.5613656
-9.6421213 -0.3002798 4.536303
-9.6440573 -0.31997871 4.5310063
-9.6476183 -0.3610287 4.5209494
-9.6469574 -0.42089435 4.518455
-9.6537704 -0.48042783 4.5004458
-9.6618204 -0.52092236 4.4810925
-9.7411966 -0.519467 4.3161736
-9.7412376 -0.41982672 4.3225274
-9.7421656 -0.41473138 4.3209271
-9.7995062 -0.2599355 4.2117233
-9.8028574 -0.13995899 4.2125101
-9.7867098 -0.060004402 4.2512455
-9.7715931 -0.019775264 4.2852712
-9.7546406 0.060079306 4.3256745
-9.757411 0.14013033 4.3250866
-9.7410526 0.1951502 4.3626509
-9.7472563 0.30053601 4.3565636
-9.7482386 0.3405115 4.3571038
-9.7657242 0.38028339 4.3233247
-9.7696543 0.54018533 4.3254862
-9.4916992 -0.72130108 4.8218079
-9.4917936 -0.67631352 4.8245201
-9.5503826 -0.60103476 4.7075839
-9.5505676 -0.51133221 4.7129951
-9.4787045 -0.42162189 4.8681884
-9.4577446 -0.52162218 4.9052997
-9.4433708 -0.40160713 4.9429374
-9.372035 -0.42225927 5.089901
-9.3643866 -0.42236671 5.1057944
-9.3291378 -0.382548 5.1816468
-9.3117733 -0.30261618 5.2229118
-9.2754879 -0.22292863 5.3034935
-9.2383566 -0.222991 5.380682
-9.2213211 -0.18308143 5.4186749
-9.2045889 -0.14306721 5.4560452
-9.2044325 -0.050914876 5.4623256
-9.2083282 -0.023041695 5.4560289
-9.1734238 0.096670613 5.5363264
-9.1532116 0.21638837 5.5860825
-9.1425142 0.31401932 5.6146288
-9.1309357 0.41693452 5.6453495
-9.1248398 0.49673042 5.6631789
-9.1094818 0.57595146 5.7002258
-9.1115093 0.62601876 5.6992455
-9.0943022 0.69586897 5.7395325
-9.0824909 0.75640714 5.7679987
-9.0960875 0.73621511 5.7384272
-9.15658 0.85629165 5.6204286
-9.1797857 0.91670454 5.5760908
-9.1822891 0.93693614 5.5721941
-9.1999989 0.93689787 5.5353746
-9.2173653 0.85710239 5.4941158
-9.2327166 0.77706349 5.4570289
-9.3063183 0.85696006 5.3091831
-9.2959728 0.97746217 5.3384762
-9.2608967 1.0572959 5.4165545
-9.2805624 1.1372097 5.3808365
-9.2994804 1.1373175 5.3415136
-9.3147736 1.1369871 5.3097
-9.3262463 1.1371481 5.2858605
-9.3357067 1.1373385 5.2662058
-9.3518095 1.1376508 5.2327499
-9.3562365 1.1376413 5.2235451
-9.3888369 1.137224 5.1557465
-9.45928 1.1378402 5.0093422
-9.4747248 1.1267465 4.9765177
-9.5196552 1.1377844 4.8838243
-9.5365238 1.152591 4.8497143
-9.5229378 1.0584654 4.8718753
-9.5467701 0.93836796 4.81457
-9.5323048 0.89798725 4.8420315
-9.5275288 0.81769419 4.8467712
-9.5263796 0.73783958 4.8440008
-9.5411568 0.61787331 4.8055296
-9.5712299 0.49812189 4.735271
-9.5922184 0.41821942 4.6864762
-8.9035301 -1.5589257 5.9904222
-8.8583183 -1.5650154 6.0840187
-8.8490944 -1.5465136 6.1043911
-8.8177528 -1.5110682 6.1718364
-8.822051 -1.4831464 6.1647053
-8.8405418 -1.500528 6.1251416
-8.9018679 -1.3626405 6.0065627
-8.9252138 -1.3625422 5.9580345
-8.9607506 -1.2424861 5.8919148
-8.9849005 -1.2425631 5.8417053
-9.0353594 -1.1624677 5.7419829
-9.0149403 -1.3470995 5.772501
-9.084549 -1.2826325 5.631958
-9.1785851 -1.1077822 5.4477663
-9.1800604 -1.1624084 5.4411678
-9.2145615 -1.2821693 5.3617048
-9.2442284 -1.4025149 5.2922544
-9.2436533 -1.4424422 5.2908697
-9.2715387 -1.5206541 5.2278447
-9.1928473 -1.5787461 5.3876829
-9.1779213 -1.5634246 5.4197016
-9.1060925 -1.5708646 5.5685458
-9.0832424 -1.5839034 5.6152067
-9.0286837 -1.5764881 5.7291064
-9.0060778 -1.5795329 5.7759047
-8.9740038 -1.5740697 5.8429375
-8.9549265 -1.5642323 5.8832321
-9.1621199 -1.1225402 5.4810414
-9.087079 -1.162753 5.6344447
-9.0733385 -1.0825192 5.6681938
-10.598773 0.98269045 2.6304312
-10.672834 0.98259449 2.47646
-10.632678 0.82269955 2.5496089
-8.780508 0.45474389 6.3762941
-8.8538265 0.37544742 6.2187481
-8.7870684 0.29556087 6.3523698
-8.8515339 0.21655613 6.2132473
-8.8487368 0.15144899 6.2148561
-8.84727 0.091484919 6.2140303
-8.8622684 0.046278864 6.1799288
-8.77213 -0.36580732 6.3406878
-8.7716694 -0.42578489 6.3377695
-8.7750692 -0.38497126 6.3333402
-8.7755575 -0.36498424 6.3336153
-8.7731075 -0.32583129 6.3412385
-9.123311 -0.18308061 5.6224275
-9.1151209 -0.26256061 5.6343188
-9.1051722 -0.14282781 5.6627383
-9.100235 -0.097767368 5.6759138
-9.1101456 -0.062919445 5.6575623
-9.1135626 -0.063459814 5.6504235
-9.1157837 -0.12048695 5.6421218
-9.446331 -0.18203017 4.9509726
-9.4315796 -0.10232717 4.9867883
-9.4504137 0.017752528 4.9553952
-9.5167446 0.13812633 4.8252778
-9.5114832 0.17802909 4.8387947
-9.5493202 0.17824486 4.7601495
-9.5713444 0.3381595 4.7246976
-9.5205984 0.37801164 4.832767
-9.4393167 0.33745292 4.9991231
-9.4355774 0.21742737 4.9991398
-9.5369272 -0.36133516 4.7510457
-9.4678926 -0.36191741 4.8945227
-9.4598131 -0.32208294 4.9138937
-9.4614515 -0.22223932 4.9169402
-9.5397158 -0.18163683 4.7568612
-9.5486298 -0.26136446 4.7331781
-10.645421 -0.47546253 2.4392297
-10.577665 -0.59667861 2.5722551
-10.566905 -0.43648878 2.6049747
-10.411879 -0.67669737 2.9117365
-10.406918 -0.79659212 2.9143019
-10.388046 -0.8766712 2.9483583
-10.349252 -0.95654917 3.0238466
-10.331742 -0.95661151 3.0602424
-10.29766 -0.83677793 3.1388412
-10.339427 -0.67668307 3.0623565
-8.7734375 0.49483648 6.3935852
-8.7795162 0.48062477 6.3800282
-8.8543386 0.49453786 6.2253809
-8.8627682 0.53527868 6.2104878
-8.8617907 0.49530265 6.209938
-8.8753366 0.41599885 6.176652
-8.9050083 0.29619873 6.1072278
-8.8893967 0.23421276 6.1356773
-9.1042004 -1.2525425 5.5930481
-9.1789112 -1.242263 5.4383979
-9.1938601 -1.3223506 5.4021454
-9.1928816 -1.3623267 5.4015951
-9.187129 -1.4825958 5.4057837
-9.1141272 -1.5051243 5.5560899
-9.0992508 -1.4549211 5.59026
-9.0854139 -1.3622435 5.6250157
-9.0934057 -1.2823788 5.6135616
-9.6401691 -1.5205427 4.4615097
-9.6369038 -1.5383716 4.4671445
-9.6211882 -1.5231264 4.5008016
-9.620244 -1.5206119 4.5029263
-9.6293449 -1.5038564 4.4850888
-9.4340134 -1.4020445 4.8977413
-9.3943644 -1.4023432 4.9801483
-9.3822908 -1.4021683 5.0052595
-9.3585463 -1.40177 5.0546484
-9.357338 -1.4019161 5.0571513
-9.354147 -1.441751 5.0612097
-9.3541756 -1.4817415 5.0585666
-9.3737259 -1.5216876 5.0153422
-9.3813276 -1.5080013 5.0004239
-9.4203978 -1.4901985 4.9203506
-9.4593468 -1.4773928 4.8402081
-9.4888124 -1.4819455 4.7786579
-9.4839554 -1.4417214 4.7913537
-9.4453869 -1.3897122 4.8748941
-9.5741301 -0.88070989 4.6401424
-9.6154156 -0.92075241 4.5517278
-9.6518717 -0.96056128 4.4733663
-9.6659851 -0.95931005 4.4441075
-9.6691008 -0.91975415 4.440186
-9.6723566 -0.88643432 4.4355712
-9.6689091 -0.7993921 4.4483614
-9.6695166 -0.73979867 4.4509492
-9.5633755 -0.76107454 4.6702309
-9.564641 -0.87986803 4.6599245
-9.4986029 0.457656 4.8836412
-9.5013046 0.617414 4.8883471
-9.4853783 0.65752566 4.9240484
-9.4900951 0.81752717 4.9245825
-9.47616 0.92264855 4.9603443
-9.478713 0.97776175 4.9585981
-9.4653759 1.0580443 4.9915128
-9.3901043 1.0576614 5.1479702
-9.3682528 0.93762553 5.1856403
-9.3826265 0.81761038 5.1480036
-9.394352 0.73713303 5.1184268
-9.3941803 0.69725442 5.1162071
-9.4119492 0.6175077 5.0741138
-9.3905001 0.49752042 5.1109505
-9.423562 0.41744319 5.0370445
-10.560794 -0.1359513 2.6370995
-10.618484 -0.015985548 2.5249214
-10.636693 -0.17539099 2.4767661
-10.308381 -0.41698349 3.1436791
-10.308387 -0.5968883 3.1320429
-10.266348 -0.63689327 3.2168522
-10.247026 -0.63703966 3.2570083
-10.210753 -0.55733156 3.3375683
-10.234632 -0.43705857 3.2956967
-10.258067 -0.41703615 3.2482727
-10.272156 -0.4169763 3.2189889
-9.0152969 0.29645646 5.8779659
-9.0024757 0.21682528 5.8994732
-8.9959755 0.29629984 5.9181232
-8.9786091 0.37609529 5.9593816
-8.9961472 0.33617845 5.9203424
-8.9868603 0.37613946 5.9422302
-9.2425461 0.53692544 5.4210777
-9.225008 0.57684231 5.4601169
-9.2307615 0.69711137 5.4559278
-9.3051682 0.77710533 5.3064132
-9.3382301 0.69702816 5.2325068
-9.3266439 0.57727981 5.2488542
-9.3522596 0.49725589 5.1904306
-9.352088 0.45737723 5.188211
-9.3678427 0.37738699 5.1502905
-9.3642759 0.29724008 5.1525269
-9.2908459 0.25722215 5.3025923
-9.2734804 0.3370176 5.3438506
-9.2559423 0.37693444 5.3828897
-9.2397852 0.45687607 5.4216452
-9.3194227 -0.022686526 5.2250977
-9.3369608 -0.062603392 5.186059
-9.4098148 -0.062512733 5.0346084
-9.4325008 0.01763007 4.9926252
-9.3856945 0.17739579 5.1002541
-9.379858 0.17737117 5.1123857
-9.3074074 0.17732927 5.2630019
-9.3032646 0.05725503 5.2638535
-9.5270052 -0.14195353 4.7858486
-9.5289612 -0.062001452 4.7869492
-9.5218611 0.018081717 4.8068843
-9.6808386 0.86023533 4.530807
-9.7592974 0.94062483 4.3728948
-9.6888304 1.020624 4.5245566
-9.6717539 0.93917656 4.5547929
-10.373164 0.30279154 3.0555134
-10.324733 0.18284899 3.1484473
-10.292438 0.34275815 3.2259178
-10.347759 0.38272291 3.1134932
-9.7638569 0.82055163 4.3556566
-9.7803831 0.78063846 4.3187203
-9.7754221 0.66046178 4.321269
-10.42928 0.70266247 2.964694
-10.357055 0.66285145 3.1122715
-10.361791 0.82285333 3.1127646
-10.415727 0.82279265 3.000634
-9.4354057 0.17754877 4.9969206
-10.337153 0.62277949 3.1510544
-10.387336 0.50269222 3.0389702
-10.302206 0.50296271 3.2159629
0 0 0 1 0 0 0 1 0 0 0 1 0 0 0 0 0 467 1 0 0
