ply
format ascii 1.0
comment PCL generated
element vertex 393
property float x
property float y
property float z
element camera 1
property float view_px
property float view_py
property float view_pz
property float x_axisx
property float x_axisy
property float x_axisz
property float y_axisx
property float y_axisy
property float y_axisz
property float z_axisx
property float z_axisy
property float z_axisz
property float focal
property float scalex
property float scaley
property float centerx
property float centery
property int viewportx
property int viewporty
property float k1
property float k2
end_header
0.020749688 1.3631859 3.0207477
0.019617826 1.3783164 2.983346
0.023638785 1.3744833 3.0615897
0.024819404 1.3623106 3.0966525
0.026434511 1.3522747 3.1373787
0.024573088 1.3574297 3.0974579
0.022945017 1.3630788 3.0612936
-0.46497726 -0.76847589 -3.5914812
-0.45880008 -0.67386526 -3.5812616
-0.45698559 -0.63441807 -3.5910158
-0.45385 -0.58165294 -3.5910153
-0.44925222 -0.51999736 -3.5738168
-0.44288579 -0.43365851 -3.5510602
-0.44027609 -0.39824891 -3.5417509
-0.43590349 -0.33853191 -3.5265784
-0.43458122 -0.31862196 -3.5240164
-0.4315317 -0.27882862 -3.511405
-0.42745891 -0.21981651 -3.5009818
-0.42249304 -0.10016704 -3.5404711
-0.4200626 -0.058989406 -3.5407758
-0.41534728 0.019853354 -3.5402212
-0.41278076 0.057784319 -3.5344667
-0.41062582 0.098842323 -3.5397148
-0.40586197 0.17885596 -3.5395479
-0.40112841 0.25813764 -3.5391388
-0.39875862 0.29785174 -3.5389585
-0.3976694 0.33930987 -3.56427
-0.39556301 0.37919706 -3.5691295
-0.39396 0.42437428 -3.5890489
-0.39376223 0.46397251 -3.6287417
-0.39632779 0.38467044 -3.5892038
-0.39854449 0.33778054 -3.5787115
-0.40084153 0.29982263 -3.579474
-0.41315252 0.18356335 -3.6789603
-0.4173556 0.10395449 -3.6692429
-0.42265037 0.024141133 -3.6794057
-0.42280743 0.019213557 -3.6769056
-0.42686006 -0.05561924 -3.6696444
-0.43074372 -0.100281 -3.6922889
-0.43366179 -0.16514862 -3.6750388
-0.4345842 -0.18083435 -3.6748595
-0.43574077 -0.20002526 -3.6751575
-0.43999615 -0.27671105 -3.6696019
-0.44569784 -0.3357746 -3.7099662
-0.44688132 -0.35578188 -3.7098656
-0.44807896 -0.37578166 -3.7100339
-0.45063698 -0.41911718 -3.7097178
-0.45880365 -0.55627227 -3.7100163
-0.45930618 -0.67306107 -3.5914617
-0.46449161 -0.75349522 -3.5989318
-0.4683896 -0.82576823 -3.5916238
-0.46700001 -0.911008 -3.4727507
-0.47173765 -0.99049175 -3.4730144
-0.47175762 -0.99094641 -3.4728847
-0.4765119 -1.0708091 -3.4730401
-0.48342371 -1.1504862 -3.5131307
-0.48818463 -1.2305005 -3.5132427
-0.49056512 -1.2705076 -3.513299
-0.49734545 -1.3560698 -3.5445285
-0.50627327 -1.3532318 -3.7120476
-0.51353943 -1.437614 -3.7535138
-0.51121217 -1.3576474 -3.7981682
-0.51120591 -1.3574998 -3.798214
-0.50788838 -1.2353481 -3.8707967
-0.50044376 -1.2133789 -3.757741
-0.49351406 -1.1390082 -3.711513
-0.492006 -1.1166258 -3.7082357
-0.48698455 -1.0369351 -3.7029719
-0.48125455 -0.99992585 -3.6379509
-0.47724819 -0.95772719 -3.6103516
-0.35228136 -1.5305101 -0.68216383
-0.34997696 -1.5282279 -0.64222348
-0.34776402 -1.5282519 -0.6014446
-0.35006845 -1.530534 -0.64138502
-0.11999777 -0.71087295 2.6985388
-0.12272663 -0.68309945 2.6178904
-0.12735887 -0.725236 2.5786967
-0.12854634 -0.74516672 2.57864
-0.14083473 -0.87715131 2.496778
-0.14146286 -0.8842358 2.4929633
-0.14821379 -0.96380788 2.4557204
-0.15723705 -1.0454777 2.3789263
-0.16387248 -1.0836415 2.2984948
-0.16503437 -1.1399539 2.3387232
-0.1631889 -1.1628351 2.3977494
-0.16350156 -1.2052164 2.4383717
-0.16509496 -1.2501581 2.4582105
-0.15318233 -1.1216221 2.5369263
-0.14467318 -1.125308 2.6976619
-0.15170865 -1.243854 2.6978307
-0.14853854 -1.2065692 2.7154074
-0.14589399 -1.1667321 2.7205124
-0.19545785 -0.77375013 1.377694
-0.19644669 -0.77777052 1.3638836
-0.20180397 -0.84425771 1.3379861
-0.20273264 -0.87727433 1.357016
-0.20337354 -0.89467925 1.3642606
-0.21092148 -1.0347906 1.3785914
-0.2111865 -1.0375509 1.3767315
-0.21149492 -1.0428221 1.3768202
-0.21588674 -1.115979 1.3760012
-0.212172 -1.0932823 1.4195727
-0.2090891 -1.0776575 1.4592475
-0.20724882 -1.0463084 1.4588307
-0.20678508 -1.0395395 1.459963
-0.20424469 -0.99560976 1.4586717
-0.20398328 -0.99149883 1.4589869
-0.18981002 -0.8999325 1.6197916
-0.18906468 -0.96026003 1.6995376
-0.19403267 -1.0800396 1.7391301
-0.18927687 -1.0001713 1.739307
-0.18690787 -0.96045506 1.7394706
-0.18645665 -0.9528358 1.7394418
-0.18120846 -0.88067204 1.7571183
-0.17317185 -0.84132242 1.8620559
-0.16922018 -0.80911779 1.8995856
-0.16460964 -0.80452514 1.9794661
-0.16803269 -0.78918701 1.8996426
-0.17082535 -0.79883349 1.8587705
-0.17390947 -0.77863663 1.7798716
-0.17842545 -0.78090459 1.6991884
-0.1805284 -0.78054291 1.6600651
-0.18296768 -0.78248 1.6172639
-0.19099747 -0.77167726 1.4575669
-0.45502791 -1.5237674 -2.5816979
-0.44574413 -1.5100858 -2.4257026
-0.44407946 -1.5199664 -2.3842335
-0.44162679 -1.5151983 -2.3442836
-0.43982983 -1.5227869 -2.3028865
-0.43987581 -1.5249015 -2.3014195
-0.44007543 -1.5275813 -2.3021626
-0.44213551 -1.5250895 -2.3428276
-0.44613814 -1.51741 -2.4249432
-0.44595364 -1.5170488 -2.4219406
-0.35874921 -1.5298822 -0.80196077
-0.36099666 -1.5319791 -0.84105468
-0.36315259 -1.5317698 -0.88098705
-0.36521703 -1.5292544 -0.9217577
-0.36306107 -1.5294636 -0.88182545
-0.36053512 -1.5303919 -0.83429182
-0.26013014 -0.79050356 0.20503938
-0.26066411 -0.76372099 0.16589618
-0.26336044 -0.77327985 0.12670219
-0.26475787 -0.78962058 0.11884952
-0.2675437 -0.829588 0.11128521
-0.27226716 -0.95165157 0.15788066
-0.27679566 -1.0703335 0.2043649
-0.27828515 -1.1265472 0.23845291
-0.2797648 -1.1576149 0.24520326
-0.27694309 -1.1767938 0.31815565
-0.27688587 -1.1827797 0.32575989
-0.27434167 -1.1695288 0.35811234
-0.27108991 -1.158304 0.40571189
-0.26832867 -1.1558852 0.45391524
-0.26585716 -1.1137187 0.45328522
-0.26537022 -1.0987293 0.44584835
-0.26787949 -1.0974873 0.39827931
-0.26756379 -0.98860574 0.28493738
-0.26196581 -0.828758 0.21309793
-0.12128322 -0.80491704 2.7777839
-0.11994475 -0.72590637 2.7159667
0.010748029 1.3414624 2.860333
0.0088223517 1.3485749 2.8170867
0.0068125725 1.351239 2.7771597
0.0030488968 1.3572829 2.7012348
0.0074011981 1.3569794 2.7817173
0.012160271 1.3640599 2.8616109
-0.15009587 1.3911321 -0.15608513
-0.15074679 1.3809814 -0.15696394
-0.15245727 1.3886647 -0.196872
-0.15437321 1.3936715 -0.23763454
-0.15221177 1.3923504 -0.19638419
-0.34456 -0.35750279 -1.8236576
-0.34230098 -0.35741121 -1.7821563
-0.3415893 -0.37503144 -1.7497675
-0.34223187 -0.39486209 -1.7398992
-0.34446165 -0.39317051 -1.7828135
-0.34510499 -0.39237165 -1.7955352
-0.34541216 -0.38998979 -1.8037987
-0.34612286 -0.3864722 -1.8207364
-0.35935241 -0.46295071 -1.9806738
-0.36118791 -0.49414325 -1.98034
-0.36418182 -0.5326516 -1.9933331
-0.36709556 -0.57246721 -2.0034194
-0.37275785 -0.65139043 -2.0213246
-0.37520307 -0.69055003 -2.0235004
-0.38202021 -0.7703582 -2.0617046
-0.38286203 -0.78415525 -2.0621085
-0.38435715 -0.77203691 -2.1029043
-0.38493785 -0.76894695 -2.1169798
-0.39529639 -0.81201124 -2.2606125
-0.39856565 -0.84817106 -2.2812462
-0.39982671 -0.84922105 -2.3033209
-0.40196717 -0.85106432 -2.3407216
-0.40518051 -0.86520958 -2.384418
-0.40948039 -0.86697441 -2.4616721
-0.40958893 -0.86712193 -2.4635093
-0.41603187 -0.8313387 -2.6213205
-0.41810161 -0.84622592 -2.6431444
-0.42609295 -0.92577124 -2.7032599
-0.43292695 -1.0051379 -2.7422578
-0.43734187 -1.0848922 -2.7362821
-0.44935066 -1.2427619 -2.7846673
-0.44173512 -1.1146822 -2.7845864
-0.43953604 -1.0410497 -2.8246689
-0.43801707 -1.0022798 -2.8391242
-0.42904425 -0.86776543 -2.8210893
-0.43696749 -0.85421699 -2.9818289
-0.43887767 -0.84916949 -3.0225298
-0.43940115 -0.8466301 -3.0349493
-0.44051743 -0.84422082 -3.0581429
-0.43965852 -0.84407961 -3.04248
-0.43860433 -0.84698886 -3.0198827
-0.35400996 -0.37325934 -1.9804425
-0.35572201 -0.36559615 -2.0203578
-0.35830626 -0.37244967 -2.0604486
-0.35929292 -0.37462074 -2.0762424
-0.36435011 -0.43557155 -2.1026723
-0.37155026 -0.52538246 -2.1369834
-0.37835389 -0.64931118 -2.1266551
-0.38298771 -0.72707987 -2.1268837
-0.39430422 -0.79330719 -2.2628098
-0.39552343 -0.77595294 -2.3042541
-0.39863616 -0.75772953 -2.3815203
-0.40082791 -0.7201367 -2.4630227
-0.39499041 -0.60778344 -2.4784756
-0.39221179 -0.56577355 -2.4732792
-0.38944614 -0.53063178 -2.4608049
-0.38929772 -0.52814043 -2.4607987
-0.38929701 -0.52596676 -2.4631639
-0.39653188 -0.50253713 -2.6220398
-0.39649621 -0.48743919 -2.6379056
-0.39741287 -0.48235005 -2.6603558
-0.39851862 -0.48726207 -2.675344
-0.40350732 -0.48682517 -2.7676926
-0.40373626 -0.47929183 -2.7801528
-0.40458596 -0.48673066 -2.7876599
-0.4076204 -0.5241425 -2.8025994
-0.41192019 -0.56146002 -2.8409448
-0.41429609 -0.60132045 -2.8410769
-0.41847119 -0.68344998 -2.8280854
-0.42605156 -0.77808034 -2.8641248
-0.38607574 -1.5284022 -1.3068193
-0.3882829 -1.5283372 -1.347537
-0.39063263 -1.5328058 -1.3859189
-0.39278832 -1.5325913 -1.4258525
-0.39055538 -1.5342299 -1.3829377
-0.38832846 -1.5305293 -1.3459771
-0.0074042678 1.3673961 2.497664
-0.0072906911 1.3657372 2.5015712
-0.0089640915 1.3734956 2.4622636
-0.37292153 -0.90986127 -1.7414795
-0.38048398 -1.0351101 -1.7436805
-0.38161734 -1.0537232 -1.7441829
-0.38211739 -1.0625143 -1.7437713
-0.38593403 -1.094713 -1.7788203
-0.38619134 -1.0943935 -1.783909
-0.39007533 -1.0847408 -1.8659985
-0.39055717 -1.0589678 -1.9030769
-0.39056414 -1.0541551 -1.9084725
-0.39433816 -0.97123408 -2.0687189
-0.38881567 -1.0272268 -1.9057424
-0.37909654 -0.9043116 -1.8612702
-0.37222406 -0.78759134 -1.8624421
-0.36991841 -0.78528881 -1.8225012
-0.36754498 -0.78093505 -1.7835574
-0.36490783 -0.77532423 -1.7411326
-0.36147782 -0.78686082 -1.6653414
-0.36142635 -0.78671116 -1.6645572
-0.36137488 -0.78656155 -1.6637731
-0.35937762 -0.79102796 -1.6221044
-0.35750899 -0.79446459 -1.5839307
-0.35417461 -0.81243426 -1.5028608
-0.35333526 -0.81178546 -1.4881136
-0.35884359 -0.85375762 -1.5436211
-0.36033031 -0.8417989 -1.5840873
-0.3662751 -0.86877364 -1.6640451
-0.40988538 -1.528383 -1.7453129
-0.40778115 -1.5287471 -1.7061634
-0.40557399 -1.5288122 -1.6654457
-0.40768415 -1.5264056 -1.7069392
-0.4685936 -1.4973421 -2.8604388
-0.45827276 -1.4012326 -2.7755508
-0.45830363 -1.5059495 -2.6615219
-0.45713398 -1.5233902 -2.6208954
-0.46080893 -1.510932 -2.7022061
-0.45738479 -1.5262583 -2.6223757
-0.4553034 -1.5263669 -2.5839264
-0.50274241 -1.5241499 -3.4599781
-0.5010184 -1.5293336 -3.4225569
-0.49901122 -1.5320396 -3.3826313
-0.49700403 -1.5347453 -3.3427057
-0.49455136 -1.5299776 -3.3027558
-0.49239567 -1.5301921 -3.2628222
-0.49419981 -1.5236778 -3.3031759
-0.49633121 -1.5228777 -3.3433032
-0.49772817 -1.5125146 -3.3803697
-0.12612173 -0.88681948 2.7783093
-0.12158996 -0.84715295 2.818356
-0.15568906 -1.5290375 2.9366207
-0.15578362 -1.5313622 2.9374232
-0.16020504 -1.5313054 2.8559375
-0.1556484 -1.5268795 2.935008
-0.047310829 1.3867249 1.7416023
-0.050506473 1.3694837 1.70162
-0.045302242 1.3840377 1.7815324
-0.038683027 1.3859398 1.9013487
-0.03667444 1.3832526 1.9412788
-0.038792998 1.383538 1.9019519
-0.04094997 1.3837342 1.8620151
-0.23596138 1.3931427 -1.7395637
-0.23611057 1.4058425 -1.7562093
-0.23822001 1.3930581 -1.7810655
-0.4034183 -1.5290267 -1.6255121
-0.40086859 -1.5219172 -1.5863378
-0.39888766 -1.5284913 -1.542663
-0.39665425 -1.5246881 -1.5056949
-0.39455003 -1.5250525 -1.4665455
-0.39648479 -1.5238857 -1.5034525
-0.39795125 -1.5114281 -1.5440918
-0.39802194 -1.5098252 -1.5471472
-0.40062308 -1.5170844 -1.5871055
-0.40300781 -1.5235074 -1.6239929
-0.48020861 -1.5219479 -3.0474105
-0.47685146 -1.5247462 -2.9825234
-0.47448516 -1.5237014 -2.9400902
-0.46890834 -1.4999518 -2.863379
-0.4725627 -1.5271547 -2.9009075
-0.47284591 -1.5296326 -2.9034116
-0.47429803 -1.5294001 -2.9304075
-0.47500163 -1.5294179 -2.9433451
-0.4773058 -1.5316947 -2.9832869
-0.47960997 -1.5339712 -3.0232286
-0.48155999 -1.5316542 -3.0616751
-0.48323941 -1.5203605 -3.1049623
-0.48429334 -1.5040591 -3.1422105
-0.48302644 -1.5191966 -3.1023145
-0.48103559 -1.5213447 -3.0633004
-0.3345314 -1.5245247 -0.36183459
-0.33237544 -1.5247339 -0.32190228
-0.33443987 -1.5222186 -0.36267298
-0.3365958 -1.5220094 -0.4026053
-0.019908041 1.3759074 2.2580833
-0.022054166 1.3721819 2.2226377
-0.023842752 1.3796732 2.1815014
-0.021724194 1.3793879 2.2208285
-0.38153231 -1.5276997 -1.2239171
-0.37946016 -1.5265548 -1.1870103
-0.38186139 -1.5311731 -1.2261763
-0.38401705 -1.5309584 -1.2661098
-0.26465654 -1.5225956 0.92285264
-0.26695475 -1.5185552 0.87610757
-0.26843295 -1.5136316 0.8434974
-0.2706773 -1.5144639 0.80307686
-0.27156714 -1.5141804 0.78637946
-0.27420354 -1.5128398 0.73636067
-0.27101651 -1.5215631 0.80459881
-0.26715118 -1.5294755 0.88444102
-0.32375169 -1.525571 -0.16217297
-0.32566762 -1.5205643 -0.20293558
-0.32791507 -1.5226612 -0.24202955
-0.32997951 -1.5201457 -0.28280026
-0.32797205 -1.5228465 -0.24287599
-0.32590762 -1.5253617 -0.20210528
-0.28895962 -1.5239366 0.47676015
-0.29115793 -1.5320473 0.44515276
-0.29306951 -1.5270331 0.40446222
-0.3194398 -1.5259897 -0.082308292
-0.31743234 -1.5286902 -0.042384148
-0.31698093 -1.5273012 -0.035591245
-0.21985933 -1.5105987 1.7346982
-0.2217183 -1.5054066 1.6947819
-0.22407328 -1.5106735 1.6571771
-0.22632715 -1.5099709 1.6149012
-0.21998683 -1.4784812 1.6972021
-0.21128507 -1.3612009 1.7291051
-0.20559157 -1.2815632 1.7468029
-0.20993704 -1.3613229 1.7540635
-0.21324302 -1.5087352 1.854503
-0.2131407 -1.5091574 1.8568493
-0.20922813 -1.5141366 1.9343513
-0.21362668 -1.5187895 1.8584408
-0.21578351 -1.5185945 1.8185078
-0.21725205 -1.5061092 1.7778002
-0.2975834 -1.5230995 0.31703091
-0.29542744 -1.5233088 0.35696328
-0.29728502 -1.5242909 0.32382953
-0.4205668 -1.5249681 -1.9457567
-0.42262548 -1.5224118 -1.9864662
-0.42281953 -1.5270951 -1.9849143
-0.28665519 -1.5216544 0.51670063
-0.28660321 -1.5276906 0.5242635
-0.1362164 -0.96489263 2.6778483
0 0 0 1 0 0 0 1 0 0 0 1 0 0 0 0 0 393 1 0 0
