ply
format ascii 1.0
comment PCL generated
element vertex 510
property float x
property float y
property float z
element camera 1
property float view_px
property float view_py
property float view_pz
property float x_axisx
property float x_axisy
property float x_axisz
property float y_axisx
property float y_axisy
property float y_axisz
property float z_axisx
property float z_axisy
property float z_axisz
property float focal
property float scalex
property float scaley
property float centerx
property float centery
property int viewportx
property int viewporty
property float k1
property float k2
end_header
-9.1425047 1.357882 4.1333628
-9.1923227 1.3706288 4.1743941
-9.1491947 1.3616664 4.1386843
-9.0146227 1.3608499 4.0247917
-8.9406796 1.3910453 3.959424
-8.8397541 1.3462694 3.8780234
-8.815382 1.3442497 3.8575673
-8.7996845 1.3439987 3.8442957
-8.7839861 1.3437471 3.8310237
-8.7514658 1.3433938 3.803515
-8.7871037 1.3383238 3.8341577
-8.8400412 1.3456473 3.8783231
-8.9405222 1.3541694 3.9626443
-9.5157795 1.2677374 4.4576845
-9.5197258 1.2258811 4.4648333
-9.5236073 1.181442 4.4721622
-7.2449875 1.3522565 2.5268908
-7.2630234 1.352334 2.5421586
-7.3469548 1.3520489 2.6132648
-7.3894567 1.3485718 2.6495755
-7.4333282 1.3456039 2.6869993
-7.4797111 1.3543193 2.7254877
-7.5244045 1.3568523 2.7631078
-7.5846248 1.3460121 2.8150935
-7.6519103 1.3464205 2.8720398
-7.6941614 1.3379672 2.9085906
-7.7436037 1.34325 2.9499819
-7.7861056 1.3397727 2.9862928
-7.8468275 1.3388846 3.0377979
-7.8893294 1.3354073 3.0741086
-7.9320822 1.336906 3.1101789
-7.9993677 1.3373144 3.1671252
-8.0418701 1.3338368 3.2034359
-8.0910606 1.3341439 3.2450676
-8.1159706 1.3405173 3.2655833
-8.1473179 1.3456993 3.2916598
-8.2014751 1.3435149 3.337724
-8.2754507 1.3477075 3.3999913
-8.299984 1.346617 3.4208672
-8.368021 1.361953 3.4770925
-8.4105234 1.3584757 3.5134032
-8.4196453 1.3565121 3.5213068
-8.4348059 1.3524094 3.5345194
-8.4818983 1.3389766 3.575623
-8.5488071 1.3319209 3.6329298
-8.6162186 1.3348172 3.6897557
-8.6900682 1.3365216 3.7521434
-8.6413784 1.3461664 3.7100313
-8.6051893 1.3459642 3.6794016
-8.5068836 1.3525174 3.595551
-8.4957781 1.356497 3.5857844
-8.4584932 1.3624592 3.5536664
-8.4229317 1.3746967 3.5224364
-8.3833523 1.3856363 3.4879217
-8.340724 1.3866255 3.451731
-8.3317394 1.3878191 3.4440134
-8.2844887 1.3885462 3.4039314
-8.1901951 1.3496859 3.3276098
-8.1293488 1.3480861 3.2762251
-8.0621881 1.3501661 3.2191584
-7.9946518 1.3447816 3.1624522
-7.9317255 1.3629112 3.107512
-7.8784256 1.3490424 3.0636344
-7.8292341 1.3487353 3.0220027
-7.7483625 1.3627346 2.95224
-7.6055698 1.3747811 2.8302152
-7.5811625 1.3783596 2.8092191
-7.5390368 1.3893008 2.7725482
-7.5325985 1.3904924 2.7669873
-7.5078144 1.3866069 2.7463517
-7.4535313 1.3863034 2.7004075
-7.4221835 1.3811216 2.6743307
-7.3123169 1.3686686 2.5824189
-7.1910281 1.3635297 2.4801681
-7.1426277 1.371717 2.4384339
-7.0997648 1.3678012 2.4024899
-7.0638199 1.3701348 2.3718362
-7.0110636 1.3678863 2.3273621
-6.9047613 1.3731809 2.2368546
-6.8013816 1.3727369 2.1493437
-6.7522378 1.3750124 2.1075177
-6.6915936 1.3759956 2.0560694
-6.6491132 1.3795443 2.0197704
-6.5930519 1.3755705 1.972654
-6.4371538 1.4456365 1.8342534
-6.3902464 1.4518104 1.7939664
-6.3157883 1.4493122 1.7311358
-6.2934136 1.4502256 1.7121041
-6.1125436 1.3751636 1.5657549
-6.0944867 1.3751028 1.5504682
-6.0630469 1.3695896 1.5243435
-6.0987988 1.3622487 1.555289
-6.1663527 1.3678837 1.611987
-6.2089772 1.3670003 1.6481655
-6.2270341 1.3670614 1.6634521
-6.2380967 1.3665805 1.6728646
-6.2536612 1.3699124 1.6857429
-6.281342 1.37796 1.7084538
-6.4828286 1.3735423 1.8794919
-6.507453 1.3702276 1.9006474
-6.5254893 1.3703048 1.9159153
-6.6074905 1.3655269 1.9857955
-6.6136651 1.3658643 1.990994
-6.6776299 1.3610094 2.0456069
-6.7879276 1.3677025 2.1384079
-6.8483171 1.3617435 2.1900926
-6.8907976 1.3581948 2.2263918
-6.9211836 1.3589473 2.2520566
-7.0254121 1.3587742 2.3403425
-7.0999498 1.3585505 2.4034877
-7.128664 1.3567305 2.4279714
-7.1348391 1.3570681 2.4331698
-7.1724663 1.3601844 2.4647527
-7.1960988 1.3595083 2.4848285
-7.4889107 -0.77774513 2.9272006
-7.4964018 -0.76371217 2.9322677
-7.5144958 -0.76361102 2.9475827
-7.6857576 -0.75264019 3.0916243
-7.7109175 -0.74129069 3.1118994
-7.778203 -0.74088252 3.1688457
-7.9008446 -0.73981786 3.2726123
-8.1783447 -0.54009098 3.4894581
-8.3977079 -0.55053735 3.6761837
-8.4209223 -0.58902246 3.6993439
-8.4426966 -0.644849 3.722862
-8.4755001 -0.71182263 3.7567346
-8.497714 -0.83645701 3.7868836
-8.8337975 -0.94670808 4.0815363
-8.8689327 -0.91338944 4.1082621
-8.9128151 -0.88949871 4.1432514
-8.958931 -0.91098869 4.1842613
-8.9678707 -0.99582988 4.1995497
-8.9838943 -1.0743103 4.2202578
-8.9846478 -1.0793755 4.2213569
-8.9826422 -1.1191835 4.223278
-9.1954498 -1.5680829 4.4443321
-9.2295742 -1.5673729 4.4731665
-9.2447653 -1.5652878 4.4858427
-9.3152075 -1.5619687 4.5451975
-9.2340622 -1.5798371 4.4781017
-9.1460075 -1.573366 4.4029403
-9.1214743 -1.5722754 4.3820648
-9.071907 -1.5800464 4.3407931
-9.053813 -1.5801477 4.3254786
-9.0208006 -1.5771761 4.2972512
-8.9961481 -1.5785534 4.2764983
-8.9684324 -1.5806572 4.2532177
-8.8717728 -1.5749953 4.1708426
-8.8473654 -1.5714169 4.149847
-8.7735147 -1.5731214 4.0874591
-8.7489815 -1.572031 4.0665832
-8.7374516 -1.5708358 4.0567093
-8.7310133 -1.5696442 4.0511489
-8.7016392 -1.5635741 4.0257196
-8.6772318 -1.5599957 4.0047245
-8.5965672 -1.5679725 3.9371359
-8.5610046 -1.5557349 3.9059057
-8.4821892 -1.5549479 3.8390861
-8.4391861 -1.5614226 3.8032558
-8.4197445 -1.5603358 3.7866926
-8.3901196 -1.5592418 3.7615039
-8.33424 -1.563333 3.7145519
-8.2799559 -1.5636365 3.6686075
-8.1994171 -1.5691254 3.6008995
-8.1813231 -1.5692266 3.5855849
-8.1388206 -1.5657494 3.549274
-8.0291586 -1.5601923 3.4558969
-7.9646206 -1.5509467 3.4003992
-7.9194965 -1.5546352 3.3625197
-7.8763671 -1.5635978 3.3268094
-7.8160219 -1.5552456 3.2749441
-7.7424231 -1.5519743 3.2123165
-7.5983248 -1.6268332 3.0970905
-7.5803556 -1.6244464 3.0816557
-7.4320922 -1.5491426 2.9492438
-7.4012785 -1.5465479 2.9229119
-7.3781238 -1.5469871 2.9033422
-7.3567047 -1.5449636 2.8850191
-7.3475895 -1.5446289 2.8772688
-7.3093343 -1.5483537 2.8452098
-7.2569513 -1.5429575 2.8003566
-7.1831913 -1.5399808 2.7376194
-7.1807938 -1.5398953 2.7355809
-7.1586051 -1.5389884 2.7167072
-7.0379167 -1.5250077 2.6132262
-7.0306344 -1.5388315 2.6083162
-7.073009 -1.5446887 2.6447356
-1.2341199 -1.5258706 -2.3018591
-1.1496997 -1.5069151 -2.3750777
-1.0823503 -1.5078323 -2.4320319
-1.0254493 -1.5278014 -2.4784043
-1.0075684 -1.5253379 -2.4937716
-0.92907572 -1.5221248 -2.5605381
-0.8797226 -1.5230184 -2.6022534
-0.86184168 -1.5205549 -2.6176207
-0.73840141 -1.5240321 -2.7218442
-0.68441153 -1.5241028 -2.7675612
-0.64144897 -1.5307906 -2.8033373
-0.61020851 -1.5291734 -2.8299415
-0.52366304 -1.5269887 -2.903435
-0.4923625 -1.5253196 -2.930095
-0.48910046 -1.5251873 -2.9328692
-0.47439337 -1.5253129 -2.9453132
-0.46308899 -1.5261374 -2.9548113
-0.41037607 -1.5269481 -2.9993799
-0.24016047 -1.1569395 -3.1771872
-0.16507244 -0.87691402 -3.266248
-0.16383457 -0.76168144 -3.2777774
-0.16761017 -0.68209779 -3.2818182
-0.16496706 -0.61909193 -3.2897875
-0.17138624 -0.60251421 -3.2858589
-0.26097775 -0.26306018 -3.2408602
-0.2541523 -0.15818781 -3.2561791
-0.25051546 -0.14015549 -3.2608993
-0.24220085 -0.031344712 -3.2778375
-0.2641964 -0.016793191 -3.2605336
-0.25946712 -0.057464838 -3.2608392
-0.25723886 -0.13694531 -3.2554972
-0.26828194 -0.26280376 -3.2346976
-0.29095221 -0.51882774 -3.1922119
-0.2957325 -0.56929564 -3.183573
-0.56121254 -0.79147297 -2.9385331
-0.59743738 -0.78645182 -2.9083116
-0.64667463 -0.78804541 -2.8664682
-0.72256327 -0.77033085 -2.8038104
-0.82387352 -0.78947157 -2.7162709
-0.87797928 -0.78691387 -2.670682
-0.98132229 -0.78594965 -2.58325
-1.0235901 -0.79418391 -2.5467048
-1.1596332 -1.2496171 -2.3900678
-1.297502 -1.5215394 -2.2485757
-1.6309009 -1.5356098 -1.9649446
-1.2968321 -1.5252706 -2.2488036
-5.5973048 -0.84924012 1.3317255
-5.8147969 -0.97356236 1.5272244
-5.6125622 -0.80971277 1.3410513
-5.605689 -0.79276419 1.3336893
-5.8529015 -0.97224283 1.5593747
-5.888598 -0.97949076 1.5902648
-5.9315133 -1.0204818 1.6303378
-6.0797148 -1.5222065 1.8014818
-6.1225729 -1.5181127 1.8374057
-6.1560526 -1.5204191 1.8659691
-6.2117548 -1.5374613 1.9146926
-6.1513505 -1.5317149 1.8630142
-6.0566177 -1.5388238 1.7834327
-6.0316606 -1.5419594 1.7625819
-6.0069528 -1.5434548 1.7417934
-5.9827375 -1.5383224 1.7208192
-5.971385 -1.5370467 1.7110884
-5.8813281 -1.5490975 1.6359165
-5.872313 -1.5479879 1.628181
-5.8281441 -1.5438945 1.5904024
-5.7786798 -1.5382956 1.5480025
-5.7604599 -1.5376649 1.5325148
-5.7086468 -1.5405619 1.4888985
-5.6415658 -1.5361892 1.4316907
-5.5967836 -1.5388924 1.394011
-5.5674438 -1.5406634 1.3693246
-5.5416169 -1.542006 1.3475746
-5.4878297 -1.5361099 1.3014863
-5.4843769 -1.5352943 1.2984881
-5.4645448 -1.5315304 1.28135
-5.4038982 -1.5307496 1.2299184
-5.3790698 -1.5347288 1.2092533
-5.2865539 -1.5467744 1.1319985
-5.2152381 -1.5368309 1.0706975
-5.201685 -1.5375338 1.0592835
-5.0781245 -1.4921563 0.9505142
-5.0578671 -1.4926827 0.93340659
-5.0353842 -1.4937501 0.91446286
-5.0172229 -1.4962789 0.8993125
-4.9541197 -1.5009644 0.84629738
-4.8892426 -1.4960855 0.79091012
-4.9044561 -1.1400204 0.7714082
-4.5435147 -1.0800655 0.46027833
-4.5120211 -1.5030259 0.47207689
-4.5096617 -1.5059488 0.47034454
-4.4600196 -1.5140284 0.42903841
-4.2674217 -1.5676119 0.27080339
-4.0286121 -1.4767547 0.060294628
-3.9793329 -1.4773722 0.018616676
-3.9313889 -1.4859345 -0.021207929
-3.8841379 -1.485332 -0.061279058
-3.7960246 -1.502177 -0.1343689
-3.7575216 -1.5167015 -0.16565549
-3.6393585 -1.5856206 -0.25945783
-3.4692357 -1.5392778 -0.40774798
-3.341135 -1.5415716 -0.51602614
-3.3169179 -1.5331745 -0.53729904
-3.1935692 -1.53269 -0.64180553
-3.1810982 -1.531911 -0.65243793
-3.098978 -1.5282128 -0.7223208
-3.0743988 -1.5272778 -0.74322188
-3.0228143 -1.5251613 -0.78710067
-2.9736903 -1.5322206 -0.8280611
-2.9507773 -1.5375278 -0.84698319
-2.9240134 -1.5313714 -0.87020898
-2.8253334 -1.535094 -0.95344138
-2.8137956 -1.5345807 -0.96325922
-2.7737594 -1.5329773 -0.99731112
-2.7400942 -1.5333068 -1.0257919
-2.7299478 -1.5312719 -1.03457
-2.486696 -1.5176008 -1.2418201
-2.4189994 -1.5259788 -1.2983897
-2.3943806 -1.5251821 -1.3193114
-2.376384 -1.5252056 -1.3345504
-2.302181 -1.5302763 -1.3969309
-2.2098658 -1.5378575 -1.474422
-2.1742196 -1.5304437 -1.5052845
-2.241569 -1.5295267 -1.4483306
-2.2911534 -1.5236592 -1.4068718
-2.530226 -1.244405 -1.2298036
-2.8052473 -1.5137224 -0.9723959
-2.9163876 -1.5027866 -0.87926722
-2.9746215 -1.5033922 -0.82989454
-2.9903672 -1.5006166 -0.81681204
-3.2049646 -1.1296201 -0.66881621
-3.1593196 -0.89286304 -0.72900653
-3.1433325 -0.85061824 -0.74638808
-3.1295247 -0.81359524 -0.7614491
-2.9699116 -0.33075541 -0.94054008
-3.163547 -0.80580348 -0.73334479
-3.2066498 -0.79674745 -0.69766521
-3.2381306 -0.79119629 -0.6715095
-3.2562916 -0.78866756 -0.65635908
-3.2989113 -0.78956121 -0.62018371
-3.3302715 -0.78649747 -0.5939039
-3.380034 -0.77593023 -0.55272174
-3.4653943 -0.77522999 -0.48049498
-3.5325933 -0.77705854 -0.42341852
-3.5865934 -0.77942204 -0.37747157
-3.6227946 -0.77685201 -0.34704697
-3.6675954 -0.76827848 -0.30988562
-3.7281344 -0.77161825 -0.25831211
-3.7527137 -0.77255315 -0.23741102
-3.7950902 -0.76959497 -0.201792
-4.0202956 -0.76943505 -0.011083007
-4.063036 -0.76784122 0.024968386
-4.3888588 -0.75063974 0.299339
-4.5038266 -0.53856188 0.37741452
-4.505249 -0.53690952 0.37846899
-4.7112927 -0.76777959 0.5739634
-4.7434702 -0.77071673 0.60148126
-4.7841573 -0.811409 0.63963991
-5.0219879 -1.1036494 0.86763632
-5.0697365 -1.1134311 0.90896356
-5.132081 -1.1239363 0.96271807
-5.2404437 -1.11201 1.0534042
-5.3080096 -1.1064315 1.1101178
-5.3219709 -1.3794239 1.1467714
-5.5146866 -1.5136207 1.3221858
-5.5212426 -1.514725 1.3278383
-5.6319995 -1.5298444 1.4230121
-5.6483641 -1.5323176 1.4370961
-5.6909804 -1.5332062 1.473268
-7.564827 -0.90337962 3.0029202
-7.5940275 -1.0081173 3.0371761
-7.5971847 -1.0633026 3.0448689
-7.3962746 -1.5443885 2.9184775
-7.3424263 -1.5397452 2.872452
-7.3245173 -1.5373681 2.857069
-7.2751026 -1.5403593 2.8154922
-7.2374587 -1.5388062 2.7834709
-7.2080202 -1.5359974 2.7582841
-7.1652822 -1.5376036 2.7222364
-0.49975014 1.3778791 -3.1878979
-0.45702839 1.3762369 -3.2239292
-0.50379848 1.3671002 -3.1834886
-0.57092047 1.3629305 -3.1262653
-0.64188337 1.3724997 -3.0670378
-0.66668653 1.3765898 -3.0464041
-0.71629238 1.3847699 -3.0051377
-0.87187672 1.4458101 -2.878927
-0.93800354 1.4540119 -2.8236711
-1.004344 1.4348061 -2.7657413
-1.0178647 1.4282467 -2.7536941
-1.0699592 1.4006782 -2.7070684
-1.1855435 1.3821912 -2.6075003
-1.1673574 1.3797331 -2.6226783
-1.1243682 1.3731847 -2.6584895
-1.0642819 1.3865612 -2.7105927
-0.89271641 1.4002101 -2.8571308
-0.85398054 1.393121 -2.8892906
-0.80661774 1.3846264 -2.9286292
-0.79504871 1.3837996 -2.9383514
-0.78193569 1.3830233 -2.9493864
-0.73906755 1.3789618 -2.9853213
-0.72749853 1.3781354 -2.995044
-0.70293713 1.3790195 -3.0159252
-1.7452719 -1.540123 -1.8676746
-1.7587476 -1.5367897 -1.8565655
-1.8192437 -1.5400264 -1.8050377
-3.8479843 1.4253073 -0.35663331
-3.8797998 1.4108651 -0.3283757
-3.9252353 1.3946471 -0.28842175
-3.9742732 1.39029 -0.24649596
-4.0346918 1.3844628 -0.19479811
-3.9427924 1.3847389 -0.27265167
-3.907316 1.3970933 -0.30382001
-3.7862377 1.4037726 -0.4069674
-3.7616582 1.4047079 -0.42786837
-3.7306604 1.4091065 -0.45452011
-3.6812601 1.4060013 -0.4960742
-3.6630988 1.4034727 -0.51122463
-3.6383986 1.4019201 -0.53200161
-3.59478 1.4054539 -0.56926334
-3.560061 1.4101934 -0.59909761
-3.1630516 1.417088 -0.93594694
-3.5681703 1.4415534 -0.59508216
-3.5862105 1.4415948 -0.57980788
-3.6351278 1.4347501 -0.53775799
-3.7736425 1.4156747 -0.41871655
-3.8048818 1.4162512 -0.39231277
-4.1621885 1.3743196 -0.085900307
-4.4057913 1.4554937 0.11302102
-4.447928 1.4446507 0.14969206
-4.4087582 1.4532006 0.11574209
-5.6729169 1.3785443 1.1931326
-5.7398672 1.3717418 1.2504511
-5.7693501 1.3703811 1.2755432
-5.7890019 1.3698533 1.2922343
-5.8252368 1.3724625 1.3226838
-5.7580452 1.3742902 1.2656137
-5.6976051 1.3800876 1.2139003
-5.9891033 1.3674471 1.4619166
-5.9415636 1.3687468 1.4215374
-5.9846706 1.3778133 1.4572195
-0.58119249 1.373441 -3.1185219
-0.56324816 1.3759565 -3.1339471
-0.51760197 1.3753858 -3.1725528
-2.9848824 -0.14942724 -0.9443543
-2.9690189 -0.14475107 -0.95821404
-2.5877872 0.027761817 -1.2967656
-2.5603805 -0.095548868 -1.3087602
-2.55264 -0.2547181 -1.3008382
-2.5576828 -0.32838041 -1.2898679
-2.5571012 -0.4455739 -1.2797008
-2.963192 -0.3298381 -0.94631433
-4.677134 1.4004252 0.34782648
-4.6410537 1.4003427 0.31727779
-4.5986757 1.4062111 0.28085452
-4.483767 1.4397585 0.18048871
-4.5357089 1.4451039 0.22399139
-4.5493002 1.4441719 0.23558629
-4.6839147 1.4044237 0.35320508
-4.7084942 1.4034889 0.37410629
-4.7513552 1.4075704 0.41003352
-4.7693958 1.4076114 0.42530799
-4.794096 1.409164 0.44608516
-4.8542724 1.3983619 0.49803042
-4.9036732 1.4014671 0.5395847
-4.8476129 1.3968506 0.49252778
-4.8227921 1.3928108 0.47187471
-4.8047514 1.3927696 0.45660049
-4.7554722 1.3921521 0.41492242
-5.4911613 1.4036932 1.0369188
-5.431251 1.4371479 0.98313874
-5.3947754 1.4295635 0.95293754
-5.3519092 1.4254713 0.91700715
-5.327342 1.4264157 0.89611554
-5.257822 1.4035199 0.83932257
-5.1465545 1.4030325 0.74513566
-5.1042595 1.4007943 0.70951986
-5.0561113 1.3978512 0.66901183
-5.0314112 1.3962989 0.64823467
-4.9962039 1.3997228 0.61810648
-4.9708719 1.3996387 0.59666103
-4.9600897 1.399601 0.58753288
-4.9396329 1.3990622 0.57025743
-4.975472 1.39417 0.60105389
-5.0140195 1.3948088 0.63364124
-5.0498919 1.3899558 0.66446269
-5.0736685 1.3879428 0.68478203
-5.0923958 1.3865848 0.70076525
-5.1096282 1.3855383 0.71545446
-5.1235943 1.3871229 0.7271378
-5.2083602 1.3754065 0.79999083
-5.2688003 1.3696089 0.85170412
-5.3235536 1.3967636 0.89560401
-5.3809094 1.414161 0.94259578
-5.4417114 1.4158261 0.99393696
-5.4933181 1.4005022 1.0390356
-5.5272279 1.3861082 1.0690627
-5.5627384 1.3737922 1.1002563
-5.5988526 1.3739145 1.1308297
-5.6236615 1.3779452 1.1514734
-5.5187387 1.3947737 1.0610852
-0.63538742 1.3733547 -3.0726168
-1.6605644 1.3638353 -2.2035413
-1.6785085 1.3613198 -2.1881158
-1.7101705 1.3720155 -2.1622746
-3.1496267 1.4026759 -0.94600558
-3.1199405 1.4036698 -0.97123671
-2.0643704 -1.5281005 -1.5985277
-2.007817 -1.5406086 -1.6452844
-1.9048212 -1.5341117 -1.7331011
-2.0216396 -1.5298142 -1.6345601
-2.0464892 -1.525637 -1.6138949
-2.0980451 -1.527642 -1.5700507
-2.4619408 0.49926901 -1.446229
-2.4630909 0.45967722 -1.441654
-2.5896363 0.18585813 -1.3095791
-2.5976844 0.30492061 -1.3135924
-2.6018386 0.37200093 -1.3161757
-2.618329 0.46607828 -1.3107669
-2.6256771 0.58555543 -1.3154109
-2.6333616 0.62549102 -1.3125353
-2.6208589 0.66825688 -1.3270135
-2.4597824 0.5793823 -1.4553437
0 0 0 1 0 0 0 1 0 0 0 1 0 0 0 0 0 510 1 0 0
