ply
format ascii 1.0
comment PCL generated
element vertex 522
property float x
property float y
property float z
element camera 1
property float view_px
property float view_py
property float view_pz
property float x_axisx
property float x_axisy
property float x_axisz
property float y_axisx
property float y_axisy
property float y_axisz
property float z_axisx
property float z_axisy
property float z_axisz
property float focal
property float scalex
property float scaley
property float centerx
property float centery
property int viewportx
property int viewporty
property float k1
property float k2
end_header
-10.940411 -1.5074511 0.36895287
-10.913103 -1.5569916 0.35248554
-10.898008 -1.5573916 0.3438679
-10.867825 -1.5606916 0.32658947
-10.790138 -1.5600705 0.28228343
-10.74375 -1.5599599 0.25582194
-10.64987 -1.5634267 0.20220435
-10.634772 -1.5613277 0.19362915
-10.509598 -1.5642836 0.12216783
-10.478306 -1.5662723 0.10428107
-10.448114 -1.5645733 0.087088108
-10.401724 -1.5644631 0.06062603
-10.370429 -1.5639522 0.042782545
-10.292736 -1.5583324 -0.0014380217
-10.262545 -1.5566335 -0.018631101
-10.213947 -1.5588994 -0.046394825
-10.153568 -1.558001 -0.080823421
-10.122275 -1.5599897 -0.098710179
-10.089876 -1.5606673 -0.11720538
-10.042933 -1.559901 -0.14397156
-10.012192 -1.5600462 -0.16151094
-9.9965429 -1.5597906 -0.17043316
-9.9652472 -1.5592799 -0.18827724
-9.9495993 -1.5590248 -0.19719923
-9.90376 -1.5570703 -0.22331429
-9.8562622 -1.5556488 -0.25038457
-9.8109732 -1.5518506 -0.27615273
-9.6576958 -1.5793881 -0.36408687
-9.5174799 -1.6177356 -0.44476354
-9.4861841 -1.6172249 -0.46260774
-9.2994576 -1.5754821 -0.56838036
-9.2733631 -1.5754199 -0.58326519
-9.1182346 -1.5372519 -0.67107642
-8.9422665 -1.5328972 -0.77138245
-8.916172 -1.5328352 -0.78626722
-8.654253 -1.6485279 -0.93775994
-8.6210127 -1.6554835 -0.95684737
-8.5755548 -1.6478498 -0.98264271
-8.5074682 -1.6483147 -1.0214926
-8.4771156 -1.647779 -1.0387979
-8.4471788 -1.6477351 -1.0558751
-8.4211283 -1.6465826 -1.0707154
-8.2521343 -1.6451988 -1.1670961
-8.225029 -1.6450799 -1.1825573
-8.1927891 -1.6445942 -1.2009401
-8.117095 -1.6052692 -1.243416
-8.0933123 -1.5820642 -1.2565668
-7.8752413 -1.507319 -1.3796282
-7.7149854 -1.4892626 -1.4707252
-7.6572757 -1.5025561 -1.5038853
-7.3052759 -1.4890418 -1.7044476
-7.2579207 -1.5504861 -1.7325649
-7.2278714 -1.5561736 -1.749809
-7.2116036 -1.5604787 -1.7591667
-7.1489663 -1.562279 -1.7949315
-7.1189175 -1.5679665 -1.8121756
-7.0261388 -1.5529585 -1.8648337
-6.899508 -1.5305259 -1.9366701
-6.8680711 -1.5026817 -1.9541042
-6.5421844 -1.4716117 -2.1394548
-6.4813237 -1.5252662 -2.1751368
-6.4510193 -1.5451248 -2.1927807
-6.3344283 -1.6035206 -2.26034
-6.3184538 -1.6038864 -2.2694595
-6.1401777 -1.5162098 -2.3695874
-6.1088438 -1.513361 -2.3874114
-6.0299182 -1.5144672 -2.4324558
-5.9835696 -1.5169613 -2.458941
-5.9221559 -1.5123012 -2.493892
-5.8594875 -1.5066028 -2.5295398
-5.781785 -1.5012488 -2.5737708
-5.6728411 -1.5155411 -2.6361763
-5.4968305 -1.5585656 -2.7373571
-5.4387875 -1.573426 -2.7707353
-5.1925387 -1.5642631 -2.9110479
-5.0611072 -1.516943 -2.9851766
-5.0369797 -1.5160625 -2.998925
-4.9730988 -1.5193241 -3.0354254
-4.9568205 -1.5211298 -3.044744
-4.9104719 -1.5236239 -3.0712292
-4.8653469 -1.5196576 -3.0969005
-4.8028584 -1.5216684 -3.1325846
-4.7401667 -1.5212548 -3.1683407
-4.7088203 -1.5210478 -3.1862187
-4.662488 -1.5211706 -3.2126524
-4.6147661 -1.5179274 -3.2398181
-4.5997791 -1.5182571 -3.2483735
-4.5834198 -1.5177205 -3.2576962
-4.5520744 -1.5175135 -3.2755742
-4.5383296 -1.5175433 -3.2834158
-4.4743958 -1.5174294 -3.3198862
-4.4444385 -1.5205884 -3.3370323
-4.3817472 -1.5201747 -3.3727884
-4.3190551 -1.5197608 -3.4085448
-4.2263894 -1.5200064 -3.461412
-4.1884527 -1.5149446 -3.4829628
-4.0903983 -1.4744129 -3.5381727
-4.0251932 -1.3908496 -3.5738711
-4.0086479 -1.3628175 -3.5828063
-4.0053654 -1.3557262 -3.5845518
-3.7899029 -1.1956508 -3.7045941
-3.6966159 -1.1675141 -3.7573066
-3.6489108 -1.1667705 -3.7845078
-3.5398529 -1.1614803 -3.8466268
-3.5248828 -1.1643096 -3.8552175
-3.4785163 -1.1594334 -3.8815808
-3.4008882 -1.1668479 -3.9259982
-3.3845627 -1.1713104 -3.9353914
-3.3709483 -1.1725066 -3.9431796
-3.3068674 -1.1687267 -3.9796677
-3.2932525 -1.1699229 -3.9874563
-3.2142358 -1.1739714 -4.0326052
-3.1992488 -1.1743014 -4.0411606
-3.1649575 -1.1541595 -4.0603614
-3.1527133 -1.1444292 -4.0671716
-2.8976393 -1.1135625 -4.2121301
-2.8799338 -1.11397 -4.2222376
-2.6883841 -1.0889885 -4.3310623
-2.6472616 -1.072418 -4.3542242
-2.4201603 -0.95220792 -4.4816213
-2.395381 -0.95242202 -4.4957614
-2.3717699 -0.95155543 -4.5092149
-2.3132648 -0.95182741 -4.5425954
-2.1307836 -0.91144878 -4.6459703
-2.0113277 -0.79088074 -4.7119532
-1.9726229 -0.75098461 -4.7333169
-1.8625422 -0.5505141 -4.7925177
-1.8386655 -0.3888289 -4.8032374
-1.3788366 -0.30856514 -5.064115
-1.3652272 -0.3284446 -5.0722356
-1.2564983 -0.24713755 -5.132803
-1.2608833 0.11123997 -5.1238718
-1.3213444 0.19182363 -5.0879345
-1.3312058 0.17924216 -5.0825343
-1.3615236 -0.12802413 -5.0707526
-1.8690653 -0.20912075 -4.782671
-1.8788104 -0.050329342 -4.7742624
-1.8872108 0.069439828 -4.7673211
-1.8904324 0.08539325 -4.7651973
-1.8937011 0.22905701 -4.7607546
-1.8898835 0.43074846 -4.7593136
-1.8885188 0.46904904 -4.7594047
-2.0190887 0.70934516 -4.6806073
-2.0259237 0.75036877 -4.675972
-2.1515799 0.96089858 -4.6005116
-2.1506581 1.1358683 -4.5978975
-2.1516223 1.3083758 -4.5942526
-2.1514115 1.3483689 -4.5936551
-2.1780696 1.3597882 -4.5782423
-2.2406349 1.3842487 -4.5421119
-2.349781 1.3612475 -4.4802604
-2.4274869 1.3560109 -4.4360256
-2.5065484 1.3549104 -4.3909431
-2.6470556 1.3291421 -4.3112507
-2.7730579 1.3064756 -4.2397771
-2.7770629 1.3063881 -4.237494
-2.8959179 1.3007996 -4.1697912
-2.962574 1.305789 -4.1316762
-3.066062 1.3381157 -4.0720596
-3.1437416 1.3378782 -4.02775
-3.2050691 1.3357065 -3.9928036
-3.3048246 1.3461297 -3.935709
-3.3498876 1.3457448 -3.9100089
-3.4379358 1.3674884 -3.8593903
-3.5455945 1.3653467 -3.7980127
-3.6096468 1.3689477 -3.7614083
-3.6259985 1.3708818 -3.7520452
-3.6723297 1.3709121 -3.7256141
-3.7486796 1.3615391 -3.6822271
-3.8263459 1.3638012 -3.6378803
-3.8563251 1.361897 -3.6208124
-3.9340703 1.3491616 -3.5766895
-3.9967535 1.3511262 -3.5408955
-4.0281153 1.3483589 -3.5230546
-4.0908108 1.3478236 -3.487298
-4.1221857 1.342557 -3.4694943
-4.1535339 1.3422894 -3.4516158
-4.1710529 1.3434165 -3.4416013
-4.2650976 1.3426137 -3.3879662
-4.3092647 1.3405874 -3.3628068
-4.3850975 1.3599367 -3.3191991
-4.4491496 1.3635375 -3.2825949
-4.5581775 1.3630326 -3.220407
-4.5597005 1.3629787 -3.2195392
-4.574748 1.3632765 -3.2109494
-4.6060658 1.3629513 -3.19309
-4.6672182 1.360028 -3.1582565
-4.6687112 1.3598006 -3.157409
-4.7449102 1.3572907 -3.1139846
-4.7777319 1.3541229 -3.0953178
-4.8241072 1.3515956 -3.0689075
-4.8866596 1.3709412 -3.0328765
-4.9167342 1.3765359 -3.0156193
-4.9468193 1.379631 -2.9984012
-4.9931741 1.382103 -2.9719129
-5.1197486 1.3598835 -2.9001045
-5.1655445 1.3503182 -2.8741512
-5.1909895 1.3500538 -2.8596401
-5.2033453 1.3494711 -2.8526025
-5.2281628 1.3546653 -2.8383515
-5.2432003 1.3574626 -2.8297229
-5.2594595 1.3593388 -2.8204138
-5.2901516 1.3619745 -2.8028579
-5.3835592 1.3464603 -2.7498498
-5.4449515 1.3517296 -2.7147329
-5.4797592 1.3499188 -2.6949086
-5.4913273 1.3492024 -2.6883225
-5.5214119 1.3522975 -2.6711044
-5.5527296 1.3519721 -2.6532445
-5.6015177 1.3551011 -2.6253562
-5.6929746 1.3684647 -2.5729432
-5.7242918 1.3681393 -2.5550835
-5.7856736 1.3759081 -2.5199277
-5.9097424 1.3705282 -2.4492469
-5.9572878 1.3795776 -2.4219613
-5.9722252 1.3856332 -2.4133313
-6.1137714 1.4029455 -2.332273
-6.1588941 1.4088383 -2.3064263
-6.128788 1.410742 -2.3235664
-6.0498934 1.4095168 -2.3685956
-6.0035496 1.4045453 -2.3951225
-5.9120927 1.3911817 -2.4475355
-5.8180885 1.4046559 -2.5009201
-5.8017979 1.4102786 -2.5101125
-5.7418246 1.3879526 -2.5447261
-5.7079906 1.3762612 -2.5642369
-5.647831 1.3675711 -2.598712
-5.5388517 1.3632507 -2.660959
-5.507534 1.3635762 -2.6788187
-5.4461317 1.3608067 -2.7138968
-5.4148145 1.3611319 -2.7317564
-5.366612 1.3625426 -2.7592292
-5.3503423 1.3631659 -2.7684994
-5.3214478 1.3666482 -2.7849202
-5.303956 1.3681927 -2.7948709
-5.2750826 1.3666759 -2.8113694
-5.2425537 1.365423 -2.8299487
-5.0806017 1.3916464 -2.9218669
-5.0394869 1.394573 -2.9452689
-4.9680214 1.3906589 -2.9861083
-4.9330654 1.3922713 -3.0060203
-4.8966398 1.3920817 -3.0268035
-4.8879232 1.3913777 -3.0317888
-4.8089867 1.3687947 -3.0772247
-4.7451611 1.3628683 -3.1137414
-4.6837173 1.3700967 -3.1486635
-4.6657829 1.3708892 -3.1588802
-4.622304 1.3698263 -3.1837027
-4.5897646 1.371073 -3.2022433
-4.5404038 1.3694601 -3.2304311
-4.4790502 1.376631 -3.2653027
-4.4476757 1.3818977 -3.2831063
-4.4275646 1.3823886 -3.2945702
-4.3990259 1.3827119 -3.3108449
-4.3250074 1.3887408 -3.352962
-4.2708788 1.381279 -3.3839746
-4.1848164 1.3545196 -3.4335506
-4.1071501 1.3522575 -3.4778974
-4.0607662 1.3622258 -3.5041792
-3.839586 1.4231699 -3.629262
-3.7036648 1.3731439 -3.7076983
-11.066207 0.31063884 0.47333777
-11.06921 0.34928572 0.47574437
-11.058748 0.5110687 0.47267902
-11.050691 0.59016776 0.46950185
-11.050329 0.83010691 0.47360051
-11.034651 0.85035712 0.46501982
-10.975086 1.0719147 0.4350158
-10.978323 1.1524861 0.43830812
-10.983282 1.1911011 0.44183028
-10.988466 1.2317326 0.44551671
-10.935604 1.3124921 0.4168092
-10.854501 1.3525114 0.37126029
-10.832126 1.3590813 0.35861385
-10.799711 1.3684013 0.34028947
-10.785721 1.3691893 0.33232272
-10.573707 1.5157559 0.21400511
-10.503834 1.5237472 0.17428851
-10.379808 1.4919872 0.10296559
-10.320234 1.4767513 0.06870687
-10.100548 1.3714919 -0.058506012
-10.053604 1.3722575 -0.085271716
-10.037956 1.3725133 -0.094193697
-9.9764729 1.3722236 -0.12927341
-9.929533 1.3704896 -0.15608239
-9.8518448 1.37361 -0.20034528
-9.8054581 1.3712211 -0.22684991
-9.7590723 1.3688323 -0.25335443
-9.6813831 1.3719528 -0.29761779
-9.6500845 1.3749628 -0.31541872
-9.6037064 1.3675752 -0.34200883
-9.5411224 1.3635979 -0.37778234
-9.5260315 1.3606982 -0.38644302
-9.4274244 1.3646045 -0.44262528
-9.3932991 1.3650401 -0.46208501
-9.3306999 1.3710604 -0.49768782
-9.2918491 1.3763695 -0.51975536
-9.1753101 1.3847997 -0.58608627
-9.1364679 1.3851097 -0.60823882
-9.0998363 1.385298 -0.62913263
-9.00595 1.3868299 -0.68266463
-8.9282646 1.3874509 -0.72697055
-8.896965 1.3904612 -0.7447719
-8.8041897 1.3881824 -0.79773808
-8.7566853 1.3946028 -0.82472301
-8.6952085 1.3893144 -0.85988814
-8.631506 1.3941462 -0.89614165
-8.6013184 1.3933458 -0.91337723
-8.5074358 1.3923783 -0.96695185
-8.4459553 1.3895891 -1.0020742
-8.3984585 1.3910108 -1.0291445
-8.3369741 1.3907211 -1.0642242
-8.2905855 1.3908315 -1.0906858
-8.227994 1.3918529 -1.126374
-8.1816044 1.3919632 -1.152836
-8.0726271 1.3905957 -1.2150283
-7.901063 1.3877501 -1.3129516
-7.815846 1.3781738 -1.3617371
-7.7419343 1.3788948 -1.4038885
-7.7220449 1.3794658 -1.4152243
-7.6860251 1.379698 -1.4357684
-7.6680222 1.379616 -1.44604
-7.6037955 1.3424649 -1.4833459
-7.348937 1.37988 -1.6280634
-7.3417134 1.3807504 -1.6321685
-7.3292112 1.3801985 -1.6393107
-7.1699281 1.4183235 -1.7294927
-7.1373882 1.41957 -1.7480332
-7.0759339 1.4292982 -1.7829163
-7.0608759 1.4314997 -1.791467
-6.9832349 1.4218547 -1.835932
-6.9387507 1.4219196 -1.8613076
-6.9349122 1.4219027 -1.8634977
-6.7476926 1.5038021 -1.9688312
-6.7097912 1.5039973 -1.9904491
-6.6395912 1.5144975 -2.0303078
-6.5619087 1.5148506 -2.0746169
-6.5482483 1.5049949 -2.0825863
-6.361805 1.4171813 -2.1905222
-6.3142176 1.4181302 -2.2176523
-6.2528462 1.4078617 -2.252847
-6.2829523 1.4059579 -2.2357068
-10.868025 -1.0682912 0.33553898
-10.646235 -1.5473673 0.20041835
-10.449954 -1.425895 0.090626001
-10.339668 -1.1848489 0.032036662
-10.105367 -0.98306119 -0.098004341
-10.071642 -0.62269163 -0.11077738
-10.069424 -0.40279573 -0.1080972
-10.109058 -0.3031083 -0.083698034
-10.031985 -0.082516178 -0.12370777
-10.073236 0.19717741 -0.095157266
-10.112539 0.51681083 -0.067000747
-10.114184 0.67682034 -0.063191056
-10.136264 0.83661753 -0.047728062
-10.076505 1.1570592 -0.076069355
-10.303423 1.3638296 0.057090521
-10.364895 1.3716173 0.092298508
-10.412385 1.3751945 0.11945415
-10.506271 1.3736625 0.17298603
-10.582853 1.3718531 0.21664095
-10.613052 1.3651555 0.23374844
-10.645463 1.358335 0.25211549
-10.863851 1.073643 0.37159026
-10.854255 0.95133346 0.36392176
-10.852913 0.91072005 0.36242783
-10.847227 0.79084617 0.35703266
-10.849224 0.76332122 0.35767853
-10.948807 0.50991297 0.40994012
-10.956257 0.39047122 0.41204727
-10.96621 0.3513301 0.41702282
-10.976232 0.31210709 0.42203605
-10.980385 0.15208372 0.42153442
-10.973175 0.11156598 0.41669405
-10.966025 0.031058311 0.41117084
-10.957042 -0.12939711 0.40316689
-10.94598 -0.20984092 0.39541328
-10.948056 -0.28985256 0.39516199
-10.948087 -0.3098492 0.39482033
-10.948207 -0.38982892 0.39345396
-10.948237 -0.4098222 0.39311278
-10.948267 -0.42981881 0.39277089
-10.955598 -0.46928084 0.39624465
-10.962988 -0.5487327 0.3990351
-10.955839 -0.62924027 0.39351237
-10.948629 -0.66975808 0.38867199
-10.948689 -0.70974791 0.38798916
-10.898234 -0.97385097 0.35446703
-10.973557 -0.5076232 0.40580142
-11.036863 -0.25001976 0.44653857
-11.050608 -0.08834897 0.45728028
-11.050066 0.27155983 0.46342862
-10.95968 -0.94856751 0.38997328
-10.973979 -0.7875523 0.40101969
-10.973798 -0.66758263 0.4030689
-10.968363 -0.58816278 0.40139353
-10.970972 -1.3873367 0.38854229
-11.015804 -1.1483772 0.41840565
-11.006333 -1.1236336 0.41344678
-10.968472 -1.0273957 0.39357507
-5.5323472 -1.170593 -2.7101343
-5.7224159 -1.0417222 -2.5993938
-5.7648592 -1.0416838 -2.5751805
-5.8787279 -1.0822731 -2.5109503
-6.0668488 -1.2032876 -2.4058044
-6.1370134 -1.2038147 -2.365787
-6.2164822 -1.1816311 -2.3200548
-6.36938 -1.1902629 -2.2329862
-6.4181952 -1.1798471 -2.2049518
-6.4494777 -1.1701987 -2.186933
-6.4945717 -1.1666665 -2.1611447
-6.6333904 -1.1041949 -2.0808322
-6.7563477 -0.76568222 -2.0046148
-6.7521105 -0.72471654 -2.0062971
-6.7570405 -0.70567256 -2.0031428
-6.7791972 -0.68490064 -1.9901305
-6.8333869 -0.68499339 -1.9592187
-6.9890389 -0.75568962 -1.8716927
-7.2832937 -0.40752319 -1.6975824
-7.2885847 -0.25866786 -1.6918931
-7.2667217 -0.17845871 -1.7029259
-7.2528439 -0.13582408 -1.7100778
-7.1608062 0.022142649 -1.759748
-7.1373811 0.062206745 -1.7723924
-7.1369982 0.22123766 -1.7697573
-7.2163906 0.42184359 -1.7208669
-7.2130079 0.50194591 -1.7213595
-7.1948938 0.62210697 -1.729537
-7.2061396 0.74196297 -1.720971
-7.2005467 0.82154888 -1.7227337
-7.1048999 1.0224123 -1.7736931
-6.8443265 1.376946 -1.9159807
-6.7804589 1.3810177 -1.952342
-6.7634435 1.3832397 -1.962009
-6.71772 1.4066641 -1.9876723
-6.5710282 1.4240949 -2.0710428
-6.4846826 1.4052238 -2.1206391
-6.4696245 1.4074256 -2.1291895
-3.5519993 1.3836918 -3.7940297
-3.5167913 1.3851626 -3.8140883
-3.4916666 1.3851643 -3.8284211
-3.4696827 1.385618 -3.8409543
-3.4619322 1.3856308 -3.8453755
-3.2902117 1.4247208 -3.9426351
-3.2653322 1.4251723 -3.95682
-3.2621045 1.4247744 -3.9586682
-2.9923539 1.4254818 -4.1125402
-2.7859306 1.3517284 -4.2316213
-2.7382045 1.3550608 -4.2587881
-2.676877 1.3572326 -4.2937346
-2.5828061 1.3630345 -4.3472948
-2.5678096 1.3652365 -4.3558102
-2.1913033 0.70920503 -4.5823665
-2.1944199 0.74893028 -4.5798759
-2.1963248 0.86973912 -4.5766215
-2.1928487 0.94921941 -4.5771785
-2.1954823 1.0297115 -4.5742316
-2.4438787 1.3504465 -4.4267745
-4.9539123 -1.1582344 -3.0398917
-5.1823854 -0.99928731 -2.906703
-5.1902161 -0.99937469 -2.9022374
-5.4258847 -1.1604313 -2.7706857
-2.956079 -0.9538036 -4.1759253
-3.016099 -0.9488914 -4.1415977
-3.042388 -0.95167077 -4.1266503
-3.1054006 -0.99957663 -4.0915632
-3.1658049 -1.0657461 -4.0582919
-3.494267 -1.0699853 -3.8709903
-3.5255115 -1.0551947 -3.852901
-3.7005692 -0.99582738 -3.7519708
-3.9542124 -0.99562621 -3.6072717
-3.974735 -0.98267496 -3.5953317
-4.0046244 -0.96951747 -3.5780449
-4.0510583 -0.98439205 -3.5518227
-4.0824718 -0.99459732 -3.5340853
-4.3343706 -1.1637244 -3.3934193
-4.3493576 -1.1633947 -3.3848639
-4.3970795 -1.1666379 -3.3576984
-4.4120831 -1.1688077 -3.3491781
-4.4747748 -1.1692216 -3.3134217
-4.5656672 -1.1964583 -3.2620592
-4.669157 -1.1969273 -3.2030296
-4.7305837 -1.1970758 -3.1679907
-4.8627877 -1.201182 -3.0926461
-2.6863513 -0.71333551 -4.3254819
-2.6521935 -0.71312368 -4.344964
-2.6114678 -0.71054256 -4.3681502
-2.5384841 -0.71271157 -4.4098244
-2.5122499 -0.71262068 -4.4247885
-2.4561095 -0.71006751 -4.456769
-2.4130187 -0.71219915 -4.481389
-2.3009081 -0.73958731 -4.545836
-2.0330992 -0.35031116 -4.691628
-2.1547852 -0.011443704 -4.6161294
-2.1714735 0.028857321 -4.6058865
-2.171329 0.056352556 -4.6054754
-2.1663704 0.10875049 -4.6073642
-2.1669235 0.14887008 -4.6063285
-2.1704726 0.21882448 -4.6030488
-2.1713567 0.22884142 -4.6023645
-2.1420932 0.62823284 -4.6118922
-2.1830206 0.68154234 -4.5875883
-3.6395996 1.3720427 -3.7442656
-9.1712399 0.92620009 -0.59663689
-9.1663589 1.0049646 -0.59800816
-9.1622658 1.1249979 -0.598189
-8.9120817 1.375865 -0.73640996
-8.8494873 1.3793857 -0.77205539
-8.7891035 1.3827837 -0.80644131
-8.7578115 1.380795 -0.82432812
-8.6337852 1.3490345 -0.89565086
-8.4778032 1.1303077 -0.98855835
-8.4751549 1.010263 -0.99222344
-8.550312 0.80961758 -0.95294881
-8.5884743 0.63432634 -0.93432337
-8.6321316 0.5691573 -0.91058761
-8.6663742 0.49124128 -0.89245111
-9.1519289 0.56467575 -0.61414003
-9.1682444 0.68566924 -0.60266173
-9.1735764 0.7660448 -0.59817791
-9.1719751 0.80557495 -0.59838188
-9.1677341 0.88586432 -0.59936023
0 0 0 1 0 0 0 1 0 0 0 1 0 0 0 0 0 522 1 0 0
