ply
format ascii 1.0
comment PCL generated
element vertex 582
property float x
property float y
property float z
element camera 1
property float view_px
property float view_py
property float view_pz
property float x_axisx
property float x_axisy
property float x_axisz
property float y_axisx
property float y_axisy
property float y_axisz
property float z_axisx
property float z_axisy
property float z_axisz
property float focal
property float scalex
property float scaley
property float centerx
property float centery
property int viewportx
property int viewporty
property float k1
property float k2
end_header
-5.082365 -0.67402804 -0.86284101
-5.1053333 -0.68275893 -0.85355389
-5.5221395 -0.76775217 -0.69163191
-5.5586801 -0.75206417 -0.67951953
-5.6097546 -0.7511766 -0.66069543
-5.6834779 -0.7388202 -0.63452077
-5.9284892 -0.64171898 -0.55257666
-5.9902763 -0.63427317 -0.53037781
-6.0831227 -0.63941526 -0.4955501
-6.1552076 -0.63782001 -0.46901321
-6.3944659 -0.70828265 -0.37411454
-6.4714499 -0.73833191 -0.34291577
-6.5116448 -0.74896586 -0.32708132
-6.5579848 -0.75401866 -0.30947474
-6.5894594 -0.75419796 -0.29780909
-6.6301527 -0.74994159 -0.28313053
-6.6661015 -0.77370214 -0.26768616
-6.6496682 -0.7939049 -0.27194986
-6.491961 -0.88803232 -0.32184812
-6.7435064 -1.3964345 -0.18297893
-7.0419765 -1.5363848 -0.059909165
-7.1090779 -1.5481751 -0.034011722
-7.0730357 -1.5489728 -0.047280133
-6.9752889 -1.5547345 -0.082940102
-6.933351 -1.5536681 -0.098558426
-6.9183187 -1.5537583 -0.10411406
-6.8463173 -1.5528717 -0.13084358
-6.7028117 -1.5362086 -0.1854586
-6.6828518 -1.5344882 -0.19300121
-6.588872 -1.534256 -0.22780663
-6.5378809 -1.532662 -0.24682319
-6.3288927 -1.6126071 -0.3169786
-6.2831182 -1.6102465 -0.33413351
-6.2570047 -1.6088003 -0.34392878
-6.0537167 -1.5179453 -0.42734969
-6.0283046 -1.5146664 -0.4370507
-5.8735881 -1.5194519 -0.4938845
-5.8630414 -1.5210466 -0.49764454
-5.7584743 -1.5346299 -0.53512478
-5.7544985 -1.5358483 -0.53648669
-5.7185392 -1.5341642 -0.54994774
-5.6873136 -1.5265398 -0.56219143
-5.5844598 -1.5281354 -0.60011673
-5.5612483 -1.52685 -0.6088236
-5.5329294 -1.5213983 -0.61979598
-5.2852836 -1.5235233 -0.71126485
-5.2511287 -1.5289229 -0.72342038
-5.2070994 -1.5347791 -0.73918951
-5.1938887 -1.5353183 -0.74403065
-5.1714234 -1.5345049 -0.75241899
-5.1534119 -1.5349354 -0.75904673
-5.135385 -1.535364 -0.76568031
-5.0993462 -1.5362233 -0.77894187
-5.0633078 -1.5370823 -0.79220337
-4.9979877 -1.5386397 -0.81623971
-4.9447932 -1.536225 -0.83614582
-4.7360187 -1.6113343 -0.90665746
-4.6736197 -1.6388193 -0.92727882
-4.6540751 -1.6169711 -0.93647957
-4.4962134 -1.5334632 -1.0024254
-4.3625393 -1.5378536 -1.0515068
-4.0620995 -1.6394486 -1.1535618
-4.0388803 -1.6381607 -1.1622717
-3.8466439 -1.5281273 -1.2433286
-3.9292006 -1.5273627 -1.212841
-4.0221558 -1.5300332 -1.1781955
-4.068593 -1.532609 -1.1607759
-4.1190915 -1.5315105 -1.142184
-4.2489481 -1.5233506 -1.0948553
-4.40342 -1.5258303 -1.0374579
-4.4112997 -1.5259253 -1.034533
-4.532414 -1.5276414 -0.98955089
-4.5693159 -1.5230788 -0.97630334
-4.5940118 -1.5249693 -0.9669925
-4.7021275 -1.5223919 -0.92720807
-4.8206415 -1.5232494 -0.88326567
-4.8401308 -1.5239884 -0.87598562
-4.8931632 -1.5319315 -0.85564196
-4.9830742 -1.5233426 -0.82313669
-4.9740529 -0.93679768 -0.8792758
-4.9457746 -0.76774395 -0.90496045
-4.9727068 -0.7237491 -0.89895254
-5.0167952 -0.68302822 -0.88629997
-0.27352905 -1.4220957 -2.5753765
-0.28171253 -1.4950416 -2.5657811
-0.30680037 -1.5129362 -2.5548849
-0.39997578 -1.5259513 -2.5192266
-0.43588877 -1.5299183 -2.5055771
-0.49759007 -1.526958 -2.4830062
-0.55440807 -1.5303845 -2.461668
-0.66834688 -1.533456 -2.4192195
-0.71918344 -1.5382688 -2.3999705
-0.7244277 -1.5375134 -2.3980975
-0.80178976 -1.5347681 -2.3697109
-0.95666075 -1.5243151 -2.3133302
-1.0182891 -1.5238358 -2.2905631
-1.1263928 -1.5233318 -2.2505965
-1.2344961 -1.5228276 -2.2106299
-1.3118544 -1.5381187 -2.1806211
-1.4970319 -1.5267566 -2.1131048
-1.3464785 -1.5236179 -2.1691113
-1.1039057 -1.2227008 -2.2859819
-1.153738 -0.81592226 -2.3041553
-1.1581273 -0.79984951 -2.3039775
-1.020225 -0.77036756 -2.3576727
-0.96246958 -0.77664942 -2.3784842
-0.8650012 -0.77068073 -2.4150972
-0.82886887 -0.77415681 -2.4281578
-0.77205133 -0.77073038 -2.4494958
-0.7465539 -0.76773357 -2.4592028
-0.72967386 -0.7646063 -2.4657321
-0.4504528 -0.49526843 -2.5933247
-0.37855959 -0.47907946 -2.6213913
-0.31622601 -0.52105588 -2.6406841
-0.30184507 -0.5597558 -2.6425231
-0.29096031 -0.61096406 -2.641942
-0.28951025 -0.6865747 -2.6356726
-0.28798676 -0.71877193 -2.633338
-0.2837081 -0.84092158 -2.6239257
-0.28321934 -0.92096317 -2.6169014
-0.2865777 -1.0154448 -2.6071534
-0.2811861 -1.0512625 -2.6059246
-0.27738476 -1.252959 -2.589175
-0.2800374 -1.2939587 -2.5845025
-0.27439833 -1.37226 -2.5795412
-10.179399 -1.5706114 1.1044145
-10.226149 -1.5658367 1.1212876
-10.517471 -1.352626 1.2099205
-10.540247 -1.1116661 1.1966596
-10.546486 -1.0737395 1.1955546
-10.626747 -0.86852646 1.2067887
-10.62817 -0.82881784 1.2037405
-10.630272 -0.79626095 1.2015879
-10.63596 -0.63742661 1.1893951
-10.641204 -0.590478 1.1871096
-10.757178 -0.80644691 1.2494762
-10.755667 -0.84863722 1.2527146
-10.730726 -1.1315764 1.2689531
-10.724781 -1.1497421 1.268388
-10.707516 -1.2368312 1.2698374
-10.703903 -1.356168 1.2792428
-10.687912 -1.4661196 1.2832217
-10.550981 -1.5396245 1.2391568
-10.537979 -1.5520047 1.2354589
-10.418186 -1.6716053 1.201887
-10.382174 -1.6723119 1.188621
-10.140601 -1.6752592 1.0994742
-10.046245 -1.6826203 1.0652131
-9.9532814 -1.6772789 1.030324
-9.6554146 -1.6596987 0.91849339
-9.6171513 -1.6604493 0.90439844
-9.4290447 -1.5665901 0.82632661
-9.3320961 -1.5547141 0.78937399
-9.3066406 -1.5563159 0.78009629
-9.2749672 -1.5536296 0.76813173
-9.1988668 -1.55099 0.73972726
-9.0848751 -1.5413759 0.69667053
-8.8511419 -1.6250471 0.61769176
-8.8145065 -1.6431261 0.60575926
-8.5452814 -1.652815 0.50698447
-8.5345459 -1.6568832 0.50337708
-8.4941034 -1.663464 0.48900068
-8.4728107 -1.6666367 0.48140538
-8.4580908 -1.6641704 0.47573507
-8.3951569 -1.6629249 0.45232916
-8.3394032 -1.6678761 0.43213928
-8.2951508 -1.6583933 0.41490662
-8.0386095 -1.5541821 0.31057298
-8.2651587 -1.5533206 0.39434731
-8.3476543 -1.5552849 0.42505777
-8.4558725 -1.548202 0.46447468
-8.6863346 -1.2496586 0.5229001
-8.6906881 -1.2170575 0.52157664
-8.692852 -1.1304885 0.51458466
-8.6934452 -1.0511155 0.50765908
-8.6955471 -1.0185587 0.50550652
-8.7015762 -0.96801221 0.50318778
-8.6960106 -0.80939853 0.48684967
-8.660058 -0.66100907 0.46018469
-8.6905804 -0.4036046 0.44831049
-8.6315117 -0.24989808 0.41261148
-8.6333752 -0.24219747 0.41260815
-8.7148075 -0.22952628 0.44160759
-8.7390347 -0.24393131 0.45187116
-8.8112221 -0.34530032 0.48771477
-8.8285179 -0.36480063 0.49587178
-9.0807695 -0.65112078 0.6150111
-9.1061363 -0.65200067 0.62447929
-9.1089945 -0.65332222 0.62565613
-9.1081047 -0.66766977 0.62661827
-9.2895584 -1.0284016 0.72625184
-9.3106441 -1.0676688 0.73759091
-9.2854052 -1.1073966 0.73182571
-9.4218769 -1.5416553 0.82142901
-9.5179367 -1.5678788 0.85934365
-9.5326576 -1.5703452 0.86501408
-9.5878811 -1.5760643 0.88596892
-9.6405182 -1.5731894 0.90519249
-9.6684141 -1.5773956 0.91589594
-9.7799654 -1.5812017 0.95752656
-9.8023129 -1.5774561 0.96546102
-9.8564224 -1.5739142 0.98516917
-9.8670683 -1.5723279 0.98896682
-9.9030819 -1.5716215 1.0022329
-9.9345779 -1.5792712 1.0145787
-10.060535 -1.5792807 1.0612
-10.648951 -0.35582441 1.1688536
-10.54558 -0.094138384 1.1070368
-10.545757 -0.089174807 1.1066558
-10.56085 0.22498432 1.0839618
-10.559193 0.30431321 1.0762072
-10.575909 0.38310686 1.0753012
-10.574173 0.46400151 1.0673765
-10.589405 0.58267069 1.062332
-10.606688 0.63343799 1.0641589
-10.708822 0.90245879 1.0777444
-10.70912 0.83743334 1.0837078
-10.707697 0.79772484 1.0867562
-10.70255 0.7128886 1.0924878
-10.693729 0.58829963 1.1004384
-10.690178 0.50371873 1.106738
-10.690632 0.43556169 1.1130414
-10.686566 0.38438186 1.1161436
-10.856731 0.11532876 1.203346
-10.861113 0.085929304 1.2076143
-10.842484 0.068203539 1.2023149
-10.662994 -0.16265395 1.1566625
-10.658579 -0.24926703 1.162825
-10.655319 -0.30885375 1.1669828
-10.655807 -0.3449423 1.1704122
-10.655678 -0.34875131 1.1707067
-10.654967 -0.36860383 1.172231
-10.653675 -0.40450343 1.1749846
-10.65218 -0.42795739 1.1765419
-10.64547 -0.47135222 1.177965
-10.646107 -0.43524158 1.17495
-10.646818 -0.41538554 1.173426
-10.717136 1.3570223 1.0399026
-10.709866 1.3607372 1.0368769
-10.638727 1.3841422 1.00844
-10.628259 1.3875194 1.0042611
-10.49937 1.394636 0.95591533
-10.380594 1.3884486 0.9125104
-10.354961 1.3818833 0.90361381
-10.293314 1.3746114 0.88145125
-10.160085 1.3783356 0.83180439
-10.118032 1.3868806 0.81547022
-10.041842 1.3870387 0.78725624
-10.077945 1.390227 0.80033171
-10.154312 1.3950325 0.8281647
-10.746468 1.1930532 1.0655189
-10.742218 1.1519456 1.0676467
-10.735004 1.0762492 1.0717906
-10.727012 1.0263358 1.0733256
-10.458572 1.3781281 0.94230092
-10.365341 1.3760244 0.90798306
-10.314429 1.3728206 0.88942778
-0.37490463 1.3832858 -2.7903924
-0.31145 1.3704365 -2.8127217
-0.35797167 1.3728706 -2.795722
-0.41665411 1.3692648 -2.7736776
-0.49731016 1.3727301 -2.7441366
-0.52307844 1.3771638 -2.7349982
-0.64357805 1.3811471 -2.6907568
-0.66916943 1.385563 -2.6816821
-0.73706388 1.3933239 -2.6572514
-0.76257563 1.395259 -2.6479828
-1.0142188 1.3842679 -2.553854
-1.0707254 1.3657641 -2.5312734
-1.1790481 1.3759388 -2.4920964
-1.272058 1.3732305 -2.457427
-1.3230815 1.3771006 -2.4388905
-1.4312453 1.3823135 -2.3993254
-1.4880691 1.3737329 -2.377521
-1.5959954 1.3715034 -2.337374
-1.6784101 1.3673388 -2.3064952
-1.5810006 1.3685439 -2.3426576
-1.5088646 1.3642417 -2.3689697
-1.4263711 1.3659254 -2.3996542
-10.720068 1.3499147 1.0416274
-10.74146 1.2750033 1.0562885
-5.8087955 1.3621763 -0.77726686
-5.8862376 1.36973 -0.74928349
-6.0753422 1.403563 -0.68233663
-6.1234674 1.3980619 -0.66402894
-6.2007837 1.3728416 -0.63314182
-6.2412548 1.3748652 -0.61834455
-6.3089595 1.3778749 -0.59355623
-6.3554945 1.3777909 -0.57632488
-6.4170542 1.3804266 -0.5537774
-6.4754047 1.3871945 -0.53278953
-6.3963709 1.3922215 -0.5624944
-6.3498359 1.3923055 -0.57972592
-6.3210125 1.3920984 -0.59037554
-6.1276803 1.4522523 -0.66734779
-6.0343347 1.4346411 -0.70031214
-5.9803147 1.4244362 -0.71938771
-5.9682951 1.4212167 -0.72354674
-5.9347887 1.4084846 -0.73480219
-5.7147474 1.415459 -0.81687307
-5.4407864 1.4090021 -0.91769183
-5.6873507 1.3765773 -0.82351303
-5.6906843 1.3754474 -0.82217765
-5.7126536 1.3710185 -0.81364751
-5.7329469 1.3679965 -0.80586439
-5.7729263 1.3662884 -0.79091311
-6.8343267 1.3854331 -0.39978439
-6.7831092 1.3768998 -0.41797337
-6.6692743 1.386381 -0.46096003
-6.777369 1.3889328 -0.42118105
-6.8239851 1.3913304 -0.40414307
-6.9425025 1.3904663 -0.36019894
-6.9785337 1.391317 -0.34693936
-7.0636225 1.4088129 -0.3170208
-7.1550627 1.4192111 -0.28411233
-7.1805906 1.4209962 -0.27482453
-7.24789 1.411599 -0.24906939
-7.2881174 1.4061784 -0.23369217
-7.406229 1.3929073 -0.1887812
-7.4769487 1.3844025 -0.16184044
-7.5606966 1.3904123 -0.13138425
-7.6780424 1.3836622 -0.087343931
-7.7139668 1.3818867 -0.073887408
-7.7498913 1.3801115 -0.060431063
-7.8220072 1.3840061 -0.034089744
-7.8998957 1.3712039 -0.0041086078
-7.8276911 1.3648275 -0.03025943
-7.7918558 1.3690846 -0.043906212
-7.7812977 1.36998 -0.047894597
-7.7454624 1.3742371 -0.061541498
-7.6126471 1.3683697 -0.11017179
-7.5084438 1.3767527 -0.14949465
-7.4838696 1.3776125 -0.15866756
-7.4733663 1.3785471 -0.16263938
-7.4269934 1.3835938 -0.18025756
-7.3188176 1.3785607 -0.21984303
-7.2029848 1.4011167 -0.26474634
-7.1755838 1.4024535 -0.27500859
-7.0203052 1.3801343 -0.33047202
-6.9992981 1.3820035 -0.33841556
-0.41988516 1.3807378 -2.7735145
-0.45603037 1.3841716 -2.7604454
-0.49209976 1.3851244 -2.7471809
-0.57607937 1.3857905 -2.7161577
-0.79633617 1.4696474 -2.6421838
-0.9408865 1.4395291 -2.5859704
-1.0044947 1.4101007 -2.5597785
-1.1944394 1.3913023 -2.4877827
-1.2766161 1.3796952 -2.456322
-9.6258097 1.3865947 0.63331187
-9.5268984 1.3991039 0.59557605
-9.482645 1.4085867 0.57834339
-9.3894138 1.4064828 0.54402518
-9.3592892 1.4038767 0.53311002
-9.2443829 1.3763573 0.49305713
-9.1621542 1.385767 0.46177518
-9.0176563 1.3705323 0.40966415
-8.9144001 1.3842145 0.3702147
-8.7596998 1.3798023 0.3133533
-8.7236862 1.3790959 0.30008733
-8.6251678 1.3733058 0.26414442
-8.4119568 1.4415437 0.17908674
-8.3459911 1.4730936 0.15183109
-8.2998648 1.4856915 0.13362437
-8.2277498 1.481797 0.10728323
-8.0695829 1.3805951 0.057851553
-7.9359093 1.3719103 0.0091573596
-9.7861061 1.3693464 0.69419432
-9.65695 1.3690177 0.64641976
-9.6315832 1.3698977 0.63695168
-9.5493546 1.3793073 0.60566974
-9.435215 1.3917077 0.5623076
-9.3484383 1.3850113 0.530792
-9.2651424 1.3646395 0.50179565
-9.1571026 1.3625201 0.46199822
-9.0999737 1.3636044 0.44075561
-9.063961 1.3628981 0.42748988
-8.9559202 1.3607787 0.38769197
-8.8840704 1.3643293 0.36077905
-8.8673687 1.3637267 0.35465133
-8.8602495 1.3644826 0.3519485
-8.7444458 1.367378 0.30882597
-8.7150965 1.3643223 0.29823804
-8.6546383 1.3568668 0.27653182
-8.6107731 1.3586932 0.26013184
-8.56429 1.3613639 0.24268693
-8.481883 1.36581 0.21178567
-8.4504766 1.3759415 0.19924933
-8.4463139 1.3775125 0.19756722
-8.2992239 1.4007711 0.14103162
-8.2563114 1.3922482 0.12591588
-8.183485 1.3684993 0.10109878
-8.15312 1.3707632 0.089656174
-8.1370029 1.3711699 0.083654046
-8.101078 1.3729454 0.070197523
-8.0800514 1.3772179 0.062030375
-7.9462891 1.3660513 0.013526618
-2.4597316 -0.24815647 -1.8718827
-2.4422226 -0.088305056 -1.8927528
-2.4473441 -0.072472751 -1.8922825
-2.4616644 0.045582801 -1.8976094
-2.44682 0.14436069 -1.9119955
-2.4615359 0.18604293 -1.910301
-2.4725888 0.22245011 -1.9094874
-2.4879203 0.30404463 -1.9111578
-2.5124211 0.34244069 -1.9055458
-2.7576518 0.65909815 -1.8432846
-2.7589197 0.69879138 -1.8463885
-2.8001299 0.73808098 -1.8346723
-2.8439229 0.75311339 -1.8198166
-2.9891713 0.74173427 -1.7650321
-3.0909534 0.7801615 -1.730819
-3.1682022 0.82542336 -1.7063017
-3.1705644 0.81711018 -1.704679
-3.1689312 0.77833951 -1.7017934
-3.1699009 0.73869884 -1.6978661
-3.1764648 0.61612988 -1.6844031
-3.1732996 0.53532207 -1.6783004
-3.1790602 0.41787085 -1.6655953
-3.1764951 0.33847865 -1.659398
-3.1794038 0.2195563 -1.6476161
-3.1800604 0.10057864 -1.6366628
-3.1797473 0.021241814 -1.629637
-3.1781518 -0.097791135 -1.6195123
-3.1755865 -0.1771833 -1.613315
-3.1772468 -0.28276813 -1.6031959
-3.1743295 -0.32193196 -1.6007501
-3.1756046 -0.37538901 -1.5954659
-3.1707695 -0.40101114 -1.5949491
-3.1662347 -0.47976828 -1.5895379
-3.1604004 -0.55809599 -1.5846465
-3.1143866 -0.92957163 -1.5682375
-3.1740057 -1.0111728 -1.5388253
-3.1936312 -1.0305399 -1.5298179
-3.1942995 -1.1310794 -1.5205201
-3.3421845 -1.5376744 -1.4291828
-3.3317053 -1.5367206 -1.4331472
-3.2855911 -1.5242198 -1.4513407
-3.204246 -1.487765 -1.4847302
-3.1128254 -1.43795 -1.5230516
-2.7294614 -1.5066665 -1.6587589
-2.7034974 -1.5184726 -1.6673062
-2.6462414 -1.5299321 -1.6874665
-2.5586779 -1.5423008 -1.7187626
-2.5170138 -1.5384198 -1.734533
-2.4448233 -1.5428909 -1.7608501
-2.3934646 -1.5493025 -1.7792821
-2.3111498 -1.5428792 -1.8103272
-2.2751641 -1.5413933 -1.8237802
-2.2183461 -1.5379668 -1.8451184
-2.1671338 -1.5394163 -1.863943
-2.1310747 -1.5404115 -1.8771998
-2.0787756 -1.5430031 -1.8963238
-2.0379062 -1.547904 -1.9110094
-2.0124092 -1.5449073 -1.9207163
-1.9915771 -1.5429667 -1.9286014
-1.9224102 -1.5334146 -1.9550618
-1.8988464 -1.5355734 -1.9635891
-1.8166046 -1.5266691 -1.9948305
-1.7393885 -1.5244526 -2.0236096
-1.6980851 -1.5262029 -2.0387397
-1.6517565 -1.5212657 -2.0563316
-1.6427417 -1.5215145 -2.0596457
-1.6156244 -1.5247419 -2.069392
-1.5243282 -1.5308541 -2.102633
-4.5564671 1.3936143 -1.2436165
-4.4634929 1.3963251 -1.2782726
-4.5355635 1.3980944 -1.2517567
-4.5461354 1.3995758 -1.247977
-4.5716786 1.4014601 -1.2386925
-4.6031547 1.3984613 -1.2267724
-4.6286173 1.3978646 -1.2172943
-4.6753049 1.4027116 -1.2004503
-4.7218323 1.4025967 -1.183219
-4.9074268 1.4579557 -1.119509
-4.9612713 1.4753737 -1.1011477
-4.9973068 1.4762584 -1.0878897
-5.0226893 1.4731805 -1.0782177
-5.1188598 1.4321761 -1.0389314
-5.129272 1.4286957 -1.0347643
-5.2219253 1.4160608 -0.99933362
-5.2864747 1.4163871 -0.9754715
-5.3224297 1.4147907 -0.96201992
-5.3735156 1.4185592 -0.94345081
-5.4154038 1.4120799 -0.92736375
-5.3329215 1.4137911 -0.95804656
-5.2425084 1.4016565 -0.99041843
-5.1308565 1.3765604 -1.0294847
-5.0798359 1.3742193 -1.048158
-5.0287323 1.3816047 -1.0677376
-4.9732761 1.3839794 -1.0884771
-4.793582 1.3944421 -1.1559285
-4.7785306 1.3915583 -1.1612397
-4.7679582 1.3900768 -1.1650195
-4.7319231 1.3891921 -1.1782774
-4.6601734 1.3973469 -1.2055678
-7.9515963 -1.5605739 0.27894235
-7.7524118 -1.6504554 0.21331018
-7.5574484 -1.5562444 0.13266826
-7.4670906 -1.5521654 0.098857284
-7.4565334 -1.55127 0.094869196
-7.3460941 -1.5501263 0.053889751
-7.3251667 -1.5483525 0.045984328
-7.2739258 -1.5542034 0.027545512
-7.8840866 -1.5536307 0.25333047
-7.8232398 -1.5385665 0.22945333
-7.7296534 -1.5505975 0.19589758
-7.611589 -1.5369307 0.15096849
-7.5158424 -1.5452511 0.11627924
-7.4693365 -1.5451617 0.099058032
-7.4355955 -1.5445156 0.086511552
-1.8330398 1.3699571 -2.2494984
-1.8588684 1.3818154 -2.2410061
-1.7865739 1.3725517 -2.2669301
-9.7082176 1.3821485 0.66421318
-9.8446445 1.3787628 0.71501327
-9.8552904 1.3803493 0.71881092
-9.8989315 1.3872671 0.73434055
-9.9348545 1.3854918 0.74779689
-9.995182 1.3847461 0.77019274
-2.5964813 -0.57682258 -1.7916819
-2.6298478 -0.80041194 -1.7592047
-2.7386703 -1.2237998 -1.6808138
-2.7256839 -1.251351 -1.6831403
-2.4767282 -1.5234725 -1.7507892
-2.4092023 -1.5289999 -1.7752848
-2.3416824 -1.5300189 -1.8001839
-2.2907557 -1.5260527 -1.8193903
-2.19766 -1.5310643 -1.8533963
-2.1358855 -1.5365057 -1.8757708
-2.0428627 -1.5390363 -1.9099731
-4.4485221 1.3959223 -1.2837775
-4.3914227 1.3945559 -1.3047884
-4.4379501 1.3944408 -1.2875571
-1.781858 1.3611252 -2.2676473
-1.8072903 1.3605795 -2.2581849
-1.8835468 -1.5409899 -1.9687643
-1.9299483 -1.5434461 -1.9513688
-1.7752972 -1.5464559 -2.0083385
-1.6207187 -1.5469848 -2.0655041
-1.5848789 -1.5405368 -2.07935
-1.5177908 -1.5311781 -2.1050234
-4.2729053 1.3953824 -1.3487291
-4.3297644 1.3893058 -1.3271371
-4.3043013 1.3899026 -1.3366153
-4.2938089 1.3909023 -1.3405888
-4.2216587 1.3866519 -1.3669109
-4.139257 1.3908441 -1.3977873
-4.0674272 1.3965179 -1.4248843
-4.0314722 1.3981141 -1.4383358
-3.9853458 1.410634 -1.4565353
-3.9554081 1.4152347 -1.4680303
-3.7628016 1.3978041 -1.53775
-3.7014637 1.4024783 -1.5608735
-3.7575607 1.4199514 -1.5416834
-3.7862854 1.4281292 -1.5317878
-3.8105309 1.4349042 -1.5234237
-3.8363147 1.4442316 -1.5147202
-3.9082246 1.4410388 -1.487817
-3.9546716 1.4384428 -1.470392
-4.0106559 1.4299011 -1.4489019
-4.1439767 1.3996897 -1.3968368
-4.2113271 1.3926135 -1.3712716
-4.6136465 1.3974618 -1.2227992
-3.5734148 -1.5322341 -1.3440881
-3.6302512 -1.538245 -1.3225105
-3.712646 -1.542443 -1.291636
-3.6198525 -1.5348099 -1.3266685
-6.5252299 1.3854599 -0.51419175
-6.58359 1.3923295 -0.49320948
-6.5115199 1.3905602 -0.51972526
-9.8866081 1.3677359 0.73153782
-9.9227104 1.3709241 0.74461329
-9.9769087 1.3769468 0.76413131
-2.5193808 -0.4819462 -1.8287594
-2.4198995 -0.36814708 -1.8758242
-3.608089 1.392784 -1.5945612
-3.5824654 1.3884187 -1.6036522
-3.54635 1.3850532 -1.6167164
-3.4848523 1.3847651 -1.6394525
-3.5666873 1.3886776 -1.6095154
-3.5817513 1.3909156 -1.6041412
0 0 0 1 0 0 0 1 0 0 0 1 0 0 0 0 0 582 1 0 0
