ply
format ascii 1.0
comment PCL generated
element vertex 341
property float x
property float y
property float z
element camera 1
property float view_px
property float view_py
property float view_pz
property float x_axisx
property float x_axisy
property float x_axisz
property float y_axisx
property float y_axisy
property float y_axisz
property float z_axisx
property float z_axisy
property float z_axisz
property float focal
property float scalex
property float scaley
property float centerx
property float centery
property int viewportx
property int viewporty
property float k1
property float k2
end_header
-5.6567621 1.35963 4.7375631
-5.6389818 1.3347032 4.7257662
-5.8021908 1.3475747 4.7941236
-5.8926897 1.3465977 4.8305273
-6.0250788 1.3521888 4.8850799
-6.060504 1.3499109 4.8989792
-6.1782322 1.3419194 4.9450932
-6.2579012 1.3436378 4.9776177
-6.2628736 1.3450283 4.9798846
-6.3785439 1.3653827 5.0304084
-6.4947338 1.3420914 5.0730715
-6.5814438 1.3463502 5.108912
-6.6335492 1.3633728 5.1331234
-6.6560326 1.3683466 5.1431322
-6.5986061 1.3696181 5.120152
-6.5784264 1.3666401 5.1114435
-6.5515261 1.3642267 5.1001234
-6.5047894 1.3652326 5.0814157
-6.4638748 1.3688749 5.0655494
-6.4208651 1.3669372 5.0478039
-5.6774473 1.3711269 4.7480507
-5.6911306 1.37324 4.753973
-5.927856 1.4367712 4.8614173
-5.9789257 1.4322045 4.881218
-6.0305729 1.4348812 4.9025912
-6.1047235 1.4472044 4.9348454
-6.1867714 1.4087522 4.9609036
-6.2685404 1.37516 4.9877472
-6.3431187 1.3676605 5.0165091
-4.1917849 -1.5582182 3.6058066
-4.0392156 -1.5582068 3.5441322
-3.8973343 -1.5471449 3.4888217
-3.8156319 -1.5514495 3.4549975
-3.9304271 -1.5310019 3.5051847
-3.9660075 -1.5355897 3.5187197
-4.0477099 -1.5312852 3.5525441
-4.2002792 -1.5312966 3.6142185
-4.2910218 -1.5412621 3.6490588
-4.2382007 -1.5541855 3.6253161
-1.8355768 -0.44265178 2.8595827
-1.8010786 -0.3998521 2.8535507
-1.7090306 -0.40769961 2.814889
-1.7083478 -0.40808135 2.8145425
-1.6154954 -0.46693444 2.7661242
-1.2552421 -0.45497042 2.6227033
-1.224731 -0.45703572 2.6099873
-1.1202464 -0.55826628 2.5490305
-1.0075865 -0.64828342 2.4868426
-0.56959653 -0.75295496 2.2904296
-0.44754004 -0.7666772 2.2385507
-0.42317176 -0.76530689 2.2289531
-0.34785318 -0.76537097 2.1984935
-0.31188035 -0.76619059 2.1837997
-0.24337316 -0.80046725 2.1497676
-0.22229791 -0.81293589 2.1389422
0.15189362 -1.0973884 1.9350768
0.16860676 -1.0931106 1.9291114
0.21797466 -1.0806775 1.9114534
0.23071861 -1.0811088 1.906222
0.30100536 -1.0868952 1.8767383
0.52895212 -1.0130954 1.7982366
0.5391016 -1.0270679 1.79155
0.57782698 -1.1310914 1.7566605
0.57965946 -1.1678998 1.7491133
0.58161306 -1.2065549 1.741176
0.75394535 -1.5167816 1.6141467
0.84601259 -1.5347555 1.5736046
0.93869925 -1.5430038 1.5346107
1.102602 -1.5424509 1.4684548
1.1383653 -1.5356188 1.455261
1.1738186 -1.5336494 1.4412928
1.1273203 -1.5319566 1.460403
-8.2731676 1.4547586 5.8128405
-8.4782543 1.5790105 5.9187222
-8.4958849 1.5461729 5.9197779
-8.8136396 1.3393509 6.0099878
-8.8368301 1.334656 6.0184946
-8.8609838 1.3286093 6.0271406
-8.8726482 1.3250473 6.0311975
-8.8456993 1.2825483 6.0124445
-8.7659845 1.1544349 5.9565306
-8.7554359 1.1229062 5.9464359
-8.7427998 1.1309427 5.9428139
-8.6446629 1.2225733 5.920085
-8.5287609 1.2865409 5.8850603
-8.2657776 1.2827479 5.7780471
-8.2289915 1.3093631 5.7680974
-7.9799304 1.3474708 5.6744604
-7.9348068 1.3444048 5.655652
-7.9820137 1.3486251 5.6755161
-8.6769657 -1.5690048 5.4169559
-8.9381008 -1.6023084 5.5163622
-8.65516 -1.5886049 5.4045167
-8.6083698 -1.5875815 5.3857908
-8.5378418 -1.5878 5.3572397
-8.4556503 -1.5844562 5.3246317
-8.3971958 -1.5798705 5.3018494
-8.3731813 -1.5762533 5.2928104
-8.3256989 -1.5630822 5.2760506
-8.2432308 -1.5548795 5.2442293
-8.1479969 -1.5393333 5.2086058
-8.2880898 -1.5375447 5.2655692
-8.4065142 -1.557786 5.3097
-8.4777336 -1.569715 5.3362846
-7.6322141 -1.5399485 4.9999857
-7.3142872 -1.5312135 4.8730783
-7.2448597 -1.5352131 4.8442726
-7.2211223 -1.5364549 4.8344469
-7.1983466 -1.5390486 4.8247604
-7.1275425 -1.534408 4.7969956
-7.1160164 -1.5332752 4.7925453
-7.0816917 -1.5327902 4.7787595
-6.9866152 -1.5201215 4.7426672
-6.928709 -1.5252631 4.7183075
-6.7290792 -1.5715261 4.6290522
-6.7168074 -1.5661023 4.6250944
-6.5537252 -1.5214471 4.5674253
-6.436717 -1.5258328 4.5193133
-6.3903551 -1.5321693 4.4994001
-6.3192739 -1.5229268 4.4723744
-6.2481933 -1.5136843 4.4453487
-6.1664357 -1.5178301 4.4115314
-6.0843883 -1.5171149 4.3784962
-6.0720825 -1.517314 4.3734846
-5.9677057 -1.5269692 4.3295045
-5.6520395 -1.5417095 4.1991701
-5.5695586 -1.5337026 4.1673079
-5.4629374 -1.5198389 4.1267691
-5.392869 -1.5276103 4.0970073
-5.3088231 -1.5284412 4.0628777
-5.2378273 -1.5216475 4.0354338
-5.1675615 -1.5270019 4.0060387
-5.1206856 -1.5237261 3.9876945
-5.0504198 -1.5290806 3.9582994
-4.9689941 -1.5382005 3.9236965
-4.9225559 -1.5422137 3.9041817
-4.8591671 -1.5431809 3.8783779
-4.8240271 -1.5458823 3.863673
-4.7592673 -1.5531645 3.8361471
-4.6527905 -1.5392859 3.7956698
-4.5875611 -1.5343041 3.7702219
-4.4704251 -1.5364507 3.7224724
-7.7255168 -1.5371366 5.0382233
-7.5334396 -1.0445474 5.0516601
-7.490829 -0.96602178 5.0489545
-7.4566832 -0.92290568 5.0431237
-7.0594244 -0.93006361 4.8812075
-6.9532623 -0.88601959 4.8464351
-6.7860265 -0.74586338 4.8047457
-6.3815675 -0.80658662 4.6300144
-6.3217411 -0.79367793 4.6082163
-6.2976017 -0.78782099 4.5995407
-6.2617712 -0.77833867 4.5868096
-6.0050983 -0.79201192 4.4805207
-5.980669 -0.78129393 4.4726272
-5.921133 -0.77324629 4.4500475
-5.8153796 -0.77396584 4.4071636
-5.6977921 -0.76862931 4.3606153
-5.6511407 -0.77010477 4.3414836
-5.5804939 -0.76815391 4.3132854
-5.3814387 -0.77182442 4.2321377
-5.2745342 -0.78717059 4.1860838
-5.239255 -0.78741819 4.1717763
-5.1684055 -0.78305417 4.1439424
-5.1329808 -0.78087217 4.1300254
-5.0621314 -0.77650815 4.102191
-5.0268526 -0.77675575 4.0878839
-4.9897223 -0.77816653 4.0726132
-4.980268 -0.77833915 4.068759
-4.9254217 -0.78430706 4.0454836
-4.8763781 -0.7925604 4.0241318
-4.8483305 -0.80054492 4.0113173
-4.824975 -0.8285746 3.9966927
-4.8288331 -0.83738327 3.9966235
-4.8458514 -1.0614021 3.96208
-4.8456011 -1.0690781 3.9605596
-4.7046971 -1.5321577 3.8179715
-8.0083189 -1.5484104 5.1504622
-7.9377913 -1.5486288 5.121911
-7.8560147 -1.5525736 5.0881233
-7.6919069 -1.550745 5.0221205
-8.0176373 -1.5263259 5.1583128
-7.9357224 -1.5278411 5.124918
1.3478131 1.3755889 1.9088994
1.3011713 1.377166 1.928046
1.1952882 1.3757272 1.9705834
1.1376996 1.385843 1.9957343
0.9408164 1.4149864 2.0807137
0.85105801 1.4627891 2.1258378
0.83358669 1.4710562 2.1344292
0.80231714 1.4734297 2.1475089
0.78986931 1.4735372 2.1525607
0.68312407 1.4348733 2.1885636
0.4697113 1.3916512 2.266844
0.36352825 1.3853509 2.3086038
0.26814222 1.3680815 2.3439705
0.19720316 1.3614508 2.3714216
0.16210842 1.364212 2.3861194
0.11531687 1.3633585 2.4048769
0.056075096 1.3603429 2.428268
0.0010185242 1.3628956 2.4509969
-0.10784674 1.3617277 2.4947901
-0.11639738 1.3604283 2.4980063
-0.17974687 1.3712871 2.5256233
-0.26648927 1.4341702 2.5723166
-0.23929453 1.4282858 2.560235
-0.043233395 1.3776898 2.4716213
0.00013971329 1.38359 2.4551787
0.16376162 1.3773434 2.3878794
0.22165012 1.3720895 2.3635061
1.2641239 1.3619345 1.9402061
1.3809547 1.3548344 1.8916641
1.4514437 1.3541729 1.8630465
1.4428992 1.3879967 1.8727549
1.4073548 1.383466 1.886286
-1.478219 -1.0905963 2.5953093
-1.1315444 -1.0260407 2.4671021
-1.1061466 -1.0279734 2.4564776
-1.0824485 -1.0316823 2.4462118
-0.85931802 -1.4904381 2.271183
-0.85112762 -1.4950191 2.267025
-0.78032136 -1.5285361 2.2322035
-0.66641831 -1.5118958 2.189235
-0.62020707 -1.5184414 2.1693437
-0.58522439 -1.5237417 2.154222
-0.50387669 -1.5331565 2.119596
-0.44359994 -1.5182002 2.0979946
-0.32603669 -1.5134661 2.0513446
-0.26905894 -1.5285509 2.025522
-0.13956404 -1.5250845 1.9738145
-0.034703255 -1.5312386 1.9302863
0.037547112 -1.517669 1.9035879
0.17688704 -1.5251789 1.845871
0.25852919 -1.5297651 1.812019
0.37539148 -1.5360289 1.7636187
0.49287367 -1.5325673 1.7167666
0.51487684 -1.5337677 1.7076495
0.55069351 -1.5238237 1.6950092
0.57729864 -1.5169033 1.6855338
0.79719591 -1.5460188 1.5912564
0.84338474 -1.5525742 1.5713723
0.87883759 -1.5506051 1.5574043
-3.0644913 -1.5367751 3.1540608
-3.1576161 -1.5335689 3.1922994
-3.2176485 -1.5465057 3.2141757
-3.2996445 -1.5470605 3.24722
-3.3462071 -1.5454574 3.2663395
-3.4170742 -1.5497735 3.2941897
-3.6053712 -1.5568024 3.3690095
-3.6848795 -1.5366266 3.4048815
-3.6492989 -1.5320388 3.3913462
-3.6178365 -1.5251293 3.3799052
-3.4664929 -1.5219142 3.3193188
-3.3792996 -1.5293143 3.2827022
-3.0879068 -1.110526 3.2423439
-3.1056745 -1.0666796 3.2576339
-3.1848097 -0.82429063 3.3344445
-3.0757654 -0.78418708 3.2977786
-3.0158803 -0.77368009 3.2755127
-2.9807405 -0.77638149 3.260808
-2.9456005 -0.77908301 3.246103
-2.8769274 -0.79063827 3.2162051
-2.6401677 -0.77420056 3.123534
-2.5283422 -0.77347386 3.0784626
-2.4818227 -0.77515733 3.0593457
-2.4410357 -0.77579224 3.0427401
-2.389246 -0.78581762 3.0199502
-2.296361 -0.79161584 2.981329
-2.1642108 -0.78769791 2.9286315
-7.0091715 1.3650069 5.2852716
-7.2033911 1.6308162 5.4129357
-7.2359047 1.64083 5.4279308
-7.3293858 1.6005268 5.4582686
-7.4687033 1.5608437 5.5072498
-7.5038824 1.5073335 5.5115771
-7.5837202 1.4302404 5.5295963
-7.8063927 1.3609959 5.6068082
-7.8449121 1.349436 5.6202421
-7.8161006 1.3444403 5.6076713
-7.7015524 1.2966552 5.5525289
-7.5169115 1.3541536 5.4885197
-7.4068012 1.3320053 5.4399118
-7.3593168 1.332644 5.4208345
-7.322526 1.3341948 5.4062481
-7.2100391 1.3367223 5.3612423
-7.1524096 1.3291665 5.3365488
-7.0901127 1.3345296 5.3123569
-7.0865021 1.3350354 5.3109903
-6.9086742 1.2972636 5.2321191
-1.5817821 -1.5319419 2.5555661
-1.5210428 -1.5096922 2.5351262
1.1468439 1.3617423 1.9875813
1.0426135 1.3734348 2.0318785
0.98130941 1.3727187 2.0565286
0.95911503 1.3849344 2.0677595
0.80448771 1.4077437 2.1344855
0.64941359 1.366559 2.189559
0.61983299 1.3662275 2.2014558
0.52504683 1.358681 2.238378
0.44331074 1.3630196 2.272222
0.36142492 1.3649273 2.3056774
-1.8569517 -0.88045669 2.7872696
-2.0403211 -1.4441497 2.757165
-1.8348968 -1.4684165 2.6696348
-1.5278211 -1.0594983 2.6211114
-2.5076373 -0.98642635 3.0307157
-2.5267603 -1.4067911 2.9607172
-2.4248118 -1.493482 2.9034743
-2.3199849 -1.5210098 2.8560076
-2.2734656 -1.5226933 2.8368907
-2.3089104 -1.5246865 2.8508508
-2.3443549 -1.5266798 2.8648109
-2.366662 -1.5303564 2.8731487
-2.4075036 -1.5359027 2.8886335
-2.4542131 -1.5367293 2.9073629
-2.4729962 -1.5363359 2.9150288
-2.5602202 -1.5383439 2.949918
-2.6767683 -1.5264784 2.999227
-2.7344594 -1.5211141 3.0235405
-2.8652124 -1.5359371 3.0736568
-2.99333 -1.5275997 3.1269903
-4.4484615 -1.5488327 3.7113042
-4.5547624 -1.5553067 3.7530794
-1.5931652 -1.5331274 2.5599484
-1.6415968 -1.5396049 2.5783293
-1.6770413 -1.541598 2.5922894
-1.7585433 -1.5346143 2.626528
-1.7936797 -1.5317452 2.6412625
-1.8861022 -1.5186539 2.6810453
-1.9545698 -1.5290294 2.7068048
-1.9818239 -1.5356033 2.7166069
-1.9862545 -1.5358524 2.7183518
-2.0261416 -1.5326339 2.7350714
-2.0636339 -1.533482 2.750071
-2.1811972 -1.5382158 2.796721
-2.2057877 -0.83388066 2.9368994
-2.0770874 -0.85383576 2.8811822
-1.9952774 -0.85595727 2.847718
-6.7376375 1.3747823 5.1773109
-6.9743042 1.3575653 5.2698002
-2.2047782 -1.5199928 2.809623
0 0 0 1 0 0 0 1 0 0 0 1 0 0 0 0 0 341 1 0 0
