ply
format ascii 1.0
comment PCL generated
element vertex 516
property float x
property float y
property float z
element camera 1
property float view_px
property float view_py
property float view_pz
property float x_axisx
property float x_axisy
property float x_axisz
property float y_axisx
property float y_axisy
property float y_axisz
property float z_axisx
property float z_axisy
property float z_axisz
property float focal
property float scalex
property float scaley
property float centerx
property float centery
property int viewportx
property int viewporty
property float k1
property float k2
end_header
-10.546917 -1.4344748 2.1978152
-10.544685 -1.4419521 2.1968482
-10.509147 -1.5015925 2.1820478
-10.499155 -1.5142604 2.177928
-10.462307 -1.5364285 2.1629794
-10.391553 -1.5482196 2.1345847
-10.344826 -1.545559 2.1159368
-10.097667 -1.63104 2.016304
-10.0743 -1.6309596 2.0069664
-10.060099 -1.630664 2.0012937
-9.9150658 -1.6693637 1.9429445
-9.9093781 -1.6694599 1.9406701
-9.8988085 -1.6691624 1.9364492
-9.8096581 -1.6512702 1.9009995
-9.6394138 -1.5673783 1.8338028
-9.7455044 -1.5634403 1.8762411
-9.7802486 -1.5633283 1.8901277
-9.815608 -1.5636821 1.9042552
-9.8509741 -1.5615363 1.9184107
-9.8686466 -1.5642126 1.9254467
-9.9159889 -1.5673397 1.9443353
-9.9216766 -1.5672435 1.9466093
-9.9570427 -1.5650977 1.960765
-9.9684181 -1.5649046 1.9653131
-9.9741058 -1.5648077 1.9675871
-10.003785 -1.5627586 1.9794688
-10.277134 -1.2723992 2.0916212
-10.279463 -1.2324251 2.0929527
-10.280524 -1.1925913 2.0937757
-10.280644 -1.152595 2.0942247
-10.280764 -1.1125989 2.0946734
-10.283214 -1.0326285 2.0964537
-10.285543 -0.99265444 2.0977852
-10.284721 -0.95249569 2.0978594
-10.285784 -0.91266197 2.0986826
-10.284962 -0.87250322 2.0987566
-10.286022 -0.8326695 2.0995796
-10.287085 -0.79283655 2.1004033
-10.288471 -0.75269914 2.1013598
-10.28986 -0.71256256 2.1023171
-10.289654 -0.67287004 2.1026323
-10.2901 -0.63257003 2.1032145
-10.291161 -0.59273636 2.1040378
-10.291281 -0.55274016 2.1044862
-10.291521 -0.47274774 2.1053836
-10.290758 -0.41258919 2.1056819
-10.290819 -0.39259273 2.1059065
-10.293089 -0.37261507 2.1070137
-10.296093 -0.31311074 2.1088107
-10.296479 -0.29280719 2.1091685
-10.2966 -0.25281096 2.1096175
-10.296839 -0.17281851 2.1105144
-10.290003 -0.13305962 2.1081808
-10.298261 -0.012996942 2.112684
-10.301857 0.027118385 2.1145236
-10.302217 0.14710706 2.1158695
-10.298861 0.18698418 2.1149275
-10.297 0.22682756 2.1145835
-10.292382 0.34673178 2.1139395
-10.294712 0.38670588 2.1152713
-10.305179 0.50674731 2.120657
-10.299611 0.54664654 2.1188316
-10.303209 0.58676189 2.1206715
-10.299149 0.70679486 2.1202512
-10.295791 0.74667192 2.1193092
-10.29824 0.82664227 2.1210892
-10.286199 0.90767837 2.117089
-10.290532 0.98732305 2.1196189
-10.286884 1.0279709 2.1185682
-9.9772158 1.3723201 1.9982609
-10.01827 1.3745631 2.0146904
-10.070715 1.3819977 2.0357246
-10.106081 1.3841437 2.0498798
-10.176784 1.3784362 2.0780787
-10.270216 1.365616 2.1152902
-10.414135 1.3469839 2.1726203
-10.458332 1.3465414 2.1902795
-10.469648 1.3267365 2.1946034
-10.476219 1.306672 2.1970282
-10.575246 1.1656899 2.2351911
-10.602724 1.1452051 2.2459674
-10.598982 1.0826507 2.243845
-10.598885 1.0501537 2.2434807
-10.603666 0.98524439 2.2447412
-10.607409 0.94507515 2.2458346
-10.597597 0.62019438 2.2386575
-10.584771 0.50502312 2.2323778
-10.5886 0.46506411 2.2335079
-10.581963 0.38496304 2.2300522
-10.585072 0.34472346 2.2308915
-10.595967 0.18493164 2.233645
-10.593398 0.064965099 2.231416
-10.581663 -0.0552167 2.2255218
-10.584791 -0.094919294 2.2263741
-10.583129 -0.41240144 2.2225287
-10.578077 -0.67495078 2.2178786
-10.576534 -0.71497113 2.2168612
-10.576767 -0.87494397 2.2153511
-0.10711193 -1.5205263 -1.9752809
-0.073442936 -1.5083082 -1.9886142
-0.060423851 -1.4905323 -1.9936391
-0.22557735 -1.171088 -1.924435
-0.22453499 -1.0111017 -1.9232484
-0.18529129 -0.89087981 -1.9377273
-0.17611885 -0.81098318 -1.9405926
-0.22393751 -0.40362605 -1.9174002
-0.23510838 -0.38352641 -1.9127344
-0.33951902 -0.35843152 -1.8707556
-0.4215436 -0.35350946 -1.8379256
-0.55101061 -0.35247508 -1.7861739
-0.60050678 -0.3613975 -1.7664825
-0.6330924 -0.36245406 -1.7534703
-0.66699457 -0.37421197 -1.740039
-0.69532442 -0.45253855 -1.7295021
-0.70455647 -0.57254529 -1.7270151
-0.75178051 -0.81260014 -1.7105476
-0.65884447 -0.86760205 -1.7482404
-0.55151272 -1.0220249 -1.7926823
-0.52916288 -1.0722666 -1.8021179
-0.74134874 -1.522132 -1.7218264
-0.68345785 -1.5273253 -1.7450143
-0.61265516 -1.5247238 -1.7732841
-0.59014559 -1.524968 -1.7822825
-0.48396158 -1.5273155 -1.8247422
-0.45946455 -1.528547 -1.8345445
-0.42582178 -1.5288284 -1.8479928
-0.3791914 -1.5263331 -1.8666033
-0.35323381 -1.5282795 -1.8769969
-0.31986237 -1.5273565 -1.8903242
-0.23577213 -1.5206062 -1.9238631
-0.22632504 -1.5210705 -1.9276432
-0.17793274 -1.5207045 -1.9469794
-0.15374231 -1.5230216 -1.9566702
-0.1200943 -1.520803 -1.9700953
-5.4879885 1.3796755 0.20422977
-5.5714455 1.3737527 0.23752362
-5.582777 1.373908 0.24205381
-5.6294813 1.3738593 0.26071861
-5.6988497 1.3741212 0.28844395
-5.6648545 1.3786547 0.27490342
-5.6167712 1.3818735 0.25571936
-5.4993205 1.3873303 0.20883515
-5.4412842 1.3822241 0.18558997
-5.4059105 1.3824282 0.17145517
-5.3705378 1.3801326 0.15729554
-5.4299526 1.3770691 0.18100977
-6.4065723 -0.76251304 0.54987335
-6.0993838 -0.75503099 0.42718142
-6.4466639 -1.0951512 0.56256253
-6.4529958 -1.1200345 0.56484389
-6.3324599 -1.4945015 0.51291978
-6.4173341 -1.5097513 0.54668665
-6.4527192 -1.5125042 0.56080055
-6.4881024 -1.5177571 0.57488883
-6.4993896 -1.5200527 0.57937664
-6.5814452 -1.5303539 0.61206663
-6.8897305 -1.6164132 0.73440945
-6.9039907 -1.6166576 0.74010611
-6.9273286 -1.6166822 0.74943274
-7.1445899 -1.537672 0.83705223
-7.1799755 -1.5404251 0.85116637
-7.2620358 -1.5432268 0.88393342
-7.2974243 -1.5409802 0.89809883
-7.3922939 -1.5444437 0.93597841
-7.4078388 -1.5458775 0.94217658
-7.4192142 -1.5456843 0.94672477
-7.4431977 -1.5462314 0.95630407
-7.4743547 -1.5472454 0.96874571
-7.4969325 -1.546837 0.97777307
-7.5492735 -1.5472929 0.99868631
-7.5720253 -1.5469066 1.0077828
-7.5097451 -1.5424989 0.98293698
-7.2357812 -1.1380682 0.87750065
-7.2311554 -1.0983229 0.87605035
-7.1577144 -1.0908681 0.84677446
-7.0869427 -1.087862 0.81852102
-7.0423765 -1.097774 0.8006109
-6.9920521 -1.1143962 0.78033233
-6.6173115 -0.85065937 0.6332112
-6.6018138 -0.81594288 0.62736547
-6.4908376 -0.77532995 0.58342117
-6.4532499 -0.76006216 0.56855237
-4.4122844 -0.76165247 -0.2471287
-4.5071168 -0.76236898 -0.20923638
-4.7292538 -0.76028776 -0.12043929
-4.9656076 -0.7617771 -0.025996059
-5.0570621 -0.76629221 0.010508031
-5.1184387 -0.76491296 0.035050929
-5.1297474 -0.76477611 0.039571822
-5.1966877 -0.7642076 0.066329956
-5.3254366 -0.74955964 0.11793081
-5.4187865 -0.75215733 0.15521166
-5.4654584 -0.75720584 0.17381334
-5.5362334 -0.75521231 0.20211843
-5.571619 -0.75796521 0.21623246
-5.6182942 -0.75801408 0.23488569
-5.7357688 -0.72357202 0.282179
-5.80442 -0.73161602 0.30953476
-5.8131714 -0.7316252 0.31303209
-5.9367719 -0.76529193 0.36209118
-4.3652735 1.4082727 -0.24417296
-4.3412018 1.4111027 -0.2537649
-4.2718964 1.4008859 -0.28156498
-4.3298941 1.4034662 -0.25836042
-4.3893461 1.402943 -0.23460594
-4.4119635 1.4057167 -0.22553918
-3.8089089 -1.6495805 -0.49716309
-3.7784758 -1.6493274 -0.509323
-3.7096679 -1.6091528 -0.53641927
-3.5322485 -1.5235864 -0.60646701
-3.4501791 -1.5258366 -0.63928819
-3.3794169 -1.5154508 -0.66746402
-3.2619679 -1.5225077 -0.71447289
-3.135421 -1.5272133 -0.76509404
-3.1346233 -1.5271842 -0.76541257
-3.3319638 -1.1279268 -0.68254542
-3.3298376 -1.087955 -0.68299472
-3.317168 -0.96784371 -0.68685436
-3.2972558 -0.89523953 -0.69408476
-3.3213148 -0.81057477 -0.68362129
-3.3680005 -0.78563267 -0.6647135
-3.4146886 -0.77818948 -0.64598024
-3.4500699 -0.78338242 -0.63189232
-3.5675199 -0.78382522 -0.5849582
-3.5788283 -0.78118849 -0.58041239
-3.9906292 -0.77304077 -0.4157559
-3.994163 -0.77049816 -0.41431817
-4.1193876 -0.77084684 -0.36427596
-4.1533136 -0.76543665 -0.35066351
-4.2240744 -0.76582301 -0.32238808
-4.3061438 -0.76607257 -0.28959164
-4.3769045 -0.76645899 -0.26131627
-8.4168472 -1.2585387 1.3483026
-8.3926907 -1.0986143 1.3402511
-8.3953791 -0.93865144 1.3429284
-8.2525911 -0.65670335 1.2886889
-8.4339066 -0.61905766 1.3615283
-8.4677229 -0.61378247 1.3750957
-8.4791059 -0.61108959 1.3796718
-8.5031109 -0.60413724 1.3893352
-8.5270939 -0.60468423 1.3989145
-8.691124 -0.65820855 1.4639319
-8.72649 -0.65606272 1.4780874
-8.7617893 -0.67641461 1.4919906
-8.8054848 -0.7416175 1.5088003
-8.7967882 -0.79675722 1.5047722
-8.7721653 -0.90150398 1.4938818
-8.7698345 -0.94147807 1.4925501
-8.7629652 -1.0214041 1.4890039
-8.8351402 -1.2219987 1.5158383
-8.9593945 -1.3252367 1.5644618
-9.0013313 -1.3431551 1.5810421
-9.2517214 -1.5569196 1.6789676
-9.1135254 -1.6239531 1.6230663
-9.0118694 -1.6229357 1.5824498
-8.8302097 -1.661422 1.5094645
-8.6291094 -1.5497235 1.4302149
-8.593751 -1.5493698 1.4160874
-8.511694 -1.5363562 1.3834243
-8.3941898 -1.552986 1.3362974
-8.2893381 -1.5553575 1.2943698
-8.2767305 -1.5546174 1.2893389
-8.0833969 -1.6156199 1.2114621
-8.07131 -1.6158249 1.2066299
-8.0571079 -1.6155293 1.2009572
-7.9950767 -1.5577191 1.1767455
-8.0064526 -1.5575261 1.181294
-4.7756243 1.3920258 -0.080340594
-4.7063189 1.3818091 -0.10814068
-4.8124599 1.3837292 -0.065702528
-4.8817663 1.3864466 -0.03797707
-4.9525266 1.3910598 -0.0096518695
-4.8930745 1.391583 -0.033406377
-4.8576932 1.396776 -0.047494322
-6.2167368 1.3665743 0.49534029
-6.2747731 1.3691807 0.51856041
-6.2040267 1.3720888 0.49031603
-6.1587 1.3689677 0.47217011
-9.1089239 1.3755938 1.6512839
-9.2377443 1.3724186 1.7027346
-9.167057 1.3831254 1.6745917
-9.1190758 1.3792198 1.6553775
-9.0028553 1.3791552 1.6089293
-2.219588 1.3810246 -1.1019622
-2.1728768 1.3736054 -1.1207045
-2.1488581 1.3738158 -1.1303015
-2.1198692 1.3814973 -1.1418098
-2.9319906 0.12899539 -0.82979858
-2.9364064 0.17396849 -0.82758319
-2.9273031 0.21381712 -0.83082199
-2.9227779 0.29387403 -0.83182836
-2.9341657 0.37396824 -0.82647467
-3.0267577 0.57075167 -0.78749871
-2.9581664 0.85360861 -0.81207669
-2.9633291 0.97416866 -0.80880547
-2.9608536 1.0539787 -0.80899501
-2.9495327 1.1338369 -0.81271911
-2.949527 1.1738343 -0.81232059
-3.3308363 1.4425297 -0.6572392
-2.9232087 1.4141617 -0.82043052
-2.8809421 1.4141939 -0.83732188
-2.8469801 1.4091656 -0.850945
-2.8256614 1.4069963 -0.85948682
-2.7954793 1.4041022 -0.87157798
-2.7563553 1.3992794 -0.88726199
-2.7195218 1.3950766 -0.90202451
-2.709667 1.3943361 -0.90597045
-2.630697 1.395838 -0.93751538
-5.9351296 1.3725369 0.38285667
-5.993166 1.3751433 0.40607685
-6.0525808 1.3745795 0.42981607
-6.0058761 1.3721286 0.41112608
-5.9577928 1.3703477 0.39189202
-5.92242 1.368052 0.3777324
-5.8290105 1.3681496 0.3404026
-5.7356009 1.3707471 0.30309781
-5.8176789 1.3704941 0.33589745
-5.8870468 1.3757557 0.36367279
-6.0301127 -0.78038859 0.39924335
-5.8884864 -0.89186746 0.34152576
-5.8570619 -0.89221257 0.32896355
-5.812068 -0.89146328 0.31098953
-5.5802646 -1.370198 0.21355286
-5.7509398 -1.4908404 0.28055379
-5.8993239 -1.5316141 0.33944651
-5.8880334 -1.5343181 0.33490717
-5.8767428 -1.5370221 0.33036783
-5.8413572 -1.5342691 0.31625378
-5.7480097 -1.5291717 0.27899873
-5.6659613 -1.5088712 0.24641183
-5.5506411 -1.490779 0.20050576
-5.4890347 -1.4976063 0.17581648
-5.4423585 -1.4975574 0.1571631
-5.4182611 -1.4971 0.14753719
-5.4717131 -0.97002029 0.17418052
-5.1144953 -0.94889128 0.031631291
-5.0771966 -1.5027297 0.011175543
-4.9883342 -1.5014578 -0.024325281
-4.8949561 -1.5013449 -0.061642438
-4.8128858 -1.4960958 -0.094389081
-4.7534332 -1.4930727 -0.11811873
-4.718051 -1.4803803 -0.13213184
-4.4831553 -1.5094929 -0.22629896
-4.4718466 -1.5096297 -0.23081985
-4.3543973 -1.5141866 -0.27780369
-4.2590561 -1.4913659 -0.31567773
-3.9892843 -1.5123914 -0.42370197
-3.8421626 -1.6098018 -0.4834747
-0.34036684 1.3819646 -1.8529774
-0.3855629 1.3865274 -1.8348693
-0.38413477 1.4086217 -1.8352185
-0.36214304 1.426761 -1.8438257
-0.19416523 1.3793455 -1.9114326
-0.11390829 1.3740599 -1.94356
-0.07113409 1.369473 -1.9607006
-0.018912792 1.3644217 -1.9816211
-0.07201767 1.3692877 -1.9603492
-0.078508377 1.3691493 -1.9577566
-0.084999561 1.369011 -1.9551638
-0.14932966 1.3689711 -1.9294552
-0.18227148 1.3692465 -1.9162871
-0.30631781 1.3842696 -1.8665618
-2.63132 1.3920546 -0.93730438
-2.6553435 1.3843446 -0.92778075
-2.8431628 0.9742291 -0.85682881
-2.8453796 0.93421948 -0.85634375
-2.8498096 0.88419843 -0.85507452
-2.8561754 0.85427725 -0.85283041
-2.8606241 0.81394517 -0.85145664
-2.86063 0.7739476 -0.85185504
-2.856199 0.69428718 -0.85442412
-2.8472621 0.61920941 -0.85874796
-2.8434858 0.49445587 -0.86150718
-2.8634052 0.37435466 -0.85475004
-2.8634109 0.33435714 -0.85514855
-2.8612165 0.21937627 -0.85717762
-2.8612351 0.094383985 -0.85842264
-2.8833652 -0.025729358 -0.85078204
-2.9323962 -0.2259784 -0.83319342
-2.9209983 -0.30591741 -0.83854961
-2.9313645 -0.40598285 -0.83540952
-2.9309773 -0.48596334 -0.8363657
-2.9320712 -0.4059743 -0.835127
-2.9320543 -0.30347791 -0.83410668
-3.5303607 1.4118391 -0.57780755
-3.6166711 1.4116409 -0.54331577
-3.5770507 1.4067831 -0.55919862
-2.9323609 0.014006793 -0.83080292
-2.9313126 -0.066001147 -0.8320235
-2.9342365 -0.10600218 -0.83125579
-7.8989916 1.3671342 1.1676534
-7.9103599 1.3648275 1.1721737
-7.9571171 1.372166 1.1909335
-8.0632153 1.3786038 1.2334001
-8.0973434 1.3791832 1.2470449
-8.1806898 1.3852345 1.2804147
-8.2274246 1.3850738 1.2990906
-8.3095112 1.3820595 1.3318658
-8.356245 1.3818986 1.3505412
-8.3802204 1.3788519 1.3600925
-8.4932003 1.3605294 1.4050611
-8.5020399 1.3604409 1.4085928
-8.7326069 1.3862455 1.5009965
-8.4862671 1.3677913 1.4023628
-8.4736748 1.3735309 1.397388
-8.2926273 1.4417641 1.3257164
-8.2515202 1.4220234 1.3090903
-8.1087418 1.3868755 1.2516773
-8.0152569 1.3821975 1.2142696
-7.981122 1.3791183 1.2005967
-7.8978052 1.3830659 1.1673391
-7.7575636 1.3710494 1.1111716
-7.7209663 1.3698367 1.0965334
-7.6641097 1.3763704 1.0738763
-7.7108445 1.3762096 1.0925521
-7.744957 1.3717896 1.1061407
-9.5888767 1.3732462 1.8430717
-9.6299162 1.3704886 1.8594453
-9.5901079 1.3723129 1.8435545
-9.5535107 1.3711002 1.8289165
-9.5193911 1.3730206 1.8152997
-9.5307674 1.3732138 1.8198481
-9.5433741 1.3724737 1.8248791
-9.5775013 1.3730531 1.8385235
-4.2124457 1.3939097 -0.30539414
-4.1898265 1.4036354 -0.31433645
-4.2252073 1.4009423 -0.30022362
-7.2964582 1.3777705 0.92695963
-7.3558731 1.3747071 0.95067382
-7.4165988 1.3788475 0.97498417
-7.4860849 1.3790729 1.0027564
-7.5200281 1.3817006 1.0163481
-7.5580559 1.3849313 1.0315781
-7.5454488 1.3856715 1.0265471
-7.5313597 1.3868558 1.0209283
-7.4860334 1.3887342 1.0028325
-7.4492817 1.3871087 0.98812866
-7.3672042 1.3848617 0.95530403
-7.3204994 1.3824106 0.93661416
-7.2497535 1.3778193 0.90829468
-7.2044268 1.3821976 0.89022398
-7.1450124 1.3752615 0.86640966
-7.0983076 1.3703108 0.84769475
-7.1436343 1.3709322 0.86581552
-7.2384219 1.3726642 0.90371442
-5.0422263 1.3836441 0.026122123
-5.1053581 1.3829242 0.051345289
-5.1243043 1.3833911 0.058921739
-5.158299 1.3813574 0.07248728
-5.1950507 1.382983 0.087191164
-5.1633558 1.3855046 0.07454969
-5.127975 1.3881975 0.060436904
-5.076221 1.3916097 0.039787695
-5.047359 1.3878434 0.028215408
-2.1877599 -1.5279633 -1.1438313
-2.1507447 -1.532495 -1.1586696
-2.0349317 -1.532882 -1.2049578
-2.0107727 -1.5277091 -1.2145611
-2.1394744 -1.5276173 -1.1631249
-2.7604773 -1.5252653 -0.91491961
-2.7327168 -1.5277127 -0.9260385
-2.6973364 -1.5275195 -0.94017625
-2.6602697 -1.5229735 -0.95494425
-2.620501 -1.5226166 -0.97083414
-2.6024075 -1.5206021 -0.97804499
-2.5513158 -1.5154326 -0.99841177
-2.4918072 -1.5252084 -1.0222921
-2.445163 -1.5277796 -1.040959
-2.4608004 -1.5278966 -1.0347109
-2.5030701 -1.5275861 -1.0178148
-2.5428388 -1.5279094 -1.0019245
-2.5851116 -1.5250658 -0.98500192
-2.7383645 -1.5251446 -0.92375565
-2.7355437 -1.5251787 -0.92488337
-2.6800332 -1.5203407 -0.94701946
-9.6709633 1.3702317 1.875847
-9.7006416 1.3722807 1.8877286
-9.7360001 1.3719269 1.9018557
-9.7473755 1.37212 1.906404
-9.8004293 1.3765892 1.9276516
-9.8061171 1.3766862 1.9299256
-9.853467 1.3760579 1.9488426
-9.87745 1.3755108 1.9584218
-9.8831377 1.3756078 1.960696
-9.9065056 1.3755276 1.9700342
-9.9487839 1.3743376 1.9869184
-9.6961842 1.3712513 1.885937
-9.7492161 1.3682214 1.9071004
-9.7782774 1.3707366 1.91874
-9.7833509 1.3713005 1.9207733
-9.8136444 1.3728826 1.9328957
-9.8313236 1.3727063 1.9399594
-9.8597641 1.3731887 1.9513304
-9.8654509 1.3732857 1.9536042
-9.8951225 1.3728348 1.9654579
-9.9235535 1.3708183 1.9768002
-9.9658394 1.3721269 1.9937125
-8.7667274 1.3843251 1.5146134
-8.8146706 1.3757318 1.5336876
-8.9093857 1.3794767 1.571578
-8.9435205 1.3825558 1.5852506
-8.9321442 1.3823626 1.5807023
-8.8374519 1.3861172 1.5428964
-1.7629824 -1.5248537 -1.313561
-1.8354266 -1.5303724 -1.2846643
-1.8691826 -1.527506 -1.271145
-1.8579278 -1.5276282 -1.2756442
-1.8466733 -1.5277503 -1.2801433
-2.3545787 -1.5277429 -1.0771605
-2.4097579 -1.525229 -1.0550832
-2.389986 -1.5277941 -1.0630106
-7.6388955 1.3778507 1.0638144
-7.6287584 1.3792241 1.0597768
-5.2644181 1.3807449 0.11489132
-5.323833 1.3751817 0.13858056
-5.3464961 1.3779922 0.14766592
0 0 0 1 0 0 0 1 0 0 0 1 0 0 0 0 0 516 1 0 0
