ply
format ascii 1.0
comment VCGLIB generated
element vertex 10
property float x
property float y
property float z
element face 7
property list uchar int vertex_indices
end_header
0.8518465 0.1391555 -1.757809
0.9418348 0.1055952 -1.756911
0.9596107 0.1249989 -1.810832
0.960731 0.1040213 -1.718793
0.9586946 0.1824839 -1.811776
0.9004869 0.1025439 -1.750313
0.9326242 0.1415534 -1.842517
0.87047 0.0850408 -1.72107
1.040179 0.104962 -1.738628
0.8436949 0.1427359 -1.684099
3 0 5 1
3 1 2 0
3 2 6 4
3 3 7 0
3 0 8 3
3 2 9 8
3 4 9 2