ply
format ascii 1.0
comment VCGLIB generated
element vertex 10
property float x
property float y
property float z
property float nx
property float ny
property float nz
element face 3
property list uchar int vertex_indices
property int flags
end_header
-3.709046 0.2462699 -3.253998 0 0 0 
-3.764658 0.2442119 -3.31015 0.2223526 -0.7695953 -0.5985669
-3.767038 0.2446579 -3.281096 0.8957132 -0.4376055 0.07873601
-3.784745 0.2436974 -3.31695 0 0 0 
-3.706932 0.2513883 -3.249601 0 0 0
-3.778403 0.2590525 -3.30376 0 0 0
-3.703106 0.3235841 -3.420768 0 0 0
-3.707334 0.3133474 -3.429562 0 0 0
-3.707682 0.3308415 -3.429859 0 0 0
-3.898877 0.0773889 -3.551771 0 0 0
3 3 1 2 0 
3 5 2 1 0 
3 5 1 3 0 